<?xml version="1.0" encoding="utf-8"?>
<!-- Generator: Adobe Illustrator 23.0.3, SVG Export Plug-In . SVG Version: 6.00 Build 0)  -->
<svg version="1.1" id="Layer_1" xmlns="http://www.w3.org/2000/svg" xmlns:xlink="http://www.w3.org/1999/xlink" x="0px" y="0px"
	 viewBox="0 0 72.8 76" style="enable-background:new 0 0 72.8 76;" xml:space="preserve">
<style type="text/css">
	.st0{fill:#4A555F;}
	.st1{fill:#71CCE0;}
	.st2{fill:#FFFFFF;}
	.st3{fill:#F58E6F;}
	.st4{fill:#FFD452;}
</style>
<g>
	<g>
		<g>
			<path class="st0" d="M68.3,58.9H4.5c-2.5,0-4.5-2-4.5-4.5V15.4c0-2.5,2-4.5,4.5-4.5h63.8c2.5,0,4.5,2,4.5,4.5v39.1
				C72.8,56.9,70.8,58.9,68.3,58.9z M4.5,11.8c-2,0-3.6,1.6-3.6,3.6v39.1c0,2,1.6,3.6,3.6,3.6h63.8c2,0,3.6-1.6,3.6-3.6V15.4
				c0-2-1.6-3.6-3.6-3.6H4.5z"/>
		</g>
	</g>
	<g>
		<g>
			<path class="st0" d="M67.8,53.3H5.7V16.4h62.1V53.3z M6.6,52.3h60.3v-35H6.6V52.3z"/>
		</g>
	</g>
	<g>
		<g>
			<path class="st0" d="M59.8,76H13v-4.3h10.8L27,58h18.9L49,71.7h10.8V76z M13.9,75.1h44.9v-2.5H48.3l-3.2-13.7H27.7l-3.2,13.7
				H13.9V75.1z"/>
		</g>
	</g>
	<g>
		<g>
			<polygon class="st1" points="45.2,68.6 43.6,60.9 29.2,60.9 27.6,68.6 			"/>
		</g>
	</g>
	<g>
		<g>
			<rect x="15.4" y="0.5" class="st2" width="41.9" height="52.3"/>
		</g>
	</g>
	<g>
		<g>
			<path class="st0" d="M57.8,53.3H15V0h42.8V53.3z M15.9,52.3h41V0.9h-41V52.3z"/>
		</g>
	</g>
	<g>
		<g>
			<path class="st0" d="M51.3,21.6H21V4.7h30.4V21.6z M21.9,20.7h28.5V5.6H21.9V20.7z"/>
		</g>
	</g>
	<g>
		<g>
			<polygon class="st0" points="21.7,18.6 21.1,17.9 26.8,12.5 29.6,15.7 35.4,9.8 39.4,14.3 41.7,11.8 45,15.8 48.6,11.4 
				51.2,14.5 50.5,15.1 48.6,12.9 45,17.2 41.7,13.2 39.4,15.7 35.4,11.2 29.6,17.1 26.7,13.8 			"/>
		</g>
	</g>
	<g>
		<g>
			<rect x="21.4" y="26.7" class="st0" width="29.4" height="0.9"/>
		</g>
	</g>
	<g>
		<g>
			<rect x="21.4" y="31.6" class="st0" width="29.4" height="0.9"/>
		</g>
	</g>
	<g>
		<g>
			<rect x="21.4" y="36.6" class="st0" width="9.8" height="0.9"/>
		</g>
	</g>
	<g>
		<g>
			<rect x="21.4" y="41.5" class="st0" width="9.8" height="0.9"/>
		</g>
	</g>
	<g>
		<g>
			<rect x="21.4" y="46.7" class="st0" width="9.8" height="0.9"/>
		</g>
	</g>
	<g>
		<g>
			<rect x="59.3" y="18.7" class="st3" width="6.1" height="32.3"/>
		</g>
	</g>
	<g>
		<g>
			<rect x="7.7" y="18.7" class="st3" width="6.1" height="32.3"/>
		</g>
	</g>
	<g>
		<g>
			<polygon class="st4" points="23,14.3 23,6.7 49.3,6.7 49.3,10.5 48.6,9.8 45.2,13.8 41.7,10 39.5,12.5 35.3,8.3 29.7,13.9 
				26.8,10.6 			"/>
		</g>
	</g>
	<g>
		<g>
			<path class="st0" d="M51.3,47.6h-4V35.9h4V47.6z M48.3,46.7h2.1v-9.9h-2.1V46.7z"/>
		</g>
	</g>
	<g>
		<g>
			<path class="st0" d="M45.6,47.6h-4v-9.1h4V47.6z M42.6,46.7h2.1v-7.3h-2.1V46.7z"/>
		</g>
	</g>
	<g>
		<g>
			<path class="st0" d="M39.9,47.6h-4v-6.1h4V47.6z M36.9,46.7H39v-4.3h-2.1V46.7z"/>
		</g>
	</g>
	<g>
		<g>
			<rect x="34" y="46.7" class="st0" width="19.3" height="0.9"/>
		</g>
	</g>
</g>
</svg>
