<?xml version="1.0" encoding="utf-8"?>
<!-- Generator: Adobe Illustrator 23.0.3, SVG Export Plug-In . SVG Version: 6.00 Build 0)  -->
<svg version="1.1" id="Layer_1" xmlns="http://www.w3.org/2000/svg" xmlns:xlink="http://www.w3.org/1999/xlink" x="0px" y="0px"
	 viewBox="0 0 61 76" style="enable-background:new 0 0 61 76;" xml:space="preserve">
<style type="text/css">
	.st0{fill:#4A555F;}
	.st1{fill:#71CCE0;}
	.st2{fill:#F58E6F;}
	.st3{fill:#FFD452;}
</style>
<g>
	<g>
		<g>
			<g>
				<path class="st0" d="M61,61H0V0h61V61z M0.9,60.1h59.2V0.9H0.9V60.1z"/>
			</g>
		</g>
		<g>
			<g>
				<path class="st1" d="M3.5,57.5V3.5h53.9v53.9H3.5z M30.5,8.8C17.7,8.8,7.4,19.2,7.4,31.9c0,12.8,10.4,23.2,23.2,23.2
					c12.8,0,23.2-10.4,23.2-23.2C53.7,19.2,43.3,8.8,30.5,8.8z"/>
			</g>
		</g>
		<g>
			<g>
				<g>
					<path class="st0" d="M21.5,76H10.1l8.4-15.9h10.8L21.5,76z M11.6,75.1h9.3l6.9-14h-8.8L11.6,75.1z"/>
				</g>
			</g>
			<g>
				<g>
					<polygon class="st2" points="23.8,66.9 26.1,62.1 19.7,62.1 17.2,66.9 					"/>
				</g>
			</g>
			<g>
				<g>
					<path class="st0" d="M50.9,76H39.5l-7.8-15.9h10.8L50.9,76z M40.1,75.1h9.3L42,61h-8.8L40.1,75.1z"/>
				</g>
			</g>
			<g>
				<g>
					<polygon class="st2" points="43.8,66.9 41.3,62.1 34.9,62.1 37.3,66.9 					"/>
				</g>
			</g>
		</g>
	</g>
	<g>
		<g>
			<path class="st0" d="M30.5,52.5C19.2,52.5,10,43.3,10,31.9s9.2-20.5,20.5-20.5s20.5,9.2,20.5,20.5S41.8,52.5,30.5,52.5z
				 M30.5,12.3c-10.8,0-19.6,8.8-19.6,19.6s8.8,19.6,19.6,19.6s19.6-8.8,19.6-19.6S41.3,12.3,30.5,12.3z"/>
		</g>
	</g>
	<g>
		<g>
			<circle class="st3" cx="30.5" cy="31.9" r="17.5"/>
		</g>
	</g>
	<g>
		<g>
			<path class="st0" d="M30.5,38.6c-0.1,0-0.3,0-0.4,0l0.1-0.9c0.3,0,0.6,0,0.9,0l0.1,0.9C30.9,38.6,30.7,38.6,30.5,38.6z
				 M29.1,38.5c-0.3-0.1-0.6-0.2-1-0.3l0.3-0.9c0.3,0.1,0.5,0.2,0.8,0.2L29.1,38.5z M32.1,38.5l-0.2-0.9c0.3-0.1,0.6-0.2,0.8-0.3
				l0.3,0.9C32.7,38.3,32.4,38.4,32.1,38.5z M27.3,37.8c-0.3-0.2-0.6-0.3-0.8-0.5l0.6-0.7c0.2,0.2,0.5,0.3,0.7,0.5L27.3,37.8z
				 M33.9,37.7l-0.5-0.8c0.2-0.1,0.5-0.3,0.7-0.5l0.6,0.7C34.5,37.4,34.2,37.5,33.9,37.7z M25.7,36.6c-0.2-0.2-0.4-0.5-0.6-0.8
				l0.8-0.5c0.2,0.2,0.3,0.5,0.5,0.7L25.7,36.6z M35.4,36.5l-0.7-0.6c0.2-0.2,0.4-0.4,0.5-0.7l0.8,0.5C35.9,36,35.7,36.2,35.4,36.5z
				 M24.5,35c-0.1-0.3-0.3-0.6-0.4-0.9l0.9-0.3c0.1,0.3,0.2,0.5,0.3,0.8L24.5,35z M36.5,34.8l-0.8-0.4c0.1-0.3,0.2-0.5,0.3-0.8
				l0.9,0.3C36.8,34.2,36.7,34.5,36.5,34.8z M23.9,33.1c-0.1-0.3-0.1-0.7-0.1-1l0.9,0c0,0.3,0,0.6,0.1,0.9L23.9,33.1z M37.1,32.9
				l-0.9-0.1c0-0.3,0.1-0.6,0.1-0.9c0-0.1,0-0.2,0-0.2l0.9,0c0,0.1,0,0.2,0,0.3C37.2,32.3,37.2,32.6,37.1,32.9z M24.8,31.2l-0.9-0.1
				c0-0.3,0.1-0.7,0.2-1l0.9,0.3C24.9,30.6,24.8,30.9,24.8,31.2z M36.2,30.8c-0.1-0.3-0.1-0.6-0.2-0.8l0.9-0.3
				c0.1,0.3,0.2,0.6,0.3,1L36.2,30.8z M25.3,29.6l-0.8-0.4c0.1-0.3,0.3-0.6,0.5-0.9l0.8,0.5C25.5,29.1,25.4,29.3,25.3,29.6z
				 M35.6,29.2c-0.1-0.2-0.3-0.5-0.5-0.7l0.7-0.6c0.2,0.3,0.4,0.5,0.5,0.8L35.6,29.2z M26.2,28.1l-0.7-0.6c0.2-0.2,0.5-0.5,0.7-0.7
				l0.6,0.7C26.6,27.7,26.4,27.9,26.2,28.1z M34.6,27.9c-0.2-0.2-0.4-0.4-0.6-0.6l0.6-0.7c0.3,0.2,0.5,0.4,0.8,0.6L34.6,27.9z
				 M27.5,27L27,26.2c0.3-0.2,0.6-0.3,0.9-0.5l0.4,0.9C28,26.8,27.7,26.9,27.5,27z M33.2,26.9c-0.3-0.1-0.5-0.3-0.8-0.3l0.3-0.9
				c0.3,0.1,0.6,0.2,0.9,0.4L33.2,26.9z M29.1,26.4l-0.2-0.9c0.3-0.1,0.6-0.1,1-0.2l0.1,0.9C29.6,26.2,29.3,26.3,29.1,26.4z
				 M31.6,26.3c-0.3-0.1-0.6-0.1-0.9-0.1l0-0.9c0.3,0,0.7,0.1,1,0.1L31.6,26.3z"/>
		</g>
	</g>
	<g>
		<g>
			
				<rect x="40" y="27.8" transform="matrix(0.7071 -0.7071 0.7071 0.7071 -17.7805 40.9053)" class="st0" width="0.9" height="28.2"/>
		</g>
	</g>
	<g>
		<g>
			<polygon class="st0" points="47.6,53.1 46.7,53.1 46.7,48.1 51.6,48.1 51.6,49 47.6,49 			"/>
		</g>
	</g>
	<g>
		<g>
			<polygon class="st0" points="50.9,56.4 50,56.4 50,51.4 54.9,51.4 54.9,52.4 50.9,52.4 			"/>
		</g>
	</g>
</g>
</svg>
