<?xml version="1.0" encoding="utf-8"?>
<!-- Generator: Adobe Illustrator 23.0.3, SVG Export Plug-In . SVG Version: 6.00 Build 0)  -->
<svg version="1.1" id="Layer_1" xmlns="http://www.w3.org/2000/svg" xmlns:xlink="http://www.w3.org/1999/xlink" x="0px" y="0px"
	 viewBox="0 0 74.5 76" style="enable-background:new 0 0 74.5 76;" xml:space="preserve">
<style type="text/css">
	.st0{fill:#4A555F;}
	.st1{fill:#71CCE0;}
	.st2{fill:#F58E6F;}
</style>
<g>
	<g>
		<g>
			<g>
				<path class="st0" d="M28.1,55.1c-3.9,0-7.2-3.1-7.8-7.3c-4.2-0.2-7.6-4-7.6-8.7c0-2.6,1-5,2.8-6.7c-1.8-1.7-2.8-4.1-2.8-6.7
					c0-4.7,3.4-8.5,7.6-8.7c0.6-4.2,3.9-7.3,7.8-7.3c4.4,0,7.9,3.9,7.9,8.7v28C36,51.1,32.4,55.1,28.1,55.1z M21.1,46.8l0,0.4
					c0.4,3.9,3.4,6.9,6.9,6.9c3.9,0,7-3.5,7-7.8v-28c0-4.3-3.1-7.8-7-7.8c-3.6,0-6.5,3-6.9,6.9l0,0.4l-0.5,0c-3.9,0-7,3.5-7,7.8
					c0,2.5,1.1,4.8,2.9,6.3l0.4,0.4l-0.4,0.4c-1.8,1.5-2.9,3.8-2.9,6.3c0,4.3,3.1,7.8,7,7.8L21.1,46.8z"/>
			</g>
		</g>
		<g>
			<g>
				<path class="st1" d="M28.1,53c-3,0-5.5-2.6-5.9-5.9L22,45.7l-1.5,0c-3.3,0-5.9-3-5.9-6.7c0-2.2,0.9-4.2,2.5-5.5l1.5-1.2
					l-1.5-1.2c-1.5-1.3-2.5-3.3-2.5-5.5c0-3.7,2.6-6.7,5.9-6.7l1.5,0l0.1-1.4c0.3-3.4,2.9-5.9,5.9-5.9c3.3,0,5.9,3,5.9,6.7v28
					C34,50,31.3,53,28.1,53z"/>
			</g>
		</g>
		<g>
			<g>
				<path class="st0" d="M46.5,55.1c-4.4,0-7.9-3.9-7.9-8.7v-28c0-4.8,3.6-8.7,7.9-8.7c3.9,0,7.2,3.1,7.8,7.3c4.2,0.2,7.6,4,7.6,8.7
					c0,2.6-1,5-2.8,6.7c1.8,1.7,2.8,4.1,2.8,6.7c0,4.7-3.4,8.5-7.6,8.7C53.7,51.9,50.4,55.1,46.5,55.1z M46.5,10.5
					c-3.9,0-7,3.5-7,7.8v28c0,4.3,3.1,7.8,7,7.8c3.6,0,6.5-3,6.9-6.9l0-0.4l0.5,0c3.9,0,7-3.5,7-7.8c0-2.5-1.1-4.8-2.9-6.3l-0.4-0.4
					l0.4-0.4c1.8-1.5,2.9-3.8,2.9-6.3c0-4.3-3.1-7.8-7-7.8l-0.5,0l0-0.4C53.1,13.5,50.1,10.5,46.5,10.5z"/>
			</g>
		</g>
		<g>
			<g>
				<path class="st1" d="M46.5,53c-3.3,0-5.9-3-5.9-6.7v-28c0-3.7,2.7-6.7,5.9-6.7c3,0,5.5,2.6,5.9,5.9l0.1,1.4l1.5,0
					c3.3,0,5.9,3,5.9,6.7c0,2.2-0.9,4.2-2.5,5.5l-1.5,1.2l1.5,1.2c1.5,1.3,2.5,3.3,2.5,5.5c0,3.7-2.6,6.7-5.9,6.7l-1.5,0l-0.1,1.4
					C52,50.5,49.5,53,46.5,53z"/>
			</g>
		</g>
		<g>
			<g>
				<path class="st0" d="M52.2,22.4h-0.9c0-2.2-1.8-4-4-4c-2.2,0-4,1.8-4,4h-0.9c0-2.7,2.2-4.9,4.9-4.9C50,17.4,52.2,19.7,52.2,22.4
					z"/>
			</g>
		</g>
		<g>
			<g>
				<path class="st0" d="M47.2,47.8c-2.6,0-4.7-2.1-4.7-4.7h0.9c0,2.1,1.7,3.8,3.8,3.8c2.1,0,3.8-1.7,3.8-3.8h0.9
					C51.9,45.7,49.8,47.8,47.2,47.8z"/>
			</g>
		</g>
		<g>
			<g>
				<path class="st0" d="M53.8,40.3c-1.6,0-3-1.3-3-3h0.9c0,1.1,0.9,2,2,2c1.1,0,2-0.9,2-2h0.9C56.8,39,55.5,40.3,53.8,40.3z"/>
			</g>
		</g>
		<g>
			<g>
				<path class="st0" d="M45.9,38.5c-1.6,0-3-1.3-3-3c0-1.6,1.3-3,3-3v0.9c-1.1,0-2,0.9-2,2c0,1.1,0.9,2,2,2V38.5z"/>
			</g>
		</g>
		<g>
			<g>
				<path class="st0" d="M51.4,29h-0.9c0-1.1-0.9-2-2-2c-1.1,0-2,0.9-2,2h-0.9c0-1.6,1.3-3,3-3C50.1,26,51.4,27.3,51.4,29z"/>
			</g>
		</g>
		<g>
			<g>
				<path class="st0" d="M55.1,29V28c1.1,0,1.9-0.9,1.9-1.9s-0.9-1.9-1.9-1.9v-0.9c1.6,0,2.8,1.3,2.8,2.8C58,27.7,56.7,29,55.1,29z"
					/>
			</g>
		</g>
		<g>
			<g>
				<path class="st0" d="M25.2,32.3c-2.1,0-3.8-1.7-3.8-3.8h0.9c0,1.6,1.3,2.8,2.8,2.8c1.6,0,2.8-1.3,2.8-2.8H29
					C29,30.6,27.3,32.3,25.2,32.3z"/>
			</g>
		</g>
		<g>
			<g>
				<path class="st0" d="M20.9,41.5c-1.6,0-2.8-1.3-2.8-2.8H19c0,1.1,0.9,1.9,1.9,1.9c1.1,0,1.9-0.9,1.9-1.9h0.9
					C23.8,40.2,22.5,41.5,20.9,41.5z"/>
			</g>
		</g>
		<g>
			<g>
				<path class="st0" d="M31.4,41.4c-1.9,0-3.4-1.5-3.4-3.4c0-1.9,1.5-3.4,3.4-3.4v0.9c-1.3,0-2.4,1.1-2.4,2.4
					c0,1.3,1.1,2.4,2.4,2.4V41.4z"/>
			</g>
		</g>
		<g>
			<g>
				<path class="st0" d="M28.5,48.5c-1.2,0-2.2-1-2.2-2.2h0.9c0,0.7,0.6,1.2,1.2,1.2c0.7,0,1.2-0.6,1.2-1.2h0.9
					C30.7,47.5,29.7,48.5,28.5,48.5z"/>
			</g>
		</g>
		<g>
			<g>
				<path class="st0" d="M22.6,24.6c-1.2,0-2.2-1-2.2-2.2s1-2.2,2.2-2.2v0.9c-0.7,0-1.2,0.6-1.2,1.2c0,0.7,0.6,1.2,1.2,1.2V24.6z"/>
			</g>
		</g>
		<g>
			<g>
				<path class="st0" d="M29.2,22.9v-0.9c1.2,0,2.2-1,2.2-2.2c0-1.2-1-2.2-2.2-2.2v-0.9c1.7,0,3.1,1.4,3.1,3.1
					C32.3,21.5,30.9,22.9,29.2,22.9z"/>
			</g>
		</g>
	</g>
	<g>
		<g>
			<g>
				<path class="st0" d="M44.5,73.6H30V59.1h14.5V73.6z M31,72.7h12.6V60H31V72.7z"/>
			</g>
		</g>
		<g>
			<g>
				<rect x="32.1" y="61.1" class="st2" width="10.5" height="10.5"/>
			</g>
		</g>
		<g>
			<g>
				<rect x="44.1" y="62.2" class="st0" width="4" height="0.9"/>
			</g>
		</g>
		<g>
			<g>
				<rect x="44.1" y="65.9" class="st0" width="4" height="0.9"/>
			</g>
		</g>
		<g>
			<g>
				<rect x="44.1" y="69.5" class="st0" width="4" height="0.9"/>
			</g>
		</g>
		<g>
			<g>
				<rect x="27" y="62.2" class="st0" width="4" height="0.9"/>
			</g>
		</g>
		<g>
			<g>
				<rect x="27" y="65.9" class="st0" width="4" height="0.9"/>
			</g>
		</g>
		<g>
			<g>
				<rect x="27" y="69.5" class="st0" width="4" height="0.9"/>
			</g>
		</g>
		<g>
			<g>
				<rect x="40.5" y="73.1" class="st0" width="0.9" height="2.9"/>
			</g>
		</g>
		<g>
			<g>
				<rect x="36.8" y="73.1" class="st0" width="0.9" height="2.9"/>
			</g>
		</g>
		<g>
			<g>
				<rect x="33.2" y="73.1" class="st0" width="0.9" height="2.9"/>
			</g>
		</g>
		<g>
			<g>
				<rect x="40.5" y="57.1" class="st0" width="0.9" height="2.9"/>
			</g>
		</g>
		<g>
			<g>
				<rect x="36.8" y="57.1" class="st0" width="0.9" height="2.9"/>
			</g>
		</g>
		<g>
			<g>
				<rect x="33.2" y="57.1" class="st0" width="0.9" height="2.9"/>
			</g>
		</g>
	</g>
	<g>
		<g>
			<polygon class="st0" points="72,67 52,67 52,66.1 71.1,66.1 71.1,0.9 46.4,0.9 46.4,6.7 45.5,6.7 45.5,0 72,0 			"/>
		</g>
	</g>
	<g>
		<g>
			<polygon class="st0" points="23.1,67 2.5,67 2.5,0 29.7,0 29.7,6.7 28.7,6.7 28.7,0.9 3.4,0.9 3.4,66.1 23.1,66.1 			"/>
		</g>
	</g>
	<g>
		<g>
			<g>
				
					<rect x="69.8" y="30.9" transform="matrix(0.7794 -0.6265 0.6265 0.7794 -5.1724 51.2973)" class="st0" width="0.9" height="4.1"/>
			</g>
		</g>
		<g>
			<g>
				
					<rect x="70.8" y="32.5" transform="matrix(0.6264 -0.7795 0.7795 0.6264 1.4995 69.116)" class="st0" width="4.1" height="0.9"/>
			</g>
		</g>
	</g>
	<g>
		<g>
			<g>
				
					<rect x="1.2" y="30.9" transform="matrix(0.7794 -0.6265 0.6265 0.7794 -20.3048 8.3194)" class="st0" width="0.9" height="4.1"/>
			</g>
		</g>
		<g>
			<g>
				
					<rect x="2.2" y="32.5" transform="matrix(0.6264 -0.7795 0.7795 0.6264 -24.1257 15.6471)" class="st0" width="4.1" height="0.9"/>
			</g>
		</g>
	</g>
</g>
</svg>
