<?xml version="1.0" encoding="utf-8"?>
<!-- Generator: Adobe Illustrator 23.0.3, SVG Export Plug-In . SVG Version: 6.00 Build 0)  -->
<svg version="1.1" id="Layer_1" xmlns="http://www.w3.org/2000/svg" xmlns:xlink="http://www.w3.org/1999/xlink" x="0px" y="0px"
	 viewBox="0 0 920 225.4" style="enable-background:new 0 0 920 225.4;" xml:space="preserve">
<style type="text/css">
	.st0{fill:#4A555F;}
	.st1{fill:#FFD452;}
	.st2{fill:#F58E6F;}
	.st3{fill:#DFDFDF;}
	.st4{fill:#71CCE0;}
	.st5{fill:#C5F1F1;}
</style>
<g>
	<g>
		<g>
			<g>
				<g>
					<g>
						<g>
							<path class="st0" d="M172,83.8h-10.3l-0.3-0.7c0,0-0.5-1.2-1.1-2.7c-1.4,0.6-2.7,1.2-2.7,1.2l-0.7,0.3l-7.3-7.3l0.3-0.7
								c0,0,0.5-1.2,1.2-2.7c-1.5-0.6-2.7-1.1-2.7-1.1l-0.7-0.3V59.6l0.7-0.3c0,0,1.2-0.5,2.7-1.1c-0.6-1.4-1.2-2.7-1.2-2.7
								l-0.3-0.7l7.3-7.3l0.7,0.3c0,0,1.2,0.5,2.7,1.2c0.6-1.4,1.1-2.7,1.1-2.7l0.3-0.7H172l0.3,0.7c0,0,0.5,1.2,1.1,2.7
								c1.4-0.6,2.7-1.2,2.7-1.2l0.7-0.3l7.3,7.3l-0.3,0.7c0,0-0.5,1.2-1.2,2.7c1.5,0.6,2.7,1.1,2.7,1.1l0.7,0.3v10.3l-0.7,0.3
								c0,0-1.2,0.5-2.7,1.1c0.6,1.4,1.2,2.7,1.2,2.7l0.3,0.7l-7.3,7.3l-0.7-0.3c0,0-1.2-0.5-2.7-1.2c-0.6,1.4-1.1,2.7-1.1,2.7
								L172,83.8z M163.1,81.6h7.3c0.3-0.7,0.7-1.9,1.2-3.1l0.4-1.1l1.1,0.5c1.1,0.5,2.3,1,3,1.3l5.2-5.2c-0.3-0.7-0.8-1.9-1.3-3
								l-0.5-1.1l1.1-0.4c1.2-0.5,2.3-0.9,3.1-1.2v-7.3c-0.7-0.3-1.9-0.7-3.1-1.2l-1.1-0.4l0.5-1.1c0.5-1.1,1-2.3,1.3-3l-5.2-5.2
								c-0.7,0.3-1.9,0.8-3,1.3l-1.1,0.5l-0.4-1.1c-0.5-1.2-0.9-2.3-1.2-3.1h-7.3c-0.3,0.7-0.7,1.9-1.2,3.1l-0.4,1.1l-1.1-0.5
								c-1.1-0.5-2.3-1-3-1.3l-5.2,5.2c0.3,0.7,0.8,1.9,1.3,3l0.5,1.1l-1.1,0.4c-1.2,0.5-2.3,0.9-3.1,1.2v7.3
								c0.7,0.3,1.9,0.7,3.1,1.2l1.1,0.4l-0.5,1.1c-0.5,1.1-1,2.3-1.3,3l5.2,5.2c0.7-0.3,1.9-0.8,3-1.3l1.1-0.5l0.4,1.1
								C162.4,79.7,162.9,80.9,163.1,81.6z M166.8,73.8c-5,0-9.1-4.1-9.1-9.1c0-5,4.1-9.1,9.1-9.1c5,0,9.1,4.1,9.1,9.1
								C175.9,69.8,171.8,73.8,166.8,73.8z M166.8,57.9c-3.8,0-6.9,3.1-6.9,6.9s3.1,6.9,6.9,6.9c3.8,0,6.9-3.1,6.9-6.9
								S170.6,57.9,166.8,57.9z"/>
						</g>
					</g>
					<g>
						<g>
							<path class="st1" d="M164.8,79.3c-0.2-0.5-1.4-3.6-1.4-3.6c1.1,0.4,2.3,0.5,3.5,0.5c1.2,0,2.4-0.2,3.5-0.5
								c0,0-1.2,3.1-1.4,3.6H164.8z M155.1,73.6c0.2-0.5,1.6-3.6,1.6-3.6c1.1,2.1,2.8,3.8,4.9,4.9c0,0-3.1,1.4-3.6,1.6L155.1,73.6z
								 M172,74.9c2.1-1.1,3.8-2.8,4.9-4.9c0,0,1.4,3.1,1.6,3.6l-2.9,2.9C175.1,76.3,172,74.9,172,74.9z M177.7,68.3
								c0.4-1.1,0.5-2.3,0.5-3.5c0-1.2-0.2-2.4-0.5-3.5c0,0,3.1,1.2,3.6,1.4v4.1C180.8,67,177.7,68.3,177.7,68.3z M152.3,66.8v-4.1
								c0.5-0.2,3.6-1.4,3.6-1.4c-0.4,1.1-0.5,2.3-0.5,3.5c0,1.2,0.2,2.4,0.5,3.5C155.9,68.3,152.8,67,152.3,66.8z M177,59.6
								c-1.1-2.1-2.8-3.8-4.9-4.9c0,0,3.1-1.4,3.6-1.6l2.9,2.9C178.3,56.5,177,59.6,177,59.6z M155.1,56l2.9-2.9
								c0.5,0.2,3.6,1.6,3.6,1.6c-2.1,1.1-3.8,2.8-4.9,4.9C156.7,59.6,155.3,56.5,155.1,56z M170.3,53.9c-1.1-0.4-2.3-0.5-3.5-0.5
								c-1.2,0-2.4,0.2-3.5,0.5c0,0,1.2-3.1,1.4-3.6h4.1C169.1,50.8,170.3,53.9,170.3,53.9z"/>
						</g>
					</g>
				</g>
				<g>
					<g>
						<path class="st0" d="M172,132.3l-0.2,0.1l-1.4,0.5h0l-0.5,0.2c0.3,0.7,0.6,1.4,0.9,2.1l2-0.9
							C172.5,133.6,172.3,132.9,172,132.3z M170.7,128.2l-2.1,0.5c0.2,0.7,0.4,1.5,0.6,2.2l2.1-0.7
							C171.1,129.6,170.9,128.9,170.7,128.2z M169.9,124l-2.2,0.3c0.1,0.7,0.2,1.5,0.4,2.2l2.2-0.4C170.1,125.4,170,124.7,169.9,124
							z M169.6,119.7l-2.2,0c0,0.8,0,1.5,0.1,2.3l2.2-0.2C169.7,121.2,169.6,120.5,169.6,119.7z M167.6,115.3
							c-0.1,0.7-0.1,1.5-0.2,2.3l2.2,0.1c0-0.7,0.1-1.4,0.1-2.1L167.6,115.3z M168.3,110.8c-0.2,0.7-0.3,1.5-0.4,2.2l2.2,0.3
							c0.1-0.7,0.2-1.4,0.4-2.1L168.3,110.8z M169.5,106.4c-0.2,0.7-0.5,1.4-0.7,2.2l2.1,0.6c0.2-0.7,0.4-1.4,0.6-2L169.5,106.4z
							 M171.2,102.2c-0.3,0.7-0.6,1.4-0.9,2.1l2,0.8c0.3-0.7,0.6-1.3,0.9-2L171.2,102.2z M173.4,98.3c-0.4,0.6-0.8,1.3-1.1,2
							l1.9,1.1c0.3-0.6,0.7-1.2,1.1-1.8L173.4,98.3z M176,94.6c-0.5,0.6-0.9,1.2-1.4,1.8l1.8,1.3c0.4-0.6,0.8-1.2,1.3-1.7L176,94.6z
							 M179,91.2c-0.5,0.5-1.1,1.1-1.6,1.6l1.6,1.5c0.5-0.5,1-1,1.5-1.6L179,91.2z M182.4,88.2c-0.6,0.5-1.2,1-1.7,1.5l1.5,1.6
							c0.5-0.5,1.1-0.9,1.6-1.4L182.4,88.2z M186.1,85.6c-0.6,0.4-1.3,0.8-1.9,1.2l1.3,1.8c0.6-0.4,1.2-0.8,1.8-1.2L186.1,85.6z
							 M190.1,83.4c-0.7,0.3-1.4,0.7-2,1l1,1.9c0.6-0.3,1.3-0.7,1.9-1L190.1,83.4z M194.3,81.8c-0.7,0.2-1.4,0.5-2.1,0.8l0.8,2
							c0.7-0.3,1.3-0.5,2-0.7L194.3,81.8z"/>
					</g>
				</g>
				<g>
					<g>
						<polygon class="st0" points="172.3,136.8 163.8,131.1 165,129.3 171.3,133.5 174.3,126.4 176.4,127.3 						"/>
					</g>
				</g>
			</g>
			<g>
				<g>
					<g>
						<g>
							<path class="st0" d="M684.1,225.4h-82.5v-6.8h82.5V225.4z M603.6,223.4H682v-2.7h-78.4V223.4z"/>
						</g>
					</g>
					<g>
						<g>
							<g>
								<path class="st0" d="M626.7,220.7h-10.7v-11.5h10.7V220.7z M618,218.6h6.7v-7.5H618V218.6z"/>
							</g>
						</g>
						<g>
							<g>
								<path class="st0" d="M669.8,220.7H659v-11.5h10.7V220.7z M661.1,218.6h6.7v-7.5h-6.7V218.6z"/>
							</g>
						</g>
					</g>
					<g>
						<g>
							<path class="st0" d="M685.2,211.2h-84.8v-18.9l8.4-6.3h68l8.4,6.3V211.2z M602.5,209.1h80.7v-15.9l-7-5.3h-66.6l-7,5.3V209.1
								z"/>
						</g>
					</g>
					<g>
						<g>
							<polygon class="st2" points="675.4,190.3 643.5,190.3 643.5,206.7 680.8,206.7 680.8,194.4 							"/>
						</g>
					</g>
					<g>
						<g>
							<path class="st0" d="M685.2,187.9h-84.8V169l8.4-6.3h68l8.4,6.3V187.9z M602.5,185.9h80.7V170l-7-5.3h-66.6l-7,5.3V185.9z"/>
						</g>
					</g>
					<g>
						<g>
							<polygon class="st2" points="675.4,167.1 643.5,167.1 643.5,183.5 680.8,183.5 680.8,171.2 							"/>
						</g>
					</g>
					<g>
						<g>
							<path class="st0" d="M685.2,164.7h-84.8v-18.9l8.4-6.3h68l8.4,6.3V164.7z M602.5,162.7h80.7v-15.9l-7-5.3h-66.6l-7,5.3V162.7
								z"/>
						</g>
					</g>
					<g>
						<g>
							<polygon class="st2" points="675.4,143.8 643.5,143.8 643.5,160.3 680.8,160.3 680.8,148 							"/>
						</g>
					</g>
					<g>
						<g>
							<path class="st0" d="M613.7,155.4c-1.8,0-3.3-1.5-3.3-3.3c0-1.8,1.5-3.3,3.3-3.3s3.3,1.5,3.3,3.3
								C617,153.9,615.5,155.4,613.7,155.4z M613.7,150.8c-0.7,0-1.3,0.6-1.3,1.3s0.6,1.3,1.3,1.3s1.3-0.6,1.3-1.3
								S614.4,150.8,613.7,150.8z"/>
						</g>
					</g>
					<g>
						<g>
							<path class="st0" d="M613.7,178.6c-1.8,0-3.3-1.5-3.3-3.3c0-1.8,1.5-3.3,3.3-3.3s3.3,1.5,3.3,3.3
								C617,177.1,615.5,178.6,613.7,178.6z M613.7,174c-0.7,0-1.3,0.6-1.3,1.3c0,0.7,0.6,1.3,1.3,1.3s1.3-0.6,1.3-1.3
								C614.9,174.6,614.4,174,613.7,174z"/>
						</g>
					</g>
					<g>
						<g>
							<path class="st0" d="M613.7,201.9c-1.8,0-3.3-1.5-3.3-3.3c0-1.8,1.5-3.3,3.3-3.3s3.3,1.5,3.3,3.3
								C617,200.4,615.5,201.9,613.7,201.9z M613.7,197.2c-0.7,0-1.3,0.6-1.3,1.3s0.6,1.3,1.3,1.3s1.3-0.6,1.3-1.3
								S614.4,197.2,613.7,197.2z"/>
						</g>
					</g>
					<g>
						<g>
							<path class="st0" d="M672.4,155.4c-1.8,0-3.3-1.5-3.3-3.3c0-1.8,1.5-3.3,3.3-3.3c1.8,0,3.3,1.5,3.3,3.3
								C675.7,153.9,674.2,155.4,672.4,155.4z M672.4,150.8c-0.7,0-1.3,0.6-1.3,1.3s0.6,1.3,1.3,1.3c0.7,0,1.3-0.6,1.3-1.3
								S673.1,150.8,672.4,150.8z"/>
						</g>
					</g>
					<g>
						<g>
							<path class="st0" d="M672.4,178.6c-1.8,0-3.3-1.5-3.3-3.3c0-1.8,1.5-3.3,3.3-3.3c1.8,0,3.3,1.5,3.3,3.3
								C675.7,177.1,674.2,178.6,672.4,178.6z M672.4,174c-0.7,0-1.3,0.6-1.3,1.3c0,0.7,0.6,1.3,1.3,1.3c0.7,0,1.3-0.6,1.3-1.3
								C673.7,174.6,673.1,174,672.4,174z"/>
						</g>
					</g>
					<g>
						<g>
							<path class="st0" d="M672.4,201.9c-1.8,0-3.3-1.5-3.3-3.3c0-1.8,1.5-3.3,3.3-3.3c1.8,0,3.3,1.5,3.3,3.3
								C675.7,200.4,674.2,201.9,672.4,201.9z M672.4,197.2c-0.7,0-1.3,0.6-1.3,1.3s0.6,1.3,1.3,1.3c0.7,0,1.3-0.6,1.3-1.3
								S673.1,197.2,672.4,197.2z"/>
						</g>
					</g>
				</g>
				<g>
					<g>
						<path class="st0" d="M757.1,130.8h-57.5c-12.1,0-22-9.9-22-22c0-12.1,9.9-22,22-22c0.4,0,0.9,0,1.4,0
							c4.9-11.8,16.6-19.7,29.4-19.7c17.5,0,31.8,14.3,31.8,31.8c0,0.7,0,1.5-0.1,2.3c6,2.1,10.2,7.9,10.2,14.3
							C772.3,124,765.4,130.8,757.1,130.8z M699.6,88.9c-11,0-19.9,8.9-19.9,19.9c0,11,8.9,19.9,19.9,19.9h57.5
							c7.3,0,13.2-5.9,13.2-13.2c0-5.8-3.9-11-9.5-12.6l-0.8-0.2l0.1-0.8c0.1-1,0.1-1.9,0.1-2.9c0-16.4-13.4-29.8-29.8-29.8
							c-12.2,0-23.4,7.7-27.8,19.1l-0.3,0.7l-0.8-0.1C700.9,89,700.2,88.9,699.6,88.9z"/>
					</g>
				</g>
				<g>
					<g>
						<path class="st3" d="M760.1,105.3l-2.7-0.8l0.3-2.8c0.1-0.9,0.1-1.8,0.1-2.7c0-15.1-12.3-27.4-27.4-27.4
							c-11.3,0-21.5,7.1-25.6,17.6l-0.9,2.4l-2.6-0.3c-0.6-0.1-1.2-0.1-1.7-0.1c-9.7,0-17.5,7.9-17.5,17.5s7.9,17.5,17.5,17.5h57.5
							c5.9,0,10.8-4.8,10.8-10.8C767.8,110.8,764.6,106.6,760.1,105.3z M743.8,121.6h-26.2v-4.2h-3.9V85.2H740v4.2h3.9V121.6z"/>
					</g>
				</g>
				<g>
					<g>
						<g>
							<path class="st0" d="M737.9,115.4h-22V87.3h22V115.4z M717.9,113.3h17.9v-24h-17.9V113.3z"/>
						</g>
					</g>
					<g>
						<g>
							<path class="st0" d="M741.8,119.6h-22v-6.2h16.1V91.5h5.9V119.6z M721.8,117.5h17.9v-24h-1.8v21.8h-16.1V117.5z"/>
						</g>
					</g>
					<g>
						<g>
							<rect x="721.3" y="92.5" class="st0" width="11.2" height="2"/>
						</g>
					</g>
					<g>
						<g>
							<rect x="721.3" y="96.4" class="st0" width="11.2" height="2"/>
						</g>
					</g>
					<g>
						<g>
							<rect x="721.3" y="100.3" class="st0" width="11.2" height="2"/>
						</g>
					</g>
					<g>
						<g>
							<rect x="721.3" y="104.2" class="st0" width="11.2" height="2"/>
						</g>
					</g>
					<g>
						<g>
							<rect x="721.3" y="108.1" class="st0" width="5.9" height="2"/>
						</g>
					</g>
				</g>
				<g>
					<g>
						<path class="st0" d="M741.8,119.6h-22v-4.2h-3.9V87.3h22v4.2h3.9V119.6z M721.8,117.5h17.9v-24h-3.9v-4.2h-17.9v24h3.9V117.5z
							"/>
					</g>
				</g>
				<g>
					<g>
						<path class="st0" d="M690.6,198.4l-0.2-2c0.7-0.1,1.3-0.1,2-0.2l0.2,2C692,198.3,691.3,198.3,690.6,198.4z M694.7,197.9
							l-0.3-2c0.7-0.1,1.3-0.2,2-0.3l0.4,2C696.1,197.7,695.4,197.8,694.7,197.9z M698.8,197.1l-0.5-2c0.7-0.1,1.3-0.3,1.9-0.5
							l0.5,2C700.1,196.8,699.5,196.9,698.8,197.1z M702.8,196l-0.6-2c0.6-0.2,1.3-0.4,1.9-0.6l0.7,1.9
							C704.1,195.6,703.5,195.8,702.8,196z M706.7,194.7l-0.7-1.9c0.6-0.2,1.2-0.5,1.9-0.7l0.8,1.9
							C708,194.2,707.4,194.4,706.7,194.7z M710.6,193.1l-0.9-1.9c0.6-0.3,1.2-0.6,1.8-0.9l0.9,1.8
							C711.8,192.5,711.2,192.8,710.6,193.1z M714.3,191.2l-1-1.8c0.6-0.3,1.2-0.7,1.7-1l1,1.8C715.5,190.6,714.9,190.9,714.3,191.2
							z M717.9,189.1l-1.1-1.7c0.6-0.4,1.1-0.7,1.7-1.1l1.2,1.7C719,188.4,718.5,188.7,717.9,189.1z M721.3,186.8l-1.2-1.6
							c0.5-0.4,1.1-0.8,1.6-1.2l1.3,1.6C722.4,185.9,721.8,186.4,721.3,186.8z M724.5,184.2l-1.3-1.6c0.5-0.4,1-0.9,1.5-1.3l1.4,1.5
							C725.6,183.3,725.1,183.8,724.5,184.2z M727.6,181.4l-1.4-1.5c0.5-0.5,1-0.9,1.4-1.4l1.5,1.4
							C728.6,180.4,728.1,180.9,727.6,181.4z M730.5,178.4l-1.5-1.4c0.4-0.5,0.9-1,1.3-1.5l1.6,1.3
							C731.4,177.4,731,177.9,730.5,178.4z M733.2,175.3l-1.6-1.3c0.4-0.5,0.8-1.1,1.2-1.6l1.6,1.2
							C734,174.2,733.6,174.7,733.2,175.3z M735.6,171.9l-1.7-1.1c0.4-0.6,0.7-1.1,1.1-1.7l1.7,1.1
							C736.4,170.8,736,171.4,735.6,171.9z M737.8,168.4l-1.8-1c0.3-0.6,0.7-1.2,1-1.7l1.8,1C738.5,167.2,738.2,167.8,737.8,168.4z
							 M739.8,164.8l-1.8-0.9c0.3-0.6,0.6-1.2,0.9-1.8l1.9,0.8C740.4,163.5,740.1,164.2,739.8,164.8z M741.5,161l-1.9-0.8
							c0.3-0.6,0.5-1.2,0.7-1.9l1.9,0.7C742,159.7,741.8,160.4,741.5,161z M743,157.1l-1.9-0.7c0.2-0.6,0.4-1.3,0.6-1.9l2,0.6
							C743.4,155.8,743.2,156.5,743,157.1z M744.2,153.2l-2-0.5c0.2-0.6,0.3-1.3,0.5-1.9l2,0.5C744.5,151.8,744.4,152.5,744.2,153.2
							z M745.1,149.1l-2-0.4c0.1-0.7,0.2-1.3,0.3-2l2,0.3C745.3,147.8,745.2,148.5,745.1,149.1z M745.7,145l-2-0.2
							c0.1-0.7,0.2-1.3,0.2-2l2,0.2C745.9,143.7,745.8,144.4,745.7,145z M746.1,140.9l-2-0.1c0-0.7,0.1-1.3,0.1-2l2,0
							C746.2,139.5,746.1,140.2,746.1,140.9z M744.2,136.8c0-0.7,0-1.3-0.1-2l2-0.1c0,0.7,0.1,1.4,0.1,2.1L744.2,136.8z"/>
					</g>
				</g>
				<g>
					<g>
						<path class="st0" d="M626.3,132.6l-2-0.2c0.1-0.7,0.1-1.4,0.2-2.1l2,0.2C626.4,131.3,626.3,131.9,626.3,132.6z M626.7,128.6
							l-2-0.3c0.1-0.7,0.2-1.4,0.3-2l2,0.4C626.9,127.3,626.8,128,626.7,128.6z M627.5,124.7l-2-0.4c0.2-0.7,0.3-1.3,0.5-2l2,0.5
							C627.8,123.4,627.6,124,627.5,124.7z M628.5,120.8l-2-0.6c0.2-0.7,0.4-1.3,0.6-2l1.9,0.6C628.9,119.5,628.7,120.2,628.5,120.8
							z M629.7,117l-1.9-0.7c0.2-0.6,0.5-1.3,0.8-1.9l1.9,0.8C630.2,115.8,630,116.4,629.7,117z M631.2,113.3l-1.9-0.8
							c0.3-0.6,0.6-1.3,0.9-1.9l1.8,0.9C631.8,112.1,631.5,112.7,631.2,113.3z M633,109.7l-1.8-1c0.3-0.6,0.7-1.2,1-1.8l1.8,1
							C633.6,108.6,633.3,109.1,633,109.7z M635,106.3l-1.7-1.1c0.4-0.6,0.7-1.2,1.1-1.7l1.7,1.1C635.7,105.1,635.4,105.7,635,106.3
							z M637.2,102.9l-1.7-1.2c0.4-0.6,0.8-1.1,1.2-1.7l1.6,1.3C638,101.9,637.6,102.4,637.2,102.9z M639.7,99.8l-1.6-1.3
							c0.4-0.5,0.9-1.1,1.4-1.6l1.5,1.4C640.6,98.8,640.1,99.3,639.7,99.8z M642.4,96.8l-1.5-1.4c0.5-0.5,1-1,1.5-1.5l1.4,1.5
							C643.3,95.8,642.8,96.3,642.4,96.8z M645.2,94l-1.4-1.5c0.5-0.5,1-0.9,1.6-1.4l1.3,1.5C646.2,93.1,645.7,93.5,645.2,94z
							 M648.3,91.4l-1.3-1.6c0.5-0.4,1.1-0.9,1.6-1.3l1.2,1.6C649.3,90.6,648.8,91,648.3,91.4z M651.5,89l-1.2-1.7
							c0.6-0.4,1.1-0.8,1.7-1.2l1.1,1.7C652.6,88.2,652,88.6,651.5,89z M654.9,86.8l-1-1.8c0.6-0.4,1.2-0.7,1.8-1l1,1.8
							C656,86.1,655.4,86.5,654.9,86.8z M658.4,84.9l-0.9-1.8c0.6-0.3,1.2-0.6,1.9-0.9l0.9,1.8C659.6,84.3,659,84.6,658.4,84.9z
							 M662,83.2l-0.8-1.9c0.6-0.3,1.3-0.5,1.9-0.8l0.7,1.9C663.3,82.7,662.6,82.9,662,83.2z M665.8,81.7l-0.7-1.9
							c0.7-0.2,1.3-0.4,2-0.6l0.6,1.9C667,81.3,666.4,81.5,665.8,81.7z M669.6,80.5l-0.5-2c0.7-0.2,1.3-0.3,2-0.5l0.5,2
							C670.9,80.2,670.3,80.4,669.6,80.5z M673.5,79.6l-0.4-2c0.7-0.1,1.4-0.3,2-0.4l0.3,2C674.8,79.4,674.2,79.5,673.5,79.6z
							 M695.4,79.4c-0.7-0.1-1.3-0.2-2-0.3l0.3-2c0.7,0.1,1.4,0.2,2,0.3L695.4,79.4z M677.5,79l-0.3-2c0.7-0.1,1.4-0.2,2.1-0.2
							l0.2,2C678.8,78.8,678.1,78.9,677.5,79z M691.5,78.8c-0.7-0.1-1.3-0.1-2-0.2l0.2-2c0.7,0.1,1.4,0.1,2.1,0.2L691.5,78.8z
							 M681.5,78.6l-0.1-2c0.7,0,1.4-0.1,2.1-0.1l0.1,2C682.8,78.5,682.1,78.6,681.5,78.6z M687.5,78.5c-0.7,0-1.3,0-2,0l0-2
							c0.7,0,1.4,0,2.1,0L687.5,78.5z"/>
					</g>
				</g>
				<g>
					<g>
						<polygon class="st0" points="689.4,83.5 688.3,81.8 694.1,78.1 689.8,73.2 691.4,71.8 697.2,78.5 						"/>
					</g>
				</g>
				<g>
					<g>
						<polygon class="st0" points="696.3,202.5 688.9,197.6 695,190.7 696.5,192 692,197.2 697.4,200.7 						"/>
					</g>
				</g>
				<g>
					<g>
						<polygon class="st4" points="752.7,198.1 752.7,179.1 745.3,179.1 745.3,198.1 740.6,198.1 749,205.8 757.4,198.1 						"/>
					</g>
				</g>
				<g>
					<g>
						<path class="st0" d="M772.3,215.9h-46.5v-11.6H736l4.9,4h16.1l4.9-4h10.3V215.9z M727.8,213.9h42.4v-7.5h-7.5l-4.9,4h-17.5
							l-4.9-4h-7.5V213.9z"/>
					</g>
				</g>
			</g>
			<g>
				<g>
					<g>
						<path class="st0" d="M584,174.7h-57.8v-19H584V174.7z M528.2,172.7h53.7v-14.9h-53.7V172.7z"/>
					</g>
				</g>
				<g>
					<g>
						<rect x="554.9" y="160.1" class="st4" width="24.6" height="10.2"/>
					</g>
				</g>
				<g>
					<g>
						<path class="st0" d="M584,191.6h-57.8v-18.9H584V191.6z M528.2,189.5h53.7v-14.8h-53.7V189.5z"/>
					</g>
				</g>
				<g>
					<g>
						<rect x="554.9" y="177.1" class="st4" width="24.6" height="10.1"/>
					</g>
				</g>
				<g>
					<g>
						<path class="st0" d="M584,208.4h-57.8v-18.9H584V208.4z M528.2,206.4h53.7v-14.8h-53.7V206.4z"/>
					</g>
				</g>
				<g>
					<g>
						<rect x="554.9" y="194" class="st4" width="24.6" height="10.1"/>
					</g>
				</g>
				<g>
					<g>
						<path class="st0" d="M584,225.4h-57.8v-19H584V225.4z M528.2,223.4h53.7v-14.9h-53.7V223.4z"/>
					</g>
				</g>
				<g>
					<g>
						<rect x="554.9" y="210.8" class="st4" width="24.6" height="10.2"/>
					</g>
				</g>
				<g>
					<g>
						<path class="st0" d="M535.6,168.3c-1.7,0-3.1-1.4-3.1-3.1c0-1.7,1.4-3.1,3.1-3.1c1.7,0,3.1,1.4,3.1,3.1
							C538.6,166.9,537.3,168.3,535.6,168.3z M535.6,164.2c-0.6,0-1,0.5-1,1s0.5,1,1,1c0.6,0,1-0.5,1-1S536.1,164.2,535.6,164.2z"/>
					</g>
				</g>
				<g>
					<g>
						<path class="st0" d="M575.9,168.3c-1.7,0-3.1-1.4-3.1-3.1c0-1.7,1.4-3.1,3.1-3.1s3.1,1.4,3.1,3.1
							C578.9,166.9,577.5,168.3,575.9,168.3z M575.9,164.2c-0.6,0-1,0.5-1,1s0.5,1,1,1s1-0.5,1-1S576.4,164.2,575.9,164.2z"/>
					</g>
				</g>
				<g>
					<g>
						<path class="st0" d="M535.6,185.3c-1.7,0-3.1-1.4-3.1-3.1c0-1.7,1.4-3.1,3.1-3.1c1.7,0,3.1,1.4,3.1,3.1
							C538.6,183.9,537.3,185.3,535.6,185.3z M535.6,181.2c-0.6,0-1,0.5-1,1c0,0.6,0.5,1,1,1c0.6,0,1-0.5,1-1
							C536.6,181.7,536.1,181.2,535.6,181.2z"/>
					</g>
				</g>
				<g>
					<g>
						<path class="st0" d="M575.9,185.3c-1.7,0-3.1-1.4-3.1-3.1c0-1.7,1.4-3.1,3.1-3.1s3.1,1.4,3.1,3.1
							C578.9,183.9,577.5,185.3,575.9,185.3z M575.9,181.2c-0.6,0-1,0.5-1,1c0,0.6,0.5,1,1,1s1-0.5,1-1
							C576.9,181.7,576.4,181.2,575.9,181.2z"/>
					</g>
				</g>
				<g>
					<g>
						<path class="st0" d="M535.6,202c-1.7,0-3.1-1.4-3.1-3.1c0-1.7,1.4-3.1,3.1-3.1c1.7,0,3.1,1.4,3.1,3.1
							C538.6,200.7,537.3,202,535.6,202z M535.6,198c-0.6,0-1,0.5-1,1c0,0.6,0.5,1,1,1c0.6,0,1-0.5,1-1
							C536.6,198.4,536.1,198,535.6,198z"/>
					</g>
				</g>
				<g>
					<g>
						<path class="st0" d="M575.9,202c-1.7,0-3.1-1.4-3.1-3.1c0-1.7,1.4-3.1,3.1-3.1s3.1,1.4,3.1,3.1
							C578.9,200.7,577.5,202,575.9,202z M575.9,198c-0.6,0-1,0.5-1,1c0,0.6,0.5,1,1,1s1-0.5,1-1C576.9,198.4,576.4,198,575.9,198z"
							/>
					</g>
				</g>
				<g>
					<g>
						<path class="st0" d="M535.6,219c-1.7,0-3.1-1.4-3.1-3.1c0-1.7,1.4-3.1,3.1-3.1c1.7,0,3.1,1.4,3.1,3.1
							C538.6,217.6,537.3,219,535.6,219z M535.6,214.9c-0.6,0-1,0.5-1,1s0.5,1,1,1c0.6,0,1-0.5,1-1S536.1,214.9,535.6,214.9z"/>
					</g>
				</g>
				<g>
					<g>
						<path class="st0" d="M575.9,219c-1.7,0-3.1-1.4-3.1-3.1c0-1.7,1.4-3.1,3.1-3.1s3.1,1.4,3.1,3.1
							C578.9,217.6,577.5,219,575.9,219z M575.9,214.9c-0.6,0-1,0.5-1,1s0.5,1,1,1s1-0.5,1-1S576.4,214.9,575.9,214.9z"/>
					</g>
				</g>
				<g>
					<g>
						<g>
							<g>
								<path class="st0" d="M560,135.4h-11.3l-3.5-5v-10.5h18.2v10.5L560,135.4z M549.8,133.3h9.1l2.5-3.6v-7.8h-14.1v7.8
									L549.8,133.3z"/>
							</g>
						</g>
						<g>
							<g>
								<polygon class="st1" points="551.1,130.9 549.7,128.9 549.7,124.2 559.1,124.2 559.1,128.9 557.7,130.9 								"/>
							</g>
						</g>
						<g>
							<g>
								<path class="st0" d="M562.4,121.8h-17.1l0-1c0-0.1-0.2-7.5-3-14.3c-0.3-0.5-0.5-1.1-0.7-1.6c-0.5-1.5-0.8-3-0.8-4.6
									c0-7.5,6.1-13.6,13.6-13.6c7.5,0,13.6,6.1,13.6,13.6c0,2.3-0.7,4.2-1.5,6.2c-0.2,0.4-0.4,0.9-0.5,1.4
									c-0.8,2.1-1.4,4.5-1.9,7.1c-0.1,0.4-0.7,5.3-0.7,5.8c0-0.4-0.4-0.9-1-0.9V121.8z M547.3,119.8h14.2c0-0.5,0.1-1.2,0.2-2.1
									c0.2-1.3,0.4-3,0.4-3.2c0.5-2.7,1.1-5.2,1.9-7.4c0.2-0.5,0.4-0.9,0.5-1.4c0.7-1.9,1.4-3.5,1.4-5.4c0-6.4-5.2-11.6-11.6-11.6
									c-6.4,0-11.6,5.2-11.6,11.6c0,1.4,0.2,2.7,0.7,3.9c0.2,0.5,0.4,1,0.6,1.4l0,0.1C546.5,111.4,547.1,117.5,547.3,119.8z"/>
							</g>
						</g>
						<g>
							<g>
								<rect x="552.9" y="73.8" class="st0" width="2" height="7.6"/>
							</g>
						</g>
						<g>
							<g>
								
									<rect x="542.3" y="77.7" transform="matrix(0.807 -0.5906 0.5906 0.807 56.7752 336.5894)" class="st0" width="2" height="7.6"/>
							</g>
						</g>
						<g>
							<g>
								
									<rect x="561" y="80" transform="matrix(0.5907 -0.8069 0.8069 0.5907 165.812 488.8701)" class="st0" width="7.6" height="2"/>
							</g>
						</g>
						<g>
							<g>
								<path class="st0" d="M552.3,121c0,0-1-4.2-3-8.5c-1.4-3.1-0.4-5.6,1.3-6.8c1.2-0.9,2.7-0.9,3.9-0.3c1.2-0.6,2.7-0.5,3.9,0.3
									c1.7,1.2,2.7,3.7,1.3,6.8c-2,4.3-3,8.5-3,8.5l-2-0.5c0-0.2,1-4.4,3.2-8.9c0.9-2,0.4-3.6-0.6-4.2c-0.3-0.2-0.6-0.3-1-0.3
									c1.5,2.4,0.1,5.3-0.9,6.7l-0.8,1l-0.8-1c-1.1-1.3-2.4-4.3-0.9-6.7c-0.4,0-0.7,0.2-1,0.3c-1,0.7-1.5,2.3-0.6,4.2
									c2.1,4.5,3.1,8.8,3.2,8.9L552.3,121z M554.4,108.2c-0.6,0.9-0.4,2.1,0,2.9C554.8,110.2,555,109.1,554.4,108.2z"/>
							</g>
						</g>
					</g>
					<g>
						<g>
							<path class="st0" d="M555.4,142.9l-0.1-2c0.7,0,1.3-0.1,2-0.1l0.2,2C556.8,142.8,556.1,142.9,555.4,142.9z M553.3,142.9
								c-0.7,0-1.4-0.1-2.1-0.1l0.2-2c0.7,0.1,1.3,0.1,2,0.1L553.3,142.9z M559.5,142.6l-0.3-2c0.6-0.1,1.3-0.2,2-0.3l0.4,2
								C560.9,142.4,560.2,142.5,559.5,142.6z M549.1,142.6c-0.7-0.1-1.4-0.2-2.1-0.3l0.4-2c0.6,0.1,1.3,0.2,2,0.3L549.1,142.6z
								 M563.7,141.8l-0.5-2c0.6-0.2,1.3-0.3,1.9-0.5l0.6,2C565,141.5,564.3,141.6,563.7,141.8z M545,141.8c-0.7-0.2-1.4-0.4-2-0.6
								l0.6-2c0.6,0.2,1.3,0.4,1.9,0.5L545,141.8z M567.7,140.6l-0.7-1.9c0.6-0.2,1.2-0.5,1.8-0.7l0.8,1.9
								C569,140.1,568.3,140.4,567.7,140.6z M541,140.6c-0.7-0.2-1.3-0.5-2-0.8l0.8-1.9c0.6,0.3,1.2,0.5,1.8,0.7L541,140.6z
								 M571.5,139l-0.9-1.8c0.6-0.3,1.2-0.6,1.8-0.9l1,1.8C572.8,138.4,572.1,138.7,571.5,139z M537.1,138.9
								c-0.6-0.3-1.2-0.6-1.9-1l1-1.8c0.6,0.3,1.2,0.6,1.8,0.9L537.1,138.9z M575.2,137l-1.1-1.7c0.6-0.4,1.1-0.7,1.7-1.1l1.2,1.7
								C576.3,136.2,575.8,136.6,575.2,137z M533.5,136.9c-0.6-0.4-1.2-0.8-1.7-1.2l1.2-1.7c0.5,0.4,1.1,0.8,1.7,1.1L533.5,136.9z
								 M578.6,134.5l-1.3-1.6c0.5-0.4,1-0.8,1.5-1.3l1.3,1.5C579.7,133.7,579.1,134.1,578.6,134.5z M530,134.5
								c-0.5-0.4-1.1-0.9-1.6-1.3l1.3-1.5c0.5,0.4,1,0.9,1.5,1.3L530,134.5z M581.7,131.8l-1.4-1.5c0.5-0.5,0.9-0.9,1.4-1.4l1.5,1.4
								C582.7,130.8,582.2,131.3,581.7,131.8z M526.9,131.7c-0.5-0.5-1-1-1.5-1.5l1.5-1.4c0.4,0.5,0.9,1,1.4,1.4L526.9,131.7z
								 M584.6,128.7l-1.6-1.3c0.4-0.5,0.8-1,1.2-1.6l1.6,1.2C585.5,127.6,585,128.2,584.6,128.7z M524.1,128.6
								c-0.4-0.5-0.9-1.1-1.3-1.6l1.6-1.2c0.4,0.5,0.8,1.1,1.2,1.6L524.1,128.6z M587.1,125.4l-1.7-1.1c0.4-0.5,0.7-1.1,1.1-1.7
								l1.8,1C587.8,124.2,587.5,124.8,587.1,125.4z M521.6,125.3c-0.4-0.6-0.8-1.2-1.1-1.8l1.8-1c0.3,0.6,0.7,1.1,1,1.7
								L521.6,125.3z M589.2,121.8l-1.8-0.9c0.3-0.6,0.6-1.2,0.9-1.8l1.9,0.8C589.8,120.5,589.5,121.1,589.2,121.8z M519.5,121.7
								c-0.3-0.6-0.6-1.3-0.9-1.9l1.9-0.8c0.3,0.6,0.6,1.2,0.9,1.8L519.5,121.7z M591,117.9l-1.9-0.7c0.2-0.6,0.5-1.3,0.7-1.9
								l1.9,0.6C591.4,116.6,591.2,117.3,591,117.9z M517.7,117.9c-0.3-0.6-0.5-1.3-0.7-2l1.9-0.6c0.2,0.6,0.4,1.3,0.7,1.9
								L517.7,117.9z M592.3,114l-2-0.5c0.2-0.6,0.3-1.3,0.5-1.9l2,0.4C592.6,112.6,592.4,113.3,592.3,114z M516.4,113.9
								c-0.2-0.7-0.3-1.4-0.5-2l2-0.4c0.1,0.6,0.3,1.3,0.5,1.9L516.4,113.9z M593.1,109.9l-2-0.3c0.1-0.7,0.2-1.3,0.3-2l2,0.2
								C593.3,108.5,593.3,109.2,593.1,109.9z M515.6,109.8c-0.1-0.7-0.2-1.4-0.3-2.1l2-0.2c0.1,0.7,0.2,1.3,0.3,2L515.6,109.8z
								 M593.6,105.7l-2-0.1c0-0.7,0.1-1.3,0.1-2h2C593.6,104.3,593.6,105,593.6,105.7z M515.1,105.6c0-0.7-0.1-1.3-0.1-2v-0.1h2
								v0.1c0,0.6,0,1.3,0,1.9L515.1,105.6z M591.6,101.8c0-0.7-0.1-1.3-0.1-2l2-0.2c0.1,0.7,0.1,1.4,0.2,2.1L591.6,101.8z
								 M517.2,101.6l-2-0.1c0-0.7,0.1-1.4,0.2-2.1l2,0.2C517.3,100.2,517.2,100.9,517.2,101.6z M591.2,97.9c-0.1-0.6-0.2-1.3-0.4-2
								l2-0.4c0.1,0.7,0.3,1.4,0.4,2.1L591.2,97.9z M517.6,97.6l-2-0.3c0.1-0.7,0.2-1.4,0.4-2.1l2,0.4
								C517.8,96.3,517.7,97,517.6,97.6z M590.3,94c-0.2-0.6-0.4-1.3-0.6-1.9l1.9-0.6c0.2,0.7,0.4,1.3,0.6,2L590.3,94z M518.5,93.7
								l-2-0.5c0.2-0.7,0.4-1.3,0.6-2l1.9,0.6C518.8,92.5,518.6,93.1,518.5,93.7z M589.1,90.2c-0.2-0.6-0.5-1.2-0.8-1.8l1.9-0.8
								c0.3,0.6,0.6,1.3,0.8,1.9L589.1,90.2z M519.7,90l-1.9-0.7c0.3-0.6,0.5-1.3,0.8-1.9l1.9,0.9C520.2,88.7,520,89.4,519.7,90z
								 M587.5,86.6c-0.3-0.6-0.6-1.2-1-1.7l1.8-1c0.3,0.6,0.7,1.2,1,1.8L587.5,86.6z M521.4,86.4l-1.8-0.9c0.3-0.6,0.7-1.2,1-1.8
								l1.8,1C522,85.2,521.7,85.8,521.4,86.4z M585.5,83.2c-0.4-0.5-0.7-1.1-1.1-1.6l1.6-1.2c0.4,0.6,0.8,1.1,1.2,1.7L585.5,83.2z
								 M523.4,82.9l-1.7-1.1c0.4-0.6,0.8-1.2,1.2-1.7l1.6,1.2C524.2,81.9,523.8,82.4,523.4,82.9z M583.1,80c-0.4-0.5-0.9-1-1.3-1.5
								l1.5-1.4c0.5,0.5,0.9,1,1.4,1.6L583.1,80z M525.8,79.8l-1.6-1.3c0.5-0.5,0.9-1.1,1.4-1.6l1.5,1.4
								C526.6,78.8,526.2,79.3,525.8,79.8z M580.5,77.1c-0.5-0.5-1-0.9-1.5-1.4l1.4-1.5c0.5,0.5,1,0.9,1.5,1.4L580.5,77.1z
								 M528.5,76.9l-1.4-1.5c0.5-0.5,1-1,1.5-1.4l1.3,1.5C529.4,76,529,76.4,528.5,76.9z M577.5,74.4c-0.5-0.4-1.1-0.8-1.6-1.2
								l1.2-1.7c0.6,0.4,1.1,0.8,1.7,1.3L577.5,74.4z M531.5,74.3l-1.3-1.6c0.5-0.4,1.1-0.8,1.7-1.2l1.2,1.7
								C532.5,73.5,532,73.9,531.5,74.3z M574.3,72.1c-0.6-0.4-1.1-0.7-1.7-1l1-1.8c0.6,0.3,1.2,0.7,1.8,1.1L574.3,72.1z M534.7,72
								l-1.1-1.7c0.6-0.4,1.2-0.7,1.8-1.1l1,1.8C535.9,71.3,535.3,71.6,534.7,72z M570.8,70.2c-0.6-0.3-1.2-0.6-1.8-0.8l0.8-1.9
								c0.6,0.3,1.3,0.6,1.9,0.9L570.8,70.2z M538.2,70.1l-0.9-1.8c0.6-0.3,1.3-0.6,1.9-0.9l0.8,1.9
								C539.4,69.5,538.8,69.8,538.2,70.1z M567.1,68.6c-0.6-0.2-1.3-0.4-1.9-0.6l0.6-2c0.7,0.2,1.3,0.4,2,0.7L567.1,68.6z
								 M541.8,68.6l-0.7-1.9c0.7-0.2,1.3-0.5,2-0.7l0.6,2C543.1,68.1,542.5,68.3,541.8,68.6z M563.3,67.5c-0.6-0.2-1.3-0.3-1.9-0.4
								l0.4-2c0.7,0.1,1.4,0.3,2,0.4L563.3,67.5z M545.6,67.4l-0.5-2c0.7-0.2,1.4-0.3,2-0.4l0.4,2C546.9,67.1,546.3,67.3,545.6,67.4
								z M559.4,66.7c-0.6-0.1-1.3-0.2-2-0.2l0.2-2c0.7,0.1,1.4,0.1,2.1,0.2L559.4,66.7z M549.6,66.7l-0.3-2
								c0.7-0.1,1.4-0.2,2.1-0.2l0.2,2C550.9,66.6,550.2,66.6,549.6,66.7z M555.5,66.4c-0.7,0-1.3,0-2,0l0-2c0.7,0,1.4,0,2.1,0
								L555.5,66.4z"/>
						</g>
					</g>
				</g>
			</g>
			<g>
				<g>
					<g>
						<path class="st0" d="M213.5,208.6h-65.8v-19h65.8V208.6z M149.8,206.5h61.7v-14.9h-61.7V206.5z"/>
					</g>
				</g>
				<g>
					<g>
						<rect x="184.5" y="194" class="st4" width="24.6" height="10.2"/>
					</g>
				</g>
				<g>
					<g>
						<path class="st0" d="M213.5,225.4h-65.8v-18.9h65.8V225.4z M149.8,223.4h61.7v-14.8h-61.7V223.4z"/>
					</g>
				</g>
				<g>
					<g>
						<rect x="184.5" y="211" class="st4" width="24.6" height="10.1"/>
					</g>
				</g>
				<g>
					<g>
						<path class="st0" d="M157.1,202.1c-1.7,0-3.1-1.4-3.1-3.1c0-1.7,1.4-3.1,3.1-3.1c1.7,0,3.1,1.4,3.1,3.1
							C160.2,200.7,158.8,202.1,157.1,202.1z M157.1,198c-0.6,0-1,0.5-1,1s0.5,1,1,1s1-0.5,1-1S157.7,198,157.1,198z"/>
					</g>
				</g>
				<g>
					<g>
						<path class="st0" d="M205.4,202.1c-1.7,0-3.1-1.4-3.1-3.1c0-1.7,1.4-3.1,3.1-3.1s3.1,1.4,3.1,3.1
							C208.5,200.7,207.1,202.1,205.4,202.1z M205.4,198c-0.6,0-1,0.5-1,1s0.5,1,1,1s1-0.5,1-1S206,198,205.4,198z"/>
					</g>
				</g>
				<g>
					<g>
						<path class="st0" d="M157.1,219.1c-1.7,0-3.1-1.4-3.1-3.1s1.4-3.1,3.1-3.1c1.7,0,3.1,1.4,3.1,3.1S158.8,219.1,157.1,219.1z
							 M157.1,215.1c-0.6,0-1,0.5-1,1c0,0.6,0.5,1,1,1s1-0.5,1-1C158.1,215.5,157.7,215.1,157.1,215.1z"/>
					</g>
				</g>
				<g>
					<g>
						<path class="st0" d="M205.4,219.1c-1.7,0-3.1-1.4-3.1-3.1s1.4-3.1,3.1-3.1s3.1,1.4,3.1,3.1S207.1,219.1,205.4,219.1z
							 M205.4,215.1c-0.6,0-1,0.5-1,1c0,0.6,0.5,1,1,1s1-0.5,1-1C206.4,215.5,206,215.1,205.4,215.1z"/>
					</g>
				</g>
			</g>
			<g>
				<g>
					<path class="st0" d="M505,189.6h-66.9v-21.9H505V189.6z M440.5,187.3h62.2v-17.2h-62.2V187.3z"/>
				</g>
			</g>
			<g>
				<g>
					<rect x="471.4" y="172.9" class="st2" width="28.5" height="11.6"/>
				</g>
			</g>
			<g>
				<g>
					<path class="st0" d="M505,209.3h-66.9v-22H505V209.3z M440.5,206.9h62.2v-17.3h-62.2V206.9z"/>
				</g>
			</g>
			<g>
				<g>
					<rect x="471.4" y="192.4" class="st2" width="28.5" height="11.8"/>
				</g>
			</g>
			<g>
				<g>
					<path class="st0" d="M449,182.2c-1.9,0-3.5-1.6-3.5-3.5c0-1.9,1.6-3.5,3.5-3.5c1.9,0,3.5,1.6,3.5,3.5
						C452.6,180.6,451,182.2,449,182.2z M449,177.5c-0.6,0-1.2,0.5-1.2,1.2c0,0.6,0.5,1.2,1.2,1.2s1.2-0.5,1.2-1.2
						C450.2,178,449.7,177.5,449,177.5z"/>
				</g>
			</g>
			<g>
				<g>
					<path class="st0" d="M495.6,182.2c-1.9,0-3.5-1.6-3.5-3.5c0-1.9,1.6-3.5,3.5-3.5c1.9,0,3.5,1.6,3.5,3.5
						C499.2,180.6,497.6,182.2,495.6,182.2z M495.6,177.5c-0.6,0-1.2,0.5-1.2,1.2c0,0.6,0.5,1.2,1.2,1.2s1.2-0.5,1.2-1.2
						C496.8,178,496.3,177.5,495.6,177.5z"/>
				</g>
			</g>
			<g>
				<g>
					<path class="st0" d="M449,201.8c-1.9,0-3.5-1.6-3.5-3.5s1.6-3.5,3.5-3.5c1.9,0,3.5,1.6,3.5,3.5S451,201.8,449,201.8z
						 M449,197.1c-0.6,0-1.2,0.5-1.2,1.2s0.5,1.2,1.2,1.2s1.2-0.5,1.2-1.2S449.7,197.1,449,197.1z"/>
				</g>
			</g>
			<g>
				<g>
					<path class="st0" d="M495.6,201.8c-1.9,0-3.5-1.6-3.5-3.5s1.6-3.5,3.5-3.5c1.9,0,3.5,1.6,3.5,3.5S497.6,201.8,495.6,201.8z
						 M495.6,197.1c-0.6,0-1.2,0.5-1.2,1.2s0.5,1.2,1.2,1.2s1.2-0.5,1.2-1.2S496.3,197.1,495.6,197.1z"/>
				</g>
			</g>
			<g>
				<g>
					<path class="st0" d="M505,150.2h-66.9v-21.9H505V150.2z M440.5,147.9h62.2v-17.2h-62.2V147.9z"/>
				</g>
			</g>
			<g>
				<g>
					<rect x="471.4" y="133.5" class="st2" width="28.5" height="11.6"/>
				</g>
			</g>
			<g>
				<g>
					<path class="st0" d="M505,169.9h-66.9v-22H505V169.9z M440.5,167.5h62.2v-17.3h-62.2V167.5z"/>
				</g>
			</g>
			<g>
				<g>
					<rect x="471.4" y="153" class="st2" width="28.5" height="11.8"/>
				</g>
			</g>
			<g>
				<g>
					<path class="st0" d="M449,142.8c-1.9,0-3.5-1.6-3.5-3.5c0-1.9,1.6-3.5,3.5-3.5c1.9,0,3.5,1.6,3.5,3.5
						C452.6,141.2,451,142.8,449,142.8z M449,138.1c-0.6,0-1.2,0.5-1.2,1.2c0,0.6,0.5,1.2,1.2,1.2s1.2-0.5,1.2-1.2
						C450.2,138.6,449.7,138.1,449,138.1z"/>
				</g>
			</g>
			<g>
				<g>
					<path class="st0" d="M495.6,142.8c-1.9,0-3.5-1.6-3.5-3.5c0-1.9,1.6-3.5,3.5-3.5c1.9,0,3.5,1.6,3.5,3.5
						C499.2,141.2,497.6,142.8,495.6,142.8z M495.6,138.1c-0.6,0-1.2,0.5-1.2,1.2c0,0.6,0.5,1.2,1.2,1.2s1.2-0.5,1.2-1.2
						C496.8,138.6,496.3,138.1,495.6,138.1z"/>
				</g>
			</g>
			<g>
				<g>
					<path class="st0" d="M449,162.4c-1.9,0-3.5-1.6-3.5-3.5c0-1.9,1.6-3.5,3.5-3.5c1.9,0,3.5,1.6,3.5,3.5
						C452.6,160.8,451,162.4,449,162.4z M449,157.7c-0.6,0-1.2,0.5-1.2,1.2c0,0.6,0.5,1.2,1.2,1.2s1.2-0.5,1.2-1.2
						C450.2,158.2,449.7,157.7,449,157.7z"/>
				</g>
			</g>
			<g>
				<g>
					<path class="st0" d="M495.6,162.4c-1.9,0-3.5-1.6-3.5-3.5c0-1.9,1.6-3.5,3.5-3.5c1.9,0,3.5,1.6,3.5,3.5
						C499.2,160.8,497.6,162.4,495.6,162.4z M495.6,157.7c-0.6,0-1.2,0.5-1.2,1.2c0,0.6,0.5,1.2,1.2,1.2s1.2-0.5,1.2-1.2
						C496.8,158.2,496.3,157.7,495.6,157.7z"/>
				</g>
			</g>
			<g>
				<g>
					<path class="st0" d="M505,130.5h-66.9v-22H505V130.5z M440.5,128.1h62.2v-17.3h-62.2V128.1z"/>
				</g>
			</g>
			<g>
				<g>
					<rect x="471.4" y="113.6" class="st2" width="28.5" height="11.8"/>
				</g>
			</g>
			<g>
				<g>
					<path class="st0" d="M449,123c-1.9,0-3.5-1.6-3.5-3.5s1.6-3.5,3.5-3.5c1.9,0,3.5,1.6,3.5,3.5S451,123,449,123z M449,118.3
						c-0.6,0-1.2,0.5-1.2,1.2s0.5,1.2,1.2,1.2s1.2-0.5,1.2-1.2S449.7,118.3,449,118.3z"/>
				</g>
			</g>
			<g>
				<g>
					<path class="st0" d="M495.6,123c-1.9,0-3.5-1.6-3.5-3.5s1.6-3.5,3.5-3.5c1.9,0,3.5,1.6,3.5,3.5S497.6,123,495.6,123z
						 M495.6,118.3c-0.6,0-1.2,0.5-1.2,1.2s0.5,1.2,1.2,1.2s1.2-0.5,1.2-1.2S496.3,118.3,495.6,118.3z"/>
				</g>
			</g>
			<g>
				<g>
					<path class="st0" d="M505,110.8h-66.9V89H505V110.8z M440.5,108.5h62.2V91.3h-62.2V108.5z"/>
				</g>
			</g>
			<g>
				<g>
					<rect x="471.4" y="94.1" class="st2" width="28.5" height="11.6"/>
				</g>
			</g>
			<g>
				<g>
					<path class="st0" d="M449,103.4c-1.9,0-3.5-1.6-3.5-3.5c0-1.9,1.6-3.5,3.5-3.5c1.9,0,3.5,1.6,3.5,3.5
						C452.6,101.8,451,103.4,449,103.4z M449,98.7c-0.6,0-1.2,0.5-1.2,1.2c0,0.6,0.5,1.2,1.2,1.2s1.2-0.5,1.2-1.2
						C450.2,99.2,449.7,98.7,449,98.7z"/>
				</g>
			</g>
			<g>
				<g>
					<path class="st0" d="M495.6,103.4c-1.9,0-3.5-1.6-3.5-3.5c0-1.9,1.6-3.5,3.5-3.5c1.9,0,3.5,1.6,3.5,3.5
						C499.2,101.8,497.6,103.4,495.6,103.4z M495.6,98.7c-0.6,0-1.2,0.5-1.2,1.2c0,0.6,0.5,1.2,1.2,1.2s1.2-0.5,1.2-1.2
						C496.8,99.2,496.3,98.7,495.6,98.7z"/>
				</g>
			</g>
			<g>
				<g>
					<path class="st0" d="M505,91.1h-66.9v-22H505V91.1z M440.5,88.7h62.2V71.4h-62.2V88.7z"/>
				</g>
			</g>
			<g>
				<g>
					<rect x="471.4" y="74.2" class="st2" width="28.5" height="11.8"/>
				</g>
			</g>
			<g>
				<g>
					<path class="st0" d="M449,83.6c-1.9,0-3.5-1.6-3.5-3.5s1.6-3.5,3.5-3.5c1.9,0,3.5,1.6,3.5,3.5S451,83.6,449,83.6z M449,78.9
						c-0.6,0-1.2,0.5-1.2,1.2s0.5,1.2,1.2,1.2s1.2-0.5,1.2-1.2S449.7,78.9,449,78.9z"/>
				</g>
			</g>
			<g>
				<g>
					<path class="st0" d="M495.6,83.6c-1.9,0-3.5-1.6-3.5-3.5s1.6-3.5,3.5-3.5c1.9,0,3.5,1.6,3.5,3.5S497.6,83.6,495.6,83.6z
						 M495.6,78.9c-0.6,0-1.2,0.5-1.2,1.2s0.5,1.2,1.2,1.2s1.2-0.5,1.2-1.2S496.3,78.9,495.6,78.9z"/>
				</g>
			</g>
			<g>
				<g>
					<path class="st0" d="M505,71.4h-66.9v-22H505V71.4z M440.5,69.1h62.2V51.8h-62.2V69.1z"/>
				</g>
			</g>
			<g>
				<g>
					<rect x="471.4" y="54.5" class="st2" width="28.5" height="11.8"/>
				</g>
			</g>
			<g>
				<g>
					<path class="st0" d="M449,63.9c-1.9,0-3.5-1.6-3.5-3.5c0-1.9,1.6-3.5,3.5-3.5c1.9,0,3.5,1.6,3.5,3.5
						C452.6,62.4,451,63.9,449,63.9z M449,59.2c-0.6,0-1.2,0.5-1.2,1.2c0,0.6,0.5,1.2,1.2,1.2s1.2-0.5,1.2-1.2
						C450.2,59.8,449.7,59.2,449,59.2z"/>
				</g>
			</g>
			<g>
				<g>
					<path class="st0" d="M495.6,63.9c-1.9,0-3.5-1.6-3.5-3.5c0-1.9,1.6-3.5,3.5-3.5c1.9,0,3.5,1.6,3.5,3.5
						C499.2,62.4,497.6,63.9,495.6,63.9z M495.6,59.2c-0.6,0-1.2,0.5-1.2,1.2c0,0.6,0.5,1.2,1.2,1.2s1.2-0.5,1.2-1.2
						C496.8,59.8,496.3,59.2,495.6,59.2z"/>
				</g>
			</g>
			<g>
				<g>
					<path class="st0" d="M505,51.8h-66.9V29.9H505V51.8z M440.5,49.4h62.2V32.3h-62.2V49.4z"/>
				</g>
			</g>
			<g>
				<g>
					<rect x="471.4" y="35" class="st2" width="28.5" height="11.6"/>
				</g>
			</g>
			<g>
				<g>
					<path class="st0" d="M449,44.4c-1.9,0-3.5-1.6-3.5-3.5c0-1.9,1.6-3.5,3.5-3.5c1.9,0,3.5,1.6,3.5,3.5
						C452.6,42.8,451,44.4,449,44.4z M449,39.7c-0.6,0-1.2,0.5-1.2,1.2c0,0.6,0.5,1.2,1.2,1.2s1.2-0.5,1.2-1.2
						C450.2,40.2,449.7,39.7,449,39.7z"/>
				</g>
			</g>
			<g>
				<g>
					<path class="st0" d="M495.6,44.4c-1.9,0-3.5-1.6-3.5-3.5c0-1.9,1.6-3.5,3.5-3.5c1.9,0,3.5,1.6,3.5,3.5
						C499.2,42.8,497.6,44.4,495.6,44.4z M495.6,39.7c-0.6,0-1.2,0.5-1.2,1.2c0,0.6,0.5,1.2,1.2,1.2s1.2-0.5,1.2-1.2
						C496.8,40.2,496.3,39.7,495.6,39.7z"/>
				</g>
			</g>
			<g>
				<g>
					<path class="st0" d="M505,32h-66.9V10H505V32z M440.5,29.7h62.2V12.4h-62.2V29.7z"/>
				</g>
			</g>
			<g>
				<g>
					<rect x="471.4" y="15.1" class="st2" width="28.5" height="11.8"/>
				</g>
			</g>
			<g>
				<g>
					<path class="st0" d="M449,24.5c-1.9,0-3.5-1.6-3.5-3.5s1.6-3.5,3.5-3.5c1.9,0,3.5,1.6,3.5,3.5S451,24.5,449,24.5z M449,19.8
						c-0.6,0-1.2,0.5-1.2,1.2s0.5,1.2,1.2,1.2s1.2-0.5,1.2-1.2S449.7,19.8,449,19.8z"/>
				</g>
			</g>
			<g>
				<g>
					<path class="st0" d="M495.6,24.5c-1.9,0-3.5-1.6-3.5-3.5s1.6-3.5,3.5-3.5c1.9,0,3.5,1.6,3.5,3.5S497.6,24.5,495.6,24.5z
						 M495.6,19.8c-0.6,0-1.2,0.5-1.2,1.2s0.5,1.2,1.2,1.2s1.2-0.5,1.2-1.2S496.3,19.8,495.6,19.8z"/>
				</g>
			</g>
			<g>
				<g>
					<path class="st0" d="M456.7,219.6h-6.5v-12.7h6.5V219.6z M452.6,217.2h1.8v-8h-1.8V217.2z"/>
				</g>
			</g>
			<g>
				<g>
					<path class="st0" d="M491.2,219.6h-6.5v-12.7h6.5V219.6z M487.1,217.2h1.8v-8h-1.8V217.2z"/>
				</g>
			</g>
			<g>
				<g>
					<path class="st0" d="M505,225.4h-66.9v-8.2H505V225.4z M440.5,223.1h62.2v-3.5h-62.2V223.1z"/>
				</g>
			</g>
			<g>
				<g>
					<g>
						<g>
							<path class="st0" d="M421.4,201.5h-89.5c-3.7,0-6.7-3-6.7-6.7V140c0-3.7,3-6.7,6.7-6.7h89.5c3.7,0,6.7,3,6.7,6.7v54.8
								C428.1,198.5,425.1,201.5,421.4,201.5z M331.9,135.4c-2.5,0-4.6,2.1-4.6,4.6v54.8c0,2.5,2.1,4.6,4.6,4.6h89.5
								c2.5,0,4.6-2.1,4.6-4.6V140c0-2.5-2.1-4.6-4.6-4.6H331.9z"/>
						</g>
					</g>
					<g>
						<g>
							<path class="st0" d="M420.1,193.5h-86.9v-52.2h86.9V193.5z M335.3,191.5h82.8v-48.1h-82.8V191.5z"/>
						</g>
					</g>
					<g>
						<g>
							<path class="st0" d="M410.5,225.4h-66.3v-9h15.2l4.5-17h27l4.5,17h15.2V225.4z M346.2,223.4h62.2v-4.9h-14.7l-4.5-17h-23.8
								l-4.5,17h-14.7V223.4z"/>
						</g>
					</g>
					<g>
						<g>
							<polygon class="st4" points="389.7,212.5 387.4,203.9 367.2,203.9 365,212.5 							"/>
						</g>
					</g>
					<g>
						<g>
							<path class="st4" d="M375.8,167.3c0,2.6-0.6,5.1-1.8,7.2l-13.9-7.2l4,15.1c-1.3,0.3-2.6,0.5-4,0.5c-8.6,0-15.7-7-15.7-15.7v0
								c0-8.6,7-15.7,15.7-15.7C368.8,151.6,375.8,158.6,375.8,167.3z"/>
						</g>
					</g>
					<g>
						<g>
							<path class="st2" d="M360.2,151.6v15.7h-15.7C344.5,158.6,351.5,151.6,360.2,151.6z"/>
						</g>
					</g>
					<g>
						<g>
							<path class="st3" d="M364.2,182.4c-1.3,0.3-2.6,0.5-4,0.5c-8.6,0-15.7-7-15.7-15.7v0c0,0,0,0,0,0h15.7L364.2,182.4z"/>
						</g>
					</g>
					<g>
						<g>
							<polygon class="st2" points="360.2,167.3 360.2,167.3 360.2,167.3 							"/>
						</g>
					</g>
					<g>
						<g>
							<path class="st2" d="M360.2,167.3L360.2,167.3l0-15.7c-8.6,0-15.7,7-15.7,15.7H360.2L360.2,167.3L360.2,167.3z"/>
						</g>
					</g>
					<g>
						<g>
							<path class="st1" d="M377.4,178.7c-2,3.9-5.6,6.8-9.9,7.9l-4-15.1L377.4,178.7z"/>
						</g>
					</g>
					<g>
						<g>
							<path class="st0" d="M360.2,184c-9.2,0-16.7-7.5-16.7-16.7c0-9.2,7.5-16.7,16.7-16.7c9.2,0,16.7,7.5,16.7,16.7
								c0,2.7-0.7,5.4-1.9,7.7l-1.8-0.9c1.1-2.1,1.7-4.4,1.7-6.8c0-8.1-6.6-14.6-14.6-14.6c-8.1,0-14.6,6.6-14.6,14.6
								c0,8.1,6.6,14.6,14.6,14.6c1.3,0,2.5-0.2,3.7-0.5l0.5,2C363,183.8,361.6,184,360.2,184z"/>
						</g>
					</g>
					<g>
						<g>
							<rect x="384.1" y="153.7" class="st0" width="25.1" height="2"/>
						</g>
					</g>
					<g>
						<g>
							<rect x="384.1" y="159.9" class="st0" width="25.1" height="2"/>
						</g>
					</g>
					<g>
						<g>
							<rect x="384.1" y="166.1" class="st0" width="25.1" height="2"/>
						</g>
					</g>
					<g>
						<g>
							<rect x="384.1" y="172.3" class="st0" width="25.1" height="2"/>
						</g>
					</g>
					<g>
						<g>
							<rect x="384.1" y="178.5" class="st0" width="13.5" height="2"/>
						</g>
					</g>
					<g>
						<g>
							<polygon class="st0" points="336.8,106.6 335.4,105.2 355.1,86.4 367.5,99.9 378.7,89 387.9,98.8 409.9,73.9 411.5,75.2 
								387.9,101.8 378.6,91.9 367.4,102.9 355,89.3 							"/>
						</g>
					</g>
					<g>
						<g>
							<path class="st0" d="M422.2,117h-95.4v-5.9h95.4V117z M328.8,115h91.3v-1.8h-91.3V115z"/>
						</g>
					</g>
					<g>
						<g>
							<polygon class="st4" points="354.5,95.3 349.6,100.2 349.6,107 354.5,107 359.4,107 359.4,100.2 							"/>
						</g>
					</g>
					<g>
						<g>
							<polygon class="st2" points="411.3,83.5 406.5,89.3 406.5,107 411.3,107 416.2,107 416.2,89.3 							"/>
						</g>
					</g>
					<g>
						<g>
							<polygon class="st1" points="378.7,96.6 373.8,101.5 373.8,107 378.7,107 383.6,107 383.6,101.5 							"/>
						</g>
					</g>
					<g>
						<g>
							<polygon class="st0" points="412.4,81.2 410.3,81.2 410.3,75.1 404.2,75.1 404.2,73.1 412.4,73.1 							"/>
						</g>
					</g>
				</g>
				<g>
					<g>
						<g>
							<path class="st1" d="M270.4,99l10.8,0.1l0-2.3c-0.1-9.8-4.1-19.1-11.1-26l0,0l0,0c-6.9,7-10.7,16.4-10.6,26.2l0,2.1L270.4,99
								L270.4,99z"/>
						</g>
					</g>
					<g>
						<g>
							<path class="st0" d="M285.8,103.8l-15.4-0.2l-15.3,0.2l-0.1-6.7c-0.1-11.1,4.1-21.6,11.9-29.5l3.2-3.3l3.3,3.2
								c7.9,7.8,12.3,18.1,12.5,29.2L285.8,103.8z M270.4,101.6l13.4,0.1l0-4.9c-0.1-10.5-4.3-20.4-11.8-27.8l-1.8-1.8l-1.8,1.8
								c-7.4,7.5-11.4,17.5-11.3,28l0,4.6L270.4,101.6z"/>
						</g>
					</g>
					<g>
						<g>
							<path class="st0" d="M318.5,209.3H222v-21.5h96.4V209.3z M224.1,207.3h92.4v-17.4h-92.4V207.3z"/>
						</g>
					</g>
					<g>
						<g>
							<rect x="270.2" y="192.8" class="st4" width="43.3" height="11.6"/>
						</g>
					</g>
					<g>
						<g>
							<path class="st0" d="M232.7,202c-1.9,0-3.4-1.5-3.4-3.4c0-1.9,1.5-3.4,3.4-3.4c1.9,0,3.4,1.5,3.4,3.4
								C236.1,200.5,234.6,202,232.7,202z M232.7,197.3c-0.7,0-1.3,0.6-1.3,1.3c0,0.7,0.6,1.3,1.3,1.3c0.7,0,1.3-0.6,1.3-1.3
								C234,197.9,233.4,197.3,232.7,197.3z"/>
						</g>
					</g>
					<g>
						<g>
							<path class="st0" d="M309.3,202c-1.9,0-3.4-1.5-3.4-3.4c0-1.9,1.5-3.4,3.4-3.4c1.9,0,3.4,1.5,3.4,3.4
								C312.6,200.5,311.1,202,309.3,202z M309.3,197.3c-0.7,0-1.3,0.6-1.3,1.3c0,0.7,0.6,1.3,1.3,1.3c0.7,0,1.3-0.6,1.3-1.3
								C310.6,197.9,310,197.3,309.3,197.3z"/>
						</g>
					</g>
					<g>
						<g>
							<path class="st0" d="M318.5,170.3H222v-21.5h96.4V170.3z M224.1,168.3h92.4v-17.4h-92.4V168.3z"/>
						</g>
					</g>
					<g>
						<g>
							<rect x="270.2" y="153.8" class="st4" width="43.3" height="11.6"/>
						</g>
					</g>
					<g>
						<g>
							<path class="st0" d="M318.5,189.9H222v-21.6h96.4V189.9z M224.1,187.9h92.4v-17.6h-92.4V187.9z"/>
						</g>
					</g>
					<g>
						<g>
							<rect x="270.2" y="173.2" class="st4" width="43.3" height="11.8"/>
						</g>
					</g>
					<g>
						<g>
							<path class="st0" d="M232.7,162.9c-1.9,0-3.4-1.5-3.4-3.4c0-1.9,1.5-3.4,3.4-3.4c1.9,0,3.4,1.5,3.4,3.4
								C236.1,161.4,234.6,162.9,232.7,162.9z M232.7,158.2c-0.7,0-1.3,0.6-1.3,1.3c0,0.7,0.6,1.3,1.3,1.3c0.7,0,1.3-0.6,1.3-1.3
								C234,158.8,233.4,158.2,232.7,158.2z"/>
						</g>
					</g>
					<g>
						<g>
							<path class="st0" d="M309.3,162.9c-1.9,0-3.4-1.5-3.4-3.4c0-1.9,1.5-3.4,3.4-3.4c1.9,0,3.4,1.5,3.4,3.4
								C312.6,161.4,311.1,162.9,309.3,162.9z M309.3,158.2c-0.7,0-1.3,0.6-1.3,1.3c0,0.7,0.6,1.3,1.3,1.3c0.7,0,1.3-0.6,1.3-1.3
								C310.6,158.8,310,158.2,309.3,158.2z"/>
						</g>
					</g>
					<g>
						<g>
							<path class="st0" d="M232.7,182.4c-1.9,0-3.4-1.5-3.4-3.4c0-1.9,1.5-3.4,3.4-3.4c1.9,0,3.4,1.5,3.4,3.4
								C236.1,180.9,234.6,182.4,232.7,182.4z M232.7,177.8c-0.7,0-1.3,0.6-1.3,1.3c0,0.7,0.6,1.3,1.3,1.3c0.7,0,1.3-0.6,1.3-1.3
								C234,178.4,233.4,177.8,232.7,177.8z"/>
						</g>
					</g>
					<g>
						<g>
							<path class="st0" d="M309.3,182.4c-1.9,0-3.4-1.5-3.4-3.4c0-1.9,1.5-3.4,3.4-3.4c1.9,0,3.4,1.5,3.4,3.4
								C312.6,180.9,311.1,182.4,309.3,182.4z M309.3,177.8c-0.7,0-1.3,0.6-1.3,1.3c0,0.7,0.6,1.3,1.3,1.3c0.7,0,1.3-0.6,1.3-1.3
								C310.6,178.4,310,177.8,309.3,177.8z"/>
						</g>
					</g>
					<g>
						<g>
							<path class="st0" d="M318.5,150.9H222v-21.6h96.4V150.9z M224.1,148.8h92.4v-17.6h-92.4V148.8z"/>
						</g>
					</g>
					<g>
						<g>
							<rect x="270.2" y="134.2" class="st4" width="43.3" height="11.8"/>
						</g>
					</g>
					<g>
						<g>
							<path class="st0" d="M232.7,143.4c-1.9,0-3.4-1.5-3.4-3.4c0-1.9,1.5-3.4,3.4-3.4c1.9,0,3.4,1.5,3.4,3.4
								C236.1,141.9,234.6,143.4,232.7,143.4z M232.7,138.7c-0.7,0-1.3,0.6-1.3,1.3c0,0.7,0.6,1.3,1.3,1.3c0.7,0,1.3-0.6,1.3-1.3
								C234,139.3,233.4,138.7,232.7,138.7z"/>
						</g>
					</g>
					<g>
						<g>
							<path class="st0" d="M309.3,143.4c-1.9,0-3.4-1.5-3.4-3.4c0-1.9,1.5-3.4,3.4-3.4c1.9,0,3.4,1.5,3.4,3.4
								C312.6,141.9,311.1,143.4,309.3,143.4z M309.3,138.7c-0.7,0-1.3,0.6-1.3,1.3c0,0.7,0.6,1.3,1.3,1.3c0.7,0,1.3-0.6,1.3-1.3
								C310.6,139.3,310,138.7,309.3,138.7z"/>
						</g>
					</g>
					<g>
						<g>
							<path class="st0" d="M240.2,219.6H234v-12.3h6.2V219.6z M236.1,217.6h2.1v-8.2h-2.1V217.6z"/>
						</g>
					</g>
					<g>
						<g>
							<path class="st0" d="M304.7,219.6h-6.2v-12.3h6.2V219.6z M300.6,217.6h2.1v-8.2h-2.1V217.6z"/>
						</g>
					</g>
					<g>
						<g>
							<path class="st0" d="M318.5,225.4H222v-7.8h96.4V225.4z M224.1,223.4h92.4v-3.8h-92.4V223.4z"/>
						</g>
					</g>
					<g>
						<g>
							<rect x="269.2" y="91.2" class="st0" width="2" height="39"/>
						</g>
					</g>
					<g>
						<g>
							<path class="st0" d="M261.2,122.5H253c-6.2,0-11.2-5-11.2-11.2v-1h19.4V122.5z M243.9,112.3c0.5,4.6,4.4,8.2,9.1,8.2h6.1
								v-8.2H243.9z"/>
						</g>
					</g>
					<g>
						<g>
							<path class="st1" d="M253,117.9c-2.4,0-4.5-1.2-5.6-3.1h9.2v3.1H253z"/>
						</g>
					</g>
					<g>
						<g>
							<path class="st0" d="M286.6,124.4h-10.8v-16.3H302v1C302,117.6,295.1,124.4,286.6,124.4z M277.9,122.4h8.8
								c7,0,12.7-5.4,13.2-12.3h-22V122.4z"/>
						</g>
					</g>
					<g>
						<g>
							<path class="st1" d="M280.4,119.9v-7.2h16.4c-1.5,4.2-5.5,7.2-10.1,7.2H280.4z"/>
						</g>
					</g>
					<g>
						<g>
							<path class="st1" d="M199.8,126.3h-7.7v-1.5c0-7,2.8-13.6,7.7-18.6l0,0l0,0c4.9,4.9,7.7,11.6,7.7,18.6v1.5H199.8L199.8,126.3
								z"/>
						</g>
					</g>
					<g>
						<g>
							<path class="st0" d="M212.1,130.9h-24.5v-6.1c0-8.2,3.2-16,9-21.8l3.2-3.2l3.2,3.2c5.8,5.8,9,13.6,9,21.8V130.9z
								 M200.9,128.8h9.2v-4c0-7.7-3-14.9-8.4-20.4l-1.8-1.8l-1.8,1.8c-5.4,5.4-8.4,12.7-8.4,20.4v4h9.2v-7.1h2l0,1V128.8z"/>
						</g>
					</g>
					<g>
						<g>
							<path class="st0" d="M200.5,160.6v-2c5.1,0,9.2-4.1,9.2-9.2v-6.2h2v6.2C211.8,155.5,206.7,160.6,200.5,160.6z"/>
						</g>
					</g>
					<g>
						<g>
							<path class="st0" d="M199.9,156.7c-6.2,0-11.3-5.1-11.3-11.3v-3h2v3c0,5.1,4.1,9.2,9.2,9.2V156.7z"/>
						</g>
					</g>
					<g>
						<g>
							<path class="st0" d="M222.8,179.6c-13.2,0-24-10.7-24-24v-39.3h2v39.3c0,12.1,9.8,21.9,21.9,21.9V179.6z"/>
						</g>
					</g>
					<g>
						<g>
							<path class="st0" d="M189.6,143.5c-2.3,0-4.2-1.9-4.2-4.2c0-2.3,1.9-4.2,4.2-4.2s4.2,1.9,4.2,4.2
								C193.8,141.6,191.9,143.5,189.6,143.5z M189.6,137.1c-1.2,0-2.1,1-2.1,2.1c0,1.2,1,2.1,2.1,2.1c1.2,0,2.1-1,2.1-2.1
								C191.8,138.1,190.8,137.1,189.6,137.1z"/>
						</g>
					</g>
					<g>
						<g>
							<path class="st0" d="M210.8,144.6c-2.3,0-4.2-1.9-4.2-4.2c0-2.3,1.9-4.2,4.2-4.2c2.3,0,4.2,1.9,4.2,4.2
								C215,142.8,213.1,144.6,210.8,144.6z M210.8,138.3c-1.2,0-2.1,1-2.1,2.1s1,2.1,2.1,2.1c1.2,0,2.1-1,2.1-2.1
								S212,138.3,210.8,138.3z"/>
						</g>
					</g>
					<g>
						<g>
							<path class="st0" d="M271.3,125.9h-2c0-6.2,5.1-11.3,11.3-11.3h6.2v2h-6.2C275.4,116.6,271.3,120.8,271.3,125.9z"/>
						</g>
					</g>
					<g>
						<g>
							<path class="st0" d="M271.3,127.6h-2c0-5.6-4.6-10.2-10.2-10.2h-6.8v-2h6.8C265.8,115.4,271.3,120.9,271.3,127.6z"/>
						</g>
					</g>
				</g>
			</g>
		</g>
		<g>
			<rect y="213.4" class="st0" width="130" height="2"/>
			<rect x="40" y="198.4" class="st0" width="80" height="2"/>
			<rect x="790" y="213.4" class="st0" width="130" height="2"/>
			<rect x="800" y="198.4" class="st0" width="80" height="2"/>
			<rect x="80" y="223.4" class="st0" width="760" height="2"/>
		</g>
	</g>
	<g>
		<g>
			<g>
				<path class="st5" d="M305.5,19.1l-1.5-0.4l0.1-1.5c0-0.5,0.1-1,0.1-1.5c0-8.3-6.7-15-15-15c-6.2,0-11.8,3.9-14,9.6l-0.5,1.3
					l-1.4-0.1c-0.3,0-0.6,0-0.9,0c-5.3,0-9.6,4.3-9.6,9.6s4.3,9.6,9.6,9.6h31.5c3.3,0,5.9-2.6,5.9-5.9
					C309.7,22.1,308,19.8,305.5,19.1z"/>
			</g>
		</g>
		<g>
			<g>
				<path class="st5" d="M544.4,37.3l-1-0.3l0.1-1c0-0.3,0-0.7,0-1c0-5.5-4.5-10-10-10c-4.1,0-7.9,2.6-9.3,6.4l-0.3,0.9l-0.9-0.1
					c-0.2,0-0.4,0-0.6,0c-3.5,0-6.4,2.9-6.4,6.4c0,3.5,2.9,6.4,6.4,6.4h21c2.2,0,3.9-1.8,3.9-3.9C547.2,39.3,546.1,37.8,544.4,37.3z
					"/>
			</g>
		</g>
		<g>
			<g>
				<path class="st5" d="M653.6,16l-1.3-0.4l0.1-1.3c0-0.4,0.1-0.8,0.1-1.3c0-7.2-5.8-13-13-13c-5.3,0-10.2,3.4-12.1,8.4l-0.4,1.1
					l-1.2-0.1c-0.3,0-0.5,0-0.8,0c-4.6,0-8.3,3.7-8.3,8.3s3.7,8.3,8.3,8.3h27.3c2.8,0,5.1-2.3,5.1-5.1
					C657.3,18.6,655.7,16.6,653.6,16z"/>
			</g>
		</g>
	</g>
</g>
</svg>
