<?xml version="1.0" encoding="utf-8"?>
<!-- Generator: Adobe Illustrator 23.0.3, SVG Export Plug-In . SVG Version: 6.00 Build 0)  -->
<svg version="1.1" id="Layer_1" xmlns="http://www.w3.org/2000/svg" xmlns:xlink="http://www.w3.org/1999/xlink" x="0px" y="0px"
	 viewBox="0 0 920 180" style="enable-background:new 0 0 920 180;" xml:space="preserve">
<style type="text/css">
	.st0{fill:#4A555F;}
	.st1{fill:#71CCE0;}
	.st2{fill:#F58E6F;}
	.st3{fill:#FFD452;}
	.st4{fill:#DFDFDF;}
	.st5{fill:#FFFFFF;}
	.st6{fill:#C5F1F1;}
</style>
<g>
	<g>
		<g>
			<g>
				<g>
					<g>
						<path class="st0" d="M714.1,164.5H651v-63.1h63.1V164.5z M652,163.6h61.1v-61.1H652V163.6z"/>
					</g>
				</g>
				<g>
					<g>
						<path class="st1" d="M654.7,160.9v-55.7h55.7v55.7H654.7z M682.5,110.5c-13.2,0-23.9,10.7-23.9,23.9
							c0,13.2,10.7,23.9,23.9,23.9c13.2,0,23.9-10.7,23.9-23.9C706.5,121.3,695.7,110.5,682.5,110.5z"/>
					</g>
				</g>
				<g>
					<g>
						<g>
							<path class="st0" d="M673.2,180h-11.8l8.7-16.4h11.2L673.2,180z M663,179h9.6l7.1-14.5h-9.1L663,179z"/>
						</g>
					</g>
					<g>
						<g>
							<polygon class="st2" points="675.6,170.6 678,165.6 671.4,165.6 668.8,170.6 							"/>
						</g>
					</g>
					<g>
						<g>
							<path class="st0" d="M703.6,180h-11.8l-8-16.4H695L703.6,180z M692.4,179h9.6l-7.7-14.5h-9.1L692.4,179z"/>
						</g>
					</g>
					<g>
						<g>
							<polygon class="st2" points="696.3,170.6 693.7,165.6 687.1,165.6 689.5,170.6 							"/>
						</g>
					</g>
				</g>
			</g>
			<g>
				<g>
					<path class="st0" d="M682.5,155.7c-11.7,0-21.2-9.5-21.2-21.2s9.5-21.2,21.2-21.2c11.7,0,21.2,9.5,21.2,21.2
						S694.2,155.7,682.5,155.7z M682.5,114.2c-11.2,0-20.3,9.1-20.3,20.3s9.1,20.3,20.3,20.3c11.2,0,20.3-9.1,20.3-20.3
						S693.7,114.2,682.5,114.2z"/>
				</g>
			</g>
			<g>
				<g>
					<circle class="st3" cx="682.5" cy="134.5" r="18"/>
				</g>
			</g>
			<g>
				<g>
					<path class="st0" d="M682.5,141.4c-0.1,0-0.3,0-0.4,0l0.1-1c0.3,0,0.6,0,0.9,0l0.1,1C682.9,141.4,682.7,141.4,682.5,141.4z
						 M681.1,141.2c-0.3-0.1-0.7-0.2-1-0.3l0.3-0.9c0.3,0.1,0.6,0.2,0.8,0.2L681.1,141.2z M684.1,141.2l-0.2-0.9
						c0.3-0.1,0.6-0.2,0.8-0.3l0.4,0.9C684.8,141,684.5,141.1,684.1,141.2z M679.2,140.5c-0.3-0.2-0.6-0.4-0.9-0.6l0.6-0.8
						c0.2,0.2,0.5,0.3,0.7,0.5L679.2,140.5z M686,140.4l-0.5-0.8c0.3-0.1,0.5-0.3,0.7-0.5l0.6,0.7
						C686.6,140.1,686.3,140.3,686,140.4z M677.5,139.3c-0.2-0.2-0.5-0.5-0.7-0.8l0.8-0.6c0.2,0.2,0.4,0.5,0.6,0.7L677.5,139.3z
						 M687.6,139.2l-0.7-0.6c0.2-0.2,0.4-0.5,0.5-0.7l0.8,0.5C688.1,138.6,687.9,138.9,687.6,139.2z M676.4,137.6
						c-0.2-0.3-0.3-0.6-0.4-0.9l0.9-0.3c0.1,0.3,0.2,0.6,0.3,0.8L676.4,137.6z M688.8,137.5l-0.9-0.4c0.1-0.3,0.2-0.5,0.3-0.8
						l0.9,0.3C689,136.8,688.9,137.2,688.8,137.5z M675.7,135.6c-0.1-0.3-0.1-0.7-0.1-1l1,0c0,0.3,0,0.6,0.1,0.9L675.7,135.6z
						 M689.4,135.5l-0.9-0.1c0-0.3,0.1-0.6,0.1-0.9c0-0.1,0-0.2,0-0.3l1,0c0,0.1,0,0.2,0,0.3C689.4,134.8,689.4,135.2,689.4,135.5z
						 M676.6,133.7l-0.9-0.1c0-0.3,0.1-0.7,0.2-1l0.9,0.3C676.7,133.1,676.7,133.4,676.6,133.7z M688.4,133.3
						c-0.1-0.3-0.1-0.6-0.2-0.9l0.9-0.3c0.1,0.3,0.2,0.7,0.3,1L688.4,133.3z M677.1,132l-0.9-0.4c0.1-0.3,0.3-0.6,0.5-0.9l0.8,0.5
						C677.4,131.5,677.2,131.8,677.1,132z M687.8,131.7c-0.1-0.3-0.3-0.5-0.5-0.7l0.8-0.6c0.2,0.3,0.4,0.6,0.5,0.9L687.8,131.7z
						 M678.1,130.5l-0.7-0.6c0.2-0.3,0.5-0.5,0.7-0.7l0.6,0.7C678.5,130.1,678.3,130.3,678.1,130.5z M686.7,130.3
						c-0.2-0.2-0.4-0.4-0.7-0.6l0.6-0.8c0.3,0.2,0.5,0.4,0.8,0.7L686.7,130.3z M679.4,129.4l-0.5-0.8c0.3-0.2,0.6-0.3,0.9-0.5
						l0.4,0.9C679.9,129.1,679.7,129.3,679.4,129.4z M685.3,129.2c-0.3-0.1-0.5-0.3-0.8-0.4l0.3-0.9c0.3,0.1,0.6,0.3,0.9,0.4
						L685.3,129.2z M681,128.7l-0.2-0.9c0.3-0.1,0.7-0.1,1-0.2l0.1,1C681.6,128.6,681.3,128.6,681,128.7z M683.7,128.6
						c-0.3-0.1-0.6-0.1-0.9-0.1l0-1c0.3,0,0.7,0.1,1,0.1L683.7,128.6z"/>
				</g>
			</g>
			<g>
				<g>
					
						<rect x="692.4" y="130.2" transform="matrix(0.7071 -0.7071 0.7071 0.7071 100.5502 532.3187)" class="st0" width="1" height="29.1"/>
				</g>
			</g>
			<g>
				<g>
					<polygon class="st0" points="700.2,156.3 699.2,156.3 699.2,151.2 704.3,151.2 704.3,152.1 700.2,152.1 					"/>
				</g>
			</g>
			<g>
				<g>
					<polygon class="st0" points="703.6,159.7 702.7,159.7 702.7,154.6 707.7,154.6 707.7,155.6 703.6,155.6 					"/>
				</g>
			</g>
		</g>
		<g>
			<g>
				<g>
					<path class="st0" d="M174.4,180h-16.2v-25.1h16.2V180z M159.3,178.9h13.9V156h-13.9V178.9z"/>
				</g>
			</g>
			<g>
				<g>
					<rect x="160.6" y="157.3" class="st4" width="11.3" height="20.3"/>
				</g>
			</g>
			<g>
				<g>
					<path class="st0" d="M197.3,180h-16.2v-34.6h16.2V180z M182.2,178.9h13.9v-32.4h-13.9V178.9z"/>
				</g>
			</g>
			<g>
				<g>
					<rect x="183.5" y="147.8" class="st1" width="11.3" height="29.7"/>
				</g>
			</g>
			<g>
				<g>
					<path class="st0" d="M220.1,180h-16.2v-50h16.2V180z M205.1,178.9H219v-47.8h-13.9V178.9z"/>
				</g>
			</g>
			<g>
				<g>
					<rect x="206.4" y="132.4" class="st3" width="11.3" height="45.2"/>
				</g>
			</g>
			<g>
				<g>
					<path class="st0" d="M243,180h-16.2v-61.9H243V180z M228,178.9h13.9v-59.7H228V178.9z"/>
				</g>
			</g>
			<g>
				<g>
					<rect x="229.3" y="120.5" class="st2" width="11.3" height="57"/>
				</g>
			</g>
			<g>
				<g>
					<g>
						<path class="st0" d="M235.1,110.3h-0.3c-3.1,0-5.6-2.5-5.6-5.6v-7.8h11.6v7.8C240.7,107.8,238.2,110.3,235.1,110.3z M230.3,98
							v6.7c0,2.5,2,4.5,4.5,4.5h0.3c2.5,0,4.5-2,4.5-4.5V98H230.3z"/>
					</g>
				</g>
				<g>
					<g>
						<path class="st3" d="M234.8,99.3v8.6h0.2c1.8,0,3.2-1.4,3.2-3.2v-5.4H234.8z"/>
					</g>
				</g>
				<g>
					<g>
						<path class="st0" d="M238.3,116.8h-6.8v-1.5l1.9-1.3v-4.8h2.9v4.8l1.9,1.3V116.8z M233,115.6h3.8l-1.6-1v-4.3h-0.7v4.3
							L233,115.6z"/>
					</g>
				</g>
				<g>
					<g>
						<path class="st0" d="M240.2,105.9L240.2,105.9l-0.1-1.1h0.1c1.1,0,2-0.9,2-2v-3h-2.1v-1.1h3.2v4.1
							C243.3,104.5,241.9,105.9,240.2,105.9z"/>
					</g>
				</g>
				<g>
					<g>
						<path class="st0" d="M229.8,105.9L229.8,105.9c-1.8,0-3.2-1.4-3.2-3.1v-4.1h3.2v1.1h-2.1v3c0,1.1,0.9,2,2,2h0.1V105.9z"/>
					</g>
				</g>
				<g>
					<g>
						<rect x="230.5" y="95.5" class="st0" width="1.1" height="1.9"/>
					</g>
				</g>
				<g>
					<g>
						<rect x="233.1" y="95.5" class="st0" width="1.1" height="1.9"/>
					</g>
				</g>
				<g>
					<g>
						<rect x="235.7" y="95.5" class="st0" width="1.1" height="1.9"/>
					</g>
				</g>
				<g>
					<g>
						<rect x="238.3" y="95.5" class="st0" width="1.1" height="1.9"/>
					</g>
				</g>
			</g>
			<g>
				<g>
					<path class="st0" d="M166.6,151.7c-0.9-7.1,4.1-13.8,11.2-14.9c4.6-0.7,9.4,1.1,12.3,4.8l-0.9,0.7c-2.7-3.4-7-5-11.3-4.4
						c-6.5,1-11.1,7.1-10.3,13.6L166.6,151.7z"/>
				</g>
			</g>
			<g>
				<g>
					<path class="st0" d="M191,141.7c-2.5-6.7,0.9-14.4,7.5-17c4.4-1.7,9.4-1,13.1,1.9l-0.7,0.9c-3.4-2.6-8-3.3-12-1.7
						c-6.1,2.4-9.2,9.4-6.9,15.6L191,141.7z"/>
				</g>
			</g>
			<g>
				<g>
					<path class="st0" d="M212.3,126c-2.5-6.7,0.9-14.4,7.5-17c1.7-0.7,3.5-1,5.3-0.9l0,1.1c-1.7,0-3.3,0.2-4.8,0.9
						c-6.1,2.4-9.2,9.4-6.9,15.6L212.3,126z"/>
				</g>
			</g>
			<g>
				<g>
					<g>
						<g>
							<rect x="161.1" y="93.6" class="st0" width="1.1" height="41.2"/>
						</g>
					</g>
					<g>
						<g>
							<path class="st0" d="M184.8,111.8h-23.7V95.1h23.7V111.8z M162.2,110.7h21.4V96.3h-21.4V110.7z"/>
						</g>
					</g>
					<g>
						<g>
							<rect x="163.5" y="97.6" class="st2" width="18.8" height="11.8"/>
						</g>
					</g>
					<g>
						<g>
							<path class="st0" d="M198,119.3h-23.6v-8.6h9.2v-8.5H198l-8.2,8.6L198,119.3z M175.6,118.1h19.8l-7.1-7.4l7.1-7.4h-10.6v8.5
								h-9.2V118.1z"/>
						</g>
					</g>
					<g>
						<g>
							<polygon class="st2" points="186.5,110.7 192.3,116.8 180.9,116.8 186.1,113.1 186.1,104.6 192.3,104.6 							"/>
						</g>
					</g>
					<g>
						<g>
							<path class="st0" d="M175.4,119.1l-0.9-0.4v-7.5l0.6-0.6h9.2l0.4,1L175.4,119.1z M175.6,111.8v5.7l7-5.7H175.6z"/>
						</g>
					</g>
				</g>
				<g>
					<g>
						<path class="st0" d="M161.7,94.1c-1.3,0-2.4-1.1-2.4-2.4c0-1.3,1.1-2.4,2.4-2.4c1.3,0,2.4,1.1,2.4,2.4
							C164.1,93.1,163,94.1,161.7,94.1z M161.7,90.4c-0.7,0-1.3,0.6-1.3,1.3c0,0.7,0.6,1.3,1.3,1.3c0.7,0,1.3-0.6,1.3-1.3
							C163,91,162.4,90.4,161.7,90.4z"/>
					</g>
				</g>
			</g>
		</g>
		<g>
			<g>
				<g>
					<path class="st0" d="M667.4,76.5L667.4,76.5c-3.1,0-5.5-2.5-5.5-5.5c0-3.1,2.5-5.5,5.5-5.5c3.1,0,5.5,2.5,5.5,5.5
						C672.9,74.1,670.4,76.5,667.4,76.5z M667.4,67c-2.2,0-4,1.8-4,4s1.8,4,4,4c2.2,0,4-1.8,4-4S669.6,67,667.4,67z"/>
				</g>
			</g>
			<g>
				<g>
					<path class="st0" d="M670.4,86.9h-6l-1.6-4.7l-4.5,2.2l-4.3-4.3l2.2-4.5l-4.7-1.6v-6l4.7-1.6l-2.2-4.5l4.3-4.3l4.5,2.2l1.6-4.7
						h6l1.6,4.7l4.5-2.2l4.3,4.3l-2.2,4.5l4.7,1.6v6l-4.7,1.6l2.2,4.5l-4.3,4.3l-4.5-2.2L670.4,86.9z M665.4,85.4h3.9l1.8-5.3l5,2.4
						l2.7-2.7l-2.4-5l5.3-1.8v-3.9l-5.3-1.8l2.4-5l-2.7-2.7l-5,2.4l-1.8-5.3h-3.9l-1.8,5.3l-5-2.4l-2.7,2.7l2.4,5l-5.3,1.8v3.9
						l5.3,1.8l-2.4,5l2.7,2.7l5-2.4L665.4,85.4z"/>
				</g>
			</g>
			<g>
				<g>
					<path class="st3" d="M665.1,78.2c0.7,0.2,1.5,0.3,2.3,0.3c0.8,0,1.5-0.1,2.3-0.3l-1.8,5.1l-1,0L665.1,78.2z M658.3,79.4
						l2.4-4.9c0.7,1.4,1.8,2.5,3.2,3.2l-4.9,2.4L658.3,79.4z M670.9,77.7c1.4-0.7,2.5-1.8,3.2-3.2l2.4,4.9l-0.7,0.7L670.9,77.7z
						 M674.6,73.3c0.2-0.7,0.3-1.5,0.3-2.3c0-0.8-0.1-1.5-0.3-2.3l5.1,1.8v1L674.6,73.3z M655,71.5v-1l5.1-1.8
						c-0.2,0.7-0.3,1.5-0.3,2.3c0,0.8,0.1,1.5,0.3,2.3L655,71.5z M674.1,67.5c-0.7-1.4-1.8-2.5-3.2-3.2l4.9-2.4l0.7,0.7L674.1,67.5z
						 M658.3,62.6l0.7-0.7l4.9,2.4c-1.4,0.7-2.5,1.8-3.2,3.2L658.3,62.6z M666.9,58.6h1l1.8,5.1c-0.7-0.2-1.5-0.3-2.3-0.3
						c-0.8,0-1.5,0.1-2.3,0.3L666.9,58.6z"/>
				</g>
			</g>
			<g>
				<g>
					<g>
						<path class="st0" d="M635.3,160.3h-73.7c-3,0-5.4-2.4-5.4-5.4v-45.2c0-3,2.4-5.4,5.4-5.4h73.7c3,0,5.4,2.4,5.4,5.4v45.2
							C640.7,157.9,638.3,160.3,635.3,160.3z M561.5,105.9c-2.1,0-3.9,1.7-3.9,3.9v45.2c0,2.1,1.7,3.9,3.9,3.9h73.7
							c2.1,0,3.9-1.7,3.9-3.9v-45.2c0-2.1-1.7-3.9-3.9-3.9H561.5z M634.1,153.7h-71.4v-42.8h71.4V153.7z M564.2,152.2h68.3v-39.7
							h-68.3V152.2z"/>
					</g>
				</g>
				<g>
					<g>
						<path class="st0" d="M626.2,180h-54.5v-7.2h12.5l3.7-14H610l3.7,14h12.5V180z M573.2,178.5h51.4v-4.2h-12.2l-3.7-14h-19.7
							l-3.7,14h-12.2V178.5z"/>
					</g>
				</g>
				<g>
					<g>
						<polygon class="st1" points="609.1,169.4 607.2,162.3 590.6,162.3 588.8,169.4 						"/>
					</g>
				</g>
			</g>
			<g>
				<g>
					<path class="st0" d="M658.1,97.5h-8.3c-5.6,0-10.1-4.5-10.1-10.1V70.2H653v2.7l5.3,1.8l-2.4,5l2.7,2.7l5-2.4l1.8,5.3h2.7v2
						c0,2.7-1,5.2-3,7.1C663.3,96.4,660.7,97.5,658.1,97.5z M641.2,71.8v15.6c0,4.7,3.8,8.5,8.5,8.5h8.3c2.3,0,4.4-0.9,6-2.5
						c1.6-1.6,2.5-3.8,2.5-6v-0.5h-2.3l-1.6-4.7l-4.5,2.2l-4.3-4.3l2.2-4.5l-4.7-1.6v-2.2H641.2z"/>
				</g>
			</g>
			<g>
				<g>
					<path class="st0" d="M649.6,97.5h-28.5V65.6c0-5.1,3.8-9.5,8.9-10.1c0.3,0,0.6,0,0.9,0c0.1,0,0.2,0,0.3,0
						c5.6,0,10.1,4.5,10.1,10.1v21.8c0,0.3,0.1,8,8.4,8.5l1.7,0.1l-1.5,1.4L649.6,97.5z M622.6,95.9h21.7c-4.6-2.8-4.7-8.5-4.7-8.5
						V65.6c0-4.7-3.8-8.5-8.5-8.5c-0.1,0-0.3,0-0.4,0c-0.2,0-0.4,0-0.6,0c-4.3,0.5-7.5,4.2-7.5,8.5V95.9z"/>
				</g>
			</g>
			<g>
				<g>
					<path class="st1" d="M624.4,94.1V65.6c0-3.5,2.6-6.4,5.9-6.8l0.1,0c0.1,0,0.2,0,0.3,0c0.2,0,0.3,0,0.5,0c3.7,0,6.7,3,6.7,6.7
						v21.8c0,1.8,0.5,4.4,2.1,6.8H624.4z"/>
				</g>
			</g>
			<g>
				<g>
					<path class="st5" d="M631.2,56.3c-5.1,0-9.3,4.2-9.3,9.3V153h-46.5V65.6c0-5.1,4.2-9.4,9.3-9.4H631.2L631.2,56.3z"/>
				</g>
			</g>
			<g>
				<g>
					<path class="st0" d="M622.6,153.7h-48V65.6c0-5.6,4.5-10.1,10.1-10.1h46.5V57c-4.7,0-8.5,3.8-8.5,8.5V153.7z M576.2,152.2h44.9
						V65.6c0-3.6,1.9-6.8,4.7-8.5h-41.1c-4.7,0-8.5,3.9-8.5,8.6V152.2z"/>
				</g>
			</g>
			<g>
				<g>
					<rect x="589.3" y="71.4" class="st0" width="25.6" height="1.5"/>
				</g>
			</g>
			<g>
				<g>
					<rect x="582.9" y="79" class="st0" width="32" height="1.5"/>
				</g>
			</g>
			<g>
				<g>
					<rect x="582.9" y="95.1" class="st0" width="32" height="1.5"/>
				</g>
			</g>
			<g>
				<g>
					<rect x="582.9" y="87.1" class="st0" width="32" height="1.5"/>
				</g>
			</g>
			<g>
				<g>
					<rect x="582.9" y="127.9" class="st0" width="32" height="1.5"/>
				</g>
			</g>
			<g>
				<g>
					<rect x="582.9" y="135.5" class="st0" width="32" height="1.5"/>
				</g>
			</g>
			<g>
				<g>
					<rect x="582.9" y="143" class="st0" width="32" height="1.5"/>
				</g>
			</g>
			<g>
				<g>
					<rect x="586.8" y="111.4" class="st3" width="4.4" height="9"/>
				</g>
			</g>
			<g>
				<g>
					<rect x="596.7" y="109" class="st3" width="4.4" height="11.4"/>
				</g>
			</g>
			<g>
				<g>
					<rect x="606.6" y="102.7" class="st3" width="4.4" height="17.7"/>
				</g>
			</g>
			<g>
				<g>
					<rect x="582.9" y="119.6" class="st0" width="31.7" height="1.5"/>
				</g>
			</g>
			<g>
				<g>
					<rect x="566.6" y="114.7" class="st4" width="5.8" height="35"/>
				</g>
			</g>
			<g>
				<g>
					<rect x="624.6" y="114.7" class="st4" width="5.8" height="35"/>
				</g>
			</g>
		</g>
		<g>
			<g>
				<g>
					<path class="st0" d="M761.8,159h-39.2v-12.8h39.2V159z M724,157.7h36.5v-10.1H724V157.7z"/>
				</g>
			</g>
			<g>
				<g>
					<rect x="742.1" y="149.2" class="st1" width="16.7" height="6.8"/>
				</g>
			</g>
			<g>
				<g>
					<path class="st0" d="M761.8,170.5h-39.2v-12.9h39.2V170.5z M724,169.2h36.5V159H724V169.2z"/>
				</g>
			</g>
			<g>
				<g>
					<rect x="742.1" y="160.6" class="st1" width="16.7" height="6.9"/>
				</g>
			</g>
			<g>
				<g>
					<path class="st0" d="M729,154.6c-1.1,0-2-0.9-2-2c0-1.1,0.9-2,2-2s2,0.9,2,2C731,153.7,730.1,154.6,729,154.6z M729,151.9
						c-0.4,0-0.7,0.3-0.7,0.7c0,0.4,0.3,0.7,0.7,0.7s0.7-0.3,0.7-0.7C729.7,152.2,729.4,151.9,729,151.9z"/>
				</g>
			</g>
			<g>
				<g>
					<path class="st0" d="M756.3,154.6c-1.1,0-2-0.9-2-2c0-1.1,0.9-2,2-2s2,0.9,2,2C758.4,153.7,757.5,154.6,756.3,154.6z
						 M756.3,151.9c-0.4,0-0.7,0.3-0.7,0.7c0,0.4,0.3,0.7,0.7,0.7s0.7-0.3,0.7-0.7C757.1,152.2,756.7,151.9,756.3,151.9z"/>
				</g>
			</g>
			<g>
				<g>
					<path class="st0" d="M729,166.1c-1.1,0-2-0.9-2-2c0-1.1,0.9-2,2-2s2,0.9,2,2C731,165.2,730.1,166.1,729,166.1z M729,163.4
						c-0.4,0-0.7,0.3-0.7,0.7c0,0.4,0.3,0.7,0.7,0.7s0.7-0.3,0.7-0.7C729.7,163.7,729.4,163.4,729,163.4z"/>
				</g>
			</g>
			<g>
				<g>
					<path class="st0" d="M756.3,166.1c-1.1,0-2-0.9-2-2c0-1.1,0.9-2,2-2s2,0.9,2,2C758.4,165.2,757.5,166.1,756.3,166.1z
						 M756.3,163.4c-0.4,0-0.7,0.3-0.7,0.7c0,0.4,0.3,0.7,0.7,0.7s0.7-0.3,0.7-0.7C757.1,163.7,756.7,163.4,756.3,163.4z"/>
				</g>
			</g>
			<g>
				<g>
					<path class="st0" d="M733.5,176.6h-3.8v-7.4h3.8V176.6z M731,175.3h1.1v-4.7H731V175.3z"/>
				</g>
			</g>
			<g>
				<g>
					<path class="st0" d="M753.7,176.6H750v-7.4h3.8V176.6z M751.3,175.3h1.1v-4.7h-1.1V175.3z"/>
				</g>
			</g>
			<g>
				<g>
					<path class="st0" d="M761.8,180h-39.2v-4.7h39.2V180z M724,178.7h36.5v-2.1H724V178.7z"/>
				</g>
			</g>
		</g>
		<g>
			<g>
				<g>
					<g>
						<path class="st0" d="M291.1,179.7h-36.2l-0.7-0.7v-57.2l0.5-0.7l6.7-2.2v-3l0.7-0.7h21.8l0.7,0.7v3l6.7,2.2l0.5,0.7v57.2
							L291.1,179.7z M255.6,178.2h34.7v-56l-6.7-2.2l-0.5-0.7v-2.8h-20.4v2.8l-0.5,0.7l-6.7,2.2V178.2z"/>
					</g>
				</g>
				<g>
					<g>
						<polygon class="st1" points="281.5,121.1 281.5,118.2 264.4,118.2 264.4,121.1 260.7,122.3 260.7,176.6 285.5,176.6 
							285.5,122.4 						"/>
					</g>
				</g>
				<g>
					<g>
						<rect x="262.5" y="124.5" class="st0" width="19.7" height="1.4"/>
					</g>
				</g>
				<g>
					<g>
						<rect x="262.5" y="129.7" class="st0" width="19.7" height="1.4"/>
					</g>
				</g>
				<g>
					<g>
						<rect x="262.5" y="134.9" class="st0" width="19.7" height="1.4"/>
					</g>
				</g>
				<g>
					<g>
						<rect x="262.5" y="140.1" class="st0" width="19.7" height="1.4"/>
					</g>
				</g>
				<g>
					<g>
						<polygon class="st0" points="273.9,153.8 268.4,153.8 268,153.7 263.7,150.4 254.9,150.4 254.9,149 263.9,149 264.3,149.1 
							268.7,152.4 273.9,152.4 						"/>
					</g>
				</g>
				<g>
					<g>
						<polygon class="st0" points="277.8,153.8 272.4,153.8 272.4,152.4 277.6,152.4 281.9,149.1 282.3,149 291.3,149 291.3,150.4 
							282.6,150.4 278.3,153.7 						"/>
					</g>
				</g>
				<g>
					<g>
						<path class="st0" d="M273,166.1c-2.3,0-4.2-1.9-4.2-4.2c0-2.3,1.9-4.2,4.2-4.2c2.3,0,4.2,1.9,4.2,4.2
							C277.2,164.2,275.3,166.1,273,166.1z M273,159.1c-1.5,0-2.8,1.2-2.8,2.8c0,1.5,1.2,2.8,2.8,2.8c1.5,0,2.8-1.2,2.8-2.8
							C275.8,160.4,274.5,159.1,273,159.1z"/>
					</g>
				</g>
				<g>
					<g>
						<path class="st2" d="M274.6,161.9c0,0.9-0.7,1.6-1.6,1.6c-0.9,0-1.6-0.7-1.6-1.6c0-0.9,0.7-1.6,1.6-1.6
							C273.9,160.3,274.6,161,274.6,161.9z"/>
					</g>
				</g>
				<g>
					<g>
						<rect x="257.5" y="120.2" class="st0" width="1.4" height="58.7"/>
					</g>
				</g>
				<g>
					<g>
						<rect x="287.1" y="120.2" class="st0" width="1.4" height="58.7"/>
					</g>
				</g>
			</g>
			<g>
				<g>
					<path class="st0" d="M307.3,103.5c-5.4,0-9.8-4.4-9.8-9.8c0-2.6,1-5.1,2.9-7c1.9-1.9,4.3-2.9,6.9-2.9c1.4,0,2.8,0.3,4.1,0.9
						c0-0.1,0-0.1,0-0.2c0-5.1,1.9-9.8,5.5-13.4c3.6-3.6,8.3-5.6,13.4-5.6c8.1,0,15.2,5,17.9,12.5c2-1.1,4.2-1.7,6.5-1.7
						c7.5,0,13.5,6,13.5,13.5c0,3.6-1.4,7-3.9,9.6c-2.5,2.6-5.9,4-9.5,4L307.3,103.5z M307.3,85.3c-4.7,0-8.4,3.8-8.4,8.4
						c0,4.6,3.8,8.4,8.4,8.4v0.7l0-0.7l47.4-0.1c3.2,0,6.3-1.3,8.5-3.6c2.3-2.3,3.5-5.3,3.5-8.6c0-6.7-5.4-12.1-12.1-12.1
						c-2.3,0-4.6,0.7-6.6,1.9l-0.8,0.5l-0.3-0.9C344.8,72,338,67,330.3,67c-4.7,0-9.1,1.8-12.4,5.2c-3.3,3.3-5.1,7.7-5.1,12.4
						c0,0.4,0,0.9,0.1,1.4l0.1,1.4l-1.2-0.8C310.4,85.8,308.8,85.3,307.3,85.3z"/>
				</g>
			</g>
			<g>
				<g>
					<polygon class="st0" points="266.3,108.9 264.9,108.9 264.9,81.1 299.3,81.1 299.3,82.6 266.3,82.6 					"/>
				</g>
			</g>
			<g>
				<g>
					<g>
						<polygon class="st0" points="294.8,86.4 293.9,85.3 298.1,81.9 293.9,78.4 294.8,77.3 300.4,81.9 						"/>
					</g>
				</g>
			</g>
			<g>
				<g>
					<g>
						<polygon class="st0" points="276.5,110 271.9,104.4 273.1,103.5 276.5,107.8 279.9,103.5 281,104.4 						"/>
					</g>
				</g>
			</g>
			<g>
				<g>
					<g>
						<polygon class="st0" points="333.1,124.2 328.6,118.6 329.7,117.7 333.1,122 336.5,117.7 337.6,118.6 						"/>
					</g>
				</g>
			</g>
			<g>
				<g>
					<rect x="332.4" y="108.3" class="st0" width="1.4" height="14.8"/>
				</g>
			</g>
			<g>
				<g>
					<g>
						<path class="st0" d="M333.1,180c-13.9,0-25.1-11.3-25.1-25.1s11.3-25.1,25.1-25.1c13.9,0,25.1,11.3,25.1,25.1
							S347,180,333.1,180z M333.1,131.2c-13.1,0-23.7,10.6-23.7,23.7s10.6,23.7,23.7,23.7c13.1,0,23.7-10.6,23.7-23.7
							S346.2,131.2,333.1,131.2z"/>
					</g>
				</g>
				<g>
					<g>
						<path class="st3" d="M333.1,176.2c-11.7,0-21.3-9.6-21.3-21.3c0-11.7,9.6-21.3,21.3-21.3c11.7,0,21.3,9.6,21.3,21.3
							C354.4,166.6,344.9,176.2,333.1,176.2z"/>
					</g>
				</g>
				<g>
					<g>
						<path class="st0" d="M333.1,168.4c-13.9,0-25.1-6-25.1-13.5c0-7.4,11.3-13.5,25.1-13.5c13.9,0,25.1,6,25.1,13.5
							C358.2,162.3,347,168.4,333.1,168.4z M333.1,142.8c-13.1,0-23.7,5.4-23.7,12.1c0,6.7,10.6,12.1,23.7,12.1
							c13.1,0,23.7-5.4,23.7-12.1C356.8,148.2,346.2,142.8,333.1,142.8z"/>
					</g>
				</g>
				<g>
					<g>
						<path class="st0" d="M333.1,180c-6.9,0-12.3-11-12.3-25.1s5.4-25.1,12.3-25.1c6.9,0,12.3,11,12.3,25.1S340,180,333.1,180z
							 M333.1,131.2c-5.9,0-10.9,10.9-10.9,23.7s5,23.7,10.9,23.7c5.9,0,10.9-10.9,10.9-23.7S339,131.2,333.1,131.2z"/>
					</g>
				</g>
				<g>
					<g>
						<rect x="308.7" y="154.2" class="st0" width="48.8" height="1.4"/>
					</g>
				</g>
				<g>
					<g>
						<rect x="332.4" y="130.5" class="st0" width="1.4" height="48.8"/>
					</g>
				</g>
			</g>
			<g>
				<g>
					<path class="st0" d="M344,87.5h-21.9v-7.6H344V87.5z M323.6,86.1h19v-4.8h-19V86.1z"/>
				</g>
			</g>
			<g>
				<g>
					<rect x="333" y="81.9" class="st1" width="9" height="3.7"/>
				</g>
			</g>
			<g>
				<g>
					<path class="st0" d="M344,93.8h-21.9v-7.7H344V93.8z M323.6,92.3h19v-4.8h-19V92.3z"/>
				</g>
			</g>
			<g>
				<g>
					<rect x="333" y="88.1" class="st1" width="9" height="3.7"/>
				</g>
			</g>
			<g>
				<g>
					<circle class="st0" cx="325.9" cy="83.7" r="1.5"/>
				</g>
			</g>
			<g>
				<g>
					<path class="st0" d="M340.7,85.2c-0.8,0-1.5-0.7-1.5-1.5s0.7-1.5,1.5-1.5c0.8,0,1.5,0.7,1.5,1.5S341.5,85.2,340.7,85.2z"/>
				</g>
			</g>
			<g>
				<g>
					<path class="st0" d="M325.9,91.4c-0.8,0-1.5-0.7-1.5-1.5c0-0.8,0.7-1.5,1.5-1.5s1.5,0.7,1.5,1.5
						C327.4,90.7,326.7,91.4,325.9,91.4z"/>
				</g>
			</g>
			<g>
				<g>
					<path class="st0" d="M340.7,91.4c-0.8,0-1.5-0.7-1.5-1.5c0-0.8,0.7-1.5,1.5-1.5c0.8,0,1.5,0.7,1.5,1.5
						C342.2,90.7,341.5,91.4,340.7,91.4z"/>
				</g>
			</g>
			<g>
				<g>
					<path class="st0" d="M335.9,97h-5.5v-4.7h5.5V97z M331.8,95.6h2.7v-1.9h-2.7V95.6z"/>
				</g>
			</g>
			<g>
				<g>
					<path class="st0" d="M344,99.3h-21.9v-3.7H344V99.3z M323.6,97.9h19V97h-19V97.9z"/>
				</g>
			</g>
			<g>
				<g>
					<polygon class="st0" points="277.2,108.3 275.8,108.3 275.8,93 291.1,93 291.1,94.4 277.2,94.4 					"/>
				</g>
			</g>
		</g>
		<g>
			<g>
				<g>
					<g>
						<path class="st0" d="M536.9,139.6H385.7c-5.8,0-10.6-4.8-10.6-10.6V36.4c0-5.8,4.8-10.6,10.6-10.6h151.2
							c5.8,0,10.6,4.8,10.6,10.6V129C547.5,134.8,542.7,139.6,536.9,139.6z M385.7,28c-4.6,0-8.4,3.8-8.4,8.4V129
							c0,4.6,3.8,8.4,8.4,8.4h151.2c4.6,0,8.4-3.8,8.4-8.4V36.4c0-4.6-3.8-8.4-8.4-8.4H385.7z"/>
					</g>
				</g>
				<g>
					<g>
						<path class="st0" d="M535.7,126.1H388.6V38.7h147.1V126.1z M390.8,123.9h142.8v-83H390.8V123.9z"/>
					</g>
				</g>
				<g>
					<g>
						<path class="st0" d="M516.6,180H405.9v-10.2h25.5l7.5-32.4h44.6l7.5,32.4h25.5V180z M408.1,177.8h106.3V172h-25.1l-7.5-32.4
							h-41.2l-7.5,32.4h-25.1V177.8z"/>
					</g>
				</g>
				<g>
					<g>
						<polygon class="st1" points="482.1,162.4 478.3,144.2 444.3,144.2 440.5,162.4 						"/>
					</g>
				</g>
				<g>
					<g>
						<rect x="411.6" y="1.1" class="st5" width="99.3" height="123.9"/>
					</g>
				</g>
				<g>
					<g>
						<path class="st0" d="M512,126.1H410.6V0H512V126.1z M412.7,123.9h97.1V2.2h-97.1V123.9z"/>
					</g>
				</g>
				<g>
					<g>
						<path class="st0" d="M496.7,113.3h-71.9V11.2h71.9V113.3z M426.9,111.1h67.5V13.4h-67.5V111.1z"/>
					</g>
				</g>
				<g>
					<g>
						<rect x="515.6" y="44.2" class="st2" width="14.5" height="76.5"/>
					</g>
				</g>
				<g>
					<g>
						<rect x="393.4" y="44.2" class="st2" width="14.5" height="76.5"/>
					</g>
				</g>
			</g>
			<g>
				<g>
					<g>
						<path class="st0" d="M461.1,27.3c12.5,0,22.6,10.2,22.6,22.6c0,8.8-11.2,29-20.9,43.6l-1.8,2.7l-1.8-2.7
							C449.7,79,438.4,58.8,438.4,50C438.4,37.5,448.6,27.3,461.1,27.3 M461.1,56.4c3.7,0,6.6-3,6.6-6.6s-3-6.6-6.6-6.6
							c-3.7,0-6.6,3-6.6,6.6S457.4,56.4,461.1,56.4 M461.1,24.3c-14.1,0-25.6,11.5-25.6,25.6c0,12.3,17.8,39.8,21.4,45.2l4.3,6.5
							l4.3-6.5c3.6-5.4,21.4-33,21.4-45.2C486.7,35.8,475.2,24.3,461.1,24.3L461.1,24.3z M461.1,53.4c-2,0-3.6-1.6-3.6-3.6
							s1.6-3.6,3.6-3.6c2,0,3.6,1.6,3.6,3.6S463.1,53.4,461.1,53.4L461.1,53.4z"/>
					</g>
				</g>
				<path class="st1" d="M461.1,29.4c-11.3,0-20.5,9.2-20.5,20.5s20.5,42.4,20.5,42.4s20.5-31.1,20.5-42.4S472.4,29.4,461.1,29.4z
					 M461.1,58.5c-4.8,0-8.8-3.9-8.8-8.8s3.9-8.8,8.8-8.8s8.8,3.9,8.8,8.8S465.9,58.5,461.1,58.5z"/>
			</g>
		</g>
	</g>
	<g>
		<rect y="168" class="st0" width="130" height="2"/>
		<rect x="40" y="153" class="st0" width="80" height="2"/>
		<rect x="790" y="168" class="st0" width="130" height="2"/>
		<rect x="800" y="153" class="st0" width="80" height="2"/>
		<rect x="80" y="178" class="st0" width="760" height="2"/>
	</g>
	<g>
		<g>
			<g>
				<path class="st6" d="M291.2,22.9l-1-0.3l0.1-1c0-0.3,0-0.7,0-1c0-5.5-4.5-10-10-10c-4.1,0-7.9,2.6-9.3,6.4l-0.3,0.9l-0.9-0.1
					c-0.2,0-0.4,0-0.6,0c-3.5,0-6.4,2.9-6.4,6.4s2.9,6.4,6.4,6.4h21c2.2,0,3.9-1.8,3.9-3.9C294.1,25,292.9,23.4,291.2,22.9z"/>
			</g>
		</g>
		<g>
			<g>
				<path class="st6" d="M653.6,16l-1.3-0.4l0.1-1.3c0-0.4,0.1-0.8,0.1-1.3c0-7.2-5.8-13-13-13c-5.3,0-10.2,3.4-12.1,8.4l-0.4,1.1
					l-1.2-0.1c-0.3,0-0.5,0-0.8,0c-4.6,0-8.3,3.7-8.3,8.3s3.7,8.3,8.3,8.3h27.3c2.8,0,5.1-2.3,5.1-5.1
					C657.3,18.6,655.7,16.6,653.6,16z"/>
			</g>
		</g>
	</g>
</g>
</svg>
