<?xml version="1.0" encoding="utf-8"?>
<!-- Generator: Adobe Illustrator 23.0.3, SVG Export Plug-In . SVG Version: 6.00 Build 0)  -->
<svg version="1.1" id="Layer_1" xmlns="http://www.w3.org/2000/svg" xmlns:xlink="http://www.w3.org/1999/xlink" x="0px" y="0px"
	 viewBox="0 0 45.9 76" style="enable-background:new 0 0 45.9 76;" xml:space="preserve">
<style type="text/css">
	.st0{fill:#1D384D;}
	.st1{fill:#F68F6F;}
	.st2{fill:#71CDE1;}
</style>
<g>
	<path class="st0" d="M40.1,76H5.7C2.6,76,0,73.4,0,70.3V5.7C0,2.6,2.6,0,5.7,0h34.4c3.2,0,5.7,2.6,5.7,5.7v64.5
		C45.9,73.4,43.3,76,40.1,76z M5.7,1C3.1,1,1,3.1,1,5.7v64.5C1,72.9,3.1,75,5.7,75h34.4c2.6,0,4.8-2.1,4.8-4.8V5.7
		c0-2.6-2.1-4.8-4.8-4.8H5.7z M26,73.5h-5.5c-2.2,0-3.9-1.8-3.9-3.9c0-2.2,1.8-3.9,3.9-3.9H26c2.2,0,3.9,1.8,3.9,3.9
		C29.9,71.8,28.2,73.5,26,73.5z M20.5,66.6c-1.6,0-3,1.3-3,3c0,1.6,1.3,3,3,3H26c1.6,0,3-1.3,3-3c0-1.6-1.3-3-3-3H20.5z M40.8,63.7
		H5.1V7.6h35.7V63.7z M6.1,62.7h33.7V8.6H6.1V62.7z M27.1,5.8h-7.7V2.9h7.7V5.8z M20.4,4.8h5.7v-1h-5.7V4.8z"/>
</g>
<path class="st1" d="M20.5,70.9c-0.7,0-1.3-0.6-1.3-1.3c0-0.7,0.6-1.3,1.3-1.3H26c0.7,0,1.3,0.6,1.3,1.3c0,0.7-0.6,1.3-1.3,1.3H20.5
	z"/>
<path class="st2" d="M30.1,73.4c0.9-1,1.5-2.4,1.5-3.8c0-1.7-0.7-3.2-1.9-4.2h12.8v-6.2h0V11.6l0-1.5V6H28.7V2.6h11.4
	c1.7,0,3.1,1.4,3.1,3.1v64.5c0,1.7-1.4,3.1-3.1,3.1H30.1z M5.7,73.4c-1.7,0-3.1-1.4-3.1-3.1V5.7C2.6,4,4,2.6,5.7,2.6h12V6H3.5v59.3
	h13.4c-1.2,1-1.9,2.6-1.9,4.2c0,1.4,0.5,2.8,1.5,3.8H5.7z"/>
</svg>
