<?xml version="1.0" encoding="utf-8"?>
<!-- Generator: Adobe Illustrator 23.0.3, SVG Export Plug-In . SVG Version: 6.00 Build 0)  -->
<svg version="1.1" id="Layer_1" xmlns="http://www.w3.org/2000/svg" xmlns:xlink="http://www.w3.org/1999/xlink" x="0px" y="0px"
	 viewBox="0 0 72.8 76" style="enable-background:new 0 0 72.8 76;" xml:space="preserve">
<style type="text/css">
	.st0{fill:#4A555F;}
	.st1{fill:#71CCE0;}
	.st2{fill:#FFFFFF;}
	.st3{fill:#F58E6F;}
</style>
<g>
	<g>
		<g>
			<g>
				<path class="st0" d="M68.3,58.9H4.5c-2.5,0-4.5-2-4.5-4.5V15.4c0-2.5,2-4.5,4.5-4.5h63.8c2.5,0,4.5,2,4.5,4.5v39.1
					C72.8,56.9,70.8,58.9,68.3,58.9z M4.5,11.8c-2,0-3.6,1.6-3.6,3.6v39.1c0,2,1.6,3.6,3.6,3.6h63.8c2,0,3.6-1.6,3.6-3.6V15.4
					c0-2-1.6-3.6-3.6-3.6H4.5z"/>
			</g>
		</g>
		<g>
			<g>
				<path class="st0" d="M67.8,53.3H5.7V16.4h62.1V53.3z M6.6,52.3h60.3v-35H6.6V52.3z"/>
			</g>
		</g>
		<g>
			<g>
				<path class="st0" d="M59.8,76H13v-4.3h10.8L27,58h18.9L49,71.7h10.8V76z M13.9,75.1h44.9v-2.5H48.3l-3.2-13.7H27.7l-3.2,13.7
					H13.9V75.1z"/>
			</g>
		</g>
		<g>
			<g>
				<polygon class="st1" points="45.2,68.6 43.6,60.9 29.2,60.9 27.6,68.6 				"/>
			</g>
		</g>
		<g>
			<g>
				<rect x="15.4" y="0.5" class="st2" width="41.9" height="52.3"/>
			</g>
		</g>
		<g>
			<g>
				<path class="st0" d="M57.8,53.3H15V0h42.8V53.3z M15.9,52.3h41V0.9h-41V52.3z"/>
			</g>
		</g>
		<g>
			<g>
				<path class="st0" d="M51.3,47.8H21V4.7h30.4V47.8z M21.9,46.9h28.5V5.6H21.9V46.9z"/>
			</g>
		</g>
		<g>
			<g>
				<rect x="59.3" y="18.7" class="st3" width="6.1" height="32.3"/>
			</g>
		</g>
		<g>
			<g>
				<rect x="7.7" y="18.7" class="st3" width="6.1" height="32.3"/>
			</g>
		</g>
	</g>
	<g>
		<path class="st0" d="M36.3,11.3c5.4,0,9.8,4.4,9.8,9.8c0,3.8-4.8,12.4-8.9,18.5l-1,1.5l-1-1.5c-4.1-6.2-8.9-14.8-8.9-18.5
			C26.5,15.7,30.9,11.3,36.3,11.3 M36.3,23.5c1.4,0,2.5-1.1,2.5-2.5s-1.1-2.5-2.5-2.5c-1.4,0-2.5,1.1-2.5,2.5S34.9,23.5,36.3,23.5
			 M36.3,10.3c-6,0-10.8,4.9-10.8,10.8c0,5.2,7.5,16.8,9,19.1l1.8,2.7l1.8-2.7c1.5-2.3,9-13.9,9-19.1C47.1,15.1,42.3,10.3,36.3,10.3
			L36.3,10.3z M36.3,22.5c-0.8,0-1.5-0.7-1.5-1.5c0-0.8,0.7-1.5,1.5-1.5c0.8,0,1.5,0.7,1.5,1.5C37.8,21.8,37.1,22.5,36.3,22.5
			L36.3,22.5z"/>
	</g>
	<path class="st1" d="M36.3,12.4c-4.8,0-8.7,3.9-8.7,8.7S36.3,39,36.3,39S45,25.9,45,21.1S41.1,12.4,36.3,12.4z M36.3,24.7
		c-2,0-3.7-1.7-3.7-3.7s1.7-3.7,3.7-3.7S40,19,40,21S38.3,24.7,36.3,24.7z"/>
</g>
</svg>
