<?xml version="1.0" encoding="utf-8"?>
<!-- Generator: Adobe Illustrator 23.0.3, SVG Export Plug-In . SVG Version: 6.00 Build 0)  -->
<svg version="1.1" id="Layer_1" xmlns="http://www.w3.org/2000/svg" xmlns:xlink="http://www.w3.org/1999/xlink" x="0px" y="0px"
	 viewBox="0 0 69.3 75" style="enable-background:new 0 0 69.3 75;" xml:space="preserve">
<style type="text/css">
	.st0{fill:#F68F6F;}
	.st1{fill:#71CDE1;}
	.st2{fill:#1D384D;}
</style>
<g>
	<polygon class="st0" points="3.4,42.7 17.2,56 3.4,68.3 	"/>
	<polygon class="st1" points="7.9,71.8 34.6,48 61.3,71.8 	"/>
	<polygon class="st0" points="52.1,56 65.8,42.7 65.8,68.3 	"/>
	<path class="st2" d="M0.2,75l0-0.8v-38L0,36l7.9-6.7V0l52.9,0l0,29l8.4,7.1l-0.1,0.1L69,36.4l0,0.1V75l0,0H0.2z M34.6,45.2
		c-0.3,0-0.5,0.1-0.7,0.3L3.8,72.3c-0.3,0.3-0.4,0.7-0.3,1.1c0.2,0.4,0.5,0.7,1,0.7h60.2c0.4,0,0.8-0.3,1-0.7c0.2-0.4,0-0.8-0.3-1.1
		L35.3,45.5C35.1,45.3,34.9,45.2,34.6,45.2z M67.1,38.5c-0.3,0-0.5,0.1-0.7,0.3L48.6,56.1l0.4,0.4L66.5,72c0.2,0.2,0.4,0.3,0.7,0.3
		c0.6,0,1-0.5,1-1V39.6C68.2,39,67.7,38.5,67.1,38.5z M2.1,38.5c-0.6,0-1,0.5-1,1v31.7c0,0.6,0.5,1,1,1c0.3,0,0.5-0.1,0.7-0.3
		l17.7-15.8l-0.3-0.4L2.8,38.8C2.6,38.7,2.4,38.5,2.1,38.5z M47.3,54.9c0.2,0.2,0.4,0.3,0.7,0.3c0.3,0,0.5-0.1,0.7-0.3l11.3-11v-42
		c0-0.6-0.5-1-1-1h-49c-0.6,0-1,0.5-1,1v41.5l11.8,11.4c0.2,0.2,0.4,0.3,0.7,0.3c0.3,0,0.5-0.1,0.7-0.3l7.5-6.7h-9.9l0-0.9l10.9,0
		l3.7-3.3l0.9,0l3.7,3.3h10.9l0,0.9l-8.6,0h-1.3L47.3,54.9z M60.8,43l7.1-6.9l-7.1-6V43z M1.3,36.1l6.6,6.4V30.5L1.3,36.1z
		 M19.6,40.2l0-0.9l30.1,0l0,0.9l0,0H19.6z M19.6,31.7l0-0.9l30.1,0l0,0.9l0,0H19.6z"/>
	<path class="st2" d="M22.6,17.6h-5.4c0-2.4,0-4.8,0-7.2h5.4v1.3h-4v1.7h3.9v1.3h-3.9v1.6h4V17.6z"/>
	<path class="st2" d="M30.9,12.4l-2.3,3.1h-0.3L26,12.4v5.2h-1.4v-7.2h1.6l2.3,3.1l2.3-3.1h1.6v7.2h-1.4V12.4z"/>
	<path class="st2" d="M39.7,16.3H36l-0.6,1.4h-1.5l3.2-7.2h1.5l3.2,7.2h-1.5L39.7,16.3z M37.8,11.9L36.5,15h2.7L37.8,11.9z"/>
	<path class="st2" d="M43.4,17.6v-7.2h1.3v7.2H43.4z"/>
	<path class="st2" d="M48.4,10.4v6h3.7v1.3H47v-7.2H48.4z"/>
</g>
</svg>
