<?xml version="1.0" encoding="utf-8"?>
<!-- Generator: Adobe Illustrator 23.0.3, SVG Export Plug-In . SVG Version: 6.00 Build 0)  -->
<svg version="1.1" id="Layer_1" xmlns="http://www.w3.org/2000/svg" xmlns:xlink="http://www.w3.org/1999/xlink" x="0px" y="0px"
	 viewBox="0 0 30 30" style="enable-background:new 0 0 30 30;" xml:space="preserve">
<style type="text/css">
	.st0{fill:#354254;}
	.st1{fill:#FFFFFF;}
	.st2{fill:#71CDE1;}
	.st3{fill:#F68F6F;}
</style>
<g>
	<g>
		<path class="st0" d="M27.1,23.6H2.9c-0.2,0-0.3-0.1-0.3-0.3S2.7,23,2.9,23h24.2c0.2,0,0.3,0.1,0.3,0.3S27.3,23.6,27.1,23.6z"/>
	</g>
	<g>
		<path class="st0" d="M24.5,26.5h-19c-0.2,0-0.3-0.1-0.3-0.3s0.1-0.3,0.3-0.3h19c0.2,0,0.3,0.1,0.3,0.3S24.7,26.5,24.5,26.5z"/>
	</g>
	<g>
		<path class="st1" d="M16.2,16.5c0.3-0.3,0.6-0.7,0.7-1.1l2.6-7.9c0,0,0-0.1-0.1,0l-5.8,6.2c-0.3,0.3-0.6,0.9-0.6,1.4
			c0,1.1,0.9,1.9,1.9,1.9C15.5,17,15.9,16.8,16.2,16.5z"/>
		<path class="st0" d="M15,17.3c-1.2,0-2.2-1-2.2-2.2c0-0.6,0.3-1.2,0.7-1.6l5.8-6.2c0.1-0.1,0.3-0.1,0.4-0.1
			c0.1,0.1,0.2,0.3,0.1,0.4l-2.6,7.8c-0.2,0.5-0.4,0.9-0.8,1.2l0,0C16,17.1,15.5,17.3,15,17.3z M18.9,8.6l-5,5.3
			c-0.2,0.3-0.5,0.8-0.5,1.2c0,0.9,0.7,1.6,1.6,1.6c0.4,0,0.7-0.1,1-0.4l0,0c0.3-0.3,0.5-0.6,0.6-1L18.9,8.6z M16.2,16.5L16.2,16.5
			L16.2,16.5z M19.7,7.7L19.7,7.7C19.7,7.7,19.7,7.7,19.7,7.7z"/>
	</g>
	<g>
		<path class="st2" d="M15,16c-0.5,0-0.9-0.4-0.9-0.9c0-0.1,0.1-0.5,0.3-0.7l2.7-2.8L15.9,15c-0.1,0.3-0.2,0.5-0.4,0.7
			C15.3,15.9,15.2,16,15,16L15,16z"/>
	</g>
	<g>
		<g>
			<path class="st0" d="M5.5,20.4c0.1,0.1,0.1,0.2,0.1,0.4c0,0.2-0.1,0.4-0.3,0.5c-0.2,0.1-0.4,0.2-0.7,0.2H4v-2.3h0.6
				c0.6,0,1,0.2,1,0.6c0,0.1,0,0.2-0.1,0.3c-0.1,0.1-0.2,0.1-0.3,0.2C5.3,20.2,5.4,20.3,5.5,20.4z M4.4,19.4V20h0.3
				C4.8,20,4.9,20,5,20c0.1-0.1,0.1-0.1,0.1-0.2c0-0.1,0-0.2-0.1-0.2c-0.1,0-0.2-0.1-0.4-0.1H4.4z M5.1,21c0.1,0,0.1-0.1,0.1-0.3
				c0-0.1,0-0.2-0.1-0.3c-0.1-0.1-0.2-0.1-0.3-0.1H4.4v0.7h0.3C4.9,21.1,5,21.1,5.1,21z"/>
		</g>
		<g>
			<path class="st0" d="M7.8,21.4l-0.1-0.5H6.9l-0.1,0.5H6.3L7,19.1h0.6l0.7,2.3H7.8z M7,20.5h0.6l-0.3-1.1L7,20.5z"/>
		</g>
		<g>
			<path class="st0" d="M10.8,21.4h-0.6l-0.8-1.9c0,0.2,0,0.3,0,0.5c0,0.1,0,0.3,0,0.5v1H9v-2.3h0.6l0.8,1.9c0-0.1,0-0.2,0-0.4
				s0-0.3,0-0.4v-1.1h0.4V21.4z"/>
		</g>
		<g>
			<path class="st0" d="M13.3,19.3c0.2,0.2,0.3,0.5,0.3,0.9c0,0.4-0.1,0.7-0.3,0.9s-0.5,0.3-0.8,0.3h-0.6v-2.3h0.6
				C12.8,19.1,13.1,19.2,13.3,19.3z M12.3,19.4v1.7h0.2c0.2,0,0.4-0.1,0.5-0.2c0.1-0.1,0.2-0.3,0.2-0.7c0-0.2,0-0.4-0.1-0.5
				c-0.1-0.1-0.1-0.2-0.2-0.2c-0.1,0-0.2-0.1-0.3-0.1H12.3z"/>
		</g>
		<g>
			<path class="st0" d="M17,19.1l-0.4,2.3H16l-0.4-1.9l-0.4,1.9h-0.6l-0.4-2.3h0.4l0.3,2l0.4-2h0.5l0.4,2l0.3-2H17z"/>
		</g>
		<g>
			<path class="st0" d="M18.3,19.1v2.3h-0.4v-2.3H18.3z"/>
		</g>
		<g>
			<path class="st0" d="M20.8,19.3c0.2,0.2,0.3,0.5,0.3,0.9c0,0.4-0.1,0.7-0.3,0.9c-0.2,0.2-0.5,0.3-0.8,0.3h-0.6v-2.3H20
				C20.3,19.1,20.6,19.2,20.8,19.3z M19.8,19.4v1.7h0.2c0.2,0,0.4-0.1,0.5-0.2c0.1-0.1,0.2-0.3,0.2-0.7c0-0.2,0-0.4-0.1-0.5
				c-0.1-0.1-0.1-0.2-0.2-0.2c-0.1,0-0.2-0.1-0.3-0.1H19.8z"/>
		</g>
		<g>
			<path class="st0" d="M23.5,19.1l0,0.4h-0.6v2h-0.4v-2h-0.6v-0.4H23.5z"/>
		</g>
		<g>
			<path class="st0" d="M25.6,21.4v-1h-0.8v1h-0.4v-2.3h0.4V20h0.8v-0.9H26v2.3H25.6z"/>
		</g>
	</g>
	<g>
		<path class="st0" d="M15,16.1c-0.6,0-1.1-0.5-1.1-1.1c0-0.6,0.5-1.1,1.1-1.1s1.1,0.5,1.1,1.1C16.1,15.6,15.6,16.1,15,16.1z
			 M15,14.5c-0.3,0-0.5,0.2-0.5,0.5c0,0.3,0.2,0.5,0.5,0.5c0.3,0,0.5-0.2,0.5-0.5C15.5,14.7,15.3,14.5,15,14.5z"/>
	</g>
	<g>
		<path class="st0" d="M15,4.4c-0.2,0-0.3-0.1-0.3-0.3V2.4c0-0.2,0.1-0.3,0.3-0.3s0.3,0.1,0.3,0.3v1.7C15.3,4.3,15.2,4.4,15,4.4z"/>
	</g>
	<g>
		<path class="st0" d="M12.2,4.8c-0.1,0-0.3-0.1-0.3-0.2L11.4,3c0-0.2,0.1-0.3,0.2-0.4c0.2,0,0.3,0.1,0.4,0.2l0.4,1.6
			C12.5,4.6,12.4,4.7,12.2,4.8C12.2,4.8,12.2,4.8,12.2,4.8z"/>
	</g>
	<g>
		<path class="st0" d="M9.5,5.9c-0.1,0-0.2-0.1-0.3-0.2L8.4,4.3C8.3,4.1,8.4,4,8.5,3.9C8.7,3.8,8.9,3.8,9,4l0.8,1.4
			c0.1,0.1,0,0.3-0.1,0.4C9.6,5.9,9.6,5.9,9.5,5.9z"/>
	</g>
	<g>
		<path class="st0" d="M7.3,7.6c-0.1,0-0.2,0-0.2-0.1L5.9,6.4C5.7,6.2,5.7,6,5.9,5.9c0.1-0.1,0.3-0.1,0.4,0l1.2,1.2
			c0.1,0.1,0.1,0.3,0,0.4C7.4,7.6,7.3,7.6,7.3,7.6z"/>
	</g>
	<g>
		<path class="st0" d="M5.5,9.9c-0.1,0-0.1,0-0.2,0L3.9,9C3.8,8.9,3.7,8.8,3.8,8.6c0.1-0.1,0.3-0.2,0.4-0.1l1.4,0.8
			c0.1,0.1,0.2,0.3,0.1,0.4C5.7,9.8,5.6,9.9,5.5,9.9z"/>
	</g>
	<g>
		<path class="st0" d="M4.4,12.5C4.4,12.5,4.4,12.5,4.4,12.5l-1.7-0.4c-0.2,0-0.3-0.2-0.2-0.4c0-0.2,0.2-0.3,0.4-0.2l1.6,0.4
			c0.2,0,0.3,0.2,0.2,0.4C4.7,12.5,4.6,12.5,4.4,12.5z"/>
	</g>
	<g>
		<path class="st0" d="M4,15.4H2.4c-0.2,0-0.3-0.1-0.3-0.3s0.1-0.3,0.3-0.3H4c0.2,0,0.3,0.1,0.3,0.3S4.2,15.4,4,15.4z"/>
	</g>
	<g>
		<path class="st0" d="M27.6,15.4H26c-0.2,0-0.3-0.1-0.3-0.3s0.1-0.3,0.3-0.3h1.7c0.2,0,0.3,0.1,0.3,0.3S27.8,15.4,27.6,15.4z"/>
	</g>
	<g>
		<path class="st0" d="M25.6,12.5c-0.1,0-0.3-0.1-0.3-0.2c0-0.2,0.1-0.3,0.2-0.4l1.6-0.4c0.2,0,0.3,0.1,0.4,0.2
			c0,0.2-0.1,0.3-0.2,0.4L25.6,12.5C25.6,12.5,25.6,12.5,25.6,12.5z"/>
	</g>
	<g>
		<path class="st0" d="M24.5,9.9c-0.1,0-0.2-0.1-0.3-0.2c-0.1-0.1,0-0.3,0.1-0.4l1.4-0.8c0.1-0.1,0.3,0,0.4,0.1
			c0.1,0.1,0,0.3-0.1,0.4l-1.4,0.8C24.6,9.9,24.5,9.9,24.5,9.9z"/>
	</g>
	<g>
		<path class="st0" d="M22.7,7.6c-0.1,0-0.2,0-0.2-0.1c-0.1-0.1-0.1-0.3,0-0.4l1.2-1.2c0.1-0.1,0.3-0.1,0.4,0c0.1,0.1,0.1,0.3,0,0.4
			L23,7.5C22.9,7.6,22.8,7.6,22.7,7.6z"/>
	</g>
	<g>
		<path class="st0" d="M20.5,5.9c-0.1,0-0.1,0-0.2,0c-0.1-0.1-0.2-0.3-0.1-0.4L21,4c0.1-0.1,0.3-0.2,0.4-0.1
			c0.1,0.1,0.2,0.3,0.1,0.4l-0.8,1.4C20.7,5.8,20.6,5.9,20.5,5.9z"/>
	</g>
	<g>
		<path class="st0" d="M17.8,4.8C17.8,4.8,17.8,4.8,17.8,4.8c-0.2-0.1-0.3-0.2-0.3-0.4L18,2.8c0-0.2,0.2-0.3,0.4-0.2
			c0.2,0,0.3,0.2,0.2,0.4l-0.4,1.6C18.1,4.7,18,4.8,17.8,4.8z"/>
	</g>
	<g>
		<path class="st0" d="M15,30C6.7,30,0,23.3,0,15S6.7,0,15,0s15,6.7,15,15S23.3,30,15,30z M15,0.6C7.1,0.6,0.6,7.1,0.6,15
			S7.1,29.4,15,29.4S29.4,22.9,29.4,15S22.9,0.6,15,0.6z"/>
	</g>
	<g>
		<path class="st2" d="M15,28.5c1.9,0,3.7-0.4,5.5-1.2H9.5C11.3,28.1,13.1,28.5,15,28.5z"/>
	</g>
	<g>
		<path class="st3" d="M5.4,24.5c0.2,0.2,0.4,0.4,0.5,0.5h18.1c0.2-0.2,0.4-0.3,0.5-0.5H5.4z"/>
	</g>
</g>
</svg>
