<?xml version="1.0" encoding="utf-8"?>
<!-- Generator: Adobe Illustrator 23.0.3, SVG Export Plug-In . SVG Version: 6.00 Build 0)  -->
<svg version="1.1" id="Layer_1" xmlns="http://www.w3.org/2000/svg" xmlns:xlink="http://www.w3.org/1999/xlink" x="0px" y="0px"
	 viewBox="0 0 30 30" style="enable-background:new 0 0 30 30;" xml:space="preserve">
<style type="text/css">
	.st0{fill:#4A555F;}
	.st1{fill:#F58E6F;}
	.st2{fill:#71CCE0;}
</style>
<g>
	<g>
		<g>
			<g>
				<path class="st0" d="M26.7,30H3.4V6.5H12V10h5.8V8h4.9v4.9h2.4v1.8h1.6C26.7,14.7,26.7,30,26.7,30z M4.2,29.2H26V15.4h-1.7v-1.8
					h-2.4V8.7h-3.3v2h-7.4V7.3h-7C4.2,7.3,4.2,29.2,4.2,29.2z"/>
			</g>
		</g>
	</g>
	<g>
		<g>
			<g>
				<g>
					<rect x="7" y="10.4" class="st0" width="2.8" height="0.8"/>
				</g>
			</g>
		</g>
	</g>
	<g>
		<g>
			<g>
				<g>
					<rect x="7" y="12.4" class="st0" width="13" height="0.8"/>
				</g>
			</g>
		</g>
	</g>
	<g>
		<g>
			<g>
				<g>
					<rect x="7" y="14.4" class="st0" width="14.9" height="0.8"/>
				</g>
			</g>
		</g>
	</g>
	<g>
		<g>
			<g>
				<g>
					<path class="st0" d="M6.9,5.6H3.3V2.2h3.6V5.6z M3.8,5.2h2.6V2.7H3.8V5.2z"/>
				</g>
			</g>
		</g>
	</g>
	<g>
		<g>
			<g>
				<g>
					<rect x="4.3" y="3.3" class="st1" width="1.5" height="1.3"/>
				</g>
			</g>
		</g>
	</g>
	<g>
		<g>
			<g>
				<g>
					<g>
						<path class="st0" d="M26.7,12.4h-3.5V8.9h3.5V12.4z M23.7,11.9h2.5V9.4h-2.5V11.9z"/>
					</g>
				</g>
			</g>
		</g>
		<g>
			<g>
				<g>
					<g>
						<rect x="24.3" y="10" class="st1" width="1.3" height="1.3"/>
					</g>
				</g>
			</g>
		</g>
	</g>
	<g>
		<g>
			<g>
				<g>
					<path class="st0" d="M20,7.1h-6.9V0H20V7.1z M13.7,6.5h5.7V0.6h-5.7C13.7,0.6,13.7,6.5,13.7,6.5z"/>
				</g>
			</g>
		</g>
	</g>
	<g>
		<g>
			<g>
				<g>
					<rect x="14.4" y="1.3" class="st2" width="4.3" height="4.5"/>
				</g>
			</g>
		</g>
	</g>
	<g>
		<g>
			<g>
				<g>
					<path class="st0" d="M11.6,5.9H8V2.2h3.6C11.6,2.2,11.6,5.9,11.6,5.9z M8.4,5.4H11V2.7H8.4V5.4z"/>
				</g>
			</g>
		</g>
	</g>
	<g>
		<g>
			<g>
				<g>
					<rect x="9" y="3.3" class="st1" width="1.5" height="1.5"/>
				</g>
			</g>
		</g>
	</g>
	<g>
		<g>
			<path class="st1" d="M17.9,25.2c-0.2,0.3-0.5,0.6-0.9,0.8c-0.4,0.2-0.9,0.3-1.5,0.3v1.4h-0.4v-1.4c-0.6,0-1.1-0.1-1.6-0.3
				c-0.5-0.2-0.9-0.5-1.2-0.8l0.3-0.5c0.3,0.3,0.6,0.5,1.1,0.7s0.9,0.3,1.5,0.3v-3.4c-0.5-0.1-1-0.3-1.4-0.4
				c-0.4-0.2-0.7-0.4-0.9-0.7c-0.2-0.3-0.4-0.7-0.4-1.2c0-0.6,0.2-1.1,0.7-1.5c0.4-0.4,1.1-0.6,1.9-0.7v-1.4h0.4v1.4
				c0.5,0,0.9,0.1,1.3,0.2c0.4,0.1,0.8,0.3,1.1,0.5L17.7,19c-0.3-0.2-0.7-0.4-1.1-0.5c-0.4-0.1-0.8-0.2-1.1-0.2v3.4
				c0.6,0.2,1.1,0.3,1.5,0.4s0.7,0.4,0.9,0.6c0.3,0.3,0.4,0.7,0.4,1.2C18.2,24.5,18.1,24.9,17.9,25.2z M13.5,21.2
				c0.3,0.2,0.8,0.4,1.5,0.6v-3.3c-0.7,0-1.2,0.2-1.5,0.5S13,19.7,13,20.1C13,20.6,13.1,20.9,13.5,21.2z M17,25.3
				c0.4-0.3,0.5-0.7,0.5-1.1c0-0.3-0.1-0.6-0.3-0.9c-0.2-0.2-0.4-0.4-0.7-0.5s-0.7-0.2-1.1-0.4v3.3C16.1,25.8,16.6,25.6,17,25.3z"/>
			<path class="st1" d="M15.7,28h-1v-1.4c-0.5,0-1-0.2-1.5-0.3c-0.5-0.2-1-0.5-1.3-0.9l-0.1-0.2l0.6-0.9l0.2,0.3
				c0.3,0.3,0.6,0.5,1,0.7c0.3,0.1,0.7,0.2,1.1,0.3v-2.9c-0.5-0.1-0.9-0.3-1.2-0.4c-0.4-0.2-0.7-0.4-1-0.7c-0.3-0.3-0.4-0.8-0.4-1.3
				c0-0.7,0.3-1.2,0.7-1.7c0.4-0.4,1.1-0.7,1.9-0.7v-1.4h1v1.4c0.4,0,0.8,0.1,1.1,0.2c0.4,0.1,0.8,0.3,1.2,0.6l0.2,0.1l-0.5,1
				l-0.3-0.2c-0.3-0.2-0.6-0.4-1-0.5c-0.3-0.1-0.5-0.1-0.8-0.2v2.9c0.5,0.1,0.9,0.3,1.3,0.4c0.4,0.2,0.8,0.4,1,0.7
				c0.3,0.3,0.4,0.8,0.4,1.4c0,0.4-0.1,0.8-0.3,1.2l0,0c-0.2,0.4-0.6,0.7-1,0.9c-0.4,0.2-0.8,0.3-1.4,0.4V28H15.7z M15.1,22.1
				l0.3,0.1c0.5,0.1,0.9,0.2,1.2,0.4c0.3,0.1,0.6,0.3,0.8,0.6c0.2,0.3,0.4,0.6,0.4,1c0,0.5-0.2,1-0.6,1.3l0,0
				c0.2-0.1,0.3-0.3,0.4-0.5l0,0c0.2-0.3,0.3-0.6,0.3-0.9c0-0.4-0.1-0.7-0.3-1c-0.2-0.3-0.5-0.4-0.8-0.6c-0.4-0.1-0.8-0.3-1.4-0.4
				h-0.1l0,0L14.9,22c-0.7-0.2-1.2-0.4-1.6-0.6l0,0c-0.4-0.3-0.6-0.7-0.6-1.3c0-0.5,0.2-1,0.6-1.3c0.2-0.2,0.5-0.3,0.8-0.4
				c-0.3,0.1-0.6,0.3-0.8,0.5c-0.4,0.4-0.6,0.8-0.6,1.3c0,0.4,0.1,0.7,0.3,1s0.5,0.5,0.8,0.6C14.1,21.8,14.5,21.9,15.1,22.1
				L15.1,22.1L15.1,22.1z M15.7,22.8v2.7c0.5-0.1,0.9-0.2,1.2-0.4c0.3-0.2,0.4-0.5,0.4-0.9c0-0.3-0.1-0.5-0.2-0.7
				c-0.2-0.2-0.4-0.3-0.6-0.4C16.2,23,16,22.9,15.7,22.8z M13.6,20.9c0.3,0.2,0.6,0.3,1.1,0.5v-2.7c-0.4,0.1-0.8,0.2-1,0.4
				c-0.3,0.3-0.4,0.6-0.4,0.9C13.2,20.5,13.4,20.7,13.6,20.9L13.6,20.9z"/>
		</g>
	</g>
	<g>
		<g>
			<path class="st0" d="M10.9,24.2c-0.1,0.2-0.3,0.4-0.6,0.5s-0.6,0.2-1,0.2v0.9H8.9V25c-0.4,0-0.7-0.1-1.1-0.2
				c-0.3-0.1-0.6-0.3-0.8-0.5L7.2,24c0.2,0.2,0.4,0.4,0.7,0.5c0.3,0.1,0.6,0.2,1,0.2v-2.3C8.6,22.2,8.3,22.1,8,22
				c-0.2-0.1-0.4-0.2-0.6-0.4c-0.2-0.2-0.2-0.5-0.2-0.8c0-0.4,0.1-0.7,0.4-1c0.3-0.3,0.7-0.4,1.3-0.5v-0.9h0.3v0.9
				c0.3,0,0.6,0.1,0.9,0.1c0.3,0.1,0.5,0.2,0.7,0.4l-0.2,0.3c-0.2-0.1-0.5-0.3-0.7-0.3c-0.3-0.1-0.5-0.1-0.8-0.1V22
				c0.4,0.1,0.7,0.2,1,0.3c0.2,0.1,0.4,0.2,0.6,0.4c0.2,0.2,0.3,0.5,0.3,0.8C11.1,23.8,11,24,10.9,24.2z M7.9,21.5
				c0.2,0.2,0.6,0.3,1,0.4v-2.2c-0.4,0-0.8,0.1-1,0.4c-0.2,0.2-0.3,0.5-0.3,0.7C7.6,21.1,7.7,21.4,7.9,21.5z M10.3,24.3
				c0.2-0.2,0.4-0.5,0.4-0.8c0-0.2-0.1-0.4-0.2-0.6c-0.1-0.1-0.3-0.3-0.5-0.3c-0.2-0.1-0.4-0.2-0.8-0.2v2.2
				C9.7,24.6,10.1,24.5,10.3,24.3z"/>
			<path class="st0" d="M9.4,26.1H8.7v-0.9c-0.3,0-0.7-0.1-1-0.2c-0.4-0.1-0.7-0.3-0.9-0.6l-0.1-0.1l0.4-0.6l0.2,0.2
				c0.2,0.2,0.4,0.3,0.7,0.4c0.2,0.1,0.5,0.2,0.7,0.2v-2c-0.3-0.1-0.6-0.2-0.8-0.3c-0.3-0.1-0.5-0.3-0.7-0.5
				c-0.2-0.2-0.3-0.5-0.3-0.9s0.2-0.8,0.5-1.1c0.3-0.3,0.7-0.4,1.2-0.5v-0.9h0.7v0.9c0.3,0,0.5,0.1,0.7,0.1c0.3,0.1,0.6,0.2,0.8,0.4
				l0.1,0.1l-0.3,0.7l-0.2-0.1c-0.2-0.1-0.4-0.2-0.7-0.3C9.5,20,9.4,20,9.2,20v2c0.5,0,0.8,0,1.1,0.1s0.5,0.3,0.7,0.5
				s0.3,0.5,0.3,0.9c0,0.3-0.1,0.6-0.2,0.8l0,0c-0.2,0.2-0.4,0.4-0.7,0.6c-0.3,0.1-0.6,0.2-0.9,0.2v1H9.4z M9,22.2h0.3
				c0.3,0.1,0.6,0.2,0.8,0.2c0.2,0.1,0.4,0.2,0.6,0.4c0.2,0.2,0.2,0.4,0.2,0.7c0,0.4-0.1,0.7-0.4,0.9l0,0c0.1-0.1,0.2-0.2,0.3-0.3
				l0,0c0.1-0.2,0.2-0.4,0.2-0.6c0-0.3-0.1-0.5-0.2-0.7s-0.3-0.3-0.5-0.4s-0.6-0.2-0.9-0.3L9,22.2L9,22.2H8.8
				c-0.5-0.1-0.8-0.3-1-0.4l0,0c-0.3-0.2-0.4-0.5-0.4-0.9c0-0.3,0.1-0.6,0.4-0.9c0.1-0.1,0.3-0.2,0.5-0.3c-0.2,0.1-0.4,0.2-0.6,0.3
				c-0.3,0.2-0.4,0.5-0.4,0.9c0,0.3,0.1,0.5,0.2,0.7S7.8,21.9,8,22C8.3,22,8.6,22.1,9,22.2L9,22.2L9,22.2z M9.4,22.6v1.8
				c0.3,0,0.6-0.1,0.8-0.3c0.2-0.2,0.3-0.4,0.3-0.6s0-0.3-0.1-0.4s-0.2-0.2-0.4-0.3C9.8,22.7,9.6,22.7,9.4,22.6z M8,21.4
				c0.2,0.1,0.4,0.2,0.7,0.3v-1.8c-0.3,0-0.5,0.1-0.7,0.3c-0.2,0.2-0.3,0.4-0.3,0.6C7.8,21.1,7.9,21.3,8,21.4L8,21.4z"/>
		</g>
	</g>
	<g>
		<g>
			<path class="st0" d="M23.3,24.2c-0.1,0.2-0.3,0.4-0.6,0.5s-0.6,0.2-1,0.2v0.9h-0.4V25c-0.4,0-0.7-0.1-1.1-0.2
				c-0.3-0.1-0.6-0.3-0.8-0.5l0.2-0.3c0.2,0.2,0.4,0.4,0.7,0.5c0.3,0.1,0.6,0.2,1,0.2v-2.3c-0.4-0.1-0.7-0.2-0.9-0.3
				c-0.2-0.1-0.4-0.2-0.6-0.4c-0.2-0.2-0.2-0.5-0.2-0.8c0-0.4,0.1-0.7,0.4-1s0.7-0.4,1.3-0.5v-0.9h0.3v0.9c0.3,0,0.6,0.1,0.9,0.1
				c0.3,0.1,0.5,0.2,0.7,0.4L23,20.2c-0.2-0.1-0.5-0.3-0.7-0.3c-0.3-0.1-0.5-0.1-0.8-0.1V22c0.4,0.1,0.7,0.2,1,0.3
				c0.2,0.1,0.4,0.2,0.6,0.4c0.2,0.2,0.3,0.5,0.3,0.8C23.5,23.8,23.4,24,23.3,24.2z M20.4,21.5c0.2,0.2,0.6,0.3,1,0.4v-2.2
				c-0.4,0-0.8,0.1-1,0.4c-0.2,0.2-0.3,0.5-0.3,0.7C20,21.1,20.1,21.4,20.4,21.5z M22.7,24.3c0.2-0.2,0.4-0.5,0.4-0.8
				c0-0.2-0.1-0.4-0.2-0.6c-0.1-0.1-0.3-0.3-0.5-0.3c-0.2-0.1-0.4-0.2-0.8-0.2v2.2C22.1,24.6,22.5,24.5,22.7,24.3z"/>
			<path class="st0" d="M21.8,26.1h-0.7v-0.9c-0.3,0-0.7-0.1-1-0.2c-0.4-0.1-0.7-0.3-0.9-0.6l-0.1-0.1l0.4-0.6l0.2,0.2
				c0.2,0.2,0.4,0.3,0.7,0.4c0.2,0.1,0.5,0.2,0.7,0.2v-2c-0.3-0.1-0.6-0.2-0.8-0.3c-0.3-0.1-0.5-0.3-0.7-0.5s-0.3-0.5-0.3-0.9
				s0.2-0.8,0.5-1.1c0.3-0.3,0.7-0.4,1.2-0.5v-0.9h0.7v0.9c0.3,0,0.5,0.1,0.7,0.1c0.3,0.1,0.6,0.2,0.8,0.4l0.1,0.1L23,20.5l-0.2-0.1
				c-0.2-0.1-0.4-0.2-0.7-0.3C21.9,20,21.8,20,21.6,20v2c0.3,0.1,0.6,0.2,0.8,0.3c0.3,0.1,0.5,0.3,0.7,0.5s0.3,0.5,0.3,0.9
				c0,0.3-0.1,0.6-0.2,0.8l0,0c-0.2,0.2-0.4,0.4-0.7,0.6c-0.3,0.1-0.6,0.2-0.9,0.2v0.8H21.8z M21.5,22.2l0.2,0.1
				c0.3,0.1,0.6,0.2,0.8,0.2c0.2,0.1,0.4,0.2,0.6,0.4c0.2,0.2,0.2,0.4,0.2,0.7c0,0.4-0.1,0.7-0.4,0.9l0,0l0,0
				c0.1-0.1,0.2-0.2,0.3-0.3l0,0c0.1-0.2,0.2-0.4,0.2-0.6c0-0.3-0.1-0.5-0.2-0.7c-0.2-0.2-0.3-0.3-0.5-0.4s-0.6-0.2-0.9-0.3
				L21.5,22.2L21.5,22.2h-0.2c-0.5-0.1-0.8-0.3-1-0.4l0,0c-0.3-0.2-0.4-0.5-0.4-0.9c0-0.3,0.1-0.6,0.4-0.9c0.1-0.1,0.3-0.2,0.5-0.3
				c-0.2,0.1-0.4,0.2-0.6,0.3c-0.3,0.2-0.4,0.5-0.4,0.9c0,0.3,0.1,0.5,0.2,0.7c0.1,0.2,0.3,0.3,0.5,0.4C20.7,22,21,22.1,21.5,22.2
				L21.5,22.2L21.5,22.2z M21.8,22.6v1.8c0.3,0,0.6-0.1,0.8-0.3l0,0c0.2-0.2,0.3-0.4,0.3-0.6s0-0.3-0.1-0.4
				c-0.1-0.1-0.2-0.2-0.4-0.3C22.2,22.7,22,22.7,21.8,22.6z M20.5,21.4c0.2,0.1,0.4,0.2,0.7,0.3v-1.8c-0.3,0-0.5,0.1-0.7,0.3
				c-0.2,0.2-0.3,0.4-0.3,0.6C20.2,21.1,20.3,21.3,20.5,21.4L20.5,21.4z"/>
		</g>
	</g>
</g>
</svg>
