<?xml version="1.0" encoding="utf-8"?>
<!-- Generator: Adobe Illustrator 23.0.3, SVG Export Plug-In . SVG Version: 6.00 Build 0)  -->
<svg version="1.1" id="Layer_1" xmlns="http://www.w3.org/2000/svg" xmlns:xlink="http://www.w3.org/1999/xlink" x="0px" y="0px"
	 viewBox="0 0 30 30" style="enable-background:new 0 0 30 30;" xml:space="preserve">
<style type="text/css">
	.st0{fill:#4A555F;}
	.st1{fill:#FFFFFF;}
	.st2{fill:#71CDE1;}
	.st3{fill:#F68F6F;}
</style>
<g>
	<g>
		<path class="st0" d="M23.2,24.7H6.8c-0.2,0-0.3-0.1-0.3-0.3V20c-0.9-0.1-1.6-0.9-1.6-1.9v-6.3c0-0.9,0.7-1.7,1.6-1.9V5.6
			c0-0.2,0.1-0.3,0.3-0.3h16.3c0.2,0,0.3,0.1,0.3,0.3V10c0.9,0.1,1.6,0.9,1.6,1.9v6.3c0,0.9-0.7,1.7-1.6,1.9v4.3
			C23.5,24.5,23.3,24.7,23.2,24.7z M7.2,24h15.7v-4.3c0-0.2,0.1-0.3,0.3-0.3c0.7,0,1.3-0.6,1.3-1.3v-6.3c0-0.7-0.6-1.3-1.3-1.3
			c-0.2,0-0.3-0.1-0.3-0.3V6H7.2v4.3c0,0.2-0.1,0.3-0.3,0.3c-0.7,0-1.3,0.6-1.3,1.3v6.3c0,0.7,0.6,1.3,1.3,1.3
			c0.2,0,0.3,0.1,0.3,0.3V24z"/>
	</g>
	<g>
		<ellipse class="st1" cx="15" cy="15" rx="6.9" ry="4.6"/>
		<path class="st0" d="M15,19.9c-4,0-7.2-2.2-7.2-4.9s3.2-4.9,7.2-4.9s7.2,2.2,7.2,4.9S19,19.9,15,19.9z M15,10.7
			c-3.6,0-6.6,1.9-6.6,4.3s3,4.3,6.6,4.3s6.6-1.9,6.6-4.3S18.6,10.7,15,10.7z"/>
	</g>
	<g>
		<g>
			<path class="st0" d="M4.7,3.1C4.6,3.1,4.4,3,4.4,2.8V0.3C4.4,0.1,4.6,0,4.7,0C4.9,0,5,0.1,5,0.3v2.5C5,3,4.9,3.1,4.7,3.1z"/>
		</g>
		<g>
			<path class="st0" d="M7,3.1C6.8,3.1,6.7,3,6.7,2.8V0.3C6.7,0.1,6.8,0,7,0c0.2,0,0.3,0.1,0.3,0.3v2.5C7.3,3,7.2,3.1,7,3.1z"/>
		</g>
		<g>
			<path class="st0" d="M9.3,3.1C9.1,3.1,9,3,9,2.8V0.3C9,0.1,9.1,0,9.3,0s0.3,0.1,0.3,0.3v2.5C9.6,3,9.5,3.1,9.3,3.1z"/>
		</g>
		<g>
			<path class="st0" d="M11.6,3.1c-0.2,0-0.3-0.1-0.3-0.3V0.3c0-0.2,0.1-0.3,0.3-0.3c0.2,0,0.3,0.1,0.3,0.3v2.5
				C11.9,3,11.7,3.1,11.6,3.1z"/>
		</g>
		<g>
			<path class="st0" d="M13.9,3.1c-0.2,0-0.3-0.1-0.3-0.3V0.3c0-0.2,0.1-0.3,0.3-0.3c0.2,0,0.3,0.1,0.3,0.3v2.5
				C14.2,3,14,3.1,13.9,3.1z"/>
		</g>
		<g>
			<path class="st0" d="M16.1,3.1c-0.2,0-0.3-0.1-0.3-0.3V0.3C15.8,0.1,16,0,16.1,0c0.2,0,0.3,0.1,0.3,0.3v2.5
				C16.4,3,16.3,3.1,16.1,3.1z"/>
		</g>
		<g>
			<path class="st0" d="M18.4,3.1c-0.2,0-0.3-0.1-0.3-0.3V0.3c0-0.2,0.1-0.3,0.3-0.3c0.2,0,0.3,0.1,0.3,0.3v2.5
				C18.7,3,18.6,3.1,18.4,3.1z"/>
		</g>
		<g>
			<path class="st0" d="M20.7,3.1c-0.2,0-0.3-0.1-0.3-0.3V0.3c0-0.2,0.1-0.3,0.3-0.3S21,0.1,21,0.3v2.5C21,3,20.9,3.1,20.7,3.1z"/>
		</g>
		<g>
			<path class="st0" d="M23,3.1c-0.2,0-0.3-0.1-0.3-0.3V0.3C22.7,0.1,22.8,0,23,0s0.3,0.1,0.3,0.3v2.5C23.3,3,23.2,3.1,23,3.1z"/>
		</g>
		<g>
			<path class="st0" d="M25.3,3.1C25.1,3.1,25,3,25,2.8V0.3C25,0.1,25.1,0,25.3,0c0.2,0,0.3,0.1,0.3,0.3v2.5
				C25.6,3,25.4,3.1,25.3,3.1z"/>
		</g>
	</g>
	<g>
		<g>
			<path class="st0" d="M4.7,30c-0.2,0-0.3-0.1-0.3-0.3v-2.5c0-0.2,0.1-0.3,0.3-0.3C4.9,26.9,5,27,5,27.2v2.5C5,29.9,4.9,30,4.7,30z
				"/>
		</g>
		<g>
			<path class="st0" d="M7,30c-0.2,0-0.3-0.1-0.3-0.3v-2.5c0-0.2,0.1-0.3,0.3-0.3c0.2,0,0.3,0.1,0.3,0.3v2.5C7.3,29.9,7.2,30,7,30z"
				/>
		</g>
		<g>
			<path class="st0" d="M9.3,30C9.1,30,9,29.9,9,29.7v-2.5c0-0.2,0.1-0.3,0.3-0.3s0.3,0.1,0.3,0.3v2.5C9.6,29.9,9.5,30,9.3,30z"/>
		</g>
		<g>
			<path class="st0" d="M11.6,30c-0.2,0-0.3-0.1-0.3-0.3v-2.5c0-0.2,0.1-0.3,0.3-0.3c0.2,0,0.3,0.1,0.3,0.3v2.5
				C11.9,29.9,11.7,30,11.6,30z"/>
		</g>
		<g>
			<path class="st0" d="M13.9,30c-0.2,0-0.3-0.1-0.3-0.3v-2.5c0-0.2,0.1-0.3,0.3-0.3c0.2,0,0.3,0.1,0.3,0.3v2.5
				C14.2,29.9,14,30,13.9,30z"/>
		</g>
		<g>
			<path class="st0" d="M16.1,30c-0.2,0-0.3-0.1-0.3-0.3v-2.5c0-0.2,0.1-0.3,0.3-0.3c0.2,0,0.3,0.1,0.3,0.3v2.5
				C16.4,29.9,16.3,30,16.1,30z"/>
		</g>
		<g>
			<path class="st0" d="M18.4,30c-0.2,0-0.3-0.1-0.3-0.3v-2.5c0-0.2,0.1-0.3,0.3-0.3c0.2,0,0.3,0.1,0.3,0.3v2.5
				C18.7,29.9,18.6,30,18.4,30z"/>
		</g>
		<g>
			<path class="st0" d="M20.7,30c-0.2,0-0.3-0.1-0.3-0.3v-2.5c0-0.2,0.1-0.3,0.3-0.3S21,27,21,27.2v2.5C21,29.9,20.9,30,20.7,30z"/>
		</g>
		<g>
			<path class="st0" d="M23,30c-0.2,0-0.3-0.1-0.3-0.3v-2.5c0-0.2,0.1-0.3,0.3-0.3s0.3,0.1,0.3,0.3v2.5C23.3,29.9,23.2,30,23,30z"/>
		</g>
		<g>
			<path class="st0" d="M25.3,30c-0.2,0-0.3-0.1-0.3-0.3v-2.5c0-0.2,0.1-0.3,0.3-0.3c0.2,0,0.3,0.1,0.3,0.3v2.5
				C25.6,29.9,25.4,30,25.3,30z"/>
		</g>
	</g>
	<g>
		<g>
			<path class="st0" d="M29.7,5h-2.5c-0.2,0-0.3-0.1-0.3-0.3c0-0.2,0.1-0.3,0.3-0.3h2.5c0.2,0,0.3,0.1,0.3,0.3C30,4.9,29.9,5,29.7,5
				z"/>
		</g>
		<g>
			<path class="st0" d="M29.7,7.3h-2.5c-0.2,0-0.3-0.1-0.3-0.3c0-0.2,0.1-0.3,0.3-0.3h2.5C29.9,6.7,30,6.8,30,7
				C30,7.2,29.9,7.3,29.7,7.3z"/>
		</g>
		<g>
			<path class="st0" d="M29.7,9.6h-2.5c-0.2,0-0.3-0.1-0.3-0.3S27,9,27.2,9h2.5C29.9,9,30,9.1,30,9.3S29.9,9.6,29.7,9.6z"/>
		</g>
		<g>
			<path class="st0" d="M29.7,11.9h-2.5c-0.2,0-0.3-0.1-0.3-0.3c0-0.2,0.1-0.3,0.3-0.3h2.5c0.2,0,0.3,0.1,0.3,0.3
				C30,11.7,29.9,11.9,29.7,11.9z"/>
		</g>
		<g>
			<path class="st0" d="M29.7,14.2h-2.5c-0.2,0-0.3-0.1-0.3-0.3c0-0.2,0.1-0.3,0.3-0.3h2.5c0.2,0,0.3,0.1,0.3,0.3
				C30,14,29.9,14.2,29.7,14.2z"/>
		</g>
		<g>
			<path class="st0" d="M29.7,16.4h-2.5c-0.2,0-0.3-0.1-0.3-0.3c0-0.2,0.1-0.3,0.3-0.3h2.5c0.2,0,0.3,0.1,0.3,0.3
				C30,16.3,29.9,16.4,29.7,16.4z"/>
		</g>
		<g>
			<path class="st0" d="M29.7,18.7h-2.5c-0.2,0-0.3-0.1-0.3-0.3c0-0.2,0.1-0.3,0.3-0.3h2.5c0.2,0,0.3,0.1,0.3,0.3
				C30,18.6,29.9,18.7,29.7,18.7z"/>
		</g>
		<g>
			<path class="st0" d="M29.7,21h-2.5c-0.2,0-0.3-0.1-0.3-0.3s0.1-0.3,0.3-0.3h2.5c0.2,0,0.3,0.1,0.3,0.3S29.9,21,29.7,21z"/>
		</g>
		<g>
			<path class="st0" d="M29.7,23.3h-2.5c-0.2,0-0.3-0.1-0.3-0.3s0.1-0.3,0.3-0.3h2.5c0.2,0,0.3,0.1,0.3,0.3S29.9,23.3,29.7,23.3z"/>
		</g>
		<g>
			<path class="st0" d="M29.7,25.6h-2.5c-0.2,0-0.3-0.1-0.3-0.3c0-0.2,0.1-0.3,0.3-0.3h2.5c0.2,0,0.3,0.1,0.3,0.3
				C30,25.4,29.9,25.6,29.7,25.6z"/>
		</g>
	</g>
	<g>
		<g>
			<path class="st0" d="M2.8,5H0.3C0.1,5,0,4.9,0,4.7c0-0.2,0.1-0.3,0.3-0.3h2.5c0.2,0,0.3,0.1,0.3,0.3C3.1,4.9,3,5,2.8,5z"/>
		</g>
		<g>
			<path class="st0" d="M2.8,7.3H0.3C0.1,7.3,0,7.2,0,7c0-0.2,0.1-0.3,0.3-0.3h2.5C3,6.7,3.1,6.8,3.1,7C3.1,7.2,3,7.3,2.8,7.3z"/>
		</g>
		<g>
			<path class="st0" d="M2.8,9.6H0.3C0.1,9.6,0,9.5,0,9.3S0.1,9,0.3,9h2.5C3,9,3.1,9.1,3.1,9.3S3,9.6,2.8,9.6z"/>
		</g>
		<g>
			<path class="st0" d="M2.8,11.9H0.3c-0.2,0-0.3-0.1-0.3-0.3c0-0.2,0.1-0.3,0.3-0.3h2.5c0.2,0,0.3,0.1,0.3,0.3
				C3.1,11.7,3,11.9,2.8,11.9z"/>
		</g>
		<g>
			<path class="st0" d="M2.8,14.2H0.3C0.1,14.2,0,14,0,13.9c0-0.2,0.1-0.3,0.3-0.3h2.5c0.2,0,0.3,0.1,0.3,0.3
				C3.1,14,3,14.2,2.8,14.2z"/>
		</g>
		<g>
			<path class="st0" d="M2.8,16.4H0.3c-0.2,0-0.3-0.1-0.3-0.3c0-0.2,0.1-0.3,0.3-0.3h2.5c0.2,0,0.3,0.1,0.3,0.3
				C3.1,16.3,3,16.4,2.8,16.4z"/>
		</g>
		<g>
			<path class="st0" d="M2.8,18.7H0.3c-0.2,0-0.3-0.1-0.3-0.3c0-0.2,0.1-0.3,0.3-0.3h2.5c0.2,0,0.3,0.1,0.3,0.3
				C3.1,18.6,3,18.7,2.8,18.7z"/>
		</g>
		<g>
			<path class="st0" d="M2.8,21H0.3C0.1,21,0,20.9,0,20.7s0.1-0.3,0.3-0.3h2.5c0.2,0,0.3,0.1,0.3,0.3S3,21,2.8,21z"/>
		</g>
		<g>
			<path class="st0" d="M2.8,23.3H0.3C0.1,23.3,0,23.2,0,23s0.1-0.3,0.3-0.3h2.5c0.2,0,0.3,0.1,0.3,0.3S3,23.3,2.8,23.3z"/>
		</g>
		<g>
			<path class="st0" d="M2.8,25.6H0.3c-0.2,0-0.3-0.1-0.3-0.3C0,25.1,0.1,25,0.3,25h2.5c0.2,0,0.3,0.1,0.3,0.3
				C3.1,25.4,3,25.6,2.8,25.6z"/>
		</g>
	</g>
	<g>
		<path class="st0" d="M27.2,27.5H2.8c-0.2,0-0.3-0.1-0.3-0.3V2.8c0-0.2,0.1-0.3,0.3-0.3h24.4c0.2,0,0.3,0.1,0.3,0.3v24.4
			C27.5,27.3,27.3,27.5,27.2,27.5z M3.1,26.9h23.7V3.1H3.1V26.9z"/>
	</g>
	<g>
		<path class="st2" d="M3.9,26.1V3.9h22.3v22.3H3.9z M5.8,25.4h18.4v-4.8c0.9-0.4,1.6-1.3,1.6-2.4v-6.3c0-1.1-0.7-2-1.6-2.4V4.6H5.8
			v4.8c-0.9,0.4-1.6,1.3-1.6,2.4v6.3c0,1.1,0.7,2,1.6,2.4V25.4z"/>
	</g>
	<g>
		<ellipse class="st3" cx="15" cy="15" rx="5.7" ry="3.4"/>
	</g>
	<g>
		<g>
			<path class="st1" d="M12.6,14.5c0-0.1,0-0.2-0.1-0.3c0-0.1-0.1-0.1-0.2-0.2c-0.1-0.1-0.1-0.1-0.2-0.1c-0.1,0-0.2,0-0.3,0
				c-0.1,0-0.3,0-0.4,0.1c-0.1,0-0.2,0.1-0.3,0.2c-0.1,0.1-0.1,0.2-0.2,0.4c0,0.1-0.1,0.3-0.1,0.5c0,0.2,0,0.3,0.1,0.5
				c0,0.1,0.1,0.3,0.2,0.4c0.1,0.1,0.2,0.2,0.3,0.2c0.1,0.1,0.2,0.1,0.4,0.1c0.1,0,0.2,0,0.3,0c0.1,0,0.2-0.1,0.2-0.1
				c0.1-0.1,0.1-0.1,0.2-0.2c0-0.1,0.1-0.2,0.1-0.3h0.6c0,0.2-0.1,0.4-0.1,0.5c-0.1,0.1-0.2,0.3-0.3,0.4c-0.1,0.1-0.3,0.2-0.4,0.2
				c-0.2,0.1-0.3,0.1-0.5,0.1c-0.2,0-0.4,0-0.6-0.1c-0.2-0.1-0.3-0.2-0.5-0.3c-0.1-0.1-0.2-0.3-0.3-0.5c-0.1-0.2-0.1-0.4-0.1-0.7
				c0-0.3,0-0.5,0.1-0.7c0.1-0.2,0.2-0.4,0.3-0.5c0.1-0.1,0.3-0.3,0.5-0.3c0.2-0.1,0.4-0.1,0.6-0.1c0.2,0,0.3,0,0.5,0.1
				c0.2,0.1,0.3,0.1,0.4,0.2c0.1,0.1,0.2,0.2,0.3,0.4c0.1,0.1,0.1,0.3,0.1,0.5H12.6z"/>
		</g>
		<g>
			<path class="st1" d="M13.7,13.4h1.2c0.1,0,0.2,0,0.3,0c0.1,0,0.2,0,0.3,0.1c0.1,0,0.2,0.1,0.3,0.1c0.1,0,0.1,0.1,0.2,0.2
				c0.1,0.1,0.1,0.2,0.1,0.3c0,0.1,0,0.2,0,0.3c0,0.3-0.1,0.6-0.3,0.8c-0.2,0.2-0.5,0.3-0.9,0.3h-0.7v1.2h-0.6V13.4z M14.3,14.9H15
				c0.1,0,0.2,0,0.3,0c0.1,0,0.1-0.1,0.2-0.1c0,0,0.1-0.1,0.1-0.1c0-0.1,0-0.1,0-0.2c0-0.1,0-0.2-0.1-0.2c0-0.1-0.1-0.1-0.1-0.1
				c-0.1,0-0.1-0.1-0.2-0.1c-0.1,0-0.2,0-0.2,0h-0.7V14.9z"/>
		</g>
		<g>
			<path class="st1" d="M17.9,16.7c-0.2,0-0.4,0-0.5-0.1c-0.1,0-0.3-0.1-0.4-0.2c-0.1-0.1-0.2-0.2-0.2-0.2c-0.1-0.1-0.1-0.2-0.1-0.3
				c0-0.1,0-0.2-0.1-0.3c0-0.1,0-0.2,0-0.3v-1.8h0.6v1.8c0,0.2,0,0.3,0,0.4c0,0.1,0.1,0.2,0.1,0.3c0.1,0.1,0.1,0.1,0.2,0.1
				c0.1,0,0.2,0,0.3,0c0.1,0,0.2,0,0.3,0c0.1,0,0.2-0.1,0.2-0.1c0.1-0.1,0.1-0.2,0.1-0.3c0-0.1,0-0.3,0-0.4v-1.8h0.6v1.8
				c0,0.2,0,0.4-0.1,0.6c0,0.2-0.1,0.3-0.2,0.4s-0.2,0.2-0.4,0.3C18.4,16.6,18.2,16.7,17.9,16.7z"/>
		</g>
	</g>
</g>
</svg>
