<?xml version="1.0" encoding="utf-8"?>
<!-- Generator: Adobe Illustrator 23.0.3, SVG Export Plug-In . SVG Version: 6.00 Build 0)  -->
<svg version="1.1" id="Layer_1" xmlns="http://www.w3.org/2000/svg" xmlns:xlink="http://www.w3.org/1999/xlink" x="0px" y="0px"
	 viewBox="0 0 920 193.2" style="enable-background:new 0 0 920 193.2;" xml:space="preserve">
<style type="text/css">
	.st0{fill:#4A555F;}
	.st1{fill:#71CCE0;}
	.st2{fill:#FFD452;}
	.st3{fill:#F58E6F;}
	.st4{fill:#DFDFDF;}
	.st5{fill:#FFFFFF;}
	.st6{fill:#C5F1F1;}
</style>
<g>
	<g>
		<g>
			<g>
				<g>
					<path class="st0" d="M313.7,170.5c-4.9,0-9.3-6.1-11.9-16.4l-0.2-0.7l0.6-0.2c3.6-1.1,7.3-2.5,11.2-4.4l0.3-0.1l0.3,0.1
						c3.8,1.9,7.6,3.3,11.2,4.4l0.6,0.2l-0.2,0.7C323.1,164.3,318.6,170.5,313.7,170.5z M303.3,154.3c2.4,9.1,6.4,14.7,10.4,14.7
						c4,0,8-5.6,10.4-14.7c-3.3-1-6.8-2.4-10.4-4.1C310.2,151.9,306.7,153.3,303.3,154.3z"/>
				</g>
			</g>
			<g>
				<g>
					<path class="st1" d="M313.7,167.4c-3.4,0-6.5-5.7-8.4-12c2.7-0.9,5.6-2.1,8.4-3.4c2.9,1.3,5.7,2.5,8.4,3.4
						C320.2,161.7,317.1,167.4,313.7,167.4z"/>
				</g>
			</g>
			<g>
				<g>
					<path class="st0" d="M313.7,119.5l-0.3-0.1c-3.8-1.9-7.6-3.3-11.2-4.4l-0.6-0.2l0.2-0.7c2.6-10.3,7.1-16.4,11.9-16.4
						c4.9,0,9.3,6.1,11.9,16.4l0.2,0.7l-0.6,0.2c-3.6,1.1-7.3,2.5-11.2,4.4L313.7,119.5z M303.3,113.8c3.3,1,6.8,2.4,10.4,4.1
						c3.6-1.7,7.1-3.1,10.4-4.1c-2.4-9.1-6.4-14.7-10.4-14.7C309.7,99,305.7,104.7,303.3,113.8z"/>
				</g>
			</g>
			<g>
				<g>
					<path class="st1" d="M313.7,116.1c-2.9-1.3-5.7-2.5-8.4-3.4c1.9-6.3,5-12,8.4-12c3.4,0,6.5,5.7,8.4,12
						C319.4,113.6,316.6,114.8,313.7,116.1z"/>
				</g>
			</g>
			<g>
				<g>
					<path class="st0" d="M291.5,156.4C291.5,156.4,291.5,156.4,291.5,156.4c-4.5,0-7.6-1.3-9.1-3.7c-2.6-4.3,0.6-11.4,8.5-19.1
						l0.5-0.5l0.5,0.5c2.6,2.6,5.6,5.1,9,7.4l0.3,0.2l0,0.3c0.4,4.4,1,8.5,2,12.2l0.2,0.7l-0.6,0.2
						C298.5,155.8,294.7,156.4,291.5,156.4z M291.4,135c-6.9,6.9-9.9,13.4-7.8,16.9c1.5,2.5,5.1,3,7.9,3c0,0,0,0,0,0
						c2.9,0,6.3-0.6,10.1-1.6c-0.9-3.5-1.5-7.4-1.8-11.4C296.7,139.7,293.9,137.4,291.4,135z"/>
				</g>
			</g>
			<g>
				<g>
					<path class="st2" d="M291.5,153.4c-3.3,0-5.6-0.8-6.5-2.2c-1.8-3,1.8-8.8,6.4-13.8c2.1,1.9,4.3,3.7,6.8,5.5
						c0.3,3.3,0.8,6.4,1.4,9.4C296.7,153,293.9,153.4,291.5,153.4C291.5,153.4,291.5,153.4,291.5,153.4z"/>
				</g>
			</g>
			<g>
				<g>
					<path class="st0" d="M336,135l-0.5-0.5c-2.6-2.6-5.6-5.1-9-7.4l-0.3-0.2l0-0.3c-0.4-4.4-1-8.5-2-12.2l-0.2-0.7l0.6-0.2
						c4.2-1.2,7.9-1.9,11.1-1.9c4.5,0,7.6,1.3,9.1,3.7c2.6,4.3-0.6,11.4-8.5,19.1L336,135z M327.6,126.2c3.1,2.2,5.9,4.5,8.4,6.9
						c6.9-6.9,9.9-13.4,7.8-16.9c-1.5-2.5-5.1-3-7.9-3c-2.9,0-6.3,0.6-10.1,1.6C326.7,118.2,327.3,122.1,327.6,126.2z"/>
				</g>
			</g>
			<g>
				<g>
					<path class="st2" d="M336,130.8c-2.1-1.9-4.3-3.7-6.8-5.5c-0.3-3.3-0.8-6.4-1.4-9.4c3-0.8,5.8-1.2,8.2-1.2
						c3.3,0,5.6,0.8,6.5,2.2C344.2,120,340.6,125.8,336,130.8z"/>
				</g>
			</g>
			<g>
				<g>
					<path class="st0" d="M327.8,128l-1.2-0.9c-2-1.4-4.1-2.8-6.3-4.1c-2.2-1.3-4.6-2.6-6.9-3.7l-1.3-0.6l1.3-0.6
						c3.9-1.9,7.7-3.4,11.4-4.5l0.7-0.2l0.2,0.7c1,3.8,1.6,8,2,12.4L327.8,128z M315.3,118.7c1.9,1,3.8,2,5.7,3.1
						c1.7,1,3.5,2.1,5.1,3.3c-0.3-3.5-0.9-6.9-1.6-10C321.5,116,318.5,117.2,315.3,118.7z"/>
				</g>
			</g>
			<g>
				<g>
					<path class="st0" d="M302,154.7l-0.2-0.7c-1-3.8-1.6-8-2-12.4l-0.1-1.5l1.2,0.9c2,1.4,4.1,2.8,6.3,4.1c2.2,1.3,4.6,2.6,6.9,3.7
						l1.3,0.6l-1.3,0.6c-3.9,1.9-7.7,3.4-11.4,4.5L302,154.7z M301.3,143c0.3,3.5,0.9,6.9,1.6,10c3-0.9,6-2.1,9.2-3.6
						c-1.9-1-3.8-2-5.7-3.1C304.7,145.2,303,144.1,301.3,143z"/>
				</g>
			</g>
			<g>
				<g>
					<path class="st0" d="M335.9,156.4C335.9,156.4,335.9,156.4,335.9,156.4c-3.2,0-6.9-0.6-11.1-1.9l-0.6-0.2l0.2-0.7
						c0.9-3.7,1.6-7.8,2-12.2l0-0.3l0.3-0.2c3.4-2.4,6.4-4.9,9-7.4l0.5-0.5l0.5,0.5c7.9,7.7,11,14.9,8.5,19.1
						C343.6,155.1,340.4,156.4,335.9,156.4z M325.8,153.4c3.8,1.1,7.2,1.6,10.1,1.6h0c2.8,0,6.4-0.5,7.9-3c2.1-3.6-0.9-10-7.8-16.9
						c-2.5,2.4-5.3,4.7-8.4,6.9C327.3,146,326.7,149.9,325.8,153.4z"/>
				</g>
			</g>
			<g>
				<g>
					<path class="st3" d="M335.9,153.4c-2.3,0-5.1-0.4-8.2-1.2c0.6-2.9,1.1-6.1,1.4-9.4c2.4-1.8,4.7-3.6,6.8-5.5
						c4.7,5,8.2,10.8,6.4,13.8C341.5,152.6,339.2,153.4,335.9,153.4C335.9,153.4,335.9,153.4,335.9,153.4z"/>
				</g>
			</g>
			<g>
				<g>
					<path class="st0" d="M291.4,135l-0.5-0.5c-7.9-7.7-11-14.9-8.5-19.1c1.5-2.4,4.6-3.7,9.1-3.7c3.2,0,6.9,0.6,11.1,1.9l0.6,0.2
						l-0.2,0.7c-0.9,3.7-1.6,7.8-2,12.2l0,0.3l-0.3,0.2c-3.4,2.4-6.4,4.9-9,7.4L291.4,135z M291.5,113.1c-2.8,0-6.4,0.5-7.9,3
						c-2.1,3.6,0.9,10,7.8,16.9c2.5-2.4,5.3-4.7,8.4-6.9c0.3-4.1,1-7.9,1.8-11.4C297.9,113.7,294.4,113.1,291.5,113.1z"/>
				</g>
			</g>
			<g>
				<g>
					<path class="st3" d="M291.5,130.8c-4.7-5-8.2-10.8-6.4-13.8c0.9-1.4,3.2-2.2,6.5-2.2c2.3,0,5.1,0.4,8.2,1.2
						c-0.6,2.9-1.1,6.1-1.4,9.4C295.8,127.1,293.6,128.9,291.5,130.8z"/>
				</g>
			</g>
			<g>
				<g>
					<path class="st0" d="M325.5,154.8l-0.7-0.2c-3.6-1.1-7.5-2.6-11.4-4.5l-1.3-0.6l1.3-0.6c2.3-1.1,4.6-2.4,6.9-3.7
						c2.1-1.3,4.2-2.6,6.3-4.1l1.2-0.9l-0.1,1.5c-0.4,4.4-1,8.6-2,12.4L325.5,154.8z M315.3,149.4c3.1,1.5,6.2,2.7,9.2,3.6
						c0.7-3.1,1.3-6.4,1.6-10c-1.7,1.1-3.4,2.2-5.1,3.3C319.2,147.4,317.2,148.4,315.3,149.4z"/>
				</g>
			</g>
			<g>
				<g>
					<path class="st0" d="M299.7,128l0.1-1.5c0.4-4.4,1-8.6,2-12.4l0.2-0.7l0.7,0.2c3.6,1.1,7.5,2.6,11.4,4.5l1.3,0.6l-1.3,0.6
						c-2.3,1.1-4.6,2.4-6.9,3.7c-2.1,1.3-4.2,2.6-6.3,4.1L299.7,128z M303,115.1c-0.7,3.1-1.3,6.4-1.6,10c1.7-1.1,3.4-2.2,5.1-3.3
						c1.9-1.1,3.8-2.2,5.7-3.1C309,117.2,305.9,116,303,115.1z"/>
				</g>
			</g>
			<g>
				<g>
					<path class="st0" d="M326.1,143l0.1-1.5c0.2-2.5,0.3-5,0.3-7.5c0-2.5-0.1-5-0.3-7.5l-0.1-1.5l1.2,0.9c3.4,2.4,6.5,5,9.2,7.6
						l0.5,0.5l-0.5,0.5c-2.7,2.6-5.7,5.2-9.2,7.6L326.1,143z M327.8,128c0.1,2,0.2,4,0.2,6.1c0,2-0.1,4.1-0.2,6.1
						c2.7-2,5.1-4,7.3-6.1C332.9,132,330.4,130,327.8,128z"/>
				</g>
			</g>
			<g>
				<g>
					<path class="st0" d="M301.3,143l-1.2-0.9c-3.4-2.4-6.5-5-9.2-7.6l-0.5-0.5l0.5-0.5c2.7-2.6,5.7-5.2,9.2-7.6l1.2-0.9l-0.1,1.5
						c-0.2,2.5-0.3,5-0.3,7.5c0,2.5,0.1,5,0.3,7.5L301.3,143z M292.4,134.1c2.2,2.1,4.6,4.1,7.3,6.1c-0.1-2-0.2-4-0.2-6.1
						c0-2,0.1-4.1,0.2-6.1C297,129.9,294.6,132,292.4,134.1z"/>
				</g>
			</g>
			<g>
				<g>
					<path class="st0" d="M313.7,150.2l-0.3-0.1c-2.4-1.1-4.7-2.4-7-3.8c-2.2-1.3-4.3-2.7-6.3-4.1l-0.3-0.2l0-0.3
						c-0.2-2.5-0.3-5-0.3-7.6c0-2.5,0.1-5.1,0.3-7.6l0-0.3l0.3-0.2c2-1.4,4.2-2.8,6.3-4.1c2.3-1.4,4.6-2.6,7-3.8l0.3-0.1l0.3,0.1
						c2.4,1.1,4.7,2.4,7,3.8c2.2,1.3,4.3,2.7,6.4,4.1l0.3,0.2l0,0.3c0.2,2.5,0.3,5,0.3,7.6c0,2.5-0.1,5.1-0.3,7.6l0,0.3l-0.3,0.2
						c-2,1.4-4.2,2.8-6.4,4.1c-2.3,1.4-4.6,2.6-7,3.8L313.7,150.2z M301.2,141.2c1.9,1.4,3.9,2.7,6,3.9c2.1,1.3,4.3,2.5,6.6,3.6
						c2.2-1.1,4.4-2.3,6.6-3.6c2-1.2,4.1-2.5,6-3.9c0.2-2.4,0.3-4.8,0.3-7.1c0-2.4-0.1-4.8-0.3-7.1c-1.9-1.4-3.9-2.7-6-3.9
						c-2.1-1.3-4.3-2.5-6.6-3.6c-2.2,1.1-4.4,2.3-6.6,3.6c-2,1.2-4.1,2.5-6,3.9c-0.2,2.4-0.3,4.8-0.3,7.1
						C300.9,136.4,301,138.8,301.2,141.2z M313.7,140.5c-3.6,0-6.5-2.9-6.5-6.5c0-3.6,2.9-6.5,6.5-6.5c3.6,0,6.5,2.9,6.5,6.5
						C320.2,137.6,317.3,140.5,313.7,140.5z M313.7,129c-2.8,0-5.1,2.3-5.1,5.1c0,2.8,2.3,5.1,5.1,5.1c2.8,0,5.1-2.3,5.1-5.1
						C318.8,131.3,316.5,129,313.7,129z"/>
				</g>
			</g>
			<g>
				<g>
					<path class="st0" d="M313.7,140.5c-3.6,0-6.5-2.9-6.5-6.5c0-3.6,2.9-6.5,6.5-6.5c3.6,0,6.5,2.9,6.5,6.5
						C320.2,137.6,317.3,140.5,313.7,140.5z M313.7,129c-2.8,0-5.1,2.3-5.1,5.1c0,2.8,2.3,5.1,5.1,5.1c2.8,0,5.1-2.3,5.1-5.1
						C318.8,131.3,316.5,129,313.7,129z"/>
				</g>
			</g>
		</g>
		<g>
			<g>
				<path class="st0" d="M373,106.3H350V75.5H373V106.3z M351.4,104.9h20.3v-28h-20.3V104.9z"/>
			</g>
		</g>
		<g>
			<g>
				<polygon class="st0" points="370,110.3 345.7,110.3 345.7,79 350.7,79 350.7,80.4 347.1,80.4 347.1,108.9 368.6,108.9 
					368.6,105.6 370,105.6 				"/>
			</g>
		</g>
		<g>
			<g>
				<g>
					<rect x="355.8" y="81.8" class="st0" width="2" height="1.4"/>
				</g>
			</g>
			<g>
				<g>
					<rect x="355.8" y="86.1" class="st0" width="12.2" height="1.4"/>
				</g>
			</g>
			<g>
				<g>
					<rect x="355.8" y="90.3" class="st0" width="12.2" height="1.4"/>
				</g>
			</g>
			<g>
				<g>
					<rect x="355.8" y="94.5" class="st0" width="12.2" height="1.4"/>
				</g>
			</g>
			<g>
				<g>
					<rect x="355.8" y="98.7" class="st0" width="8.1" height="1.4"/>
				</g>
			</g>
			<g>
				<g>
					<rect x="359.3" y="81.8" class="st0" width="2" height="1.4"/>
				</g>
			</g>
			<g>
				<g>
					<rect x="362.7" y="81.8" class="st0" width="2" height="1.4"/>
				</g>
			</g>
			<g>
				<g>
					<rect x="366.1" y="81.8" class="st0" width="2" height="1.4"/>
				</g>
			</g>
		</g>
		<g>
			<g>
				<path class="st0" d="M264.4,191.8h-7v-26.3h7V191.8z M258.8,190.4h4.2v-23.5h-4.2V190.4z"/>
			</g>
		</g>
		<g>
			<g>
				<path class="st0" d="M274,191.8h-7v-17.6h7V191.8z M268.3,190.4h4.2v-14.8h-4.2V190.4z"/>
			</g>
		</g>
		<g>
			<g>
				<path class="st0" d="M283.5,191.8h-7v-9.5h7V191.8z M277.9,190.4h4.2v-6.7h-4.2V190.4z"/>
			</g>
		</g>
		<g>
			<g>
				<g>
					
						<rect x="275" y="152.8" transform="matrix(0.6186 -0.7857 0.7857 0.6186 -26.8609 280.7531)" class="st0" width="1.4" height="30.4"/>
				</g>
			</g>
			<g>
				<g>
					<polygon class="st0" points="263.6,162.7 262.9,157.7 268.1,157.6 268.1,159 264.5,159 265,162.6 					"/>
				</g>
			</g>
		</g>
		<g>
			<g>
				<g>
					<path class="st0" d="M282.2,95.9h-25.3V77.2h25.3V95.9z M258.3,94.5h22.5V78.6h-22.5V94.5z"/>
				</g>
			</g>
			<g>
				<g>
					<path class="st0" d="M285.9,103.7h-32.8v-4.2l4.1-5h24.6l4.1,5V103.7z M254.5,102.3h30V100l-3.4-4.1h-23.3l-3.4,4.1V102.3z"/>
				</g>
			</g>
			<g>
				<g>
					<rect x="253.8" y="99" class="st0" width="27.7" height="1.4"/>
				</g>
			</g>
		</g>
		<g>
			<g>
				<path class="st0" d="M279.2,93.2h-19.4l0-13.1h19.4L279.2,93.2z M261.2,91.8h16.6l0-10.3h-16.6L261.2,91.8z"/>
			</g>
		</g>
		<g>
			<g>
				<polygon class="st2" points="262.9,90.1 262.9,83.1 276.2,83.1 276.2,90.1 				"/>
			</g>
		</g>
		<g>
			<g>
				<g>
					<path class="st0" d="M373,176.1h-29.8v-10H373V176.1z M344.7,174.7h27v-7.2h-27V174.7z"/>
				</g>
			</g>
			<g>
				<g>
					<rect x="358.1" y="168.5" class="st1" width="12.5" height="5.2"/>
				</g>
			</g>
			<g>
				<g>
					<path class="st0" d="M373,184.7h-29.8v-10H373V184.7z M344.7,183.3h27v-7.2h-27V183.3z"/>
				</g>
			</g>
			<g>
				<g>
					<rect x="358.1" y="177.1" class="st1" width="12.5" height="5.1"/>
				</g>
			</g>
			<g>
				<g>
					<path class="st0" d="M373,193.2h-29.8v-10H373V193.2z M344.7,191.8h27v-7.2h-27V191.8z"/>
				</g>
			</g>
			<g>
				<g>
					<rect x="358.1" y="185.7" class="st1" width="12.5" height="5.1"/>
				</g>
			</g>
			<g>
				<g>
					<path class="st0" d="M348.2,172.8c-1,0-1.7-0.8-1.7-1.7c0-1,0.8-1.7,1.7-1.7s1.7,0.8,1.7,1.7C350,172,349.2,172.8,348.2,172.8z
						 M348.2,170.7c-0.2,0-0.3,0.1-0.3,0.3c0,0.2,0.1,0.3,0.3,0.3s0.3-0.1,0.3-0.3C348.6,170.9,348.4,170.7,348.2,170.7z"/>
				</g>
			</g>
			<g>
				<g>
					<path class="st0" d="M368.7,172.8c-1,0-1.7-0.8-1.7-1.7c0-1,0.8-1.7,1.7-1.7c1,0,1.7,0.8,1.7,1.7
						C370.5,172,369.7,172.8,368.7,172.8z M368.7,170.7c-0.2,0-0.3,0.1-0.3,0.3c0,0.2,0.1,0.3,0.3,0.3s0.3-0.1,0.3-0.3
						C369.1,170.9,368.9,170.7,368.7,170.7z"/>
				</g>
			</g>
			<g>
				<g>
					<path class="st0" d="M348.2,181.5c-1,0-1.7-0.8-1.7-1.7s0.8-1.7,1.7-1.7s1.7,0.8,1.7,1.7S349.2,181.5,348.2,181.5z
						 M348.2,179.4c-0.2,0-0.3,0.1-0.3,0.3s0.1,0.3,0.3,0.3s0.3-0.1,0.3-0.3S348.4,179.4,348.2,179.4z"/>
				</g>
			</g>
			<g>
				<g>
					<path class="st0" d="M368.7,181.5c-1,0-1.7-0.8-1.7-1.7s0.8-1.7,1.7-1.7c1,0,1.7,0.8,1.7,1.7S369.7,181.5,368.7,181.5z
						 M368.7,179.4c-0.2,0-0.3,0.1-0.3,0.3s0.1,0.3,0.3,0.3s0.3-0.1,0.3-0.3S368.9,179.4,368.7,179.4z"/>
				</g>
			</g>
			<g>
				<g>
					<path class="st0" d="M348.2,190c-1,0-1.7-0.8-1.7-1.7c0-1,0.8-1.7,1.7-1.7s1.7,0.8,1.7,1.7C350,189.2,349.2,190,348.2,190z
						 M348.2,187.9c-0.2,0-0.3,0.1-0.3,0.3c0,0.2,0.1,0.3,0.3,0.3s0.3-0.1,0.3-0.3C348.6,188.1,348.4,187.9,348.2,187.9z"/>
				</g>
			</g>
			<g>
				<g>
					<path class="st0" d="M368.7,190c-1,0-1.7-0.8-1.7-1.7c0-1,0.8-1.7,1.7-1.7c1,0,1.7,0.8,1.7,1.7
						C370.5,189.2,369.7,190,368.7,190z M368.7,187.9c-0.2,0-0.3,0.1-0.3,0.3c0,0.2,0.1,0.3,0.3,0.3s0.3-0.1,0.3-0.3
						C369.1,188.1,368.9,187.9,368.7,187.9z"/>
				</g>
			</g>
		</g>
		<g>
			<g>
				<path class="st0" d="M332.3,86.2h-1.4v-1.4h1.4V86.2z M329.5,86.2h-1.4v-1.4h1.4V86.2z M326.7,86.2h-1.4v-1.4h1.4V86.2z
					 M323.9,86.2h-1.4v-1.4h1.4V86.2z M321.1,86.2h-1.4v-1.4h1.4V86.2z M318.3,86.2h-1.4v-1.4h1.4V86.2z M315.5,86.2h-1.4v-1.4h1.4
					V86.2z M312.7,86.2h-1.4v-1.4h1.4V86.2z M309.9,86.2h-1.4v-1.4h1.4V86.2z M307.1,86.2h-1.4v-1.4h1.4V86.2z M304.4,86.2H303v-1.4
					h1.4V86.2z M301.6,86.2h-1.4v-1.4h1.4V86.2z M298.8,86.2h-1.4v-1.4h1.4V86.2z M296,86.2h-1.4v-1.4h1.4V86.2z"/>
			</g>
		</g>
		<g>
			<g>
				<path class="st0" d="M332.3,186.1h-1.4v-1.4h1.4V186.1z M329.5,186.1h-1.4v-1.4h1.4V186.1z M326.7,186.1h-1.4v-1.4h1.4V186.1z
					 M323.9,186.1h-1.4v-1.4h1.4V186.1z M321.1,186.1h-1.4v-1.4h1.4V186.1z M318.3,186.1h-1.4v-1.4h1.4V186.1z M315.5,186.1h-1.4
					v-1.4h1.4V186.1z M312.7,186.1h-1.4v-1.4h1.4V186.1z M309.9,186.1h-1.4v-1.4h1.4V186.1z M307.1,186.1h-1.4v-1.4h1.4V186.1z
					 M304.4,186.1H303v-1.4h1.4V186.1z M301.6,186.1h-1.4v-1.4h1.4V186.1z M298.8,186.1h-1.4v-1.4h1.4V186.1z M296,186.1h-1.4v-1.4
					h1.4V186.1z"/>
			</g>
		</g>
		<g>
			<g>
				<path class="st0" d="M364.8,153.7h-1.4v-1.4h1.4V153.7z M364.8,150.9h-1.4v-1.4h1.4V150.9z M364.8,148.1h-1.4v-1.4h1.4V148.1z
					 M364.8,145.3h-1.4v-1.4h1.4V145.3z M364.8,142.5h-1.4v-1.4h1.4V142.5z M364.8,139.7h-1.4v-1.4h1.4V139.7z M364.8,136.9h-1.4
					v-1.4h1.4V136.9z M364.8,134.1h-1.4v-1.4h1.4V134.1z M364.8,131.3h-1.4v-1.4h1.4V131.3z M364.8,128.5h-1.4v-1.4h1.4V128.5z
					 M364.8,125.7h-1.4v-1.4h1.4V125.7z M364.8,122.9h-1.4v-1.4h1.4V122.9z M364.8,120.1h-1.4v-1.4h1.4V120.1z M364.8,117.3h-1.4
					v-1.4h1.4V117.3z"/>
			</g>
		</g>
		<g>
			<g>
				<path class="st0" d="M264.8,153.7h-1.4v-1.4h1.4V153.7z M264.8,150.9h-1.4v-1.4h1.4V150.9z M264.8,148.1h-1.4v-1.4h1.4V148.1z
					 M264.8,145.3h-1.4v-1.4h1.4V145.3z M264.8,142.5h-1.4v-1.4h1.4V142.5z M264.8,139.7h-1.4v-1.4h1.4V139.7z M264.8,136.9h-1.4
					v-1.4h1.4V136.9z M264.8,134.1h-1.4v-1.4h1.4V134.1z M264.8,131.3h-1.4v-1.4h1.4V131.3z M264.8,128.5h-1.4v-1.4h1.4V128.5z
					 M264.8,125.7h-1.4v-1.4h1.4V125.7z M264.8,122.9h-1.4v-1.4h1.4V122.9z M264.8,120.1h-1.4v-1.4h1.4V120.1z M264.8,117.3h-1.4
					v-1.4h1.4V117.3z"/>
			</g>
		</g>
	</g>
	<g>
		<path class="st2" d="M488.2,41.6l12.9,0.1l0-2.8c-0.1-11.8-4.9-23-13.3-31.2l0,0l0,0c-8.2,8.4-12.8,19.7-12.7,31.5l0,2.5
			L488.2,41.6L488.2,41.6z"/>
		<path class="st0" d="M506.7,47.3l-18.5-0.2l-18.4,0.2l-0.1-8c-0.1-13.3,4.9-25.9,14.2-35.4l3.8-3.9l3.9,3.8
			c9.5,9.3,14.8,21.8,14.9,35.1L506.7,47.3z M488.1,44.6l16.1,0.2l-0.1-5.9C504,26.3,499,14.4,489.9,5.6l-2.2-2.1l-2.1,2.2
			c-8.9,9-13.7,21-13.5,33.6l0.1,5.6L488.1,44.6z"/>
		<path class="st0" d="M545.8,173.9H430.1v-25.8h115.7V173.9z M432.5,171.5h110.8v-20.9H432.5V171.5z"/>
		<rect x="487.9" y="154.1" class="st1" width="51.9" height="13.9"/>
		<path class="st0" d="M442.9,165.1c-2.2,0-4-1.8-4-4c0-2.2,1.8-4,4-4c2.2,0,4,1.8,4,4C446.9,163.3,445.1,165.1,442.9,165.1z
			 M442.9,159.5c-0.9,0-1.6,0.7-1.6,1.6c0,0.9,0.7,1.6,1.6,1.6c0.9,0,1.6-0.7,1.6-1.6C444.5,160.2,443.8,159.5,442.9,159.5z"/>
		<path class="st0" d="M534.8,165.1c-2.2,0-4-1.8-4-4c0-2.2,1.8-4,4-4c2.2,0,4,1.8,4,4C538.8,163.3,537,165.1,534.8,165.1z
			 M534.8,159.5c-0.9,0-1.6,0.7-1.6,1.6c0,0.9,0.7,1.6,1.6,1.6c0.9,0,1.6-0.7,1.6-1.6C536.4,160.2,535.6,159.5,534.8,159.5z"/>
		<path class="st0" d="M545.8,127.1H430.1v-25.8h115.7V127.1z M432.5,124.7h110.8v-20.9H432.5V124.7z"/>
		<rect x="487.9" y="107.3" class="st1" width="51.9" height="13.9"/>
		<path class="st0" d="M545.8,150.6H430.1v-26h115.7V150.6z M432.5,148.2h110.8v-21.1H432.5V148.2z"/>
		<rect x="487.9" y="130.6" class="st1" width="51.9" height="14.1"/>
		<path class="st0" d="M442.9,118.3c-2.2,0-4-1.8-4-4c0-2.2,1.8-4,4-4c2.2,0,4,1.8,4,4C446.9,116.4,445.1,118.3,442.9,118.3z
			 M442.9,112.6c-0.9,0-1.6,0.7-1.6,1.6c0,0.9,0.7,1.6,1.6,1.6c0.9,0,1.6-0.7,1.6-1.6C444.5,113.3,443.8,112.6,442.9,112.6z"/>
		<path class="st0" d="M534.8,118.3c-2.2,0-4-1.8-4-4c0-2.2,1.8-4,4-4c2.2,0,4,1.8,4,4C538.8,116.4,537,118.3,534.8,118.3z
			 M534.8,112.6c-0.9,0-1.6,0.7-1.6,1.6c0,0.9,0.7,1.6,1.6,1.6c0.9,0,1.6-0.7,1.6-1.6C536.4,113.3,535.6,112.6,534.8,112.6z"/>
		<path class="st0" d="M442.9,141.7c-2.2,0-4-1.8-4-4c0-2.2,1.8-4,4-4c2.2,0,4,1.8,4,4C446.9,139.9,445.1,141.7,442.9,141.7z
			 M442.9,136.1c-0.9,0-1.6,0.7-1.6,1.6c0,0.9,0.7,1.6,1.6,1.6c0.9,0,1.6-0.7,1.6-1.6C444.5,136.8,443.8,136.1,442.9,136.1z"/>
		<path class="st0" d="M534.8,141.7c-2.2,0-4-1.8-4-4c0-2.2,1.8-4,4-4c2.2,0,4,1.8,4,4C538.8,139.9,537,141.7,534.8,141.7z
			 M534.8,136.1c-0.9,0-1.6,0.7-1.6,1.6c0,0.9,0.7,1.6,1.6,1.6c0.9,0,1.6-0.7,1.6-1.6C536.4,136.8,535.6,136.1,534.8,136.1z"/>
		<path class="st0" d="M545.8,103.8H430.1v-26h115.7V103.8z M432.5,101.3h110.8V80.3H432.5V101.3z"/>
		<rect x="487.9" y="83.8" class="st1" width="51.9" height="14.1"/>
		<path class="st0" d="M442.9,94.8c-2.2,0-4-1.8-4-4c0-2.2,1.8-4,4-4c2.2,0,4,1.8,4,4C446.9,93,445.1,94.8,442.9,94.8z M442.9,89.2
			c-0.9,0-1.6,0.7-1.6,1.6c0,0.9,0.7,1.6,1.6,1.6c0.9,0,1.6-0.7,1.6-1.6C444.5,89.9,443.8,89.2,442.9,89.2z"/>
		<path class="st0" d="M534.8,94.8c-2.2,0-4-1.8-4-4c0-2.2,1.8-4,4-4c2.2,0,4,1.8,4,4C538.8,93,537,94.8,534.8,94.8z M534.8,89.2
			c-0.9,0-1.6,0.7-1.6,1.6c0,0.9,0.7,1.6,1.6,1.6c0.9,0,1.6-0.7,1.6-1.6C536.4,89.9,535.6,89.2,534.8,89.2z"/>
		<path class="st0" d="M451.9,186.3h-7.4v-14.8h7.4V186.3z M446.9,183.8h2.5v-9.9h-2.5V183.8z"/>
		<path class="st0" d="M529.3,186.3h-7.4v-14.8h7.4V186.3z M524.3,183.8h2.5v-9.9h-2.5V183.8z"/>
		<path class="st0" d="M545.8,193.2H430.1v-9.4h115.7V193.2z M432.5,190.8h110.8v-4.5H432.5V190.8z"/>
		<rect x="486.7" y="32.2" class="st0" width="2.4" height="46.8"/>
		<path class="st0" d="M477.1,69.8h-9.8c-7.4,0-13.5-6-13.5-13.5v-1.2h23.2V69.8z M456.3,57.5c0.6,5.5,5.3,9.8,11,9.8h7.3v-9.8
			H456.3z"/>
		<path class="st2" d="M467.3,64.3c-2.8,0-5.4-1.5-6.8-3.7h11.1v3.7H467.3z"/>
		<path class="st0" d="M507.6,72.1h-13V52.5H526v1.2C526,63.8,517.8,72.1,507.6,72.1z M497.1,69.6h10.5c8.4,0,15.3-6.5,15.9-14.7
			h-26.4V69.6z"/>
		<path class="st2" d="M500.1,66.6V58h19.7c-1.8,5-6.6,8.6-12.2,8.6H500.1z"/>
		<path class="st2" d="M403.5,74.3h-9.2v-1.8c0-8.4,3.3-16.4,9.2-22.3l0,0l0,0c5.9,5.9,9.2,13.9,9.2,22.3v1.8H403.5L403.5,74.3z"/>
		<path class="st0" d="M418.2,79.8h-29.4v-7.3c0-9.9,3.8-19.2,10.8-26.1l3.9-3.9l3.9,3.9c7,7,10.8,16.3,10.8,26.1V79.8z M404.8,77.3
			h11v-4.8c0-9.2-3.6-17.9-10.1-24.4l-2.1-2.1l-2.1,2.1c-6.5,6.5-10.1,15.2-10.1,24.4v4.8h11v-8.5h2.4l0,1.2V77.3z"/>
		<path class="st0" d="M404.3,115.4V113c6.1,0,11.1-5,11.1-11.1v-7.4h2.4v7.4C417.8,109.4,411.8,115.4,404.3,115.4z"/>
		<path class="st0" d="M403.5,110.8c-7.5,0-13.5-6.1-13.5-13.5v-3.6h2.4v3.6c0,6.1,5,11.1,11.1,11.1V110.8z"/>
		<path class="st0" d="M431,138.2c-15.9,0-28.7-12.9-28.7-28.8V62.3h2.4v47.2c0,14.5,11.8,26.3,26.3,26.3V138.2z"/>
		<path class="st0" d="M391.2,94.9c-2.8,0-5-2.3-5-5c0-2.8,2.3-5,5-5c2.8,0,5,2.3,5,5C396.2,92.7,394,94.9,391.2,94.9z M391.2,87.3
			c-1.4,0-2.6,1.2-2.6,2.6c0,1.4,1.2,2.6,2.6,2.6c1.4,0,2.6-1.2,2.6-2.6C393.8,88.5,392.6,87.3,391.2,87.3z"/>
		<path class="st0" d="M416.6,96.3c-2.8,0-5-2.3-5-5s2.3-5,5-5c2.8,0,5,2.3,5,5S419.4,96.3,416.6,96.3z M416.6,88.7
			c-1.4,0-2.6,1.2-2.6,2.6c0,1.4,1.2,2.6,2.6,2.6c1.4,0,2.6-1.2,2.6-2.6C419.2,89.9,418,88.7,416.6,88.7z"/>
		<path class="st0" d="M489.2,73.8h-2.4c0-7.5,6.1-13.5,13.5-13.5h7.4v2.4h-7.4C494.1,62.7,489.2,67.7,489.2,73.8z"/>
		<path class="st0" d="M489.2,75.9h-2.4c0-6.8-5.5-12.3-12.3-12.3h-8.2v-2.4h8.2C482.6,61.2,489.2,67.8,489.2,75.9z"/>
	</g>
	<g>
		<g>
			<g>
				<path class="st0" d="M630.4,193.2l-0.3-0.1c-13.8-5-20.3-13.1-23.4-19c-3.3-6.4-3.4-11.6-3.4-11.8v-26.5l0.7-0.1
					c16.1-1.8,25.8-8.6,25.9-8.7l0.4-0.3l0.4,0.3c0.1,0.1,9.8,6.9,25.9,8.7l0.7,0.1v26.5c0,0.2,0,5.4-3.4,11.8
					c-3.1,5.9-9.6,14-23.4,19L630.4,193.2z M604.9,137.1v25.2c0,0,0,5.1,3.2,11.2c2.9,5.6,9.2,13.3,22.3,18.1
					c13.1-4.8,19.4-12.5,22.3-18.1c3.2-6.1,3.2-11.2,3.2-11.2v-25.2c-14.4-1.7-23.5-7.2-25.5-8.5
					C628.3,129.9,619.3,135.4,604.9,137.1z"/>
			</g>
		</g>
		<g>
			<g>
				<path class="st4" d="M630.4,189.8c-23.3-8.9-23.8-26.7-23.8-27.5v-23.6c12.3-1.7,20.6-6.1,23.8-8c3.2,1.9,11.5,6.3,23.8,8v23.6
					C654.1,163.1,653.7,180.9,630.4,189.8z"/>
			</g>
		</g>
		<g>
			<g>
				<path class="st0" d="M630.4,187.9l-0.3-0.1c-0.5-0.2-0.9-0.4-1.4-0.6l0.6-1.4c0.4,0.2,0.7,0.3,1.1,0.5c0.2-0.1,0.4-0.2,0.6-0.2
					l0.6,1.4c-0.3,0.1-0.6,0.2-0.9,0.4L630.4,187.9z M633,186.8l-0.6-1.4c0.5-0.2,0.9-0.4,1.3-0.6l0.7,1.3
					C633.9,186.4,633.4,186.6,633,186.8z M627.3,186.6c-0.5-0.2-0.9-0.4-1.4-0.7l0.7-1.3c0.4,0.2,0.9,0.4,1.3,0.7L627.3,186.6z
					 M635.7,185.4l-0.7-1.3c0.4-0.2,0.9-0.5,1.3-0.7l0.8,1.3C636.6,184.9,636.1,185.2,635.7,185.4z M624.6,185.2
					c-0.5-0.3-0.9-0.5-1.3-0.8l0.8-1.3c0.4,0.2,0.8,0.5,1.3,0.7L624.6,185.2z M638.3,183.9l-0.8-1.3c0.4-0.3,0.8-0.5,1.2-0.8
					l0.9,1.2C639.2,183.3,638.8,183.6,638.3,183.9z M622,183.6c-0.4-0.3-0.9-0.6-1.3-0.9l0.9-1.2c0.4,0.3,0.8,0.6,1.2,0.8L622,183.6
					z M640.8,182.1l-0.9-1.2c0.4-0.3,0.8-0.6,1.1-0.9l1,1.2C641.6,181.5,641.2,181.8,640.8,182.1z M619.5,181.8
					c-0.4-0.3-0.8-0.6-1.2-1l1-1.1c0.4,0.3,0.7,0.6,1.1,0.9L619.5,181.8z M643.2,180.2l-1-1.1c0.4-0.3,0.7-0.7,1.1-1l1.1,1.1
					C643.9,179.5,643.6,179.8,643.2,180.2z M617.2,179.8c-0.4-0.3-0.7-0.7-1.1-1.1l1.1-1c0.3,0.4,0.7,0.7,1,1L617.2,179.8z
					 M645.4,178l-1.1-1c0.3-0.4,0.7-0.7,1-1.1l1.2,1C646,177.2,645.7,177.6,645.4,178z M615,177.6c-0.3-0.4-0.7-0.8-1-1.2l1.2-0.9
					c0.3,0.4,0.6,0.8,0.9,1.1L615,177.6z M647.3,175.6l-1.2-0.9c0.3-0.4,0.6-0.8,0.8-1.2l1.3,0.8
					C647.9,174.8,647.6,175.2,647.3,175.6z M613.1,175.2c-0.3-0.4-0.6-0.8-0.9-1.3l1.3-0.8c0.3,0.4,0.5,0.8,0.8,1.2L613.1,175.2z
					 M649,173.1l-1.3-0.8c0.2-0.4,0.5-0.9,0.7-1.3l1.3,0.7C649.5,172.2,649.3,172.6,649,173.1z M611.5,172.6
					c-0.2-0.4-0.5-0.9-0.7-1.4l1.4-0.7c0.2,0.4,0.4,0.9,0.7,1.3L611.5,172.6z M650.4,170.3l-1.4-0.6c0.2-0.4,0.4-0.9,0.5-1.3
					l1.4,0.5C650.8,169.4,650.6,169.8,650.4,170.3z M610.2,169.8c-0.2-0.5-0.4-1-0.6-1.4l1.4-0.5c0.2,0.5,0.3,0.9,0.5,1.4
					L610.2,169.8z M651.5,167.4L650,167c0.1-0.5,0.3-0.9,0.4-1.4l1.5,0.3C651.8,166.4,651.6,166.9,651.5,167.4z M609.1,166.9
					c-0.1-0.5-0.3-1-0.4-1.5l1.5-0.3c0.1,0.5,0.2,0.9,0.3,1.4L609.1,166.9z M652.2,164.4l-1.5-0.2c0.1-0.6,0.1-1.1,0.2-1.4l1.5,0.1
					C652.4,163.2,652.3,163.7,652.2,164.4z M608.5,163.8c-0.1-0.9-0.1-1.4-0.1-1.6l0.8,0h0.8c0,0.1,0,0.6,0.1,1.4L608.5,163.8z
					 M652.4,161.3h-1.5v-1.5h1.5V161.3z M609.9,160.7h-1.5v-1.5h1.5V160.7z M652.4,158.3h-1.5v-1.5h1.5V158.3z M609.9,157.7h-1.5
					v-1.5h1.5V157.7z M652.4,155.3h-1.5v-1.5h1.5V155.3z M609.9,154.7h-1.5v-1.5h1.5V154.7z M652.4,152.3h-1.5v-1.5h1.5V152.3z
					 M609.9,151.7h-1.5v-1.5h1.5V151.7z M652.4,149.3h-1.5v-1.5h1.5V149.3z M609.9,148.7h-1.5v-1.5h1.5V148.7z M652.4,146.3h-1.5
					v-1.5h1.5V146.3z M609.9,145.7h-1.5v-1.5h1.5V145.7z M652.4,143.3h-1.5v-1.5h1.5V143.3z M609.9,142.7h-1.5v-1.5h1.5V142.7z
					 M651,141.5c-0.5-0.1-1-0.2-1.5-0.3l0.3-1.5c0.5,0.1,1,0.2,1.5,0.3L651,141.5z M610.3,141.4l-0.3-1.5c0.5-0.1,1-0.2,1.5-0.3
					l0.3,1.5C611.3,141.2,610.8,141.3,610.3,141.4z M648,140.9c-0.5-0.1-1-0.2-1.5-0.3l0.4-1.5c0.5,0.1,1,0.2,1.4,0.3L648,140.9z
					 M613.3,140.7l-0.3-1.5c0.5-0.1,1-0.2,1.4-0.3l0.4,1.5C614.3,140.5,613.8,140.6,613.3,140.7z M645.1,140.1
					c-0.5-0.1-1-0.3-1.5-0.4l0.4-1.4c0.5,0.1,0.9,0.3,1.4,0.4L645.1,140.1z M616.2,140l-0.4-1.4c0.5-0.1,1-0.3,1.4-0.4l0.4,1.4
					C617.2,139.7,616.7,139.9,616.2,140z M642.2,139.3c-0.5-0.2-1-0.3-1.4-0.5l0.5-1.4c0.5,0.2,0.9,0.3,1.4,0.5L642.2,139.3z
					 M619.1,139.1l-0.5-1.4c0.5-0.2,1-0.3,1.4-0.5l0.5,1.4C620.1,138.8,619.6,139,619.1,139.1z M639.3,138.3c-0.5-0.2-1-0.4-1.4-0.5
					l0.5-1.4c0.5,0.2,0.9,0.3,1.4,0.5L639.3,138.3z M622,138.2l-0.5-1.4c0.5-0.2,0.9-0.4,1.4-0.5l0.5,1.4
					C623,137.8,622.5,138,622,138.2z M636.4,137.3c-0.5-0.2-1-0.4-1.4-0.6l0.6-1.4c0.4,0.2,0.9,0.4,1.4,0.6L636.4,137.3z M624.8,137
					l-0.6-1.4c0.5-0.2,0.9-0.4,1.4-0.6l0.6,1.4C625.8,136.6,625.3,136.8,624.8,137z M633.7,136c-0.5-0.2-0.9-0.4-1.4-0.7l0.7-1.3
					c0.4,0.2,0.9,0.4,1.3,0.6L633.7,136z M627.6,135.8l-0.6-1.4c0.5-0.2,0.9-0.4,1.3-0.7l0.7,1.3
					C628.6,135.4,628.1,135.6,627.6,135.8z M630.9,134.7c-0.2-0.1-0.4-0.2-0.5-0.3l-0.1,0l-0.1-0.1c-0.1,0-0.2-0.1-0.3-0.1l0.1-0.2
					l-0.5-0.9l0.8-0.4l0.4,0.2c0.3,0.2,0.6,0.3,0.9,0.5L630.9,134.7z"/>
			</g>
		</g>
		<g>
			<g>
				<polygon class="st0" points="628.7,192.5 558.3,192.5 558.3,99.7 648,99.7 648,134.9 646.5,134.9 646.5,101.2 559.8,101.2 
					559.8,191 628.7,191 				"/>
			</g>
		</g>
		<g>
			<g>
				<polygon class="st0" points="647.2,111.6 601,111.6 597.7,104.8 569.2,104.8 565.8,111.6 559.1,111.6 559.1,110.1 564.9,110.1 
					568.3,103.3 598.6,103.3 601.9,110.1 647.2,110.1 				"/>
			</g>
		</g>
		<g>
			<g>
				<path class="st0" d="M572.7,111.6c-1.5,0-2.8-1.3-2.8-2.8c0-1.5,1.3-2.8,2.8-2.8s2.8,1.3,2.8,2.8
					C575.5,110.4,574.3,111.6,572.7,111.6z M572.7,107.5c-0.7,0-1.3,0.6-1.3,1.3c0,0.7,0.6,1.3,1.3,1.3s1.3-0.6,1.3-1.3
					C574,108.1,573.4,107.5,572.7,107.5z"/>
			</g>
		</g>
		<g>
			<g>
				<path class="st0" d="M630.6,170c-3.1,0-5.6-2.5-5.6-5.6v-7.6c0-3.1,2.5-5.6,5.6-5.6s5.6,2.5,5.6,5.6v7.6
					C636.2,167.4,633.7,170,630.6,170z M630.6,152.7c-2.2,0-4.1,1.8-4.1,4.1v7.6c0,2.2,1.8,4.1,4.1,4.1s4.1-1.8,4.1-4.1v-7.6
					C634.7,154.5,632.8,152.7,630.6,152.7z"/>
			</g>
		</g>
		<g>
			<g>
				<path class="st0" d="M630.6,152.7c-2.1,0-3.8-1.7-3.8-3.8v-1.5c0-2.1,1.7-3.8,3.8-3.8s3.8,1.7,3.8,3.8v1.5
					C634.4,151,632.7,152.7,630.6,152.7z M630.6,145.1c-1.3,0-2.3,1-2.3,2.3v1.5c0,1.3,1,2.3,2.3,2.3c1.3,0,2.3-1,2.3-2.3v-1.5
					C632.9,146.2,631.8,145.1,630.6,145.1z"/>
			</g>
		</g>
		<g>
			<g>
				<rect x="635.4" y="160" class="st0" width="7.1" height="1.5"/>
			</g>
		</g>
		<g>
			<g>
				<rect x="618.5" y="160" class="st0" width="7" height="1.5"/>
			</g>
		</g>
		<g>
			<g>
				<polygon class="st0" points="625.6,155.6 622.6,155.6 617.9,149.7 619.1,148.8 623.3,154.1 625.6,154.1 				"/>
			</g>
		</g>
		<g>
			<g>
				<polygon class="st0" points="638.4,155.6 635.4,155.6 635.4,154.1 637.6,154.1 641.9,148.8 643.1,149.7 				"/>
			</g>
		</g>
		<g>
			<g>
				<polygon class="st0" points="641.9,172.4 637.6,167.1 635.4,167.1 635.4,165.6 638.4,165.6 643.1,171.5 				"/>
			</g>
		</g>
		<g>
			<g>
				<polygon class="st0" points="619.1,172.4 617.9,171.5 622.6,165.6 625.6,165.6 625.6,167.1 623.3,167.1 				"/>
			</g>
		</g>
		<g>
			<g>
				
					<rect x="627.5" y="141.6" transform="matrix(0.9038 -0.4279 0.4279 0.9038 -0.8749 282.6541)" class="st0" width="1.5" height="3.4"/>
			</g>
		</g>
		<g>
			<g>
				
					<rect x="630.5" y="142.5" transform="matrix(0.4279 -0.9038 0.9038 0.4279 232.2132 653.3849)" class="st0" width="3.4" height="1.5"/>
			</g>
		</g>
		<g>
			<g>
				<rect x="629.8" y="152" class="st0" width="1.5" height="12.3"/>
			</g>
		</g>
		<g>
			<g>
				<rect x="607.1" y="116.5" class="st0" width="27.8" height="1.5"/>
			</g>
		</g>
		<g>
			<g>
				<rect x="599.2" y="122" class="st0" width="35.7" height="1.5"/>
			</g>
		</g>
		<g>
			<g>
				<path class="st0" d="M588.5,158.9H572v-42.4h16.5V158.9z M573.5,157.4H587V118h-13.5V157.4z"/>
			</g>
		</g>
		<g>
			<g>
				<rect x="575.3" y="119.8" class="st2" width="10" height="35.8"/>
			</g>
		</g>
		<g>
			<g>
				<path class="st0" d="M588.5,181.4H572v-16.5h16.5V181.4z M573.5,179.9H587v-13.5h-13.5V179.9z"/>
			</g>
		</g>
		<g>
			<g>
				<rect x="575.3" y="168.2" class="st3" width="10" height="10"/>
			</g>
		</g>
	</g>
	<g>
		<g>
			<g>
				<g>
					<path class="st0" d="M203.1,148.6c-9.4,0-17-7.6-17-17c0-9.4,7.6-17,17-17c9.4,0,17,7.6,17,17C220,141,212.4,148.6,203.1,148.6
						z M203.1,115.6c-8.8,0-16,7.2-16,16c0,8.8,7.2,16,16,16s16-7.2,16-16C219.1,122.8,211.9,115.6,203.1,115.6z"/>
				</g>
			</g>
			<g>
				<g>
					<path class="st2" d="M203.1,146c-7.9,0-14.4-6.5-14.4-14.4c0-7.9,6.5-14.4,14.4-14.4c7.9,0,14.4,6.5,14.4,14.4
						C217.4,139.6,211,146,203.1,146z"/>
				</g>
			</g>
			<g>
				<g>
					<path class="st0" d="M203.1,140.8c-9.4,0-17-4.1-17-9.1c0-5,7.6-9.1,17-9.1c9.4,0,17,4.1,17,9.1
						C220,136.7,212.4,140.8,203.1,140.8z M203.1,123.5c-8.8,0-16,3.7-16,8.1c0,4.5,7.2,8.1,16,8.1s16-3.7,16-8.1
						C219.1,127.2,211.9,123.5,203.1,123.5z"/>
				</g>
			</g>
			<g>
				<g>
					<path class="st0" d="M203.1,148.6c-4.7,0-8.3-7.5-8.3-17c0-9.5,3.7-17,8.3-17c4.7,0,8.3,7.5,8.3,17
						C211.4,141.2,207.7,148.6,203.1,148.6z M203.1,115.6c-4,0-7.4,7.3-7.4,16c0,8.7,3.4,16,7.4,16c4,0,7.4-7.3,7.4-16
						C210.4,123,207,115.6,203.1,115.6z"/>
				</g>
			</g>
			<g>
				<g>
					<rect x="186.6" y="131.2" class="st0" width="33" height="1"/>
				</g>
			</g>
			<g>
				<g>
					<rect x="202.6" y="115.2" class="st0" width="1" height="33"/>
				</g>
			</g>
		</g>
		<g>
			<g>
				<g>
					<g>
						<path class="st0" d="M195.9,193.2h-29c-2.3,0-4.2-1.9-4.2-4.2v-0.5H200v0.5C200,191.4,198.1,193.2,195.9,193.2z M163.7,189.6
							c0.2,1.5,1.6,2.7,3.2,2.7h29c1.6,0,2.9-1.2,3.2-2.7H163.7z"/>
					</g>
				</g>
				<g>
					<g>
						<path class="st0" d="M185.2,191.3h-7.7c-1.2,0-2.1-1-2.1-2.1v-0.5h11.9v0.5C187.3,190.3,186.4,191.3,185.2,191.3z
							 M176.5,189.6c0.2,0.4,0.6,0.7,1.1,0.7h7.7c0.5,0,0.9-0.3,1.1-0.7H176.5z"/>
					</g>
				</g>
				<g>
					<g>
						<path class="st0" d="M194.8,189.6h-26.9c-0.5,0-0.9-0.1-1.3-0.3c-0.1,0-0.2-0.1-0.2-0.1c-0.5-0.4-0.9-0.9-1.1-1.5
							c-0.1-0.3-0.1-0.6-0.1-0.8v-18.9c0-1.6,1.3-2.8,2.8-2.8h26.9c1.6,0,2.8,1.3,2.8,2.8v18.9c0,0.3,0,0.6-0.1,0.8
							c-0.2,0.6-0.6,1.1-1.1,1.5c-0.1,0.1-0.2,0.1-0.2,0.1C195.8,189.5,195.3,189.6,194.8,189.6z M167.9,166c-1,0-1.9,0.8-1.9,1.9
							v18.9c0,0.2,0,0.4,0.1,0.6c0.1,0.4,0.4,0.8,0.7,1c0.1,0,0.1,0.1,0.2,0.1c0.3,0.1,0.6,0.2,0.9,0.2h26.9c0.3,0,0.6-0.1,0.9-0.2
							c0.1,0,0.1-0.1,0.2-0.1c0.4-0.2,0.6-0.6,0.7-1c0.1-0.2,0.1-0.4,0.1-0.6v-18.9c0-1-0.8-1.9-1.9-1.9H167.9z"/>
					</g>
				</g>
				<g>
					<g>
						<circle class="st3" cx="181.4" cy="167.4" r="0.6"/>
					</g>
				</g>
				<g>
					<g>
						<path class="st0" d="M194.7,186.2h-26.5v-17.6h26.5V186.2z M169.1,185.3h24.6v-15.7h-24.6V185.3z"/>
					</g>
				</g>
				<g>
					<g>
						<rect x="170.3" y="170.7" class="st1" width="22.4" height="13.5"/>
					</g>
				</g>
			</g>
			<g>
				<g>
					<g>
						<path class="st0" d="M239.2,193.2h-29c-2.3,0-4.2-1.9-4.2-4.2v-0.5h37.3v0.5C243.4,191.4,241.5,193.2,239.2,193.2z
							 M207.1,189.6c0.2,1.5,1.6,2.7,3.2,2.7h29c1.6,0,2.9-1.2,3.2-2.7H207.1z"/>
					</g>
				</g>
				<g>
					<g>
						<path class="st0" d="M228.6,191.3h-7.7c-1.2,0-2.1-1-2.1-2.1v-0.5h11.9v0.5C230.7,190.3,229.7,191.3,228.6,191.3z
							 M219.8,189.6c0.2,0.4,0.6,0.7,1.1,0.7h7.7c0.5,0,0.9-0.3,1.1-0.7H219.8z"/>
					</g>
				</g>
				<g>
					<g>
						<path class="st0" d="M238.2,189.6h-26.9c-0.5,0-0.9-0.1-1.3-0.3c-0.1,0-0.2-0.1-0.2-0.1c-0.5-0.4-0.9-0.9-1.1-1.5
							c-0.1-0.3-0.1-0.6-0.1-0.8v-18.9c0-1.6,1.3-2.8,2.8-2.8h26.9c1.6,0,2.8,1.3,2.8,2.8v18.9c0,0.3,0,0.6-0.1,0.8
							c-0.2,0.6-0.6,1.1-1.1,1.5c-0.1,0.1-0.2,0.1-0.2,0.1C239.1,189.5,238.7,189.6,238.2,189.6z M211.3,166c-1,0-1.9,0.8-1.9,1.9
							v18.9c0,0.2,0,0.4,0.1,0.6c0.1,0.4,0.4,0.8,0.7,1c0,0,0.1,0.1,0.2,0.1c0.3,0.1,0.6,0.2,0.9,0.2h26.9c0.3,0,0.6-0.1,0.9-0.2
							c0.1,0,0.1-0.1,0.2-0.1c0.4-0.2,0.6-0.6,0.7-1c0.1-0.2,0.1-0.4,0.1-0.6v-18.9c0-1-0.8-1.9-1.9-1.9H211.3z"/>
					</g>
				</g>
				<g>
					<g>
						<path class="st3" d="M225.3,167.4c0,0.3-0.3,0.6-0.6,0.6c-0.3,0-0.6-0.3-0.6-0.6s0.3-0.6,0.6-0.6
							C225.1,166.8,225.3,167.1,225.3,167.4z"/>
					</g>
				</g>
				<g>
					<g>
						<path class="st0" d="M238.1,186.2h-26.6v-17.6h26.6V186.2z M212.5,185.3h24.6v-15.7h-24.6V185.3z"/>
					</g>
				</g>
				<g>
					<g>
						<rect x="213.6" y="170.7" class="st1" width="22.4" height="13.5"/>
					</g>
				</g>
			</g>
			<g>
				<g>
					<rect x="165.7" y="154.3" class="st0" width="74.8" height="1"/>
				</g>
			</g>
			<g>
				<g>
					<rect x="202.7" y="148.4" class="st0" width="1" height="6.4"/>
				</g>
			</g>
			<g>
				<g>
					<rect x="180.3" y="154.8" class="st0" width="1" height="10.8"/>
				</g>
			</g>
			<g>
				<g>
					<rect x="224.3" y="154.8" class="st0" width="1" height="10.8"/>
				</g>
			</g>
			<g>
				<g>
					
						<ellipse transform="matrix(0.7071 -0.7071 0.7071 0.7071 -49.9247 188.9979)" class="st5" cx="203.2" cy="154.8" rx="2.6" ry="2.6"/>
				</g>
			</g>
			<g>
				<g>
					
						<ellipse transform="matrix(0.1979 -0.9802 0.9802 0.1979 -6.6978 301.3413)" class="st5" cx="180.8" cy="154.8" rx="2.6" ry="2.6"/>
				</g>
			</g>
			<g>
				<g>
					<path class="st3" d="M180.8,155.8c-0.6,0-1.1-0.5-1.1-1.1c0-0.6,0.5-1.1,1.1-1.1c0.6,0,1.1,0.5,1.1,1.1
						C181.8,155.3,181.4,155.8,180.8,155.8z"/>
				</g>
			</g>
			<g>
				<g>
					
						<ellipse transform="matrix(0.2289 -0.9734 0.9734 0.2289 22.6338 338.1012)" class="st5" cx="224.7" cy="154.8" rx="2.6" ry="2.6"/>
				</g>
			</g>
			<g>
				<g>
					<path class="st0" d="M203.2,157.9c-1.7,0-3.1-1.4-3.1-3.1c0-1.7,1.4-3.1,3.1-3.1s3.1,1.4,3.1,3.1
						C206.3,156.5,204.9,157.9,203.2,157.9z M203.2,152.6c-1.2,0-2.2,1-2.2,2.2c0,1.2,1,2.2,2.2,2.2c1.2,0,2.2-1,2.2-2.2
						C205.3,153.6,204.4,152.6,203.2,152.6z"/>
				</g>
			</g>
			<g>
				<g>
					<path class="st3" d="M203.2,155.8c-0.6,0-1.1-0.5-1.1-1.1c0-0.6,0.5-1.1,1.1-1.1c0.6,0,1.1,0.5,1.1,1.1
						C204.2,155.3,203.8,155.8,203.2,155.8z"/>
				</g>
			</g>
			<g>
				<g>
					<path class="st0" d="M180.8,157.9c-1.7,0-3.1-1.4-3.1-3.1c0-1.7,1.4-3.1,3.1-3.1c1.7,0,3.1,1.4,3.1,3.1
						C183.9,156.5,182.5,157.9,180.8,157.9z M180.8,152.6c-1.2,0-2.2,1-2.2,2.2c0,1.2,1,2.2,2.2,2.2c1.2,0,2.2-1,2.2-2.2
						C183,153.6,182,152.6,180.8,152.6z"/>
				</g>
			</g>
			<g>
				<g>
					<path class="st0" d="M224.7,157.9c-1.7,0-3.1-1.4-3.1-3.1c0-1.7,1.4-3.1,3.1-3.1c1.7,0,3.1,1.4,3.1,3.1
						C227.9,156.5,226.5,157.9,224.7,157.9z M224.7,152.6c-1.2,0-2.2,1-2.2,2.2c0,1.2,1,2.2,2.2,2.2c1.2,0,2.2-1,2.2-2.2
						C226.9,153.6,225.9,152.6,224.7,152.6z"/>
				</g>
			</g>
			<g>
				<g>
					<path class="st3" d="M224.7,155.8c-0.6,0-1.1-0.5-1.1-1.1c0-0.6,0.5-1.1,1.1-1.1c0.6,0,1.1,0.5,1.1,1.1
						C225.8,155.3,225.3,155.8,224.7,155.8z"/>
				</g>
			</g>
		</g>
	</g>
	<g>
		<g>
			<path class="st0" d="M671.6,170.5h29v12.1h-29V170.5z M699.3,171.8h-26.4v9.5h26.4V171.8z"/>
			<rect x="674.4" y="173.3" class="st3" width="12.4" height="6.5"/>
			<path class="st0" d="M671.6,181.3h29v12h-29V181.3z M699.3,182.6h-26.4v9.4h26.4V182.6z"/>
			<rect x="674.4" y="184.1" class="st3" width="12.4" height="6.4"/>
			<path class="st0" d="M692.7,176.5c0-1.1,0.9-1.9,1.9-1.9c1.1,0,1.9,0.9,1.9,1.9c0,1.1-0.9,1.9-1.9,1.9
				C693.6,178.5,692.7,177.6,692.7,176.5z M694,176.5c0,0.4,0.3,0.6,0.6,0.6c0.4,0,0.6-0.3,0.6-0.6c0-0.4-0.3-0.6-0.6-0.6
				C694.3,175.9,694,176.2,694,176.5z"/>
			<path class="st0" d="M674.8,176.5c0-1.1,0.9-1.9,1.9-1.9s1.9,0.9,1.9,1.9c0,1.1-0.9,1.9-1.9,1.9S674.8,177.6,674.8,176.5z
				 M676.1,176.5c0,0.4,0.3,0.6,0.6,0.6s0.6-0.3,0.6-0.6c0-0.4-0.3-0.6-0.6-0.6S676.1,176.2,676.1,176.5z"/>
			<path class="st0" d="M692.7,187.3c0-1.1,0.9-1.9,1.9-1.9c1.1,0,1.9,0.9,1.9,1.9s-0.9,1.9-1.9,1.9
				C693.6,189.3,692.7,188.4,692.7,187.3z M694,187.3c0,0.4,0.3,0.6,0.6,0.6c0.4,0,0.6-0.3,0.6-0.6s-0.3-0.6-0.6-0.6
				C694.3,186.7,694,187,694,187.3z"/>
			<path class="st0" d="M674.8,187.3c0-1.1,0.9-1.9,1.9-1.9s1.9,0.9,1.9,1.9s-0.9,1.9-1.9,1.9S674.8,188.4,674.8,187.3z
				 M676.1,187.3c0,0.4,0.3,0.6,0.6,0.6s0.6-0.3,0.6-0.6s-0.3-0.6-0.6-0.6S676.1,187,676.1,187.3z"/>
		</g>
		<g>
			<g>
				<g>
					<path class="st2" d="M676.7,138.7h-3.9V138c0-3.5,1.4-6.9,3.9-9.4l0,0l0,0c2.5,2.5,3.9,5.9,3.9,9.4v0.8H676.7L676.7,138.7z"/>
				</g>
			</g>
			<g>
				<g>
					<path class="st0" d="M682.9,141h-12.4V138c0-4.2,1.6-8.1,4.6-11l1.6-1.6l1.6,1.6c2.9,2.9,4.6,6.8,4.6,11V141z M677.2,140h4.6
						v-2c0-3.9-1.5-7.5-4.3-10.3l-0.9-0.9l-0.9,0.9c-2.7,2.7-4.3,6.4-4.3,10.3v2h4.6v-3.6h1l0,0.5V140z"/>
				</g>
			</g>
			<g>
				<g>
					<path class="st0" d="M677,156v-1c2.6,0,4.7-2.1,4.7-4.7v-3.1h1v3.1C682.7,153.5,680.1,156,677,156z"/>
				</g>
			</g>
			<g>
				<g>
					<path class="st0" d="M676.7,154.1c-3.1,0-5.7-2.6-5.7-5.7v-1.5h1v1.5c0,2.6,2.1,4.7,4.7,4.7V154.1z"/>
				</g>
			</g>
			<g>
				<g>
					<path class="st0" d="M688.3,165.6c-6.7,0-12.1-5.4-12.1-12.1v-19.9h1v19.9c0,6.1,5,11.1,11.1,11.1V165.6z"/>
				</g>
			</g>
			<g>
				<g>
					<path class="st0" d="M671.5,147.4c-1.2,0-2.1-0.9-2.1-2.1c0-1.2,0.9-2.1,2.1-2.1s2.1,0.9,2.1,2.1
						C673.6,146.5,672.7,147.4,671.5,147.4z M671.5,144.2c-0.6,0-1.1,0.5-1.1,1.1c0,0.6,0.5,1.1,1.1,1.1s1.1-0.5,1.1-1.1
						C672.6,144.7,672.1,144.2,671.5,144.2z"/>
				</g>
			</g>
			<g>
				<g>
					<path class="st0" d="M682.2,148c-1.2,0-2.1-0.9-2.1-2.1s0.9-2.1,2.1-2.1c1.2,0,2.1,0.9,2.1,2.1S683.3,148,682.2,148z
						 M682.2,144.8c-0.6,0-1.1,0.5-1.1,1.1c0,0.6,0.5,1.1,1.1,1.1c0.6,0,1.1-0.5,1.1-1.1C683.3,145.3,682.8,144.8,682.2,144.8z"/>
				</g>
			</g>
		</g>
		<path class="st5" d="M692.6,135h56.3c2.3,0,4.2,1.9,4.2,4.2v34.5c0,2.3-1.9,4.2-4.2,4.2h-56.3c-2.3,0-4.2-1.9-4.2-4.2v-34.5
			C688.4,136.9,690.3,135,692.6,135z"/>
		<path class="st0" d="M688.2,173.8v-34.8c0-2.3,1.9-4.2,4.2-4.2h56.8c2.3,0,4.2,1.9,4.2,4.2v34.8c0,2.3-1.9,4.2-4.2,4.2h-56.8
			C690,178.1,688.2,176.2,688.2,173.8z M692.4,136.1c-1.6,0-2.9,1.3-2.9,2.9v34.8c0,1.6,1.3,2.9,2.9,2.9h56.8c1.6,0,2.9-1.3,2.9-2.9
			v-34.8c0-1.6-1.3-2.9-2.9-2.9H692.4z"/>
		<path class="st0" d="M693.2,139.9h55.1V173h-55.1V139.9z M747,141.2h-52.5v30.5H747V141.2z"/>
		<path class="st0" d="M699.3,187.6h9.6l2.8-10.8h17.1l2.8,10.8h9.6v5.7h-42.1V187.6z M740.1,188.9h-9.3l-2.8-10.8h-15.1l-2.8,10.8
			h-9.3v3.1h39.5V188.9z"/>
		<polygon class="st1" points="712.5,185 714,179.6 726.8,179.6 728.2,185 		"/>
		<polygon class="st3" points="731.3,156.4 731.3,156.4 731.3,156.4 		"/>
		<rect x="700.1" y="147.7" class="st0" width="15.9" height="1.3"/>
		<rect x="700.1" y="151.7" class="st0" width="15.9" height="1.3"/>
		<rect x="700.1" y="155.6" class="st0" width="15.9" height="1.3"/>
		<rect x="700.1" y="159.6" class="st0" width="15.9" height="1.3"/>
		<rect x="707.5" y="163.5" class="st0" width="8.6" height="1.3"/>
		<path class="st0" d="M731.2,147c5.1,0,9.3,4.2,9.3,9.3s-4.2,9.3-9.3,9.3c-5.1,0-9.3-4.2-9.3-9.3S726.1,147,731.2,147 M731.2,145.8
			c-5.8,0-10.6,4.7-10.6,10.6s4.7,10.6,10.6,10.6c5.8,0,10.6-4.7,10.6-10.6S737.1,145.8,731.2,145.8L731.2,145.8z"/>
		<g>
			<path class="st1" d="M723.1,156.4c0-1.5,0.4-2.8,1.1-4.1c0.7-1.3,1.7-2.2,3-3s2.6-1.1,4.1-1.1s2.8,0.4,4.1,1.1s2.2,1.7,3,3
				c0.7,1.3,1.1,2.6,1.1,4.1s-0.4,2.8-1.1,4.1c-0.7,1.3-1.7,2.2-3,3c-1.3,0.7-2.6,1.1-4.1,1.1s-2.8-0.4-4.1-1.1
				c-1.3-0.7-2.2-1.7-3-3C723.4,159.2,723.1,157.8,723.1,156.4z"/>
		</g>
	</g>
	<g>
		<rect y="181.2" class="st0" width="130" height="2"/>
		<rect x="40" y="166.2" class="st0" width="80" height="2"/>
		<rect x="790" y="181.2" class="st0" width="130" height="2"/>
		<rect x="800" y="166.2" class="st0" width="80" height="2"/>
		<rect x="80" y="191.2" class="st0" width="760" height="2"/>
	</g>
	<g>
		<g>
			<g>
				<path class="st6" d="M295.4,32.9l-1-0.3l0.1-1c0-0.3,0-0.7,0-1c0-5.5-4.5-10-10-10c-4.1,0-7.9,2.6-9.3,6.4l-0.3,0.9l-0.9-0.1
					c-0.2,0-0.4,0-0.6,0c-3.5,0-6.4,2.9-6.4,6.4c0,3.5,2.9,6.4,6.4,6.4h21c2.2,0,3.9-1.8,3.9-3.9C298.2,35,297.1,33.4,295.4,32.9z"
					/>
			</g>
		</g>
		<g>
			<g>
				<path class="st6" d="M657.7,26l-1.3-0.4l0.1-1.3c0-0.4,0.1-0.8,0.1-1.3c0-7.2-5.8-13-13-13c-5.3,0-10.2,3.4-12.1,8.4l-0.4,1.1
					l-1.2-0.1c-0.3,0-0.5,0-0.8,0c-4.6,0-8.3,3.7-8.3,8.3s3.7,8.3,8.3,8.3h27.3c2.8,0,5.1-2.3,5.1-5.1
					C661.4,28.6,659.9,26.6,657.7,26z"/>
			</g>
		</g>
	</g>
</g>
</svg>
