<?xml version="1.0" encoding="utf-8"?>
<!-- Generator: Adobe Illustrator 23.0.3, SVG Export Plug-In . SVG Version: 6.00 Build 0)  -->
<svg version="1.1" id="Layer_1" xmlns="http://www.w3.org/2000/svg" xmlns:xlink="http://www.w3.org/1999/xlink" x="0px" y="0px"
	 viewBox="0 0 25.4 30" style="enable-background:new 0 0 25.4 30;" xml:space="preserve">
<style type="text/css">
	.st0{fill:#4A555F;}
	.st1{fill:#71CDE1;}
	.st2{fill:#F68F6F;}
</style>
<g>
	<g>
		<path class="st0" d="M12.7,22c-2,0-4.1-0.6-5.9-1.9c-0.2-0.2-0.3-0.5-0.1-0.7c0.2-0.2,0.5-0.3,0.7-0.1c3.6,2.6,8.5,2.2,11.7-0.9
			c3.5-3.5,3.5-9.2,0-12.8C15.6,2,9.8,2,6.3,5.6c-3.5,3.5-3.5,9.2,0,12.8l0.1,0.1c0.2,0.2,0.2,0.5,0,0.7c-0.2,0.2-0.5,0.2-0.7,0
			L5.6,19c-3.9-3.9-3.9-10.2,0-14.1C9.5,1,15.9,1,19.8,4.9c3.9,3.9,3.9,10.2,0,14.1C17.8,21,15.3,22,12.7,22z M12.7,17.2
			c-1.3,0-2.7-0.5-3.7-1.5c-2-2-2-5.4,0-7.4c2-2,5.4-2,7.4,0c2,2,2,5.4,0,7.4C15.4,16.7,14,17.2,12.7,17.2z M12.7,7.7
			c-1.1,0-2.2,0.4-3,1.2c-1.7,1.7-1.7,4.4,0,6c1.7,1.7,4.4,1.7,6,0c1.7-1.7,1.7-4.4,0-6C14.9,8.1,13.8,7.7,12.7,7.7z"/>
	</g>
	<g>
		<path class="st1" d="M12.7,20.3c-1.8,0-3.5-0.5-4.9-1.6l-0.9-0.8l-0.1-0.1C3.5,14.6,3.5,9.3,6.8,6c1.6-1.6,3.7-2.4,5.9-2.4
			S17,4.4,18.6,6c3.3,3.3,3.3,8.6,0,11.8C17,19.4,14.9,20.3,12.7,20.3C12.7,20.3,12.7,20.3,12.7,20.3z M12.7,6.1
			c-1.6,0-3.1,0.6-4.2,1.7c-1.1,1.1-1.7,2.6-1.7,4.2s0.6,3.1,1.7,4.2c1.1,1.1,2.6,1.7,4.2,1.7s3.1-0.6,4.2-1.7c2.3-2.3,2.3-6,0-8.3
			C15.8,6.7,14.3,6.1,12.7,6.1z"/>
	</g>
	<g>
		<path class="st0" d="M12.7,14.6c-0.7,0-1.4-0.3-1.9-0.8c-1.1-1.1-1.1-2.8,0-3.8s2.8-1.1,3.8,0s1.1,2.8,0,3.8
			C14.1,14.4,13.4,14.6,12.7,14.6z M12.7,10.2c-0.4,0-0.9,0.2-1.2,0.5c-0.7,0.7-0.7,1.8,0,2.5c0.7,0.7,1.8,0.7,2.5,0
			c0.7-0.7,0.7-1.8,0-2.5C13.6,10.4,13.2,10.2,12.7,10.2z"/>
	</g>
	<g>
		<path class="st2" d="M12.7,13c-0.3,0-0.6-0.1-0.8-0.3c-0.2-0.2-0.3-0.5-0.3-0.8c0-0.3,0.1-0.6,0.3-0.8c0.2-0.2,0.5-0.3,0.8-0.3
			c0.3,0,0.6,0.1,0.8,0.3c0.4,0.4,0.4,1.1,0,1.5C13.3,12.9,13,13,12.7,13z"/>
	</g>
	<g>
		<path class="st0" d="M2.8,3.6c-0.5,0-0.9-0.4-0.9-0.9s0.4-0.9,0.9-0.9s0.9,0.4,0.9,0.9S3.2,3.6,2.8,3.6z M2.8,2.7
			c-0.1,0-0.1,0.1-0.1,0.1c0,0.1,0.2,0.1,0.2,0C2.9,2.7,2.8,2.7,2.8,2.7z"/>
	</g>
	<g>
		<path class="st0" d="M4.4,22.9c-0.5,0-0.8-0.4-0.8-0.8c0-0.5,0.4-0.8,0.8-0.8s0.8,0.4,0.8,0.8C5.2,22.5,4.8,22.9,4.4,22.9z
			 M4.4,21.9c-0.1,0-0.1,0.1-0.1,0.1c0,0.2,0.3,0.2,0.3,0C4.5,22,4.4,21.9,4.4,21.9z"/>
	</g>
	<g>
		<path class="st0" d="M22.7,3.6c-0.5,0-0.9-0.4-0.9-0.9s0.4-0.9,0.9-0.9c0.5,0,0.9,0.4,0.9,0.9S23.1,3.6,22.7,3.6z M22.7,2.7
			c-0.1,0-0.1,0.1-0.1,0.1c0,0.1,0.2,0.1,0.2,0C22.8,2.7,22.7,2.7,22.7,2.7z"/>
	</g>
	<g>
		<path class="st0" d="M2.8,28.1c-0.5,0-0.9-0.4-0.9-0.9c0-0.5,0.4-0.9,0.9-0.9s0.9,0.4,0.9,0.9C3.6,27.7,3.2,28.1,2.8,28.1z
			 M2.8,27.1c-0.1,0-0.1,0.1-0.1,0.1c0,0.1,0.2,0.1,0.2,0C2.9,27.2,2.8,27.1,2.8,27.1z"/>
	</g>
	<g>
		<path class="st0" d="M22.7,28.1c-0.5,0-0.9-0.4-0.9-0.9c0-0.5,0.4-0.9,0.9-0.9c0.5,0,0.9,0.4,0.9,0.9
			C23.5,27.7,23.1,28.1,22.7,28.1z M22.7,27.1c-0.1,0-0.1,0.1-0.1,0.1c0,0.1,0.2,0.1,0.2,0C22.8,27.2,22.7,27.1,22.7,27.1z"/>
	</g>
	<g>
		<path class="st0" d="M17.9,30H7.5C3.4,30,0,26.6,0,22.5v-15C0,3.4,3.4,0,7.5,0h10.4c4.1,0,7.5,3.4,7.5,7.5v15
			C25.4,26.6,22.1,30,17.9,30z M7.5,1C3.9,1,1,3.9,1,7.5v15C1,26.1,3.9,29,7.5,29h10.4c3.6,0,6.5-2.9,6.5-6.5v-15
			c0-3.6-2.9-6.5-6.5-6.5H7.5z"/>
	</g>
	<g>
		<path class="st0" d="M4.4,24.3c-0.5,0-1-0.2-1.4-0.5c-1-0.8-1.1-2.2-0.4-3.2c0.5-0.6,3.1-2.5,5.1-4c0.2-0.2,0.6-0.2,0.8,0
			c0.2,0.2,0.3,0.5,0.2,0.8c-0.9,2.4-2.2,5.3-2.6,5.9l0,0C5.7,24,5,24.3,4.4,24.3z M7.5,18.1c-2.3,1.7-3.9,2.9-4.1,3.2
			c-0.2,0.3-0.3,0.6-0.3,0.9c0,0.3,0.2,0.6,0.5,0.9c0.3,0.2,0.6,0.3,0.9,0.3c0.3,0,0.6-0.2,0.9-0.5C5.7,22.5,6.5,20.7,7.5,18.1z
			 M5.8,23.2L5.8,23.2L5.8,23.2z"/>
	</g>
	<g>
		<path class="st0" d="M8.6,30c-0.3,0-0.5-0.2-0.5-0.5v-3.9c0-0.3,0.2-0.5,0.5-0.5s0.5,0.2,0.5,0.5v3.9C9.1,29.8,8.8,30,8.6,30z"/>
	</g>
	<g>
		<path class="st0" d="M11.3,30c-0.3,0-0.5-0.2-0.5-0.5v-2.6c0-0.3,0.2-0.5,0.5-0.5s0.5,0.2,0.5,0.5v2.6C11.8,29.8,11.6,30,11.3,30z
			"/>
	</g>
	<g>
		<path class="st0" d="M14.1,30c-0.3,0-0.5-0.2-0.5-0.5v-2.6c0-0.3,0.2-0.5,0.5-0.5s0.5,0.2,0.5,0.5v2.6C14.6,29.8,14.4,30,14.1,30z
			"/>
	</g>
	<g>
		<path class="st0" d="M16.8,30c-0.3,0-0.5-0.2-0.5-0.5v-3.9c0-0.3,0.2-0.5,0.5-0.5s0.5,0.2,0.5,0.5v3.9C17.3,29.8,17.1,30,16.8,30z
			"/>
	</g>
</g>
</svg>
