<?xml version="1.0" encoding="utf-8"?>
<!-- Generator: Adobe Illustrator 23.0.3, SVG Export Plug-In . SVG Version: 6.00 Build 0)  -->
<svg version="1.1" id="Layer_1" xmlns="http://www.w3.org/2000/svg" xmlns:xlink="http://www.w3.org/1999/xlink" x="0px" y="0px"
	 viewBox="0 0 30 30" style="enable-background:new 0 0 30 30;" xml:space="preserve">
<style type="text/css">
	.st0{fill:#4A555F;}
	.st1{fill:#71CDE1;}
	.st2{fill:#F68F6F;}
</style>
<g>
	<g>
		<path class="st0" d="M4.8,28.3c-0.1,0-0.2,0-0.2-0.1c-0.1-0.1-0.1-0.3,0-0.4L27.8,4.6c0.1-0.1,0.3-0.1,0.4,0
			c0.1,0.1,0.1,0.3,0,0.4L5,28.2C4.9,28.3,4.9,28.3,4.8,28.3z"/>
	</g>
	<g>
		<path class="st0" d="M5.6,25.6c-0.1,0-0.2,0-0.2-0.1L2.9,23c-0.1-0.1-0.1-0.1-0.1-0.2s0-0.2,0.1-0.2L4.5,21c0.1-0.1,0.3-0.1,0.4,0
			c0.1,0.1,0.1,0.3,0,0.4l-1.4,1.3l2.3,2.3c0.1,0.1,0.1,0.3,0,0.4C5.8,25.5,5.7,25.6,5.6,25.6z"/>
	</g>
	<g>
		<path class="st0" d="M8.7,22.6c-0.1,0-0.2,0-0.2-0.1l-2.5-2.5c-0.1-0.1-0.1-0.1-0.1-0.2s0-0.2,0.1-0.2L7.5,18
			c0.1-0.1,0.3-0.1,0.4,0c0.1,0.1,0.1,0.3,0,0.4l-1.4,1.4L8.9,22c0.1,0.1,0.1,0.3,0,0.4C8.8,22.5,8.7,22.6,8.7,22.6z"/>
	</g>
	<g>
		<path class="st0" d="M11.7,19.6c-0.1,0-0.2,0-0.2-0.1l-2.5-2.5c-0.1-0.1-0.1-0.3,0-0.4l1.6-1.6c0.1-0.1,0.3-0.1,0.4,0
			s0.1,0.3,0,0.4l-1.4,1.4l2.3,2.3c0.1,0.1,0.1,0.3,0,0.4C11.8,19.5,11.7,19.6,11.7,19.6z"/>
	</g>
	<g>
		<path class="st0" d="M14.7,16.5c-0.1,0-0.2,0-0.2-0.1l-2.5-2.5c-0.1-0.1-0.1-0.3,0-0.4l1.6-1.6c0.1-0.1,0.3-0.1,0.4,0
			c0.1,0.1,0.1,0.3,0,0.4l-1.4,1.4l2.3,2.3c0.1,0.1,0.1,0.3,0,0.4C14.8,16.5,14.8,16.5,14.7,16.5z"/>
	</g>
	<g>
		<path class="st0" d="M17.7,13.5c-0.1,0-0.2,0-0.2-0.1l-2.5-2.5c-0.1-0.1-0.1-0.3,0-0.4l1.6-1.6c0.1-0.1,0.3-0.1,0.4,0
			s0.1,0.3,0,0.4l-1.4,1.4l2.3,2.3c0.1,0.1,0.1,0.3,0,0.4C17.8,13.5,17.8,13.5,17.7,13.5z"/>
	</g>
	<g>
		<path class="st0" d="M20.7,10.5c-0.1,0-0.2,0-0.2-0.1L18,7.9c-0.1-0.1-0.1-0.3,0-0.4l1.6-1.6c0.1-0.1,0.3-0.1,0.4,0
			c0.1,0.1,0.1,0.3,0,0.4l-1.4,1.4l2.3,2.3c0.1,0.1,0.1,0.3,0,0.4C20.9,10.5,20.8,10.5,20.7,10.5z"/>
	</g>
	<g>
		<path class="st0" d="M23.7,7.5c-0.1,0-0.2,0-0.2-0.1L21,4.9c-0.1-0.1-0.1-0.3,0-0.4l1.6-1.6c0.1-0.1,0.3-0.1,0.4,0
			c0.1,0.1,0.1,0.3,0,0.4l-1.4,1.4L23.9,7c0.1,0.1,0.1,0.3,0,0.4C23.9,7.5,23.8,7.5,23.7,7.5z"/>
	</g>
	<g>
		<path class="st0" d="M6.5,30c-0.1,0-0.2,0-0.2-0.1l-2.1-2.1c-0.1-0.1-0.1-0.3,0-0.4c0.2-0.2,0.2-0.4,0.2-0.6
			c0-0.2-0.1-0.4-0.2-0.6c-0.3-0.3-0.8-0.3-1.1,0c-0.1,0.1-0.3,0.1-0.4,0L2,25.6c-0.1-0.1-0.1-0.3,0-0.4c0.3-0.3,0.3-0.8,0-1.1
			c-0.3-0.3-0.8-0.3-1.1,0c-0.1,0.1-0.3,0.1-0.4,0l-0.3-0.3c-0.1-0.1-0.1-0.3,0-0.4L23.3,0.1c0.1-0.1,0.3-0.1,0.4,0l0.3,0.3
			c0.1,0.1,0.1,0.3,0,0.4c-0.2,0.2-0.2,0.4-0.2,0.6s0.1,0.4,0.2,0.6c0.3,0.3,0.8,0.3,1.1,0c0.1-0.1,0.3-0.1,0.4,0l0.6,0.6
			c0.1,0.1,0.1,0.1,0.1,0.2c0,0.1,0,0.2-0.1,0.2C26.1,3.2,26,3.4,26,3.6s0.1,0.4,0.2,0.6l0,0c0.3,0.3,0.8,0.3,1.1,0
			c0.1-0.1,0.3-0.1,0.4,0l2.1,2.1c0.1,0.1,0.1,0.3,0,0.4L18,18.6c-0.1,0.1-0.3,0.1-0.4,0l-1.4-1.4l-1.1,1.1l1.4,1.4
			c0.1,0.1,0.1,0.1,0.1,0.2s0,0.2-0.1,0.2l-9.8,9.8C6.6,30,6.5,30,6.5,30z M4.8,27.6l1.7,1.7l9.4-9.4l-1.4-1.4
			c-0.1-0.1-0.1-0.3,0-0.4l1.5-1.5c0.1-0.1,0.3-0.1,0.4,0l1.4,1.4L29.3,6.5l-1.7-1.7C27,5.1,26.3,5,25.8,4.6l0,0l0,0
			c-0.3-0.3-0.4-0.6-0.4-1c0-0.3,0.1-0.5,0.2-0.8l-0.2-0.2c-0.5,0.3-1.3,0.3-1.8-0.2c-0.3-0.3-0.4-0.6-0.4-1c0-0.1,0-0.2,0-0.4
			L1,23.3c0.5-0.1,1,0,1.4,0.4c0.3,0.3,0.4,0.6,0.4,1c0,0.3-0.1,0.5-0.2,0.8l0.2,0.2c0.5-0.3,1.3-0.3,1.8,0.2c0.3,0.3,0.4,0.6,0.4,1
			C5,27.1,4.9,27.4,4.8,27.6z"/>
	</g>
	<g>
		
			<rect x="4.7" y="23.6" transform="matrix(0.7071 -0.7071 0.7071 0.7071 -13.8704 14.4465)" class="st1" width="11.7" height="0.7"/>
	</g>
	<g>
		
			<rect x="15.8" y="11.2" transform="matrix(0.7071 -0.7071 0.7071 0.7071 -1.4473 19.5923)" class="st2" width="14.3" height="0.7"/>
	</g>
</g>
</svg>
