<?xml version="1.0" encoding="utf-8"?>
<!-- Generator: Adobe Illustrator 23.0.3, SVG Export Plug-In . SVG Version: 6.00 Build 0)  -->
<svg version="1.1" id="layer_1" xmlns="http://www.w3.org/2000/svg" xmlns:xlink="http://www.w3.org/1999/xlink" x="0px" y="0px"
	 viewBox="0 0 700 266.1" style="enable-background:new 0 0 700 266.1;" xml:space="preserve">
<style type="text/css">
	.st0{fill:#DAE6F7;}
	.st1{fill:#FFFFFF;}
	.st2{fill:#E3EEF7;}
	.st3{fill:#AFC4D6;}
	.st4{fill:#FCD2C5;}
	.st5{fill:#FEBB00;}
	.st6{fill:#272063;}
	.st7{fill:#802B52;}
	.st8{fill:#424DBF;}
	.st9{fill:#AFC4D5;}
	.st10{fill:#49555F;}
	.st11{fill:#01D06A;}
	.st12{fill:#CAD2D9;}
	.st13{fill:#6FCADE;}
	.st14{fill:#D3E1EA;}
	.st15{fill:#EDF5F8;}
	.st16{fill:#69C2D1;}
	.st17{fill-rule:evenodd;clip-rule:evenodd;fill:#AFC4D5;}
	.st18{fill-rule:evenodd;clip-rule:evenodd;fill:#EDF5F8;}
	.st19{fill-rule:evenodd;clip-rule:evenodd;fill:#272063;}
	.st20{fill:#FFBB00;}
	.st21{fill:#FCD253;}
	.st22{fill-rule:evenodd;clip-rule:evenodd;fill:#D3E1EA;}
	.st23{fill-rule:evenodd;clip-rule:evenodd;fill:#FFFFFF;}
</style>
<g>
	<path class="st0" d="M626.7,128.4c-11.7,5.9-22.8,52.9-38.2,52.9c-54.3,0-70.1-196.8-145.6-170.5
		c-39.2,13.6-67.2,121.4-114.7,152.8c-49.5,32.7-111.7-56.5-147.3-56.5c-37.6,0-41,100.2-70.7,107.8c-14.5,3.7-30.6-19.3-44.4-13.3
		c-14.8,6.4-21.2,24-29.2,38.6c-8,14.6-24.9,25-36.4,26h700C646.6,230.7,664.3,109.5,626.7,128.4z"/>
	<g>
		<g>
			<rect x="249.4" y="225.8" class="st1" width="46.9" height="40.2"/>
		</g>
		<g>
			<rect x="296.3" y="225.8" class="st2" width="17.2" height="40.2"/>
		</g>
	</g>
	<g>
		<polygon class="st3" points="249.4,250.7 288.5,250.7 296.3,225.8 249.4,225.8 		"/>
	</g>
	<g>
		<polygon class="st3" points="296.5,226.9 304.1,259.3 313.5,259.3 313.5,225.8 296.3,225.8 		"/>
	</g>
	<g>
		<polygon class="st1" points="240.4,242.3 288.5,242.3 296.4,225.8 249.7,225.8 		"/>
	</g>
	<g>
		<polygon class="st2" points="296.5,225.8 303.6,245.6 320.6,245.6 313.5,225.8 		"/>
	</g>
	<g>
		<g>
			<rect x="127.1" y="225.8" class="st1" width="46.9" height="40.2"/>
		</g>
		<g>
			<rect x="174" y="225.8" class="st2" width="17.2" height="40.2"/>
		</g>
	</g>
	<g>
		<path class="st4" d="M160.6,159.8c-0.6,0.4-1.3,0.8-2.1,1c0.9-0.1,0.8,0.4,1.8,0.4c0.3-0.1,1.4-1.3,1.2-1.6
			C161.2,159.1,161,159.5,160.6,159.8z"/>
		<path class="st4" d="M164.3,161.5c-0.3-0.2-1.3-0.3-1.7-0.4c-0.1,0-2.1-0.4-3-0.4c-0.7,0-1.5,0-2.2,0.1c0,0-0.4,2.8-0.3,3.8
			c1.2,0.1,5.1-0.1,5.1-0.1c1.5,0.3,1.9-0.2,1.7-0.7c-0.1-0.1,1-0.3,0.8-0.8c0,0,0.3-0.2,0.2-0.6
			C164.9,162.2,164.5,161.6,164.3,161.5z"/>
		<path class="st4" d="M131.5,131.7c-0.2-0.7-8.7,1.6-9.9,2.5c-2.9,2.1,3.9,19.9,7.4,25.8c1.3,2.2,7.5,3.8,5.7-4.2
			C133.2,149.4,132.8,135.7,131.5,131.7z"/>
		<path class="st5" d="M121.6,134.2c-1.9,1.4-1.2,10.3,1.6,17.5c0.9-0.1,3.5-0.8,4.3-1c2.1-0.5,5-1.4,7-2.2
			c-1.4-6.4-2.2-14.1-3-16.9C131.3,131,122.8,133.3,121.6,134.2z"/>
		<path class="st4" d="M132.3,155.7c-0.2,0-0.5,0-0.9,0.1c-1.4,0.3-3.2,1.6-2.3,4.4c1,3,20.8,4.7,28.7,4.5c-0.1-1,0-2.3,0.3-3.9
			C153.4,161.1,136.9,156.2,132.3,155.7z"/>
	</g>
	<path class="st4" d="M82.4,199.1c-0.8,2.5-9.3,59-9.3,59c0,0.1,2.1,0.8,3.7,0.1c0,0,16.2-53.5,16.5-54.5
		C92.2,204.2,83.5,200.5,82.4,199.1z"/>
	<path class="st6" d="M77.5,258.2c-0.4-0.7-0.8-1.8-0.8-1.8l-3.3,0.9c0,0-0.3,0.3-0.4,1.2c0,0-0.7,0.9-0.4,1.9
		c0.2,0.6,1.9,1.5,2.7,2.3c0.7,0.6,1.9,1,3.3,1.3c1.4,0.3,3.4,0,3.6-0.9C82.7,261.6,78.2,259.6,77.5,258.2z"/>
	<path class="st4" d="M73.2,257c0,0-0.1,0.6-0.2,1.6c0,0,1.7,1.1,2.4,0.9c1.2-0.3,2.1-1.2,2.1-1.2c-0.5-1.1-0.6-2-0.6-2L73.2,257z"
		/>
	<path class="st7" d="M88.1,160.5c0,0-7.6,35.9-9.4,53.6c-2,20.6-5.6,42.1-5.6,42.1c1,1.9,4.2,1.1,4.3,0.9c0,0,30.1-89.7,30.5-93.5
		C105.3,164.1,95,162.7,88.1,160.5z"/>
	<path class="st4" d="M104.6,202c-0.2,2.6,4.8,59.5,4.8,59.5c0,0.1,2.2,0.3,3.6-0.8c0,0,3.1-55.8,3.2-56.9
		C115.3,204.8,106,203.2,104.6,202z"/>
	<path class="st6" d="M113.8,260.7c-0.5-0.6-1.2-1.6-1.2-1.6l-3,1.7c0,0-0.2,0.3-0.1,1.3c0,0-0.4,1.1,0.1,2c0.3,0.5,2.3,1.3,3.2,1.6
		c0.9,0.3,2.1,0.5,3.5,0.5c1.5-0.1,3.3-0.8,3.3-1.7C119.6,262.7,114.8,261.9,113.8,260.7z"/>
	<path class="st4" d="M109.3,260.5c0,0,0.1,0.6,0.2,1.6c0,0,1.9,0.7,2.5,0.3c1.1-0.6,1.7-1.7,1.7-1.7c-0.8-1-1.1-1.8-1.1-1.8
		L109.3,260.5z"/>
	<path class="st7" d="M101,163.2V182c1.4,1.1,1,17.9,3.6,35.6c2.9,20.5,4.4,42.2,4.4,42.2c1.5,1.6,4.4,0,4.4-0.1
		c0,0,8.1-94.3,7.6-98.1C118.6,162.6,108.2,163.7,101,163.2z"/>
	<path class="st5" d="M84.4,167.5c-0.1,1.5,12.9,3.8,19.4,6.6c6.6,2.8,15,7.4,17.9,6c1.3-0.6,2.2-11.8,2.2-11.8l-35.3-12.6
		C88.7,155.7,84.6,163.5,84.4,167.5z"/>
	<path class="st4" d="M120.7,114.1c-0.3,2-2.4,7.2-3.3,8c0.6,4,6.3,5.7,7.3,3.7c-0.3-2.5,1.9-6.4,2-6.8
		C125.2,118.8,121,114.6,120.7,114.1z"/>
	<path class="st4" d="M127.9,108.7c-2.9-0.6-5.3,1.3-5.9,4.2c0,0-0.6,2.9-0.6,2.9c-0.5,2.1,2.1,6.2,4,6.2c4.6,0,7.3-7.8,7.4-8.8
		C132.9,110.6,130.6,109.3,127.9,108.7z"/>
	<path class="st8" d="M124.7,125.7c0,0-1.6,1.2-3,0.7c-2-0.7-4.3-4.4-4.3-4.4s-4.7-0.1-6.3-0.2c-4.7-0.2-7.3,1.6-10.1,5.5
		c-0.9,1.2-7.5,17-14.5,32.5c-2.1,4.6,34,18,37.4,14.7c1.4-1.3,1.3-5.9,7.7-35.5c0.6-3,1.6-6.5-1.4-9.6
		C129.3,128.8,124.7,125.7,124.7,125.7z"/>
	<g>
		<g>
			<g>
				<rect x="111.5" y="153" class="st2" width="46.9" height="40.2"/>
			</g>
			<g>
				<rect x="158.4" y="153" class="st9" width="17.2" height="40.2"/>
			</g>
		</g>
	</g>
	<g>
		<path class="st4" d="M140.6,162.4c-0.7,0.2-1.5,0.3-2.3,0.3c0.8,0.2,0.7,0.7,1.5,1c0.4,0,1.8-0.7,1.7-1.1
			C141.4,162,141,162.2,140.6,162.4z"/>
		<path class="st4" d="M143.6,164.7c-0.2-0.1-2.3-1.1-3.4-1.4c-0.9-0.3-1.7-0.6-2.6-0.7c0,0-1.6,2.5-1.8,3.4c1.4,0.5,6,1.8,6.1,1.8
			c1.7,0.8,2.4,0.5,2.2,0c0-0.1,1.3,0.1,1.2-0.5c0,0,0.4-0.1,0.5-0.5c0-0.3-0.2-1-0.4-1.1C145.2,165.4,144.1,164.9,143.6,164.7z"/>
		<path class="st4" d="M114,124.9c-0.2-0.7-8.7,1.6-10,2.5c-2.9,2.1,3.9,19.9,7.4,25.8c1.3,2.2,7.5,3.8,5.7-4.1
			C115.7,142.6,115.2,129,114,124.9z"/>
		<path class="st5" d="M102.2,128.6c-0.5,2.3,0.6,9.2,3.4,16.3c4,0.1,8.9-1.4,11.4-3.1c-1.4-6.4-1.2-14.5-3-16.9
			C111.7,121.8,103.3,122.6,102.2,128.6z"/>
		<path class="st4" d="M114.5,148.9c-1.4-0.2-3.5,0.5-3.6,3.4c-0.1,3.2,18,11.4,25.6,13.9c0.2-1,0.8-2.2,1.5-3.5
			c-4.6-1.4-18.6-11.4-22.7-13.4C115.1,149,114.8,148.9,114.5,148.9z"/>
	</g>
	<path class="st10" d="M132.1,108.7c0,0-4.8-5.4-9.7-3.1c-7.3,3.5-2.2,11.6-2.2,11.6c0.1-2,4.4-8.7,10.5-6.8c0,0,2.8,2.5,0.4,7.1
		C133.4,117.2,136.3,110.9,132.1,108.7z"/>
	<path class="st4" d="M122.4,111.8c-0.7-0.2-1.7,0.5-2,1.2c-0.2,0.7,0.2,2,0.9,2.4c0.5-0.7,1.6-2,2.2-2.9
		C123.2,112.1,122.7,111.9,122.4,111.8z"/>
	<path class="st10" d="M106.6,105.7c-1.9,5.2-3.4,5.3-5.4,6.6c-10,6.1,0.8,22.2,3.5,17c1-2-4.5-5.6,4.2-8.1
		c9.6-2.8,6.9-7.5,6.9-10.7c-0.1-11.8,5-8.3,6-5.8c0.6,1.5,1.4,1,1.8-0.1C125.3,100,113.1,88.4,106.6,105.7z"/>
	<path class="st6" d="M124,104c-0.3-0.1-0.7-0.2-1.1,0c-1.6,0.4-2,1.4-1.8,2.4c0,0,2-1.3,4.1-1.3C125.1,105.1,124.7,104.3,124,104z"
		/>
	<g>
		<path class="st11" d="M488,179.9c-0.4,2,0.2,4.4-0.2,6.5c-0.4,2.6-2.1,3.4-3.2,5c-1.3,1.9-1.9,5.6-1.4,8.7c0.3,1.9,1,3.5,1.4,5.3
			c0.5,1.8,0.8,3.9,0.4,5.8c-0.6,2.8-4,4.9-4,16.7c0,10.7,7.6,14.9,9.8,17.5v-69.5l-1,1C489.1,177.6,488.3,178.4,488,179.9z"/>
		<path class="st11" d="M496.9,205.4c0.5-1.8,1.1-3.4,1.4-5.3c0.5-3.1-0.1-6.8-1.4-8.7c-1.1-1.6-2.8-2.4-3.2-5
			c-0.4-2.1,0.3-4.5-0.2-6.5c-0.3-1.5-1.1-2.3-1.9-3.1l-1-1v69.5c2.2-2.6,9.8-6.8,9.8-17.5c0-11.7-3.4-13.9-4-16.7
			C496.1,209.4,496.5,207.2,496.9,205.4z"/>
	</g>
	<g>
		<path class="st5" d="M500.5,221.4c-0.5,0.7-0.3,1.7-0.7,2.4c-0.6,0.9-1.8,0.8-2.8,1.2c-1.1,0.5-1.9,1.7-1.9,2.9
			c0,0.8,0.4,1.5,0.5,2.2c0.2,0.7,0.2,1.6-0.3,2.2c-0.7,0.9-3.3,1.1-4.5,5.4c-1,3.9,4.1,6.9,5.4,8.3l6.6-25.5l-0.8,0.2
			C501.5,220.8,500.9,220.9,500.5,221.4z"/>
		<path class="st5" d="M504,224.9c-0.1-0.8,0.6-1.6,0.5-2.4c-0.1-0.6-0.6-1.1-1-1.5l-0.6-0.5l-6.6,25.5c1.8-0.6,7.7-0.6,8.7-4.6
			c1.1-4.3-1.1-5.7-1.3-6.9c-0.1-0.8,0.3-1.5,0.8-2c0.5-0.6,1.1-1,1.5-1.7c0.6-1,0.6-2.5-0.2-3.5C505.2,226.5,504.1,225.9,504,224.9
			z"/>
	</g>
	<path class="st1" d="M478.2,243.6c0,0,4.8,5.1,4.8,8.5c0,0.9-0.3,2.3-0.8,3.9c-1.6,5,2.1,10.1,7.4,10.1h12.6
		c5.2,0,8.9-5.1,7.4-10.1c-0.5-1.6-0.8-3-0.8-3.9c0-3.4,4.8-8.5,4.8-8.5H478.2z"/>
	<path class="st6" d="M217.8,260c-0.5-0.6-1.2-1.6-1.2-1.6l-3,1.7c0,0-0.2,0.3-0.1,1.3c0,0-0.4,1.1,0.1,2c0.3,0.5,2.3,1.3,3.2,1.6
		c0.9,0.3,2.1,0.5,3.5,0.5c1.5-0.1,3.3-0.8,3.3-1.7C223.7,262,218.8,261.2,217.8,260z"/>
	<path class="st4" d="M217.5,258.3l-4,0.7c0,0-0.1,1.4,0.1,2.3c0,0,1.9,0.7,2.5,0.3c1.1-0.6,1.7-1.7,1.7-1.7
		C217.1,259,217.5,258.3,217.5,258.3z"/>
	<path class="st12" d="M205.1,165.4v18.8c1.4,1.1,9.6,22.4,13.1,34.6c0.1,0.4-5.1,36.5-5.1,40.3c1.5,1.6,4.4,0,4.4-0.1
		c0,0,11.3-18.3,13.1-40.3c2.1-25.6-5.2-52.8-5.5-54.9C222.7,164.8,212.3,165.9,205.1,165.4z"/>
	<path class="st6" d="M187.6,260.5c-0.5-0.7-1-1.7-1-1.7l-3.1,1.4c0,0-0.3,0.3-0.2,1.3c0,0-0.5,1,0,2c0.3,0.5,2.1,1.2,3,1.9
		c0.7,0.5,2,0.7,3.5,0.8c1.5,0.1,3.3-0.6,3.4-1.4C193.2,263,188.5,261.8,187.6,260.5z"/>
	<path class="st4" d="M187.2,258.7l-4,0.4c0,0,0,1.4,0,2.4c0,0,1.8,0.8,2.5,0.5c1.2-0.5,1.9-1.5,1.9-1.5
		C186.9,259.5,187.2,258.7,187.2,258.7z"/>
	<path class="st12" d="M194.6,161.2c-8.9,17,2.9,41.8,4.4,57.9c0,0-8.4,22.1-8.4,40.2c1.3,1.7,4.3,0.4,4.4,0.2
		c0-7.4,14.7-26,16.4-39.4c3.1-25.6,0.9-52.8,0.8-54.9C209.7,162,200.8,158.5,194.6,161.2z"/>
	<path class="st4" d="M215.1,110.4c0.2,2-0.8,7.5-1.5,8.5c1.4,3.8,7.4,4.2,8,2c-0.8-2.4,0.5-6.7,0.5-7.1
		C220.5,114,215.5,110.8,215.1,110.4z"/>
	<path class="st4" d="M221,103.6c-2.9,0-4.9,2.4-4.9,5.3c0,0,0,3,0,3c0,2.2,3.4,5.6,5.3,5.2c4.5-1,5.5-9.2,5.3-10.2
		C226.3,104.4,223.7,103.6,221,103.6z"/>
	<path class="st13" d="M227.6,123.5c-0.9-0.6-6.1-2.6-6.1-2.6s-1.3,1.5-2.8,1.3c-2.1-0.3-5.2-3.3-5.2-3.3s-4.7,0.7-6.2,1.2
		c-13.4,4.4-20.7,21-18.3,60.3c0.7,0.1,2.5,0.1,3.3,0.3l2.5-12.6l0.9,13.3c13.2,6.1,31.2,1.7,32.6-8.1c-0.8-6.5-1-12.5-1-17.7
		c0-2,0.1-3.8,0.2-5.5c0.4-8.4,1.6-14,1.7-15.4C229.6,130.7,231.1,125.9,227.6,123.5z"/>
	<path class="st6" d="M218.7,122.3c-2.1-0.3-5.2-3.3-5.2-3.3s-2.4,0.3-3.2,0.4c-1.7,0.2-3,0.8-3,0.8c5.8,3.3,14.4,11.8,14.4,11.8
		s4-4.8,4.6-9.1c-1.1-0.7-4.8-1.9-4.8-1.9S220.1,122.5,218.7,122.3z"/>
	<path class="st10" d="M214.9,99c-4.2,3.7-3.5,10.8,0,14c0,0,0.6-4.6,2.1-6.7c12,2.6,13.2-0.5,13.2-1.7
		C230,98.7,220.4,94.1,214.9,99z"/>
	<path class="st4" d="M215.7,107.8c-0.7,0.1-1.3,1.2-1.2,2c0.1,0.7,1.1,1.7,1.8,1.7c0.2-0.8,0.5-2.5,0.6-3.5
		C216.5,107.7,216,107.7,215.7,107.8z"/>
	<g>
		<path class="st13" d="M264.3,160.1c-0.7,0.3-1.5,0.5-2.3,0.5c0.9,0.1,0.7,0.6,1.6,0.8c0.4,0,1.7-0.9,1.6-1.2
			C265.1,159.6,264.7,159.9,264.3,160.1z"/>
		<path class="st13" d="M267.5,162.1c-0.2-0.1-2.4-0.9-3.5-1.1c-0.9-0.2-1.8-0.4-2.6-0.5c0,0-1.4,2.6-1.5,3.6
			c1.5,0.4,6.1,1.2,6.2,1.3c1.8,0.7,2.4,0.3,2.2-0.2c0-0.1,1.3-0.1,1.2-0.6c0,0,0.4-0.1,0.5-0.5c0-0.3-0.3-1-0.5-1.1
			C269.2,162.7,268,162.3,267.5,162.1z"/>
		<path class="st13" d="M237.1,149c-1.4-0.1-3.4,0.8-3.3,3.7c0.2,3.2,18.9,9.8,26.7,11.6c0.1-1,0.6-2.2,1.2-3.7
			c-4.7-1-19.5-9.8-23.8-11.4C237.7,149,237.4,149,237.1,149z"/>
		<path class="st13" d="M228.5,126.2c-0.4-0.6-7.8,4.2-8.7,5.4c-2.1,2.9,9.8,17.8,14.9,22.3c1.9,1.7,8.3,1.4,4.2-5.7
			C235.5,142.5,230.9,129.7,228.5,126.2z"/>
		<path class="st13" d="M234.2,136c-1.9-4.4-3.8-9-5.1-10.8c-0.2-0.3-0.3,0-0.7,0c-1.6-0.1-8.4,4.6-9.4,5.9
			c-2.8,3.9,10.8,19.8,15,23.6c3.9,3.6,19.5,8.9,26.3,10.5l1.6-5.5c-2.7-0.6-19.7-9.5-21.5-10.4C240.2,148.7,236.1,140.4,234.2,136z
			"/>
	</g>
	<polygon class="st14" points="139.8,78.8 148.7,78.8 149.9,69 135.4,69 	"/>
	<g>
		<path class="st14" d="M116.4,43.7l-10.2-1.5l6.7,12.2l8.5-2.8c0-0.1,0-4.5,0-4.5C121.4,44.4,119.2,43.7,116.4,43.7z"/>
		<path class="st14" d="M113,58.9l-6.7,12.2l10.2-1.5c2.8,0,5-0.6,5-3.4c0,0,0-4.3,0-4.5L113,58.9z"/>
	</g>
	<path class="st0" d="M104.3,57.2c0,0,69.3-0.1,69.4,0C165.6,28.5,108.2,44.5,104.3,57.2z"/>
	<path class="st14" d="M104.3,57.2c3.9,12.7,61.3,28.7,69.4,0C173.6,57.3,104.3,57.2,104.3,57.2z"/>
	<path class="st14" d="M145.6,47.7c-25.1,0-41,9.4-41.2,9.5h69.4C173.6,57,170.7,47.7,145.6,47.7z"/>
	<path class="st0" d="M145.6,66.7c25.1,0,28.1-9.4,28.2-9.5h-69.4C104.6,57.3,120.4,66.7,145.6,66.7z"/>
	<polygon class="st14" points="173.7,57.2 173.7,57.2 173.7,57.2 	"/>
	<path class="st0" d="M639.9,52.5c-2.7,0-4.8,3.4-7.2,2.8c-5.4-1.3-7.6-8.6-13.4-8.6c-4.5,0-7.2,6-11.3,5.6
		c-6.6-0.6-9.6-10.1-16.7-10.1c-6.6,0-9.8,8.1-15.9,8.8c-3.6,0.4-6.2-4.1-10.1-4.1c-7.4,0-8,3.1-14.8,5.3c-1.9,0.6-3.4,4.7-5.6,4.7
		c-2.6,0-4.9,0.9-6.3,2.8h112.6C649,55.7,644.8,52.5,639.9,52.5z"/>
	<path class="st0" d="M322.2,14.7c-2.3,0-0.3-3.8-6-4.7c-9.7-1.4-7.9-5.3-15.7-5.3c-4.1,0-6.9,4.6-10.7,4.1C283.4,8.1,280,0,273,0
		c-7.6,0-10.7,9.5-17.8,10.1c-4.4,0.4-7.2-5.6-12-5.6c-6.2,0-8.6,7.3-14.2,8.6c-2.6,0.6-4.8-2.8-7.7-2.8c-5.2,0-9.7,3.2-11.7,7.1
		H329C327.4,15.5,325,14.7,322.2,14.7z"/>
	<g id="XMLID_2204_">
		<g id="XMLID_2205_">
			<g id="XMLID_2215_">
				<g id="XMLID_2216_">
					<g id="XMLID_75_">
						<path class="st1" d="M607.8,206.3c-7.1,0-12.9,5.8-12.9,12.9c0,7.1,5.8,12.9,12.9,12.9c7.1,0,12.9-5.8,12.9-12.9
							C620.7,212.1,614.9,206.3,607.8,206.3z"/>
					</g>
				</g>
			</g>
		</g>
	</g>
	<g id="XMLID_2202_">
		<g>
			<g>
				<path class="st14" d="M613.5,213.9c-0.2-0.2-0.5-0.2-0.7-0.2c-0.3,0-0.5,0.2-0.7,0.4l-5.4,6.9c-0.2,0.2-0.5,0.4-0.8,0.4
					c-0.3,0-0.6-0.2-0.8-0.4l-1.6-2.4c-0.2-0.2-0.4-0.4-0.7-0.4c0,0-0.1,0-0.1,0c-0.2,0-0.5,0.1-0.7,0.3c-0.4,0.4-0.5,0.9-0.2,1.3
					l3.1,4.7l0.8,0.5c0.3,0,0.6-0.1,0.8-0.4l7-9C614,214.8,613.9,214.2,613.5,213.9L613.5,213.9z"/>
			</g>
		</g>
	</g>
	<g id="XMLID_2156_">
		<path class="st15" d="M670.8,206.5c-7.1,0-12.9,5.8-12.9,12.9c0,7.1,5.8,12.9,12.9,12.9c7.1,0,12.9-5.8,12.9-12.9
			C683.7,212.2,677.9,206.5,670.8,206.5z"/>
	</g>
	<g>
		<g>
			<path class="st1" d="M671.3,211.5c-0.3,0-0.5,0.1-0.7,0.2c-0.4,0.4-0.5,1-0.1,1.4l3,3.6c0.2,0.3,0.3,0.7,0.1,1
				c-0.2,0.3-0.5,0.6-0.9,0.6h-7.6c-0.6,0-1,0.5-1,1c0,0.6,0.5,1,1,1h7.1c0.4,0,0.7,0.2,0.8,0.5c0.2,0.3,0.1,0.7-0.1,1l-2.6,3.7
				c-0.3,0.5-0.2,1.1,0.2,1.4c0.4,0.3,1.1,0.2,1.4-0.2l5.3-7.4c0.3-0.4,0.2-0.9-0.1-1.2L671.3,211.5z"/>
		</g>
	</g>
	<g>
		<path class="st15" d="M233.9,110.5c-1.7,1.7-2.6,4-2.6,6.3l0,55.3c0,2.3,0.9,4.6,2.6,6.3c1.7,1.7,4,2.6,6.3,2.6h89.1v-73.1h-89.1
			C238,107.9,235.7,108.8,233.9,110.5z"/>
	</g>
	<path class="st14" d="M322.1,115.2c-0.8,0.8-1.2,1.8-1.2,3v7.2v7.2c0,1.1,0.4,2.2,1.2,3c0.8,0.8,1.9,1.2,3,1.2h4.4v-2.8H325
		c-0.4,0-0.7-0.1-1-0.4c-0.3-0.3-0.4-0.6-0.4-1v-5.8h5.8v-2.8h-5.8v-5.8c0-0.4,0.1-0.7,0.4-1c0.3-0.3,0.6-0.4,1-0.4h4.4v-2.8l-4.4,0
		C323.9,113.9,322.8,114.4,322.1,115.2z"/>
	<g>
		<rect x="231.3" y="146.9" class="st8" width="98.1" height="15.8"/>
	</g>
	<g>
		<g>
			<rect x="238.1" y="130.3" class="st1" width="75.1" height="5"/>
		</g>
	</g>
	<g>
		<g>
			<rect x="238.1" y="122.8" class="st1" width="24.7" height="5"/>
		</g>
	</g>
	<g>
		<g>
			<rect x="266.3" y="122.8" class="st1" width="10.3" height="5"/>
		</g>
	</g>
	<g>
		<g>
			<rect x="272.9" y="115.3" class="st1" width="10.3" height="5"/>
		</g>
	</g>
	<g>
		<g>
			<rect x="303" y="122.8" class="st1" width="10.3" height="5"/>
		</g>
	</g>
	<g>
		<g>
			<rect x="238.1" y="168.1" class="st1" width="10.3" height="5"/>
		</g>
	</g>
	<g>
		<g>
			<rect x="289.4" y="168.1" class="st1" width="5.1" height="5"/>
		</g>
	</g>
	<g>
		<g>
			<rect x="297" y="168.1" class="st1" width="32.4" height="5"/>
		</g>
	</g>
	<g>
		<g>
			<rect x="252.6" y="168.1" class="st1" width="32.2" height="5"/>
		</g>
	</g>
	<g>
		<g>
			<rect x="291.1" y="115.3" class="st1" width="22.2" height="5"/>
		</g>
	</g>
	<g>
		<g>
			<rect x="238.1" y="115.3" class="st1" width="22.2" height="5"/>
		</g>
	</g>
	<path class="st13" d="M209.8,133.6c-1-3-9.9,0.9-6.7,4.9c4.3,5.4,16.9,15.3,18,15.9c1.2,0.7,3.8,0.7,6.4,0.5c0-2,0.1-3.8,0.2-5.5
		C220.7,145.2,211.5,139.1,209.8,133.6z"/>
	<path class="st4" d="M253.9,148.1c-0.6,0.4-1.3,0.8-2,1.1c0.8-0.1,0.9,0.4,1.8,0.4c0.3-0.1,1.4-1.3,1.2-1.6
		C254.5,147.5,254.2,147.8,253.9,148.1z"/>
	<path class="st4" d="M259.6,149.4c-0.4-0.2-1.6-0.2-2.1-0.2c-0.2,0-2.6-0.2-3.6-0.2c-0.9,0-1.8,0.1-2.7,0.3c0,0-0.6,2.9-0.5,3.8
		c1.5,0,6.2-0.5,6.3-0.5c1.9,0.2,2.4-0.4,2.1-0.8c-0.1-0.1,1.2-0.4,1-0.9c0,0,0.4-0.2,0.3-0.6C260.3,150.1,259.8,149.5,259.6,149.4z
		"/>
	<path class="st16" d="M235.2,145.6c-2.7-0.6-5.3-1.1-7.3-1.5c-0.3-0.4-0.7-0.8-1.1-1.2c-2.4-2.3-5.5-6.1-8.5-9.8
		c-3-3.7-5.8-7.2-7.5-8.6c-0.3-0.2-0.6-0.3-1-0.2c-1.6,0.4-6.9,6.7-7.4,8.2c-1.6,4.6,15.8,16.1,20.8,18.6c4.8,2.4,21.2,3.3,28.2,2.9
		l0.1-5.8C248.6,148.5,241.1,146.9,235.2,145.6z"/>
	<path class="st17" d="M447.8,35.2h-84.6c-11.8,0-21.5,9.7-21.5,21.5v188c0,11.8,9.7,21.5,21.5,21.5h84.6c11.8,0,21.5-9.7,21.5-21.5
		v-188C469.3,44.8,459.7,35.2,447.8,35.2z"/>
	<path class="st18" d="M447.8,39.9H363c-9.2,0-16.8,7.5-16.8,16.8v188.1c0,9.3,7.6,17,17,17h84.6c9.4,0,17-7.7,17-17V56.9
		C464.9,47.5,457.2,39.9,447.8,39.9z"/>
	<rect x="346.3" y="58.1" class="st14" width="118.6" height="13.2"/>
	<rect x="356.8" y="94.9" class="st1" width="97.6" height="145.4"/>
	<rect x="380.9" y="100.3" class="st15" width="69.3" height="37.7"/>
	<g>
		<rect x="383.9" y="144.5" class="st15" width="14.4" height="3.6"/>
		<rect x="405.4" y="144.5" class="st15" width="31.5" height="3.6"/>
		<rect x="440.6" y="144.5" class="st15" width="6.5" height="3.6"/>
		<rect x="425.4" y="150.2" class="st15" width="21.7" height="3.6"/>
		<rect x="383.9" y="150.2" class="st15" width="5.2" height="3.6"/>
		<rect x="391.7" y="150.2" class="st15" width="28.6" height="3.6"/>
		<rect x="383.9" y="155.9" class="st15" width="17.2" height="3.6"/>
		<rect x="404.6" y="155.9" class="st15" width="42.5" height="3.6"/>
	</g>
	<rect x="351.3" y="100.5" class="st15" width="15.2" height="2.9"/>
	<rect x="351.3" y="108.7" class="st15" width="15.2" height="2.9"/>
	<rect x="351.3" y="116.8" class="st15" width="15.2" height="2.9"/>
	<rect x="351.3" y="124.9" class="st15" width="15.2" height="2.9"/>
	<rect x="351.3" y="133" class="st15" width="15.2" height="2.9"/>
	<rect x="351.3" y="141.2" class="st15" width="15.2" height="2.9"/>
	<rect x="351.3" y="149.3" class="st15" width="15.2" height="2.9"/>
	<rect x="351.3" y="157.4" class="st15" width="15.2" height="2.9"/>
	<rect x="351.3" y="165.5" class="st15" width="15.2" height="2.9"/>
	<path class="st1" d="M458.3,64c-0.8,0-1.4,0.6-1.4,1.4c0,0.8,0.6,1.4,1.4,1.4c0.8,0,1.4-0.6,1.4-1.4C459.7,64.6,459.1,64,458.3,64z
		"/>
	<path class="st1" d="M452.6,64c-0.8,0-1.4,0.6-1.4,1.4c0,0.8,0.6,1.4,1.4,1.4c0.8,0,1.4-0.6,1.4-1.4C454,64.6,453.4,64,452.6,64z"
		/>
	<g>
		<path class="st8" d="M420.4,109.3h-9.9c-5.1,0-8.8,4.7-8.8,9.8c0,5.1,3.7,9.3,8.8,9.3h9.9c5.1,0,9.3-4.4,9.3-9.6
			S425.5,109.3,420.4,109.3z"/>
		<path class="st8" d="M401.7,119.2C401.7,119.1,401.7,119.1,401.7,119.2C401.7,119.1,401.7,119.1,401.7,119.2L401.7,119.2z"/>
	</g>
	<rect x="360.9" y="176" class="st15" width="89.2" height="48.6"/>
	<g>
		<path class="st8" d="M411.9,187.7h-12.5c-6.5,0-12.1,6-12.1,12.4c0,6.5,5.6,12.4,12.1,12.4h12.5c6.5,0,11.8-6,11.8-12.4
			C423.7,193.7,418.4,187.7,411.9,187.7z"/>
		<path class="st8" d="M387.4,200.2C387.4,200.2,387.4,200.2,387.4,200.2c0-0.1,0-0.1,0-0.1V200.2z"/>
	</g>
	<path class="st17" d="M374,43.4c0,6.2,5,11.3,11.3,11.3h40.7c6.2,0,11.3-5,11.3-11.3v-4.5H374V43.4z"/>
	<path class="st19" d="M417.6,46.3h-24.1c-0.9,0-1.5,0.7-1.5,1.5v0c0,0.9,0.7,1.5,1.5,1.5h24.1c0.9,0,1.5-0.7,1.5-1.5v0
		C419.1,47,418.4,46.3,417.6,46.3z"/>
	<path class="st19" d="M396,40c-1,0-1.8,0.8-1.8,1.8c0,1,0.8,1.8,1.8,1.8c1,0,1.8-0.8,1.8-1.8C397.8,40.8,397,40,396,40z"/>
	<path class="st4" d="M459.2,201.5c0.1,2.6,10.8,56.8,10.8,56.8c0,0.1,2.2,0.1,3.5-1.2c0,0-2.5-53.9-2.5-55
		C470.1,203.1,460.7,202.4,459.2,201.5z"/>
	<path class="st6" d="M468,175.3c-4.9,1.2-9.8,2.4-14.7,3.3l0.4,3.4c1.5,1,2.9,17.7,7.2,35c5,20.1,8.6,39.6,8.6,39.6
		c1.2-1.2,3.2-1.3,4.4-0.6c0,0-0.9-54.7-1.7-81.8C470.7,174.6,469.4,174.9,468,175.3z"/>
	<path class="st20" d="M474.2,256.9c-0.6-0.6-0.8-0.8-0.8-0.8s-2.7-0.6-3.6,1.4c0,0,0,2.4,0.6,3.2c0.4,0.5,2.5,2.7,3.5,3.2
		c0.8,0.4,2.1,0.3,3.6,0.1c1.5-0.2,3.2-1.2,3.1-2C480.4,260.3,475.3,258,474.2,256.9z"/>
	<path class="st20" d="M473.5,258.2c-1.4-1-3.9,0.7-2.2,3c0.3,0.4,2.1,2.3,2.9,2.7c0.7,0.3,1.8,0.3,3,0.1c1.2-0.2,2.7-1,2.6-1.7
		C479.7,260.9,474.9,259.2,473.5,258.2z"/>
	<g>
		<path class="st21" d="M388.9,145.6c-0.2,0.3,0.7,1.6,1.1,1.7c0.9,0.1,1-0.4,1.8-0.2c-0.7-0.3-1.4-0.7-2-1.2
			C389.5,145.6,389.2,145.2,388.9,145.6z"/>
		<path class="st21" d="M389.8,146.8c-1.1-0.1-3.5-0.1-3.7-0.1c-0.5,0-1.7,0-2.1,0.1c-0.2,0.1-0.8,0.6-0.8,0.9
			c-0.1,0.4,0.3,0.6,0.3,0.6c-0.2,0.5,1,0.8,0.9,0.9c-0.3,0.4,0.1,1,2,0.9c0.1,0,4.8,0.8,6.3,0.9c0.1-0.9-0.2-3.8-0.2-3.9
			C391.6,147,390.7,146.9,389.8,146.8z"/>
		<path class="st21" d="M419.2,144.5c-0.3-0.1-0.6-0.1-0.9-0.1c-4.6,0.1-21.4,3.4-26.2,2.8c0.1,1.6,0.1,2.9-0.1,3.9
			c7.9,0.9,27.8,1,29-1.9C422.2,146.4,420.6,144.9,419.2,144.5z"/>
		<path class="st21" d="M434.9,125.9c-3.4,2.5-12.1,13-17.2,17.3c-6.3,5.2-0.4,7.7,2,6.8c6.3-2.6,22.5-12.6,21.5-16.1
			C440.9,132.5,435.5,125.5,434.9,125.9z"/>
		<path class="st21" d="M435,122.9c-3.5,4.5-5.5,6.8-8.8,10.3c-3.3,3.5-6.6,7.2-9.1,9.3c-0.4,0.4-0.8,0.7-1.2,1.1
			c-2,0.2-4.6,0.6-7.4,1c-6.1,0.9-13.6,2-16.4,1.6l-0.3,5.8c6.9,0.8,23.4,1,28.3-1.1c5.2-2.1,17.3-8.8,21.9-11.4
			C443.5,138.7,435.3,122.7,435,122.9z"/>
	</g>
	<path class="st4" d="M440,203.9c0.1,1.1,3.2,55,3.2,55c1.4,1.1,3.5,0.9,3.6,0.8c0,0,5-55,4.8-57.6
		C450.1,203.2,440.9,204.8,440,203.9z"/>
	<path class="st6" d="M435.2,161.6c-0.5,3.8,7.6,96.2,7.6,96.2c1.1-0.9,3-1,4.4,0.1c0,0,1.5-19.8,4.4-40.3
		c2.5-17.7,2.2-34.5,3.6-35.6v-18.8C448,163.7,437.5,162.6,435.2,161.6z"/>
	<path class="st15" d="M460.8,165.8c-7.2,0.9-14.3,0.9-21.5,1.1c-1.7,0-3.3,0.1-4.9,0c0.2,6-0.3,9.7,0.4,14.9
		c14.2,2.4,29.6,3.3,35.6,1.4c1.1-0.3,3.9-1.6,4.1-2c0.2-5.5-0.4-12.1-1.4-18.7C469.3,164.2,465.2,165.2,460.8,165.8z"/>
	<path class="st4" d="M453.5,106.2c-0.5,0.4-5.7,3.2-7.2,3c0,0.4,1.2,3.8,0.2,6.2c0.4,2.2,6.6,4,8.2,0.3
		C454.1,114.7,453.2,108.2,453.5,106.2z"/>
	<path class="st4" d="M448.1,99c-2.7-0.2-5.4,0.4-6,3c-0.2,0.9,0.2,9.2,4.6,10.5c1.9,0.5,5.5-2.7,5.6-4.9c0,0,0.2-3,0.2-3
		C452.7,101.8,451,99.2,448.1,99z"/>
	<path class="st21" d="M454.6,115.2c0,0-1.5,1.6-4.1,1.4c-2.8-0.2-3.9-1.3-3.9-1.3s-5.3,1.9-6.8,2.5c-4.4,1.8-5.4,5.5-5,9.5
		c0.1,1-3.3,32.5-0.4,53c0.7,0,2.5-0.1,3.3-0.1l0.6-13.3l2.8,13.3c9.1,0.1,22.8,0.7,28.9-0.8l0.3-12.1l1.9,11.3
		c0.5-0.3,1.8-0.8,2-1.2c0.6-18.9-4-46.3-4.5-48.6C466.3,115.2,454.6,115.2,454.6,115.2z"/>
	<path class="st20" d="M443.1,257.8c0,0-0.2,0.3-0.7,0.9c-1,1.2-5.8,4-5.8,5.7c0,0.9,1.8,1.6,3.3,1.7c1.5,0.1,2.8,0,3.5-0.5
		c1-0.6,2.8-3,3.2-3.5c0.5-0.9,0.3-3.3,0.3-3.3C445.8,256.9,443.1,257.8,443.1,257.8z"/>
	<path class="st20" d="M443.3,260c-1.3,1.2-5.9,3.3-5.9,4.7c0,0.7,1.5,1.4,2.7,1.4c1.2,0.1,2.3,0,3-0.4c0.8-0.5,2.4-2.5,2.7-3
		C447.2,260.3,444.6,258.8,443.3,260z"/>
	<path class="st10" d="M453.8,95.8c-4.2-3.4-11.4-0.1-13.3,4.2c-1.4,3.3-2.7,1-2.6,0.1c-0.4,2.2,0.5,4,4.7,3.7
		c0.9-0.1-1.9,0.8-1.9,0.8s4.4,9.3,11.3,7c2.1-0.7,3.8-2.7,3.8-2.7s-2.2,0.4-1.1-1.5C457,104,457.5,98.7,453.8,95.8z"/>
	<g>
		<path class="st4" d="M601.8,175.4c-0.8,0-1.6-0.1-2.3-0.3c0.8,0.4,0.5,0.8,1.2,1.3c0.3,0.1,1.9-0.3,1.9-0.6
			C602.7,175.2,602.2,175.4,601.8,175.4z"/>
		<path class="st4" d="M604.2,178.4c-0.1-0.1-2-1.6-2.9-2.2c-0.8-0.5-1.5-1-2.3-1.3c0,0-2.2,2-2.6,2.8c1.2,0.9,5.4,3.2,5.4,3.3
			c1.4,1.2,2.2,1.1,2.1,0.5c0-0.1,1.2,0.4,1.3-0.1c0,0,0.4,0,0.6-0.3c0.1-0.3,0-1-0.1-1.2C605.5,179.4,604.5,178.7,604.2,178.4z"/>
		<path class="st4" d="M579.4,131.5c-0.2-0.7-8.8,1.3-10,2.2c-2.9,2,3.3,20,6.6,26c1.3,2.3,7.4,4,5.8-4
			C580.5,149.2,580.5,135.6,579.4,131.5z"/>
		<path class="st4" d="M580.6,156.3c-0.2-0.2-0.4-0.3-0.8-0.4c-1.3-0.5-3.5-0.4-4.3,2.4c-0.9,3,14.6,15.5,21.3,19.8
			c0.5-0.9,1.3-1.9,2.4-3C595.1,172.4,584.1,159.2,580.6,156.3z"/>
		<path class="st8" d="M587.3,162.1c-1.8-2-3.5-4-4.9-5.3c0-0.5-0.1-1-0.2-1.5c-0.6-3.1-0.8-8-1-12.6c-0.2-4.6-0.5-9-1-11.1
			c-0.1-0.3-0.3-0.6-0.7-0.7c-1.4-0.6-9.3,1.3-10.6,2.2c-3.9,2.6,3.2,21.8,5.7,26.6c2.4,4.7,14.8,14.8,20.5,18.5l3.4-4.5
			C596.2,172.1,591.3,166.6,587.3,162.1z"/>
	</g>
	<path class="st5" d="M497.9,244c0,0-1.1,0-1.8,0.9c-0.4,0.5-0.1,2.4-0.3,3.5c-0.1,0.9,0.3,2.1,0.9,3.4s2,2.7,2.8,2.3
		c1.6-0.7,0.5-5.4,1.2-6.8c0.4-0.7,1-1.7,1-1.7l-2.7-2.1C499.1,243.5,498.7,243.4,497.9,244z"/>
	<path class="st4" d="M497.9,244c0,0,0.1,2,0.7,2.4c1,0.8,2.2,0.9,2.2,0.9c0.6-1.1,1.2-1.7,1.2-1.7l-2.7-2.5
		C499.2,243.1,498.7,243.4,497.9,244z"/>
	<path class="st12" d="M534.3,213.7c-2.8,7.1-27.5,30.1-27.5,30.1c0.7,2.1,3.1,2.7,3.2,2.6c0,0,30.6-16.7,36.2-27.4
		c11.8-22.2,23.5-45.4,24-47.3c-2.6,0-12.6-3.3-18.9-6.6C551.3,165,540.9,197.1,534.3,213.7z"/>
	<path class="st4" d="M565.2,202.1c-0.2,2.6,4.8,59.5,4.8,59.5c0,0.1,2.2,0.3,3.6-0.8c0,0,3.1-55.8,3.2-56.9
		C575.9,204.8,566.6,203.2,565.2,202.1z"/>
	<path class="st5" d="M574.4,260.7c-0.5-0.6-1.2-1.6-1.2-1.6l-3,1.7c0,0-0.2,0.3-0.1,1.3c0,0-0.4,1.1,0.1,2c0.3,0.5,2.3,1.3,3.2,1.6
		c0.9,0.3,2.1,0.5,3.5,0.5c1.5-0.1,3.3-0.8,3.3-1.7C580.2,262.7,575.4,261.9,574.4,260.7z"/>
	<path class="st4" d="M569.9,260.5c0,0,0.1,0.6,0.2,1.6c0,0,1.9,0.7,2.5,0.3c1.1-0.6,1.7-1.7,1.7-1.7c-0.8-1-1.1-1.8-1.1-1.8
		L569.9,260.5z"/>
	<path class="st12" d="M561.6,163.2V182c1.4,1.1,1,17.9,3.6,35.6c2.9,20.5,4.4,42.2,4.4,42.2c1.5,1.6,4.4,0,4.4-0.1
		c0,0,8.1-94.3,7.6-98.1C579.2,162.6,568.8,163.7,561.6,163.2z"/>
	<path class="st10" d="M546.9,166c0,0-0.8,7.9-1.1,14.3c0,0,10.6,3.5,25.6,1.1l1.5-3.1l1,3.1c3.3-0.1,5.3-0.3,7.4-2.2
		c1.1-1,0.2-11.2,0.2-11.2L546.9,166z"/>
	<g>
		<g>
			<g>
				<polygon class="st22" points="571.5,177.5 574.5,183.5 576.8,182.3 574.8,178.4 				"/>
			</g>
			<g>
				<polygon class="st22" points="560.7,185.4 562.7,189.3 565,188.2 562,182.2 				"/>
			</g>
			<g>
				<polygon class="st18" points="562,182.2 560.7,185.4 574.8,178.4 571.5,177.5 				"/>
			</g>
			<g>
				<polygon class="st18" points="557.5,190.8 573.8,229.5 602.2,215.3 581,179.1 				"/>
			</g>
		</g>
		<g>
			<g>
				<polygon class="st18" points="573,189.5 575.6,190.1 577,183.8 575,179.9 				"/>
			</g>
			<g>
				<polygon class="st18" points="559.1,186.5 561.7,187.1 563.8,177.5 560.4,180.3 				"/>
			</g>
			<g>
				<polygon class="st23" points="563.8,177.5 560.4,180.3 577,183.8 575,179.9 				"/>
			</g>
			<g>
				<polygon class="st23" points="544.6,212.6 578.1,219.8 581.5,189.9 553.8,183.9 				"/>
			</g>
		</g>
	</g>
	<path class="st4" d="M512.3,116.7c-1.5,0.3-6.7-2.5-7.2-2.9c0.3,2-0.1,7.6-0.8,8.6c1.7,3.6,7.7,3.5,8.1,1.3
		C511.4,121.4,512.3,117.1,512.3,116.7z"/>
	<path class="st8" d="M580.3,134.5c0.4-3-0.4-6.7-4.2-8.7c-1-0.5-6.3-2-6.3-2s-1.2,1.6-2.7,1.5c-2.1-0.1-5.4-2.8-5.4-2.8
		s-4.5,1.4-6.1,1.8c-4.6,1.2-5.9,4.8-6.1,8.8c-0.1,1.5-7.6,31-2.9,35.8c3.6,3.6,30.9,3.7,35.1,1.6
		C584.8,168.8,578.7,144.9,580.3,134.5z"/>
	<g>
		<path class="st4" d="M570.5,178.5c-0.7-0.2-1.5-0.6-2.1-1c0.6,0.6,0.2,0.9,0.8,1.6c0.3,0.2,1.9,0.3,2,0
			C571.4,178.6,570.9,178.6,570.5,178.5z"/>
		<path class="st4" d="M571.8,182c-0.1-0.1-1.4-2.2-2.1-3c-0.6-0.7-1.2-1.4-1.8-2c0,0-2.7,1.3-3.4,1.9c0.9,1.2,4.1,4.7,4.2,4.8
			c1,1.6,1.7,1.7,1.9,1.2c0-0.1,1,0.7,1.3,0.3c0,0,0.4,0.2,0.7-0.1c0.2-0.2,0.3-0.9,0.3-1.2C572.8,183.5,572,182.5,571.8,182z"/>
		<path class="st4" d="M552.6,128.8c-3.4,1-3.1,20.1-1.8,26.8c0.5,2.5,5.8,6.1,6.8-2c0.8-6.6,5-19.6,5.2-23.8
			C562.8,129,554,128.3,552.6,128.8z"/>
		<path class="st4" d="M555.7,153.1c-1.1-0.9-3.2-1.5-4.8,0.9c-1.8,2.6,9.1,19.3,14.1,25.4c0.7-0.7,1.8-1.4,3.2-2.2
			c-3.1-3.7-9.5-19.6-11.9-23.5C556.1,153.5,555.9,153.3,555.7,153.1z"/>
		<path class="st8" d="M557.5,154.5c0.1-0.5,0.2-1,0.3-1.5c0.4-3.2,5.3-21,5.4-23.2c0-0.3-0.1-0.7-0.4-0.9c-1.2-1-9.2-1.6-10.7-1.2
			c-4.5,1.3-3.7,21.7-2.8,27c0.8,5.2,9.5,18.6,13.7,23.9l4.6-3.2c-1.7-2.1-4.7-8.9-7.1-14.3C559.4,158.6,558.3,156.2,557.5,154.5z"
			/>
	</g>
	<path class="st10" d="M574.7,120.1c0.5-3.1,0-6-1-8.3c-1.4-1.9-6.5,4.2-6.5,4.3c0.8,1.9,2.9,3.8,2.6,6.4c-0.3,2.5-1.1,3.6,0.7,9.2
		c2.7,8.1-1,17.2,0.8,18c1.6,0.8,6.7-4.1,6.7-13.2c0-1.6-0.3-4.9-1.7-7.2C575.4,127.9,574,124.6,574.7,120.1z"/>
	<path class="st4" d="M510.8,106c-2.9,0.3-5.1,3.3-4.8,6.2c0,0,0.3,3,0.3,3c0.2,2.2,3.9,5.3,5.7,4.7c4.4-1.4,4.6-9.7,4.4-10.6
		C515.7,106.8,513.5,105.7,510.8,106z"/>
	<path class="st10" d="M572.2,103.6c-1.5-0.7-2.8-0.3-2.8-0.3s-0.1-0.5-2.8-1.4c-2.1-0.8-6-0.5-8.6,2.9c-2.6,3.3-4.1,8.2-2.1,13.2
		c1.9,4.9,0.3,8.8-0.8,10.6c-1.8,2.9-1.7,6.6-1.4,8.4c1.7,10.3,10.3,14.8,12.7,13.7c2.6-1.3-4.7-10.9-2-20.4
		c1.9-6.7-0.4-8.5-1.2-11.3c-1.1-3.6,0.1-8.4,1.5-10.3c1.5-2,4.9-2.6,4.9-2.6s4.9,0.9,3.7,8.7C575.7,112.3,575.5,105.1,572.2,103.6z
		"/>
	<path class="st4" d="M504.6,112.8c0,0.7,0.8,1.8,1.5,2c0.3-0.8,0.9-2.4,1.2-3.4c-0.4-0.3-0.9-0.4-1.2-0.4
		C505.3,111,504.6,112,504.6,112.8z"/>
	<g>
		<g>
			<g>
				<path class="st17" d="M496.8,85.2c-6.7,0-14.1,5.2-14.1,13.9c0,13.2,14.1,27.2,14.1,27.2s14.1-14.2,14.1-27.2
					C510.9,90.4,503.1,85.2,496.8,85.2z M496.9,107.3c-4.5,0-8.2-3.7-8.2-8.2c0-4.5,3.7-8.2,8.2-8.2c4.5,0,8.2,3.7,8.2,8.2
					C505.1,103.6,501.4,107.3,496.9,107.3z"/>
			</g>
		</g>
	</g>
</g>
</svg>
