<?xml version="1.0" encoding="utf-8"?>
<!-- Generator: Adobe Illustrator 23.0.3, SVG Export Plug-In . SVG Version: 6.00 Build 0)  -->
<svg version="1.1" id="object" xmlns="http://www.w3.org/2000/svg" xmlns:xlink="http://www.w3.org/1999/xlink" x="0px" y="0px"
	 viewBox="0 0 445 383.9" style="enable-background:new 0 0 445 383.9;" xml:space="preserve">
<style type="text/css">
	.st0{fill:#EDF4FF;}
	.st1{fill:#4E565F;}
	.st2{fill:#DC8C70;}
	.st3{fill:#3B455A;}
	.st4{fill:#E7EDF7;}
	.st5{fill:#474EBB;}
	.st6{fill:#C67A6D;}
	.st7{fill:#EFBFA5;}
	.st8{fill:#CCD2D9;}
	.st9{fill:#F2D25D;}
	.st10{fill:#F7F7F7;}
	.st11{fill:#E1CFB5;}
	.st12{fill:#FFFFFF;}
	.st13{fill:#90CADD;}
	.st14{fill:#DA8A70;}
	.st15{opacity:0.3;fill:#DA8A70;}
</style>
<g>
	<g>
		<path class="st0" d="M204.2,340c-13,0-26.1,0.3-39.1,1.6c-4.9,0.5-9.7,1.6-14.6,2c-9.8,0.9-19.5,2.5-29.3,3.2
			c-7.9,0.6-15.9,1-23.8,1.7c-7.4,0.7-15.6,0.6-23-0.6c-5.4-0.9-10.9-1.4-16.3-2.8c-6-1.6-12.5-2.7-18.8-2.7
			c-8.9,0.1-17.6,0.1-26.1,2.8c-3,1-6.7,2.6-8.9,4.6c-5.2,4.7-5.9,16.4-0.7,21.2c8.7,8.2,27.4,11.4,39.7,11.5
			c13.4,0.2,26.5-0.7,39.9-1.3c12.5-0.5,25-1.2,37.5-1.2c25.6,0.1,51.2,0,76.7-1.5c24-1.4,48-0.9,72.1-0.9c24.6,0,49.1,0.2,73.6,3.1
			c10.7,1.3,21.5,1.7,32.2,2.6c9.6,0.8,18.8,0,28.4-0.8c8-0.6,16-2.5,23.3-5.6c5.8-2.5,16.1-10.2,17.8-16.1
			c5-16.6-69.9-16.2-81.4-16.1c-12.9,0-25.8,0.4-38.7,0c-5.4-0.2-10.7-1.1-16-2.2c-5.3-1-10.6-0.8-15.9-1.2
			c-22.2-1.8-44.5-1.5-66.8-1.5C218.7,340,211.4,340,204.2,340z"/>
	</g>
	<g>
		<g>
			<g>
				<path class="st1" d="M406.4,165.3c0.1,0.4,0.2,0.9,0,1.2c-0.2,0.3-0.6,0.4-0.9,0.6c-8.3,2.5-17.1,0.3-25.5-1.9
					c-1.4-0.4-2.8-0.7-4.2-1.1c-0.7-0.2-1.4-0.4-1.9-0.9c-0.7-0.6-1.1-1.7-1.1-2.6c-0.2-2.3,0.7-4.6,1.6-6.7c2.3-5.5,5-10.8,8-16
					c0.4-0.7,0.8-1.3,1.4-1.8c1.1-1,2.8-1.2,4.2-0.9c1.5,0.3,2.8,1,4.1,1.8c4.5,2.7,7.6,5.4,8.5,10.6
					C401.6,153.7,404.9,159.2,406.4,165.3z"/>
				<path class="st2" d="M374.8,135.8c3.5-12.6,19.3-9,23,1.8c2.2,6.5-1.8,15.2-7.9,18.4c0.2,1.7-0.2,6.1-0.3,6.1
					c-2.2,0-4.4,0-6.6,0c-0.1-1.6,0-3.3,0.1-4.9c-0.8-0.1-1.5-0.4-2.3-0.7c-3.6-1.5-6-5.2-6.8-9
					C373.2,143.5,373.8,139.5,374.8,135.8z"/>
				<g>
					<g id="XMLID_405_">
						<g id="XMLID_407_">
							<polygon class="st3" points="389.7,366.2 390.1,370.4 398.6,373.9 402.2,369.5 397.8,365.7 389.3,362.1 							"/>
						</g>
						<g id="XMLID_406_">
							<polygon class="st4" points="382.6,282.5 389.2,364.9 397.3,366 404.1,295.8 409.7,273.5 							"/>
						</g>
					</g>
					<g id="XMLID_402_">
						<g id="XMLID_404_">
							<polygon class="st4" points="365.6,260.5 359.4,357.9 365.7,360.2 381.2,286.1 389.7,264.7 							"/>
						</g>
						<g id="XMLID_403_">
							<polygon class="st3" points="365,363.4 356.1,366.1 352.9,361.2 357.7,357.8 365.8,359.3 							"/>
						</g>
					</g>
					<g id="XMLID_401_">
						<path class="st5" d="M374.3,158.9c1.7-0.2,3.4,0,5.1,0.2c5.1,0.7,10.2,1.9,15.1,3.7c1.6,0.6,3.2,1.2,4.6,2
							c7,4.2,6.4,10.7,7.7,18c0.9,5.1,2.2,10.3,2.6,15.4c0.9,13.4,5.1,26.9,10.9,39.2c2.4,5.2,5.4,10.2,7.1,15.6
							c2.9,9,2.9,19.6,2.1,29c-8.2,2.2-15.9,6.4-24.3,7.5c-6.9,0.9-14-0.4-20.9-1c-8.3-0.7-16.6-0.5-24.8-1.2
							c-8.3-0.6-16.6-2.1-23.9-6c0.8,0.4,11.2-27.6,12-30.1c1.2-4.2,1.9-8.5,2.6-12.9c3.4-21.3,7.8-42.6,14.7-63.1
							c1.8-5.3,2.1-14.9,8.8-16.2C373.8,159,374,158.9,374.3,158.9z"/>
					</g>
					<g id="XMLID_398_">
						<g id="XMLID_400_">
							<path class="st1" d="M386.5,132.4c-3.8,0.7-8.5,3.9-9.5,7.9c-0.4,1.9,0.2,3.7-0.4,5.7c-1.1,4,3.8,9.9-1,12.7
								c-2.5,1.4-5.6,1-8.5,0.5c-0.3-0.1-0.7-0.1-1-0.3c-0.4-0.4-0.5-1-0.4-1.6c0.2-0.5,0.5-1,0.9-1.5c3.3-5,2.5-12.1,3.8-17.7
								c1.3-5.6,4.4-11.3,10-13.6c2.8,1.8,4.9,4.7,5.6,8L386.5,132.4z"/>
						</g>
						<g id="XMLID_399_">
							<path class="st1" d="M400.4,163.6c-1.8-1.1-3.6-2.3-4.6-4.3c-1.7-3.3-1-8.5-1.2-12.2c-0.2-3.8-0.6-8-3.2-10.8
								c-1.7-1.8-3.9-2.3-6.3-2.6c-1.6-0.2-1.8,0.4-3.1-0.5c-1-0.8-1.8-2.8-1.9-4c-0.2-2,0.7-4,2.2-5.5c2.2-2.2,4.8-3.2,7.8-3
								c10.8,0.7,18.3,7.6,20.5,18.3c1,5.1-0.5,10.6,0.6,15.5c0.7,3,2.5,5.2,3,8.4c1.3,8.4,5,19.2,3.9,27.6c0,0.3-0.1,0.7-0.4,0.8
								c-0.5,0.4-1.2-0.2-1.6-0.7c-2.2-3-4.4-6.1-6.7-9.1c-0.9-1.2-1.8-2.4-2.3-3.8c-1.3-3.4-0.1-7.7-2.3-10.6
								C403.7,165.6,402,164.6,400.4,163.6z"/>
						</g>
					</g>
					<g id="XMLID_396_">
						<g id="XMLID_397_">
							<polygon class="st5" points="411.5,167.2 433.7,208.4 408.9,226.7 403.1,221 417.2,208.1 395.8,191.5 398.3,164.5 							"/>
						</g>
					</g>
				</g>
			</g>
			<g id="XMLID_373_">
				<g id="XMLID_374_">
					<path class="st6" d="M404.7,228.6c-1.3,1.7-6.4,4.2-8.6,3.6c-5.1-1.4,1-4.9,2.8-6.6c-0.8-0.5-1.6-0.9-2.2-1.5
						c-0.6-0.5,6.3-3.8,7.4-3.7c2.5,0.3,2.8,1.8,4.3,3.7C407,225.5,405.9,227.1,404.7,228.6z"/>
				</g>
			</g>
			<g>
				<polygon class="st6" points="351.2,149.4 352.1,145.3 351.2,144.4 349.2,146.1 346.6,141 342.5,138.5 340.3,140.8 343.9,146.3 
					346.2,149.8 348.2,157.1 351.7,156 				"/>
				<path class="st5" d="M356.4,170.8c-1.3-6.6-2.4-13.2-3.1-19.9c-2.8-0.2-5.6,0.2-8.2,1.3c-0.7,11.8-0.2,23.7,1.6,35.3
					c0.1,0.5,0.2,1.1,0.6,1.4c0.3,0.3,0.8,0.3,1.2,0.3c4.1,0,8.2-1.2,12.1-2.6c6-2,11.8-4.4,17.5-7.1c-0.6-3.6-0.8-7.3-0.4-10.9
					c0.5-5-0.7-11.9-6.8-8C369.2,161.6,356.2,169.4,356.4,170.8z"/>
			</g>
		</g>
		<g>
			<polygon class="st7" points="52.2,119.5 58,108.7 52.3,97.6 46.2,100.8 47,109.9 43.8,113 45,120.8 			"/>
			<g>
				<path class="st3" d="M47.5,367.3l7.4-6.8c2.1-1.1,4.4-1.8,6.3-1.8c1.3,0,2.4,0.4,3.1,1.5c0.6,1,0.8,2.3,0.3,3.3
					c-0.2,0.4-0.4,0.7-0.6,1l0,0c0,0,0,0,0,0c-0.2,0.3-0.5,0.5-0.7,0.8c-0.2,0.2-0.3,0.3-0.5,0.5c-1.5,1.7-4.1,4.4-5.1,5
					c-1.5,0.9-4.8,3.3-8.7,0.6c0,0,0,0,0,0C47.7,370.3,47.2,368.7,47.5,367.3z"/>
				<path class="st7" d="M53.3,307.7l0.6,8.6l2.9,41.7l-2.9,4.9c0,0-0.6,3.9,3.9,3.6c1.3-0.1,6.1-6.1,6.1-6.1l-0.7-2.8l3.3-31.3
					l0-9.1l1.6-10.1L53.3,307.7z"/>
			</g>
			<g>
				<path class="st3" d="M100.2,356.7c1.4-0.4,2.7-0.4,3.7,0.4c1,0.8,1.6,2.1,1.5,3.3c-0.1,0.8-0.4,1.6-0.8,2.3
					c-1.8,3.9-6.8,12.6-12.5,11c-2.4-0.7-3.3-3.1-2.8-5.3C90,365.1,95.6,358.1,100.2,356.7z"/>
			</g>
			<path class="st7" d="M71.3,302.7l1,12.3l24.2,43.6c0,0-3.5,6.1-1.3,6.6c2.2,0.5,8.7-1.3,8.7-8.2c-2.5-8.3-12.6-36.6-12.6-36.6
				l-4.7-7.3l0.1-13.7L71.3,302.7z"/>
			<path class="st8" d="M98.7,261.4c0.2-3.6-1-13.1-2.2-16.5c-4.4-12.4-5.2-18.5-5.2-28.6c0-10.1-1.9-41.7-1.9-41.7l-9.1-9.8
				l-18.7,0.5l-10.4,3.4c0,0-2.2,40.3-2.8,53.3c-0.4,9.3-1.1,17.3-1.9,28c0,0-2.4,24.5,1.3,50.7c0,0,0.8,8.7,1.2,9.5
				c0,0.3,0.1,0.4,0.1,0.4s0.1,0,0.1,0l41.5,0l0-15c1.4-4.8,2.7-9.6,4-14.5C96.2,275.1,98.3,268.2,98.7,261.4z"/>
			<path class="st9" d="M89.9,167.6l3.5,4.2c0,0-1.8,38-2.1,44.4c-0.3,6.4,8,32.2,8,32.2l-34.4,4.5c0,0-5.1-27.5-6.5-41.1
				c-1.5-13.6,19.3-46.9,19.3-46.9L89.9,167.6z"/>
			<path class="st9" d="M55.4,166.9l-7,3.3c0,0,1,41-0.8,51.4c-1.1,6.3-5.4,26.9-5.4,26.9l11.1,3.8c0,0,6.8-25.7,8.2-39.4
				c1.4-13.6-0.1-47.6-0.1-47.6L55.4,166.9z"/>
			<g>
				<g>
					<path class="st1" d="M56.8,151.9c-0.9,3.5,1.2,7,3,10c0.7,1.2,1.9,2.9,0.9,4.3c-1.1,1.6-3.8,1.2-4.9,0.1
						c-0.8-0.8-1.2-1.9-1.6-3c-1.6-4.9-3.8-11.6-3.4-16.7c0.3-4.1,5.4-11.4,10.5-8.8c0.9,0.5,1.5,1.4,2.1,2.2
						c0.3,0.5,0.6,1.1,0.7,1.7c0.2,2.4-2,3-3.5,4.2C58.7,147.5,57.4,149.7,56.8,151.9z"/>
					<path class="st7" d="M65.4,164.6c-3.5-0.4-6.3-2.9-7.9-5.8c-1.5-2.9-1.9-6.2-1.9-9.5c0.2-10.8,14.6-11.4,20.2-3.7
						C80.7,152.5,75.4,165.9,65.4,164.6z"/>
					<path class="st1" d="M75.2,150.8c0.1,1.3,0.8,2.7,1,4.1c0.3,2.5-0.2,5.7,0.7,8c2.5-0.3,5.6-1.9,7.5-3.7c1.9-1.8,1.6-4.4,2-7
						c0.4-2.4,0.9-4.8,0.8-7.3c-0.8-13.3-14.1-20.6-25.8-14.6c-4.4,2.3-6.4,8.1-3.1,11.9c3.5,4.1,10.6,2.3,14.8,5.3
						C74,148.2,74.7,149.4,75.2,150.8z"/>
				</g>
				<path class="st7" d="M65.1,163.5c0.2,0.8,0.4,1.6,0.5,2.4c0.1,0.4,0.1,1.4,0.4,1.7c0.2,0.1,0.4,0.1,0.6,0.1
					c0.6-0.1,6.2-0.8,6.1-1.1c-0.2-1-0.3-1.9-0.6-2.8c-0.2-0.7-0.3-2.1-0.8-2.7c-0.9,0.6-1.9,1-3,1.4c-1.1,0.3-2.2,0.6-3.2,0.9
					C65.1,163.3,65.1,163.4,65.1,163.5z"/>
			</g>
			<polygon class="st9" points="61.3,176.1 42,158.4 53.7,114.8 43.9,112.8 23.5,156.5 25.8,170.4 55,193.9 			"/>
			<g>
				<g>
					<g>
						<path class="st1" d="M72.8,291.9l-60.7-2c-0.5,0-0.9-0.4-0.9-0.9l3.3-103.2c0-0.5,0.4-0.9,0.9-0.9l60.7,2
							c0.5,0,0.9,0.4,0.9,0.9l-3.3,103.2C73.7,291.6,73.3,291.9,72.8,291.9z"/>
					</g>
					
						<rect x="17.7" y="191.4" transform="matrix(0.9995 3.243598e-02 -3.243598e-02 0.9995 7.6116 -1.3142)" class="st0" width="53.2" height="85.1"/>
					<path class="st10" d="M48.5,286.9l-11.8-0.4c-0.6,0-1.1-0.5-1.1-1.1l0.1-2.2c0-0.6,0.5-1.1,1.1-1.1l11.8,0.4
						c0.6,0,1.1,0.5,1.1,1.1l-0.1,2.2C49.6,286.4,49.1,286.9,48.5,286.9z"/>
				</g>
			</g>
			<g>
				<polygon class="st9" points="86,233.4 81.7,243.1 72.4,245.2 71.8,239.1 77.5,234.1 79,229 				"/>
				<polygon class="st9" points="81.8,173.9 94.7,202.1 79,229 85.5,234.9 107.5,207.3 110.8,197.8 93.4,171.8 				"/>
			</g>
			<g>
				<path class="st1" d="M28.9,226.3l2.6,0.2l-0.2,2.6l-2.6-0.2L28.9,226.3z"/>
				<path class="st1" d="M34.6,211.8L38,212l2,10.6l0.1,0l0.7-10.5l2.4,0.2L42,229.9l-2.8-0.2l-2.5-13l-0.1,0l-0.8,12.8l-2.4-0.2
					L34.6,211.8z"/>
				<path class="st1" d="M45.2,212.5l7.5,0.5l-0.2,2.5l-4.7-0.3l-0.3,4.6l3.8,0.2l-0.2,2.5l-3.8-0.2l-0.4,5.4l4.7,0.3l-0.2,2.5
					l-7.5-0.5L45.2,212.5z"/>
				<path class="st1" d="M56.3,215.8l-2.9-0.2l0.2-2.5l8.5,0.6l-0.2,2.5l-2.9-0.2l-1,15l-2.7-0.2L56.3,215.8z"/>
				<path class="st1" d="M26.9,256.3l2.6,0.2l-0.2,2.6l-2.6-0.2L26.9,256.3z"/>
				<path class="st1" d="M32.2,258.4c-0.7-0.8-1-1.9-0.9-3.3l0.6-9.2c0.1-1.4,0.5-2.5,1.3-3.2c0.8-0.7,1.8-1,3.2-0.9
					c1.3,0.1,2.4,0.5,3,1.4c0.7,0.8,1,1.9,0.9,3.3l-0.6,9.2c-0.1,1.4-0.5,2.5-1.3,3.2c-0.8,0.7-1.8,1-3.2,0.9
					C33.9,259.6,32.9,259.2,32.2,258.4z M36.9,255.6l0.6-9.5c0.1-1.1-0.4-1.8-1.3-1.8c-0.9-0.1-1.5,0.5-1.5,1.6l-0.6,9.5
					c-0.1,1.1,0.4,1.8,1.3,1.8C36.4,257.3,36.9,256.8,36.9,255.6z"/>
				<path class="st1" d="M42.4,242.4l4.1,0.3c1.4,0.1,2.4,0.5,3,1.2c0.6,0.7,0.9,1.7,0.8,3.1l-0.1,1.1c-0.1,1.8-0.8,2.9-2,3.3l0,0
					c0.7,0.2,1.1,0.7,1.3,1.3c0.2,0.6,0.3,1.5,0.3,2.5l-0.2,3.1c0,0.5,0,0.9,0,1.2c0,0.3,0.1,0.6,0.2,0.9l-2.8-0.2
					c-0.1-0.3-0.1-0.6-0.1-0.8c0-0.3,0-0.7,0-1.4l0.2-3.2c0.1-0.8,0-1.4-0.3-1.7c-0.2-0.3-0.7-0.5-1.3-0.6l-0.9-0.1l-0.5,7.5
					l-2.7-0.2L42.4,242.4z M45.7,250.1c0.5,0,1-0.1,1.3-0.3c0.3-0.3,0.5-0.7,0.5-1.4l0.1-1.3c0-0.6,0-1.1-0.2-1.4
					c-0.2-0.3-0.6-0.5-1-0.5l-1.2-0.1l-0.3,5L45.7,250.1z"/>
				<path class="st1" d="M52.2,259.7c-0.6-0.8-0.9-1.9-0.8-3.3l0.6-9.2c0.1-1.4,0.5-2.5,1.3-3.2c0.7-0.7,1.8-1,3.1-0.9
					c1.3,0.1,2.3,0.5,3,1.3c0.6,0.8,0.9,1.9,0.8,3.3l-0.1,1.5l-2.6-0.2l0.1-1.7c0.1-1.1-0.4-1.8-1.3-1.8c-0.9-0.1-1.5,0.5-1.5,1.6
					l-0.6,9.6c-0.1,1.1,0.4,1.7,1.3,1.8c0.9,0.1,1.5-0.5,1.5-1.6l0.2-3.4l-1.4-0.1L56,251l4,0.3l-0.4,5.7c-0.1,1.4-0.5,2.5-1.3,3.2
					c-0.7,0.7-1.8,1-3.1,0.9C53.9,261,52.9,260.5,52.2,259.7z"/>
			</g>
		</g>
		<polygon class="st11" points="223.6,185.2 215.5,182 214,183.6 214,186.3 209.9,186.3 210.2,191 214,192.5 221.9,191.4 		"/>
		<g id="XMLID_379_">
			<g id="XMLID_393_">
				<g id="XMLID_395_">
					<path class="st3" d="M291.7,351.7c0.8-0.9,1.8-1.4,2.8-1.2c1,0.2,1.9,0.9,2.4,1.8c0.3,0.6,0.3,1.3,0.4,2
						c0.3,3.6,0.3,12.1-4.5,13.3c-2,0.5-3.7-0.9-4.2-2.7C287.8,362.2,289,354.7,291.7,351.7z"/>
				</g>
				<g id="XMLID_394_">
					<path class="st2" d="M290,297.7l0.2,21.8c-0.3,9.7,1.2,19.4,0.9,29.1c-0.1,2.2-0.6,4.6-0.1,6.8c0.5,2.2,2.3,2.5,4.1,1.4
						c2.4-1.5,2-4.9,2.4-7.4c1.1-6.9,2.4-13.7,3.6-20.6c0.6-3.4-0.6-8.1-0.3-11.5c0,0,3.5-18.3,3.5-18.3L290,297.7z"/>
				</g>
			</g>
			<g id="XMLID_392_">
				<polygon class="st4" points="314.9,262.4 305.4,304.6 303.4,344.5 288.3,344.2 284.2,232.7 313.4,233.2 				"/>
			</g>
			<g id="XMLID_387_">
				<g id="XMLID_389_">
					<g id="XMLID_391_">
						<path class="st3" d="M270.1,350.9c0.8-0.8,1.8-1.3,2.9-1c1,0.2,1.9,1,2.3,1.9c0.3,0.7,0.3,1.4,0.3,2.1
							c0.1,3.6-0.2,12.1-5.1,13c-2,0.4-3.6-1.1-4.1-3C265.8,361.2,267.3,353.7,270.1,350.9z"/>
					</g>
					<g id="XMLID_390_">
						<path class="st2" d="M278.1,300.8l-1.3,21.8c-0.1,6.1-0.9,12.1-1.5,18.1c-0.6,5.6,0.3,11.4-2.6,16.5c-0.9,1.6-2.8,2.7-4.1,0.7
							c-1-1.5-0.4-4-0.6-5.7c-0.8-6.9-1.8-13.8-2.6-20.7c-0.4-3.4,1-8,0.9-11.4l-2.7-18.4L278.1,300.8z"/>
					</g>
				</g>
				<g id="XMLID_388_">
					<polygon class="st4" points="259,259.9 257.8,300.8 264.2,342.3 279.5,342.7 278.9,297.9 287,260.7 289.7,236.4 265.4,233.5 
											"/>
				</g>
			</g>
			<g id="XMLID_386_">
				<polygon class="st8" points="278.2,149.6 304.4,149 319.6,177.3 314.2,203.7 313.3,235.4 275.9,235.9 263.6,233.9 266.9,200.1 
					265,154.9 				"/>
			</g>
			<g id="XMLID_385_">
				<polygon class="st8" points="277.3,166.8 263.7,194 248.9,197 219.5,192.5 223.1,183.2 250.1,183.2 265.4,154.9 				"/>
			</g>
			<g id="XMLID_380_">
				<g id="XMLID_384_">
					<path class="st2" d="M279.9,127.7c3.9-11.5,19.1-7.2,22.2,3c2,6.7-3.1,15.3-10,17.2c0,0.3-0.1,0.5-0.1,0.7
						c0,1.1-0.1,2.1-0.3,3.2c-0.1,0.4-6.1-0.8-6.8-0.9c-0.2,0-0.5-0.1-0.6-0.3c-0.2-0.4,0.2-1.5,0.2-1.9c0.1-0.5,0.1-1,0.2-1.5
						c-3.4-1.7-5.6-5.2-6.2-8.8C277.9,134.8,278.7,131.2,279.9,127.7z"/>
				</g>
				<g id="XMLID_381_">
					<g id="XMLID_383_">
						<path class="st1" d="M289.8,117.3c0.8,0.8,1.1,2,1.4,3.1c0.1,0.7,0.3,1.3,0.1,2c-0.6,2.6-3.1,2.5-5.1,3.3
							c-2.5,1-4.6,2.9-6,5.1c-2.2,3.4-1.2,7.9-0.3,11.7c0.3,1.3,0.9,3.3-0.1,4.5c-1.1,1.2-3.5,1-4.8,0.4c-1.2-0.6-2.1-1.6-3.4-1.8
							c-1.3-0.2-3.2,0.4-3.8-0.9c-0.2-0.3-0.2-0.8-0.4-1.1c-0.7-1.1-2.6,0.2-3.6-0.6c-0.6-0.5-0.6-1.4-0.4-2.2
							c0.2-0.8,0.6-1.6,0.4-2.3c-0.1-0.7-0.6-1.2-0.9-1.8c-0.6-1.2-0.4-2.8,0.5-3.8c1.7-1.9,4.8-1.5,6.6-3.3
							c0.9-0.9,1.3-2.3,1.6-3.6c0.3-1.3,0.8-2.6,1.7-3.5c1.2-1.1,3-0.9,4.2-2.2c0.7-0.7,1.2-1.7,2-2.4c1-0.9,3.1-1.5,4.4-1.9
							C285.9,115.3,288.2,115.8,289.8,117.3z"/>
					</g>
					<g id="XMLID_382_">
						<path class="st1" d="M299.4,135.6c0.1,3.8-1.8,7.9-0.1,11.2c1.8,3.4,6.1,4,9.9,4.1c0.6,0,8.5,0.7,8.5,0.6
							c0.6-2.6,1.2-5.3,2.6-7.6c1.4-2.3,3.7-4.2,6.3-4.4c-0.8-0.1-1.1-1.1-1.1-1.8c0.1-0.8,0.5-1.5,0.7-2.2c0.6-1.9,0-4-1.4-5.3
							c-2.8-2.6-7.8-1.5-10.2-4.5c-1.5-1.8-1.3-4.5-2.1-6.8c-1.5-4.4-6.3-5.3-9.9-7.3c-3.8-2.1-7.3-3.2-11.7-2.5
							c-5.4,0.9-9.4,6.4-7.3,11.6c2.7,6.6,13.3,6.1,15.3,12.8C299.3,134.1,299.3,134.9,299.4,135.6z"/>
					</g>
				</g>
			</g>
		</g>
		<g id="XMLID_378_">
			<polygon class="st12" points="296.7,149.5 288.6,161 284.7,160.7 278.4,149 			"/>
		</g>
		<polygon class="st7" points="114.5,132.6 109.5,123.4 114.4,113.8 119.6,116.6 119,124.4 121.7,127.1 120.7,133.8 		"/>
		<g>
			<g>
				<polygon class="st1" points="192.2,219.9 192.9,279.4 186.6,355.9 178,355.9 167.6,285.3 155.9,214.6 				"/>
				<polygon class="st3" points="178,359.5 187.3,364.2 192,359.5 187.3,354.9 178,354.9 				"/>
			</g>
			<g>
				<polygon class="st1" points="133.2,219.9 133,254.3 138.8,355.9 147.4,355.9 161.8,288.5 169.5,214.6 				"/>
				<polygon class="st3" points="147.4,359.5 138,364.2 133.4,359.5 138,354.9 147.4,354.9 				"/>
			</g>
		</g>
		<path class="st5" d="M124.2,240.6c-0.2,5.5-0.1,12.8,2.2,13c0.4,0.1,0.8-0.1,1.2-0.3c4-1.9,6.8-4.7,10.8-6.6c4.1-2,8.8-3,13.4-3.7
			c6.8-1.1,13.8-1.7,20.7-1.8c5.9-0.1,12.1,2.6,17.7,4.1c2.2,0.6,3.9,2.1,5.7,3.4c2.6,1.8,3.8,2.5,3.4-1.2
			c-0.6-6.1-1.2-12.1-1.9-18.2c-1.5-12-3.5-24.1-6.9-35.7c-1.3-4.5-2.8-8.8-4.3-13.2c-1.8-5.3-3.7-10.7-5.5-16
			c-2.3-6.6-6.1-11.3-12.9-13.7c-5.8-2-13.1-2.6-18.7,0.3c-6.3,3.1-9.3,13.8-12.4,19.5c-2.7,5-6.1,18.6-7.1,24
			c-1.2,6.5-2.3,12.9-3.2,19.3c-1,7.1-1.7,14.2-1.9,21.3C124.4,235.8,124.3,238,124.2,240.6z"/>
		<path class="st12" d="M155.3,152l11.6,0.1c0,0,12.5,43.6,12.9,51.2c0.5,7.4,3.6,37.3,3.6,37.3s-12.9,0.3-27.7,2.1
			c-14.5,3.1-15.7,1.3-15.7,1.3s7.8-31.5,8.1-40.5c0.3-9.2,1.4-39.8,1.4-39.8L155.3,152z"/>
		<g>
			<path class="st7" d="M158.3,151.8c0.1,0.1,0.3,0.2,0.5,0.3c0.4,0.1,0.8,0.1,1.1,0c1.5-0.2,3.1-0.4,4.6-0.5
				c-0.5-4.7,2.2-5.8,4.9-8.8c2.7-3.1,1.9-7.2,1.7-11c0-1-0.1-2.1-0.5-3.1c-0.8-1.7-2.6-2.6-4.3-3.1c-4.5-1.4-9.6-1.1-13.6,1.5
				c-1.1,0.7-2,1.5-2.6,2.6c-0.9,1.7-0.7,3.8-0.4,5.7c0.4,2.9,1.2,5.8,2.9,8.3c1.5,2.3,4.5,3.4,4.8,6.2
				C157.5,150.6,157.7,151.4,158.3,151.8z"/>
			<g>
				<path class="st1" d="M149.8,132c0.3,1.2,0.8,2.4,0.5,3.6c-1.9-0.6-3.1-2.6-3.8-4.5c-0.3-0.9-0.5-1.8-0.4-2.8
					c0.1-0.9,0.5-1.9,1.2-2.4c1-0.7,2.9-0.4,3.2,0.9C150.8,128.1,149.4,130.2,149.8,132z"/>
				<path class="st1" d="M139.8,121.6c0-1.4,0.6-2.7,1.9-3.5c1.1-0.7,2.4-1.4,3-2.5c0.5-0.9,0.6-2,1.1-3c0.9-1.7,2.9-2.1,4.7-2.7
					c4.4-1.4,6.7-3,11.4-1.2c3.3,1.3,7.5,1.4,10.6,3.3c1.3,0.8,2.4,2,3.3,3.4c3.1,4.8,3.8,11.6,1.8,16.6c-0.4,1.1-1,2.2-1.6,3.2
					c-1.2,2-2.5,4.4-4.7,5.4c-0.1-0.9-0.8-1.5-1-2.4c-0.2-0.7-0.1-1.4-0.1-2c0.1-2.6,0.9-6.8-1.7-8.1c-3.3-1.7-9.6-0.2-12.8,1.2
					c-2.8,1.2-7.7,2.9-10.7,1.5C142,129.5,139.7,124.6,139.8,121.6z"/>
			</g>
		</g>
		<polygon class="st5" points="149,151 128.4,168.3 123.6,133 112.7,130.9 110.8,178.8 122.5,189.8 143.7,179.3 		"/>
		<g id="XMLID_375_">
			<circle id="XMLID_376_" class="st13" cx="232.1" cy="236.8" r="73.5"/>
		</g>
		<polygon class="st7" points="197.7,101.9 195.2,92.1 186.9,88.6 185.3,94.2 189.8,99.9 190.4,104.9 		"/>
		<polygon class="st5" points="169.5,151.7 195.7,141.2 187.5,99.9 196.9,98.8 212.7,141.9 209.5,154.9 179.9,174.9 		"/>
		<path class="st14" d="M258,0L116.1,0.6c-7.3,0-13.3,6.1-13.3,13.4l0.3,70.4c0,7.3,6.1,13.3,13.4,13.3l98.3-0.4l23.4,31.5l4.1-31.6
			l16.1-0.1c7.3,0,13.3-6.1,13.3-13.4l-0.3-70.4C271.3,6,265.3,0,258,0z"/>
		<g>
			<g id="XMLID_372_">
				<polygon class="st6" points="305.9,215.3 308.4,218.9 303.3,225.5 297.7,225.1 294.9,220.7 298.5,218.2 298,217.2 298.7,215.6 
									"/>
			</g>
			<g id="XMLID_371_">
				<polygon class="st8" points="305.3,151 334.3,184.3 335.7,199 307.1,221.6 302,214.1 320.5,194.4 302.6,176.8 				"/>
			</g>
		</g>
		<g>
			<path class="st12" d="M178.9,252.8h7.5v7.5h-7.5V252.8z"/>
			<path class="st12" d="M194.2,257.8c-2-2.1-2.9-5.1-2.9-9v-26.6c0-3.9,1-6.9,2.9-9c2-2.1,4.8-3.2,8.5-3.2c3.7,0,6.6,1.1,8.5,3.2
				c2,2.1,2.9,5.1,2.9,9v5.2h-7.4v-5.7c0-3.1-1.3-4.6-3.9-4.6c-2.6,0-3.9,1.5-3.9,4.6v27.6c0,3,1.3,4.5,3.9,4.5
				c2.6,0,3.9-1.5,3.9-4.5v-7.6h7.4v7c0,3.9-1,6.9-2.9,9c-2,2.1-4.8,3.2-8.5,3.2C199,261,196.1,259.9,194.2,257.8z"/>
			<path class="st12" d="M221.4,257.7c-2-2.2-3-5.2-3-9.2v-26c0-4,1-7,3-9.2c2-2.2,4.9-3.3,8.8-3.3c3.8,0,6.7,1.1,8.8,3.3
				c2,2.2,3,5.2,3,9.2v26c0,4-1,7-3,9.2c-2,2.2-4.9,3.3-8.8,3.3C226.4,261,223.4,259.9,221.4,257.7z M234.2,249.1v-27
				c0-3.3-1.3-4.9-4-4.9c-2.7,0-4,1.6-4,4.9v27c0,3.3,1.3,4.9,4,4.9C232.9,253.9,234.2,252.3,234.2,249.1z"/>
			<path class="st12" d="M247.2,210.8h11.1l4.9,35.4h0.1l4.9-35.4h11.1v49.5h-7.4v-37.5H272l-5.7,37.5h-6.5l-5.7-37.5H254v37.5h-6.8
				V210.8z"/>
		</g>
		<path class="st15" d="M258.4,97.1c7.3,0,13.3-6.1,13.3-13.4l-0.2-35.9h-0.7v-0.8H270v-0.8h-0.8v-0.8h-0.8v-0.8h-0.8V44h-0.8v-0.8
			h-0.8v-0.8h-0.8v-0.8h-0.8v-0.8h-0.8v-0.8H263v-0.8h-0.8v-0.8h-0.8v-0.8h-0.8V37h-0.8v-0.8h-0.8v-0.8h-0.8v-0.8h-0.8v-0.8h-0.8
			v-0.8H256v-0.8h-0.8v-0.8h-0.8v-0.8h-0.8V30h-0.8v-0.8h-0.8v-0.8h-0.8v-0.8h-0.8v-0.8h-0.8v-0.8h-0.8h-0.8v-0.8h-0.8v-0.8h-0.8
			v-0.8H246V23h-0.8v-0.8h-13.1V23v2.3H232v-0.8h-0.8v-0.8h-0.8V23h-0.8v-0.8h-13.1V23v5.3c-0.1-0.1-0.3-0.3-0.4-0.4
			c-0.1-0.1-0.1-0.2-0.2-0.2c-0.6-0.7-1.4-1.2-2.3-1.5c0,0,0,0,0,0c-0.2-0.2-0.4-0.4-0.6-0.5c-0.1-0.1-0.1-0.2-0.2-0.2
			c-0.2-0.2-0.4-0.4-0.6-0.5c-0.1-0.1-0.1-0.2-0.2-0.2c-0.2-0.2-0.4-0.4-0.6-0.5c-0.1-0.1-0.1-0.2-0.2-0.2c-1.3-1.4-3.1-2.1-5.6-2.1
			c-2.4,0-4.3,0.7-5.6,2.1c-1.3,1.4-1.9,3.3-1.9,5.8v0.8v5.7H198h-0.3l0.3-0.8h-0.8h-0.3l0.3-0.8h-0.8h-0.3l0.3-0.8h-0.8h-0.3
			l0.3-0.8h-0.8h-0.3l0.3-0.8h-0.8h-0.3l0.3-0.8h-0.8H193l0.3-0.8h-0.8h-0.3l0.3-0.8h-0.8h-0.3l0.3-0.8H191h-0.3l0.3-0.8h-0.8h-0.3
			l0.3-0.8h-0.8h-0.3l0.3-0.8h-0.8h-0.3l0.3-0.8h-0.8h-0.8h-0.3l0.3-0.8h-0.8H186l0.3-0.8h-0.8h-0.3l0.3-0.8h-0.8h-0.3l0.3-0.8H184
			h-0.3l0.3-0.8h-3.1l-2.2,5.8c-0.1-0.1-0.1-0.2-0.2-0.3c-0.2-0.2-0.3-0.3-0.5-0.5c-0.1-0.1-0.1-0.2-0.2-0.3
			c-0.5-0.5-1.1-0.9-1.9-1.1c-0.1,0-0.1-0.1-0.2-0.1c-0.1-0.1-0.1-0.2-0.2-0.3c-0.2-0.2-0.3-0.3-0.5-0.5c-0.1-0.1-0.1-0.2-0.2-0.3
			c-0.2-0.2-0.3-0.3-0.5-0.5c-0.1-0.1-0.1-0.2-0.2-0.3c-0.2-0.2-0.3-0.3-0.5-0.5c-0.1-0.1-0.1-0.2-0.2-0.3c-0.8-0.9-2-1.3-3.6-1.3
			c-1.6,0-2.7,0.4-3.6,1.3c-0.7,0.7-1.1,1.8-1.2,3h-0.1h-0.8v-0.8h-0.8v-0.8h-0.8v-0.8h-0.8V23h-0.8v-0.8h-13l-0.3,6.5c0,0,0,0,0,0
			c-0.1-0.1-0.1-0.2-0.2-0.2c-0.2-0.2-0.4-0.4-0.6-0.5c-0.1-0.1-0.1-0.2-0.2-0.2c-0.6-0.7-1.4-1.2-2.3-1.5c0,0,0,0,0,0
			c-0.2-0.2-0.4-0.4-0.6-0.5c-0.1-0.1-0.1-0.2-0.2-0.2c-0.2-0.2-0.4-0.4-0.6-0.5c-0.1-0.1-0.1-0.2-0.2-0.2c-0.2-0.2-0.4-0.4-0.6-0.5
			c-0.1-0.1-0.1-0.2-0.2-0.2c-1.3-1.4-3.1-2-5.5-2c-2.4,0-4.2,0.7-5.5,2c-1.3,1.4-1.9,3.3-1.9,5.9v0.8v2.3v0.8h0.8v0.8h0.8v0.8h0.8
			v0.8h0.8v0.8h0.8h0.8v0.8h0.8v0.8h0.4c-0.3,0.3-0.6,0.7-0.9,1c-1.9,1.9-3.1,3.7-3.9,5.3c-0.7,1.6-1.1,3.5-1.1,5.8v0.8v2.6v0.8h0.8
			v0.8h0.8V56h0.8v0.8h0.8v0.8h0.8h0.8v0.8h0.8v0.8h0.8v0.8h0.8v0.8h0.8v0.8h0.8v0.2h-1.8v0.8v1.8c0,0,0,0,0,0
			c-0.1-0.1-0.2-0.3-0.3-0.4c-0.1-0.1-0.3-0.3-0.5-0.4c-0.1-0.1-0.2-0.3-0.3-0.4c-0.1-0.1-0.3-0.3-0.5-0.4c-0.1-0.1-0.2-0.3-0.3-0.4
			c-0.5-0.5-1.1-0.7-2-0.7s-1.5,0.2-2,0.7c-0.5,0.5-0.7,1.2-0.7,2.1V65v5.1v0.8c0,0.9,0.2,1.6,0.7,2.1c0.1,0.1,0.3,0.3,0.5,0.4
			c0.1,0.1,0.2,0.3,0.3,0.4c0.1,0.1,0.3,0.3,0.5,0.4c0.1,0.1,0.2,0.3,0.3,0.4c0.1,0.1,0.3,0.3,0.5,0.4c0.1,0.1,0.2,0.3,0.3,0.4
			c0.1,0.1,0.3,0.3,0.5,0.4c0.1,0.1,0.2,0.3,0.3,0.4c0.4,0.4,0.9,0.6,1.5,0.7c0,0,0,0.1,0.1,0.1c0.1,0.1,0.3,0.3,0.5,0.4
			c0.1,0.1,0.2,0.3,0.3,0.4c0.1,0.1,0.3,0.3,0.5,0.4c0.1,0.1,0.2,0.3,0.3,0.4c0.1,0.1,0.3,0.3,0.5,0.4c0.1,0.1,0.2,0.3,0.3,0.4
			c0.1,0.1,0.3,0.3,0.5,0.4c0.1,0.1,0.2,0.3,0.3,0.4c0.1,0.1,0.3,0.3,0.5,0.4c0.1,0.1,0.2,0.3,0.3,0.4c0.1,0.1,0.3,0.3,0.5,0.4
			c0.1,0.1,0.2,0.3,0.3,0.4c0.1,0.1,0.3,0.3,0.5,0.4c0.1,0.1,0.2,0.3,0.3,0.4c0.1,0.1,0.3,0.3,0.5,0.4c0.1,0.1,0.2,0.3,0.3,0.4
			c0.1,0.1,0.3,0.3,0.5,0.4c0.1,0.1,0.2,0.3,0.3,0.4c0.1,0.1,0.3,0.3,0.5,0.4c0.1,0.1,0.2,0.3,0.3,0.4c0.1,0.1,0.3,0.3,0.5,0.4
			c0.1,0.1,0.2,0.3,0.3,0.4c0.1,0.1,0.3,0.3,0.5,0.4c0.1,0.1,0.2,0.3,0.3,0.4c0.1,0.1,0.3,0.3,0.5,0.4c0.1,0.1,0.2,0.3,0.3,0.4
			c0.1,0.1,0.3,0.3,0.5,0.4c0.1,0.1,0.2,0.3,0.3,0.4c0.1,0.1,0.3,0.3,0.5,0.4c0.1,0.1,0.2,0.3,0.3,0.4c0.1,0.1,0.3,0.3,0.5,0.4
			c0.1,0.1,0.2,0.3,0.3,0.4c0.1,0.1,0.3,0.3,0.5,0.4c0.1,0.1,0.2,0.3,0.3,0.4c0.1,0.1,0.3,0.3,0.5,0.4c0.1,0.1,0.2,0.3,0.3,0.4
			c0.1,0.1,0.3,0.3,0.5,0.4c0.1,0.1,0.2,0.3,0.3,0.4c0.1,0.1,0.3,0.3,0.5,0.4c0.1,0.1,0.2,0.3,0.3,0.4c0.1,0.1,0.3,0.3,0.5,0.4
			c0.1,0.1,0.2,0.3,0.3,0.4c0.1,0.1,0.3,0.3,0.5,0.4c0.1,0.1,0.2,0.3,0.3,0.4c0.1,0.1,0.3,0.3,0.5,0.4c0.1,0.1,0.2,0.3,0.3,0.4
			c0,0,0.1,0.1,0.1,0.1c0.1,0.6,0.3,1.1,0.6,1.4c0.1,0.1,0.3,0.3,0.5,0.4c0.1,0.1,0.2,0.3,0.3,0.4c0.1,0.1,0.3,0.3,0.5,0.4
			c0,0.1,0.1,0.1,0.2,0.2l60.3-0.3l21.2,28.6c0.1-0.1,0.3-0.2,0.4-0.3c0.3-0.3,0.4-0.6,0.5-1.1c0.1,0.1,0.2,0.3,0.3,0.4
			c0.1,0.1,0.3,0.3,0.5,0.4c0.1,0.1,0.2,0.3,0.3,0.4c0.2,0.2,0.3,0.3,0.5,0.4l3.7-28.9L258.4,97.1z M138.2,62.4H138l0-0.2h0.3V62.4z
			 M139,63.2h-0.2l0-0.2h0.3V63.2z M139.5,63.9L139.5,63.9L139.5,63.9L139.5,63.9z"/>
		<g>
			<path class="st12" d="M128.9,50.3c0-2.2,0.4-4.2,1.1-5.8c0.7-1.6,2-3.4,3.9-5.3c1.8-1.9,3.1-3.6,3.8-5c0.7-1.4,1.1-2.8,1.1-4.3
				c0-1.3-0.2-2.3-0.7-2.8c-0.4-0.5-1.1-0.8-1.9-0.8c-1.7,0-2.6,1-2.6,3.1v3.4h-4.7v-3.1c0-2.5,0.6-4.5,1.9-5.9c1.3-1.4,3.1-2,5.5-2
				c2.4,0,4.2,0.7,5.5,2c1.3,1.4,1.9,3.3,1.9,5.9c0,1.9-0.5,3.8-1.4,5.6c-0.9,1.8-2.5,3.9-4.7,6.3c-1.5,1.6-2.5,2.8-3,3.8
				c-0.5,1-0.8,2-0.8,3.1v0.7h9.4v4.5h-14.3V50.3z"/>
			<path class="st12" d="M148.7,52.1c-1.3-1.4-1.9-3.3-1.9-5.9v-2.5h4.7v2.8c0,2,0.9,3.1,2.6,3.1c1.7,0,2.6-1,2.6-3.1v-7.1
				c0-2.1-0.9-3.1-2.6-3.1c-1.7,0-2.6,1-2.6,3.1v0.3h-4.7l0.9-17.6h13v4.5h-8.6l-0.4,7.5h0.1c0.9-1.5,2.4-2.3,4.3-2.3
				c1.8,0,3.2,0.6,4.1,1.8c0.9,1.2,1.4,3,1.4,5.4v7.1c0,2.5-0.6,4.5-1.9,5.9c-1.3,1.4-3.1,2-5.5,2C151.8,54.1,150,53.5,148.7,52.1z"
				/>
			<path class="st12" d="M165.9,38.4c-0.8-0.9-1.2-2.1-1.2-3.7v-7.9c0-1.6,0.4-2.9,1.2-3.7c0.8-0.9,2-1.3,3.6-1.3
				c1.6,0,2.7,0.4,3.6,1.3c0.8,0.9,1.2,2.1,1.2,3.7v7.9c0,1.6-0.4,2.9-1.2,3.7c-0.8,0.9-2,1.3-3.6,1.3
				C167.9,39.7,166.7,39.3,165.9,38.4z M171.1,34.9v-8.3c0-1.3-0.5-2-1.6-2s-1.6,0.7-1.6,2v8.3c0,1.3,0.5,2,1.6,2
				S171.1,36.2,171.1,34.9z M180.9,22.2h3.1l-12.2,31.5h-3.1L180.9,22.2z M179.7,52.8c-0.8-0.9-1.2-2.1-1.2-3.7v-7.9
				c0-1.6,0.4-2.9,1.2-3.7c0.8-0.9,2-1.3,3.6-1.3c1.6,0,2.7,0.4,3.6,1.3c0.8,0.9,1.2,2.1,1.2,3.7v7.9c0,1.6-0.4,2.9-1.2,3.7
				c-0.8,0.9-2,1.3-3.6,1.3C181.7,54.1,180.5,53.7,179.7,52.8z M184.9,49.3V41c0-1.3-0.5-2-1.6-2s-1.6,0.7-1.6,2v8.3
				c0,1.3,0.5,2,1.6,2S184.9,50.7,184.9,49.3z"/>
			<path class="st12" d="M200.2,52.1c-1.3-1.4-1.9-3.3-1.9-5.8V29.7c0-2.5,0.6-4.5,1.9-5.8c1.3-1.4,3.1-2.1,5.6-2.1
				c2.4,0,4.3,0.7,5.6,2.1c1.3,1.4,1.9,3.3,1.9,5.8v16.5c0,2.5-0.6,4.5-1.9,5.8c-1.3,1.4-3.1,2.1-5.6,2.1
				C203.4,54.1,201.5,53.5,200.2,52.1z M208.3,46.5V29.4c0-2.1-0.9-3.1-2.6-3.1c-1.7,0-2.6,1-2.6,3.1v17.2c0,2.1,0.9,3.1,2.6,3.1
				C207.5,49.7,208.3,48.6,208.3,46.5z"/>
			<path class="st12" d="M216.6,22.2h13.1v4.5h-8.1v8.8h6.4V40h-6.4v13.7h-4.9V22.2z"/>
			<path class="st12" d="M232.1,22.2h13.1v4.5H237v8.8h6.4V40H237v13.7h-4.9V22.2z"/>
			<path class="st12" d="M129.8,72.2c-0.5-0.5-0.7-1.2-0.7-2.1v-5.8c0-0.9,0.2-1.6,0.7-2.1c0.5-0.5,1.1-0.7,2-0.7
				c0.9,0,1.5,0.2,2,0.7c0.5,0.5,0.7,1.2,0.7,2.1v5.8c0,0.9-0.2,1.6-0.7,2.1s-1.1,0.7-2,0.7C130.9,72.9,130.2,72.7,129.8,72.2z
				 M132.7,70.2v-6.1c0-0.7-0.3-1.1-0.9-1.1c-0.6,0-0.9,0.4-0.9,1.1v6.1c0,0.7,0.3,1.1,0.9,1.1C132.4,71.3,132.7,70.9,132.7,70.2z"
				/>
			<path class="st12" d="M135.6,61.6h2.2l1.7,6.6h0v-6.6h1.6v11.1h-1.8l-2.1-8.1h0v8.1h-1.6V61.6z"/>
			<path class="st12" d="M144.9,61.6h4.8v1.6h-3v2.9h2.4v1.6h-2.4v3.4h3v1.6h-4.8V61.6z"/>
			<path class="st12" d="M150.2,61.6h1.8l1.1,8.6h0l1.1-8.6h1.6l-1.7,11.1h-2.3L150.2,61.6z"/>
			<path class="st12" d="M156.7,61.6h4.8v1.6h-3v2.9h2.4v1.6h-2.4v3.4h3v1.6h-4.8V61.6z"/>
			<path class="st12" d="M162.5,61.6h2.6c0.9,0,1.6,0.2,2,0.6c0.4,0.4,0.6,1.1,0.6,1.9v0.7c0,1.2-0.4,1.9-1.1,2.2v0
				c0.4,0.1,0.7,0.4,0.9,0.8c0.2,0.4,0.3,0.9,0.3,1.6v2c0,0.3,0,0.6,0,0.8c0,0.2,0.1,0.4,0.2,0.6h-1.8c-0.1-0.2-0.1-0.3-0.1-0.5
				c0-0.2,0-0.4,0-0.9v-2c0-0.5-0.1-0.9-0.2-1.1c-0.2-0.2-0.4-0.3-0.8-0.3h-0.6v4.8h-1.7V61.6z M164.9,66.4c0.3,0,0.6-0.1,0.8-0.3
				c0.2-0.2,0.3-0.5,0.3-0.9v-0.9c0-0.4-0.1-0.7-0.2-0.9c-0.1-0.2-0.4-0.3-0.7-0.3h-0.8v3.2H164.9z"/>
			<path class="st12" d="M170.2,68l-2.1-6.4h1.9l1.2,4.1h0l1.2-4.1h1.7L172,68v4.7h-1.7V68z"/>
			<path class="st12" d="M177.4,61.6h2.7c0.9,0,1.5,0.2,2,0.7c0.4,0.5,0.7,1.1,0.7,2V70c0,0.9-0.2,1.6-0.7,2c-0.4,0.5-1.1,0.7-2,0.7
				h-2.7V61.6z M180.1,71.2c0.3,0,0.5-0.1,0.7-0.3c0.2-0.2,0.2-0.4,0.2-0.8v-5.8c0-0.4-0.1-0.7-0.2-0.8c-0.2-0.2-0.4-0.3-0.7-0.3
				h-0.9v7.9H180.1z"/>
			<path class="st12" d="M184.4,72.2c-0.5-0.5-0.7-1.2-0.7-2.1v-5.8c0-0.9,0.2-1.6,0.7-2.1c0.5-0.5,1.1-0.7,2-0.7
				c0.9,0,1.5,0.2,2,0.7c0.5,0.5,0.7,1.2,0.7,2.1v5.8c0,0.9-0.2,1.6-0.7,2.1s-1.1,0.7-2,0.7C185.5,72.9,184.9,72.7,184.4,72.2z
				 M187.3,70.2v-6.1c0-0.7-0.3-1.1-0.9-1.1c-0.6,0-0.9,0.4-0.9,1.1v6.1c0,0.7,0.3,1.1,0.9,1.1C187,71.3,187.3,70.9,187.3,70.2z"/>
			<path class="st12" d="M190.2,61.6h2.5l1.1,8h0l1.1-8h2.5v11.1h-1.7v-8.4h0l-1.3,8.4H193l-1.3-8.4h0v8.4h-1.5V61.6z"/>
			<path class="st12" d="M200.1,61.6h2.4l1.8,11.1h-1.7l-0.3-2.2v0h-2l-0.3,2.2h-1.6L200.1,61.6z M202,69.1l-0.8-5.5h0l-0.8,5.5H202
				z"/>
			<path class="st12" d="M205.1,61.6h1.7v11.1h-1.7V61.6z"/>
			<path class="st12" d="M208.2,61.6h2.2l1.7,6.6h0v-6.6h1.6v11.1h-1.8l-2.1-8.1h0v8.1h-1.6V61.6z"/>
			<path class="st12" d="M217.5,61.6h2.2l1.7,6.6h0v-6.6h1.6v11.1h-1.8l-2.1-8.1h0v8.1h-1.6V61.6z"/>
			<path class="st12" d="M225.6,61.6h2.4l1.8,11.1H228l-0.3-2.2v0h-2l-0.3,2.2h-1.6L225.6,61.6z M227.5,69.1l-0.8-5.5h0l-0.8,5.5
				H227.5z"/>
			<path class="st12" d="M230.6,61.6h2.5l1.1,8h0l1.1-8h2.5v11.1h-1.7v-8.4h0l-1.3,8.4h-1.5l-1.3-8.4h0v8.4h-1.5V61.6z"/>
			<path class="st12" d="M239.2,61.6h4.8v1.6h-3v2.9h2.4v1.6h-2.4v3.4h3v1.6h-4.8V61.6z"/>
		</g>
	</g>
</g>
</svg>
