<?xml version="1.0" encoding="utf-8"?>
<!-- Generator: Adobe Illustrator 23.0.3, SVG Export Plug-In . SVG Version: 6.00 Build 0)  -->
<svg version="1.1" id="Layer_1" xmlns="http://www.w3.org/2000/svg" xmlns:xlink="http://www.w3.org/1999/xlink" x="0px" y="0px"
	 viewBox="0 0 720 270.3" style="enable-background:new 0 0 720 270.3;" xml:space="preserve">
<style type="text/css">
	.st0{fill:#4B5560;}
	.st1{fill:#737B8E;}
	.st2{fill:#F59192;}
	.st3{fill:#E8B180;}
	.st4{fill:#7EC1EA;}
	.st5{fill:#B4D8AB;}
	.st6{fill:#72CCE0;}
	.st7{fill:#3D3C5E;}
	.st8{fill:#F68E70;}
	.st9{fill:#FFFFFF;}
	.st10{fill:#F3FAFD;}
	.st11{fill:#E0E0DF;}
	.st12{fill:#FFD452;}
</style>
<g>
	<g>
		<path class="st0" d="M548.5,67.5h-37.7c-0.4,0-0.8-0.2-1-0.6L491,34.3c-0.2-0.3-0.2-0.8,0-1.1l18.9-32.7c0.3-0.5,1-0.7,1.5-0.4
			c0.5,0.3,0.7,1,0.4,1.5l-18.5,32.1l18.2,31.6h36.4l18.5-32.1c0.3-0.5,1-0.7,1.5-0.4c0.5,0.3,0.7,1,0.4,1.5L549.4,67
			C549.2,67.3,548.9,67.5,548.5,67.5z"/>
		<path class="st0" d="M491.8,100.2h-37.7c-0.4,0-0.8-0.2-1-0.6L434.3,67c-0.2-0.3-0.2-0.8,0-1.1l18.9-32.7c0.2-0.3,0.6-0.6,1-0.6
			h37.7c0.4,0,0.8,0.2,1,0.6l18.9,32.7c0.2,0.3,0.2,0.8,0,1.1l-18.9,32.7C492.6,100,492.2,100.2,491.8,100.2z M454.8,98h36.4
			l18.2-31.6l-18.2-31.6h-36.4l-18.2,31.6L454.8,98z"/>
		<path class="st0" d="M548.5,132.9h-37.7c-0.4,0-0.8-0.2-1-0.6L491,99.6c-0.2-0.3-0.2-0.8,0-1.1l18.9-32.7c0.2-0.3,0.6-0.6,1-0.6
			h37.7c0.4,0,0.8,0.2,1,0.6l18.9,32.7c0.3,0.5,0.1,1.2-0.4,1.5c-0.5,0.3-1.2,0.1-1.5-0.4l-18.5-32.1h-36.4l-18.2,31.6l18.2,31.6
			h37.1c0.6,0,1.1,0.5,1.1,1.1C549.6,132.4,549.1,132.9,548.5,132.9z"/>
		<path class="st0" d="M491.8,165.5h-37.7c-0.4,0-0.8-0.2-1-0.6l-18.9-32.7c-0.2-0.3-0.2-0.8,0-1.1l18.9-32.7c0.2-0.3,0.6-0.6,1-0.6
			h37.7c0.4,0,0.8,0.2,1,0.6l18.9,32.7c0.3,0.5,0.1,1.2-0.4,1.5c-0.5,0.3-1.2,0.1-1.5-0.4l-18.5-32.1h-36.4l-18.2,31.6l18.2,31.6
			h37.1c0.6,0,1.1,0.5,1.1,1.1C492.9,165,492.5,165.5,491.8,165.5z"/>
		<path class="st0" d="M322.3,67.5h-37.7c-0.4,0-0.8-0.2-1-0.6l-18.9-32.7c-0.2-0.3-0.2-0.8,0-1.1l18.9-32.7c0.2-0.3,0.6-0.6,1-0.6
			h37.7c0.4,0,0.8,0.2,1,0.6l18.9,32.7c0.2,0.3,0.2,0.8,0,1.1L323.2,67C323.1,67.3,322.7,67.5,322.3,67.5z M285.2,65.3h36.4
			l18.2-31.6L321.7,2.2h-36.4L267,33.8L285.2,65.3z"/>
		<path class="st0" d="M265.7,100.2h-37.7c-0.4,0-0.8-0.2-1-0.6L208.1,67c-0.2-0.3-0.2-0.8,0-1.1L227,33.2c0.2-0.3,0.6-0.6,1-0.6
			h37.7c0.4,0,0.8,0.2,1,0.6l18.9,32.7c0.2,0.3,0.2,0.8,0,1.1l-18.9,32.7C266.4,100,266,100.2,265.7,100.2z M228.6,98H265l18.2-31.6
			L265,34.9h-36.4l-18.2,31.6L228.6,98z"/>
		<path class="st0" d="M435.4,67.5h-37.7c-0.4,0-0.8-0.2-1-0.6l-18.9-32.7c-0.2-0.3-0.2-0.8,0-1.1l18.9-32.7c0.2-0.3,0.6-0.6,1-0.6
			h37.7c0.4,0,0.8,0.2,1,0.6l18.9,32.7c0.2,0.3,0.2,0.8,0,1.1L436.4,67C436.2,67.3,435.8,67.5,435.4,67.5z M398.3,65.3h36.4
			L453,33.8L434.8,2.2h-36.4l-18.2,31.6L398.3,65.3z"/>
		<path class="st0" d="M378.8,100.2h-37.7c-0.4,0-0.8-0.2-1-0.6L321.3,67c-0.2-0.3-0.2-0.8,0-1.1l18.9-32.7c0.2-0.3,0.6-0.6,1-0.6
			h37.7c0.4,0,0.8,0.2,1,0.6l18.9,32.7c0.2,0.3,0.2,0.8,0,1.1l-18.9,32.7C379.5,100,379.2,100.2,378.8,100.2z M341.7,98h36.4
			l18.2-31.6l-18.2-31.6h-36.4l-18.2,31.6L341.7,98z"/>
		<path class="st0" d="M322.3,132.9h-37.7c-0.4,0-0.8-0.2-1-0.6l-18.9-32.7c-0.2-0.3-0.2-0.8,0-1.1l18.9-32.7c0.2-0.3,0.6-0.6,1-0.6
			h37.7c0.4,0,0.8,0.2,1,0.6l18.9,32.7c0.2,0.3,0.2,0.8,0,1.1l-18.9,32.7C323.1,132.6,322.7,132.9,322.3,132.9z M285.2,130.6h36.4
			l18.2-31.6l-18.2-31.6h-36.4L267,99.1L285.2,130.6z"/>
		<path class="st0" d="M265.7,165.5h-37.7c-0.6,0-1.1-0.5-1.1-1.1c0-0.6,0.5-1.1,1.1-1.1H265l18.2-31.6L265,100.2h-36.4L210,132.3
			c-0.3,0.5-1,0.7-1.5,0.4c-0.5-0.3-0.7-1-0.4-1.5L227,98.5c0.2-0.3,0.6-0.6,1-0.6h37.7c0.4,0,0.8,0.2,1,0.6l18.9,32.7
			c0.2,0.3,0.2,0.8,0,1.1L266.6,165C266.4,165.3,266,165.5,265.7,165.5z"/>
		<path class="st0" d="M435.4,132.9h-37.7c-0.4,0-0.8-0.2-1-0.6l-18.9-32.7c-0.2-0.3-0.2-0.8,0-1.1l18.9-32.7c0.2-0.3,0.6-0.6,1-0.6
			h37.7c0.4,0,0.8,0.2,1,0.6l18.9,32.7c0.2,0.3,0.2,0.8,0,1.1l-18.9,32.7C436.2,132.6,435.8,132.9,435.4,132.9z M398.3,130.6h36.4
			L453,99.1l-18.2-31.6h-36.4l-18.2,31.6L398.3,130.6z"/>
		<path class="st0" d="M209.2,67.5h-37.7c-0.4,0-0.8-0.2-1-0.6l-18.9-32.7c-0.3-0.5-0.1-1.2,0.4-1.5c0.5-0.3,1.2-0.1,1.5,0.4
			l18.5,32.1h36.4l18.2-31.6L208.3,1.7c-0.3-0.5-0.1-1.2,0.4-1.5c0.5-0.3,1.2-0.1,1.5,0.4L229,33.2c0.2,0.3,0.2,0.8,0,1.1L210.2,67
			C210,67.3,209.6,67.5,209.2,67.5z"/>
		<path class="st0" d="M209.2,132.9h-37.7c-0.6,0-1.1-0.5-1.1-1.1c0-0.6,0.5-1.1,1.1-1.1h37.1l18.2-31.6l-18.2-31.6h-36.4
			l-18.5,32.1c-0.3,0.5-1,0.7-1.5,0.4c-0.5-0.3-0.7-1-0.4-1.5l18.9-32.7c0.2-0.3,0.6-0.6,1-0.6h37.7c0.4,0,0.8,0.2,1,0.6L229,98.5
			c0.2,0.3,0.2,0.8,0,1.1l-18.9,32.7C210,132.6,209.6,132.9,209.2,132.9z"/>
		<g>
			<g>
				<path class="st1" d="M399,37.4c0,0.8-0.5,1.4-1.3,1.4c-0.7,0-1.3-0.6-1.3-1.4c0-0.8,0.6-1.3,1.3-1.3C398.4,36,399,36.6,399,37.4
					z"/>
				<path class="st1" d="M408.8,31.3l-1.8,1.3c-0.5-0.6-1.2-1-2.1-1c-1.3,0-2.2,1-2.2,2.5c0,1.5,0.9,2.5,2.2,2.5
					c0.9,0,1.7-0.4,2.1-1.1l1.8,1.2c-0.8,1.3-2.2,2-4.1,2c-2.8,0-4.7-1.9-4.7-4.7c0-2.8,1.9-4.7,4.7-4.7
					C406.6,29.3,408,30,408.8,31.3z"/>
				<path class="st1" d="M419.3,34c0,2.8-2,4.7-4.9,4.7c-2.9,0-4.9-1.9-4.9-4.7c0-2.8,2-4.7,4.9-4.7C417.3,29.3,419.3,31.2,419.3,34
					z M412.1,34c0,1.5,0.9,2.5,2.3,2.5c1.3,0,2.3-1,2.3-2.5c0-1.5-0.9-2.5-2.3-2.5C413,31.5,412.1,32.5,412.1,34z"/>
				<path class="st1" d="M436.5,32.8v5.8h-2.6v-5c0-1.2-0.7-1.9-1.8-1.9c-1.3,0-2,1-2,2.3v4.5h-2.6v-5c0-1.2-0.7-1.9-1.8-1.9
					c-1.3,0-2,1-2,2.3v4.5H421v-9.2h2.6V31c0.6-1.1,1.7-1.7,3.1-1.7c1.6,0,2.7,0.8,3.1,2.1c0.6-1.4,1.8-2.1,3.3-2.1
					C435.2,29.3,436.5,30.7,436.5,32.8z"/>
			</g>
		</g>
		<g>
			<g>
				<path class="st2" d="M183.4,102.7c0,0.8-0.5,1.4-1.3,1.4c-0.7,0-1.3-0.6-1.3-1.4c0-0.8,0.6-1.3,1.3-1.3
					C182.8,101.4,183.4,101.9,183.4,102.7z"/>
				<path class="st2" d="M188.1,92.1c0,0.9-0.6,1.5-1.4,1.5c-0.8,0-1.4-0.6-1.4-1.5s0.6-1.5,1.4-1.5
					C187.5,90.7,188.1,91.3,188.1,92.1z M185.4,103.9v-9.2h2.6v9.2H185.4z"/>
				<path class="st2" d="M199.7,98.2v5.8H197v-5c0-1.2-0.7-1.9-1.8-1.9c-1.3,0-2.1,1-2.1,2.4v4.5h-2.6v-9.2h2.6v1.6
					c0.6-1.1,1.7-1.7,3.2-1.7C198.3,94.6,199.7,96,199.7,98.2z"/>
			</g>
		</g>
		<g>
			<path class="st2" d="M457.7,70c0,0.8-0.5,1.4-1.3,1.4c-0.7,0-1.3-0.6-1.3-1.4c0-0.8,0.6-1.3,1.3-1.3
				C457.2,68.7,457.7,69.2,457.7,70z"/>
			<path class="st2" d="M468.1,67.5h-6.6c0.3,1.2,1.2,1.8,2.4,1.8c0.9,0,1.7-0.3,2.3-1l1.4,1.4c-0.9,1-2.3,1.6-3.9,1.6
				c-2.9,0-4.8-1.9-4.8-4.7c0-2.8,1.9-4.7,4.7-4.7C466.9,62,468.4,64.1,468.1,67.5z M465.7,65.9c0-1.2-0.8-2-2-2
				c-1.2,0-1.9,0.8-2.1,2H465.7z"/>
			<path class="st2" d="M478.9,71.3h-2.6v-1.3c-0.6,0.9-1.6,1.4-2.9,1.4c-2.6,0-4.3-1.9-4.3-4.7c0-2.8,1.7-4.7,4.3-4.7
				c1.3,0,2.3,0.5,3,1.4v-4.8h2.6V71.3z M476.3,66.7c0-1.5-0.9-2.5-2.3-2.5c-1.4,0-2.3,1.1-2.3,2.5c0,1.5,0.9,2.5,2.3,2.5
				C475.4,69.2,476.3,68.2,476.3,66.7z"/>
			<path class="st2" d="M490.3,71.3h-2.6v-1.6c-0.6,1.2-1.7,1.7-3.1,1.7c-2,0-3.3-1.3-3.3-3.5v-5.8h2.6v5c0,1.2,0.7,1.9,1.7,1.9
				c1.3,0,2-1,2-2.3v-4.5h2.6V71.3z"/>
		</g>
		<g>
			<path class="st1" d="M516.5,102.7c0,0.8-0.5,1.4-1.3,1.4c-0.8,0-1.3-0.6-1.3-1.4c0-0.8,0.6-1.3,1.3-1.3
				C516,101.4,516.5,101.9,516.5,102.7z"/>
			<path class="st1" d="M527.6,98.2v5.8H525v-5c0-1.2-0.7-1.9-1.8-1.9c-1.3,0-2.1,1-2.1,2.4v4.5h-2.6v-9.2h2.6v1.6
				c0.6-1.1,1.7-1.7,3.2-1.7C526.3,94.6,527.6,96,527.6,98.2z"/>
			<path class="st1" d="M538.3,100.1h-6.6c0.3,1.2,1.2,1.8,2.4,1.8c0.9,0,1.7-0.3,2.3-1l1.4,1.4c-0.9,1-2.3,1.6-3.9,1.6
				c-2.9,0-4.8-1.9-4.8-4.7c0-2.8,1.9-4.7,4.7-4.7C537,94.7,538.5,96.8,538.3,100.1z M535.9,98.6c0-1.2-0.8-2-2-2
				c-1.2,0-1.9,0.8-2.1,2H535.9z"/>
			<path class="st1" d="M545.7,103.4c-0.7,0.4-1.5,0.6-2.4,0.6c-1.6,0-2.9-0.9-2.9-2.8V97h-1.3v-1.8h1.3v-2.5h2.6v2.5h2.5V97h-2.5
				v3.8c0,0.8,0.3,1.1,0.9,1.1c0.3,0,0.8-0.1,1.2-0.3L545.7,103.4z"/>
		</g>
		<g>
			<g>
				<path class="st3" d="M345.7,70c0,0.8-0.5,1.4-1.3,1.4c-0.7,0-1.3-0.6-1.3-1.4c0-0.8,0.6-1.3,1.3-1.3
					C345.2,68.7,345.7,69.2,345.7,70z"/>
				<path class="st3" d="M356.2,70.4c0,2.6-2,4.3-4.9,4.3c-1.6,0-2.9-0.5-4-1.2l1-1.8c0.8,0.6,1.8,0.9,2.8,0.9c1.5,0,2.5-0.8,2.5-2
					v-1c-0.6,0.9-1.6,1.3-2.8,1.3c-2.4,0-4-1.8-4-4.4c0-2.6,1.6-4.3,3.9-4.3c1.2,0,2.2,0.5,2.8,1.3v-1.2h2.6V70.4z M353.6,66.4
					c0-1.4-0.9-2.4-2.1-2.4c-1.3,0-2.1,1-2.2,2.4c0,1.4,0.9,2.4,2.2,2.4C352.8,68.8,353.6,67.8,353.6,66.4z"/>
				<path class="st3" d="M367.7,66.7c0,2.8-2,4.7-4.9,4.7c-2.9,0-4.9-1.9-4.9-4.7c0-2.8,2-4.7,4.9-4.7
					C365.7,62,367.7,63.9,367.7,66.7z M360.5,66.7c0,1.5,0.9,2.5,2.3,2.5c1.3,0,2.3-1,2.3-2.5c0-1.5-0.9-2.5-2.3-2.5
					C361.4,64.2,360.5,65.2,360.5,66.7z"/>
				<path class="st3" d="M371.3,71.3l-3.5-9.2l2.7,0l2.2,6.7l2.1-6.7h2.6l-3.5,9.2H371.3z"/>
			</g>
		</g>
		<g>
			<path class="st4" d="M233.7,70c0,0.8-0.5,1.4-1.3,1.4c-0.7,0-1.3-0.6-1.3-1.4c0-0.8,0.6-1.3,1.3-1.3
				C233.1,68.7,233.7,69.2,233.7,70z"/>
			<path class="st4" d="M244.7,66.7c0,2.8-2,4.7-4.9,4.7c-2.9,0-4.9-1.9-4.9-4.7c0-2.8,2-4.7,4.9-4.7
				C242.7,62,244.7,63.9,244.7,66.7z M237.5,66.7c0,1.5,0.9,2.5,2.3,2.5c1.3,0,2.3-1,2.3-2.5c0-1.5-0.9-2.5-2.3-2.5
				C238.4,64.2,237.5,65.2,237.5,66.7z"/>
			<path class="st4" d="M249,63.7c0.6-1.1,1.7-1.7,3-1.8v2.5c-1.9-0.2-3,0.8-3,2.4v4.4h-2.6v-9.2h2.6V63.7z"/>
			<path class="st4" d="M262.1,70.4c0,2.6-2,4.3-4.9,4.3c-1.6,0-2.9-0.5-4-1.2l1-1.8c0.8,0.6,1.8,0.9,2.8,0.9c1.5,0,2.5-0.8,2.5-2
				v-1c-0.6,0.9-1.6,1.3-2.8,1.3c-2.4,0-4-1.8-4-4.4c0-2.6,1.6-4.3,3.9-4.3c1.2,0,2.2,0.5,2.8,1.3v-1.2h2.6V70.4z M259.5,66.4
				c0-1.4-0.9-2.4-2.1-2.4c-1.3,0-2.1,1-2.2,2.4c0,1.4,0.9,2.4,2.2,2.4C258.6,68.8,259.5,67.8,259.5,66.4z"/>
		</g>
		<g>
			<g>
				<path class="st5" d="M461.2,135.4c0,0.8-0.5,1.4-1.3,1.4c-0.7,0-1.3-0.6-1.3-1.4c0-0.8,0.6-1.3,1.3-1.3
					C460.7,134,461.2,134.6,461.2,135.4z"/>
				<path class="st5" d="M473.1,132c0,2.8-1.7,4.6-4.3,4.6c-1.3,0-2.3-0.5-2.9-1.4v1.3h-2.6v-12.6h2.6v4.8c0.6-0.9,1.7-1.4,2.9-1.4
					C471.4,127.3,473.1,129.2,473.1,132z M470.4,132c0-1.5-0.9-2.5-2.3-2.5c-1.3,0-2.3,1-2.3,2.5c0,1.5,0.9,2.5,2.3,2.5
					C469.5,134.5,470.4,133.5,470.4,132z"/>
				<path class="st5" d="M477.6,124.8c0,0.9-0.6,1.5-1.4,1.5s-1.4-0.6-1.4-1.5c0-0.9,0.6-1.5,1.4-1.5S477.6,123.9,477.6,124.8z
					 M474.8,136.6v-9.2h2.6v9.2H474.8z"/>
				<path class="st5" d="M482.6,134.5h4.9v2.1l-8.1,0v-1.7l4.7-5.4l-4.6,0v-2h7.8v1.7L482.6,134.5z"/>
			</g>
		</g>
		<g>
			<path class="st5" d="M288,37.4c0,0.8-0.5,1.4-1.3,1.4c-0.7,0-1.3-0.6-1.3-1.4c0-0.8,0.6-1.3,1.3-1.3C287.4,36,288,36.6,288,37.4z
				"/>
			<path class="st5" d="M292.7,26.8c0,0.9-0.6,1.5-1.4,1.5s-1.4-0.6-1.4-1.5c0-0.9,0.6-1.5,1.4-1.5S292.7,26,292.7,26.8z
				 M289.9,38.6v-9.2h2.6v9.2H289.9z"/>
			<path class="st5" d="M304.2,32.8v5.8h-2.6v-5c0-1.2-0.7-1.9-1.8-1.9c-1.3,0-2.1,1-2.1,2.4v4.5h-2.6v-9.2h2.6V31
				c0.6-1.1,1.7-1.7,3.2-1.7C302.9,29.3,304.2,30.7,304.2,32.8z"/>
			<path class="st5" d="M309.6,29.1v0.8h2.2v1.8h-2.2v6.9H307v-6.9h-1.2v-1.8h1.2V29c0-2,1.5-3.1,3.4-3.1c0.9,0,1.8,0.2,2.4,0.6
				l-0.9,1.9c-0.3-0.3-0.8-0.4-1.1-0.4C310.1,28,309.6,28.3,309.6,29.1z"/>
			<path class="st5" d="M321.7,34c0,2.8-2,4.7-4.9,4.7c-2.9,0-4.9-1.9-4.9-4.7c0-2.8,2-4.7,4.9-4.7C319.7,29.3,321.7,31.2,321.7,34z
				 M314.5,34c0,1.5,0.9,2.5,2.3,2.5c1.3,0,2.3-1,2.3-2.5c0-1.5-0.9-2.5-2.3-2.5C315.5,31.5,314.5,32.5,314.5,34z"/>
		</g>
		<g>
			<path class="st6" d="M200.8,254.8h-17.9c-0.6,0-1.1-0.5-1.1-1.1s0.5-1.1,1.1-1.1h17.9c0.6,0,1.1,0.5,1.1,1.1
				S201.4,254.8,200.8,254.8z"/>
			<path class="st6" d="M245.2,254.8h-38.7c-0.6,0-1.1-0.5-1.1-1.1s0.5-1.1,1.1-1.1h38.7c0.6,0,1.1,0.5,1.1,1.1
				S245.8,254.8,245.2,254.8z"/>
			<path class="st6" d="M210.4,260.2h-17.3c-0.6,0-1.1-0.5-1.1-1.1s0.5-1.1,1.1-1.1h17.3c0.6,0,1.1,0.5,1.1,1.1
				S211,260.2,210.4,260.2z"/>
			<path class="st6" d="M239.9,260.2h-23.8c-0.6,0-1.1-0.5-1.1-1.1s0.5-1.1,1.1-1.1h23.8c0.6,0,1.1,0.5,1.1,1.1
				S240.5,260.2,239.9,260.2z"/>
			<path class="st6" d="M245.2,265.7h-8.9c-0.6,0-1.1-0.5-1.1-1.1s0.5-1.1,1.1-1.1h8.9c0.6,0,1.1,0.5,1.1,1.1
				S245.8,265.7,245.2,265.7z"/>
			<path class="st6" d="M230.9,265.7h-22c-0.6,0-1.1-0.5-1.1-1.1s0.5-1.1,1.1-1.1h22c0.6,0,1.1,0.5,1.1,1.1S231.5,265.7,230.9,265.7
				z"/>
		</g>
		<path class="st0" d="M245.2,270.3h-67.3c-6.2,0-11.2-5-11.2-11.2c0-6.2,5-11.2,11.2-11.2h67.3c0.6,0,1.1,0.5,1.1,1.1v20.1
			C246.3,269.8,245.8,270.3,245.2,270.3z M177.9,250.2c-4.9,0-9,4-9,9c0,4.9,4,9,9,9h66.2v-17.9H177.9z"/>
		<path class="st0" d="M252.9,250.2h-12.3c-0.6,0-1.1-0.5-1.1-1.1s0.5-1.1,1.1-1.1h12.3c0.6,0,1.1,0.5,1.1,1.1
			S253.5,250.2,252.9,250.2z"/>
		<path class="st7" d="M252.9,270.3h-12.3c-0.6,0-1.1-0.5-1.1-1.1c0-0.6,0.5-1.1,1.1-1.1h12.3c0.6,0,1.1,0.5,1.1,1.1
			C254,269.8,253.5,270.3,252.9,270.3z"/>
		<polygon class="st8" points="237,265.9 230.9,263.4 224.8,265.9 224.8,253.7 237,253.7 		"/>
		<path class="st0" d="M237,267c-0.1,0-0.3,0-0.4-0.1l-5.7-2.3l-5.7,2.3c-0.3,0.1-0.7,0.1-1-0.1c-0.3-0.2-0.5-0.5-0.5-0.9v-12.2
			c0-0.6,0.5-1.1,1.1-1.1H237c0.6,0,1.1,0.5,1.1,1.1v12.2c0,0.4-0.2,0.7-0.5,0.9C237.5,266.9,237.3,267,237,267z M230.9,262.3
			c0.1,0,0.3,0,0.4,0.1l4.6,1.9v-9.5h-10.1v9.5l4.6-1.9C230.6,262.3,230.8,262.3,230.9,262.3z"/>
		<path class="st0" d="M458.5,233.7H261.5c-3.3,0-6.1-2.7-6.1-6.1V91.1c0-3.3,2.7-6.1,6.1-6.1h197.1c3.3,0,6.1,2.7,6.1,6.1v136.6
			C464.6,231,461.9,233.7,458.5,233.7z M261.5,87.2c-2.1,0-3.9,1.7-3.9,3.9v136.6c0,2.1,1.7,3.9,3.9,3.9h197.1
			c2.1,0,3.9-1.7,3.9-3.9V91.1c0-2.1-1.7-3.9-3.9-3.9H261.5z"/>
		<path class="st9" d="M256.5,91.1v126.1h207V91.1c0-2.7-2.2-5-5-5H261.5C258.7,86.1,256.5,88.3,256.5,91.1z"/>
		<path class="st0" d="M463.5,218.3h-207c-0.6,0-1.1-0.5-1.1-1.1V91.1c0-3.3,2.7-6.1,6.1-6.1h197.1c3.3,0,6.1,2.7,6.1,6.1v126.1
			C464.6,217.8,464.1,218.3,463.5,218.3z M257.6,216.1h204.8v-125c0-2.1-1.7-3.9-3.9-3.9H261.5c-2.1,0-3.9,1.7-3.9,3.9V216.1z"/>
		<rect x="267" y="96.6" class="st9" width="186.1" height="110.2"/>
		<path class="st6" d="M424.4,206.7H295.6c0.3-2.8,0.8-5.6,1.5-8.3c2.5-10.2,7.4-19.4,14.1-27c11.9-13.6,29.4-22.2,48.8-22.2
			c19.5,0,36.9,8.6,48.8,22.2c6.7,7.6,11.6,16.8,14.1,27C423.6,201.1,424.1,203.9,424.4,206.7z"/>
		<g>
			<path class="st0" d="M424.4,207.8H295.6c-0.3,0-0.6-0.1-0.8-0.4c-0.2-0.2-0.3-0.5-0.3-0.9c0.3-2.8,0.8-5.7,1.5-8.4
				c2.5-10.1,7.5-19.6,14.4-27.4c12.5-14.3,30.6-22.5,49.7-22.5c19,0,37.1,8.2,49.7,22.5c6.9,7.9,11.8,17.4,14.4,27.4
				c0.7,2.7,1.2,5.6,1.5,8.4c0,0.3-0.1,0.6-0.3,0.9C425.1,207.7,424.8,207.8,424.4,207.8z M296.8,205.6h126.4
				c-0.3-2.3-0.8-4.7-1.3-6.9c-2.4-9.8-7.2-18.9-13.9-26.5c-12.1-13.8-29.6-21.8-48-21.8c-18.4,0-35.9,7.9-48,21.8
				c-6.7,7.6-11.5,16.8-13.9,26.5C297.6,201,297.1,203.3,296.8,205.6z"/>
			<path class="st0" d="M390.9,207.8h-61.8c-0.3,0-0.6-0.1-0.8-0.3c-0.2-0.2-0.3-0.5-0.3-0.8c0.1-2.8,0.4-5.6,0.7-8.4
				c1.2-10,3.6-19.5,6.9-27.3c6.1-14.5,15-22.8,24.4-22.8c9.4,0,18.3,8.3,24.4,22.8c3.3,7.8,5.7,17.3,6.9,27.3
				c0.3,2.8,0.6,5.6,0.7,8.4c0,0.3-0.1,0.6-0.3,0.8C391.5,207.7,391.2,207.8,390.9,207.8z M330.3,205.6h59.5
				c-0.1-2.4-0.4-4.7-0.6-7.1c-1.2-9.8-3.5-19-6.7-26.7c-5.7-13.7-13.9-21.5-22.4-21.5c-8.5,0-16.7,7.8-22.4,21.5
				c-3.2,7.6-5.5,16.9-6.7,26.7C330.6,200.9,330.4,203.3,330.3,205.6z"/>
			<path class="st0" d="M422.9,199.5H297.1c-0.6,0-1.1-0.5-1.1-1.1s0.5-1.1,1.1-1.1h125.9c0.6,0,1.1,0.5,1.1,1.1
				S423.6,199.5,422.9,199.5z"/>
			<path class="st0" d="M408.8,172.6h-97.7c-0.6,0-1.1-0.5-1.1-1.1c0-0.6,0.5-1.1,1.1-1.1h97.7c0.6,0,1.1,0.5,1.1,1.1
				C409.9,172.1,409.4,172.6,408.8,172.6z"/>
			<path class="st0" d="M360,207.8c-0.6,0-1.1-0.5-1.1-1.1v-57.4c0-0.6,0.5-1.1,1.1-1.1s1.1,0.5,1.1,1.1v57.4
				C361.1,207.3,360.6,207.8,360,207.8z"/>
		</g>
		<path class="st0" d="M453,207.8H267c-0.6,0-1.1-0.5-1.1-1.1V96.6c0-0.6,0.5-1.1,1.1-1.1H453c0.6,0,1.1,0.5,1.1,1.1v110.2
			C454.1,207.3,453.6,207.8,453,207.8z M268.1,205.6h183.9v-108H268.1V205.6z"/>
		<path class="st0" d="M380.1,262.6h-40.2c-0.3,0-0.7-0.2-0.9-0.4c-0.2-0.3-0.3-0.6-0.2-0.9l6.6-28.9c0.1-0.5,0.6-0.9,1.1-0.9h27
			c0.5,0,1,0.4,1.1,0.9l6.6,28.9c0.1,0.3,0,0.7-0.2,0.9C380.8,262.4,380.4,262.6,380.1,262.6z M341.3,260.4h37.4l-6.1-26.7h-25.2
			L341.3,260.4z"/>
		<path class="st10" d="M335,260.4c-4,0-7.2,3.2-7.2,7.2v1.3h64.4v-1.4c0-3.9-3.2-7.1-7.1-7.1H335z"/>
		<path class="st0" d="M392.2,270h-64.4c-0.6,0-1.1-0.5-1.1-1.1v-1.3c0-4.6,3.7-8.3,8.3-8.3h50c4.6,0,8.3,3.7,8.3,8.3v1.3
			C393.3,269.5,392.8,270,392.2,270z M328.9,267.8h62.2v-0.2c0-3.4-2.7-6.1-6.1-6.1h-50c-3.4,0-6.1,2.7-6.1,6.1V267.8z"/>
		<g>
			<path class="st0" d="M463.5,270h-34.7c-0.6,0-1.1-0.5-1.1-1.1v-0.8c0-4.1,3.1-7.8,7.6-8.9c7.2-1.8,14.5-1.8,21.6,0l0,0
				c4.5,1.1,7.6,4.8,7.6,8.9v0.8C464.6,269.5,464.1,270,463.5,270z M429.9,267.8h32.5c-0.2-3-2.6-5.6-6-6.4l0,0
				c-6.8-1.7-13.8-1.7-20.6,0C432.4,262.2,430,264.9,429.9,267.8z"/>
		</g>
		<rect x="303.4" y="264.4" class="st10" width="113.2" height="4.5"/>
		<path class="st0" d="M416.6,270H303.4c-0.6,0-1.1-0.5-1.1-1.1v-4.5c0-0.6,0.5-1.1,1.1-1.1h113.2c0.6,0,1.1,0.5,1.1,1.1v4.5
			C417.7,269.5,417.2,270,416.6,270z M304.5,267.8h111v-2.3h-111V267.8z"/>
		<g>
			<g>
				<path class="st5" d="M522.9,253.3c5.5-8.3,11.5-20.1,16.8-33.6s9-26.3,10.6-36.1c-5.5,8.3-11.5,20.1-16.8,33.6
					C528.2,230.7,524.5,243.5,522.9,253.3z"/>
				<path class="st7" d="M522.9,254.4c-0.1,0-0.3,0-0.4-0.1c-0.5-0.2-0.8-0.7-0.7-1.2c1.7-10.3,5.5-23.2,10.7-36.3
					c5.2-13.1,11.2-25.1,16.9-33.8c0.3-0.4,0.8-0.6,1.3-0.4c0.5,0.2,0.8,0.7,0.7,1.2c-1.7,10.3-5.5,23.2-10.7,36.3
					c-5.2,13.1-11.2,25.1-16.9,33.8C523.6,254.2,523.2,254.4,522.9,254.4z M548.1,189.2c-4.7,7.9-9.4,17.8-13.6,28.4
					c-4.2,10.6-7.4,21-9.4,30c4.7-7.9,9.4-17.8,13.6-28.4C542.9,208.7,546.1,198.2,548.1,189.2z"/>
			</g>
			<g>
				<path class="st5" d="M525.2,253.3c-5.5-8.3-11.5-20.1-16.8-33.6c-5.3-13.5-9-26.3-10.6-36.1c5.5,8.3,11.5,20.1,16.8,33.6
					C520,230.7,523.6,243.5,525.2,253.3z"/>
				<path class="st7" d="M525.2,254.4c-0.4,0-0.7-0.2-0.9-0.5c-5.8-8.7-11.8-20.7-16.9-33.8c-5.2-13.1-9-26-10.7-36.3
					c-0.1-0.5,0.2-1,0.7-1.2c0.5-0.2,1,0,1.3,0.4c5.8,8.7,11.8,20.7,16.9,33.8c5.2,13.1,9,26,10.7,36.3c0.1,0.5-0.2,1-0.7,1.2
					C525.5,254.4,525.4,254.4,525.2,254.4z M500,189.2c2,9,5.2,19.4,9.4,30c4.2,10.6,8.9,20.5,13.6,28.4c-2-9-5.2-19.4-9.4-30
					C509.4,207,504.7,197.2,500,189.2z"/>
			</g>
		</g>
		<g>
			<path class="st5" d="M524.1,259c2.1-13.6,3.3-31.9,3.3-52.2s-1.3-38.6-3.3-52.2c-2.1,13.6-3.3,31.9-3.3,52.2S522,245.4,524.1,259
				z"/>
			<path class="st7" d="M524.1,260.1c-0.5,0-1-0.4-1.1-0.9c-2.2-14.2-3.4-32.8-3.4-52.3c0-19.6,1.2-38.2,3.4-52.3
				c0.1-0.5,0.5-0.9,1.1-0.9c0.5,0,1,0.4,1.1,0.9c2.2,14.2,3.4,32.8,3.4,52.3c0,19.6-1.2,38.2-3.4,52.3
				C525.1,259.7,524.6,260.1,524.1,260.1z M524.1,163c-1.5,12.7-2.2,27.9-2.2,43.8c0,15.9,0.8,31.1,2.2,43.8
				c1.5-12.7,2.2-27.9,2.2-43.8C526.3,191,525.5,175.7,524.1,163z"/>
		</g>
		<g>
			<path class="st5" d="M522.8,262.1c4.4-13,8.9-30.9,12.5-50.8s5.5-38.2,5.9-52c-4.4,13-8.9,30.9-12.5,50.8
				C525.1,230,523.2,248.3,522.8,262.1z"/>
			<path class="st7" d="M522.8,263.2c-0.1,0-0.1,0-0.2,0c-0.5-0.1-0.9-0.6-0.9-1.1c0.4-14.3,2.5-32.8,5.9-52.1
				c3.4-19.3,7.9-37.4,12.5-50.9c0.2-0.5,0.7-0.8,1.2-0.7c0.5,0.1,0.9,0.6,0.9,1.1c-0.4,14.3-2.5,32.8-5.9,52.1
				c-3.4,19.3-7.9,37.4-12.5,50.9C523.7,262.9,523.3,263.2,522.8,263.2z M539.7,167.6c-3.7,12.3-7.1,27.1-9.9,42.7
				c-2.8,15.6-4.7,30.7-5.5,43.5c3.7-12.3,7.1-27.1,9.9-42.7C537,195.5,538.9,180.3,539.7,167.6z"/>
		</g>
		<g>
			<path class="st5" d="M525.3,262.1c-4.4-13-8.9-30.9-12.5-50.8s-5.5-38.2-5.9-52c4.4,13,8.9,30.9,12.5,50.8
				C523,230,525,248.3,525.3,262.1z"/>
			<path class="st7" d="M525.3,263.2c-0.5,0-0.9-0.3-1-0.7c-4.6-13.6-9.1-31.7-12.5-50.9c-3.4-19.3-5.5-37.8-5.9-52.1
				c0-0.5,0.4-1,0.9-1.1c0.5-0.1,1.1,0.2,1.2,0.7c4.6,13.6,9.1,31.7,12.5,50.9c3.4,19.3,5.5,37.8,5.9,52.1c0,0.5-0.4,1-0.9,1.1
				C525.4,263.2,525.4,263.2,525.3,263.2z M508.4,167.6c0.8,12.8,2.7,27.9,5.5,43.5c2.8,15.6,6.3,30.5,9.9,42.7
				c-0.8-12.8-2.7-27.9-5.5-43.5C515.5,194.7,512.1,179.8,508.4,167.6z"/>
		</g>
		<rect x="501.1" y="224.1" class="st11" width="45.9" height="12.3"/>
		<path class="st0" d="M547,237.5h-45.9c-0.6,0-1.1-0.5-1.1-1.1v-12.3c0-0.6,0.5-1.1,1.1-1.1H547c0.6,0,1.1,0.5,1.1,1.1v12.3
			C548.1,237,547.6,237.5,547,237.5z M502.2,235.3h43.7v-10.1h-43.7V235.3z"/>
		<polygon class="st11" points="508.3,268.9 505,236.4 543.1,236.4 539.8,268.9 		"/>
		<path class="st0" d="M539.8,270h-31.6c-0.6,0-1-0.4-1.1-1l-3.3-32.4c0-0.3,0.1-0.6,0.3-0.8c0.2-0.2,0.5-0.4,0.8-0.4h38.2
			c0.3,0,0.6,0.1,0.8,0.4c0.2,0.2,0.3,0.5,0.3,0.8l-3.3,32.4C540.9,269.5,540.4,270,539.8,270z M509.3,267.8h29.6l3.1-30.2h-35.7
			L509.3,267.8z"/>
		<path class="st0" d="M542.3,246.1h-16.5c-0.6,0-1.1-0.5-1.1-1.1c0-0.6,0.5-1.1,1.1-1.1h16.5c0.6,0,1.1,0.5,1.1,1.1
			C543.4,245.6,542.9,246.1,542.3,246.1z"/>
		<path class="st0" d="M532.5,252.1h-14.9c-0.6,0-1.1-0.5-1.1-1.1c0-0.6,0.5-1.1,1.1-1.1h14.9c0.6,0,1.1,0.5,1.1,1.1
			C533.6,251.6,533.1,252.1,532.5,252.1z"/>
		<path class="st0" d="M535.9,258.2h-10.1c-0.6,0-1.1-0.5-1.1-1.1c0-0.6,0.5-1.1,1.1-1.1h10.1c0.6,0,1.1,0.5,1.1,1.1
			C537,257.7,536.5,258.2,535.9,258.2z"/>
		<path class="st0" d="M537.2,264.3h-19.6c-0.6,0-1.1-0.5-1.1-1.1c0-0.6,0.5-1.1,1.1-1.1h19.6c0.6,0,1.1,0.5,1.1,1.1
			C538.3,263.8,537.8,264.3,537.2,264.3z"/>
		<g>
			<path class="st0" d="M424.9,168.1c-0.3,0-0.6-0.1-0.8-0.3l-7.3-7.3l-3.6,4.6c-0.3,0.4-0.8,0.5-1.2,0.4c-0.4-0.2-0.7-0.6-0.7-1
				v-16.2c0-0.6,0.5-1.1,1.1-1.1h16.2c0.5,0,0.9,0.3,1,0.7c0.2,0.4,0,0.9-0.4,1.2l-4.6,3.6l7.3,7.3c0.4,0.4,0.4,1.1,0,1.6l-6.2,6.2
				C425.5,168,425.2,168.1,424.9,168.1z M416.7,157.7c0.3,0,0.6,0.1,0.8,0.3l7.4,7.4l4.7-4.7l-7.4-7.4c-0.2-0.2-0.3-0.5-0.3-0.8
				c0-0.3,0.2-0.6,0.4-0.8l3.1-2.4h-12v12l2.4-3.1C416.1,157.9,416.4,157.8,416.7,157.7C416.7,157.7,416.7,157.7,416.7,157.7z"/>
		</g>
		<path class="st0" d="M225,250.2h-29.2c-0.6,0-1.1-0.4-1.1-1l-3.3-48.4c0-0.3,0.1-0.6,0.3-0.8c0.2-0.2,0.5-0.3,0.8-0.3h35.8
			c0.3,0,0.6,0.1,0.8,0.3c0.2,0.2,0.3,0.5,0.3,0.8l-3.3,48.4C226.1,249.7,225.6,250.2,225,250.2z M196.8,248H224l3.2-46.2h-33.4
			L196.8,248z"/>
		<path class="st0" d="M233.1,201.8h-45.4c-0.6,0-1.1-0.5-1.1-1.1v-5.8c0-0.6,0.5-1.1,1.1-1.1h45.4c0.6,0,1.1,0.5,1.1,1.1v5.8
			C234.2,201.3,233.7,201.8,233.1,201.8z M188.8,199.6H232V196h-43.2V199.6z"/>
		<path class="st0" d="M227.5,196h-34.1c-0.4,0-0.7-0.2-0.9-0.5c-0.2-0.3-0.3-0.6-0.2-1l1.7-5.2c0.1-0.5,0.6-0.8,1.1-0.8h30.8
			c0.5,0,0.9,0.3,1.1,0.8l1.7,5.2c0.1,0.3,0,0.7-0.2,1C228.2,195.8,227.8,196,227.5,196z M194.8,193.8H226l-1-3h-29.2L194.8,193.8z"
			/>
		<polygon class="st12" points="227.6,235.7 193.2,235.7 191.4,211.2 229.4,211.2 		"/>
		<path class="st0" d="M227.6,236.8h-34.4c-0.6,0-1.1-0.4-1.1-1l-1.8-24.4c0-0.3,0.1-0.6,0.3-0.8c0.2-0.2,0.5-0.4,0.8-0.4h38
			c0.3,0,0.6,0.1,0.8,0.4c0.2,0.2,0.3,0.5,0.3,0.8l-1.8,24.4C228.7,236.3,228.2,236.8,227.6,236.8z M194.2,234.5h32.4l1.6-22.2
			h-35.6L194.2,234.5z"/>
		<path class="st0" d="M395.8,141.5h-71.6c-6.8,0-12.4-5.6-12.4-12.4v-5.6c0-6.8,5.6-12.4,12.4-12.4h71.6c6.8,0,12.4,5.6,12.4,12.4
			v5.6C408.2,135.9,402.6,141.5,395.8,141.5z M324.2,113.3c-5.6,0-10.2,4.6-10.2,10.2v5.6c0,5.6,4.6,10.2,10.2,10.2h71.6
			c5.6,0,10.2-4.6,10.2-10.2v-5.6c0-5.6-4.6-10.2-10.2-10.2H324.2z"/>
		<g>
			<path class="st8" d="M341.7,132.4l-2.5-8.7l-2.5,8.7h-2.8l-4-12.2h3l2.6,9.2l2.5-9.2h2.7l2.6,9.2l2.5-9.2h2.8l-4,12.2H341.7z"/>
			<path class="st8" d="M362.5,132.4l-2.5-8.7l-2.5,8.7h-2.8l-4-12.2h3l2.6,9.2l2.5-9.2h2.7l2.6,9.2l2.5-9.2h2.8l-4,12.2H362.5z"/>
			<path class="st8" d="M383.3,132.4l-2.5-8.7l-2.5,8.7h-2.8l-4-12.2h3l2.6,9.2l2.5-9.2h2.7l2.6,9.2l2.5-9.2h2.8l-4,12.2H383.3z"/>
		</g>
	</g>
	<g>
		<rect y="258.3" class="st0" width="130" height="2"/>
		<rect x="40" y="243.3" class="st0" width="80" height="2"/>
		<rect x="590" y="258.3" class="st0" width="130" height="2"/>
		<rect x="600" y="243.3" class="st0" width="80" height="2"/>
		<rect x="80" y="268.3" class="st0" width="560" height="2"/>
	</g>
</g>
</svg>
