<?xml version="1.0" encoding="utf-8"?>
<!-- Generator: Adobe Illustrator 23.0.3, SVG Export Plug-In . SVG Version: 6.00 Build 0)  -->
<svg version="1.1" id="Capa_1" xmlns="http://www.w3.org/2000/svg" xmlns:xlink="http://www.w3.org/1999/xlink" x="0px" y="0px"
	 viewBox="0 0 52.7 50" style="enable-background:new 0 0 52.7 50;" xml:space="preserve">
<g>
	<path d="M49.1,0H3.5C1.6,0,0,1.6,0,3.5v4.4c0,0.5,0.4,0.9,0.9,0.9h22.8c0.5,0,0.9-0.3,0.9-0.8s-0.4-1-0.9-1H1.8V3.5
		c0-1,0.8-1.8,1.8-1.8h45.6c1,0,1.8,0.8,1.8,1.8V7H23.7c-0.5,0-0.9,0.4-0.9,0.9s0.4,0.9,0.9,0.9h28.1c0.5,0,0.9-0.4,0.9-0.9V3.5
		C52.6,1.6,51.1,0,49.1,0z"/>
	<path d="M51.8,5.2c-0.5,0-0.9,0.4-0.9,0.9v40.4c0,1-0.8,1.8-1.8,1.8H3.5c-1,0-1.8-0.8-1.8-1.8V6.1c0-0.5-0.4-0.9-0.9-0.9
		s-0.9,0.4-0.9,0.9v40.4c0,1.9,1.6,3.5,3.5,3.5H49c1.9,0,3.5-1.6,3.5-3.5V6.1C52.6,5.6,52.2,5.2,51.8,5.2z"/>
	<g>
		<path d="M4.4,3.5c-0.5,0-0.9,0.4-0.9,0.9s0.4,0.9,0.9,0.9h0.9c0.5,0,0.9-0.4,0.9-0.9S5.8,3.5,5.3,3.5H4.4z"/>
		<path d="M8.7,3.5c-0.5,0-0.9,0.4-0.9,0.9s0.4,0.9,0.9,0.9h0.9c0.5,0,0.9-0.4,0.9-0.9s-0.4-0.9-0.9-0.9H8.7z"/>
		<path d="M13.1,3.5c-0.5,0-0.9,0.4-0.9,0.9s0.4,0.9,0.9,0.9H14c0.5,0,0.9-0.4,0.9-0.9S14.5,3.5,14,3.5H13.1L13.1,3.5z"/>
	</g>
	<path d="M13.3,21c-0.9,0-1.7,0.7-1.7,1.7v19c0,0.9,0.7,1.7,1.7,1.7h26c0.9,0,1.7-0.7,1.7-1.7v-19c0-0.9-0.7-1.7-1.7-1.7h-9.5v-1.4
		h2.1c0.3,0,0.6-0.2,0.7-0.5s0-0.6-0.2-0.8l-5.6-4.9c-0.3-0.2-0.7-0.2-0.9,0l-5.6,4.9c-0.2,0.2-0.3,0.5-0.2,0.8
		c0.1,0.3,0.4,0.5,0.7,0.5h2.1V21H13.3z M23.5,18.2h-0.9l3.7-3.3l3.7,3.3h-0.9c-0.4,0-0.7,0.3-0.7,0.7v5.6c0,0.4,0.3,0.7,0.7,0.7
		s0.7-0.3,0.7-0.7v-2.1h9.5c0.1,0,0.1,0,0.2,0.1c0,0,0.1,0.1,0.1,0.2v19c0,0.1,0,0.1-0.1,0.2c0,0-0.1,0.1-0.2,0.1h-26
		c-0.1,0-0.1,0-0.2-0.1c0,0-0.1-0.1-0.1-0.2v-19c0-0.1,0-0.1,0.1-0.2c0,0,0.1-0.1,0.2-0.1h9.5v2.1c0,0.4,0.3,0.7,0.7,0.7
		c0.4,0,0.7-0.3,0.7-0.7v-5.6C24.2,18.5,23.9,18.2,23.5,18.2z"/>
	<path d="M14.6,24.1c-0.2,0.3-0.2,0.7,0.1,1L25,33.2c0.8,0.6,1.9,0.6,2.7,0L38,25.1c0.2-0.2,0.3-0.4,0.3-0.7c0-0.2-0.2-0.5-0.4-0.6
		c-0.2-0.1-0.5-0.1-0.7,0.1L26.9,32c-0.3,0.2-0.7,0.2-1,0l-10.3-8.1C15.3,23.7,14.8,23.8,14.6,24.1z"/>
	<path d="M21.6,33.6c-0.2-0.1-0.5,0-0.7,0.2l-6.3,5.6c-0.2,0.2-0.3,0.4-0.2,0.7c0,0.3,0.2,0.5,0.5,0.5s0.5,0,0.7-0.2l6.3-5.6
		c0.2-0.2,0.3-0.4,0.2-0.7C22.1,33.9,21.9,33.7,21.6,33.6z"/>
	<path d="M37.9,39.3l-6.3-5.6c-0.3-0.2-0.7-0.2-1,0.1c-0.3,0.3-0.2,0.7,0,1l6.3,5.6c0.2,0.2,0.5,0.2,0.7,0.2
		c0.2-0.1,0.4-0.3,0.5-0.5C38.2,39.8,38.1,39.5,37.9,39.3z"/>
</g>
</svg>
