<?xml version="1.0" encoding="utf-8"?>
<!-- Generator: Adobe Illustrator 23.0.3, SVG Export Plug-In . SVG Version: 6.00 Build 0)  -->
<svg version="1.1" id="Capa_1" xmlns="http://www.w3.org/2000/svg" xmlns:xlink="http://www.w3.org/1999/xlink" x="0px" y="0px"
	 viewBox="0 0 38.7 50" style="enable-background:new 0 0 38.7 50;" xml:space="preserve">
<g>
	<path d="M19.4,4c-4.4,0-8.1,3.6-8.1,8.1s3.6,8.1,8.1,8.1c4.4,0,8.1-3.6,8.1-8.1S23.8,4,19.4,4z M19.4,18.5c-3.6,0-6.5-2.9-6.5-6.5
		s2.9-6.5,6.5-6.5s6.5,2.9,6.5,6.5S22.9,18.5,19.4,18.5z"/>
	<path d="M18.6,7.3h1.6v6.5h-1.6V7.3z"/>
	<path d="M18.6,15.3h1.6v1.6h-1.6V15.3z"/>
	<path d="M31.5,10.1V0H7.3v10.1L0,17.4v20.5h6.5v5.6h1.6v-7.3H2.8l10.9-10.9l5.7,4.7l5.7-4.7L36,36.2h-5.3v7.3h1.6v-5.6h6.5V17.4
		L31.5,10.1z M36,16.9h-3.2L31.5,18v-5.6L36,16.9z M7.3,18L6,16.9H2.8l4.5-4.5V18z M1.6,35.1V18.5h3.7l1.9,1.6l0,0h0.1l5.1,4.2
		L1.6,35.1z M8.9,19.4V1.7h21v17.7L19.4,28L8.9,19.4z M31.4,20.2L31.4,20.2L31.4,20.2l2-1.6h3.7v16.6L26.3,24.4L31.4,20.2z"/>
	<path d="M6.5,45.2h1.6v1.6H6.5V45.2z"/>
	<path d="M6.5,48.4h1.6V50H6.5V48.4z"/>
	<path d="M30.7,45.2h1.6v1.6h-1.6V45.2z"/>
	<path d="M30.7,48.4h1.6V50h-1.6V48.4z"/>
	<path d="M9.7,31.5h1.6v1.6H9.7V31.5z"/>
	<path d="M9.7,34.7h1.6v1.6H9.7V34.7z"/>
	<path d="M9.7,37.9h1.6V50H9.7V37.9z"/>
	<path d="M12.9,31.5h1.6v7.3h-1.6V31.5z"/>
	<path d="M12.9,40.3h1.6v1.6h-1.6V40.3z"/>
	<path d="M12.9,43.5h1.6v1.6h-1.6V43.5z"/>
	<path d="M16.2,31.5h1.6v1.6h-1.6V31.5z"/>
	<path d="M16.2,34.7h1.6v1.6h-1.6V34.7z"/>
	<path d="M16.2,37.9h1.6V50h-1.6V37.9z"/>
	<path d="M21,31.5h1.6v1.6H21V31.5z"/>
	<path d="M21,34.7h1.6v1.6H21V34.7z"/>
	<path d="M21,37.9h1.6V50H21V37.9z"/>
	<path d="M24.2,31.5h1.6v7.3h-1.6V31.5z"/>
	<path d="M24.2,40.3h1.6v1.6h-1.6V40.3z"/>
	<path d="M24.2,43.5h1.6v1.6h-1.6V43.5z"/>
	<path d="M27.4,31.5H29v1.6h-1.6V31.5z"/>
	<path d="M27.4,34.7H29v1.6h-1.6V34.7z"/>
	<path d="M27.4,37.9H29V50h-1.6V37.9z"/>
</g>
</svg>
