<?xml version="1.0" encoding="utf-8"?>
<!-- Generator: Adobe Illustrator 23.0.3, SVG Export Plug-In . SVG Version: 6.00 Build 0)  -->
<svg version="1.1" id="Capa_1" xmlns="http://www.w3.org/2000/svg" xmlns:xlink="http://www.w3.org/1999/xlink" x="0px" y="0px"
	 viewBox="0 0 47.1 50" style="enable-background:new 0 0 47.1 50;" xml:space="preserve">
<g>
	<path d="M22,26.3c0.2,0.3,0.7,0.3,1,0.1l3.4-2.8c0.3-0.2,0.3-0.7,0.1-1s-0.7-0.3-1-0.1l-2.9,2.4l-1-1.2c-0.2-0.3-0.7-0.3-1-0.1
		c-0.3,0.2-0.3,0.7-0.1,1L22,26.3z"/>
	<path d="M23.5,30.8c3.5,0,6.4-2.9,6.4-6.4c0-1.7-0.6-3.2-1.8-4.4v-4.4c0-2.5-2-4.5-4.5-4.5s-4.5,2-4.5,4.5v4.3
		c-1.9,1.8-2.4,4.6-1.4,7C18.5,29.3,20.9,30.8,23.5,30.8z M20.4,15.6c0-1.8,1.4-3.2,3.2-3.2s3.2,1.4,3.2,3.2v3.3
		c-2-1.1-4.4-1.2-6.4-0.1V15.6z M23.5,19.4c2.8,0,5,2.2,5,5s-2.2,5-5,5s-5-2.2-5-5c0-1.3,0.5-2.6,1.5-3.6
		C20.9,19.9,22.1,19.4,23.5,19.4z"/>
	<path d="M27.9,0.2L27.9,0.2C27.8,0,27.6,0,27.4,0h-0.1l0,0c0,0,0,0-0.1,0H13.4C11,0,9.1,1.9,9.1,4.3v10.5l-7.7,4.7
		C0.5,20,0,21,0,22v22.2C0,47.4,2.6,50,5.8,50h35.5c3.2,0,5.8-2.6,5.8-5.8V22c0-1-0.5-2-1.4-2.5l-7.5-4.6c0,0,0,0-0.1,0l-0.2-0.1
		v-3.2c0-0.2-0.1-0.3-0.2-0.5 M44.9,20.7c0.5,0.3,0.8,0.8,0.8,1.4v1.3l-7.8,4.7V16.4L44.9,20.7z M28.1,2.5l6.6,7.3h-3.6
		c-1.6,0-2.9-1.3-2.9-2.9V2.5H28.1z M13.4,1.4h13.3v5.5c0,2.4,1.9,4.3,4.3,4.3h4.9l0.6,0.7v17l-13,8l-13-8V4.3
		C10.5,2.7,11.8,1.4,13.4,1.4z M2.1,20.7l7-4.2v11.6l-7.8-4.7v-1.3C1.3,21.5,1.6,20.9,2.1,20.7z M41.2,48.6H5.7
		c-2.4,0-4.4-2-4.4-4.4V24.9l8,4.9c0.1,0.1,0.2,0.1,0.3,0.2l13.6,8.3c0.2,0.1,0.5,0.1,0.7,0L37.5,30c0.1,0,0.2-0.1,0.3-0.2l8-4.9
		v19.3C45.6,46.7,43.7,48.6,41.2,48.6z"/>
</g>
</svg>
