<?xml version="1.0" encoding="utf-8"?>
<!-- Generator: Adobe Illustrator 23.0.3, SVG Export Plug-In . SVG Version: 6.00 Build 0)  -->
<svg version="1.1" id="Capa_1" xmlns="http://www.w3.org/2000/svg" xmlns:xlink="http://www.w3.org/1999/xlink" x="0px" y="0px"
	 viewBox="0 0 53.6 50" style="enable-background:new 0 0 53.6 50;" xml:space="preserve">
<g>
	<path d="M50.9,24.1V4.5c0-2.5-2-4.5-4.5-4.5H7.1C4.6,0,2.6,2,2.6,4.5v13.4c-1.5,0-2.7,1.2-2.7,2.7v26.8c0,1.5,1.2,2.7,2.7,2.7h19.6
		c1.5,0,2.7-1.2,2.7-2.7h7.5c0.8,0,1.6-0.4,2.1-1.1s0.7-1.5,0.5-2.3l-1.8-6.4h5.1v9.8c0,1.5,1.2,2.7,2.7,2.7h9.8
		c1.5,0,2.7-1.2,2.7-2.7V26.9C53.6,25.3,52.4,24.1,50.9,24.1z M23.9,48c0,0.5-1.1,0.9-1.6,0.9H2c-0.5,0-0.9-0.4-0.9-0.9v-3.1h22.8
		V48z M23.9,43.8H1.1V24.2h22.8V43.8z M23.9,23H1.1v-2.5c0-0.5,0.4-1.6,0.9-1.6h21c0.5,0,0.9,1.1,0.9,1.6L23.9,23L23.9,23z
		 M33.4,44.4c0.1,0.3,0,1.2-0.2,1.4c-0.2,0.2-0.4,0.4-0.7,0.4H25v-2.5h8.2L33.4,44.4z M25,42.7v-5.1h6.5l1.2,5.1H25z M38.4,36.4H25
		v-6.7h13.4V36.4z M38.4,26.8v1.8H25v-8c0-1.5-1.2-2.7-2.7-2.7H3.8V4.5C3.8,3,5,1.2,6.5,1.2h40c1.5,0,3.3,1.9,3.3,3.3v19.6h-8.7
		C39.6,24.1,38.4,25.3,38.4,26.8z M52.5,48c0,0.5-1.1,0.9-1.6,0.9H40.4c-0.5,0-0.9-0.4-0.9-0.9v-3.1h13V48z M52.5,43.8H39.6V30.4
		h12.9V43.8z M52.5,29.3H39.6v-3.1c0-0.5,0.4-0.9,0.9-0.9h11.2c0.5,0,0.9,0.4,0.9,0.9L52.5,29.3L52.5,29.3z"/>
	<rect x="4.6" y="34.8" transform="matrix(0.7071 -0.7071 0.7071 0.7071 -23.1131 15.5377)" width="5.1" height="1.8"/>
	<rect x="6.8" y="33.9" transform="matrix(0.7071 -0.7071 0.7071 0.7071 -20.4119 20.3946)" width="15.2" height="1.8"/>
	<rect x="9.7" y="28.6" transform="matrix(0.7071 -0.7071 0.7071 0.7071 -16.8779 18.1611)" width="7.6" height="1.8"/>
	<rect x="42" y="34.4" transform="matrix(0.7071 -0.7071 0.7071 0.7071 -11.7273 42.2563)" width="6.3" height="1.8"/>
	<rect x="43.8" y="38" transform="matrix(0.7071 -0.7071 0.7071 0.7071 -13.7322 44.5881)" width="6.3" height="1.8"/>
	<rect x="23" y="12.5" transform="matrix(0.7071 -0.7071 0.7071 0.7071 -1.6485 22.8767)" width="7.6" height="1.8"/>
	<rect x="31.1" y="10.7" transform="matrix(0.7071 -0.7071 0.7071 0.7071 2.0156 28.045)" width="7.6" height="1.8"/>
	<rect x="26.1" y="17" transform="matrix(0.7071 -0.7071 0.7071 0.7071 -4.2501 25.491)" width="5.1" height="1.8"/>
	<rect x="30.5" y="6.3" transform="matrix(0.7071 -0.7071 0.7071 0.7071 4.5819 25.4983)" width="5.1" height="1.8"/>
	<rect x="6.3" y="3.6" width="1.8" height="1.8"/>
	<rect x="9.9" y="3.6" width="1.8" height="1.8"/>
	<rect x="13.4" y="3.6" width="1.8" height="1.8"/>
</g>
</svg>
