<?xml version="1.0" encoding="utf-8"?>
<!-- Generator: Adobe Illustrator 23.0.3, SVG Export Plug-In . SVG Version: 6.00 Build 0)  -->
<svg version="1.1" id="Capa_1" xmlns="http://www.w3.org/2000/svg" xmlns:xlink="http://www.w3.org/1999/xlink" x="0px" y="0px"
	 viewBox="270.9 372 52.1 50" style="enable-background:new 270.9 372 52.1 50;" xml:space="preserve">
<style type="text/css">
	.st0{fill:#176e16;}
</style>
<g>
	<path class="st0" d="M322.2,380.2c-0.6-0.8-1.5-1.2-2.5-1.3v-3.6c0-1.8-1.5-3.3-3.3-3.3h-39c-1.8,0-3.3,1.5-3.3,3.3v3.6
		c-1,0.1-1.8,0.6-2.5,1.3c-0.7,0.9-1,2-0.8,3.1l3.3,17.2l-1.3,17.9c-0.1,0.9,0.3,1.8,0.9,2.5c0.6,0.7,1.5,1.1,2.4,1.1h41.4
		c0.9,0,1.8-0.4,2.4-1.1c0.6-0.7,1-1.6,0.9-2.5l-1.3-17.9l3.3-17.2C323.2,382.2,322.9,381.1,322.2,380.2z M276.4,375.3
		c0-0.6,0.5-1.1,1.1-1.1h39c0.6,0,1.1,0.5,1.1,1.1v3.6h-41.3V375.3z M320.9,382.9l-3.2,16.5h-7.4c-0.6,0-1.1,0.5-1.1,1.1
		s0.5,1.1,1.1,1.1h7.3l1.3,17.1c0,0.3-0.1,0.7-0.3,0.9c-0.2,0.3-0.6,0.4-0.9,0.4h-41.4c-0.3,0-0.7-0.1-0.9-0.4
		c-0.2-0.3-0.4-0.6-0.3-0.9l1.3-17.1h8c0.6,0,1.1-0.5,1.1-1.1s-0.5-1.1-1.1-1.1h-8.1l-3.2-16.5c-0.1-0.5,0-0.9,0.3-1.3
		c0.3-0.4,0.8-0.6,1.2-0.6h44.7c0.5,0,0.9,0.2,1.2,0.6C320.9,381.9,321,382.4,320.9,382.9z"/>
</g>
<g>
	<path class="st0" d="M302.5,399.4h-5.7c-0.6,0-1.1,0.5-1.1,1.1c0,0.6,0.5,1.1,1.1,1.1h5.7c0.6,0,1.1-0.5,1.1-1.1
		C303.5,399.9,303.1,399.4,302.5,399.4z"/>
</g>
<g>
	<path class="st0" d="M293.4,401c1.7-1.1,2.8-3,2.8-5.1c0-3.4-2.8-6.1-6.3-6.1c-3.5,0-6.3,2.8-6.3,6.1c0,0.6,0.5,1.1,1.1,1.1
		s1.1-0.5,1.1-1.1c0-2.2,1.9-4,4.2-4s4.2,1.8,4.2,4c0,2.2-1.9,4-4.2,4h-2c-0.6,0-1.1,0.5-1.1,1.1s0.5,1.1,1.1,1.1h2
		c2.3,0,4.2,1.8,4.2,4s-1.9,4-4.2,4s-4.2-1.8-4.2-4c0-0.6-0.5-1.1-1.1-1.1s-1.1,0.5-1.1,1.1c0,3.4,2.8,6.1,6.3,6.1
		c3.5,0,6.3-2.8,6.3-6.1C296.2,404,295.1,402.1,293.4,401z"/>
</g>
<g>
	<path class="st0" d="M307.1,389.9c-0.3-0.2-0.7-0.2-1.1,0l-5.8,3.4c-0.5,0.3-0.7,0.9-0.4,1.4c0.3,0.5,0.9,0.7,1.4,0.4l4.2-2.5v18.5
		c0,0.6,0.5,1.1,1.1,1.1c0.6,0,1.1-0.5,1.1-1.1v-20.4C307.6,390.4,307.4,390.1,307.1,389.9z"/>
</g>
<g>
	<circle class="st0" cx="307.8" cy="376.4" r="1.1"/>
</g>
<g>
	<circle class="st0" cx="286.5" cy="376.4" r="1.1"/>
</g>
</svg>
