<?xml version="1.0" encoding="utf-8"?>
<!-- Generator: Adobe Illustrator 23.0.3, SVG Export Plug-In . SVG Version: 6.00 Build 0)  -->
<svg version="1.1" id="Capa_1" xmlns="http://www.w3.org/2000/svg" xmlns:xlink="http://www.w3.org/1999/xlink" x="0px" y="0px"
	 viewBox="299.8 417 36.8 50" style="enable-background:new 299.8 417 36.8 50;" xml:space="preserve">
<style type="text/css">
	.st0{fill:#176e16;}
</style>
<g>
	<path class="st0" d="M336.3,430.4l-13.2-13.2c-0.2-0.2-0.4-0.3-0.7-0.3h-18.5c-2.3,0-4.1,1.8-4.1,4.1v41.8c0,2.3,1.8,4.1,4.1,4.1
		h28.6c2.3,0,4.1-1.8,4.1-4.1v-31.8C336.6,430.8,336.5,430.6,336.3,430.4z M323.4,420.3l9.8,9.8h-7.7c-1.2,0-2.1-0.9-2.1-2.1
		L323.4,420.3L323.4,420.3z M334.6,462.9c0,1.2-0.9,2.1-2.1,2.1h-28.6c-1.2,0-2.1-0.9-2.1-2.1V421c0-1.2,0.9-2.1,2.1-2.1h17.5v9.1
		c0,2.3,1.8,4.1,4.1,4.1h9.1V462.9L334.6,462.9z"/>
</g>
<g>
	<path class="st0" d="M325.8,441.9h-15.2c-0.5,0-1,0.4-1,1v13.2c0,0.5,0.4,1,1,1h15.2c0.5,0,1-0.4,1-1v-13.2
		C326.8,442.3,326.3,441.9,325.8,441.9z M311.6,443.8h5.6v2.4h-5.6V443.8z M317.2,455.1h-5.6v-2.4h5.6V455.1z M317.2,450.7
		L317.2,450.7h-5.6v-2.5h5.6V450.7z M324.8,455.1h-5.6v-2.4h5.6V455.1z M324.8,450.7h-5.6v-2.5h5.6V450.7z M324.8,446.2h-5.6v-2.4
		h5.6V446.2z"/>
</g>
</svg>
