<?xml version="1.0" encoding="utf-8"?>
<!-- Generator: Adobe Illustrator 23.0.3, SVG Export Plug-In . SVG Version: 6.00 Build 0)  -->
<svg version="1.1" id="Capa_1" xmlns="http://www.w3.org/2000/svg" xmlns:xlink="http://www.w3.org/1999/xlink" x="0px" y="0px"
	 viewBox="252.3 372.3 48.5 50" style="enable-background:new 252.3 372.3 48.5 50;" xml:space="preserve">
<style type="text/css">
	.st0{fill:#176e16;}
</style>
<path class="st0" d="M300.8,392.3c0-0.1,0-0.1,0-0.2c0,0,0-0.1,0-0.1c0,0,0-0.1-0.1-0.1c0,0-0.1-0.1-0.1-0.1c0,0,0,0,0,0l-7.8-6
	v-6.3c0-1.3-1.1-2.4-2.4-2.4h-8.8l-3.5-4.2c-0.9-0.7-2.1-0.7-2.9,0l-3.5,4.2h-8.8c-1.3,0-2.4,1.1-2.4,2.4v6.3l-7.8,6c0,0,0,0,0,0
	c0,0-0.1,0.1-0.1,0.1c0,0-0.1,0.1-0.1,0.1c0,0,0,0.1,0,0.1c0,0.1,0,0.1,0,0.2c0,0,0,0,0,0v27.5c0,0.5,0.2,1,0.5,1.4c0,0,0,0,0,0
	c0,0,0,0,0,0c0.5,0.6,1.2,1,1.9,1h43.7c0.8,0,1.5-0.4,1.9-1c0,0,0,0,0,0c0,0,0,0,0,0c0.3-0.4,0.5-0.9,0.5-1.4L300.8,392.3
	C300.8,392.4,300.8,392.4,300.8,392.3z M276.1,374.1c0.3-0.2,0.7-0.2,1,0l1.9,2.9h-4.7L276.1,374.1z M254.9,420.7l21.2-16.4
	c0.3-0.2,0.7-0.2,1,0l21.2,16.4H254.9z M299.2,419.4L278,403c-0.9-0.7-2.1-0.7-2.9,0l-21.2,16.4v-25.8l13.3,10.3
	c0.4,0.3,0.9,0.2,1.1-0.1c0.3-0.4,0.2-0.9-0.1-1.1l-13.5-10.5l5.7-4.4v10.2c0,0.4,0.4,0.8,0.8,0.8c0.4,0,0.8-0.4,0.8-0.8v-18.5
	c0-0.4,0.4-0.8,0.8-0.8h27.5c0.4,0,0.8,0.4,0.8,0.8v18.5c0,0.4,0.4,0.8,0.8,0.8c0.4,0,0.8-0.4,0.8-0.8v-10.2l5.7,4.4l-13.5,10.5
	c-0.2,0.2-0.4,0.5-0.3,0.8c0,0.3,0.2,0.5,0.5,0.6c0.3,0.1,0.6,0.1,0.8-0.1l13.3-10.3L299.2,419.4L299.2,419.4z"/>
<path class="st0" d="M286.3,393.2V390c0-5.4-4.3-9.7-9.7-9.7c-5.4,0-9.7,4.3-9.7,9.7c0,5.4,4.3,9.7,9.7,9.7c0.4,0,0.8-0.4,0.8-0.8
	c0-0.4-0.4-0.8-0.8-0.8c-4.5,0-8.1-3.6-8.1-8.1c0-4.5,3.6-8.1,8.1-8.1c4.5,0,8.1,3.6,8.1,8.1v3.2c0,0.9-0.7,1.6-1.6,1.6
	c-0.9,0-1.6-0.7-1.6-1.6V390c0-0.4-0.4-0.8-0.8-0.8c-0.4,0-0.8,0.4-0.8,0.8c0,1.8-1.4,3.2-3.2,3.2c-1.8,0-3.2-1.4-3.2-3.2
	c0-1.8,1.4-3.2,3.2-3.2c0.4,0,0.8-0.4,0.8-0.8c0-0.4-0.4-0.8-0.8-0.8c-2.2,0-4.1,1.4-4.7,3.5c-0.6,2.1,0.3,4.3,2.1,5.5
	c1.8,1.1,4.2,0.9,5.8-0.6c0.2,1.7,1.7,3,3.4,2.9C284.9,396.3,286.3,394.9,286.3,393.2z"/>
</svg>
