<?xml version="1.0" encoding="utf-8"?>
<!-- Generator: Adobe Illustrator 23.0.3, SVG Export Plug-In . SVG Version: 6.00 Build 0)  -->
<svg version="1.1" id="Capa_1" xmlns="http://www.w3.org/2000/svg" xmlns:xlink="http://www.w3.org/1999/xlink" x="0px" y="0px"
	 viewBox="238.8 372.4 36.8 50" style="enable-background:new 238.8 372.4 36.8 50;" xml:space="preserve">
<style type="text/css">
	.st0{fill:#176e16;}
</style>
<g>
	<path class="st0" d="M275.3,385.8l-13.2-13.2c-0.2-0.2-0.4-0.3-0.7-0.3h-18.5c-2.3,0-4.1,1.8-4.1,4.1v41.8c0,2.3,1.8,4.1,4.1,4.1
		h28.6c2.3,0,4.1-1.8,4.1-4.1v-31.8C275.6,386.3,275.5,386,275.3,385.8z M262.4,375.8l9.8,9.8h-7.7c-1.2,0-2.1-0.9-2.1-2.1
		L262.4,375.8L262.4,375.8z M273.6,418.3c0,1.2-0.9,2.1-2.1,2.1h-28.6c-1.2,0-2.1-0.9-2.1-2.1v-41.8c0-1.2,0.9-2.1,2.1-2.1h17.5v9.1
		c0,2.3,1.8,4.1,4.1,4.1h9.1V418.3z"/>
</g>
<g>
	<path class="st0" d="M265.1,397.5h-15.8c-0.5,0-1,0.4-1,1c0,0.5,0.4,1,1,1h15.8c0.5,0,1-0.4,1-1
		C266.1,397.9,265.6,397.5,265.1,397.5z"/>
</g>
<g>
	<path class="st0" d="M265.1,401.9h-15.8c-0.5,0-1,0.4-1,1c0,0.5,0.4,1,1,1h15.8c0.5,0,1-0.4,1-1
		C266.1,402.4,265.6,401.9,265.1,401.9z"/>
</g>
<g>
	<path class="st0" d="M265.1,406.3h-15.8c-0.5,0-1,0.4-1,1s0.4,1,1,1h15.8c0.5,0,1-0.4,1-1S265.6,406.3,265.1,406.3z"/>
</g>
<g>
	<path class="st0" d="M260,410.7h-10.7c-0.5,0-1,0.4-1,1c0,0.5,0.4,1,1,1H260c0.5,0,1-0.4,1-1C260.9,411.2,260.5,410.7,260,410.7z"
		/>
</g>
</svg>
