<?xml version="1.0" encoding="utf-8"?>
<!-- Generator: Adobe Illustrator 23.0.3, SVG Export Plug-In . SVG Version: 6.00 Build 0)  -->
<svg version="1.1" id="Capa_1" xmlns="http://www.w3.org/2000/svg" xmlns:xlink="http://www.w3.org/1999/xlink" x="0px" y="0px"
	 viewBox="335.8 339.8 56.4 50" style="enable-background:new 335.8 339.8 56.4 50;" xml:space="preserve">
<style type="text/css">
	.st0{fill:#176e16;}
</style>
<g>
	<g>
		<path class="st0" d="M372.8,341.8l14.8,25.7h-12.2l-14.8-25.7H372.8 M373.9,339.8h-16.8l17.1,29.7H391L373.9,339.8L373.9,339.8z"
			/>
	</g>
	<g>
		<path class="st0" d="M388.8,376.9l-6.2,10.9h-27.8l6.2-10.9H388.8 M392.3,374.9L392.3,374.9L392.3,374.9z M392.3,374.9h-32.4
			l-8.4,14.9h32.4L392.3,374.9L392.3,374.9z"/>
	</g>
	<g>
		<path class="st0" d="M352,347.5l6.3,10.9l-14,24.4l-6.1-10.8L352,347.5 M351.9,343.5L335.8,372l8.4,14.9l16.3-28.5L351.9,343.5
			L351.9,343.5z"/>
	</g>
</g>
</svg>
