<?xml version="1.0" encoding="utf-8"?>
<!-- Generator: Adobe Illustrator 23.0.3, SVG Export Plug-In . SVG Version: 6.00 Build 0)  -->
<svg version="1.1" id="Layer_1" xmlns="http://www.w3.org/2000/svg" xmlns:xlink="http://www.w3.org/1999/xlink" x="0px" y="0px"
	 viewBox="0 0 254.8 244.4" style="enable-background:new 0 0 254.8 244.4;" xml:space="preserve">
<style type="text/css">
	.st0{fill:none;stroke:#C1CBD8;stroke-width:1.5;stroke-miterlimit:10;}
	.st1{fill:#4A555F;}
	.st2{fill:#F58E6F;}
	.st3{fill:#DFDFDF;}
	.st4{fill:#FFD452;}
	.st5{fill:#71CCE0;}
</style>
<g>
	<path class="st0" d="M219.4,161.8c-12.9,47.2-56.1,81.9-107.3,81.9c-61.4,0-111.3-49.8-111.3-111.3c0-28.1,10.4-53.8,27.6-73.4"/>
	<path class="st0" d="M104.2,21.4c2.6-0.2,5.2-0.3,7.8-0.3c40.9,0,76.7,22.1,96,55"/>
	<g>
		<g>
			<g>
				<g>
					<g>
						<path class="st1" d="M63.8,45.4h-4.4l-1.3-3.7l-3.5,1.7l-3.1-3.1l1.7-3.5l-3.7-1.3v-4.4l3.7-1.3l-1.7-3.5l3.1-3.1l3.5,1.7
							l1.3-3.7h4.4l1.3,3.7l3.5-1.7l3.1,3.1L70,29.9l3.7,1.3v4.4L70,36.9l1.7,3.5l-3.1,3.1l-3.5-1.7L63.8,45.4z M60,44.6h3.2l1.4-4
							l3.8,1.8l2.3-2.3l-1.8-3.8l4-1.4v-3.2l-4-1.4l1.8-3.8l-2.3-2.3l-3.8,1.8l-1.4-4H60l-1.4,4l-3.8-1.8l-2.3,2.3l1.8,3.8l-4,1.4
							V35l4,1.4l-1.8,3.8l2.3,2.3l3.8-1.8L60,44.6z M61.6,37.3c-2.2,0-3.9-1.8-3.9-3.9c0-2.2,1.8-3.9,3.9-3.9c2.2,0,3.9,1.8,3.9,3.9
							C65.6,35.5,63.8,37.3,61.6,37.3z M61.6,30.3c-1.7,0-3.1,1.4-3.1,3.1c0,1.7,1.4,3.1,3.1,3.1c1.7,0,3.1-1.4,3.1-3.1
							C64.7,31.7,63.3,30.3,61.6,30.3z"/>
					</g>
				</g>
				<g>
					<g>
						<path class="st2" d="M60.7,43.6l-1.5-4.4l-4.2,2L53.8,40l2-4.2l-4.4-1.5v-1.8l4.4-1.5l-2-4.2l1.3-1.3l4.2,2l1.5-4.4h1.8
							l1.5,4.4l4.2-2l1.3,1.3l-2,4.2l4.4,1.5v1.8l-4.4,1.5l2,4.2l-1.3,1.3l-4.2-2l-1.5,4.4H60.7z M61.6,28.5c-2.7,0-4.9,2.2-4.9,4.9
							c0,2.7,2.2,4.9,4.9,4.9c2.7,0,4.9-2.2,4.9-4.9C66.5,30.7,64.3,28.5,61.6,28.5z"/>
					</g>
				</g>
			</g>
		</g>
		<g>
			<g>
				<g>
					<path class="st1" d="M58,66.6l-0.5-0.1c-3.7-0.5-7.3-1.5-10.7-3.2l-0.4-0.2l6.1-10.7l0.4,0.2c1.6,0.7,3.3,1.3,5,1.6l0.4,0.1
						L58,66.6z M47.6,62.7c3,1.4,6.2,2.4,9.5,2.9L57.4,55c-1.5-0.3-3-0.8-4.5-1.4L47.6,62.7z"/>
				</g>
			</g>
			<g>
				<g>
					<path class="st3" d="M55.8,64c-2.2-0.4-4.3-1-6.3-1.9l3.9-6.9c0.8,0.3,1.7,0.6,2.5,0.8L55.8,64z"/>
				</g>
			</g>
			<g>
				<g>
					<path class="st1" d="M42.3,60.6L42,60.3c-2.9-2.1-5.4-4.6-7.5-7.5l-0.3-0.4l10.4-6.6l0.2,0.3c1,1.3,2.1,2.4,3.3,3.5l0.3,0.2
						L42.3,60.6z M35.5,52.6c1.9,2.6,4.1,4.8,6.6,6.7l5.3-9.3c-1.1-0.9-2.1-2-3-3.1L35.5,52.6z"/>
				</g>
			</g>
			<g>
				<g>
					<path class="st3" d="M41.7,57.3c-1.6-1.3-3-2.7-4.3-4.3l6.7-4.2c0.5,0.6,1,1.1,1.5,1.6L41.7,57.3z"/>
				</g>
			</g>
			<g>
				<g>
					<path class="st1" d="M78.6,62.2l-5.5-11l0.3-0.2c1.9-1.3,3.7-2.9,5.1-4.8l0.3-0.3l9.7,7.5l-0.3,0.3c-2.5,3.3-5.6,6.1-9.2,8.3
						L78.6,62.2z M74.2,51.5L79,61c3.2-2,6-4.5,8.3-7.5L78.9,47C77.6,48.7,76,50.2,74.2,51.5z"/>
				</g>
			</g>
			<g>
				<g>
					<path class="st3" d="M75.9,51.9c1.2-0.9,2.2-1.9,3.2-3l6.2,4.8c-1.7,2-3.7,3.8-5.9,5.3L75.9,51.9z"/>
				</g>
			</g>
			<g>
				<g>
					<path class="st1" d="M62.8,66.8L63,54.5l0.4,0c1.7-0.1,3.4-0.5,5-1l0.3-0.1l5.5,11l-0.4,0.2c-3.4,1.3-7,2.1-10.6,2.3L62.8,66.8
						z M63.9,55.3l-0.2,10.6c3.2-0.2,6.4-0.9,9.5-2l-4.8-9.5C66.9,54.8,65.4,55.1,63.9,55.3z"/>
				</g>
			</g>
			<g>
				<g>
					<path class="st3" d="M65.2,56.5c0.8-0.1,1.6-0.3,2.5-0.5l3.6,7.1c-2,0.6-4.1,1.1-6.2,1.3L65.2,56.5z"/>
				</g>
			</g>
			<g>
				<g>
					<path class="st1" d="M31.8,48.3l-0.2-0.4c-2.2-4.5-3.3-9.4-3.3-14.4c0-8.9,3.5-17.3,9.8-23.6C44.4,3.5,52.8,0,61.7,0
						c0,0,0,0,0,0C70.6,0,79,3.4,85.3,9.6c6.2,6.1,9.7,14.3,9.8,23h6.7L89,43.4L76.3,32.7h6.5c-0.4-11.3-9.8-20.4-21.1-20.4
						c-11.7,0-21.2,9.5-21.2,21.2c0,2.7,0.5,5.4,1.5,7.9l0.1,0.3L31.8,48.3z M61.7,0.8c-8.7,0-16.9,3.4-23,9.5
						c-6.1,6.1-9.5,14.3-9.5,23c0,4.8,1,9.4,3,13.6l9-5.7c-1-2.5-1.5-5.2-1.5-7.9c0-12.1,9.9-22,22-22c12,0,21.8,9.7,22,21.7l0,0.4
						h-5.1L89,42.3l10.4-8.8h-5.3l0-0.4c0-8.7-3.4-16.8-9.6-22.9C78.5,4.2,70.4,0.8,61.7,0.8z"/>
				</g>
			</g>
			<g>
				<g>
					<path class="st3" d="M32.7,45c-1.5-3.7-2.3-7.6-2.3-11.7c0-17.2,14-31.2,31.2-31.2c8.3,0,16.2,3.2,22,9
						c5.9,5.8,9.1,13.6,9.2,21.9l0,1.8h2.9L89,40.5l-6.7-5.7H85l0-1.8c-0.2-12.7-10.6-23-23.3-23c-12.9,0-23.3,10.5-23.3,23.3
						c0,2.5,0.4,5,1.2,7.4L32.7,45z"/>
				</g>
			</g>
		</g>
	</g>
	<g>
		<g>
			<g>
				<g>
					<path class="st1" d="M226.2,144.6h-9.6l-2.9-4.3v-8.9h15.5v8.9L226.2,144.6z M217.5,142.8h7.8l2.1-3.1v-6.7h-12v6.7
						L217.5,142.8z"/>
				</g>
			</g>
			<g>
				<g>
					<polygon class="st4" points="218.6,140.8 217.4,139.1 217.4,135.1 225.3,135.1 225.3,139.1 224.2,140.8 					"/>
				</g>
			</g>
			<g>
				<g>
					<path class="st1" d="M228.2,133.1h-14.6l0-0.8c0-0.1-0.2-6.4-2.5-12.1c-0.2-0.5-0.4-0.9-0.6-1.4c-0.5-1.3-0.7-2.6-0.7-3.9
						c0-6.4,5.2-11.6,11.6-11.6c6.4,0,11.6,5.2,11.6,11.6c0,2-0.6,3.6-1.3,5.2c-0.1,0.4-0.3,0.8-0.4,1.2c-0.7,1.8-1.2,3.9-1.6,6
						c-0.1,0.3-0.6,4.5-0.6,5c0-0.4-0.4-0.8-0.9-0.8V133.1z M215.3,131.4h12.1c0-0.4,0.1-1,0.2-1.8c0.1-1.1,0.3-2.5,0.3-2.7
						c0.4-2.3,0.9-4.4,1.7-6.3c0.1-0.4,0.3-0.8,0.5-1.2c0.6-1.6,1.2-2.9,1.2-4.6c0-5.4-4.4-9.8-9.8-9.8c-5.4,0-9.8,4.4-9.8,9.8
						c0,1.2,0.2,2.3,0.6,3.4c0.1,0.4,0.3,0.8,0.5,1.2l0,0.1C214.7,124.2,215.2,129.4,215.3,131.4z"/>
				</g>
			</g>
			<g>
				<g>
					<rect x="220.1" y="92.3" class="st1" width="1.7" height="6.4"/>
				</g>
			</g>
			<g>
				<g>
					
						<rect x="211.1" y="95.5" transform="matrix(0.807 -0.5906 0.5906 0.807 -17.4112 144.2377)" class="st1" width="1.7" height="6.4"/>
				</g>
			</g>
			<g>
				<g>
					
						<rect x="227" y="97.5" transform="matrix(0.5907 -0.8069 0.8069 0.5907 14.8534 226.0253)" class="st1" width="6.4" height="1.7"/>
				</g>
			</g>
			<g>
				<g>
					<path class="st1" d="M219.6,132.4c0,0-0.8-3.6-2.6-7.2c-1.2-2.6-0.3-4.8,1.1-5.8c1-0.7,2.3-0.8,3.3-0.3
						c1.1-0.5,2.3-0.5,3.3,0.3c1.4,1,2.3,3.2,1.1,5.8c-1.7,3.7-2.6,7.2-2.6,7.2l-1.7-0.4c0-0.2,0.9-3.7,2.7-7.6
						c0.8-1.7,0.3-3-0.5-3.6c-0.2-0.2-0.5-0.3-0.9-0.3c1.3,2,0.1,4.5-0.8,5.7l-0.7,0.9l-0.7-0.9c-0.9-1.1-2.1-3.6-0.8-5.7
						c-0.3,0-0.6,0.1-0.9,0.3c-0.8,0.6-1.3,1.9-0.5,3.6c1.8,3.9,2.6,7.4,2.7,7.6L219.6,132.4z M221.4,121.5c-0.5,0.8-0.3,1.7,0,2.5
						C221.7,123.2,221.9,122.3,221.4,121.5z"/>
				</g>
			</g>
		</g>
		<g>
			<g>
				<path class="st1" d="M222.2,151l0-1.7c0.6,0,1.1,0,1.7-0.1l0.1,1.7C223.4,150.9,222.8,151,222.2,151z M220.4,151
					c-0.6,0-1.2,0-1.8-0.1l0.1-1.7c0.6,0,1.1,0.1,1.7,0.1L220.4,151z M225.8,150.7l-0.2-1.7c0.6-0.1,1.1-0.2,1.7-0.3l0.3,1.7
					C226.9,150.5,226.3,150.6,225.8,150.7z M216.9,150.7c-0.6-0.1-1.2-0.2-1.8-0.3l0.3-1.7c0.5,0.1,1.1,0.2,1.7,0.3L216.9,150.7z
					 M229.3,150.1l-0.4-1.7c0.5-0.1,1.1-0.3,1.6-0.4l0.5,1.7C230.4,149.8,229.8,149.9,229.3,150.1z M213.4,150
					c-0.6-0.1-1.2-0.3-1.7-0.5l0.5-1.7c0.5,0.2,1.1,0.3,1.6,0.4L213.4,150z M232.7,149l-0.6-1.6c0.5-0.2,1.1-0.4,1.6-0.6l0.7,1.6
					C233.8,148.6,233.2,148.8,232.7,149z M210,149c-0.6-0.2-1.1-0.4-1.7-0.7l0.7-1.6c0.5,0.2,1,0.4,1.6,0.6L210,149z M235.9,147.7
					l-0.8-1.6c0.5-0.2,1-0.5,1.5-0.8l0.8,1.5C237,147.1,236.5,147.4,235.9,147.7z M206.7,147.6c-0.5-0.3-1.1-0.5-1.6-0.8l0.8-1.5
					c0.5,0.3,1,0.5,1.5,0.8L206.7,147.6z M239,145.9l-0.9-1.5c0.5-0.3,0.9-0.6,1.4-0.9l1,1.4C240,145.3,239.5,145.6,239,145.9z
					 M203.6,145.9c-0.5-0.3-1-0.6-1.5-1l1-1.4c0.5,0.3,0.9,0.6,1.4,0.9L203.6,145.9z M242,143.9l-1.1-1.4c0.4-0.3,0.9-0.7,1.3-1.1
					l1.1,1.3C242.9,143.1,242.4,143.5,242,143.9z M200.7,143.8c-0.5-0.4-0.9-0.8-1.4-1.1l1.1-1.3c0.4,0.4,0.9,0.7,1.3,1.1
					L200.7,143.8z M244.6,141.6l-1.2-1.2c0.4-0.4,0.8-0.8,1.2-1.2l1.3,1.2C245.5,140.7,245.1,141.1,244.6,141.6z M198,141.5
					c-0.4-0.4-0.8-0.8-1.2-1.3l1.3-1.2c0.4,0.4,0.8,0.8,1.2,1.2L198,141.5z M247,138.9l-1.3-1.1c0.4-0.4,0.7-0.9,1-1.3l1.4,1
					C247.8,138,247.4,138.5,247,138.9z M195.6,138.9c-0.4-0.5-0.7-0.9-1.1-1.4l1.4-1c0.3,0.4,0.7,0.9,1,1.3L195.6,138.9z
					 M249.2,136.1l-1.4-1c0.3-0.5,0.6-0.9,0.9-1.4l1.5,0.9C249.8,135.1,249.5,135.6,249.2,136.1z M193.5,136c-0.3-0.5-0.6-1-0.9-1.5
					l1.5-0.9c0.3,0.5,0.6,1,0.9,1.4L193.5,136z M251,133l-1.5-0.8c0.3-0.5,0.5-1,0.7-1.5l1.6,0.7C251.5,132,251.3,132.5,251,133z
					 M191.7,132.9c-0.3-0.5-0.5-1.1-0.8-1.6l1.6-0.7c0.2,0.5,0.5,1,0.7,1.5L191.7,132.9z M252.5,129.8l-1.6-0.6
					c0.2-0.5,0.4-1.1,0.6-1.6l1.6,0.5C252.9,128.7,252.7,129.2,252.5,129.8z M190.2,129.7c-0.2-0.5-0.4-1.1-0.6-1.7l1.6-0.5
					c0.2,0.5,0.4,1.1,0.6,1.6L190.2,129.7z M253.6,126.4l-1.7-0.5c0.1-0.5,0.3-1.1,0.4-1.6l1.7,0.4
					C253.9,125.2,253.7,125.8,253.6,126.4z M189.1,126.3c-0.2-0.6-0.3-1.1-0.4-1.7l1.7-0.4c0.1,0.6,0.3,1.1,0.4,1.6L189.1,126.3z
					 M254.3,122.9l-1.7-0.3c0.1-0.6,0.2-1.1,0.2-1.7l1.7,0.2C254.5,121.7,254.4,122.3,254.3,122.9z M188.4,122.8
					c-0.1-0.6-0.2-1.2-0.2-1.8l1.7-0.2c0.1,0.6,0.1,1.1,0.2,1.7L188.4,122.8z M254.7,119.4l-1.7-0.1c0-0.6,0-1.1,0-1.7h1.7
					C254.8,118.2,254.7,118.8,254.7,119.4z M188,119.3c0-0.6,0-1.1,0-1.7v-0.1h1.7v0.1c0,0.5,0,1.1,0,1.6L188,119.3z M253,116.1
					c0-0.6-0.1-1.1-0.1-1.7l1.7-0.2c0.1,0.6,0.1,1.2,0.1,1.8L253,116.1z M189.8,115.8l-1.7-0.1c0-0.6,0.1-1.2,0.1-1.8l1.7,0.2
					C189.8,114.7,189.8,115.3,189.8,115.8z M252.6,112.7c-0.1-0.6-0.2-1.1-0.3-1.7l1.7-0.4c0.1,0.6,0.2,1.2,0.3,1.8L252.6,112.7z
					 M190.1,112.5l-1.7-0.3c0.1-0.6,0.2-1.2,0.3-1.7l1.7,0.4C190.3,111.4,190.2,111.9,190.1,112.5z M251.9,109.4
					c-0.1-0.5-0.3-1.1-0.5-1.6l1.6-0.5c0.2,0.6,0.4,1.1,0.5,1.7L251.9,109.4z M190.8,109.2l-1.7-0.5c0.2-0.6,0.3-1.1,0.5-1.7
					l1.6,0.5C191.2,108.1,191,108.7,190.8,109.2z M250.9,106.2c-0.2-0.5-0.4-1-0.6-1.6l1.6-0.7c0.2,0.5,0.5,1.1,0.7,1.6L250.9,106.2
					z M191.9,106l-1.6-0.6c0.2-0.6,0.5-1.1,0.7-1.6l1.6,0.7C192.3,105,192.1,105.5,191.9,106z M249.5,103.1c-0.3-0.5-0.5-1-0.8-1.5
					l1.5-0.9c0.3,0.5,0.6,1,0.9,1.6L249.5,103.1z M193.3,102.9l-1.5-0.8c0.3-0.5,0.6-1.1,0.9-1.6l1.5,0.9
					C193.9,101.9,193.6,102.4,193.3,102.9z M247.8,100.2c-0.3-0.5-0.6-0.9-1-1.4l1.4-1c0.3,0.5,0.7,1,1,1.5L247.8,100.2z M195,100
					l-1.4-1c0.3-0.5,0.7-1,1-1.5l1.4,1C195.7,99.1,195.4,99.6,195,100z M245.8,97.5c-0.4-0.4-0.7-0.9-1.1-1.3l1.3-1.2
					c0.4,0.4,0.8,0.9,1.2,1.3L245.8,97.5z M197.1,97.3l-1.3-1.1c0.4-0.5,0.8-0.9,1.2-1.3l1.3,1.2C197.8,96.5,197.4,96.9,197.1,97.3z
					 M243.6,95c-0.4-0.4-0.8-0.8-1.2-1.2l1.1-1.3c0.4,0.4,0.9,0.8,1.3,1.2L243.6,95z M199.4,94.9l-1.2-1.2c0.4-0.4,0.9-0.8,1.3-1.2
					l1.1,1.3C200.2,94.1,199.8,94.5,199.4,94.9z M241,92.8c-0.4-0.3-0.9-0.7-1.3-1l1-1.4c0.5,0.3,1,0.7,1.4,1.1L241,92.8z
					 M201.9,92.6l-1.1-1.4c0.5-0.4,0.9-0.7,1.4-1.1l1,1.4C202.8,92,202.4,92.3,201.9,92.6z M238.3,90.8c-0.5-0.3-1-0.6-1.5-0.9
					l0.8-1.5c0.5,0.3,1,0.6,1.5,0.9L238.3,90.8z M204.7,90.7l-0.9-1.5c0.5-0.3,1-0.6,1.5-0.9l0.8,1.5
					C205.6,90.1,205.1,90.4,204.7,90.7z M235.3,89.2c-0.5-0.2-1-0.5-1.5-0.7l0.7-1.6c0.5,0.2,1.1,0.5,1.6,0.7L235.3,89.2z
					 M207.6,89.1l-0.8-1.6c0.5-0.3,1.1-0.5,1.6-0.7l0.7,1.6C208.6,88.6,208.1,88.8,207.6,89.1z M232.2,87.9
					c-0.5-0.2-1.1-0.4-1.6-0.5l0.5-1.7c0.6,0.2,1.1,0.4,1.7,0.6L232.2,87.9z M210.7,87.8l-0.6-1.6c0.6-0.2,1.1-0.4,1.7-0.6l0.5,1.7
					C211.8,87.4,211.3,87.6,210.7,87.8z M229,86.9c-0.5-0.1-1.1-0.3-1.6-0.4l0.3-1.7c0.6,0.1,1.2,0.2,1.7,0.4L229,86.9z M214,86.8
					l-0.4-1.7c0.6-0.1,1.2-0.3,1.7-0.4l0.3,1.7C215.1,86.6,214.5,86.7,214,86.8z M225.7,86.3c-0.6-0.1-1.1-0.1-1.7-0.2l0.1-1.7
					c0.6,0,1.2,0.1,1.8,0.2L225.7,86.3z M217.3,86.2l-0.2-1.7c0.6-0.1,1.2-0.1,1.8-0.2l0.1,1.7C218.4,86.1,217.8,86.2,217.3,86.2z
					 M222.3,86c-0.6,0-1.1,0-1.7,0l0-1.7c0.6,0,1.2,0,1.8,0L222.3,86z"/>
			</g>
		</g>
	</g>
	<g>
		<g>
			<g>
				<path class="st4" d="M118,80.9l10.8,0.1l0-2.3c-0.1-9.8-4.1-19.2-11.1-26l0,0l0,0c-6.9,7-10.7,16.5-10.6,26.3l0,2.1L118,80.9
					L118,80.9z"/>
			</g>
		</g>
		<g>
			<g>
				<path class="st1" d="M133.4,85.7L118,85.5l-15.4,0.2l-0.1-6.7c-0.1-11.1,4.1-21.6,11.9-29.5l3.2-3.3l3.3,3.2
					c7.9,7.8,12.4,18.2,12.5,29.3L133.4,85.7z M118,83.5l13.4,0.1l0-4.9c-0.1-10.6-4.3-20.4-11.9-27.8l-1.8-1.8l-1.8,1.8
					c-7.4,7.5-11.4,17.5-11.3,28.1l0,4.6L118,83.5z"/>
			</g>
		</g>
		<g>
			<g>
				<path class="st1" d="M166.1,191.4H69.5v-21.5h96.6V191.4z M71.6,189.4h92.5v-17.4H71.6V189.4z"/>
			</g>
		</g>
		<g>
			<g>
				<rect x="117.8" y="174.8" class="st5" width="43.3" height="11.6"/>
			</g>
		</g>
		<g>
			<g>
				<path class="st1" d="M80.2,184c-1.9,0-3.4-1.5-3.4-3.4c0-1.9,1.5-3.4,3.4-3.4c1.9,0,3.4,1.5,3.4,3.4
					C83.6,182.5,82.1,184,80.2,184z M80.2,179.3c-0.7,0-1.3,0.6-1.3,1.3c0,0.7,0.6,1.3,1.3,1.3c0.7,0,1.3-0.6,1.3-1.3
					C81.5,179.9,80.9,179.3,80.2,179.3z"/>
			</g>
		</g>
		<g>
			<g>
				<path class="st1" d="M156.9,184c-1.9,0-3.4-1.5-3.4-3.4c0-1.9,1.5-3.4,3.4-3.4c1.9,0,3.4,1.5,3.4,3.4
					C160.3,182.5,158.8,184,156.9,184z M156.9,179.3c-0.7,0-1.3,0.6-1.3,1.3c0,0.7,0.6,1.3,1.3,1.3c0.7,0,1.3-0.6,1.3-1.3
					C158.2,179.9,157.6,179.3,156.9,179.3z"/>
			</g>
		</g>
		<g>
			<g>
				<path class="st1" d="M166.1,152.3H69.5v-21.5h96.6V152.3z M71.6,150.3h92.5v-17.4H71.6V150.3z"/>
			</g>
		</g>
		<g>
			<g>
				<rect x="117.8" y="135.7" class="st5" width="43.3" height="11.6"/>
			</g>
		</g>
		<g>
			<g>
				<path class="st1" d="M166.1,171.9H69.5v-21.7h96.6V171.9z M71.6,169.9h92.5v-17.6H71.6V169.9z"/>
			</g>
		</g>
		<g>
			<g>
				<rect x="117.8" y="155.2" class="st5" width="43.3" height="11.8"/>
			</g>
		</g>
		<g>
			<g>
				<path class="st1" d="M80.2,144.9c-1.9,0-3.4-1.5-3.4-3.4c0-1.9,1.5-3.4,3.4-3.4c1.9,0,3.4,1.5,3.4,3.4
					C83.6,143.4,82.1,144.9,80.2,144.9z M80.2,140.2c-0.7,0-1.3,0.6-1.3,1.3c0,0.7,0.6,1.3,1.3,1.3c0.7,0,1.3-0.6,1.3-1.3
					C81.5,140.8,80.9,140.2,80.2,140.2z"/>
			</g>
		</g>
		<g>
			<g>
				<path class="st1" d="M156.9,144.9c-1.9,0-3.4-1.5-3.4-3.4c0-1.9,1.5-3.4,3.4-3.4c1.9,0,3.4,1.5,3.4,3.4
					C160.3,143.4,158.8,144.9,156.9,144.9z M156.9,140.2c-0.7,0-1.3,0.6-1.3,1.3c0,0.7,0.6,1.3,1.3,1.3c0.7,0,1.3-0.6,1.3-1.3
					C158.2,140.8,157.6,140.2,156.9,140.2z"/>
			</g>
		</g>
		<g>
			<g>
				<path class="st1" d="M80.2,164.5c-1.9,0-3.4-1.5-3.4-3.4c0-1.9,1.5-3.4,3.4-3.4c1.9,0,3.4,1.5,3.4,3.4
					C83.6,163,82.1,164.5,80.2,164.5z M80.2,159.8c-0.7,0-1.3,0.6-1.3,1.3c0,0.7,0.6,1.3,1.3,1.3c0.7,0,1.3-0.6,1.3-1.3
					C81.5,160.4,80.9,159.8,80.2,159.8z"/>
			</g>
		</g>
		<g>
			<g>
				<path class="st1" d="M156.9,164.5c-1.9,0-3.4-1.5-3.4-3.4c0-1.9,1.5-3.4,3.4-3.4c1.9,0,3.4,1.5,3.4,3.4
					C160.3,163,158.8,164.5,156.9,164.5z M156.9,159.8c-0.7,0-1.3,0.6-1.3,1.3c0,0.7,0.6,1.3,1.3,1.3c0.7,0,1.3-0.6,1.3-1.3
					C158.2,160.4,157.6,159.8,156.9,159.8z"/>
			</g>
		</g>
		<g>
			<g>
				<path class="st1" d="M166.1,132.8H69.5v-21.7h96.6V132.8z M71.6,130.8h92.5v-17.6H71.6V130.8z"/>
			</g>
		</g>
		<g>
			<g>
				<rect x="117.8" y="116.1" class="st5" width="43.3" height="11.8"/>
			</g>
		</g>
		<g>
			<g>
				<path class="st1" d="M80.2,125.4c-1.9,0-3.4-1.5-3.4-3.4c0-1.9,1.5-3.4,3.4-3.4c1.9,0,3.4,1.5,3.4,3.4
					C83.6,123.8,82.1,125.4,80.2,125.4z M80.2,120.7c-0.7,0-1.3,0.6-1.3,1.3c0,0.7,0.6,1.3,1.3,1.3c0.7,0,1.3-0.6,1.3-1.3
					C81.5,121.3,80.9,120.7,80.2,120.7z"/>
			</g>
		</g>
		<g>
			<g>
				<path class="st1" d="M156.9,125.4c-1.9,0-3.4-1.5-3.4-3.4c0-1.9,1.5-3.4,3.4-3.4c1.9,0,3.4,1.5,3.4,3.4
					C160.3,123.8,158.8,125.4,156.9,125.4z M156.9,120.7c-0.7,0-1.3,0.6-1.3,1.3c0,0.7,0.6,1.3,1.3,1.3c0.7,0,1.3-0.6,1.3-1.3
					C158.2,121.3,157.6,120.7,156.9,120.7z"/>
			</g>
		</g>
		<g>
			<g>
				<path class="st1" d="M87.7,201.7h-6.2v-12.3h6.2V201.7z M83.6,199.7h2.1v-8.3h-2.1V199.7z"/>
			</g>
		</g>
		<g>
			<g>
				<path class="st1" d="M152.3,201.7h-6.2v-12.3h6.2V201.7z M148.2,199.7h2.1v-8.3h-2.1V199.7z"/>
			</g>
		</g>
		<g>
			<g>
				<path class="st1" d="M166.1,207.5H69.5v-7.9h96.6V207.5z M71.6,205.5h92.5v-3.8H71.6V205.5z"/>
			</g>
		</g>
		<g>
			<g>
				<rect x="116.8" y="73.1" class="st1" width="2" height="39.1"/>
			</g>
		</g>
		<g>
			<g>
				<path class="st1" d="M108.7,104.4h-8.2c-6.2,0-11.3-5-11.3-11.3v-1h19.4V104.4z M91.4,94.2c0.5,4.6,4.4,8.2,9.2,8.2h6.1v-8.2
					H91.4z"/>
			</g>
		</g>
		<g>
			<g>
				<path class="st4" d="M100.6,99.9c-2.4,0-4.5-1.2-5.7-3.1h9.2v3.1H100.6z"/>
			</g>
		</g>
		<g>
			<g>
				<path class="st1" d="M134.2,106.4h-10.8V90h26.2v1C149.6,99.5,142.7,106.4,134.2,106.4z M125.5,104.3h8.8
					c7,0,12.7-5.4,13.3-12.3h-22V104.3z"/>
			</g>
		</g>
		<g>
			<g>
				<path class="st4" d="M128,101.8v-7.2h16.4c-1.5,4.2-5.5,7.2-10.2,7.2H128z"/>
			</g>
		</g>
		<g>
			<g>
				<path class="st4" d="M47.3,108.2h-7.7v-1.5c0-7,2.8-13.7,7.7-18.6l0,0l0,0c4.9,4.9,7.7,11.6,7.7,18.6v1.5H47.3L47.3,108.2z"/>
			</g>
		</g>
		<g>
			<g>
				<path class="st1" d="M59.6,112.8H35v-6.1c0-8.2,3.2-16,9-21.8l3.2-3.2l3.2,3.2c5.8,5.8,9,13.6,9,21.8V112.8z M48.4,110.7h9.2v-4
					c0-7.7-3-14.9-8.4-20.4l-1.8-1.8l-1.8,1.8c-5.4,5.4-8.4,12.7-8.4,20.4v4h9.2v-7.1h2l0,1V110.7z"/>
			</g>
		</g>
		<g>
			<g>
				<path class="st1" d="M48,142.6v-2c5.1,0,9.2-4.1,9.2-9.2v-6.2h2v6.2C59.3,137.5,54.2,142.6,48,142.6z"/>
			</g>
		</g>
		<g>
			<g>
				<path class="st1" d="M47.3,138.7c-6.2,0-11.3-5.1-11.3-11.3v-3h2v3c0,5.1,4.1,9.2,9.2,9.2V138.7z"/>
			</g>
		</g>
		<g>
			<g>
				<path class="st1" d="M70.3,161.6c-13.2,0-24-10.8-24-24V98.2h2v39.4c0,12.1,9.9,22,22,22V161.6z"/>
			</g>
		</g>
		<g>
			<g>
				<path class="st1" d="M37.1,125.4c-2.3,0-4.2-1.9-4.2-4.2c0-2.3,1.9-4.2,4.2-4.2c2.3,0,4.2,1.9,4.2,4.2
					C41.2,123.5,39.4,125.4,37.1,125.4z M37.1,119.1c-1.2,0-2.1,1-2.1,2.1c0,1.2,1,2.1,2.1,2.1c1.2,0,2.1-1,2.1-2.1
					C39.2,120,38.2,119.1,37.1,119.1z"/>
			</g>
		</g>
		<g>
			<g>
				<path class="st1" d="M58.2,126.6c-2.3,0-4.2-1.9-4.2-4.2c0-2.3,1.9-4.2,4.2-4.2c2.3,0,4.2,1.9,4.2,4.2
					C62.4,124.7,60.6,126.6,58.2,126.6z M58.2,120.3c-1.2,0-2.1,1-2.1,2.1c0,1.2,1,2.1,2.1,2.1c1.2,0,2.1-1,2.1-2.1
					C60.4,121.2,59.4,120.3,58.2,120.3z"/>
			</g>
		</g>
		<g>
			<g>
				<path class="st1" d="M118.8,107.8h-2c0-6.2,5.1-11.3,11.3-11.3h6.2v2h-6.2C123,98.5,118.8,102.7,118.8,107.8z"/>
			</g>
		</g>
		<g>
			<g>
				<path class="st1" d="M118.8,109.5h-2c0-5.6-4.6-10.2-10.2-10.2h-6.8v-2h6.8C113.3,97.3,118.8,102.8,118.8,109.5z"/>
			</g>
		</g>
	</g>
</g>
</svg>
