<?xml version="1.0" encoding="utf-8"?>
<!-- Generator: Adobe Illustrator 23.0.3, SVG Export Plug-In . SVG Version: 6.00 Build 0)  -->
<svg version="1.1" id="Layer_1" xmlns="http://www.w3.org/2000/svg" xmlns:xlink="http://www.w3.org/1999/xlink" x="0px" y="0px"
	 viewBox="0 0 159.8 153.3" style="enable-background:new 0 0 159.8 153.3;" xml:space="preserve">
<style type="text/css">
	.st0{fill:none;stroke:#C1CBD8;stroke-width:1.5;stroke-miterlimit:10;}
	.st1{fill:#4A555F;}
	.st2{fill:#71CCE0;}
	.st3{fill:#FFFFFF;}
	.st4{fill:#F58E6F;}
	.st5{fill:#FFD452;}
	.st6{fill:#DFDFDF;}
</style>
<g>
	<path class="st0" d="M137.6,101.3c-8.1,29.5-35.1,51.3-67.2,51.3c-38.5,0-69.6-31.2-69.6-69.6C0.8,65.3,7.3,49.2,18,37"/>
	<path class="st0" d="M65.5,13.4c1.6-0.1,3.2-0.2,4.9-0.2c25.6,0,48,13.8,60.1,34.4"/>
	<g>
		<g>
			<g>
				<path class="st1" d="M106.6,110.9h-71c-2.7,0-5-2.2-5-5V62.5c0-2.7,2.2-5,5-5h71c2.7,0,5,2.2,5,5v43.5
					C111.6,108.7,109.3,110.9,106.6,110.9z M35.6,58.5c-2.2,0-4,1.8-4,4v43.5c0,2.2,1.8,4,4,4h71c2.2,0,4-1.8,4-4V62.5
					c0-2.2-1.8-4-4-4H35.6z"/>
			</g>
		</g>
		<g>
			<g>
				<path class="st1" d="M106.1,104.6H36.9v-41h69.1V104.6z M38,103.6H105v-39H38V103.6z"/>
			</g>
		</g>
		<g>
			<g>
				<path class="st1" d="M97.1,129.9h-52v-4.8h12l3.5-15.2h21l3.5,15.2h12V129.9z M46.1,128.9h49.9v-2.7H84.3l-3.5-15.2H61.4
					l-3.5,15.2H46.1V128.9z"/>
			</g>
		</g>
		<g>
			<g>
				<polygon class="st2" points="80.9,121.6 79.1,113.1 63.1,113.1 61.3,121.6 				"/>
			</g>
		</g>
		<g>
			<g>
				<rect x="47.8" y="45.9" class="st3" width="46.6" height="58.2"/>
			</g>
		</g>
		<g>
			<g>
				<path class="st1" d="M94.9,104.6H47.3V45.4h47.7V104.6z M48.3,103.6h45.6V46.4H48.3V103.6z"/>
			</g>
		</g>
		<g>
			<g>
				<path class="st1" d="M87.7,98.6H53.9V50.6h33.8V98.6z M55,97.5h31.7V51.6H55V97.5z"/>
			</g>
		</g>
		<g>
			<g>
				<rect x="96.6" y="66.1" class="st2" width="6.8" height="35.9"/>
			</g>
		</g>
		<g>
			<g>
				<rect x="39.2" y="66.1" class="st2" width="6.8" height="35.9"/>
			</g>
		</g>
	</g>
	<g>
		<g>
			<g>
				<g>
					<path class="st1" d="M35,40.3H22.2L22,40V19.8l0.2-0.2l2.4-0.8v-1.1l0.3-0.3h7.7l0.3,0.3v1.1l2.4,0.8l0.2,0.2V40L35,40.3z
						 M22.5,39.8h12.3V20l-2.4-0.8L32.2,19v-1H25v1l-0.2,0.2L22.5,20V39.8z"/>
				</g>
			</g>
			<g>
				<g>
					<polygon class="st2" points="31.6,19.6 31.6,18.6 25.6,18.6 25.6,19.6 24.3,20 24.3,39.2 33.1,39.2 33.1,20.1 					"/>
				</g>
			</g>
			<g>
				<g>
					<rect x="24.9" y="20.8" class="st1" width="7" height="0.5"/>
				</g>
			</g>
			<g>
				<g>
					<rect x="24.9" y="22.7" class="st1" width="7" height="0.5"/>
				</g>
			</g>
			<g>
				<g>
					<rect x="24.9" y="24.5" class="st1" width="7" height="0.5"/>
				</g>
			</g>
			<g>
				<g>
					<rect x="24.9" y="26.3" class="st1" width="7" height="0.5"/>
				</g>
			</g>
			<g>
				<g>
					<polygon class="st1" points="28.9,31.2 27,31.2 26.9,31.1 25.3,30 22.2,30 22.2,29.5 25.4,29.5 25.6,29.5 27.1,30.7 28.9,30.7 
											"/>
				</g>
			</g>
			<g>
				<g>
					<polygon class="st1" points="30.3,31.2 28.4,31.2 28.4,30.7 30.2,30.7 31.8,29.5 31.9,29.5 35.1,29.5 35.1,30 32,30 30.5,31.1 
											"/>
				</g>
			</g>
			<g>
				<g>
					<path class="st1" d="M28.6,35.5c-0.8,0-1.5-0.7-1.5-1.5c0-0.8,0.7-1.5,1.5-1.5c0.8,0,1.5,0.7,1.5,1.5
						C30.1,34.8,29.4,35.5,28.6,35.5z M28.6,33c-0.5,0-1,0.4-1,1c0,0.5,0.4,1,1,1c0.5,0,1-0.4,1-1C29.6,33.5,29.2,33,28.6,33z"/>
				</g>
			</g>
			<g>
				<g>
					<path class="st4" d="M29.2,34c0,0.3-0.3,0.6-0.6,0.6c-0.3,0-0.6-0.3-0.6-0.6c0-0.3,0.3-0.6,0.6-0.6
						C28.9,33.4,29.2,33.7,29.2,34z"/>
				</g>
			</g>
			<g>
				<g>
					<rect x="23.2" y="19.3" class="st1" width="0.5" height="20.7"/>
				</g>
			</g>
			<g>
				<g>
					<rect x="33.6" y="19.3" class="st1" width="0.5" height="20.7"/>
				</g>
			</g>
		</g>
		<g>
			<g>
				<path class="st1" d="M40.7,13.4c-1.9,0-3.5-1.6-3.5-3.5c0-0.9,0.4-1.8,1-2.5c0.7-0.7,1.5-1,2.5-1c0.5,0,1,0.1,1.4,0.3
					c0,0,0,0,0-0.1c0-1.8,0.7-3.5,1.9-4.7c1.3-1.3,2.9-2,4.7-2c2.9,0,5.4,1.8,6.3,4.4c0.7-0.4,1.5-0.6,2.3-0.6
					c2.6,0,4.8,2.1,4.8,4.8c0,1.3-0.5,2.5-1.4,3.4c-0.9,0.9-2.1,1.4-3.4,1.4L40.7,13.4z M40.7,7c-1.6,0-3,1.3-3,3c0,1.6,1.3,3,3,3
					v0.3l0-0.3l16.8,0c1.1,0,2.2-0.4,3-1.3c0.8-0.8,1.2-1.9,1.2-3c0-2.3-1.9-4.3-4.3-4.3c-0.8,0-1.6,0.2-2.3,0.7l-0.3,0.2l-0.1-0.3
					c-0.8-2.6-3.2-4.4-5.9-4.4c-1.7,0-3.2,0.7-4.4,1.8c-1.2,1.2-1.8,2.7-1.8,4.4c0,0.1,0,0.3,0,0.5l0,0.5l-0.4-0.3
					C41.8,7.1,41.3,7,40.7,7z"/>
			</g>
		</g>
		<g>
			<g>
				<polygon class="st1" points="26.3,15.3 25.8,15.3 25.8,5.5 37.9,5.5 37.9,6 26.3,6 				"/>
			</g>
		</g>
		<g>
			<g>
				<g>
					<polygon class="st1" points="36.3,7.3 36,7 37.5,5.8 36,4.5 36.3,4.2 38.3,5.8 					"/>
				</g>
			</g>
		</g>
		<g>
			<g>
				<g>
					<polygon class="st1" points="29.9,15.7 28.3,13.7 28.6,13.4 29.9,14.9 31.1,13.4 31.5,13.7 					"/>
				</g>
			</g>
		</g>
		<g>
			<g>
				<g>
					<polygon class="st1" points="49.9,20.7 48.3,18.7 48.6,18.4 49.9,19.9 51.1,18.4 51.5,18.7 					"/>
				</g>
			</g>
		</g>
		<g>
			<g>
				<rect x="49.6" y="15.1" class="st1" width="0.5" height="5.2"/>
			</g>
		</g>
		<g>
			<g>
				<g>
					<path class="st1" d="M49.9,40.4c-4.9,0-8.9-4-8.9-8.9s4-8.9,8.9-8.9c4.9,0,8.9,4,8.9,8.9S54.7,40.4,49.9,40.4z M49.9,23.2
						c-4.6,0-8.4,3.8-8.4,8.4s3.8,8.4,8.4,8.4c4.6,0,8.4-3.8,8.4-8.4S54.5,23.2,49.9,23.2z"/>
				</g>
			</g>
			<g>
				<g>
					<path class="st5" d="M49.9,39.1c-4.1,0-7.5-3.4-7.5-7.5c0-4.1,3.4-7.5,7.5-7.5c4.1,0,7.5,3.4,7.5,7.5
						C57.4,35.7,54,39.1,49.9,39.1z"/>
				</g>
			</g>
			<g>
				<g>
					<path class="st1" d="M49.9,36.3c-4.9,0-8.9-2.1-8.9-4.8c0-2.6,4-4.8,8.9-4.8c4.9,0,8.9,2.1,8.9,4.8
						C58.7,34.2,54.7,36.3,49.9,36.3z M49.9,27.3c-4.6,0-8.4,1.9-8.4,4.3c0,2.3,3.8,4.3,8.4,4.3c4.6,0,8.4-1.9,8.4-4.3
						C58.2,29.2,54.5,27.3,49.9,27.3z"/>
				</g>
			</g>
			<g>
				<g>
					<path class="st1" d="M49.9,40.4c-2.4,0-4.3-3.9-4.3-8.9s1.9-8.9,4.3-8.9c2.4,0,4.3,3.9,4.3,8.9S52.3,40.4,49.9,40.4z
						 M49.9,23.2c-2.1,0-3.8,3.8-3.8,8.4s1.8,8.4,3.8,8.4c2.1,0,3.8-3.8,3.8-8.4S51.9,23.2,49.9,23.2z"/>
				</g>
			</g>
			<g>
				<g>
					<rect x="41.2" y="31.3" class="st1" width="17.2" height="0.5"/>
				</g>
			</g>
			<g>
				<g>
					<rect x="49.6" y="22.9" class="st1" width="0.5" height="17.2"/>
				</g>
			</g>
		</g>
		<g>
			<g>
				<path class="st1" d="M53.7,7.8H46V5.1h7.7V7.8z M46.5,7.3h6.7V5.6h-6.7V7.3z"/>
			</g>
		</g>
		<g>
			<g>
				<rect x="49.8" y="5.8" class="st2" width="3.2" height="1.3"/>
			</g>
		</g>
		<g>
			<g>
				<path class="st1" d="M53.7,10H46V7.3h7.7V10z M46.5,9.5h6.7V7.8h-6.7V9.5z"/>
			</g>
		</g>
		<g>
			<g>
				<rect x="49.8" y="7.9" class="st2" width="3.2" height="1.3"/>
			</g>
		</g>
		<g>
			<g>
				<circle class="st1" cx="47.3" cy="6.4" r="0.5"/>
			</g>
		</g>
		<g>
			<g>
				<path class="st1" d="M52.5,6.9c-0.3,0-0.5-0.2-0.5-0.5c0-0.3,0.2-0.5,0.5-0.5c0.3,0,0.5,0.2,0.5,0.5C53.1,6.7,52.8,6.9,52.5,6.9
					z"/>
			</g>
		</g>
		<g>
			<g>
				<path class="st1" d="M47.3,9.1c-0.3,0-0.5-0.2-0.5-0.5c0-0.3,0.2-0.5,0.5-0.5s0.5,0.2,0.5,0.5C47.8,8.9,47.6,9.1,47.3,9.1z"/>
			</g>
		</g>
		<g>
			<g>
				<path class="st1" d="M52.5,9.1c-0.3,0-0.5-0.2-0.5-0.5c0-0.3,0.2-0.5,0.5-0.5c0.3,0,0.5,0.2,0.5,0.5C53.1,8.9,52.8,9.1,52.5,9.1
					z"/>
			</g>
		</g>
		<g>
			<g>
				<path class="st1" d="M50.8,11.1h-1.9V9.5h1.9V11.1z M49.4,10.6h0.9V10h-0.9V10.6z"/>
			</g>
		</g>
		<g>
			<g>
				<path class="st1" d="M53.7,11.9H46v-1.3h7.7V11.9z M46.5,11.4h6.7v-0.3h-6.7V11.4z"/>
			</g>
		</g>
		<g>
			<g>
				<polygon class="st1" points="30.1,15.1 29.6,15.1 29.6,9.7 35,9.7 35,10.2 30.1,10.2 				"/>
			</g>
		</g>
	</g>
	<g>
		<g>
			<g>
				<path class="st1" d="M70.9,81.2c-3.7,0-6.6-3-6.6-6.6c0-3.7,3-6.6,6.6-6.6c3.7,0,6.6,3,6.6,6.6C77.5,78.2,74.5,81.2,70.9,81.2z
					 M70.9,68.3c-3.5,0-6.3,2.8-6.3,6.3s2.8,6.3,6.3,6.3c3.5,0,6.3-2.8,6.3-6.3S74.3,68.3,70.9,68.3z"/>
			</g>
		</g>
		<g>
			<g>
				<path class="st2" d="M70.9,80.2c-3.1,0-5.6-2.5-5.6-5.6c0-3.1,2.5-5.6,5.6-5.6c3.1,0,5.6,2.5,5.6,5.6
					C76.5,77.6,74,80.2,70.9,80.2z"/>
			</g>
		</g>
		<g>
			<g>
				<path class="st1" d="M70.9,78.1c-3.7,0-6.6-1.6-6.6-3.6c0-2,3-3.6,6.6-3.6c3.7,0,6.6,1.6,6.6,3.6C77.5,76.5,74.5,78.1,70.9,78.1
					z M70.9,71.4c-3.5,0-6.3,1.4-6.3,3.2c0,1.8,2.8,3.2,6.3,3.2c3.5,0,6.3-1.4,6.3-3.2C77.1,72.8,74.3,71.4,70.9,71.4z"/>
			</g>
		</g>
		<g>
			<g>
				<path class="st1" d="M70.9,81.2c-1.8,0-3.2-2.9-3.2-6.6c0-3.7,1.4-6.6,3.2-6.6c1.8,0,3.2,2.9,3.2,6.6
					C74.1,78.3,72.7,81.2,70.9,81.2z M70.9,68.3c-1.6,0-2.9,2.9-2.9,6.3c0,3.4,1.3,6.3,2.9,6.3c1.6,0,2.9-2.9,2.9-6.3
					C73.8,71.2,72.4,68.3,70.9,68.3z"/>
			</g>
		</g>
		<g>
			<g>
				<rect x="64.4" y="74.4" class="st1" width="12.9" height="0.4"/>
			</g>
		</g>
		<g>
			<g>
				<rect x="70.7" y="68.1" class="st1" width="0.4" height="12.9"/>
			</g>
		</g>
	</g>
	<g>
		<path class="st1" d="M140.2,94.5h-22.4v-1.9h22.4V94.5z M118.4,93.9h21.3v-0.7h-21.3V93.9z"/>
		<path class="st1" d="M124.6,93.2h-2.9V90h2.9V93.2z M122.3,92.6h1.8v-2h-1.8V92.6z"/>
		<path class="st1" d="M136.3,93.2h-2.9V90h2.9V93.2z M134,92.6h1.8v-2H134V92.6z"/>
		<path class="st1" d="M140.6,90.6h-23.1v-5.1l2.3-1.7h18.5l2.3,1.7V90.6z M118,90h22v-4.3l-1.9-1.4H120l-1.9,1.4V90z"/>
		<polygon class="st4" points="137.9,84.9 129.2,84.9 129.2,89.4 139.4,89.4 139.4,86.1 		"/>
		<path class="st1" d="M140.6,84.3h-23.1v-5.1l2.3-1.7h18.5l2.3,1.7V84.3z M118,83.7h22v-4.3l-1.9-1.4H120l-1.9,1.4V83.7z"/>
		<polygon class="st4" points="137.9,78.6 129.2,78.6 129.2,83.1 139.4,83.1 139.4,79.7 		"/>
		<path class="st1" d="M140.6,78h-23.1v-5.1l2.3-1.7h18.5l2.3,1.7V78z M118,77.4h22v-4.3l-1.9-1.4H120l-1.9,1.4V77.4z"/>
		<polygon class="st4" points="137.9,72.3 129.2,72.3 129.2,76.8 139.4,76.8 139.4,73.4 		"/>
		<path class="st1" d="M121.1,75.4c-0.5,0-0.9-0.4-0.9-0.9c0-0.5,0.4-0.9,0.9-0.9c0.5,0,0.9,0.4,0.9,0.9
			C122,75,121.6,75.4,121.1,75.4z M121.1,74.2c-0.2,0-0.3,0.2-0.3,0.3c0,0.2,0.2,0.3,0.3,0.3c0.2,0,0.3-0.2,0.3-0.3
			C121.4,74.3,121.3,74.2,121.1,74.2z"/>
		<path class="st1" d="M121.1,81.7c-0.5,0-0.9-0.4-0.9-0.9s0.4-0.9,0.9-0.9c0.5,0,0.9,0.4,0.9,0.9S121.6,81.7,121.1,81.7z
			 M121.1,80.5c-0.2,0-0.3,0.2-0.3,0.3c0,0.2,0.2,0.3,0.3,0.3c0.2,0,0.3-0.2,0.3-0.3C121.4,80.7,121.3,80.5,121.1,80.5z"/>
		<path class="st1" d="M121.1,88.1c-0.5,0-0.9-0.4-0.9-0.9c0-0.5,0.4-0.9,0.9-0.9c0.5,0,0.9,0.4,0.9,0.9
			C122,87.7,121.6,88.1,121.1,88.1z M121.1,86.8c-0.2,0-0.3,0.2-0.3,0.3c0,0.2,0.2,0.3,0.3,0.3c0.2,0,0.3-0.2,0.3-0.3
			C121.4,87,121.3,86.8,121.1,86.8z"/>
		<path class="st1" d="M137.1,75.4c-0.5,0-0.9-0.4-0.9-0.9c0-0.5,0.4-0.9,0.9-0.9c0.5,0,0.9,0.4,0.9,0.9
			C138,75,137.6,75.4,137.1,75.4z M137.1,74.2c-0.2,0-0.3,0.2-0.3,0.3c0,0.2,0.2,0.3,0.3,0.3c0.2,0,0.3-0.2,0.3-0.3
			C137.4,74.3,137.2,74.2,137.1,74.2z"/>
		<path class="st1" d="M137.1,81.7c-0.5,0-0.9-0.4-0.9-0.9s0.4-0.9,0.9-0.9c0.5,0,0.9,0.4,0.9,0.9S137.6,81.7,137.1,81.7z
			 M137.1,80.5c-0.2,0-0.3,0.2-0.3,0.3c0,0.2,0.2,0.3,0.3,0.3c0.2,0,0.3-0.2,0.3-0.3C137.4,80.7,137.2,80.5,137.1,80.5z"/>
		<path class="st1" d="M137.1,88.1c-0.5,0-0.9-0.4-0.9-0.9c0-0.5,0.4-0.9,0.9-0.9c0.5,0,0.9,0.4,0.9,0.9
			C138,87.7,137.6,88.1,137.1,88.1z M137.1,86.8c-0.2,0-0.3,0.2-0.3,0.3c0,0.2,0.2,0.3,0.3,0.3c0.2,0,0.3-0.2,0.3-0.3
			C137.4,87,137.2,86.8,137.1,86.8z"/>
		<path class="st1" d="M155.6,68.8H140c-3.3,0-6-2.7-6-6c0-3.3,2.7-6,6-6c0.1,0,0.2,0,0.4,0c1.3-3.2,4.5-5.4,8-5.4
			c4.8,0,8.6,3.9,8.6,8.6c0,0.2,0,0.4,0,0.6c1.6,0.6,2.8,2.1,2.8,3.9C159.8,66.9,157.9,68.8,155.6,68.8z M140,57.4
			c-3,0-5.4,2.4-5.4,5.4c0,3,2.4,5.4,5.4,5.4h15.6c2,0,3.6-1.6,3.6-3.6c0-1.6-1.1-3-2.6-3.4l-0.2-0.1l0-0.2c0-0.3,0-0.5,0-0.8
			c0-4.5-3.6-8.1-8.1-8.1c-3.3,0-6.4,2.1-7.6,5.2l-0.1,0.2l-0.2,0C140.3,57.4,140.2,57.4,140,57.4z"/>
		<path class="st6" d="M156.4,61.8l-0.7-0.2l0.1-0.8c0-0.2,0-0.5,0-0.7c0-4.1-3.3-7.4-7.4-7.4c-3.1,0-5.9,1.9-7,4.8l-0.3,0.7
			l-0.7-0.1c-0.2,0-0.3,0-0.5,0c-2.6,0-4.8,2.1-4.8,4.8c0,2.6,2.1,4.8,4.8,4.8h15.6c1.6,0,2.9-1.3,2.9-2.9
			C158.5,63.3,157.7,62.2,156.4,61.8z M152,66.3h-7.1v-1.1h-1.1v-8.8h7.1v1.1h1.1V66.3z"/>
		<path class="st1" d="M150.4,64.5h-6v-7.6h6V64.5z M145,64h4.9v-6.5H145V64z"/>
		<path class="st1" d="M151.5,65.7h-6V64h4.4V58h1.6V65.7z M146,65.1h4.9v-6.5h-0.5v5.9H146V65.1z"/>
		<rect x="145.9" y="58.3" class="st1" width="3" height="0.6"/>
		<rect x="145.9" y="59.4" class="st1" width="3" height="0.6"/>
		<rect x="145.9" y="60.4" class="st1" width="3" height="0.6"/>
		<rect x="145.9" y="61.5" class="st1" width="3" height="0.6"/>
		<rect x="145.9" y="62.6" class="st1" width="1.6" height="0.6"/>
		<path class="st1" d="M151.5,65.7h-6v-1.1h-1.1v-7.6h6V58h1.1V65.7z M146,65.1h4.9v-6.5h-1.1v-1.1H145V64h1.1V65.1z"/>
		<path class="st1" d="M142,87.1l0-0.6c0.2,0,0.4,0,0.5-0.1l0.1,0.6C142.4,87.1,142.2,87.1,142,87.1z M143.1,87l-0.1-0.5
			c0.2,0,0.4-0.1,0.5-0.1l0.1,0.5C143.5,86.9,143.3,87,143.1,87z M144.2,86.8l-0.1-0.5c0.2,0,0.4-0.1,0.5-0.1l0.1,0.5
			C144.6,86.7,144.4,86.7,144.2,86.8z M145.3,86.5l-0.2-0.5c0.2-0.1,0.3-0.1,0.5-0.2l0.2,0.5C145.7,86.4,145.5,86.4,145.3,86.5z
			 M146.4,86.1l-0.2-0.5c0.2-0.1,0.3-0.1,0.5-0.2l0.2,0.5C146.8,86,146.6,86.1,146.4,86.1z M147.4,85.7l-0.2-0.5
			c0.2-0.1,0.3-0.2,0.5-0.2l0.2,0.5C147.8,85.5,147.6,85.6,147.4,85.7z M148.5,85.2l-0.3-0.5c0.2-0.1,0.3-0.2,0.5-0.3l0.3,0.5
			C148.8,85,148.6,85.1,148.5,85.2z M149.4,84.6l-0.3-0.5c0.2-0.1,0.3-0.2,0.5-0.3l0.3,0.5C149.7,84.4,149.6,84.5,149.4,84.6z
			 M150.4,84l-0.3-0.4c0.1-0.1,0.3-0.2,0.4-0.3l0.3,0.4C150.7,83.7,150.5,83.9,150.4,84z M151.2,83.3l-0.4-0.4
			c0.1-0.1,0.3-0.2,0.4-0.4l0.4,0.4C151.5,83,151.4,83.1,151.2,83.3z M152.1,82.5l-0.4-0.4c0.1-0.1,0.3-0.3,0.4-0.4l0.4,0.4
			C152.3,82.2,152.2,82.4,152.1,82.5z M152.9,81.7l-0.4-0.4c0.1-0.1,0.2-0.3,0.4-0.4l0.4,0.4C153.1,81.4,153,81.6,152.9,81.7z
			 M153.6,80.8l-0.4-0.3c0.1-0.1,0.2-0.3,0.3-0.4l0.4,0.3C153.8,80.5,153.7,80.7,153.6,80.8z M154.3,79.9l-0.5-0.3
			c0.1-0.1,0.2-0.3,0.3-0.5l0.5,0.3C154.5,79.6,154.4,79.8,154.3,79.9z M154.9,79l-0.5-0.3c0.1-0.2,0.2-0.3,0.3-0.5l0.5,0.3
			C155,78.7,155,78.8,154.9,79z M155.4,78l-0.5-0.2c0.1-0.2,0.2-0.3,0.2-0.5l0.5,0.2C155.6,77.7,155.5,77.8,155.4,78z M155.9,77
			l-0.5-0.2c0.1-0.2,0.1-0.3,0.2-0.5l0.5,0.2C156,76.6,155.9,76.8,155.9,77z M156.3,75.9l-0.5-0.2c0.1-0.2,0.1-0.3,0.2-0.5l0.5,0.2
			C156.4,75.6,156.3,75.7,156.3,75.9z M156.6,74.8l-0.5-0.1c0-0.2,0.1-0.4,0.1-0.5l0.5,0.1C156.7,74.5,156.6,74.6,156.6,74.8z
			 M156.8,73.7l-0.5-0.1c0-0.2,0.1-0.4,0.1-0.5l0.5,0.1C156.9,73.4,156.9,73.5,156.8,73.7z M157,72.6l-0.6-0.1c0-0.2,0-0.4,0.1-0.5
			l0.6,0C157.1,72.2,157,72.4,157,72.6z M157.1,71.5l-0.6,0c0-0.2,0-0.4,0-0.5l0.6,0C157.1,71.1,157.1,71.3,157.1,71.5z M156.6,70.4
			c0-0.2,0-0.4,0-0.5l0.6,0c0,0.2,0,0.4,0,0.6L156.6,70.4z"/>
		<path class="st1" d="M121.2,69.2l-0.6,0c0-0.2,0-0.4,0.1-0.6l0.6,0.1C121.2,68.9,121.2,69.1,121.2,69.2z M121.3,68.2l-0.5-0.1
			c0-0.2,0.1-0.4,0.1-0.6l0.5,0.1C121.3,67.8,121.3,68,121.3,68.2z M121.5,67.1l-0.5-0.1c0-0.2,0.1-0.4,0.1-0.5l0.5,0.1
			C121.6,66.7,121.5,66.9,121.5,67.1z M121.8,66l-0.5-0.2c0.1-0.2,0.1-0.4,0.2-0.5l0.5,0.2C121.9,65.7,121.8,65.9,121.8,66z
			 M122.1,65l-0.5-0.2c0.1-0.2,0.1-0.4,0.2-0.5l0.5,0.2C122.2,64.7,122.2,64.8,122.1,65z M122.5,64l-0.5-0.2
			c0.1-0.2,0.2-0.3,0.2-0.5l0.5,0.2C122.7,63.7,122.6,63.8,122.5,64z M123,63l-0.5-0.3c0.1-0.2,0.2-0.3,0.3-0.5l0.5,0.3
			C123.2,62.7,123.1,62.9,123,63z M123.5,62.1l-0.5-0.3c0.1-0.2,0.2-0.3,0.3-0.5l0.5,0.3C123.7,61.8,123.6,61.9,123.5,62.1z
			 M124.1,61.2l-0.4-0.3c0.1-0.2,0.2-0.3,0.3-0.5l0.4,0.3C124.4,60.9,124.3,61,124.1,61.2z M124.8,60.3l-0.4-0.4
			c0.1-0.1,0.2-0.3,0.4-0.4l0.4,0.4C125.1,60,124.9,60.2,124.8,60.3z M125.5,59.5l-0.4-0.4c0.1-0.1,0.3-0.3,0.4-0.4l0.4,0.4
			C125.8,59.2,125.7,59.4,125.5,59.5z M126.3,58.7l-0.4-0.4c0.1-0.1,0.3-0.3,0.4-0.4l0.4,0.4C126.6,58.5,126.5,58.6,126.3,58.7z
			 M127.1,58l-0.3-0.4c0.1-0.1,0.3-0.2,0.4-0.3l0.3,0.4C127.4,57.8,127.3,57.9,127.1,58z M128,57.4l-0.3-0.5
			c0.2-0.1,0.3-0.2,0.5-0.3l0.3,0.5C128.3,57.2,128.2,57.3,128,57.4z M128.9,56.8l-0.3-0.5c0.2-0.1,0.3-0.2,0.5-0.3l0.3,0.5
			C129.3,56.6,129.1,56.7,128.9,56.8z M129.9,56.3l-0.3-0.5c0.2-0.1,0.3-0.2,0.5-0.2l0.2,0.5C130.2,56.1,130.1,56.2,129.9,56.3z
			 M130.9,55.8l-0.2-0.5c0.2-0.1,0.3-0.1,0.5-0.2l0.2,0.5C131.2,55.6,131.1,55.7,130.9,55.8z M131.9,55.4l-0.2-0.5
			c0.2-0.1,0.4-0.1,0.5-0.2l0.2,0.5C132.3,55.3,132.1,55.3,131.9,55.4z M132.9,55.1l-0.1-0.5c0.2,0,0.4-0.1,0.5-0.1l0.1,0.5
			C133.3,55,133.1,55,132.9,55.1z M134,54.8l-0.1-0.5c0.2,0,0.4-0.1,0.6-0.1l0.1,0.5C134.4,54.8,134.2,54.8,134,54.8z M140,54.8
			c-0.2,0-0.4-0.1-0.5-0.1l0.1-0.5c0.2,0,0.4,0.1,0.6,0.1L140,54.8z M135.1,54.6l-0.1-0.6c0.2,0,0.4,0,0.6-0.1l0.1,0.6
			C135.4,54.6,135.3,54.6,135.1,54.6z M138.9,54.6c-0.2,0-0.4,0-0.5,0l0-0.6c0.2,0,0.4,0,0.6,0.1L138.9,54.6z M136.2,54.5l0-0.6
			c0.2,0,0.4,0,0.6,0l0,0.6C136.5,54.5,136.4,54.5,136.2,54.5z M137.8,54.5c-0.2,0-0.4,0-0.5,0l0-0.6c0.2,0,0.4,0,0.6,0L137.8,54.5z
			"/>
		<polygon class="st1" points="138.3,55.9 138,55.4 139.6,54.4 138.4,53.1 138.9,52.7 140.4,54.5 		"/>
		<polygon class="st1" points="143.6,88.2 141.5,86.9 143.2,85 143.6,85.4 142.4,86.8 143.9,87.8 		"/>
		<polygon class="st2" points="154.4,87 154.4,84.1 152.4,84.1 152.4,87 151.1,87 153.4,89.1 155.7,87 		"/>
		<path class="st1" d="M159.8,91.9h-12.6v-3.2h2.8l1.3,1.1h4.4l1.3-1.1h2.8V91.9z M147.7,91.3h11.5v-2h-2l-1.3,1.1H151l-1.3-1.1h-2
			V91.3z"/>
	</g>
	<g>
		<path class="st1" d="M83.7,61H57.6v-6.4h26.1V61z M58.3,60.3H83v-5H58.3V60.3z"/>
		<rect x="67.6" y="56.1" class="st4" width="14.6" height="3.4"/>
		<path class="st1" d="M83.7,66.7H57.6v-6.4h26.1V66.7z M58.3,66H83v-5H58.3V66z"/>
		<rect x="67.6" y="61.8" class="st4" width="14.6" height="3.4"/>
		<path class="st1" d="M60.8,58.9c-0.6,0-1-0.5-1-1c0-0.6,0.5-1,1-1s1,0.5,1,1C61.8,58.4,61.3,58.9,60.8,58.9z M60.8,57.5
			c-0.2,0-0.3,0.2-0.3,0.3s0.2,0.3,0.3,0.3s0.3-0.2,0.3-0.3S60.9,57.5,60.8,57.5z"/>
		<path class="st1" d="M80.9,58.9c-0.6,0-1-0.5-1-1c0-0.6,0.5-1,1-1s1,0.5,1,1C81.9,58.4,81.5,58.9,80.9,58.9z M80.9,57.5
			c-0.2,0-0.3,0.2-0.3,0.3s0.2,0.3,0.3,0.3c0.2,0,0.3-0.2,0.3-0.3S81.1,57.5,80.9,57.5z"/>
		<path class="st1" d="M60.8,64.6c-0.6,0-1-0.5-1-1c0-0.6,0.5-1,1-1s1,0.5,1,1C61.8,64.1,61.3,64.6,60.8,64.6z M60.8,63.2
			c-0.2,0-0.3,0.2-0.3,0.3c0,0.2,0.2,0.3,0.3,0.3s0.3-0.2,0.3-0.3C61.1,63.4,60.9,63.2,60.8,63.2z"/>
		<path class="st1" d="M80.9,64.6c-0.6,0-1-0.5-1-1c0-0.6,0.5-1,1-1s1,0.5,1,1C81.9,64.1,81.5,64.6,80.9,64.6z M80.9,63.2
			c-0.2,0-0.3,0.2-0.3,0.3c0,0.2,0.2,0.3,0.3,0.3c0.2,0,0.3-0.2,0.3-0.3C81.3,63.4,81.1,63.2,80.9,63.2z"/>
	</g>
	<g>
		<path class="st1" d="M83.7,88.7H57.6v-6.4h26.1V88.7z M58.3,88H83v-5H58.3V88z"/>
		<rect x="67.6" y="83.8" class="st4" width="14.6" height="3.4"/>
		<path class="st1" d="M83.7,94.4H57.6V88h26.1V94.4z M58.3,93.7H83v-5H58.3V93.7z"/>
		<rect x="67.6" y="89.5" class="st4" width="14.6" height="3.4"/>
		<path class="st1" d="M60.8,86.5c-0.6,0-1-0.5-1-1c0-0.6,0.5-1,1-1s1,0.5,1,1C61.8,86.1,61.3,86.5,60.8,86.5z M60.8,85.2
			c-0.2,0-0.3,0.2-0.3,0.3c0,0.2,0.2,0.3,0.3,0.3s0.3-0.2,0.3-0.3C61.1,85.3,60.9,85.2,60.8,85.2z"/>
		<path class="st1" d="M80.9,86.5c-0.6,0-1-0.5-1-1c0-0.6,0.5-1,1-1s1,0.5,1,1C81.9,86.1,81.5,86.5,80.9,86.5z M80.9,85.2
			c-0.2,0-0.3,0.2-0.3,0.3c0,0.2,0.2,0.3,0.3,0.3c0.2,0,0.3-0.2,0.3-0.3C81.3,85.3,81.1,85.2,80.9,85.2z"/>
		<path class="st1" d="M60.8,92.3c-0.6,0-1-0.5-1-1s0.5-1,1-1s1,0.5,1,1S61.3,92.3,60.8,92.3z M60.8,90.9c-0.2,0-0.3,0.2-0.3,0.3
			s0.2,0.3,0.3,0.3s0.3-0.2,0.3-0.3S60.9,90.9,60.8,90.9z"/>
		<path class="st1" d="M80.9,92.3c-0.6,0-1-0.5-1-1s0.5-1,1-1s1,0.5,1,1S81.5,92.3,80.9,92.3z M80.9,90.9c-0.2,0-0.3,0.2-0.3,0.3
			s0.2,0.3,0.3,0.3c0.2,0,0.3-0.2,0.3-0.3S81.1,90.9,80.9,90.9z"/>
	</g>
</g>
</svg>
