<?xml version="1.0" encoding="utf-8"?>
<!-- Generator: Adobe Illustrator 23.0.3, SVG Export Plug-In . SVG Version: 6.00 Build 0)  -->
<svg version="1.1" id="Layer_1" xmlns="http://www.w3.org/2000/svg" xmlns:xlink="http://www.w3.org/1999/xlink" x="0px" y="0px"
	 viewBox="0 0 254.7 244.4" style="enable-background:new 0 0 254.7 244.4;" xml:space="preserve">
<style type="text/css">
	.st0{fill:#4A555F;}
	.st1{fill:#F58E6F;}
	.st2{fill:#71CCE0;}
	.st3{fill:#DFDFDF;}
	.st4{fill:#FFD452;}
	.st5{fill:none;stroke:#C1CBD8;stroke-width:1.5;stroke-miterlimit:10;}
	.st6{fill:#FFFFFF;}
</style>
<g>
	<g>
		<path class="st0" d="M209.6,167.7h-45.8v-19h45.8V167.7z M165.9,165.6h41.7v-14.9h-41.7V165.6z"/>
		<rect x="185.6" y="153.1" class="st1" width="19.6" height="10.2"/>
		<path class="st0" d="M209.6,184.5h-45.8v-18.9h45.8V184.5z M165.9,182.5h41.7v-14.8h-41.7V182.5z"/>
		<rect x="185.6" y="170" class="st1" width="19.6" height="10.1"/>
		<path class="st0" d="M173.2,161.2c-1.7,0-3.1-1.4-3.1-3.1c0-1.7,1.4-3.1,3.1-3.1c1.7,0,3.1,1.4,3.1,3.1
			C176.3,159.8,174.9,161.2,173.2,161.2z M173.2,157.1c-0.6,0-1,0.5-1,1s0.5,1,1,1s1-0.5,1-1S173.8,157.1,173.2,157.1z"/>
		<path class="st0" d="M201.5,161.2c-1.7,0-3.1-1.4-3.1-3.1c0-1.7,1.4-3.1,3.1-3.1c1.7,0,3.1,1.4,3.1,3.1
			C204.5,159.8,203.2,161.2,201.5,161.2z M201.5,157.1c-0.6,0-1,0.5-1,1s0.5,1,1,1s1-0.5,1-1S202.1,157.1,201.5,157.1z"/>
		<path class="st0" d="M173.2,178.2c-1.7,0-3.1-1.4-3.1-3.1s1.4-3.1,3.1-3.1c1.7,0,3.1,1.4,3.1,3.1S174.9,178.2,173.2,178.2z
			 M173.2,174.2c-0.6,0-1,0.5-1,1c0,0.6,0.5,1,1,1s1-0.5,1-1C174.2,174.6,173.8,174.2,173.2,174.2z"/>
		<path class="st0" d="M201.5,178.2c-1.7,0-3.1-1.4-3.1-3.1s1.4-3.1,3.1-3.1c1.7,0,3.1,1.4,3.1,3.1S203.2,178.2,201.5,178.2z
			 M201.5,174.2c-0.6,0-1,0.5-1,1c0,0.6,0.5,1,1,1s1-0.5,1-1C202.5,174.6,202.1,174.2,201.5,174.2z"/>
	</g>
	<g>
		<g>
			<g>
				<g>
					<path class="st2" d="M38.2,105.7c-1.6,0.7-3.2,1.4-4.8,2.2c-1.6-0.8-3.3-1.6-4.8-2.3c0.4-2.1,0.8-4.1,1.4-5.9
						c1.6-4.8,3.1-5.8,3.4-5.8c0.3,0,1.8,1,3.4,5.8C37.3,101.6,37.8,103.6,38.2,105.7z"/>
				</g>
			</g>
			<g>
				<g>
					<path class="st2" d="M38.2,129.5c-0.4,2.1-0.8,4.1-1.4,5.9c-1.6,4.8-3.1,5.8-3.4,5.8c-0.3,0-1.9-1-3.4-5.8
						c-0.6-1.8-1-3.8-1.4-5.9c1.6-0.7,3.2-1.4,4.8-2.2C35,128.1,36.6,128.9,38.2,129.5z"/>
				</g>
			</g>
			<g>
				<g>
					<path class="st2" d="M25.6,107.4c-0.2,1.7-0.4,3.5-0.5,5.4c-1.5,1-2.9,2-4.2,3c-1.7-1.5-3.3-2.9-4.5-4.4
						c-3.4-3.8-3.4-5.7-3.3-5.9c0.1-0.1,0.7-0.5,2.5-0.5C18.1,105,21.6,105.9,25.6,107.4z"/>
				</g>
			</g>
			<g>
				<g>
					<path class="st2" d="M53.7,129.6c-0.1,0.1-0.7,0.5-2.5,0.5c-2.6,0-6.1-0.9-10.1-2.4c0.2-1.7,0.4-3.5,0.5-5.4c1.5-1,2.9-2,4.2-3
						c1.7,1.5,3.3,2.9,4.6,4.4C53.8,127.5,53.8,129.4,53.7,129.6z"/>
				</g>
			</g>
			<g>
				<g>
					<g>
						<path class="st2" d="M38.2,105.7c-1.6,0.7-3.2,1.4-4.8,2.2c-1.6-0.8-3.3-1.6-4.8-2.3c0.4-2.1,0.8-4.1,1.4-5.9
							c1.6-4.8,3.1-5.8,3.4-5.8c0.3,0,1.8,1,3.4,5.8C37.3,101.6,37.8,103.6,38.2,105.7z"/>
					</g>
				</g>
				<g>
					<g>
						<path class="st2" d="M38.2,129.5c-0.4,2.1-0.8,4.1-1.4,5.9c-1.6,4.8-3.1,5.8-3.4,5.8c-0.3,0-1.9-1-3.4-5.8
							c-0.6-1.8-1-3.8-1.4-5.9c1.6-0.7,3.2-1.4,4.8-2.2C35,128.1,36.6,128.9,38.2,129.5z"/>
					</g>
				</g>
				<g>
					<g>
						<path class="st2" d="M25.6,107.4c-0.2,1.7-0.4,3.5-0.5,5.4c-1.5,1-2.9,2-4.2,3c-1.7-1.5-3.3-2.9-4.5-4.4
							c-3.4-3.8-3.4-5.7-3.3-5.9c0.1-0.1,0.7-0.5,2.5-0.5C18.1,105,21.6,105.9,25.6,107.4z"/>
					</g>
				</g>
				<g>
					<g>
						<path class="st2" d="M53.7,129.6c-0.1,0.1-0.7,0.5-2.5,0.5c-2.6,0-6.1-0.9-10.1-2.4c0.2-1.7,0.4-3.5,0.5-5.4
							c1.5-1,2.9-2,4.2-3c1.7,1.5,3.3,2.9,4.6,4.4C53.8,127.5,53.8,129.4,53.7,129.6z"/>
					</g>
				</g>
				<g>
					<g>
						<path class="st2" d="M25.6,127.8c-3.9,1.5-7.5,2.3-10.1,2.3c0,0,0,0,0,0c-1.8,0-2.4-0.4-2.5-0.5c-0.1-0.2-0.1-2.1,3.3-5.9
							c1.3-1.4,2.8-2.9,4.6-4.4c1.3,1,2.7,2,4.2,3C25.2,124.2,25.3,126.1,25.6,127.8z"/>
					</g>
				</g>
				<g>
					<g>
						<path class="st2" d="M50.4,111.5c-1.3,1.4-2.8,2.9-4.6,4.4c-1.3-1-2.7-2-4.2-3c-0.1-1.9-0.3-3.7-0.5-5.4
							c3.9-1.5,7.5-2.3,10.1-2.3c1.8,0,2.4,0.4,2.5,0.5C53.9,105.8,53.8,107.7,50.4,111.5z"/>
					</g>
				</g>
			</g>
			<g>
				<g>
					<path class="st2" d="M25.6,127.8c-3.9,1.5-7.5,2.3-10.1,2.3c0,0,0,0,0,0c-1.8,0-2.4-0.4-2.5-0.5c-0.1-0.2-0.1-2.1,3.3-5.9
						c1.3-1.4,2.8-2.9,4.6-4.4c1.3,1,2.7,2,4.2,3C25.2,124.2,25.3,126.1,25.6,127.8z"/>
				</g>
			</g>
			<g>
				<g>
					<path class="st2" d="M50.4,111.5c-1.3,1.4-2.8,2.9-4.6,4.4c-1.3-1-2.7-2-4.2-3c-0.1-1.9-0.3-3.7-0.5-5.4
						c3.9-1.5,7.5-2.3,10.1-2.3c1.8,0,2.4,0.4,2.5,0.5C53.9,105.8,53.8,107.7,50.4,111.5z"/>
				</g>
			</g>
		</g>
		<g>
			<g>
				<path class="st0" d="M33.4,151c-0.4,0-0.8,0-1.3,0l0.1-1.6c0.4,0,0.8,0,1.2,0l0.4,0l0,1.6L33.4,151z M35.4,150.9l-0.1-1.6
					c0.5,0,1-0.1,1.5-0.1l0.2,1.6C36.5,150.8,35.9,150.9,35.4,150.9z M30.5,150.9c-0.5,0-1.1-0.1-1.6-0.2l0.2-1.6
					c0.5,0.1,1,0.1,1.5,0.2L30.5,150.9z M38.6,150.6l-0.2-1.6c0.5-0.1,1-0.2,1.5-0.3l0.3,1.6C39.7,150.4,39.1,150.5,38.6,150.6z
					 M27.3,150.4c-0.5-0.1-1.1-0.2-1.6-0.3l0.4-1.5c0.5,0.1,1,0.2,1.5,0.3L27.3,150.4z M41.8,149.9l-0.4-1.5c0.5-0.1,1-0.3,1.5-0.4
					l0.5,1.5C42.8,149.6,42.3,149.8,41.8,149.9z M24.1,149.7c-0.5-0.1-1-0.3-1.6-0.5l0.5-1.5c0.5,0.2,1,0.3,1.5,0.5L24.1,149.7z
					 M44.9,148.9l-0.5-1.5c0.5-0.2,1-0.4,1.4-0.6l0.6,1.5C45.9,148.6,45.4,148.8,44.9,148.9z M21,148.6c-0.5-0.2-1-0.4-1.5-0.6
					l0.7-1.4c0.5,0.2,0.9,0.4,1.4,0.6L21,148.6z M47.9,147.7l-0.7-1.4c0.5-0.2,0.9-0.5,1.4-0.7l0.8,1.4
					C48.9,147.2,48.4,147.4,47.9,147.7z M18.1,147.3c-0.5-0.2-1-0.5-1.4-0.8l0.8-1.4c0.4,0.3,0.9,0.5,1.4,0.7L18.1,147.3z
					 M50.7,146.1l-0.8-1.4c0.4-0.3,0.9-0.5,1.3-0.8l0.9,1.3C51.7,145.5,51.2,145.8,50.7,146.1z M15.3,145.6
					c-0.5-0.3-0.9-0.6-1.3-0.9l0.9-1.3c0.4,0.3,0.8,0.6,1.3,0.9L15.3,145.6z M53.4,144.3l-1-1.3c0.4-0.3,0.8-0.6,1.2-1l1,1.2
					C54.3,143.6,53.9,144,53.4,144.3z M12.6,143.7c-0.4-0.3-0.8-0.7-1.2-1l1-1.2c0.4,0.3,0.8,0.7,1.2,1L12.6,143.7z M55.9,142.2
					l-1.1-1.2c0.4-0.3,0.8-0.7,1.1-1.1l1.1,1.1C56.7,141.5,56.3,141.9,55.9,142.2z M10.2,141.6c-0.4-0.4-0.8-0.8-1.1-1.2l1.2-1.1
					c0.4,0.4,0.7,0.7,1.1,1.1L10.2,141.6z M58.2,139.9l-1.2-1.1c0.3-0.4,0.7-0.8,1-1.2l1.2,1C58.9,139.1,58.6,139.5,58.2,139.9z
					 M7.9,139.2c-0.4-0.4-0.7-0.8-1-1.3l1.3-1c0.3,0.4,0.6,0.8,1,1.2L7.9,139.2z M60.3,137.4l-1.3-0.9c0.3-0.4,0.6-0.8,0.9-1.3
					l1.3,0.9C60.9,136.5,60.6,136.9,60.3,137.4z M6,136.6c-0.3-0.4-0.6-0.9-0.9-1.4l1.3-0.8c0.3,0.4,0.6,0.9,0.9,1.3L6,136.6z
					 M62.1,134.7l-1.4-0.8c0.3-0.4,0.5-0.9,0.8-1.4l1.4,0.7C62.6,133.7,62.3,134.2,62.1,134.7z M4.2,133.9c-0.3-0.5-0.5-0.9-0.8-1.4
					l1.4-0.7c0.2,0.5,0.5,0.9,0.7,1.4L4.2,133.9z M63.6,131.8l-1.4-0.7c0.2-0.5,0.4-0.9,0.6-1.4l1.5,0.6
					C64,130.8,63.8,131.3,63.6,131.8z M2.8,131c-0.2-0.5-0.4-1-0.6-1.5l1.5-0.6c0.2,0.5,0.4,1,0.6,1.4L2.8,131z M64.8,128.8
					l-1.5-0.5c0.2-0.5,0.3-1,0.5-1.5l1.5,0.5C65.2,127.7,65,128.3,64.8,128.8z M1.6,127.9c-0.2-0.5-0.3-1-0.5-1.6l1.5-0.4
					c0.1,0.5,0.3,1,0.4,1.5L1.6,127.9z M65.8,125.7l-1.5-0.4c0.1-0.5,0.2-1,0.3-1.5l1.6,0.3C66,124.6,65.9,125.1,65.8,125.7z
					 M0.8,124.8c-0.1-0.5-0.2-1.1-0.3-1.6l1.6-0.3c0.1,0.5,0.2,1,0.3,1.5L0.8,124.8z M66.4,122.5l-1.6-0.2c0.1-0.5,0.1-1,0.2-1.5
					l1.6,0.2C66.5,121.4,66.5,121.9,66.4,122.5z M0.2,121.6c-0.1-0.5-0.1-1.1-0.2-1.6l1.6-0.1c0,0.5,0.1,1,0.1,1.5L0.2,121.6z
					 M66.7,119.2l-1.6-0.1c0-0.5,0-1,0-1.5c0-0.5,0-1,0-1.4l1.6-0.1c0,0.5,0,1,0,1.5C66.8,118.1,66.7,118.7,66.7,119.2z M0,118.4
					c0-0.3,0-0.5,0-0.8c0-0.3,0-0.6,0-0.9l1.6,0c0,0.3,0,0.6,0,0.8c0,0.2,0,0.5,0,0.7L0,118.4z M1.7,115.2l-1.6-0.1
					c0-0.5,0.1-1.1,0.2-1.6l1.6,0.2C1.8,114.2,1.7,114.7,1.7,115.2z M65,114.6c0-0.5-0.1-1-0.2-1.5l1.6-0.2c0.1,0.5,0.1,1.1,0.2,1.6
					L65,114.6z M2.1,112.2l-1.6-0.3c0.1-0.5,0.2-1.1,0.3-1.6l1.6,0.3C2.2,111.1,2.1,111.6,2.1,112.2z M64.6,111.6
					c-0.1-0.5-0.2-1-0.3-1.5l1.5-0.4c0.1,0.5,0.2,1.1,0.3,1.6L64.6,111.6z M2.7,109.1l-1.5-0.4c0.1-0.5,0.3-1,0.5-1.6l1.5,0.5
					C3,108.1,2.9,108.6,2.7,109.1z M63.9,108.5c-0.1-0.5-0.3-1-0.5-1.5l1.5-0.5c0.2,0.5,0.3,1,0.5,1.5L63.9,108.5z M3.7,106.2
					l-1.5-0.6c0.2-0.5,0.4-1,0.6-1.5l1.5,0.6C4.1,105.2,3.9,105.7,3.7,106.2z M62.8,105.6c-0.2-0.5-0.4-1-0.6-1.4l1.4-0.7
					c0.2,0.5,0.4,1,0.6,1.5L62.8,105.6z M5,103.3l-1.4-0.7c0.2-0.5,0.5-1,0.8-1.4l1.4,0.8C5.4,102.4,5.2,102.9,5,103.3z M61.5,102.8
					c-0.2-0.5-0.5-0.9-0.8-1.4l1.4-0.8c0.3,0.5,0.5,0.9,0.8,1.4L61.5,102.8z M6.5,100.6l-1.3-0.8c0.3-0.5,0.6-0.9,0.9-1.4l1.3,0.9
					C7,99.8,6.8,100.2,6.5,100.6z M60,100.2c-0.3-0.4-0.6-0.9-0.9-1.3l1.3-0.9c0.3,0.4,0.6,0.9,0.9,1.3L60,100.2z M8.3,98.1l-1.3-1
					c0.3-0.4,0.7-0.9,1-1.3l1.2,1C8.9,97.3,8.6,97.7,8.3,98.1z M58.1,97.7c-0.3-0.4-0.7-0.8-1-1.2l1.2-1.1c0.4,0.4,0.7,0.8,1.1,1.2
					L58.1,97.7z M10.3,95.8l-1.2-1.1c0.4-0.4,0.8-0.8,1.1-1.2l1.1,1.1C11,95,10.6,95.4,10.3,95.8z M56.1,95.3
					c-0.4-0.4-0.7-0.7-1.1-1.1l1.1-1.2c0.4,0.4,0.8,0.7,1.2,1.1L56.1,95.3z M12.5,93.6l-1-1.2c0.4-0.4,0.8-0.7,1.3-1l1,1.2
					C13.3,92.9,12.9,93.3,12.5,93.6z M53.8,93.2c-0.4-0.3-0.8-0.7-1.2-1l1-1.3c0.4,0.3,0.9,0.7,1.3,1L53.8,93.2z M15,91.7L14,90.4
					c0.4-0.3,0.9-0.6,1.3-0.9l0.9,1.3C15.8,91.1,15.4,91.4,15,91.7z M51.3,91.4c-0.4-0.3-0.9-0.6-1.3-0.8l0.8-1.4
					c0.5,0.3,0.9,0.6,1.4,0.9L51.3,91.4z M17.6,90l-0.8-1.4c0.5-0.3,1-0.5,1.4-0.8l0.7,1.4C18.5,89.5,18,89.8,17.6,90z M48.7,89.7
					c-0.5-0.3-0.9-0.5-1.4-0.7l0.7-1.4c0.5,0.2,1,0.5,1.4,0.8L48.7,89.7z M20.3,88.6l-0.7-1.4c0.5-0.2,1-0.4,1.5-0.6l0.6,1.5
					C21.3,88.2,20.8,88.4,20.3,88.6z M45.9,88.4c-0.5-0.2-1-0.4-1.4-0.6l0.6-1.5c0.5,0.2,1,0.4,1.5,0.6L45.9,88.4z M23.2,87.5
					L22.7,86c0.5-0.2,1-0.3,1.6-0.5l0.4,1.5C24.2,87.2,23.7,87.3,23.2,87.5z M43,87.3c-0.5-0.2-1-0.3-1.5-0.4l0.4-1.5
					c0.5,0.1,1.1,0.3,1.6,0.5L43,87.3z M26.2,86.6l-0.4-1.5c0.5-0.1,1.1-0.2,1.6-0.3l0.3,1.6C27.2,86.4,26.7,86.5,26.2,86.6z
					 M40,86.5c-0.5-0.1-1-0.2-1.5-0.3l0.3-1.6c0.5,0.1,1.1,0.2,1.6,0.3L40,86.5z M29.2,86.1L29,84.5c0.5-0.1,1.1-0.1,1.6-0.2
					l0.1,1.6C30.2,86,29.7,86,29.2,86.1z M36.9,86c-0.5-0.1-1-0.1-1.5-0.1l0.1-1.6c0.5,0,1.1,0.1,1.6,0.1L36.9,86z M32.3,85.8
					l-0.1-1.6c0.5,0,1.1,0,1.6,0l0,1.6C33.3,85.8,32.8,85.8,32.3,85.8z"/>
			</g>
		</g>
		<g>
			<g>
				<g>
					<path class="st0" d="M33.4,144.7c-2.7,0-5-2.9-6.7-8.3c-1.6-5.1-2.5-11.8-2.5-18.9c0-7.1,0.9-13.8,2.5-18.9
						c1.7-5.4,4.1-8.3,6.7-8.3c2.7,0,5,2.9,6.7,8.3c1.6,5.1,2.5,11.8,2.5,18.9c0,7.1-0.9,13.8-2.5,18.9
						C38.4,141.9,36.1,144.7,33.4,144.7z M33.4,92.1c-1.8,0-3.8,2.7-5.2,7.2c-1.6,4.9-2.4,11.4-2.4,18.4c0,7,0.9,13.5,2.4,18.4
						c1.4,4.5,3.4,7.2,5.2,7.2s3.8-2.7,5.2-7.2c1.6-4.9,2.4-11.4,2.4-18.4c0-7-0.9-13.5-2.4-18.4C37.2,94.7,35.2,92.1,33.4,92.1z"/>
				</g>
			</g>
			<g>
				<g>
					<path class="st0" d="M51.2,133.7c-5.5,0-14.2-3.1-22.6-8.1c-6.1-3.6-11.4-7.8-14.9-11.8c-3.8-4.3-5-7.7-3.7-10
						c0.9-1.5,2.7-2.2,5.5-2.2c5.5,0,14.2,3.1,22.6,8.1c6.1,3.6,11.4,7.8,14.9,11.8c3.8,4.3,5,7.7,3.7,10
						C55.8,132.9,54,133.7,51.2,133.7z M15.5,103.1c-1.5,0-3.4,0.3-4.1,1.5c-0.9,1.6,0.4,4.6,3.5,8.2c3.4,3.9,8.6,7.9,14.6,11.5
						c8.2,4.9,16.6,7.9,21.8,7.9c1.5,0,3.4-0.3,4.1-1.5c0.9-1.6-0.4-4.6-3.5-8.2c-3.4-3.9-8.6-7.9-14.6-11.5
						C29.1,106.1,20.7,103.1,15.5,103.1z"/>
				</g>
			</g>
			<g>
				<g>
					<path class="st0" d="M15.5,133.6C15.5,133.6,15.5,133.6,15.5,133.6c-2.8,0-4.6-0.8-5.5-2.3c-1.4-2.3-0.1-5.8,3.7-10
						c3.5-4,8.9-8.1,15-11.7c8.4-5,17.1-8,22.6-8c2.8,0,4.6,0.8,5.5,2.3c1.4,2.3,0.1,5.8-3.7,10c-3.5,4-8.9,8.1-15,11.7
						C29.7,130.5,21,133.6,15.5,133.6z M51.3,103.2c-5.2,0-13.6,3-21.8,7.8c-6,3.5-11.2,7.6-14.6,11.4c-3.1,3.5-4.5,6.6-3.5,8.1
						c0.7,1.2,2.7,1.5,4.1,1.5c5.2,0,13.6-3,21.8-7.8c6-3.5,11.2-7.6,14.6-11.4c3.1-3.5,4.5-6.6,3.5-8.1
						C54.7,103.4,52.7,103.2,51.3,103.2z"/>
				</g>
			</g>
		</g>
		<g>
			<g>
				
					<ellipse transform="matrix(0.2298 -0.9732 0.9732 0.2298 -88.2272 122.6567)" class="st1" cx="33.4" cy="117.1" rx="4.4" ry="4.4"/>
			</g>
		</g>
	</g>
	<g>
		<g>
			<g>
				<path class="st0" d="M193.1,66.8c-18.4,0-33.4-15-33.4-33.4S174.7,0,193.1,0s33.4,15,33.4,33.4S211.5,66.8,193.1,66.8z
					 M193.1,1.3c-17.7,0-32.1,14.4-32.1,32.1s14.4,32.1,32.1,32.1s32.1-14.4,32.1-32.1S210.7,1.3,193.1,1.3z"/>
			</g>
		</g>
		<g>
			<g>
				<circle class="st3" cx="193.1" cy="33.4" r="30.1"/>
			</g>
		</g>
		<g>
			<g>
				<polygon class="st0" points="182.5,43.2 174.4,33.5 182.5,22.8 184.2,24.1 177.1,33.5 184.2,41.9 				"/>
			</g>
		</g>
		<g>
			<g>
				<polygon class="st0" points="203.6,43.2 202,41.9 209,33.5 201.9,24.1 203.6,22.8 211.8,33.5 				"/>
			</g>
		</g>
		<g>
			<g>
				
					<rect x="178.8" y="31.6" transform="matrix(0.369 -0.9294 0.9294 0.369 91.1985 199.7634)" class="st0" width="27.8" height="2.1"/>
			</g>
		</g>
	</g>
	<g>
		<g>
			<g>
				<path class="st4" d="M201.6,98.6h6.1v-1.2c0-5.5-2.2-10.9-6.1-14.8l0,0l0,0c-3.9,3.9-6.1,9.2-6.1,14.8v1.2H201.6L201.6,98.6z"/>
			</g>
		</g>
		<g>
			<g>
				<path class="st0" d="M191.8,97.4c0-6.6,2.6-12.7,7.2-17.4l2.6-2.6l2.6,2.6c4.6,4.6,7.2,10.8,7.2,17.4v4.8h-19.5V97.4z
					 M200.8,95.7l0-0.8h1.6v5.7h7.3v-3.2c0-6.1-2.4-11.9-6.7-16.2l-1.4-1.4l-1.4,1.4c-4.3,4.3-6.7,10.1-6.7,16.2v3.2h7.3V95.7z"/>
			</g>
		</g>
		<g>
			<g>
				<path class="st0" d="M201.1,125.9v-1.6c-4.1,0-7.3-3.3-7.3-7.3V112h-1.6v4.9C192.1,121.8,196.1,125.9,201.1,125.9z"/>
			</g>
		</g>
		<g>
			<g>
				<path class="st0" d="M201.6,122.8c4.9,0,9-4,9-9v-2.4H209v2.4c0,4.1-3.3,7.3-7.3,7.3V122.8z"/>
			</g>
		</g>
		<g>
			<g>
				<path class="st0" d="M183.3,141c10.5,0,19.1-8.6,19.1-19.1V90.6h-1.6v31.3c0,9.6-7.8,17.5-17.5,17.5V141z"/>
			</g>
		</g>
		<g>
			<g>
				<path class="st0" d="M206.4,108.9c0-1.8,1.5-3.3,3.3-3.3s3.3,1.5,3.3,3.3c0,1.8-1.5,3.3-3.3,3.3S206.4,110.8,206.4,108.9z
					 M208.1,108.9c0,0.9,0.8,1.7,1.7,1.7s1.7-0.8,1.7-1.7c0-0.9-0.8-1.7-1.7-1.7S208.1,108,208.1,108.9z"/>
			</g>
		</g>
		<g>
			<g>
				<path class="st0" d="M189.6,109.9c0-1.8,1.5-3.3,3.3-3.3c1.8,0,3.3,1.5,3.3,3.3c0,1.8-1.5,3.3-3.3,3.3
					C191.1,113.2,189.6,111.7,189.6,109.9z M191.2,109.9c0,0.9,0.8,1.7,1.7,1.7c0.9,0,1.7-0.8,1.7-1.7s-0.8-1.7-1.7-1.7
					C192,108.2,191.2,108.9,191.2,109.9z"/>
			</g>
		</g>
	</g>
	<path class="st5" d="M35.4,161.8c12.9,47.2,56.1,81.9,107.3,81.9c61.4,0,111.3-49.8,111.3-111.3c0-28.1-10.4-53.8-27.6-73.4"/>
	<path class="st5" d="M150.5,21.4c-2.6-0.2-5.2-0.3-7.8-0.3c-40.9,0-76.7,22.1-96,55"/>
	<path class="st6" d="M176.5,92.7H87.7c-3.6,0-6.6,3-6.6,6.6v54.4c0,3.6,3,6.6,6.6,6.6h88.8c3.6,0,6.6-3,6.6-6.6V99.3
		C183.1,95.7,180.1,92.7,176.5,92.7z"/>
	<path class="st0" d="M176.8,160.6H87.3c-3.7,0-6.7-3-6.7-6.7V99.1c0-3.7,3-6.7,6.7-6.7h89.5c3.7,0,6.7,3,6.7,6.7v54.8
		C183.5,157.6,180.5,160.6,176.8,160.6z M87.3,94.5c-2.5,0-4.6,2.1-4.6,4.6v54.8c0,2.5,2.1,4.6,4.6,4.6h89.5c2.5,0,4.6-2.1,4.6-4.6
		V99.1c0-2.5-2.1-4.6-4.6-4.6H87.3z"/>
	<path class="st0" d="M175.5,152.6H88.6v-52.2h86.9V152.6z M90.7,150.6h82.8v-48.1H90.7V150.6z"/>
	<path class="st0" d="M165.9,184.5H99.5v-9h15.2l4.5-17h27l4.5,17h15.2V184.5z M101.6,182.5h62.2v-4.9h-14.7l-4.5-17h-23.8l-4.5,17
		h-14.7V182.5z"/>
	<polygon class="st2" points="145,171.6 142.8,163 122.6,163 120.4,171.6 	"/>
	<polygon class="st1" points="115.5,126.4 115.5,126.4 115.5,126.4 	"/>
	<rect x="139.5" y="112.8" class="st0" width="25.1" height="2"/>
	<rect x="139.5" y="119" class="st0" width="25.1" height="2"/>
	<rect x="139.5" y="125.2" class="st0" width="25.1" height="2"/>
	<rect x="139.5" y="131.4" class="st0" width="25.1" height="2"/>
	<rect x="139.5" y="137.6" class="st0" width="13.5" height="2"/>
	<path class="st0" d="M115.5,111.7c8.1,0,14.7,6.6,14.7,14.7s-6.6,14.7-14.7,14.7s-14.7-6.6-14.7-14.7S107.4,111.7,115.5,111.7
		 M115.5,109.7c-9.2,0-16.7,7.5-16.7,16.7s7.5,16.7,16.7,16.7c9.2,0,16.7-7.5,16.7-16.7S124.8,109.7,115.5,109.7L115.5,109.7z"/>
	<g>
		<path class="st2" d="M126.7,132.8c-1.2,2-2.7,3.5-4.7,4.7s-4.1,1.7-6.4,1.7c-2.3,0-4.5-0.6-6.4-1.7c-2-1.2-3.5-2.7-4.7-4.7
			c-1.2-2-1.7-4.1-1.7-6.4c0-2.3,0.6-4.5,1.7-6.4c1.2-2,2.7-3.5,4.7-4.7c2-1.2,4.1-1.7,6.4-1.7c2.3,0,4.5,0.6,6.4,1.7
			s3.5,2.7,4.7,4.7c1.2,2,1.7,4.1,1.7,6.4C128.4,128.7,127.9,130.8,126.7,132.8z M126.2,120.2c-1.1-1.9-2.6-3.4-4.5-4.5
			c-1.9-1.1-3.9-1.7-6.2-1.7s-4.3,0.6-6.2,1.7c-1.9,1.1-3.4,2.6-4.5,4.5c-1.1,1.9-1.7,3.9-1.7,6.2s0.6,4.3,1.7,6.2
			c1.1,1.9,2.6,3.4,4.5,4.5c1.9,1.1,3.9,1.7,6.2,1.7s4.3-0.6,6.2-1.7c1.9-1.1,3.4-2.6,4.5-4.5c1.1-1.9,1.7-3.9,1.7-6.2
			S127.3,122.1,126.2,120.2z M110.7,136.3c-1.9-0.9-3.4-2.2-4.5-4s-1.7-3.8-1.7-5.9c0-1.6,0.3-3.1,1-4.5L110.7,136.3z M122.7,124
			c-0.1-0.3-0.3-0.8-0.6-1.2l-0.1-0.2c-0.3-0.6-0.6-1-0.7-1.2c-0.2-0.4-0.3-0.8-0.3-1.2c0-0.5,0.2-1,0.5-1.4
			c0.4-0.4,0.8-0.6,1.3-0.6h0.2c-1-0.9-2.1-1.6-3.4-2.1c-1.3-0.5-2.6-0.8-4.1-0.8c-1.9,0-3.7,0.5-5.3,1.4s-2.9,2.1-4,3.6h0.7
			c0.5,0,1.1,0,1.9-0.1l1-0.1c0.2,0,0.3,0,0.4,0.2s0.1,0.3,0,0.5c-0.1,0.2-0.2,0.2-0.4,0.2l-1.2,0.1l4,12l2.4-7.3l-1.7-4.7
			c-0.4,0-0.8,0-1.2-0.1c-0.2,0-0.3-0.1-0.4-0.2s-0.1-0.3,0-0.5s0.2-0.2,0.4-0.2l1,0.1c0.8,0,1.4,0.1,1.9,0.1c0.5,0,1.1,0,1.8-0.1
			l1-0.1c0.2,0,0.4,0,0.4,0.2s0.1,0.3,0,0.5c-0.1,0.2-0.2,0.2-0.4,0.2l-1.2,0.1l4,11.9l1.2-4.1c0.2-0.8,0.4-1.4,0.5-1.8
			c0.1-0.6,0.2-1,0.2-1.5C123,125.2,122.9,124.6,122.7,124z M112.4,137c1,0.3,2.1,0.5,3.1,0.5c1.2,0,2.5-0.2,3.7-0.6l-0.1-0.2
			l-3.4-9.3L112.4,137z M125.3,122.2c0,1.2-0.3,2.6-0.8,4l-3.4,9.8c1.7-1,3-2.3,4-4s1.5-3.6,1.5-5.6c0-1.9-0.5-3.7-1.4-5.3
			C125.3,121.4,125.3,121.8,125.3,122.2z"/>
	</g>
</g>
</svg>
