<?xml version="1.0" encoding="utf-8"?>
<!-- Generator: Adobe Illustrator 23.0.3, SVG Export Plug-In . SVG Version: 6.00 Build 0)  -->
<svg version="1.1" id="Layer_1" xmlns="http://www.w3.org/2000/svg" xmlns:xlink="http://www.w3.org/1999/xlink" x="0px" y="0px"
	 viewBox="0 0 254.8 244.4" style="enable-background:new 0 0 254.8 244.4;" xml:space="preserve">
<style type="text/css">
	.st0{fill:#4A555F;}
	.st1{fill:#71CCE0;}
	.st2{fill:#DFDFDF;}
	.st3{fill:#FFD452;}
	.st4{fill:#F58E6F;}
	.st5{fill:none;stroke:#C1CBD8;stroke-width:1.5;stroke-miterlimit:10;}
</style>
<g>
	<g>
		<g>
			<g>
				<path class="st0" d="M63.7,18.1c-8.4,0-15.3,6.9-15.3,15.3c0,8.4,6.9,15.3,15.3,15.3c8.4,0,15.3-6.9,15.3-15.3
					C79,24.9,72.1,18.1,63.7,18.1z M63.7,46.8c-7.4,0-13.5-6-13.5-13.5s6-13.5,13.5-13.5c7.4,0,13.5,6,13.5,13.5
					S71.1,46.8,63.7,46.8z M63.7,18.1c-8.4,0-15.3,6.9-15.3,15.3c0,8.4,6.9,15.3,15.3,15.3c8.4,0,15.3-6.9,15.3-15.3
					C79,24.9,72.1,18.1,63.7,18.1z M63.7,46.8c-7.4,0-13.5-6-13.5-13.5s6-13.5,13.5-13.5c7.4,0,13.5,6,13.5,13.5
					S71.1,46.8,63.7,46.8z M63.7,18.1c-8.4,0-15.3,6.9-15.3,15.3c0,8.4,6.9,15.3,15.3,15.3c8.4,0,15.3-6.9,15.3-15.3
					C79,24.9,72.1,18.1,63.7,18.1z M63.7,46.8c-7.4,0-13.5-6-13.5-13.5s6-13.5,13.5-13.5c7.4,0,13.5,6,13.5,13.5
					S71.1,46.8,63.7,46.8z M63.7,18.1c-8.4,0-15.3,6.9-15.3,15.3c0,8.4,6.9,15.3,15.3,15.3c8.4,0,15.3-6.9,15.3-15.3
					C79,24.9,72.1,18.1,63.7,18.1z M63.7,46.8c-7.4,0-13.5-6-13.5-13.5s6-13.5,13.5-13.5c7.4,0,13.5,6,13.5,13.5
					S71.1,46.8,63.7,46.8z M96.5,24.6c0,0-2.9-1.1-5.9-2.3c1.3-3,2.5-5.8,2.5-5.8l0.2-0.6L81.2,3.7l-0.6,0.2c0,0-2.8,1.2-5.8,2.5
					c-1.2-3-2.3-5.9-2.3-5.9L72.3,0H55.1l-0.2,0.6c0,0-1.1,2.9-2.3,5.9c-3-1.3-5.8-2.5-5.8-2.5l-0.6-0.2L34,15.8l0.2,0.6
					c0,0,1.2,2.8,2.5,5.8c-3,1.2-5.9,2.3-5.9,2.3l-0.6,0.2V42l0.6,0.2c0,0,2.9,1.1,5.9,2.3c-1.3,3-2.5,5.8-2.5,5.8L34,50.9
					l12.2,12.1l0.6-0.2c0,0,2.8-1.2,5.8-2.5c1.2,3,2.3,5.9,2.3,5.9l0.2,0.6h17.2l0.2-0.6c0,0,1.1-2.9,2.3-5.9c3,1.3,5.8,2.5,5.8,2.5
					l0.6,0.2l12.1-12.1l-0.2-0.6c0,0-1.2-2.8-2.5-5.8c3-1.2,5.9-2.3,5.9-2.3l0.6-0.2V24.8L96.5,24.6z M95.7,40.8
					c-1.1,0.4-3.7,1.5-6.3,2.5l-0.9,0.4l0.4,0.9c1.1,2.5,2.2,5.1,2.7,6.2L81,61.3c-1.1-0.5-3.7-1.6-6.2-2.7l-0.9-0.4l-0.4,0.9
					c-1,2.5-2,5.2-2.5,6.3H56.2c-0.5-1.1-1.5-3.7-2.5-6.3l-0.4-0.9l-0.9,0.4c-2.5,1.1-5.1,2.2-6.2,2.7L35.8,50.7
					c0.5-1.1,1.6-3.7,2.7-6.2l0.4-0.9L38,43.3c-2.5-1-5.2-2-6.3-2.5V25.9c1.1-0.4,3.7-1.5,6.3-2.5l0.9-0.4l-0.4-0.9
					c-1.1-2.5-2.2-5.1-2.7-6.2L46.3,5.5C47.4,6,50,7.1,52.5,8.2l0.9,0.4l0.4-0.9c1-2.5,2-5.1,2.5-6.3h14.9c0.4,1.1,1.5,3.7,2.5,6.3
					l0.4,0.9l0.9-0.4C77.3,7.1,79.9,6,81,5.5L91.6,16c-0.5,1.1-1.6,3.7-2.7,6.2l-0.4,0.9l0.9,0.4c2.5,1,5.2,2,6.3,2.5V40.8z
					 M63.7,18.1c-8.4,0-15.3,6.9-15.3,15.3c0,8.4,6.9,15.3,15.3,15.3c8.4,0,15.3-6.9,15.3-15.3C79,24.9,72.1,18.1,63.7,18.1z
					 M63.7,46.8c-7.4,0-13.5-6-13.5-13.5s6-13.5,13.5-13.5c7.4,0,13.5,6,13.5,13.5S71.1,46.8,63.7,46.8z M63.7,18.1
					c-8.4,0-15.3,6.9-15.3,15.3c0,8.4,6.9,15.3,15.3,15.3c8.4,0,15.3-6.9,15.3-15.3C79,24.9,72.1,18.1,63.7,18.1z M63.7,46.8
					c-7.4,0-13.5-6-13.5-13.5s6-13.5,13.5-13.5c7.4,0,13.5,6,13.5,13.5S71.1,46.8,63.7,46.8z M63.7,18.1c-8.4,0-15.3,6.9-15.3,15.3
					c0,8.4,6.9,15.3,15.3,15.3c8.4,0,15.3-6.9,15.3-15.3C79,24.9,72.1,18.1,63.7,18.1z M63.7,46.8c-7.4,0-13.5-6-13.5-13.5
					s6-13.5,13.5-13.5c7.4,0,13.5,6,13.5,13.5S71.1,46.8,63.7,46.8z M63.7,18.1c-8.4,0-15.3,6.9-15.3,15.3c0,8.4,6.9,15.3,15.3,15.3
					c8.4,0,15.3-6.9,15.3-15.3C79,24.9,72.1,18.1,63.7,18.1z M63.7,46.8c-7.4,0-13.5-6-13.5-13.5s6-13.5,13.5-13.5
					c7.4,0,13.5,6,13.5,13.5S71.1,46.8,63.7,46.8z M63.7,18.1c-8.4,0-15.3,6.9-15.3,15.3c0,8.4,6.9,15.3,15.3,15.3
					c8.4,0,15.3-6.9,15.3-15.3C79,24.9,72.1,18.1,63.7,18.1z M63.7,46.8c-7.4,0-13.5-6-13.5-13.5s6-13.5,13.5-13.5
					c7.4,0,13.5,6,13.5,13.5S71.1,46.8,63.7,46.8z"/>
			</g>
		</g>
		<g>
			<g>
				<path class="st1" d="M93.2,39.4v-12c-1.3-0.5-3.1-1.2-4.9-1.9l-2.8-1.1l1.2-2.8c0.8-1.8,1.6-3.6,2.1-4.9l-2.3-2.3l-6.2-6.2
					c-1.3,0.6-3.1,1.3-4.9,2.1l-2.8,1.2l-1.1-2.8c-0.7-1.8-1.4-3.6-1.9-4.9h-12c-0.5,1.3-1.2,3.1-1.9,4.9l-1.1,2.8l-2.8-1.2
					c-1.8-0.8-3.6-1.6-4.9-2.1l-8.5,8.5c0.6,1.3,1.4,3.1,2.1,4.9l1.2,2.8L39,25.4c-1.8,0.7-3.7,1.4-5,1.9v12c1.3,0.5,3.1,1.2,5,1.9
					l2.8,1.1l-1.2,2.8c-0.8,1.8-1.6,3.6-2.1,4.9l8.5,8.5c1.3-0.6,3.1-1.3,4.9-2.1l2.8-1.2l1.1,2.8c0.7,1.8,1.4,3.6,1.9,4.9h12
					c0.5-1.3,1.2-3.1,1.9-4.9l1.1-2.8l2.8,1.2c1.8,0.8,3.6,1.6,4.9,2.1l8.5-8.5c-0.6-1.3-1.3-3.1-2.1-4.9l-1.2-2.8l2.8-1.1
					C90.1,40.6,91.9,39.9,93.2,39.4z M63.7,50.6c-9.5,0-17.2-7.7-17.2-17.2c0-9.5,7.7-17.3,17.2-17.3c9.5,0,17.3,7.7,17.3,17.3
					C80.9,42.9,73.2,50.6,63.7,50.6z"/>
			</g>
		</g>
	</g>
	<g>
		<g>
			<g>
				<path class="st0" d="M144.7,202.7l-0.3-0.1c-18.5-6.7-27.2-17.5-31.3-25.5c-4.5-8.6-4.5-15.6-4.5-15.9v-35.5l0.9-0.1
					c21.6-2.4,34.6-11.5,34.7-11.6l0.6-0.4l0.6,0.4c0.1,0.1,13.1,9.2,34.7,11.6l0.9,0.1v35.5c0,0.3-0.1,7.3-4.5,15.9
					c-4.1,7.9-12.9,18.8-31.3,25.5L144.7,202.7z M110.5,127.5v33.7c0,0.1,0.1,6.8,4.3,15c3.9,7.5,12.3,17.8,29.9,24.3
					c17.6-6.5,25.9-16.7,29.9-24.3c4.3-8.2,4.3-15,4.3-15v-33.7c-19.3-2.3-31.4-9.6-34.2-11.5C141.9,117.9,129.8,125.2,110.5,127.5z
					"/>
			</g>
		</g>
		<g>
			<g>
				<path class="st2" d="M144.7,198.1c-31.3-11.9-31.8-35.8-31.8-36.8v-31.7c16.4-2.3,27.6-8.2,31.8-10.7
					c4.3,2.6,15.4,8.4,31.8,10.7v31.7C176.5,162.3,175.9,186.2,144.7,198.1z"/>
			</g>
		</g>
		<g>
			<g>
				<path class="st0" d="M144.7,195.6l-0.4-0.1c-0.6-0.3-1.3-0.5-1.9-0.8l0.8-1.8c0.5,0.2,1,0.4,1.5,0.6c0.3-0.1,0.5-0.2,0.8-0.3
					l0.8,1.9c-0.4,0.2-0.8,0.3-1.2,0.5L144.7,195.6z M148.1,194.1l-0.8-1.8c0.6-0.3,1.2-0.6,1.8-0.9l0.9,1.8
					C149.3,193.5,148.7,193.8,148.1,194.1z M140.5,193.8c-0.6-0.3-1.2-0.6-1.8-0.9l0.9-1.8c0.6,0.3,1.2,0.6,1.8,0.9L140.5,193.8z
					 M151.8,192.3l-1-1.8c0.6-0.3,1.2-0.6,1.7-1l1,1.7C153,191.6,152.4,191.9,151.8,192.3z M136.9,191.9c-0.6-0.3-1.2-0.7-1.8-1
					l1-1.7c0.6,0.3,1.1,0.7,1.7,1L136.9,191.9z M155.3,190.2l-1.1-1.7c0.6-0.4,1.1-0.7,1.6-1.1l1.1,1.6
					C156.4,189.4,155.9,189.8,155.3,190.2z M133.4,189.8c-0.6-0.4-1.1-0.8-1.7-1.2l1.2-1.6c0.5,0.4,1.1,0.7,1.6,1.1L133.4,189.8z
					 M158.6,187.8l-1.2-1.6c0.5-0.4,1-0.8,1.5-1.2l1.3,1.5C159.7,187,159.2,187.4,158.6,187.8z M130.1,187.4
					c-0.5-0.4-1.1-0.9-1.6-1.3l1.3-1.5c0.5,0.4,1,0.8,1.5,1.2L130.1,187.4z M161.8,185.2l-1.4-1.5c0.5-0.4,1-0.9,1.4-1.4l1.4,1.4
					C162.8,184.3,162.3,184.8,161.8,185.2z M127,184.7c-0.5-0.5-1-1-1.5-1.4l1.4-1.4c0.5,0.5,0.9,0.9,1.4,1.4L127,184.7z
					 M164.7,182.3l-1.5-1.4c0.4-0.5,0.9-1,1.3-1.5l1.6,1.3C165.6,181.3,165.2,181.8,164.7,182.3z M124.1,181.8
					c-0.5-0.5-0.9-1-1.3-1.6l1.6-1.2c0.4,0.5,0.8,1,1.3,1.5L124.1,181.8z M167.3,179.1l-1.6-1.2c0.4-0.5,0.8-1.1,1.1-1.6l1.7,1.1
					C168.1,178,167.7,178.6,167.3,179.1z M121.5,178.5c-0.4-0.6-0.8-1.1-1.1-1.7l1.7-1.1c0.3,0.5,0.7,1.1,1.1,1.6L121.5,178.5z
					 M169.6,175.7l-1.7-1c0.3-0.6,0.6-1.1,0.9-1.7l1.8,0.9C170.3,174.5,169.9,175.1,169.6,175.7z M119.3,175c-0.3-0.6-0.7-1.2-1-1.8
					l1.8-0.9c0.3,0.6,0.6,1.2,0.9,1.7L119.3,175z M171.5,172l-1.8-0.8c0.3-0.6,0.5-1.2,0.7-1.8l1.9,0.7
					C172,170.7,171.8,171.4,171.5,172z M117.5,171.3c-0.3-0.6-0.5-1.3-0.7-1.9l1.9-0.7c0.2,0.6,0.4,1.2,0.7,1.8L117.5,171.3z
					 M172.9,168.1l-1.9-0.6c0.2-0.6,0.4-1.3,0.5-1.9l2,0.5C173.3,166.8,173.1,167.5,172.9,168.1z M116.2,167.4
					c-0.2-0.7-0.4-1.3-0.5-2l2-0.4c0.1,0.6,0.3,1.3,0.5,1.9L116.2,167.4z M173.9,164.1l-2-0.3c0.1-0.9,0.2-1.5,0.2-1.9l2,0.1
					C174.1,162.4,174,163.1,173.9,164.1z M115.3,163.3c-0.2-1.2-0.2-1.9-0.2-2.1l1-0.1h1c0,0.2,0,0.8,0.2,1.9L115.3,163.3z
					 M174.1,159.9h-2v-2h2V159.9z M117.2,159.2h-2v-2h2V159.2z M174.1,155.9h-2v-2h2V155.9z M117.2,155.1h-2v-2h2V155.1z
					 M174.1,151.8h-2v-2h2V151.8z M117.2,151.1h-2v-2h2V151.1z M174.1,147.8h-2v-2h2V147.8z M117.2,147.1h-2v-2h2V147.1z
					 M174.1,143.8h-2v-2h2V143.8z M117.2,143.1h-2v-2h2V143.1z M174.1,139.8h-2v-2h2V139.8z M117.2,139.1h-2v-2h2V139.1z
					 M174.1,135.8h-2v-2h2V135.8z M117.2,135h-2v-2h2V135z M172.3,133.3c-0.7-0.1-1.3-0.2-2-0.4l0.4-2c0.6,0.1,1.3,0.3,2,0.4
					L172.3,133.3z M117.8,133.2l-0.4-2c0.7-0.1,1.3-0.3,2-0.4l0.4,2C119.1,132.9,118.4,133.1,117.8,133.2z M168.3,132.5
					c-0.7-0.1-1.3-0.3-2-0.5l0.5-2c0.6,0.2,1.3,0.3,1.9,0.4L168.3,132.5z M121.8,132.4l-0.4-2c0.7-0.2,1.3-0.3,1.9-0.5l0.5,2
					C123.1,132.1,122.4,132.2,121.8,132.4z M164.3,131.6c-0.7-0.2-1.3-0.4-2-0.5l0.6-1.9c0.6,0.2,1.3,0.4,1.9,0.5L164.3,131.6z
					 M125.7,131.4l-0.5-1.9c0.7-0.2,1.3-0.4,1.9-0.5l0.6,1.9C127,131,126.4,131.2,125.7,131.4z M160.4,130.4
					c-0.7-0.2-1.3-0.4-1.9-0.6l0.6-1.9c0.6,0.2,1.2,0.4,1.9,0.6L160.4,130.4z M129.6,130.2l-0.6-1.9c0.6-0.2,1.3-0.4,1.9-0.6
					l0.7,1.9C130.9,129.8,130.2,130,129.6,130.2z M156.6,129.2c-0.7-0.2-1.3-0.5-1.9-0.7l0.7-1.9c0.6,0.2,1.2,0.5,1.9,0.7
					L156.6,129.2z M133.4,128.9l-0.7-1.9c0.6-0.2,1.3-0.5,1.9-0.7l0.7,1.9C134.7,128.4,134.1,128.7,133.4,128.9z M152.8,127.7
					c-0.6-0.3-1.3-0.5-1.9-0.8l0.8-1.8c0.6,0.3,1.2,0.5,1.8,0.8L152.8,127.7z M137.2,127.4l-0.8-1.9c0.6-0.3,1.2-0.5,1.8-0.8
					l0.8,1.8C138.5,126.9,137.9,127.1,137.2,127.4z M149,126.1c-0.6-0.3-1.3-0.6-1.8-0.9l0.9-1.8c0.6,0.3,1.2,0.6,1.8,0.9L149,126.1
					z M140.9,125.8l-0.9-1.8c0.6-0.3,1.2-0.6,1.8-0.9l0.9,1.8C142.2,125.2,141.6,125.5,140.9,125.8z M145.4,124.3
					c-0.3-0.1-0.5-0.3-0.7-0.4l-0.1,0l-0.1-0.1c-0.1-0.1-0.2-0.1-0.3-0.2l0.1-0.2l-0.7-1.2l1-0.6l0.5,0.3c0.4,0.2,0.8,0.4,1.2,0.6
					L145.4,124.3z"/>
			</g>
		</g>
		<g>
			<g>
				<polygon class="st0" points="142.4,201.8 48.1,201.8 48.1,77.4 168.2,77.4 168.2,124.5 166.2,124.5 166.2,79.4 50.1,79.4 
					50.1,199.8 142.4,199.8 				"/>
			</g>
		</g>
		<g>
			<g>
				<polygon class="st0" points="167.2,93.4 105.3,93.4 100.8,84.2 62.7,84.2 58.1,93.4 49.1,93.4 49.1,91.4 56.9,91.4 61.5,82.1 
					102.1,82.1 106.6,91.4 167.2,91.4 				"/>
			</g>
		</g>
		<g>
			<g>
				<path class="st0" d="M67.4,93.4c-2.1,0-3.8-1.7-3.8-3.8c0-2.1,1.7-3.8,3.8-3.8c2.1,0,3.8,1.7,3.8,3.8
					C71.1,91.7,69.5,93.4,67.4,93.4z M67.4,87.9c-1,0-1.7,0.8-1.7,1.7s0.8,1.7,1.7,1.7s1.7-0.8,1.7-1.7S68.3,87.9,67.4,87.9z"/>
			</g>
		</g>
		<g>
			<g>
				<path class="st0" d="M144.9,171.5c-4.1,0-7.5-3.4-7.5-7.5v-10.2c0-4.1,3.4-7.5,7.5-7.5c4.1,0,7.5,3.4,7.5,7.5V164
					C152.4,168.2,149,171.5,144.9,171.5z M144.9,148.4c-3,0-5.5,2.4-5.5,5.5V164c0,3,2.4,5.5,5.5,5.5c3,0,5.5-2.4,5.5-5.5v-10.2
					C150.4,150.9,147.9,148.4,144.9,148.4z"/>
			</g>
		</g>
		<g>
			<g>
				<path class="st0" d="M144.9,148.4c-2.8,0-5.1-2.3-5.1-5.1v-2c0-2.8,2.3-5.1,5.1-5.1s5.1,2.3,5.1,5.1v2
					C150,146.1,147.7,148.4,144.9,148.4z M144.9,138.3c-1.7,0-3.1,1.4-3.1,3.1v2c0,1.7,1.4,3.1,3.1,3.1c1.7,0,3.1-1.4,3.1-3.1v-2
					C148,139.6,146.6,138.3,144.9,138.3z"/>
			</g>
		</g>
		<g>
			<g>
				<rect x="151.4" y="158.1" class="st0" width="9.5" height="2"/>
			</g>
		</g>
		<g>
			<g>
				<rect x="128.7" y="158.1" class="st0" width="9.4" height="2"/>
			</g>
		</g>
		<g>
			<g>
				<polygon class="st0" points="138.2,152.3 134.2,152.3 127.9,144.4 129.5,143.1 135.2,150.3 138.2,150.3 				"/>
			</g>
		</g>
		<g>
			<g>
				<polygon class="st0" points="155.3,152.3 151.4,152.3 151.4,150.3 154.4,150.3 160.1,143.1 161.7,144.4 				"/>
			</g>
		</g>
		<g>
			<g>
				<polygon class="st0" points="160.1,174.8 154.4,167.6 151.4,167.6 151.4,165.6 155.3,165.6 161.7,173.5 				"/>
			</g>
		</g>
		<g>
			<g>
				<polygon class="st0" points="129.5,174.8 127.9,173.5 134.2,165.6 138.2,165.6 138.2,167.6 135.2,167.6 				"/>
			</g>
		</g>
		<g>
			<g>
				
					<rect x="140.8" y="133.5" transform="matrix(0.9038 -0.4279 0.4279 0.9038 -44.4543 73.7629)" class="st0" width="2" height="4.6"/>
			</g>
		</g>
		<g>
			<g>
				
					<rect x="144.8" y="134.8" transform="matrix(0.4279 -0.9038 0.9038 0.4279 -38.5594 210.6158)" class="st0" width="4.6" height="2"/>
			</g>
		</g>
		<g>
			<g>
				<rect x="143.9" y="147.4" class="st0" width="2" height="16.5"/>
			</g>
		</g>
		<g>
			<g>
				<rect x="113.5" y="99.9" class="st0" width="37.3" height="2"/>
			</g>
		</g>
		<g>
			<g>
				<rect x="102.9" y="107.3" class="st0" width="47.9" height="2"/>
			</g>
		</g>
		<g>
			<g>
				<path class="st0" d="M88.5,156.7H66.4V99.9h22.1V156.7z M68.5,154.7h18.1v-52.7H68.5V154.7z"/>
			</g>
		</g>
		<g>
			<g>
				<rect x="70.8" y="104.3" class="st3" width="13.4" height="48"/>
			</g>
		</g>
		<g>
			<g>
				<path class="st0" d="M88.5,186.8H66.4v-22.1h22.1V186.8z M68.5,184.8h18.1v-18.1H68.5V184.8z"/>
			</g>
		</g>
		<g>
			<g>
				<rect x="70.8" y="169.1" class="st4" width="13.4" height="13.4"/>
			</g>
		</g>
	</g>
	<path class="st5" d="M219.4,161.8c-12.9,47.2-56.1,81.9-107.3,81.9c-61.4,0-111.3-49.8-111.3-111.3c0-28.1,10.4-53.8,27.6-73.4"/>
	<path class="st5" d="M104.2,21.4c2.6-0.2,5.2-0.3,7.8-0.3c40.9,0,76.7,22.1,96,55"/>
	<g>
		<g>
			<path class="st0" d="M222.2,151l0-1.7c0.6,0,1.1,0,1.7-0.1l0.1,1.7C223.4,150.9,222.8,151,222.2,151z M220.4,151
				c-0.6,0-1.2,0-1.8-0.1l0.1-1.7c0.6,0,1.1,0.1,1.7,0.1L220.4,151z M225.8,150.7l-0.2-1.7c0.6-0.1,1.1-0.2,1.7-0.3l0.3,1.7
				C226.9,150.5,226.3,150.6,225.8,150.7z M216.9,150.7c-0.6-0.1-1.2-0.2-1.8-0.3l0.3-1.7c0.5,0.1,1.1,0.2,1.7,0.3L216.9,150.7z
				 M229.3,150.1l-0.4-1.7c0.5-0.1,1.1-0.3,1.6-0.4l0.5,1.7C230.4,149.8,229.8,149.9,229.3,150.1z M213.4,150
				c-0.6-0.1-1.2-0.3-1.7-0.5l0.5-1.7c0.5,0.2,1.1,0.3,1.6,0.4L213.4,150z M232.7,149l-0.6-1.6c0.5-0.2,1.1-0.4,1.6-0.6l0.7,1.6
				C233.8,148.6,233.2,148.8,232.7,149z M210,149c-0.6-0.2-1.1-0.4-1.7-0.7l0.7-1.6c0.5,0.2,1,0.4,1.6,0.6L210,149z M235.9,147.7
				l-0.8-1.6c0.5-0.2,1-0.5,1.5-0.8l0.8,1.5C237,147.1,236.5,147.4,235.9,147.7z M206.7,147.6c-0.5-0.3-1.1-0.5-1.6-0.8l0.8-1.5
				c0.5,0.3,1,0.5,1.5,0.8L206.7,147.6z M239,145.9l-0.9-1.5c0.5-0.3,0.9-0.6,1.4-0.9l1,1.4C240,145.3,239.5,145.6,239,145.9z
				 M203.6,145.9c-0.5-0.3-1-0.6-1.5-1l1-1.4c0.5,0.3,0.9,0.6,1.4,0.9L203.6,145.9z M242,143.9l-1.1-1.4c0.4-0.3,0.9-0.7,1.3-1.1
				l1.1,1.3C242.9,143.1,242.4,143.5,242,143.9z M200.7,143.8c-0.5-0.4-0.9-0.8-1.4-1.1l1.1-1.3c0.4,0.4,0.9,0.7,1.3,1.1
				L200.7,143.8z M244.6,141.6l-1.2-1.2c0.4-0.4,0.8-0.8,1.2-1.2l1.3,1.2C245.5,140.7,245.1,141.1,244.6,141.6z M198,141.5
				c-0.4-0.4-0.8-0.8-1.2-1.3l1.3-1.2c0.4,0.4,0.8,0.8,1.2,1.2L198,141.5z M247,138.9l-1.3-1.1c0.4-0.4,0.7-0.9,1-1.3l1.4,1
				C247.8,138,247.4,138.5,247,138.9z M195.6,138.9c-0.4-0.5-0.7-0.9-1.1-1.4l1.4-1c0.3,0.4,0.7,0.9,1,1.3L195.6,138.9z
				 M249.2,136.1l-1.4-1c0.3-0.5,0.6-0.9,0.9-1.4l1.5,0.9C249.8,135.1,249.5,135.6,249.2,136.1z M193.5,136c-0.3-0.5-0.6-1-0.9-1.5
				l1.5-0.9c0.3,0.5,0.6,1,0.9,1.4L193.5,136z M251,133l-1.5-0.8c0.3-0.5,0.5-1,0.7-1.5l1.6,0.7C251.5,132,251.3,132.5,251,133z
				 M191.7,132.9c-0.3-0.5-0.5-1.1-0.8-1.6l1.6-0.7c0.2,0.5,0.5,1,0.7,1.5L191.7,132.9z M252.5,129.8l-1.6-0.6
				c0.2-0.5,0.4-1.1,0.6-1.6l1.6,0.5C252.9,128.7,252.7,129.2,252.5,129.8z M190.2,129.7c-0.2-0.5-0.4-1.1-0.6-1.7l1.6-0.5
				c0.2,0.5,0.4,1.1,0.6,1.6L190.2,129.7z M253.6,126.4l-1.7-0.5c0.1-0.5,0.3-1.1,0.4-1.6l1.7,0.4
				C253.9,125.2,253.7,125.8,253.6,126.4z M189.1,126.3c-0.2-0.6-0.3-1.1-0.4-1.7l1.7-0.4c0.1,0.6,0.3,1.1,0.4,1.6L189.1,126.3z
				 M254.3,122.9l-1.7-0.3c0.1-0.6,0.2-1.1,0.2-1.7l1.7,0.2C254.5,121.7,254.4,122.3,254.3,122.9z M188.4,122.8
				c-0.1-0.6-0.2-1.2-0.2-1.8l1.7-0.2c0.1,0.6,0.1,1.1,0.2,1.7L188.4,122.8z M254.7,119.4l-1.7-0.1c0-0.6,0-1.1,0-1.7h1.7
				C254.8,118.2,254.7,118.8,254.7,119.4z M188,119.3c0-0.6,0-1.1,0-1.7v-0.1h1.7v0.1c0,0.5,0,1.1,0,1.6L188,119.3z M253,116.1
				c0-0.6-0.1-1.1-0.1-1.7l1.7-0.2c0.1,0.6,0.1,1.2,0.1,1.8L253,116.1z M189.8,115.8l-1.7-0.1c0-0.6,0.1-1.2,0.1-1.8l1.7,0.2
				C189.8,114.7,189.8,115.3,189.8,115.8z M252.6,112.7c-0.1-0.6-0.2-1.1-0.3-1.7l1.7-0.4c0.1,0.6,0.2,1.2,0.3,1.8L252.6,112.7z
				 M190.1,112.5l-1.7-0.3c0.1-0.6,0.2-1.2,0.3-1.7l1.7,0.4C190.3,111.4,190.2,111.9,190.1,112.5z M251.9,109.4
				c-0.1-0.5-0.3-1.1-0.5-1.6l1.6-0.5c0.2,0.6,0.4,1.1,0.5,1.7L251.9,109.4z M190.8,109.2l-1.7-0.5c0.2-0.6,0.3-1.1,0.5-1.7l1.6,0.5
				C191.2,108.1,191,108.7,190.8,109.2z M250.9,106.2c-0.2-0.5-0.4-1-0.6-1.6l1.6-0.7c0.2,0.5,0.5,1.1,0.7,1.6L250.9,106.2z
				 M191.9,106l-1.6-0.6c0.2-0.6,0.5-1.1,0.7-1.6l1.6,0.7C192.3,105,192.1,105.5,191.9,106z M249.5,103.1c-0.3-0.5-0.5-1-0.8-1.5
				l1.5-0.9c0.3,0.5,0.6,1,0.9,1.6L249.5,103.1z M193.3,102.9l-1.5-0.8c0.3-0.5,0.6-1.1,0.9-1.6l1.5,0.9
				C193.9,101.9,193.6,102.4,193.3,102.9z M247.8,100.2c-0.3-0.5-0.6-0.9-1-1.4l1.4-1c0.3,0.5,0.7,1,1,1.5L247.8,100.2z M195,100
				l-1.4-1c0.3-0.5,0.7-1,1-1.5l1.4,1C195.7,99.1,195.4,99.6,195,100z M245.8,97.5c-0.4-0.4-0.7-0.9-1.1-1.3l1.3-1.2
				c0.4,0.4,0.8,0.9,1.2,1.3L245.8,97.5z M197.1,97.3l-1.3-1.1c0.4-0.5,0.8-0.9,1.2-1.3l1.3,1.2C197.8,96.5,197.4,96.9,197.1,97.3z
				 M243.6,95c-0.4-0.4-0.8-0.8-1.2-1.2l1.1-1.3c0.4,0.4,0.9,0.8,1.3,1.2L243.6,95z M199.4,94.9l-1.2-1.2c0.4-0.4,0.9-0.8,1.3-1.2
				l1.1,1.3C200.2,94.1,199.8,94.5,199.4,94.9z M241,92.8c-0.4-0.3-0.9-0.7-1.3-1l1-1.4c0.5,0.3,1,0.7,1.4,1.1L241,92.8z
				 M201.9,92.6l-1.1-1.4c0.5-0.4,0.9-0.7,1.4-1.1l1,1.4C202.8,92,202.4,92.3,201.9,92.6z M238.3,90.8c-0.5-0.3-1-0.6-1.5-0.9
				l0.8-1.5c0.5,0.3,1,0.6,1.5,0.9L238.3,90.8z M204.7,90.7l-0.9-1.5c0.5-0.3,1-0.6,1.5-0.9l0.8,1.5
				C205.6,90.1,205.1,90.4,204.7,90.7z M235.3,89.2c-0.5-0.2-1-0.5-1.5-0.7l0.7-1.6c0.5,0.2,1.1,0.5,1.6,0.7L235.3,89.2z
				 M207.6,89.1l-0.8-1.6c0.5-0.3,1.1-0.5,1.6-0.7l0.7,1.6C208.6,88.6,208.1,88.8,207.6,89.1z M232.2,87.9c-0.5-0.2-1.1-0.4-1.6-0.5
				l0.5-1.7c0.6,0.2,1.1,0.4,1.7,0.6L232.2,87.9z M210.7,87.8l-0.6-1.6c0.6-0.2,1.1-0.4,1.7-0.6l0.5,1.7
				C211.8,87.4,211.3,87.6,210.7,87.8z M229,86.9c-0.5-0.1-1.1-0.3-1.6-0.4l0.3-1.7c0.6,0.1,1.2,0.2,1.7,0.4L229,86.9z M214,86.8
				l-0.4-1.7c0.6-0.1,1.2-0.3,1.7-0.4l0.3,1.7C215.1,86.6,214.5,86.7,214,86.8z M225.7,86.3c-0.6-0.1-1.1-0.1-1.7-0.2l0.1-1.7
				c0.6,0,1.2,0.1,1.8,0.2L225.7,86.3z M217.3,86.2l-0.2-1.7c0.6-0.1,1.2-0.1,1.8-0.2l0.1,1.7C218.4,86.1,217.8,86.2,217.3,86.2z
				 M222.3,86c-0.6,0-1.1,0-1.7,0l0-1.7c0.6,0,1.2,0,1.8,0L222.3,86z"/>
		</g>
	</g>
	<g>
		<g>
			<g>
				<path class="st4" d="M241.8,108.9c-2.9-8.8-11.3-15-20.8-15c-10.2,0-19.2,7.3-21.4,17.3l-0.6,2.6l6.7,1.4l0.6-2.6
					c1.5-6.9,7.6-11.8,14.7-11.8c6.5,0,12.3,4.3,14.3,10.4l-5.1,1.7l11,5l5.3-10.7L241.8,108.9z"/>
			</g>
		</g>
		<g>
			<g>
				<path class="st4" d="M236.2,121.2l-0.7,2.5c-1.9,6.3-7.8,10.8-14.4,10.8c-5.9,0-11.2-3.5-13.6-8.7l5-1.8l-11.1-5l-2,4.1l-0.1,0
					l0,0.1l-3.2,6.5l4.8-1.7c3.4,7.9,11.3,13.3,20.1,13.3c9.6,0,18.3-6.4,21-15.7l0.7-2.5L236.2,121.2z"/>
			</g>
		</g>
	</g>
</g>
</svg>
