<?xml version="1.0" encoding="utf-8"?>
<!-- Generator: Adobe Illustrator 23.0.3, SVG Export Plug-In . SVG Version: 6.00 Build 0)  -->
<svg version="1.1" id="layer_1" xmlns="http://www.w3.org/2000/svg" xmlns:xlink="http://www.w3.org/1999/xlink" x="0px" y="0px"
	 viewBox="0 0 237.6 337.2" style="enable-background:new 0 0 237.6 337.2;" xml:space="preserve">
<style type="text/css">
	.st0{fill:#310078;}
	.st1{fill:#EDC9BE;}
	.st2{fill:#B7C8DC;}
	.st3{fill:url(#SVGID_1_);}
	.st4{fill:#51D7F5;}
	.st5{fill:#90E4FF;}
	.st6{fill:url(#SVGID_2_);}
	.st7{fill:#42E4FF;}
	.st8{fill:#3E85FF;}
	.st9{fill:#F1CDC2;}
	.st10{fill:url(#SVGID_3_);}
	.st11{fill:url(#SVGID_4_);}
	.st12{fill:#D1EBFF;}
	.st13{fill:#FF5E92;}
	.st14{fill:#8EE2F7;}
	.st15{fill:#C5ECFF;}
	.st16{fill:#FF5E99;}
</style>
<g>
	<g>
		<g>
			<polygon class="st0" points="125.4,337.2 132.3,337.2 97.8,193.9 90.9,193.9 			"/>
			<polygon class="st0" points="6.9,337.2 0,337.2 34.5,193.9 41.4,193.9 			"/>
			<path class="st0" d="M30.7,199.1H105c2.9,0,5.2-2.3,5.2-5.2l0,0c0-2.9-2.3-5.2-5.2-5.2H30.7c-2.9,0-5.2,2.3-5.2,5.2l0,0
				C25.6,196.7,27.9,199.1,30.7,199.1z"/>
			
				<rect x="29" y="229.6" transform="matrix(-1 4.486355e-11 -4.486355e-11 -1 133.1378 467.1932)" class="st0" width="75.1" height="8.1"/>
			
				<rect x="20.7" y="268.1" transform="matrix(-1 4.495681e-11 -4.495681e-11 -1 135.7169 544.3261)" class="st0" width="94.3" height="8.1"/>
			
				<rect x="12.7" y="301.2" transform="matrix(-1 4.486666e-11 -4.486666e-11 -1 133.838 610.5224)" class="st0" width="108.5" height="8.1"/>
		</g>
	</g>
	<g>
		<path class="st1" d="M82.2,58.8c-0.9-2.8-1.5-4.7-1.3-5c0.7-1,1.4-5.6,1.3-6.2c-0.1-0.6,1.3-3.2-0.1-2.8c-1.4,0.4-1.4,4.4-2.6,3.3
			c-4-3.6-5.5-7.2-6.4-7.8c-0.9-0.6-1.3,0.6-1.3,0.6c-0.2-0.4-1.2-1.7-1.8-1.1c-0.5,0.5,0,1.9,0,1.9s-1-0.1-1.2,0.4
			C68.4,43,69.4,44,69.4,44c-0.5,0.1-0.8,1.3-0.8,1.9c0.1,1.2,7,8.1,7.2,8.7c0.1,0.2,0.5,3,1.1,7.1C79,60.6,80.3,60,82.2,58.8z"/>
		<path class="st2" d="M72.6,105.3c-4.1-1.3,3.2-23.5,3.8-25.5c0.6-2-0.3-19.7-0.8-21c-0.4-1.3,6.8-3.6,6.8-3.6s5.6,20.6,5.5,25.2
			C87.8,85,85.7,109.4,72.6,105.3z"/>
		<g>
			
				<linearGradient id="SVGID_1_" gradientUnits="userSpaceOnUse" x1="145.6006" y1="78.8566" x2="158.6933" y2="78.8566" gradientTransform="matrix(-1 0 0 1 259.1221 0)">
				<stop  offset="0" style="stop-color:#42E4FF"/>
				<stop  offset="1" style="stop-color:#3E85FF"/>
			</linearGradient>
			<path class="st3" d="M113.4,77.4c-0.8-3.5-4.3-5.7-7.8-4.9c-3.5,0.8-5.7,4.3-4.9,7.8c0.8,3.5,4.3,5.7,7.8,4.9
				C111.9,84.4,114.2,80.9,113.4,77.4z"/>
			<path class="st4" d="M123.4,105.5L123.4,105.5c-2.5,0.6-4.9-1-5.5-3.4l-10.2-19.7l11.3-2.6l7.8,20.3
				C127.4,102.5,125.9,104.9,123.4,105.5z"/>
			<polygon class="st5" points="161.3,85 130.5,82.4 126.7,65.6 153.4,50 			"/>
			
				<linearGradient id="SVGID_2_" gradientUnits="userSpaceOnUse" x1="136.7149" y1="87.5293" x2="149.1112" y2="87.5293" gradientTransform="matrix(-1 0 0 1 259.1221 0)">
				<stop  offset="0" style="stop-color:#42E4FF"/>
				<stop  offset="1" style="stop-color:#3E85FF"/>
			</linearGradient>
			<path class="st6" d="M121.5,87.5l-10.1,2.3c-0.6,0.1-1.2-0.2-1.4-0.9l0,0c-0.1-0.6,0.2-1.2,0.9-1.4l10.1-2.3
				c0.6-0.1,1.2,0.2,1.4,0.9l0,0C122.5,86.8,122.1,87.4,121.5,87.5z"/>
			<path class="st7" d="M161.7,86.6L161.7,86.6c-1.1,0.3-2.2-0.5-2.5-1.6l-7.7-34.3c-0.3-1.1,0.5-2.2,1.6-2.5l0,0
				c1.1-0.3,2.2,0.5,2.5,1.6l7.7,34.3C163.5,85.3,162.8,86.4,161.7,86.6z"/>
			<path class="st7" d="M129.2,83.8l-17.4,3.9c-2.8,0.6-5.5-1.1-6.1-3.9l-2-8.9c-0.6-2.8,1.1-5.5,3.9-6.1l17.4-3.9
				c2.8-0.6,5.5,1.1,6.1,3.9l2,8.9C133.6,80.4,131.9,83.1,129.2,83.8z"/>
		</g>
		<path class="st8" d="M33.8,254c0,0-2.2,0.1-3.2,1.7c-1.1,1.5,4.1,12.3,6.7,12.9c2.6,0.5,7.8,0.1,8.3-0.4c0.5-0.5-3.6-3-4.5-3.7
			c-0.9-0.7-2.6-9.2-2.6-9.2L33.8,254z"/>
		<path class="st9" d="M76.7,76.4c0,0,2.4,2.2,3.6,3.5c1.2,1.3,2.7,1.8,2.6,2.3c0,0.5-1.2,1.5-1.2,1.5s1.1,7.1-0.7,9.5
			c-1.9,2.4-7.6,3-10.8,1.8c-3.1-1.2-5.8-14-5.8-14S73.1,73.8,76.7,76.4z"/>
		<g>
			<path class="st8" d="M70.9,257.6c0,0-2.1,0.7-2.7,2.5c-0.6,1.8,7.2,10.9,9.8,10.7c2.6-0.1,7.6-1.9,7.9-2.5c0.3-0.6-4.2-2-5.3-2.5
				c-1-0.4-4.9-8.2-4.9-8.2L70.9,257.6z"/>
			<path class="st8" d="M68.2,260.1c0,0-0.7,7.9-0.3,9.8l1.2,0.2c0,0,1.6-6.8,1.8-7.8C71,261.4,68.2,260.1,68.2,260.1z"/>
		</g>
		<path class="st9" d="M75.7,92.4c0,0,1.5,7.1,3.7,9.3c2.2,2.2-5,1.5-5,1.5l-6.5-8.8L75.7,92.4z"/>
		<path class="st9" d="M76.3,253.5c0,0,9.1-57.7,10.1-64.7c1-7,2.3-37.3,0.3-40.4c-2-3.1-28.2-0.3-28.2-0.3l-2.7-0.4
			c0,0-3.7,12.3-5.1,31.6c-0.9,12-1.8,38.2-3.3,40.6c-1.5,2.4-10.1,23.5-11.2,27.1l-2.5,6.9c0,0,4.9,9.9,5.6,9.3
			c0.7-0.7-0.9-7.9-0.9-7.9l2.3-5.7l0,0c0,0,13.4-19.2,16.1-25.7c2.8-6.5,9.7-42.9,9.7-42.9l2.9,0.3c0,0,0.3,41.2,0.3,46
			c0.1,4.8,1.5,26.1,1.5,26.1l-0.4,4.3c0,0,7.2,8.4,7.8,7.5c0.5-0.8-2.9-7.4-2.9-7.4L76.3,253.5L76.3,253.5z"/>
		<path class="st8" d="M55.9,148.2c0,0-5.7,2.1-5.9,20.5c-0.3,18.3,0.7,29.9-11.2,43.2c0,0,15.8,11.4,53.4,6.5
			c0,0-7.4-26.9-2.1-43.9c3.4-10.7-5.4-32.5-8.5-38C78.6,130.9,55.9,148.2,55.9,148.2z"/>
		<path class="st8" d="M30.6,255.7c0,0-2.7,7.5-2.8,9.4l1.1,0.5c0,0,3.3-6.2,3.7-7.1C33,257.7,30.6,255.7,30.6,255.7z"/>
		<path class="st1" d="M127.3,94c-1.2-0.1-4.3,3.1-3.5,2.5c0.7-0.7,2.6-2.6,2.2-3c-0.4-0.4-0.9,0-2.3,1.1c-1.4,1-4.2,3.8-4.3,3.6
			c-0.1-0.1,1.1-1.6,1.5-1.9c0.5-0.3,2-2.3,1.3-2.3c-0.7,0.1-3.2,1.9-4.8,2.9c-1.5,0.9-2.6,3.7-3.4,5.5c-0.4,0.9-1,1.7-1.8,2.4
			c-1.2,0.9-3.1,2.4-4.5,3.5c-2.2,1.6,3.2,6.1,3.2,6.1s3-3.2,4.7-5.3c0.8-0.9,1.8-1.6,2.9-1.9c3.4-1.1,3.9-2.1,5.1-3.3
			c1.5-1.5,4.7-5.6,4.2-5.9c-0.5-0.3-1.3,0.6-2.2,1.5c1.4-1.4,2.6-3.6,2-3.6c-0.5,0-1.8,1.2-2.8,2.1C126.4,96.3,128.4,94,127.3,94z"
			/>
		<path class="st5" d="M86.2,142.3c-3.5-11.1,0.1-15.3,1.9-19.8c1.4-3.4-3.5-15.5-8.7-20.8c0,0-2,0.9-7.5-1.4
			c-0.1,0-0.1-0.1-0.2-0.1c-5.2,2.8-11.6,10.8-12,20C59.4,130.9,52,151,52,151c9.8,4.1,39.9,3.6,39.9,3.6S88.1,148.4,86.2,142.3z"/>
		<path class="st2" d="M71,108.5c0.4-4.1,5.3-5.1,13.1-1.2c7.8,3.9,12,5.8,14,6c2,0.2,12.4-7.8,13.6-8.4c1.1-0.6,4.6,4.8,4.6,4.8
			s-9.6,12.6-14,13.4C98,123.8,69.6,121.5,71,108.5z"/>
		
			<linearGradient id="SVGID_3_" gradientUnits="userSpaceOnUse" x1="177.6324" y1="97.4028" x2="223.6781" y2="97.4028" gradientTransform="matrix(-1 0 0 1 259.1221 0)">
			<stop  offset="0" style="stop-color:#FF8373"/>
			<stop  offset="1" style="stop-color:#FF296D"/>
		</linearGradient>
		<path class="st10" d="M50.8,82.6c4.1-2.9,6.8-4.7,7.5-7.7c1.2-4.9,6.5-5.8,10.3-6c3-0.1,8-4.3,11.7-1.3c1.4,1.1,1.6,3.2-0.6,6.6
			c-0.7,1.1-1.5,1.7-2.2,2.1c-1,0.5-1.8,1.3-2.4,2.2c-0.4,0.7-0.9,1.3-1.6,1.9c-2.9,2.4-2.9,5.4-1.1,7c1.8,1.6,0.5,5.3-0.5,7.2
			c-2,3.5,5.3,6.2,2.7,9.7c-2.5,3.5-6.4,5.2-6.7,11c-0.5,8.7-9.6,12.2-16.4,12.8c-8.2,0.7-18.9-7.1-15.6-17.8
			c4-13.1,12.5-14.1,11.8-17C47.2,90.5,46.7,85.5,50.8,82.6z"/>
	</g>
	<g>
		<g>
			<g>
				
					<linearGradient id="SVGID_4_" gradientUnits="userSpaceOnUse" x1="60.7386" y1="276.774" x2="102.0753" y2="276.774" gradientTransform="matrix(-1 0 0 1 259.1221 0)">
					<stop  offset="0" style="stop-color:#42E4FF"/>
					<stop  offset="1" style="stop-color:#3E85FF"/>
				</linearGradient>
				<path class="st11" d="M157,284c0.5,7,4.2,13.4,13.4,15.4c0,0,20.4,5.3,22-15.4c0-0.2,0-0.3,0-0.5c-2-0.3-4.3-1.6-4.1-3.8
					c0.2-2.2,2.8-3.5,4.7-2.8c0.2-1.7,0.4-3.3,0.6-4.7c-0.8-0.3-1.5-1-1.4-1.9c0.1-1,1-1.4,1.9-1.4c1.8-10.3,4-15.1,4-15.1
					s-11.5,2.8-21.4,5.8c0.4,1.4,0.2,2.8-1,3.6c-1.9,1.2-3.9,0-4.7-1.8c-2.1,0.7-3.9,1.4-5.4,2.1c-3.6,1.6-7.1,7.3-8.4,13.8
					c1.9,0.5,3.6,1.5,3.7,3.6C161.4,283.2,159.1,284.2,157,284z M170.4,265.4c0-0.1,0.1-0.2,0.2-0.4c0,0,0-0.1,0.1-0.1c0,0,0,0,0,0
					c0,0,0,0,0,0c0.2-0.2,0.4-0.3,0.7-0.2c0.2,0.1,0.3,0.2,0.4,0.3c0.1,0.1,0.2,0.2,0.2,0.3c0,0.3-0.1,0.5-0.3,0.6
					c-0.1,0.1-0.1,0.1-0.2,0.1c-0.2,0.1-0.4,0.1-0.6,0C170.5,266.1,170.3,265.7,170.4,265.4z"/>
				<path class="st12" d="M167.8,291.2C167.8,291.1,167.8,291.1,167.8,291.2c0-0.1,0.1-0.1,0.1-0.2c0.8-1.7,1.7-3.4,2.6-5
					c-2.9-3.8-2.9-10.5-2.9-10.8c0-0.5,0.4-0.9,0.9-0.9c0.5,0,0.9,0.4,0.9,0.9c0,0.1,0,5.6,2.1,9c1.3-2.3,2.7-4.4,4-6.4
					c0.2-0.3,0.5-0.7,0.7-1c-1.2-5,1.2-9.9,1.3-10.1c0.2-0.4,0.8-0.6,1.2-0.4c0.4,0.2,0.6,0.8,0.4,1.2c0,0-1.6,3.4-1.4,7.1
					c5.6-8,10.7-13.4,10.8-13.4c0.3-0.4,0.9-0.4,1.3,0c0.4,0.3,0.4,0.9,0,1.3c-0.1,0.1-6.8,7.3-13.4,17.3c3.2,0.2,7.5-2.4,9-3.5
					c0.4-0.3,1-0.2,1.3,0.2c0.3,0.4,0.2,1-0.2,1.3c-0.3,0.2-6.5,4.6-11.2,3.7c-1.9,3-3.7,6.1-5.3,9.4c5,1.5,10.9-2.3,11-2.3
					c0.4-0.3,1-0.2,1.2,0.3c0.3,0.4,0.2,1-0.3,1.2c-0.1,0.1-1.9,1.2-4.4,2.1c-3.1,1.1-5.9,1.2-8.3,0.4c-3.1,6.6-5.3,13.5-5.5,20.2
					c0,0.5-0.4,0.9-0.9,0.9c-0.1,0-0.2,0-0.3-0.1c-0.4-0.1-0.6-0.5-0.6-0.9C162.1,305.5,164.6,298,167.8,291.2z"/>
			</g>
			<g>
				<path class="st13" d="M163.5,270.4c-5.6-9.9-29.4-13.3-29.4-13.3c2.3,4.9,2.1,12.3,3.1,31.2c0.9,16.3,20.6,11.5,20.6,11.5
					C165.5,299.2,171.4,284.3,163.5,270.4z"/>
				<path class="st12" d="M144.9,278.9c0.3-0.3,0.8-0.2,1,0.1c1,1.2,4,4,6.6,4.4c-3.4-9.2-7.4-16.1-7.5-16.2c-0.2-0.3-0.1-0.8,0.3-1
					c0.3-0.2,0.8-0.1,1,0.3c0,0.1,3.1,5.3,6.1,12.7c0.9-2.9,0.2-5.9,0.2-5.9c-0.1-0.4,0.2-0.8,0.5-0.9c0.4-0.1,0.8,0.2,0.9,0.5
					c0,0.2,1,4.5-0.8,8.2c0.1,0.3,0.2,0.6,0.4,0.9c0.7,1.8,1.4,3.7,2,5.8c2.3-2.4,3.3-6.7,3.3-6.8c0.1-0.4,0.5-0.6,0.9-0.6
					c0.4,0.1,0.6,0.5,0.6,0.9c0,0.2-1.2,5.5-4.3,8c0.4,1.4,0.8,2.9,1.1,4.4c0,0,0,0.1,0,0.1c0,0,0,0.1,0,0.1c1.3,6,2,12.5,0.8,18.3
					c-0.1,0.3-0.3,0.5-0.6,0.6c-0.1,0-0.2,0-0.2,0c-0.4-0.1-0.7-0.5-0.6-0.9c1.1-5.4,0.6-11.3-0.7-17.1c-2,0.2-4.3-0.4-6.5-1.8
					c-1.9-1.2-3.1-2.4-3.2-2.5c-0.3-0.3-0.3-0.8,0-1c0.3-0.3,0.8-0.3,1,0c0.1,0.1,4.1,4.2,8.3,3.9c-0.7-2.9-1.6-5.8-2.5-8.5
					c-3.9-0.1-8-4.8-8.2-5C144.5,279.6,144.6,279.2,144.9,278.9z"/>
			</g>
			<path class="st14" d="M149.4,337.2H168c1.5,0,2.8-1.3,3.1-3l3.8-26h-32.3l3.8,26C146.6,335.9,147.9,337.2,149.4,337.2z"/>
			<path class="st7" d="M142.7,312.8h31.9c1.7,0,3-2.1,3-4.6l0,0c0-2.5-1.3-4.6-3-4.6h-31.9c-1.7,0-3,2.1-3,4.6l0,0
				C139.7,310.7,141.1,312.8,142.7,312.8z"/>
		</g>
	</g>
	<path class="st15" d="M225,105.5l3.8-1.2c-0.6-2.1-0.7-4.1-0.2-4.8c0.1-0.1,0.2-0.3,1-0.3c0.1,0,0.2,0,0.3,0c4.7,0,7.1-4.1,7.7-6.3
		l-3.8-1.1l1.9,0.6l-1.9-0.6c0,0.1-1.1,3.5-4,3.4c-2.3-0.1-3.6,0.9-4.3,1.8C223.6,99.6,224.4,103.4,225,105.5z"/>
	<path class="st16" d="M203.7,77.9c1,0,1.9-0.3,2.4-0.6l-2-3.5l0.1,0c-0.1,0-1.4,0.6-3.5-1.4c-1.5-1.4-3-2.1-4.5-2
		c-2.3,0.1-3.8,1.9-4.8,3.1l-0.1,0.1l3.1,2.5l0.1-0.1c0.5-0.7,1.4-1.7,1.9-1.7c0.1,0,0.6,0,1.5,0.9C200,77.2,202.1,77.9,203.7,77.9z
		"/>
	<path class="st15" d="M203.7,39l3.5-1.9c-0.8-1.5-0.2-3.7,0.1-4.4l-3.7-1.6C203.5,31.2,201.7,35.4,203.7,39z"/>
	<path class="st16" d="M181.1,9.6c2.5-5.3-0.8-9.4-0.9-9.6l-3.1,2.5c0.1,0.1,1.8,2.4,0.4,5.4L181.1,9.6z"/>
	<path class="st7" d="M158.7,27.5c0.3-0.4,2.5-3.9,1.1-7c-0.9-1.9-2.9-3.1-5.9-3.5l-0.5,4c1.5,0.2,2.4,0.6,2.7,1.2
		c0.4,0.9-0.4,2.5-0.8,3.1L158.7,27.5z"/>
</g>
</svg>
