<?xml version="1.0" encoding="utf-8"?>
<!-- Generator: Adobe Illustrator 23.0.3, SVG Export Plug-In . SVG Version: 6.00 Build 0)  -->
<svg version="1.1" id="Layer_1" xmlns="http://www.w3.org/2000/svg" xmlns:xlink="http://www.w3.org/1999/xlink" x="0px" y="0px"
	 viewBox="0 0 82.2 76" style="enable-background:new 0 0 82.2 76;" xml:space="preserve">
<style type="text/css">
	.st0{fill:#71CCE0;}
	.st1{fill:#4A555F;}
	.st2{fill:#F58E6F;}
	.st3{fill:#FFD452;}
</style>
<g>
	<g>
		<g>
			<g>
				<path class="st0" d="M65.4,31.1c-0.9,0.4-1.9,0.8-2.8,1.3c-1-0.5-1.9-0.9-2.8-1.3c0.2-1.3,0.5-2.4,0.8-3.4
					c0.9-2.8,1.8-3.4,2-3.4c0.1,0,1.1,0.6,2,3.4C64.9,28.7,65.2,29.9,65.4,31.1z"/>
			</g>
		</g>
		<g>
			<g>
				<path class="st0" d="M65.4,45.1c-0.2,1.3-0.5,2.4-0.8,3.4c-0.9,2.8-1.8,3.4-2,3.4c-0.1,0-1.1-0.6-2-3.4c-0.3-1-0.6-2.2-0.8-3.5
					c0.9-0.4,1.8-0.8,2.8-1.3C63.6,44.3,64.5,44.7,65.4,45.1z"/>
			</g>
		</g>
		<g>
			<g>
				<path class="st0" d="M58,32.1c-0.1,1-0.2,2.1-0.3,3.2c-0.9,0.6-1.7,1.2-2.4,1.8c-1-0.9-1.9-1.7-2.7-2.6c-2-2.2-2-3.3-1.9-3.5
					c0-0.1,0.4-0.3,1.4-0.3C53.6,30.7,55.7,31.3,58,32.1z"/>
			</g>
		</g>
		<g>
			<g>
				<path class="st0" d="M74.5,45.2c0,0.1-0.4,0.3-1.4,0.3c-1.5,0-3.6-0.5-5.9-1.4c0.1-1,0.2-2.1,0.3-3.2c0.9-0.6,1.7-1.2,2.4-1.8
					c1,0.9,1.9,1.7,2.7,2.6C74.6,43.9,74.6,45,74.5,45.2z"/>
			</g>
		</g>
		<g>
			<g>
				<g>
					<path class="st0" d="M65.4,31.1c-0.9,0.4-1.9,0.8-2.8,1.3c-1-0.5-1.9-0.9-2.8-1.3c0.2-1.3,0.5-2.4,0.8-3.4
						c0.9-2.8,1.8-3.4,2-3.4c0.1,0,1.1,0.6,2,3.4C64.9,28.7,65.2,29.9,65.4,31.1z"/>
				</g>
			</g>
			<g>
				<g>
					<path class="st0" d="M65.4,45.1c-0.2,1.3-0.5,2.4-0.8,3.4c-0.9,2.8-1.8,3.4-2,3.4c-0.1,0-1.1-0.6-2-3.4c-0.3-1-0.6-2.2-0.8-3.5
						c0.9-0.4,1.8-0.8,2.8-1.3C63.6,44.3,64.5,44.7,65.4,45.1z"/>
				</g>
			</g>
			<g>
				<g>
					<path class="st0" d="M58,32.1c-0.1,1-0.2,2.1-0.3,3.2c-0.9,0.6-1.7,1.2-2.4,1.8c-1-0.9-1.9-1.7-2.7-2.6c-2-2.2-2-3.3-1.9-3.5
						c0-0.1,0.4-0.3,1.4-0.3C53.6,30.7,55.7,31.3,58,32.1z"/>
				</g>
			</g>
			<g>
				<g>
					<path class="st0" d="M74.5,45.2c0,0.1-0.4,0.3-1.4,0.3c-1.5,0-3.6-0.5-5.9-1.4c0.1-1,0.2-2.1,0.3-3.2c0.9-0.6,1.7-1.2,2.4-1.8
						c1,0.9,1.9,1.7,2.7,2.6C74.6,43.9,74.6,45,74.5,45.2z"/>
				</g>
			</g>
			<g>
				<g>
					<path class="st0" d="M58,44.1c-2.3,0.9-4.4,1.4-5.9,1.4c0,0,0,0,0,0c-1,0-1.4-0.2-1.5-0.3c-0.1-0.1,0-1.2,1.9-3.5
						c0.7-0.8,1.6-1.7,2.7-2.6c0.8,0.6,1.6,1.2,2.4,1.8C57.8,42,57.9,43.1,58,44.1z"/>
				</g>
			</g>
			<g>
				<g>
					<path class="st0" d="M72.6,34.5c-0.7,0.8-1.7,1.7-2.7,2.6c-0.8-0.6-1.6-1.2-2.4-1.8c-0.1-1.1-0.2-2.2-0.3-3.2
						c2.3-0.9,4.4-1.4,5.9-1.4c1,0,1.4,0.2,1.5,0.3C74.6,31.2,74.6,32.3,72.6,34.5z"/>
				</g>
			</g>
		</g>
		<g>
			<g>
				<path class="st0" d="M58,44.1c-2.3,0.9-4.4,1.4-5.9,1.4c0,0,0,0,0,0c-1,0-1.4-0.2-1.5-0.3c-0.1-0.1,0-1.2,1.9-3.5
					c0.7-0.8,1.6-1.7,2.7-2.6c0.8,0.6,1.6,1.2,2.4,1.8C57.8,42,57.9,43.1,58,44.1z"/>
			</g>
		</g>
		<g>
			<g>
				<path class="st0" d="M72.6,34.5c-0.7,0.8-1.7,1.7-2.7,2.6c-0.8-0.6-1.6-1.2-2.4-1.8c-0.1-1.1-0.2-2.2-0.3-3.2
					c2.3-0.9,4.4-1.4,5.9-1.4c1,0,1.4,0.2,1.5,0.3C74.6,31.2,74.6,32.3,72.6,34.5z"/>
			</g>
		</g>
	</g>
	<g>
		<g>
			<g>
				<path class="st1" d="M27.1,26.4H0v-8.9h27.1V26.4z M0.9,25.5h25.2v-7H0.9V25.5z"/>
			</g>
		</g>
		<g>
			<g>
				<rect x="13.5" y="19.6" class="st0" width="11.5" height="4.8"/>
			</g>
		</g>
		<g>
			<g>
				<path class="st1" d="M27.1,34.3H0v-8.8h27.1V34.3z M0.9,33.4h25.2v-7H0.9V33.4z"/>
			</g>
		</g>
		<g>
			<g>
				<rect x="13.5" y="27.5" class="st0" width="11.5" height="4.7"/>
			</g>
		</g>
		<g>
			<g>
				<path class="st1" d="M27.1,42.2H0v-8.8h27.1V42.2z M0.9,41.3h25.2v-7H0.9V41.3z"/>
			</g>
		</g>
		<g>
			<g>
				<rect x="13.5" y="35.4" class="st0" width="11.5" height="4.7"/>
			</g>
		</g>
		<g>
			<g>
				<path class="st1" d="M27.1,50.2H0v-8.9h27.1V50.2z M0.9,49.3h25.2v-7H0.9V49.3z"/>
			</g>
		</g>
		<g>
			<g>
				<rect x="13.5" y="43.3" class="st0" width="11.5" height="4.8"/>
			</g>
		</g>
		<g>
			<g>
				<path class="st1" d="M4.4,23.4C3.6,23.4,3,22.7,3,22c0-0.8,0.6-1.4,1.4-1.4s1.4,0.6,1.4,1.4C5.8,22.7,5.2,23.4,4.4,23.4z
					 M4.4,21.5c-0.3,0-0.5,0.2-0.5,0.5c0,0.3,0.2,0.5,0.5,0.5s0.5-0.2,0.5-0.5C4.9,21.7,4.7,21.5,4.4,21.5z"/>
			</g>
		</g>
		<g>
			<g>
				<path class="st1" d="M23.3,23.4c-0.8,0-1.4-0.6-1.4-1.4c0-0.8,0.6-1.4,1.4-1.4c0.8,0,1.4,0.6,1.4,1.4
					C24.7,22.7,24.1,23.4,23.3,23.4z M23.3,21.5c-0.3,0-0.5,0.2-0.5,0.5c0,0.3,0.2,0.5,0.5,0.5c0.3,0,0.5-0.2,0.5-0.5
					C23.8,21.7,23.6,21.5,23.3,21.5z"/>
			</g>
		</g>
		<g>
			<g>
				<path class="st1" d="M4.4,31.4c-0.8,0-1.4-0.6-1.4-1.4c0-0.8,0.6-1.4,1.4-1.4s1.4,0.6,1.4,1.4C5.8,30.7,5.2,31.4,4.4,31.4z
					 M4.4,29.5c-0.3,0-0.5,0.2-0.5,0.5c0,0.3,0.2,0.5,0.5,0.5s0.5-0.2,0.5-0.5C4.9,29.7,4.7,29.5,4.4,29.5z"/>
			</g>
		</g>
		<g>
			<g>
				<path class="st1" d="M23.3,31.4c-0.8,0-1.4-0.6-1.4-1.4c0-0.8,0.6-1.4,1.4-1.4c0.8,0,1.4,0.6,1.4,1.4
					C24.7,30.7,24.1,31.4,23.3,31.4z M23.3,29.5c-0.3,0-0.5,0.2-0.5,0.5c0,0.3,0.2,0.5,0.5,0.5c0.3,0,0.5-0.2,0.5-0.5
					C23.8,29.7,23.6,29.5,23.3,29.5z"/>
			</g>
		</g>
		<g>
			<g>
				<path class="st1" d="M4.4,39.2c-0.8,0-1.4-0.6-1.4-1.4c0-0.8,0.6-1.4,1.4-1.4s1.4,0.6,1.4,1.4C5.8,38.6,5.2,39.2,4.4,39.2z
					 M4.4,37.3c-0.3,0-0.5,0.2-0.5,0.5c0,0.3,0.2,0.5,0.5,0.5s0.5-0.2,0.5-0.5C4.9,37.5,4.7,37.3,4.4,37.3z"/>
			</g>
		</g>
		<g>
			<g>
				<path class="st1" d="M23.3,39.2c-0.8,0-1.4-0.6-1.4-1.4c0-0.8,0.6-1.4,1.4-1.4c0.8,0,1.4,0.6,1.4,1.4
					C24.7,38.6,24.1,39.2,23.3,39.2z M23.3,37.3c-0.3,0-0.5,0.2-0.5,0.5c0,0.3,0.2,0.5,0.5,0.5c0.3,0,0.5-0.2,0.5-0.5
					C23.8,37.5,23.6,37.3,23.3,37.3z"/>
			</g>
		</g>
		<g>
			<g>
				<path class="st1" d="M4.4,47.2c-0.8,0-1.4-0.6-1.4-1.4c0-0.8,0.6-1.4,1.4-1.4s1.4,0.6,1.4,1.4C5.8,46.5,5.2,47.2,4.4,47.2z
					 M4.4,45.3c-0.3,0-0.5,0.2-0.5,0.5c0,0.3,0.2,0.5,0.5,0.5s0.5-0.2,0.5-0.5C4.9,45.5,4.7,45.3,4.4,45.3z"/>
			</g>
		</g>
		<g>
			<g>
				<path class="st1" d="M23.3,47.2c-0.8,0-1.4-0.6-1.4-1.4c0-0.8,0.6-1.4,1.4-1.4c0.8,0,1.4,0.6,1.4,1.4
					C24.7,46.5,24.1,47.2,23.3,47.2z M23.3,45.3c-0.3,0-0.5,0.2-0.5,0.5c0,0.3,0.2,0.5,0.5,0.5c0.3,0,0.5-0.2,0.5-0.5
					C23.8,45.5,23.6,45.3,23.3,45.3z"/>
			</g>
		</g>
	</g>
	<g>
		<g>
			<path class="st1" d="M27.1,59.3H0v-3.4h27.1V59.3z M0.9,58.3h25.2v-1.5H0.9V58.3z"/>
		</g>
	</g>
	<g>
		<g>
			<g>
				<g>
					<path class="st1" d="M7.1,55h-3v-5.7h3V55z M5,54h1.2v-3.8H5V54z"/>
				</g>
			</g>
			<g>
				<g>
					<path class="st1" d="M8.1,56.8H3v-0.5c0-0.9,0.5-1.8,1.4-2.3L4.5,54h2.2l0.1,0.1c0.8,0.4,1.4,1.3,1.4,2.3V56.8z M4,55.9h3.1
						C7,55.5,6.8,55.2,6.4,55H4.7C4.4,55.2,4.1,55.5,4,55.9z"/>
				</g>
			</g>
		</g>
		<g>
			<g>
				<g>
					<path class="st1" d="M23,55h-3v-5.7h3V55z M20.9,54h1.2v-3.8h-1.2V54z"/>
				</g>
			</g>
			<g>
				<g>
					<path class="st1" d="M24.1,56.8H19v-0.5c0-0.9,0.5-1.8,1.4-2.3l0.1-0.1h2.2l0.1,0.1c0.8,0.4,1.4,1.3,1.4,2.3V56.8z M20,55.9
						h3.1c-0.1-0.4-0.4-0.7-0.7-0.9h-1.7C20.3,55.2,20.1,55.5,20,55.9z"/>
				</g>
			</g>
		</g>
	</g>
	<g>
		<g>
			<polygon class="st1" points="63.1,15.9 62.1,15.9 62.1,7 13.9,7 13.9,14.4 13,14.4 13,6.1 63.1,6.1 			"/>
		</g>
	</g>
	<g>
		<g>
			<polygon class="st1" points="63.1,69.9 13,69.9 13,61.6 13.9,61.6 13.9,69 62.1,69 62.1,60.1 63.1,60.1 			"/>
		</g>
	</g>
	<g>
		<g>
			<path class="st1" d="M62.6,57.7c-0.2,0-0.5,0-0.7,0l0-0.9c0.2,0,0.5,0,0.7,0l0.2,0l0,0.9L62.6,57.7z M63.8,57.6l-0.1-0.9
				c0.3,0,0.6,0,0.9-0.1l0.1,0.9C64.4,57.6,64.1,57.6,63.8,57.6z M60.9,57.6c-0.3,0-0.6-0.1-0.9-0.1l0.1-0.9c0.3,0,0.6,0.1,0.9,0.1
				L60.9,57.6z M65.7,57.4l-0.1-0.9c0.3,0,0.6-0.1,0.9-0.2l0.2,0.9C66.3,57.3,66,57.4,65.7,57.4z M59,57.4c-0.3-0.1-0.6-0.1-0.9-0.2
				l0.2-0.9c0.3,0.1,0.6,0.1,0.9,0.2L59,57.4z M67.5,57.1l-0.2-0.9c0.3-0.1,0.6-0.2,0.9-0.2l0.3,0.9C68.2,56.9,67.8,57,67.5,57.1z
				 M57.2,56.9c-0.3-0.1-0.6-0.2-0.9-0.3l0.3-0.9c0.3,0.1,0.6,0.2,0.9,0.3L57.2,56.9z M69.4,56.5L69,55.6c0.3-0.1,0.6-0.2,0.8-0.3
				l0.4,0.9C70,56.3,69.7,56.4,69.4,56.5z M55.4,56.3c-0.3-0.1-0.6-0.2-0.9-0.4l0.4-0.8c0.3,0.1,0.6,0.2,0.8,0.4L55.4,56.3z
				 M71.1,55.7l-0.4-0.8c0.3-0.1,0.5-0.3,0.8-0.4l0.4,0.8C71.7,55.5,71.4,55.6,71.1,55.7z M53.6,55.5c-0.3-0.1-0.6-0.3-0.8-0.5
				l0.5-0.8c0.3,0.2,0.5,0.3,0.8,0.4L53.6,55.5z M72.8,54.8L72.3,54c0.3-0.2,0.5-0.3,0.8-0.5l0.5,0.8C73.3,54.5,73,54.7,72.8,54.8z
				 M52,54.5c-0.3-0.2-0.5-0.4-0.8-0.5l0.5-0.8c0.2,0.2,0.5,0.3,0.8,0.5L52,54.5z M74.4,53.8L73.8,53c0.2-0.2,0.5-0.4,0.7-0.6
				l0.6,0.7C74.9,53.4,74.6,53.6,74.4,53.8z M50.4,53.4c-0.2-0.2-0.5-0.4-0.7-0.6l0.6-0.7c0.2,0.2,0.5,0.4,0.7,0.6L50.4,53.4z
				 M75.8,52.5l-0.6-0.7c0.2-0.2,0.4-0.4,0.7-0.6l0.7,0.7C76.3,52.1,76.1,52.3,75.8,52.5z M49,52.2c-0.2-0.2-0.5-0.4-0.7-0.7
				l0.7-0.6c0.2,0.2,0.4,0.4,0.6,0.6L49,52.2z M77.2,51.2l-0.7-0.6c0.2-0.2,0.4-0.5,0.6-0.7l0.7,0.6C77.6,50.7,77.4,50.9,77.2,51.2z
				 M47.7,50.8c-0.2-0.2-0.4-0.5-0.6-0.7l0.7-0.6c0.2,0.2,0.4,0.5,0.6,0.7L47.7,50.8z M78.4,49.7l-0.7-0.6c0.2-0.2,0.4-0.5,0.5-0.7
				l0.8,0.5C78.7,49.2,78.6,49.5,78.4,49.7z M46.5,49.3c-0.2-0.3-0.4-0.5-0.5-0.8l0.8-0.5c0.2,0.3,0.3,0.5,0.5,0.8L46.5,49.3z
				 M79.4,48.1l-0.8-0.5c0.2-0.3,0.3-0.5,0.4-0.8l0.8,0.4C79.7,47.6,79.6,47.8,79.4,48.1z M45.5,47.7c-0.2-0.3-0.3-0.6-0.4-0.8
				l0.8-0.4c0.1,0.3,0.3,0.5,0.4,0.8L45.5,47.7z M80.3,46.4L79.5,46c0.1-0.3,0.3-0.6,0.4-0.8l0.9,0.4C80.6,45.9,80.5,46.1,80.3,46.4
				z M44.7,46c-0.1-0.3-0.2-0.6-0.4-0.9l0.9-0.3c0.1,0.3,0.2,0.6,0.3,0.8L44.7,46z M81,44.7l-0.9-0.3c0.1-0.3,0.2-0.6,0.3-0.9
				l0.9,0.3C81.3,44.1,81.2,44.4,81,44.7z M44,44.2c-0.1-0.3-0.2-0.6-0.3-0.9l0.9-0.2c0.1,0.3,0.2,0.6,0.3,0.9L44,44.2z M81.6,42.8
				l-0.9-0.2c0.1-0.3,0.1-0.6,0.2-0.9l0.9,0.2C81.7,42.2,81.7,42.5,81.6,42.8z M43.5,42.3c-0.1-0.3-0.1-0.6-0.2-0.9l0.9-0.2
				c0.1,0.3,0.1,0.6,0.2,0.9L43.5,42.3z M82,41L81,40.8c0-0.3,0.1-0.6,0.1-0.9l0.9,0.1C82,40.3,82,40.6,82,41z M43.2,40.5
				c0-0.3-0.1-0.6-0.1-0.9l0.9-0.1c0,0.3,0.1,0.6,0.1,0.9L43.2,40.5z M82.1,39.1l-0.9,0c0-0.3,0-0.6,0-0.9c0-0.3,0-0.6,0-0.8l0.9,0
				c0,0.3,0,0.6,0,0.9C82.2,38.4,82.2,38.8,82.1,39.1z M43,38.6c0-0.1,0-0.3,0-0.4c0-0.2,0-0.3,0-0.5l0.9,0c0,0.2,0,0.3,0,0.5
				c0,0.1,0,0.3,0,0.4L43,38.6z M44,36.7l-0.9-0.1c0-0.3,0.1-0.6,0.1-0.9l0.9,0.1C44.1,36.1,44,36.4,44,36.7z M81.2,36.4
				c0-0.3-0.1-0.6-0.1-0.9l0.9-0.1c0,0.3,0.1,0.6,0.1,0.9L81.2,36.4z M44.2,34.9l-0.9-0.2c0.1-0.3,0.1-0.6,0.2-0.9l0.9,0.2
				C44.3,34.3,44.3,34.6,44.2,34.9z M80.9,34.6c-0.1-0.3-0.1-0.6-0.2-0.9l0.9-0.2c0.1,0.3,0.1,0.6,0.2,0.9L80.9,34.6z M44.6,33.1
				l-0.9-0.2c0.1-0.3,0.2-0.6,0.3-0.9l0.9,0.3C44.8,32.6,44.7,32.9,44.6,33.1z M80.5,32.8c-0.1-0.3-0.2-0.6-0.3-0.9l0.9-0.3
				c0.1,0.3,0.2,0.6,0.3,0.9L80.5,32.8z M45.2,31.4l-0.9-0.3c0.1-0.3,0.2-0.6,0.4-0.9l0.9,0.4C45.4,30.9,45.3,31.1,45.2,31.4z
				 M79.9,31.1c-0.1-0.3-0.2-0.6-0.4-0.8l0.8-0.4c0.1,0.3,0.3,0.6,0.4,0.9L79.9,31.1z M45.9,29.8l-0.8-0.4c0.1-0.3,0.3-0.6,0.4-0.8
				l0.8,0.5C46.2,29.2,46.1,29.5,45.9,29.8z M79.1,29.4c-0.1-0.3-0.3-0.5-0.4-0.8l0.8-0.5c0.2,0.3,0.3,0.6,0.5,0.8L79.1,29.4z
				 M46.8,28.2L46,27.7c0.2-0.3,0.3-0.5,0.5-0.8l0.8,0.5C47.2,27.7,47,27.9,46.8,28.2z M78.2,27.9c-0.2-0.3-0.3-0.5-0.5-0.7l0.8-0.5
				c0.2,0.3,0.4,0.5,0.5,0.8L78.2,27.9z M47.9,26.7l-0.7-0.6c0.2-0.3,0.4-0.5,0.6-0.7l0.7,0.6C48.3,26.2,48.1,26.4,47.9,26.7z
				 M77.1,26.4c-0.2-0.2-0.4-0.5-0.6-0.7l0.7-0.6c0.2,0.2,0.4,0.5,0.6,0.7L77.1,26.4z M49.1,25.3l-0.7-0.6c0.2-0.2,0.4-0.5,0.7-0.7
				l0.6,0.7C49.5,24.9,49.3,25.1,49.1,25.3z M75.9,25.1c-0.2-0.2-0.4-0.4-0.7-0.6l0.6-0.7c0.2,0.2,0.5,0.4,0.7,0.7L75.9,25.1z
				 M50.4,24l-0.6-0.7c0.2-0.2,0.5-0.4,0.7-0.6l0.6,0.7C50.8,23.7,50.6,23.9,50.4,24z M74.6,23.8c-0.2-0.2-0.5-0.4-0.7-0.6l0.6-0.7
				c0.3,0.2,0.5,0.4,0.7,0.6L74.6,23.8z M51.8,22.9l-0.5-0.8c0.3-0.2,0.5-0.4,0.8-0.5l0.5,0.8C52.3,22.6,52,22.8,51.8,22.9z
				 M73.1,22.7c-0.3-0.2-0.5-0.3-0.8-0.5l0.5-0.8c0.3,0.2,0.5,0.3,0.8,0.5L73.1,22.7z M53.3,21.9l-0.5-0.8c0.3-0.2,0.6-0.3,0.8-0.5
				l0.4,0.8C53.9,21.6,53.6,21.8,53.3,21.9z M71.6,21.8c-0.3-0.1-0.5-0.3-0.8-0.4l0.4-0.8c0.3,0.1,0.6,0.3,0.8,0.4L71.6,21.8z
				 M54.9,21.1l-0.4-0.8c0.3-0.1,0.6-0.3,0.9-0.4l0.3,0.9C55.5,20.9,55.2,21,54.9,21.1z M69.9,21c-0.3-0.1-0.6-0.2-0.8-0.3l0.3-0.9
				c0.3,0.1,0.6,0.2,0.9,0.4L69.9,21z M56.6,20.5l-0.3-0.9c0.3-0.1,0.6-0.2,0.9-0.3l0.3,0.9C57.2,20.3,56.9,20.4,56.6,20.5z
				 M68.2,20.3c-0.3-0.1-0.6-0.2-0.9-0.3l0.2-0.9c0.3,0.1,0.6,0.2,0.9,0.3L68.2,20.3z M58.4,20l-0.2-0.9c0.3-0.1,0.6-0.1,0.9-0.2
				l0.2,0.9C59,19.8,58.7,19.9,58.4,20z M66.5,19.9c-0.3-0.1-0.6-0.1-0.9-0.2l0.1-0.9c0.3,0.1,0.6,0.1,0.9,0.2L66.5,19.9z
				 M60.2,19.6L60,18.7c0.3,0,0.6-0.1,0.9-0.1l0.1,0.9C60.8,19.6,60.5,19.6,60.2,19.6z M64.7,19.6c-0.3,0-0.6-0.1-0.9-0.1l0.1-0.9
				c0.3,0,0.6,0,1,0.1L64.7,19.6z M62,19.5l0-0.9c0.3,0,0.6,0,1,0l0,0.9C62.6,19.5,62.3,19.5,62,19.5z"/>
		</g>
	</g>
	<g>
		<g>
			<g>
				<path class="st1" d="M62.6,54c-1.6,0-2.9-1.7-4-4.8c-1-3-1.5-6.9-1.5-11.1c0-4.2,0.5-8.1,1.5-11.1c1-3.2,2.4-4.8,4-4.8
					c1.6,0,2.9,1.7,4,4.8c1,3,1.5,6.9,1.5,11.1c0,4.2-0.5,8.1-1.5,11.1C65.5,52.3,64.2,54,62.6,54z M62.6,23.1
					c-1.1,0-2.2,1.6-3.1,4.2c-0.9,2.9-1.4,6.7-1.4,10.8c0,4.1,0.5,7.9,1.4,10.8c0.8,2.6,2,4.2,3.1,4.2s2.2-1.6,3.1-4.2
					c0.9-2.9,1.4-6.7,1.4-10.8c0-4.1-0.5-7.9-1.4-10.8C64.8,24.7,63.7,23.1,62.6,23.1z"/>
			</g>
		</g>
		<g>
			<g>
				<path class="st1" d="M73.1,47.5c-3.2,0-8.3-1.8-13.2-4.7c-3.6-2.1-6.7-4.6-8.8-6.9c-2.2-2.5-3-4.5-2.2-5.9
					c0.5-0.9,1.6-1.3,3.2-1.3c3.2,0,8.3,1.8,13.2,4.7c3.6,2.1,6.7,4.6,8.8,6.9c2.2,2.5,3,4.5,2.2,5.9C75.8,47.1,74.7,47.5,73.1,47.5
					z M52.1,29.6c-0.9,0-2,0.1-2.4,0.9c-0.5,0.9,0.2,2.7,2,4.8c2,2.3,5,4.6,8.5,6.7c4.8,2.8,9.7,4.6,12.8,4.6c0.9,0,2-0.1,2.4-0.9
					c0.5-0.9-0.2-2.7-2-4.8c-2-2.3-5-4.6-8.5-6.7C60.1,31.4,55.2,29.6,52.1,29.6z"/>
			</g>
		</g>
		<g>
			<g>
				<path class="st1" d="M52.1,47.5C52.1,47.5,52.1,47.5,52.1,47.5c-1.6,0-2.7-0.4-3.2-1.3c-0.8-1.4,0-3.4,2.2-5.9
					c2.1-2.3,5.2-4.8,8.8-6.9c4.9-2.9,10-4.7,13.2-4.7c1.6,0,2.7,0.4,3.2,1.3c0.8,1.4,0,3.4-2.2,5.9c-2.1,2.3-5.2,4.8-8.8,6.9
					C60.4,45.7,55.3,47.5,52.1,47.5z M73.1,29.7c-3.1,0-8,1.8-12.8,4.6c-3.5,2.1-6.6,4.4-8.6,6.7c-1.8,2.1-2.6,3.8-2.1,4.8
					c0.4,0.7,1.6,0.9,2.4,0.9c3.1,0,8-1.8,12.8-4.6c3.5-2.1,6.6-4.4,8.6-6.7c1.8-2.1,2.6-3.8,2.1-4.8C75.1,29.8,74,29.7,73.1,29.7z"
					/>
			</g>
		</g>
	</g>
	<g>
		<g>
			<ellipse transform="matrix(0.2298 -0.9732 0.9732 0.2298 11.4302 90.0416)" class="st2" cx="62.6" cy="37.8" rx="2.6" ry="2.6"/>
		</g>
	</g>
	<g>
		<g>
			<circle class="st3" cx="38" cy="6.5" r="6.5"/>
		</g>
	</g>
	<g>
		<g>
			<ellipse transform="matrix(0.5257 -0.8507 0.8507 0.5257 -41.046 65.2968)" class="st3" cx="38" cy="69.5" rx="6.5" ry="6.5"/>
		</g>
	</g>
	<g>
		<g>
			<polygon class="st1" points="40,73.2 34.8,69.5 39.9,65.3 40.5,66.1 36.3,69.4 40.5,72.5 			"/>
		</g>
	</g>
	<g>
		<g>
			<polygon class="st1" points="35.8,10.5 35.3,9.8 39.5,6.4 35.3,3.3 35.8,2.6 41,6.4 			"/>
		</g>
	</g>
</g>
</svg>
