<?xml version="1.0" encoding="utf-8"?>
<!-- Generator: Adobe Illustrator 23.0.3, SVG Export Plug-In . SVG Version: 6.00 Build 0)  -->
<svg version="1.1" id="Layer_1" xmlns="http://www.w3.org/2000/svg" xmlns:xlink="http://www.w3.org/1999/xlink" x="0px" y="0px"
	 viewBox="0 0 75.7 76" style="enable-background:new 0 0 75.7 76;" xml:space="preserve">
<style type="text/css">
	.st0{fill:#4A555F;}
	.st1{fill:#71CCE0;}
	.st2{fill:#F58E6F;}
	.st3{fill:#FFD452;}
</style>
<g>
	<g>
		<g>
			<g>
				<path class="st0" d="M24.5,75.8h-24L0,75.3v-38l0.3-0.4l4.4-1.5v-2l0.5-0.5h14.5l0.5,0.5v2l4.4,1.5l0.3,0.4v38L24.5,75.8z
					 M0.9,74.8H24V37.6l-4.4-1.5l-0.3-0.4v-1.9H5.7v1.9l-0.3,0.4l-4.4,1.5V74.8z"/>
			</g>
		</g>
		<g>
			<g>
				<polygon class="st1" points="18.2,36.9 18.2,34.9 6.8,34.9 6.8,36.9 4.3,37.7 4.3,73.7 20.8,73.7 20.8,37.7 				"/>
			</g>
		</g>
		<g>
			<g>
				<rect x="5.5" y="39.2" class="st0" width="13.1" height="0.9"/>
			</g>
		</g>
		<g>
			<g>
				<rect x="5.5" y="42.6" class="st0" width="13.1" height="0.9"/>
			</g>
		</g>
		<g>
			<g>
				<rect x="5.5" y="46.1" class="st0" width="13.1" height="0.9"/>
			</g>
		</g>
		<g>
			<g>
				<rect x="5.5" y="49.5" class="st0" width="13.1" height="0.9"/>
			</g>
		</g>
		<g>
			<g>
				<polygon class="st0" points="13.1,58.6 9.4,58.6 9.1,58.5 6.3,56.3 0.5,56.3 0.5,55.4 6.4,55.4 6.7,55.5 9.6,57.7 13.1,57.7 
									"/>
			</g>
		</g>
		<g>
			<g>
				<polygon class="st0" points="15.7,58.6 12.1,58.6 12.1,57.7 15.5,57.7 18.4,55.5 18.7,55.4 24.6,55.4 24.6,56.3 18.8,56.3 
					16,58.5 				"/>
			</g>
		</g>
		<g>
			<g>
				<path class="st0" d="M12.5,66.8c-1.5,0-2.8-1.2-2.8-2.8c0-1.5,1.2-2.8,2.8-2.8c1.5,0,2.8,1.2,2.8,2.8
					C15.3,65.5,14,66.8,12.5,66.8z M12.5,62.1c-1,0-1.8,0.8-1.8,1.8c0,1,0.8,1.8,1.8,1.8c1,0,1.8-0.8,1.8-1.8
					C14.3,63,13.5,62.1,12.5,62.1z"/>
			</g>
		</g>
		<g>
			<g>
				<path class="st2" d="M13.5,64c0,0.6-0.5,1.1-1.1,1.1c-0.6,0-1.1-0.5-1.1-1.1c0-0.6,0.5-1.1,1.1-1.1C13.1,62.9,13.5,63.4,13.5,64
					z"/>
			</g>
		</g>
		<g>
			<g>
				<rect x="2.2" y="36.3" class="st0" width="0.9" height="39"/>
			</g>
		</g>
		<g>
			<g>
				<rect x="21.8" y="36.3" class="st0" width="0.9" height="39"/>
			</g>
		</g>
	</g>
	<g>
		<g>
			<path class="st0" d="M35.2,25.2c-3.6,0-6.5-2.9-6.5-6.5c0-1.7,0.7-3.4,1.9-4.6c1.2-1.2,2.9-1.9,4.6-1.9c1,0,1.9,0.2,2.7,0.6
				c0,0,0-0.1,0-0.1c0-3.4,1.3-6.5,3.7-8.9C44,1.3,47.1,0,50.5,0c5.4,0,10.1,3.3,11.9,8.3c1.3-0.7,2.8-1.1,4.3-1.1c5,0,9,4,9,9
				c0,2.4-0.9,4.7-2.6,6.4c-1.7,1.7-3.9,2.6-6.3,2.6L35.2,25.2z M35.2,13.1c-3.1,0-5.6,2.5-5.6,5.6c0,3.1,2.5,5.6,5.6,5.6v0.5l0-0.5
				l31.5-0.1c2.1,0,4.2-0.8,5.7-2.4c1.5-1.5,2.3-3.5,2.3-5.7c0-4.4-3.6-8-8-8c-1.6,0-3.1,0.4-4.4,1.3l-0.5,0.3l-0.2-0.6
				c-1.5-4.9-6-8.2-11.1-8.2c-3.1,0-6.1,1.2-8.3,3.4c-2.2,2.2-3.4,5.1-3.4,8.2c0,0.3,0,0.6,0,0.9l0.1,0.9L38.2,14
				C37.3,13.4,36.3,13.1,35.2,13.1z"/>
		</g>
	</g>
	<g>
		<g>
			<polygon class="st0" points="8,28.8 7.1,28.8 7.1,10.3 29.9,10.3 29.9,11.3 8,11.3 			"/>
		</g>
	</g>
	<g>
		<g>
			<g>
				<polygon class="st0" points="26.9,13.8 26.3,13.1 29.2,10.8 26.3,8.5 26.9,7.8 30.7,10.8 				"/>
			</g>
		</g>
	</g>
	<g>
		<g>
			<g>
				<polygon class="st0" points="14.8,29.5 11.8,25.8 12.5,25.2 14.8,28 17.1,25.2 17.8,25.8 				"/>
			</g>
		</g>
	</g>
	<g>
		<g>
			<g>
				<polygon class="st0" points="52.4,39 49.4,35.2 50.1,34.6 52.4,37.5 54.7,34.6 55.4,35.2 				"/>
			</g>
		</g>
	</g>
	<g>
		<g>
			<rect x="51.9" y="28.4" class="st0" width="0.9" height="9.8"/>
		</g>
	</g>
	<g>
		<g>
			<g>
				<path class="st0" d="M52.4,76c-9.2,0-16.7-7.5-16.7-16.7s7.5-16.7,16.7-16.7c9.2,0,16.7,7.5,16.7,16.7S61.6,76,52.4,76z
					 M52.4,43.6c-8.7,0-15.7,7.1-15.7,15.7s7.1,15.7,15.7,15.7c8.7,0,15.7-7.1,15.7-15.7S61.1,43.6,52.4,43.6z"/>
			</g>
		</g>
		<g>
			<g>
				<path class="st3" d="M52.4,73.5c-7.8,0-14.2-6.3-14.2-14.2c0-7.8,6.3-14.2,14.2-14.2c7.8,0,14.2,6.3,14.2,14.2
					C66.5,67.1,60.2,73.5,52.4,73.5z"/>
			</g>
		</g>
		<g>
			<g>
				<path class="st0" d="M52.4,68.3c-9.2,0-16.7-4-16.7-9c0-4.9,7.5-9,16.7-9c9.2,0,16.7,4,16.7,9C69.1,64.2,61.6,68.3,52.4,68.3z
					 M52.4,51.3c-8.7,0-15.7,3.6-15.7,8c0,4.4,7.1,8,15.7,8c8.7,0,15.7-3.6,15.7-8C68.1,54.9,61.1,51.3,52.4,51.3z"/>
			</g>
		</g>
		<g>
			<g>
				<path class="st0" d="M52.4,76c-4.6,0-8.2-7.3-8.2-16.7s3.6-16.7,8.2-16.7c4.6,0,8.2,7.3,8.2,16.7S57,76,52.4,76z M52.4,43.6
					c-3.9,0-7.2,7.2-7.2,15.7s3.3,15.7,7.2,15.7c3.9,0,7.2-7.2,7.2-15.7S56.3,43.6,52.4,43.6z"/>
			</g>
		</g>
		<g>
			<g>
				<rect x="36.2" y="58.8" class="st0" width="32.4" height="0.9"/>
			</g>
		</g>
		<g>
			<g>
				<rect x="51.9" y="43.1" class="st0" width="0.9" height="32.4"/>
			</g>
		</g>
	</g>
	<g>
		<g>
			<path class="st0" d="M59.7,14.6H45.1V9.5h14.5V14.6z M46.1,13.6h12.6v-3.2H46.1V13.6z"/>
		</g>
	</g>
	<g>
		<g>
			<rect x="52.4" y="10.8" class="st1" width="6" height="2.5"/>
		</g>
	</g>
	<g>
		<g>
			<path class="st0" d="M59.7,18.7H45.1v-5.1h14.5V18.7z M46.1,17.8h12.6v-3.2H46.1V17.8z"/>
		</g>
	</g>
	<g>
		<g>
			<rect x="52.4" y="14.9" class="st1" width="6" height="2.5"/>
		</g>
	</g>
	<g>
		<g>
			<circle class="st0" cx="47.6" cy="12.1" r="1"/>
		</g>
	</g>
	<g>
		<g>
			<path class="st0" d="M57.5,13c-0.5,0-1-0.4-1-1c0-0.5,0.4-1,1-1c0.5,0,1,0.4,1,1C58.4,12.6,58,13,57.5,13z"/>
		</g>
	</g>
	<g>
		<g>
			<path class="st0" d="M47.6,17.1c-0.5,0-1-0.4-1-1c0-0.5,0.4-1,1-1c0.5,0,1,0.4,1,1C48.6,16.7,48.2,17.1,47.6,17.1z"/>
		</g>
	</g>
	<g>
		<g>
			<path class="st0" d="M57.5,17.1c-0.5,0-1-0.4-1-1c0-0.5,0.4-1,1-1c0.5,0,1,0.4,1,1C58.4,16.7,58,17.1,57.5,17.1z"/>
		</g>
	</g>
	<g>
		<g>
			<path class="st0" d="M54.2,20.9h-3.7v-3.1h3.7V20.9z M51.5,20h1.8v-1.2h-1.8V20z"/>
		</g>
	</g>
	<g>
		<g>
			<path class="st0" d="M59.7,22.4H45.1V20h14.5V22.4z M46.1,21.5h12.6v-0.6H46.1V21.5z"/>
		</g>
	</g>
	<g>
		<g>
			<polygon class="st0" points="15.3,28.4 14.3,28.4 14.3,18.2 24.5,18.2 24.5,19.2 15.3,19.2 			"/>
		</g>
	</g>
</g>
</svg>
