<?xml version="1.0" encoding="utf-8"?>
<!-- Generator: Adobe Illustrator 23.0.3, SVG Export Plug-In . SVG Version: 6.00 Build 0)  -->
<svg version="1.1" id="Layer_1" xmlns="http://www.w3.org/2000/svg" xmlns:xlink="http://www.w3.org/1999/xlink" x="0px" y="0px"
	 viewBox="0 0 34 34" style="enable-background:new 0 0 34 34;" xml:space="preserve">
<style type="text/css">
	.st0{opacity:0.2;fill:#0E1F35;}
	.st1{fill:#0E1F35;}
	.st2{fill:none;}
</style>
<g>
	<path class="st0" d="M25.1,14c-5,0-10.6,2.2-13.1,4.9V34c0.5,0,1-0.2,1.2-0.5c6.3-8,15.1-9.1,18.1-13.7C33.4,16.6,30.6,14,25.1,14z
		"/>
	<path class="st1" d="M22,9.9c-0.1,7.7-8.1,9.7-9.1,23.3c0,0.4-0.4,0.8-0.9,0.8c-0.5,0-0.9-0.3-0.9-0.8C10.1,19.6,2,17.8,2,9.9
		C2,4.5,6.5,0,12,0S22,4.5,22,9.9z"/>
	<rect class="st2" width="34" height="34"/>
</g>
</svg>
