<?xml version="1.0" encoding="utf-8"?>
<!-- Generator: Adobe Illustrator 22.1.0, SVG Export Plug-In . SVG Version: 6.00 Build 0)  -->
<svg version="1.1" id="Layer_1" xmlns="http://www.w3.org/2000/svg" xmlns:xlink="http://www.w3.org/1999/xlink" x="0px" y="0px"
	 viewBox="0 0 218.3 38.9" style="enable-background:new 0 0 218.3 38.9;" xml:space="preserve">
<style type="text/css">
	.st0{fill:#000000;}
	.st1{fill:#11af27;}
	.st2{fill:#11af27;}
</style>
<title>logo</title>
<g>
	<g>
		<polygon class="st0" points="23.9,14.7 10.4,14.7 10.4,0.2 0,10.6 0,38.1 10.4,38.1 10.4,23.9 23.9,23.9 23.9,38.1 34.9,38.1 
			34.9,0.2 23.9,0.2 		"/>
		<path class="st0" d="M70.5,4.8C62.6-2,51-2,43.1,4.8c-3.9,3.4-5.8,8.1-5.8,14.3c0,6.1,1.9,10.9,5.7,14.3
			c7.8,6.9,19.6,6.8,27.4-0.1c3.9-3.5,5.8-8.2,5.8-14.2C76.3,12.9,74.3,8.1,70.5,4.8z M63.4,26.1c-3.9,3.3-9.6,3.3-13.4-0.1
			c-1.9-1.8-3-4.3-2.8-7c0-3.1,0.9-5.4,2.8-7.1c1.9-1.6,4.3-2.5,6.7-2.4c2.5,0,4.8,0.9,6.7,2.5C67.1,15.9,67.1,22.1,63.4,26.1z"/>
		<path class="st0" d="M91.9,14.7c-1,0-2.1-0.2-3-0.6c-0.8-0.5-1.2-1.3-1.1-2.2c0-0.6,0.2-1.1,0.7-1.4c0.5-0.3,1-0.5,1.5-0.5h13.8
			l9.8-9.7H90.3c-3.1,0-6.2,1.2-8.4,3.4c-2.3,2-3.7,4.9-3.7,8c-0.1,3.3,1.3,6.5,3.6,8.9c2.4,2.4,5.7,3.8,9.2,3.7
			c1.8,0,2.7,0.7,2.7,2c0,0.7-0.2,1.3-0.6,1.8s-1,0.7-1.6,0.7l-13.8-0.1v9.4h14.8c3.1,0,6.1-1.3,8.2-3.6c2.2-2.2,3.4-5.2,3.4-8.3
			c0.1-3.1-1.2-6.1-3.4-8.2C98.3,15.7,95.1,14.6,91.9,14.7z"/>
		<polygon class="st0" points="140.2,0.3 127.1,0.3 127.1,0.2 127.1,0.3 117,0.3 107.3,10 116.7,10 116.7,38.1 127.1,38.1 127.1,10 
			130.4,10 		"/>
		<polygon class="st0" points="133.8,10.6 133.8,38.1 144.2,38.1 144.2,0.2 		"/>
	</g>
</g>
<g>
	<linearGradient id="SVGID_1_" gradientUnits="userSpaceOnUse" x1="147.4" y1="19.1018" x2="186" y2="19.1018">
		<stop  offset="0" style="stop-color:#FF9866"/>
		<stop  offset="1" style="stop-color:#FF6062"/>
	</linearGradient>
	<polygon class="st1" points="186,0.2 172.7,0.2 157.8,15.3 157.8,0.2 147.4,10.6 147.4,38.1 157.8,38.1 157.8,29.1 162.7,24.1 
		176.8,38.1 176.8,24.9 169,17.3 	"/>
	<linearGradient id="SVGID_2_" gradientUnits="userSpaceOnUse" x1="179.4" y1="19.0145" x2="218.3" y2="19.0145">
		<stop  offset="0" style="stop-color:#FF9866"/>
		<stop  offset="1" style="stop-color:#FF6062"/>
	</linearGradient>
	<path class="st2" d="M212.6,4.7c-7.8-6.8-19.5-6.8-27.4,0c-3.9,3.4-5.8,8.2-5.8,14.3c0,6.1,1.9,10.9,5.7,14.4
		c7.8,6.9,19.6,6.8,27.4-0.1c3.9-3.5,5.8-8.2,5.8-14.2C218.3,12.9,216.4,8.1,212.6,4.7z M205.4,26.1c-3.9,3.3-9.6,3.3-13.4-0.1
		c-3.8-3.9-3.8-10.1-0.1-14c1.9-1.6,4.3-2.5,6.7-2.4c2.5,0,4.8,0.9,6.7,2.5C209.2,16,209.2,22.2,205.4,26.1z"/>
</g>
</svg>
