<?xml version="1.0" encoding="utf-8"?>
<!-- Generator: Adobe Illustrator 23.0.3, SVG Export Plug-In . SVG Version: 6.00 Build 0)  -->
<svg version="1.1" id="Layer_1" xmlns="http://www.w3.org/2000/svg" xmlns:xlink="http://www.w3.org/1999/xlink" x="0px" y="0px"
	 viewBox="0 0 50 46.1" style="enable-background:new 0 0 50 46.1;" xml:space="preserve">
<style type="text/css">
	.st0{fill:#11af27;}
</style>
<path class="st0" d="M48.9,17.4c0,0-3.1-9.7-14.9-10.9V11c0,0,7,0.2,10.8,5.1c3.7,4.8,4.1,9.4,1.4,14.7c-1,1.9-6.4,11.6-22.2,12.3
	c-1.1,0.1-12,0.6-18.2-6.8c-5.2-6.1-4.1-11.1-3.7-12.8c0.1-0.6,0.6-2,1-2.6c1.3-3,4.6-8.1,10.5-11.2c8.7-4.5,14.8-6.2,22.9-5
	c0.9,0.2,4.3,0.8,5.9,2.2l0.8-5.5c0,0-6.8-2.4-16.7-0.7C16.7,2.4,9.3,8.3,6.1,11.4s-6.6,8.8-6,16.3c0.6,7.7,5.4,13,10.5,15.6
	c5,2.6,13.8,3.9,21.5,1.3c2.4-0.8,12-3.6,16.1-12.8C51.8,23.9,48.9,17.4,48.9,17.4z M36.2,10.8c-0.8,0-1.5-0.7-1.5-1.5
	c0-0.8,0.7-1.5,1.5-1.5s1.5,0.7,1.5,1.5C37.8,10.1,37,10.8,36.2,10.8z M36.2,23.9c-0.7,0.1-1.2,0.4-1.6,0.7
	c-0.2,0.2-0.3,0.2-0.4,0.3c-0.1,0.2-0.2,0.2-0.2,0.2c-1.1,1-1.4,3.8-1.2,5.7c0.1,1,0.4,1.5,0.7,1.9c0.2,0.2,0.2,0.2,0.4,0.3
	c0.1,0,0.1,0.1,0.1,0.1c0.7,0.2,1.2-0.2,1.2-0.2c0.2-0.2,0.5-0.7,0.7-1c0.2-0.4,0.4-0.7,0.4-0.7c0.2-0.2,0.2-0.2,0.3-0.1
	c0,0,0,0.1,0.1,0.1v0.1v1.7c0,0.1,0,0.2,0.1,0.2l0.1,0.1H37c0.1,0.2,0.8,0.2,1.1,0.2c0.2,0,0.2-0.1,0.3-0.2c0,0,0,0,0-0.1
	c0,0,0.3-12.5,0.3-13c0.1-0.2,0-0.4,0-0.5c-0.1,0-0.1-0.1-0.2-0.1c-0.7-0.5-1.3-0.4-1.8-0.3c-0.3,0.1-0.4,0.2-0.5,0.3
	c-0.1,0.1-0.1,0.2-0.1,0.2c0,0.1,0,0.1,0,0.1L36.2,23.9C36.3,23.9,36.3,23.9,36.2,23.9z M36.4,26.1L36.4,26.1l-0.1,2.8
	c0.1,0.4,0,0.7-0.2,0.9c-0.1,0.2-0.2,0.2-0.3,0.4c-0.1,0.1-0.2,0.2-0.2,0.3c-0.4,0.4-0.7,0.4-0.7,0.3c-0.1-0.1-0.1-0.3-0.1-0.6
	s0-0.4,0-0.5c0.1-2.7,1.1-3.7,1.1-3.7c0.2-0.2,0.3-0.2,0.4-0.1C36.3,26,36.4,26.1,36.4,26.1z M41.5,26.5L41.5,26.5L41.5,26.5
	c0.2,0,0.2,0,0.2,0h0.4c1.1-0.2,1.8-1.4,2-2c0.2-0.7,0.8-2.4-0.6-3c-0.7-0.4-1.4-0.2-1.9-0.1c-0.2,0.1-0.4,0.2-0.6,0.3
	c-0.1,0.1-0.2,0.2-0.2,0.2c-1.5,1.1-1.7,4.6-1.7,4.6c-0.1,1.8,0.4,2.9,1,3.3c0.2,0.3,0.6,0.5,0.7,0.6c0.2,0.1,0.3,0.1,0.4,0.1
	c1.1,0.2,1.8-0.2,2.3-0.6c0.3-0.2,0.5-0.5,0.7-0.7c0.1-0.2,0.2-0.2,0.2-0.3c0.1-0.1,0.2-0.2,0.2-0.4c0.2-0.4,0.2-0.7,0-0.8
	c0-0.1-0.1-0.2-0.2-0.2c-0.1-0.1-0.1-0.1-0.1-0.1c-0.8-0.6-1.2,0.1-1.3,0.2c-0.1,0.3-0.4,0.6-0.6,0.8c-0.2,0.1-0.2,0.2-0.3,0.2
	c-0.1,0-0.1,0.1-0.1,0.1c-0.3,0.1-0.5,0.1-0.7-0.1c-0.1,0-0.1-0.1-0.2-0.1c0-0.1,0-0.1,0-0.1c-0.1-0.2-0.1-0.5-0.1-0.8
	c0-0.2,0-0.6,0-0.7C41.3,26.6,41.4,26.6,41.5,26.5z M41.8,23.7c0.6-1.1,1.1-0.9,1.1-0.9c0.2,0.2,0.2,0.5,0.2,0.7
	c-0.1,0.3-0.2,0.5-0.2,0.6c-0.3,1.1-1.3,1.5-1.3,1.5c0,0.1,0,0-0.1,0C41.5,25.6,41.4,25,41.8,23.7z M32.1,25.9
	C32.1,25.9,32.1,25.9,32.1,25.9c0.1,0.1,0.2,0.2,0.2,0.2c0,0.2-0.2,7.6-0.2,7.6s0,0.5-0.2,0.6c-0.3,0.1-1.2,0.1-1.5-0.2
	c-0.1,0-0.1-0.1-0.2-0.1c0-0.1-0.1-0.2-0.1-0.3l-0.2-8.1l1.3-0.1L32.1,25.9z M27.3,32.6c0.1-0.2,0.1-0.4-0.2-0.6
	c-0.4-0.3-2.1-2.2-2.1-2.3v-0.1h-0.1c0,0,0-0.1-0.1-0.1c0-0.2-0.1-0.2-0.1-0.4c-0.2-0.2-0.2-0.7,0.1-1c0.3-0.5,0.7-1.1,1.2-1.7
	c0.4-0.6,1-1.1,1.5-1.3c0,0,0.1,0,0.2-0.1c0.2,0,0.3-0.1,0.5,0c0.3,0.2,0.6,0.7,0.7,1.1c0.1,0,0.1,0,0.1,0c0,0.1,0,0.2,0,0.2
	c0,0.2-0.1,0.2-0.2,0.4c-0.1,0.1-0.2,0.2-0.3,0.4c-0.2,0.2-0.3,0.4-0.6,0.7c-0.4,0.6-0.7,1.1-1,1.2c-0.1,0.1-0.1,0.1-0.1,0.1
	c0,0.1-0.1,0.2-0.1,0.3c0,0.2,0.1,0.3,0.2,0.4c0.4,0.2,1.5,1,2,2c0,0,0.1,0.1,0.1,0.2s0.1,0.2,0.1,0.4c0,0.4,0,0.9-0.2,1.4
	c-0.3,0.5-0.7,1.1-1.1,1.6c-0.3,0.5-0.7,0.9-0.7,1c-0.1,0-0.8,0.6-1.4,0.2c0,0-0.1-0.1-0.2-0.1c-0.1-0.1-0.2-0.2-0.3-0.3
	c-0.2-0.2-0.3-0.5,0-0.9l1.7-2.4C27.1,32.8,27.2,32.7,27.3,32.6z M20.8,31.9c-0.3,0.7-0.6,1.4-0.6,2.2c0.1,1.6,0.2,2.6,0.2,2.6
	c0,0.1,0,0.1,0,0.2c0,0.1-0.1,0.2-0.2,0.2c-0.2,0.2-1,0.4-1.5,0.2c0,0,0,0-0.1-0.1c0,0,0,0-0.1,0c-0.1-0.1-0.2-0.2-0.2-0.4l-0.2-8.7
	h2.4v2h0c0,0.1,0,0.1,0.1,0.1c0.1,0.1,0.2,0,0.2-0.1v-0.1c0,0,0.1-0.1,0.1-0.2c0-0.1,0.1-0.3,0.2-0.5c0.2-0.4,0.4-0.8,0.9-0.9
	c0,0,1.3-0.4,1.8,0.6c0,0.1,0,0.1,0.1,0.3c0.1,0.2,0.2,0.5,0.3,1c0.2,1.1,0.3,3,0.2,6.2c0,0,0,0.7-0.4,0.9c0,0,0,0-0.1,0
	c0,0-0.1,0.1-0.2,0.1s-0.4,0-0.7-0.2H23l-0.1-0.1c-0.1-0.1-0.2-0.2-0.2-0.4c0,0-0.5-5-0.6-5.5c-0.1-0.2-0.2-0.4-0.3-0.5
	c-0.2-0.1-0.3-0.1-0.4,0.2C21.4,31,21.1,31.4,20.8,31.9z M17.4,28.3c-0.2,0.2-0.9,1.1-0.9,1.1c-0.1,0.1-0.1,0.1-0.1,0.1
	c-0.1,0-0.2,0.1-0.3,0c-0.2-0.2-1.1-0.8-1.1-0.8s0,0,0-0.1c-0.1,0-0.1,0-0.1-0.1c-0.1-0.1-0.1-0.2,0-0.3c0.2-0.3,0.8-1.1,0.8-1.1
	c0.1-0.1,0.2-0.2,0.3,0c0.2,0.1,1.3,0.8,1.3,0.8s0.1,0.1,0.1,0.2C17.5,28.1,17.5,28.3,17.4,28.3z M16.1,30.1l1,0.4
	c0.1,0.1,0.1,0.2,0.1,0.2c0,0.2-0.2,7.5-0.2,7.5s0,0.5-0.2,0.6c-0.3,0.1-1.1,0.1-1.4-0.1c0-0.1-0.1-0.1-0.1-0.1
	c-0.1,0-0.1-0.1-0.2-0.1C15,38.4,15,38.3,15,38.2l-0.2-8.1H16.1z M36.8,8.9c0-0.4-0.3-0.5-0.7-0.5h-0.5V10h0.2V9.4h0.2l0.4,0.7h0.3
	l-0.5-0.7C36.6,9.3,36.8,9.1,36.8,8.9z M35.9,9.2V8.6h0.2c0.3,0,0.4,0.1,0.4,0.3c0,0.2-0.2,0.3-0.3,0.3H35.9z M26.4,20.8
	c0.1-0.2,0.2-0.2,0.2-0.3c0-0.2,0.1-0.2,0.2-0.4c0.2-0.4,0.2-0.7,0-0.8c0-0.1-0.1-0.2-0.2-0.2h-0.1c-0.7-0.6-1.2,0.1-1.3,0.1
	c-0.1,0.4-0.3,0.7-0.6,0.9c-0.2,0.1-0.2,0.2-0.3,0.2c-0.1,0.1-0.1,0.1-0.1,0.1c-0.3,0.2-0.5,0.1-0.7,0c-0.1,0-0.1-0.1-0.2-0.2V20
	c-0.1-0.2-0.1-0.5-0.1-0.7c0-0.3,0-0.6,0-0.7c0-0.2,0.2-0.3,0.2-0.3v0h0.1c0.1,0,0.1,0,0.1,0h0.4c1.1-0.2,1.8-1.5,2-2
	c0.2-0.7,0.8-2.4-0.6-3.1c-0.7-0.3-1.4-0.2-1.9,0c-0.2,0.1-0.4,0.2-0.6,0.3c-0.1,0.1-0.2,0.2-0.2,0.2c-1.5,1-1.7,4.6-1.7,4.6
	c-0.1,1.8,0.4,2.8,1,3.3c0.2,0.2,0.6,0.4,0.8,0.6c0.2,0.1,0.3,0.1,0.3,0.1c1.1,0.2,1.9-0.2,2.4-0.7C26,21.3,26.2,21,26.4,20.8z
	 M24,15.4c0.5-1.1,1-0.9,1-0.9c0.2,0.2,0.2,0.5,0.2,0.7c0,0.2-0.1,0.5-0.2,0.5c-0.3,1.2-1.3,1.5-1.3,1.5S23.4,16.6,24,15.4z
	 M18,15.2l-2,0.8c-0.2-0.2-1.4-0.9-1.4-1.5c0-0.1,0-0.1,0-0.1c0-0.1,0-0.1,0.1-0.1c0.2,0,1-0.3,1.8-0.6c0.8-0.2,1.6-0.5,1.6-0.5
	v-0.1v-2.4c0,0-0.1,0-0.1-0.1c0.1,0,0.1-0.1,0.1-0.1c0-0.1,0.1-0.2,0.3-0.2h1.7c0,0,0.5,0,0.5,0.5c0,0.6-0.1,1.3-0.1,1.3s0,0,0,0.1
	c0,0,0,0,0.1,0.1c0,0.1,0.1,0.1,0.2,0c0.2-0.1,1.4-0.5,1.4-0.5c0.1,0,0.1,0,0.2-0.1c0.2,0,0.2,0,0.4,0.2c0.2,0.2,0.2,0.7,0.2,0.7
	s0,0.2-0.2,0.3c-0.2,0.2-2.3,1-2.3,1l-0.2,10.2c0,0.1,0,0.1,0,0.1c0,0.1-0.1,0.2-0.2,0.2c0,0-0.1,0-0.2,0.1
	c-0.1,0.1-0.2,0.2-0.4,0.2c-0.2,0.1-0.7,0.2-1.1-0.2c0,0-0.3-0.2-0.3-0.6L18,15.2C18.1,15.2,18.1,15.1,18,15.2z M13.3,20.4
	c-0.2,0.6-0.6,1.4-0.5,2.1c0,1.6,0.1,2.4,0.1,2.4s0,0.1,0,0.2c0,0.2-0.1,0.2-0.2,0.3c-0.2,0.2-1,0.4-1.5,0.2
	c-0.1-0.1-0.1-0.1-0.2-0.2c-0.1-0.1-0.2-0.2-0.2-0.4l-0.2-8.6h2.5v2.1c0.1,0,0.1,0.1,0.1,0.1s0.1,0,0.2-0.1c0,0,0.1-0.1,0.1-0.2
	c0-0.1,0.1-0.2,0.2-0.5c0.2-0.3,0.5-0.7,1-0.9c0,0,0.1-0.1,0.2-0.1c0.1,0,0.3,0,0.5,0c0.4,0,0.7,0.2,1,0.5c0.1,0.1,0.2,0.3,0.3,0.7
	c0.2,0.7,0.7,2.5,0.4,6.9c0,0,0,0.2,0,0.3c-0.1,0.2-0.2,0.5-0.4,0.6c0,0,0,0-0.1,0c-0.1,0.1-0.2,0.1-0.2,0.1c-0.2,0-0.5,0-0.8-0.2
	c0,0-0.3-0.2-0.4-0.6c0,0-0.5-4.8-0.6-5.3c-0.2-0.5-0.5-0.7-0.7-0.4C13.8,19.4,13.6,19.8,13.3,20.4z M7.6,27.9l-0.2-7.7l1.2-0.1
	l0.9,0.4c0.1,0,0.1,0,0.1,0c0,0.1,0.1,0.1,0.1,0.2c0,0.2-0.2,7.2-0.2,7.2s0,0.2-0.1,0.2c0,0.2-0.1,0.2-0.2,0.3
	c-0.2,0.1-1.1,0.1-1.4-0.2c-0.1,0-0.1,0-0.2-0.1C7.7,28.2,7.6,28,7.6,27.9z M8.5,19.3c-0.1,0-0.2,0-0.2-0.1C8,19.1,7.1,18.1,7.1,18
	c0-0.1-0.1-0.1-0.1-0.2c0-0.1,0.1-0.1,0.1-0.2c0.2-0.1,1.1-0.9,1.1-0.9s0,0,0-0.1h0.1c0.1,0,0.2,0,0.3,0.1c0.1,0.1,0.2,0.2,0.5,0.5
	c0.2,0.2,0.4,0.4,0.5,0.7c0.1,0,0.1,0.1,0.1,0.1c0.1,0.1,0.1,0.1,0,0.2c-0.1,0.1-0.3,0.3-0.7,0.6C8.8,19,8.5,19.2,8.5,19.3
	C8.5,19.3,8.5,19.3,8.5,19.3z M32.5,23.7c-0.1,0.1-0.3,0.4-0.6,0.7c-0.2,0.2-0.4,0.6-0.4,0.6c-0.1,0-0.2,0.2-0.4,0
	c-0.2-0.2-1.1-0.9-1.2-1c0,0-0.1-0.1-0.1-0.2c0.1-0.1,0.1-0.1,0.1-0.2c0.1,0,0.3-0.3,0.5-0.7c0.2-0.2,0.4-0.5,0.4-0.5
	c0-0.1,0.1-0.1,0.1-0.1s0,0,0.1,0s0.2,0,0.3,0.1c0,0.1,0.1,0.1,0.2,0.2c0.1,0.1,0.2,0.2,0.3,0.2c0.2,0.2,0.4,0.3,0.6,0.6l0.1,0.1
	C32.5,23.5,32.5,23.5,32.5,23.7L32.5,23.7z M29.6,20.9c0,0-0.2,0.6-0.4,0.7c-0.2,0.1-0.8,0.2-1.1,0c0,0-0.4,0-0.4-0.6
	c-0.1-0.6-0.9-13.4-0.9-13.4c0-0.2,0-0.4,0.4-0.6c0.3-0.1,1.4-0.1,2.2,0.2c0,0,0.2,0.1,0.2,0.7C29.7,8.3,29.6,20.9,29.6,20.9z"/>
</svg>
