<?xml version="1.0" encoding="utf-8"?>
<!-- Generator: Adobe Illustrator 23.0.3, SVG Export Plug-In . SVG Version: 6.00 Build 0)  -->
<svg version="1.1" id="Layer_1" xmlns="http://www.w3.org/2000/svg" xmlns:xlink="http://www.w3.org/1999/xlink" x="0px" y="0px"
	 viewBox="0 0 86.4 76" style="enable-background:new 0 0 86.4 76;" xml:space="preserve">
<style type="text/css">
	.st0{fill:#4A555F;}
	.st1{fill:#71CDE1;}
	.st2{fill:#F68F6F;}
	.st3{fill:#E0E0E0;}
	.st4{fill:#FFD552;}
</style>
<g>
	<g>
		<g>
			<path class="st0" d="M44.7,64.9H3.1c-1.7,0-3.1-1.4-3.1-3.1V36.3c0-1.7,1.4-3.1,3.1-3.1h41.6c1.7,0,3.1,1.4,3.1,3.1v25.5
				C47.8,63.5,46.4,64.9,44.7,64.9z M3.1,34.2c-1.2,0-2.1,1-2.1,2.1v25.5c0,1.2,1,2.1,2.1,2.1h41.6c1.2,0,2.1-1,2.1-2.1V36.3
				c0-1.2-1-2.1-2.1-2.1H3.1z"/>
		</g>
	</g>
	<g>
		<g>
			<path class="st0" d="M44.1,61.2H3.7V36.9h40.4V61.2z M4.7,60.2h38.5V37.9H4.7V60.2z"/>
		</g>
	</g>
	<g>
		<g>
			<path class="st0" d="M39.6,76H8.8v-4.2h7.1l2.1-7.9h12.5l2.1,7.9h7.1V76z M9.7,75.1h28.9v-2.3h-6.8l-2.1-7.9H18.6l-2.1,7.9H9.7
				V75.1z"/>
		</g>
	</g>
	<g>
		<g>
			<polygon class="st1" points="29.9,70 28.9,66 19.5,66 18.5,70 			"/>
		</g>
	</g>
	<g>
		<g>
			<path class="st1" d="M23.5,49c0,1.2-0.3,2.4-0.8,3.4L16.2,49l1.9,7c-0.6,0.2-1.2,0.2-1.9,0.2c-4,0-7.3-3.3-7.3-7.3v0
				c0-4,3.3-7.3,7.3-7.3C20.2,41.7,23.5,45,23.5,49z"/>
		</g>
	</g>
	<g>
		<g>
			<path class="st2" d="M16.2,41.7V49H8.9C8.9,45,12.2,41.7,16.2,41.7z"/>
		</g>
	</g>
	<g>
		<g>
			<path class="st3" d="M18.1,56c-0.6,0.2-1.2,0.2-1.9,0.2c-4,0-7.3-3.3-7.3-7.3v0c0,0,0,0,0,0h7.3L18.1,56z"/>
		</g>
	</g>
	<g>
		<g>
			<polygon class="st2" points="16.2,49 16.2,49 16.2,49 			"/>
		</g>
	</g>
	<g>
		<g>
			<path class="st2" d="M16.2,49L16.2,49l0-7.3c-4,0-7.3,3.3-7.3,7.3H16.2L16.2,49L16.2,49z"/>
		</g>
	</g>
	<g>
		<g>
			<path class="st4" d="M24.2,54.3c-0.9,1.8-2.6,3.1-4.6,3.7l-1.9-7L24.2,54.3z"/>
		</g>
	</g>
	<g>
		<g>
			<path class="st0" d="M16.2,56.7c-4.3,0-7.7-3.5-7.7-7.7c0-4.3,3.5-7.8,7.7-7.8c4.3,0,7.8,3.5,7.8,7.8c0,1.2-0.3,2.5-0.9,3.6
				l-0.8-0.4c0.5-1,0.8-2,0.8-3.1c0-3.8-3.1-6.8-6.8-6.8c-3.8,0-6.8,3.1-6.8,6.8c0,3.8,3.1,6.8,6.8,6.8c0.6,0,1.2-0.1,1.7-0.2
				l0.2,0.9C17.5,56.6,16.9,56.7,16.2,56.7z"/>
		</g>
	</g>
	<g>
		<g>
			<rect x="27.3" y="42.7" class="st0" width="11.7" height="0.9"/>
		</g>
	</g>
	<g>
		<g>
			<rect x="27.3" y="45.6" class="st0" width="11.7" height="0.9"/>
		</g>
	</g>
	<g>
		<g>
			<rect x="27.3" y="48.4" class="st0" width="11.7" height="0.9"/>
		</g>
	</g>
	<g>
		<g>
			<rect x="27.3" y="51.3" class="st0" width="11.7" height="0.9"/>
		</g>
	</g>
	<g>
		<g>
			<rect x="27.3" y="54.2" class="st0" width="6.3" height="0.9"/>
		</g>
	</g>
	<g>
		<g>
			<polygon class="st0" points="5.4,20.8 4.7,20.1 13.9,11.4 19.6,17.7 24.8,12.6 29.1,17.2 39.3,5.6 40,6.2 29.1,18.6 24.8,14 
				19.6,19.1 13.8,12.8 			"/>
		</g>
	</g>
	<g>
		<g>
			<path class="st0" d="M45,25.6H0.7v-2.7H45V25.6z M1.6,24.7h42.4v-0.9H1.6V24.7z"/>
		</g>
	</g>
	<g>
		<g>
			<polygon class="st1" points="13.6,15.5 11.3,17.8 11.3,21 13.6,21 15.8,21 15.8,17.8 			"/>
		</g>
	</g>
	<g>
		<g>
			<polygon class="st2" points="40,10.1 37.7,12.7 37.7,21 40,21 42.3,21 42.3,12.7 			"/>
		</g>
	</g>
	<g>
		<g>
			<polygon class="st4" points="24.8,16.2 22.6,18.4 22.6,21 24.8,21 27.1,21 27.1,18.4 			"/>
		</g>
	</g>
	<g>
		<g>
			<polygon class="st0" points="40.5,9 39.5,9 39.5,6.2 36.6,6.2 36.6,5.2 40.5,5.2 			"/>
		</g>
	</g>
	<g>
		<g>
			<path class="st0" d="M82,52.4H55.1v-8.8H82V52.4z M56.1,51.5H81v-6.9H56.1V51.5z"/>
		</g>
	</g>
	<g>
		<g>
			<rect x="68.5" y="45.7" class="st1" width="11.4" height="4.7"/>
		</g>
	</g>
	<g>
		<g>
			<path class="st0" d="M82,60.3H55.1v-8.8H82V60.3z M56.1,59.3H81v-6.9H56.1V59.3z"/>
		</g>
	</g>
	<g>
		<g>
			<rect x="68.5" y="53.6" class="st1" width="11.4" height="4.7"/>
		</g>
	</g>
	<g>
		<g>
			<path class="st0" d="M82,68.1H55.1v-8.8H82V68.1z M56.1,67.2H81v-6.9H56.1V67.2z"/>
		</g>
	</g>
	<g>
		<g>
			<rect x="68.5" y="61.4" class="st1" width="11.4" height="4.7"/>
		</g>
	</g>
	<g>
		<g>
			<path class="st0" d="M82,76H55.1v-8.8H82V76z M56.1,75.1H81v-6.9H56.1V75.1z"/>
		</g>
	</g>
	<g>
		<g>
			<rect x="68.5" y="69.2" class="st1" width="11.4" height="4.7"/>
		</g>
	</g>
	<g>
		<g>
			<path class="st0" d="M59.5,49.4c-0.8,0-1.4-0.6-1.4-1.4c0-0.8,0.6-1.4,1.4-1.4c0.8,0,1.4,0.6,1.4,1.4
				C60.9,48.8,60.3,49.4,59.5,49.4z M59.5,47.6c-0.3,0-0.5,0.2-0.5,0.5c0,0.3,0.2,0.5,0.5,0.5c0.3,0,0.5-0.2,0.5-0.5
				C59.9,47.8,59.7,47.6,59.5,47.6z"/>
		</g>
	</g>
	<g>
		<g>
			<path class="st0" d="M78.2,49.4c-0.8,0-1.4-0.6-1.4-1.4c0-0.8,0.6-1.4,1.4-1.4s1.4,0.6,1.4,1.4C79.6,48.8,79,49.4,78.2,49.4z
				 M78.2,47.6c-0.3,0-0.5,0.2-0.5,0.5c0,0.3,0.2,0.5,0.5,0.5s0.5-0.2,0.5-0.5C78.7,47.8,78.4,47.6,78.2,47.6z"/>
		</g>
	</g>
	<g>
		<g>
			<path class="st0" d="M59.5,57.4c-0.8,0-1.4-0.6-1.4-1.4c0-0.8,0.6-1.4,1.4-1.4c0.8,0,1.4,0.6,1.4,1.4
				C60.9,56.7,60.3,57.4,59.5,57.4z M59.5,55.5c-0.3,0-0.5,0.2-0.5,0.5c0,0.3,0.2,0.5,0.5,0.5c0.3,0,0.5-0.2,0.5-0.5
				C59.9,55.7,59.7,55.5,59.5,55.5z"/>
		</g>
	</g>
	<g>
		<g>
			<path class="st0" d="M78.2,57.4c-0.8,0-1.4-0.6-1.4-1.4c0-0.8,0.6-1.4,1.4-1.4s1.4,0.6,1.4,1.4C79.6,56.7,79,57.4,78.2,57.4z
				 M78.2,55.5c-0.3,0-0.5,0.2-0.5,0.5c0,0.3,0.2,0.5,0.5,0.5s0.5-0.2,0.5-0.5C78.7,55.7,78.4,55.5,78.2,55.5z"/>
		</g>
	</g>
	<g>
		<g>
			<path class="st0" d="M59.5,65.1c-0.8,0-1.4-0.6-1.4-1.4s0.6-1.4,1.4-1.4c0.8,0,1.4,0.6,1.4,1.4S60.3,65.1,59.5,65.1z M59.5,63.2
				c-0.3,0-0.5,0.2-0.5,0.5s0.2,0.5,0.5,0.5c0.3,0,0.5-0.2,0.5-0.5S59.7,63.2,59.5,63.2z"/>
		</g>
	</g>
	<g>
		<g>
			<path class="st0" d="M78.2,65.1c-0.8,0-1.4-0.6-1.4-1.4s0.6-1.4,1.4-1.4s1.4,0.6,1.4,1.4S79,65.1,78.2,65.1z M78.2,63.2
				c-0.3,0-0.5,0.2-0.5,0.5s0.2,0.5,0.5,0.5s0.5-0.2,0.5-0.5S78.4,63.2,78.2,63.2z"/>
		</g>
	</g>
	<g>
		<g>
			<path class="st0" d="M59.5,73c-0.8,0-1.4-0.6-1.4-1.4s0.6-1.4,1.4-1.4c0.8,0,1.4,0.6,1.4,1.4S60.3,73,59.5,73z M59.5,71.1
				c-0.3,0-0.5,0.2-0.5,0.5s0.2,0.5,0.5,0.5c0.3,0,0.5-0.2,0.5-0.5S59.7,71.1,59.5,71.1z"/>
		</g>
	</g>
	<g>
		<g>
			<path class="st0" d="M78.2,73c-0.8,0-1.4-0.6-1.4-1.4s0.6-1.4,1.4-1.4s1.4,0.6,1.4,1.4S79,73,78.2,73z M78.2,71.1
				c-0.3,0-0.5,0.2-0.5,0.5s0.2,0.5,0.5,0.5s0.5-0.2,0.5-0.5S78.4,71.1,78.2,71.1z"/>
		</g>
	</g>
	<g>
		<g>
			<g>
				<path class="st0" d="M70.8,33h-5.2L64,30.6v-4.9h8.5v4.9L70.8,33z M66.1,32h4.2l1.2-1.7v-3.6h-6.6v3.6L66.1,32z"/>
			</g>
		</g>
		<g>
			<g>
				<polygon class="st4" points="66.7,30.9 66,30 66,27.8 70.4,27.8 70.4,30 69.7,30.9 				"/>
			</g>
		</g>
		<g>
			<g>
				<path class="st0" d="M71.9,26.7h-8l0-0.5c0,0-0.1-3.5-1.4-6.6c-0.1-0.2-0.2-0.5-0.3-0.8c-0.3-0.7-0.4-1.4-0.4-2.2
					c0-3.5,2.8-6.3,6.3-6.3c3.5,0,6.3,2.8,6.3,6.3c0,1.1-0.3,1.9-0.7,2.9c-0.1,0.2-0.2,0.4-0.2,0.6c-0.4,1-0.7,2.1-0.9,3.3
					c0,0.2-0.3,2.5-0.3,2.7c0-0.2-0.2-0.4-0.5-0.4V26.7z M64.9,25.8h6.6c0-0.2,0.1-0.5,0.1-1c0.1-0.6,0.2-1.4,0.2-1.5
					c0.2-1.2,0.5-2.4,0.9-3.5c0.1-0.2,0.2-0.4,0.3-0.7c0.3-0.9,0.6-1.6,0.6-2.5c0-3-2.4-5.4-5.4-5.4c-3,0-5.4,2.4-5.4,5.4
					c0,0.6,0.1,1.2,0.3,1.8c0.1,0.2,0.2,0.4,0.3,0.7l0,0C64.5,21.9,64.8,24.7,64.9,25.8z"/>
			</g>
		</g>
		<g>
			<g>
				<rect x="67.5" y="4.4" class="st0" width="0.9" height="3.5"/>
			</g>
		</g>
		<g>
			<g>
				<rect x="62.6" y="6.2" transform="matrix(0.807 -0.5906 0.5906 0.807 7.4806 38.766)" class="st0" width="0.9" height="3.5"/>
			</g>
		</g>
		<g>
			<g>
				
					<rect x="71.3" y="7.3" transform="matrix(0.5907 -0.8069 0.8069 0.5907 23.6542 62.0942)" class="st0" width="3.5" height="0.9"/>
			</g>
		</g>
		<g>
			<g>
				<path class="st0" d="M67.2,26.3c0,0-0.4-1.9-1.4-4c-0.7-1.4-0.2-2.6,0.6-3.1c0.6-0.4,1.2-0.4,1.8-0.1c0.6-0.3,1.3-0.3,1.8,0.1
					c0.8,0.5,1.3,1.7,0.6,3.1c-1,2-1.4,3.9-1.4,4l-0.9-0.2c0-0.1,0.5-2,1.5-4.1c0.4-0.9,0.2-1.7-0.3-2c-0.1-0.1-0.3-0.2-0.5-0.2
					c0.7,1.1,0.1,2.5-0.4,3.1l-0.4,0.5l-0.4-0.5c-0.5-0.6-1.1-2-0.4-3.1c-0.2,0-0.3,0.1-0.5,0.2c-0.4,0.3-0.7,1-0.3,2
					c1,2.1,1.4,4.1,1.5,4.1L67.2,26.3z M68.2,20.3c-0.3,0.4-0.2,1,0,1.3C68.4,21.3,68.5,20.8,68.2,20.3z"/>
			</g>
		</g>
	</g>
	<g>
		<g>
			<path class="st0" d="M68.7,36.5l0-0.9c0.3,0,0.6,0,0.9,0l0.1,0.9C69.3,36.5,69,36.5,68.7,36.5z M67.7,36.5c-0.3,0-0.7,0-1-0.1
				l0.1-0.9c0.3,0,0.6,0,0.9,0L67.7,36.5z M70.6,36.3l-0.1-0.9c0.3,0,0.6-0.1,0.9-0.1l0.2,0.9C71.2,36.2,70.9,36.3,70.6,36.3z
				 M65.8,36.3c-0.3,0-0.6-0.1-1-0.2l0.2-0.9c0.3,0.1,0.6,0.1,0.9,0.1L65.8,36.3z M72.5,36l-0.2-0.9c0.3-0.1,0.6-0.2,0.9-0.2
				l0.3,0.9C73.1,35.8,72.8,35.9,72.5,36z M63.8,36c-0.3-0.1-0.6-0.2-0.9-0.3l0.3-0.9c0.3,0.1,0.6,0.2,0.9,0.2L63.8,36z M74.4,35.4
				l-0.3-0.9c0.3-0.1,0.6-0.2,0.9-0.3l0.4,0.9C75,35.2,74.7,35.3,74.4,35.4z M62,35.4c-0.3-0.1-0.6-0.2-0.9-0.4l0.4-0.9
				c0.3,0.1,0.6,0.2,0.9,0.3L62,35.4z M76.2,34.7l-0.4-0.9c0.3-0.1,0.5-0.3,0.8-0.4l0.5,0.8C76.7,34.4,76.4,34.5,76.2,34.7z
				 M60.2,34.6c-0.3-0.1-0.6-0.3-0.9-0.5l0.5-0.8c0.3,0.1,0.5,0.3,0.8,0.4L60.2,34.6z M77.9,33.7l-0.5-0.8c0.3-0.2,0.5-0.3,0.8-0.5
				l0.5,0.8C78.4,33.4,78.1,33.6,77.9,33.7z M58.5,33.7c-0.3-0.2-0.5-0.4-0.8-0.5l0.5-0.8c0.3,0.2,0.5,0.3,0.8,0.5L58.5,33.7z
				 M79.4,32.6l-0.6-0.7c0.2-0.2,0.5-0.4,0.7-0.6l0.6,0.7C80,32.2,79.7,32.4,79.4,32.6z M56.9,32.6c-0.3-0.2-0.5-0.4-0.7-0.6
				l0.6-0.7c0.2,0.2,0.5,0.4,0.7,0.6L56.9,32.6z M80.9,31.3l-0.7-0.7c0.2-0.2,0.4-0.4,0.6-0.7l0.7,0.6
				C81.4,30.9,81.1,31.1,80.9,31.3z M55.4,31.3c-0.2-0.2-0.5-0.5-0.7-0.7l0.7-0.6c0.2,0.2,0.4,0.4,0.6,0.7L55.4,31.3z M82.2,29.9
				l-0.7-0.6c0.2-0.2,0.4-0.5,0.6-0.7l0.8,0.6C82.6,29.4,82.4,29.7,82.2,29.9z M54.1,29.9c-0.2-0.3-0.4-0.5-0.6-0.8l0.8-0.6
				c0.2,0.2,0.4,0.5,0.6,0.7L54.1,29.9z M83.4,28.3l-0.8-0.5c0.2-0.3,0.3-0.5,0.5-0.8l0.8,0.5C83.7,27.8,83.6,28.1,83.4,28.3z
				 M53,28.3c-0.2-0.3-0.3-0.5-0.5-0.8l0.8-0.5c0.2,0.3,0.3,0.5,0.5,0.8L53,28.3z M84.4,26.7l-0.8-0.4c0.1-0.3,0.3-0.6,0.4-0.8
				l0.9,0.4C84.7,26.1,84.5,26.4,84.4,26.7z M52,26.6c-0.1-0.3-0.3-0.6-0.4-0.9l0.9-0.4c0.1,0.3,0.3,0.6,0.4,0.8L52,26.6z
				 M85.2,24.9l-0.9-0.3c0.1-0.3,0.2-0.6,0.3-0.9l0.9,0.3C85.4,24.3,85.3,24.6,85.2,24.9z M51.2,24.9c-0.1-0.3-0.2-0.6-0.3-0.9
				l0.9-0.3c0.1,0.3,0.2,0.6,0.3,0.9L51.2,24.9z M85.8,23.1l-0.9-0.2c0.1-0.3,0.2-0.6,0.2-0.9l0.9,0.2C86,22.4,85.9,22.7,85.8,23.1z
				 M50.6,23c-0.1-0.3-0.2-0.6-0.2-0.9l0.9-0.2c0.1,0.3,0.1,0.6,0.2,0.9L50.6,23z M86.2,21.2L85.3,21c0-0.3,0.1-0.6,0.1-0.9l0.9,0.1
				C86.3,20.5,86.3,20.8,86.2,21.2z M50.2,21.1c0-0.3-0.1-0.6-0.1-1L51,20c0,0.3,0.1,0.6,0.1,0.9L50.2,21.1z M86.4,19.2l-0.9,0
				c0-0.3,0-0.6,0-0.9h0.9C86.4,18.6,86.4,18.9,86.4,19.2z M50,19.2c0-0.3,0-0.6,0-0.9v0h0.9v0c0,0.3,0,0.6,0,0.9L50,19.2z
				 M85.5,17.4c0-0.3,0-0.6-0.1-0.9l0.9-0.1c0,0.3,0.1,0.6,0.1,1L85.5,17.4z M50.9,17.3L50,17.2c0-0.3,0-0.7,0.1-1l0.9,0.1
				C51,16.7,50.9,17,50.9,17.3z M85.3,15.6c0-0.3-0.1-0.6-0.2-0.9l0.9-0.2c0.1,0.3,0.1,0.6,0.2,1L85.3,15.6z M51.1,15.5l-0.9-0.2
				c0.1-0.3,0.1-0.6,0.2-1l0.9,0.2C51.2,14.8,51.2,15.1,51.1,15.5z M84.9,13.8c-0.1-0.3-0.2-0.6-0.3-0.9l0.9-0.3
				c0.1,0.3,0.2,0.6,0.3,0.9L84.9,13.8z M51.5,13.6l-0.9-0.3c0.1-0.3,0.2-0.6,0.3-0.9l0.9,0.3C51.7,13.1,51.6,13.4,51.5,13.6z
				 M84.3,12c-0.1-0.3-0.2-0.6-0.4-0.8l0.9-0.4c0.1,0.3,0.3,0.6,0.4,0.9L84.3,12z M52.1,11.9l-0.9-0.3c0.1-0.3,0.2-0.6,0.4-0.9
				l0.9,0.4C52.3,11.3,52.2,11.6,52.1,11.9z M83.6,10.3c-0.1-0.3-0.3-0.5-0.4-0.8L84,9.1c0.2,0.3,0.3,0.6,0.5,0.9L83.6,10.3z
				 M52.9,10.2L52,9.8c0.2-0.3,0.3-0.6,0.5-0.8l0.8,0.5C53.2,9.7,53,9.9,52.9,10.2z M82.7,8.8c-0.2-0.3-0.3-0.5-0.5-0.8l0.8-0.6
				c0.2,0.3,0.4,0.5,0.6,0.8L82.7,8.8z M53.8,8.6L53,8.1c0.2-0.3,0.4-0.5,0.6-0.8l0.8,0.6C54.2,8.1,54,8.4,53.8,8.6z M81.6,7.3
				C81.4,7,81.2,6.8,81,6.6l0.7-0.6c0.2,0.2,0.4,0.5,0.6,0.7L81.6,7.3z M54.9,7.2l-0.7-0.6c0.2-0.3,0.4-0.5,0.6-0.7l0.7,0.6
				C55.3,6.7,55.1,6.9,54.9,7.2z M80.3,5.9c-0.2-0.2-0.4-0.4-0.7-0.6l0.6-0.7C80.5,4.8,80.8,5,81,5.2L80.3,5.9z M56.2,5.8l-0.7-0.7
				c0.2-0.2,0.5-0.4,0.7-0.7l0.6,0.7C56.6,5.4,56.4,5.6,56.2,5.8z M78.9,4.7c-0.2-0.2-0.5-0.4-0.7-0.6l0.5-0.8
				c0.3,0.2,0.5,0.4,0.8,0.6L78.9,4.7z M57.6,4.6L57,3.9c0.3-0.2,0.5-0.4,0.8-0.6l0.5,0.8C58.1,4.2,57.8,4.4,57.6,4.6z M77.4,3.6
				c-0.3-0.2-0.5-0.3-0.8-0.5l0.5-0.8c0.3,0.2,0.6,0.3,0.8,0.5L77.4,3.6z M59.1,3.5l-0.5-0.8c0.3-0.2,0.6-0.3,0.8-0.5l0.5,0.8
				C59.6,3.2,59.3,3.4,59.1,3.5z M75.8,2.7c-0.3-0.1-0.6-0.3-0.8-0.4l0.4-0.9c0.3,0.1,0.6,0.3,0.9,0.4L75.8,2.7z M60.7,2.7l-0.4-0.9
				c0.3-0.1,0.6-0.3,0.9-0.4l0.4,0.9C61.2,2.4,61,2.5,60.7,2.7z M74.1,2c-0.3-0.1-0.6-0.2-0.9-0.3l0.3-0.9c0.3,0.1,0.6,0.2,0.9,0.3
				L74.1,2z M62.4,1.9l-0.3-0.9c0.3-0.1,0.6-0.2,0.9-0.3l0.3,0.9C63,1.7,62.7,1.8,62.4,1.9z M72.4,1.5c-0.3-0.1-0.6-0.1-0.9-0.2
				l0.2-0.9c0.3,0.1,0.6,0.1,0.9,0.2L72.4,1.5z M64.1,1.4l-0.2-0.9c0.3-0.1,0.6-0.1,1-0.2L65,1.2C64.7,1.3,64.4,1.4,64.1,1.4z
				 M70.6,1.1c-0.3,0-0.6-0.1-0.9-0.1l0.1-0.9c0.3,0,0.6,0.1,1,0.1L70.6,1.1z M66,1.1l-0.1-0.9c0.3,0,0.6-0.1,1-0.1L66.9,1
				C66.6,1,66.3,1.1,66,1.1z M68.7,1c-0.3,0-0.6,0-0.9,0l0-0.9c0.3,0,0.6,0,1,0L68.7,1z"/>
		</g>
	</g>
</g>
</svg>
