<?xml version="1.0" encoding="utf-8"?>
<!-- Generator: Adobe Illustrator 23.0.3, SVG Export Plug-In . SVG Version: 6.00 Build 0)  -->
<svg version="1.1" id="Layer_1" xmlns="http://www.w3.org/2000/svg" xmlns:xlink="http://www.w3.org/1999/xlink" x="0px" y="0px"
	 viewBox="0 0 74.9 76" style="enable-background:new 0 0 74.9 76;" xml:space="preserve">
<style type="text/css">
	.st0{fill:#4A555F;}
	.st1{fill:#F58E6F;}
	.st2{fill:#DFDFDF;}
	.st3{fill:#71CCE0;}
</style>
<g>
	<g>
		<g>
			<path class="st0" d="M74.9,45.6H59.3V30.2h15.6V45.6z M60.2,44.7H74V31.1H60.2V44.7z"/>
		</g>
	</g>
	<g>
		<g>
			<rect x="60.9" y="31.8" class="st1" width="12.5" height="12.3"/>
		</g>
	</g>
	<g>
		<g>
			<path class="st0" d="M15.6,45.6H0V30.2h15.6V45.6z M0.9,44.7h13.9V31.1H0.9V44.7z"/>
		</g>
	</g>
	<g>
		<g>
			<rect x="1.5" y="31.8" class="st1" width="12.5" height="12.3"/>
		</g>
	</g>
	<g>
		<g>
			<g>
				<path class="st0" d="M43.9,0.9H43V0h0.9V0.9z M42.2,0.9h-0.9V0h0.9V0.9z M40.4,0.9h-0.9V0h0.9V0.9z M38.7,0.9h-0.9V0h0.9V0.9z
					 M37,0.9h-0.9V0H37V0.9z M35.3,0.9h-0.9V0h0.9V0.9z M33.6,0.9h-0.9V0h0.9V0.9z M31.9,0.9H31V0h0.9V0.9z"/>
			</g>
		</g>
		<g>
			<g>
				<path class="st0" d="M45.5,13.6h-0.9v-0.9h0.9V13.6z M45.5,11.9h-0.9v-0.9h0.9V11.9z M45.5,10.2h-0.9V9.4h0.9V10.2z M45.5,8.5
					h-0.9V7.6h0.9V8.5z M45.5,6.8h-0.9V5.9h0.9V6.8z M45.5,5.1h-0.9V4.2h0.9V5.1z M45.5,3.3h-0.9V2.5h0.9V3.3z M45.5,1.6h-0.9V0.8
					h0.9V1.6z"/>
			</g>
		</g>
		<g>
			<g>
				<path class="st0" d="M30.2,13.6h-0.9v-0.9h0.9V13.6z M30.2,11.9h-0.9v-0.9h0.9V11.9z M30.2,10.2h-0.9V9.4h0.9V10.2z M30.2,8.5
					h-0.9V7.6h0.9V8.5z M30.2,6.8h-0.9V5.9h0.9V6.8z M30.2,5.1h-0.9V4.2h0.9V5.1z M30.2,3.3h-0.9V2.5h0.9V3.3z M30.2,1.6h-0.9V0.8
					h0.9V1.6z"/>
			</g>
		</g>
		<g>
			<g>
				<path class="st0" d="M43.9,14.7H43v-0.9h0.9V14.7z M42.2,14.7h-0.9v-0.9h0.9V14.7z M40.4,14.7h-0.9v-0.9h0.9V14.7z M38.7,14.7
					h-0.9v-0.9h0.9V14.7z M37,14.7h-0.9v-0.9H37V14.7z M35.3,14.7h-0.9v-0.9h0.9V14.7z M33.6,14.7h-0.9v-0.9h0.9V14.7z M31.9,14.7
					H31v-0.9h0.9V14.7z"/>
			</g>
		</g>
	</g>
	<g>
		<g>
			<g>
				<path class="st0" d="M44,62.2h-0.9v-0.9H44V62.2z M42.3,62.2h-0.9v-0.9h0.9V62.2z M40.6,62.2h-0.9v-0.9h0.9V62.2z M38.9,62.2H38
					v-0.9h0.9V62.2z M37.2,62.2h-0.9v-0.9h0.9V62.2z M35.4,62.2h-0.9v-0.9h0.9V62.2z M33.7,62.2h-0.9v-0.9h0.9V62.2z M32,62.2h-0.9
					v-0.9H32V62.2z"/>
			</g>
		</g>
		<g>
			<g>
				<path class="st0" d="M45.7,75h-0.9v-0.9h0.9V75z M45.7,73.3h-0.9v-0.9h0.9V73.3z M45.7,71.6h-0.9v-0.9h0.9V71.6z M45.7,69.8
					h-0.9V69h0.9V69.8z M45.7,68.1h-0.9v-0.9h0.9V68.1z M45.7,66.4h-0.9v-0.9h0.9V66.4z M45.7,64.7h-0.9v-0.9h0.9V64.7z M45.7,63
					h-0.9v-0.9h0.9V63z"/>
			</g>
		</g>
		<g>
			<g>
				<path class="st0" d="M30.4,75h-0.9v-0.9h0.9V75z M30.4,73.3h-0.9v-0.9h0.9V73.3z M30.4,71.6h-0.9v-0.9h0.9V71.6z M30.4,69.8
					h-0.9V69h0.9V69.8z M30.4,68.1h-0.9v-0.9h0.9V68.1z M30.4,66.4h-0.9v-0.9h0.9V66.4z M30.4,64.7h-0.9v-0.9h0.9V64.7z M30.4,63
					h-0.9v-0.9h0.9V63z"/>
			</g>
		</g>
		<g>
			<g>
				<path class="st0" d="M44,76h-0.9v-0.9H44V76z M42.3,76h-0.9v-0.9h0.9V76z M40.6,76h-0.9v-0.9h0.9V76z M38.9,76H38v-0.9h0.9V76z
					 M37.2,76h-0.9v-0.9h0.9V76z M35.4,76h-0.9v-0.9h0.9V76z M33.7,76h-0.9v-0.9h0.9V76z M32,76h-0.9v-0.9H32V76z"/>
			</g>
		</g>
	</g>
	<g>
		<g>
			<path class="st0" d="M37.4,51.2c-7.4,0-13.4-6-13.4-13.4s6-13.4,13.4-13.4s13.4,6,13.4,13.4S44.8,51.2,37.4,51.2z M37.4,25.2
				c-6.9,0-12.6,5.6-12.6,12.6s5.6,12.6,12.6,12.6S50,44.7,50,37.8S44.4,25.2,37.4,25.2z"/>
		</g>
	</g>
	<g>
		<g>
			<circle class="st2" cx="37.4" cy="37.8" r="11.5"/>
		</g>
	</g>
	<g>
		<g>
			<polygon class="st0" points="33.2,41.7 29.9,37.8 33.2,33.5 33.9,34 31,37.8 33.9,41.2 			"/>
		</g>
	</g>
	<g>
		<g>
			<polygon class="st0" points="41.7,41.7 41,41.2 43.9,37.8 41,34 41.7,33.5 45,37.8 			"/>
		</g>
	</g>
	<g>
		<g>
			
				<rect x="31.7" y="37.1" transform="matrix(0.369 -0.9294 0.9294 0.369 -11.3245 58.3447)" class="st0" width="11.2" height="0.9"/>
		</g>
	</g>
	<g>
		<g>
			<path class="st0" d="M11,40.8H4.5v-6.5H11V40.8z M5.4,39.9h4.8v-4.8H5.4V39.9z"/>
		</g>
	</g>
	<g>
		<g>
			<path class="st0" d="M70.4,40.8h-6.5v-6.5h6.5V40.8z M64.7,39.9h4.8v-4.8h-4.8V39.9z"/>
		</g>
	</g>
	<g>
		<g>
			<rect x="37" y="15.4" class="st0" width="0.9" height="9.4"/>
		</g>
	</g>
	<g>
		<g>
			<rect x="37" y="51.1" class="st0" width="0.9" height="9.4"/>
		</g>
	</g>
	<g>
		<g>
			<rect x="50.6" y="37.5" class="st0" width="9.4" height="0.9"/>
		</g>
	</g>
	<g>
		<g>
			<rect x="14.9" y="37.5" class="st0" width="9.4" height="0.9"/>
		</g>
	</g>
	<g>
		<g>
			
				<rect x="44.1" y="22" transform="matrix(0.7071 -0.7071 0.7071 0.7071 -0.4315 43.8871)" class="st0" width="17.4" height="0.9"/>
		</g>
	</g>
	<g>
		<g>
			<ellipse transform="matrix(0.9239 -0.3827 0.3827 0.9239 0.7001 25.429)" class="st3" cx="64.3" cy="11" rx="4.3" ry="4.3"/>
		</g>
	</g>
	<g>
		<g>
			<path class="st0" d="M64.3,18.9c-4.4,0-8-3.6-8-8c0-4.4,3.6-8,8-8c4.4,0,8,3.6,8,8C72.2,15.3,68.7,18.9,64.3,18.9z M64.3,3.9
				c-3.9,0-7.1,3.2-7.1,7.1c0,3.9,3.2,7.1,7.1,7.1c3.9,0,7.1-3.2,7.1-7.1C71.4,7,68.2,3.9,64.3,3.9z"/>
		</g>
	</g>
	<g>
		<g>
			
				<rect x="21.3" y="13.8" transform="matrix(0.7071 -0.7071 0.7071 0.7071 -9.5308 21.9197)" class="st0" width="0.9" height="17.4"/>
		</g>
	</g>
	<g>
		<g>
			<circle class="st3" cx="10.2" cy="11" r="4.3"/>
		</g>
	</g>
	<g>
		<g>
			<path class="st0" d="M10.2,18.9c-4.4,0-8-3.6-8-8c0-4.4,3.6-8,8-8c4.4,0,8,3.6,8,8C18.1,15.3,14.6,18.9,10.2,18.9z M10.2,3.9
				C6.3,3.9,3.1,7,3.1,11c0,3.9,3.2,7.1,7.1,7.1c3.9,0,7.1-3.2,7.1-7.1C17.3,7,14.1,3.9,10.2,3.9z"/>
		</g>
	</g>
	<g>
		<g>
			
				<rect x="13" y="53.3" transform="matrix(0.7071 -0.7071 0.7071 0.7071 -31.6259 31.0714)" class="st0" width="17.4" height="0.9"/>
		</g>
	</g>
	<g>
		<g>
			
				<ellipse transform="matrix(0.3827 -0.9239 0.9239 0.3827 -53.9696 49.6707)" class="st3" cx="10.2" cy="65.2" rx="4.3" ry="4.3"/>
		</g>
	</g>
	<g>
		<g>
			<path class="st0" d="M10.2,73.2c-4.4,0-8-3.6-8-8c0-4.4,3.6-8,8-8c4.4,0,8,3.6,8,8C18.1,69.6,14.6,73.2,10.2,73.2z M10.2,58.1
				c-3.9,0-7.1,3.2-7.1,7.1c0,3.9,3.2,7.1,7.1,7.1c3.9,0,7.1-3.2,7.1-7.1C17.3,61.3,14.1,58.1,10.2,58.1z"/>
		</g>
	</g>
	<g>
		<g>
			
				<rect x="52.3" y="45" transform="matrix(0.7071 -0.7071 0.7071 0.7071 -22.5265 53.0394)" class="st0" width="0.9" height="17.4"/>
		</g>
	</g>
	<g>
		<g>
			<circle class="st3" cx="64.3" cy="65.2" r="4.3"/>
		</g>
	</g>
	<g>
		<g>
			<path class="st0" d="M64.3,73.2c-4.4,0-8-3.6-8-8c0-4.4,3.6-8,8-8c4.4,0,8,3.6,8,8C72.2,69.6,68.7,73.2,64.3,73.2z M64.3,58.1
				c-3.9,0-7.1,3.2-7.1,7.1c0,3.9,3.2,7.1,7.1,7.1c3.9,0,7.1-3.2,7.1-7.1C71.4,61.3,68.2,58.1,64.3,58.1z"/>
		</g>
	</g>
</g>
</svg>
