<?xml version="1.0" encoding="utf-8"?>
<!-- Generator: Adobe Illustrator 23.0.3, SVG Export Plug-In . SVG Version: 6.00 Build 0)  -->
<svg version="1.1" id="Layer_1" xmlns="http://www.w3.org/2000/svg" xmlns:xlink="http://www.w3.org/1999/xlink" x="0px" y="0px"
	 viewBox="0 0 71.8 76" style="enable-background:new 0 0 71.8 76;" xml:space="preserve">
<style type="text/css">
	.st0{fill:#4A555F;}
	.st1{fill:#71CDE1;}
	.st2{fill:#E0E0E0;}
	.st3{fill:#F68F6F;}
	.st4{fill:#FFD552;}
</style>
<g>
	<g>
		<g>
			<path class="st0" d="M25.6,54.8H0v-8.4h25.6V54.8z M0.9,53.9h23.8v-6.6H0.9V53.9z"/>
		</g>
	</g>
	<g>
		<g>
			<rect x="12.8" y="48.4" class="st1" width="10.9" height="4.5"/>
		</g>
	</g>
	<g>
		<g>
			<path class="st0" d="M25.6,62.3H0v-8.4h25.6V62.3z M0.9,61.4h23.8v-6.6H0.9V61.4z"/>
		</g>
	</g>
	<g>
		<g>
			<rect x="12.8" y="55.9" class="st1" width="10.9" height="4.5"/>
		</g>
	</g>
	<g>
		<g>
			<path class="st0" d="M25.6,69.8H0v-8.4h25.6V69.8z M0.9,68.9h23.8v-6.6H0.9V68.9z"/>
		</g>
	</g>
	<g>
		<g>
			<rect x="12.8" y="63.3" class="st1" width="10.9" height="4.5"/>
		</g>
	</g>
	<g>
		<g>
			<path class="st0" d="M4.2,52c-0.7,0-1.4-0.6-1.4-1.4c0-0.7,0.6-1.4,1.4-1.4c0.7,0,1.4,0.6,1.4,1.4C5.5,51.4,4.9,52,4.2,52z
				 M4.2,50.2c-0.2,0-0.4,0.2-0.4,0.4s0.2,0.4,0.4,0.4s0.4-0.2,0.4-0.4S4.4,50.2,4.2,50.2z"/>
		</g>
	</g>
	<g>
		<g>
			<path class="st0" d="M22,52c-0.7,0-1.4-0.6-1.4-1.4c0-0.7,0.6-1.4,1.4-1.4s1.4,0.6,1.4,1.4C23.4,51.4,22.8,52,22,52z M22,50.2
				c-0.2,0-0.4,0.2-0.4,0.4s0.2,0.4,0.4,0.4c0.2,0,0.4-0.2,0.4-0.4S22.3,50.2,22,50.2z"/>
		</g>
	</g>
	<g>
		<g>
			<path class="st0" d="M4.2,59.4c-0.7,0-1.4-0.6-1.4-1.4c0-0.7,0.6-1.4,1.4-1.4c0.7,0,1.4,0.6,1.4,1.4C5.5,58.8,4.9,59.4,4.2,59.4z
				 M4.2,57.6c-0.2,0-0.4,0.2-0.4,0.4s0.2,0.4,0.4,0.4s0.4-0.2,0.4-0.4S4.4,57.6,4.2,57.6z"/>
		</g>
	</g>
	<g>
		<g>
			<path class="st0" d="M22,59.4c-0.7,0-1.4-0.6-1.4-1.4c0-0.7,0.6-1.4,1.4-1.4s1.4,0.6,1.4,1.4C23.4,58.8,22.8,59.4,22,59.4z
				 M22,57.6c-0.2,0-0.4,0.2-0.4,0.4s0.2,0.4,0.4,0.4c0.2,0,0.4-0.2,0.4-0.4S22.3,57.6,22,57.6z"/>
		</g>
	</g>
	<g>
		<g>
			<path class="st0" d="M4.2,66.9c-0.7,0-1.4-0.6-1.4-1.4c0-0.7,0.6-1.4,1.4-1.4c0.7,0,1.4,0.6,1.4,1.4C5.5,66.3,4.9,66.9,4.2,66.9z
				 M4.2,65.1c-0.2,0-0.4,0.2-0.4,0.4c0,0.2,0.2,0.4,0.4,0.4s0.4-0.2,0.4-0.4C4.6,65.3,4.4,65.1,4.2,65.1z"/>
		</g>
	</g>
	<g>
		<g>
			<path class="st0" d="M22,66.9c-0.7,0-1.4-0.6-1.4-1.4c0-0.7,0.6-1.4,1.4-1.4s1.4,0.6,1.4,1.4C23.4,66.3,22.8,66.9,22,66.9z
				 M22,65.1c-0.2,0-0.4,0.2-0.4,0.4c0,0.2,0.2,0.4,0.4,0.4c0.2,0,0.4-0.2,0.4-0.4C22.5,65.3,22.3,65.1,22,65.1z"/>
		</g>
	</g>
	<g>
		<g>
			<path class="st0" d="M7.1,73.8H4.6v-4.9h2.5V73.8z M5.5,72.9h0.7v-3H5.5V72.9z"/>
		</g>
	</g>
	<g>
		<g>
			<path class="st0" d="M20.3,73.8h-2.5v-4.9h2.5V73.8z M18.7,72.9h0.7v-3h-0.7V72.9z"/>
		</g>
	</g>
	<g>
		<g>
			<path class="st0" d="M25.6,76H0v-3.1h25.6V76z M0.9,75.1h23.8v-1.3H0.9V75.1z"/>
		</g>
	</g>
	<g>
		<g>
			<path class="st0" d="M56.1,37.5H18.9c-8.6,0-15.5-7-15.5-15.5c0-8.6,7-15.5,15.5-15.5c1.8,0,3.6,0.3,5.3,0.9
				C26.9,2.8,31.9,0,37.2,0c8,0,14.5,6.1,15.2,14c1.2-0.4,2.5-0.6,3.7-0.6c6.7,0,12.1,5.4,12.1,12.1S62.8,37.5,56.1,37.5z M18.9,7.4
				C10.8,7.4,4.3,14,4.3,22c0,8.1,6.6,14.6,14.6,14.6h37.3c6.2,0,11.2-5,11.2-11.2s-5-11.2-11.2-11.2c-1.4,0-2.7,0.2-4,0.7l-0.6,0.2
				l0-0.6C51.2,6.9,44.9,0.9,37.2,0.9c-5.2,0-9.9,2.8-12.5,7.3l-0.2,0.3l-0.4-0.1C22.5,7.7,20.7,7.4,18.9,7.4z"/>
		</g>
	</g>
	<g>
		<g>
			<path class="st2" d="M56.1,15.3c-1.2,0-2.5,0.2-3.6,0.7l-2,0.8l-0.1-2.1C50.2,7.5,44.3,2,37.2,2C32.4,2,28,4.6,25.6,8.7L25,9.9
				l-1.2-0.5c-1.6-0.6-3.2-0.9-4.9-0.9C11.4,8.5,5.3,14.6,5.3,22c0,7.5,6.1,13.6,13.6,13.6h37.3c5.6,0,10.1-4.5,10.1-10.1
				S61.7,15.3,56.1,15.3z M47.1,33.2H25.9V16.7h2.5V14c0-4.4,3.6-8.1,8.1-8.1s8.1,3.6,8.1,8.1v2.7h2.5V33.2z"/>
		</g>
	</g>
	<g>
		<g>
			<path class="st0" d="M46,32.2H27V17.8H46V32.2z M27.9,31.3h17.3V18.7H27.9V31.3z"/>
		</g>
	</g>
	<g>
		<g>
			<g>
				<path class="st0" d="M43.5,18.7h-14V14c0-3.9,3.1-7,7-7c3.9,0,7,3.1,7,7V18.7z M40.5,17.8h2.1V14c0-3.4-2.7-6.1-6.1-6.1
					s-6.1,2.7-6.1,6.1v3.8h2.1V14c0-2.2,1.8-4,4-4c2.2,0,4,1.8,4,4V17.8z M33.4,17.8h6.2V14c0-1.7-1.4-3.1-3.1-3.1
					c-1.7,0-3.1,1.4-3.1,3.1V17.8z"/>
			</g>
		</g>
	</g>
	<g>
		<g>
			<polygon class="st3" points="31.9,26 35.3,29 41.5,22.4 40.2,21.2 35.1,26.5 33,24.7 			"/>
		</g>
	</g>
	<g>
		<g>
			<path class="st0" d="M46,32.2H27V17.8h2.5V14c0-3.9,3.1-7,7-7c3.9,0,7,3.1,7,7v3.8H46V32.2z M27.9,31.3h17.3V18.7h-2.5V14
				c0-3.4-2.7-6.1-6.1-6.1s-6.1,2.7-6.1,6.1v4.7h-2.5V31.3z M40.5,18.7h-8V14c0-2.2,1.8-4,4-4c2.2,0,4,1.8,4,4V18.7z M33.4,17.8h6.2
				V14c0-1.7-1.4-3.1-3.1-3.1c-1.7,0-3.1,1.4-3.1,3.1V17.8z"/>
		</g>
	</g>
	<g>
		<g>
			<path class="st0" d="M13.3,44.1h-0.9v-0.9h0.9V44.1z M13.3,42.3h-0.9v-0.9h0.9V42.3z M13.3,40.5h-0.9v-0.9h0.9V40.5z"/>
		</g>
	</g>
	<g>
		<g>
			<path class="st0" d="M56.8,48.4h-0.9v-0.9h0.9V48.4z M56.8,46.6h-0.9v-0.9h0.9V46.6z M56.8,44.8h-0.9v-0.9h0.9V44.8z M56.8,42.9
				h-0.9V42h0.9V42.9z M56.8,41.1h-0.9v-0.9h0.9V41.1z"/>
		</g>
	</g>
	<g>
		<g>
			<path class="st0" d="M40.7,59.4h-0.9v-0.9h0.9V59.4z M38.9,59.4H38v-0.9h0.9V59.4z M37.1,59.4h-0.9v-0.9h0.9V59.4z M35.3,59.4
				h-0.9v-0.9h0.9V59.4z M33.5,59.4h-0.9v-0.9h0.9V59.4z M31.7,59.4h-0.9v-0.9h0.9V59.4z"/>
		</g>
	</g>
	<g>
		<g>
			<g>
				<path class="st0" d="M68.2,68.3H44.5V50.9h23.7V68.3z M45.4,67.4h21.9V51.8H45.4V67.4z"/>
			</g>
		</g>
		<g>
			<g>
				<path class="st0" d="M71.8,75.8H40.9V72l3.8-4.6H68l3.8,4.6V75.8z M41.8,74.9h29.1v-2.5l-3.3-4.1H45.2l-3.3,4.1V74.9z"/>
			</g>
		</g>
		<g>
			<g>
				<rect x="41.4" y="71.7" class="st0" width="26.4" height="0.9"/>
			</g>
		</g>
	</g>
	<g>
		<g>
			<path class="st0" d="M65.4,65.7h-18l0-12.1h18L65.4,65.7z M48.2,64.8h16.2l0-10.3H48.3L48.2,64.8z"/>
		</g>
	</g>
	<g>
		<g>
			<polygon class="st4" points="49.3,63.8 49.3,55.6 63.4,55.6 63.4,63.8 			"/>
		</g>
	</g>
</g>
</svg>
