<?xml version="1.0" encoding="utf-8"?>
<!-- Generator: Adobe Illustrator 23.0.3, SVG Export Plug-In . SVG Version: 6.00 Build 0)  -->
<svg version="1.1" id="Layer_1" xmlns="http://www.w3.org/2000/svg" xmlns:xlink="http://www.w3.org/1999/xlink" x="0px" y="0px"
	 viewBox="0 0 75.3 76" style="enable-background:new 0 0 75.3 76;" xml:space="preserve">
<style type="text/css">
	.st0{fill:#71CCE0;}
	.st1{fill:#4A555F;}
	.st2{fill:#FFD452;}
	.st3{fill:#DFDFDF;}
	.st4{fill:#FFFFFF;}
</style>
<g>
	<g>
		<g>
			<g>
				<polygon class="st0" points="12.4,73.7 10.7,68.8 6,71 5,70 7.2,65.3 2.3,63.6 2.3,62.2 7.2,60.5 5,55.8 6,54.8 10.7,57.1 
					12.4,52.2 13.8,52.2 15.5,57.1 20.2,54.8 21.2,55.8 18.9,60.5 23.8,62.2 23.8,63.6 18.9,65.3 21.2,70 20.2,71 15.5,68.8 
					13.8,73.7 				"/>
			</g>
		</g>
		<g>
			<g>
				<path class="st1" d="M13.1,67.3c-2.4,0-4.4-2-4.4-4.4c0-2.4,2-4.4,4.4-4.4c2.4,0,4.4,2,4.4,4.4C17.5,65.4,15.5,67.3,13.1,67.3z
					 M13.1,59.4c-2,0-3.6,1.6-3.6,3.6c0,2,1.6,3.6,3.6,3.6c2,0,3.6-1.6,3.6-3.6C16.6,61,15,59.4,13.1,59.4z"/>
			</g>
		</g>
		<g>
			<g>
				<circle class="st0" cx="13.1" cy="62.9" r="2.9"/>
			</g>
		</g>
		<g>
			<g>
				<path class="st1" d="M15.4,76l-4.7,0l-1.4-4l-3.8,1.8l-3.3-3.3L4,66.7l-4-1.4v-4.7l4-1.4l-1.8-3.8L5.5,52l3.8,1.8l1.4-4h4.7
					l1.4,4l3.8-1.8l3.3,3.3l-1.8,3.8l4,1.4v4.7l-4,1.4l1.8,3.8l-3.3,3.3L16.8,72L15.4,76z M11.3,75.1l3.5,0l1.5-4.3l4.1,2l2.5-2.5
					l-2-4.1l4.3-1.5v-3.5l-4.3-1.5l2-4.1l-2.5-2.5l-4.1,2l-1.5-4.3h-3.5l-1.5,4.3l-4.1-2l-2.5,2.5l2,4.1l-4.3,1.5v3.5l4.3,1.5
					l-2,4.1l2.5,2.5l4.1-2L11.3,75.1z"/>
			</g>
		</g>
	</g>
	<g>
		<g>
			<g>
				<rect x="37.9" y="42.9" class="st2" width="31.7" height="17.4"/>
			</g>
		</g>
		<g>
			<g>
				<path class="st1" d="M72.5,65.9H34.8c-1.5,0-2.8-1.3-2.8-2.8V40c0-1.5,1.3-2.8,2.8-2.8h37.7c1.5,0,2.8,1.3,2.8,2.8v23.1
					C75.3,64.7,74,65.9,72.5,65.9z M34.8,38.1c-1.1,0-1.9,0.9-1.9,1.9v23.1c0,1.1,0.9,1.9,1.9,1.9h37.7c1.1,0,1.9-0.9,1.9-1.9V40
					c0-1.1-0.9-1.9-1.9-1.9H34.8z M71.9,62.6H35.3v-22h36.6V62.6z M36.2,61.7h34.9V41.4H36.2V61.7z"/>
			</g>
		</g>
		<g>
			<g>
				<path class="st1" d="M67.9,76H39.9v-3.8h6.4l1.9-7.2h11.4l1.9,7.2h6.4V76z M40.8,75.1H67v-2.1h-6.2l-1.9-7.2h-10L47,73.1h-6.2
					V75.1z"/>
			</g>
		</g>
		<g>
			<g>
				<polygon class="st0" points="59.1,70.5 58.2,66.9 49.7,66.9 48.7,70.5 				"/>
			</g>
		</g>
		<g>
			<g>
				<polygon class="st1" points="41.9,49.9 39.8,47.3 41.9,44.5 42.6,45.1 40.9,47.3 42.6,49.3 				"/>
			</g>
		</g>
		<g>
			<g>
				<polygon class="st1" points="47.5,49.9 46.8,49.3 48.5,47.3 46.8,45.1 47.5,44.5 49.6,47.3 				"/>
			</g>
		</g>
		<g>
			<g>
				<rect x="41.1" y="46.7" transform="matrix(0.369 -0.9294 0.9294 0.369 -15.6497 71.2213)" class="st1" width="7" height="0.9"/>
			</g>
		</g>
		<g>
			<g>
				<rect x="53.6" y="44.4" class="st1" width="13.3" height="0.9"/>
			</g>
		</g>
		<g>
			<g>
				<rect x="53.6" y="48.6" class="st1" width="13.3" height="0.9"/>
			</g>
		</g>
		<g>
			<g>
				<rect x="40" y="52.9" class="st1" width="27" height="0.9"/>
			</g>
		</g>
		<g>
			<g>
				<rect x="40" y="57.1" class="st1" width="27" height="0.9"/>
			</g>
		</g>
	</g>
	<g>
		<g>
			<path class="st1" d="M17.1,36.6c-8.2,0-15-6.7-15-15s6.7-15,15-15c2.7,0,5.3,0.7,7.6,2.1C27.1,3.4,32.4,0,38.3,0
				C44.5,0,50,3.8,52.3,9.5c2.1-2.1,5-3.3,8-3.3c6.4,0,11.5,5.2,11.5,11.5c0,6.4-5.2,11.5-11.5,11.5c-4.1,0-7.8-2.1-9.9-5.5
				c-1.7,2.4-3.4,4.1-6.2,5.1v5.2l-5.6-4.2c-0.1,0-0.2,0-0.4,0c-2.7,0-5.3-0.7-7.6-2.1C28.3,33.2,23,36.6,17.1,36.6z M17.1,7.6
				C9.3,7.6,3,13.9,3,21.7s6.3,14.1,14.1,14.1c5.7,0,10.9-3.4,13-8.7l0.2-0.5l0.4,0.3c2.3,1.5,4.9,2.2,7.6,2.2c0.1,0,0.2,0,0.3,0
				l0.3,0l4.4,3.4v-4.1l0.3-0.1c3-1,4.6-2.8,6.4-5.5l0.4-0.6l0.3,0.6c1.9,3.5,5.5,5.7,9.4,5.7c5.9,0,10.7-4.8,10.7-10.7
				c0-5.9-4.8-10.7-10.7-10.7c-3,0-5.9,1.3-7.9,3.5l-0.5,0.5l-0.2-0.7c-1.9-5.7-7.3-9.6-13.3-9.6c-5.7,0-10.9,3.4-13,8.7l-0.2,0.5
				l-0.4-0.3C22.4,8.3,19.8,7.6,17.1,7.6z"/>
		</g>
	</g>
	<g>
		<g>
			<circle class="st3" cx="16.9" cy="21.8" r="11.9"/>
		</g>
	</g>
	<g>
		<g>
			<circle class="st3" cx="38.3" cy="15" r="11.9"/>
		</g>
	</g>
	<g>
		<g>
			<circle class="st3" cx="60.3" cy="17.7" r="8.4"/>
		</g>
	</g>
	<g>
		<g>
			<circle class="st4" cx="16.9" cy="21.8" r="8.8"/>
		</g>
	</g>
	<g>
		<g>
			<circle class="st4" cx="60.3" cy="17.7" r="6.4"/>
		</g>
	</g>
	<g>
		<g>
			<ellipse transform="matrix(0.2266 -0.974 0.974 0.2266 15.0795 48.9009)" class="st4" cx="38.3" cy="15" rx="9.4" ry="9.4"/>
		</g>
	</g>
	<g>
		<g>
			<path class="st1" d="M11.2,20h0.4v1.5h1.7V20h0.4v3.3h-0.4v-1.4h-1.7v1.4h-0.4V20z"/>
		</g>
		<g>
			<path class="st1" d="M15.3,20.4h-1V20h2.4v0.4h-1v2.9h-0.4V20.4z"/>
		</g>
		<g>
			<path class="st1" d="M20.4,20v3.3H20v-2.5h0L19,22.6h-0.3l-1.1-1.9h0v2.5h-0.4V20h0.4l1.2,2.1h0L20,20H20.4z"/>
		</g>
		<g>
			<path class="st1" d="M21.3,20h0.4v2.9h1.6v0.4h-2V20z"/>
		</g>
	</g>
	<g>
		<g>
			<path class="st1" d="M31.6,15c0-1.5,0.9-2.6,2.6-2.6c0.7,0,1.4,0.3,2,1l-0.5,0.4c-0.4-0.5-0.9-0.8-1.5-0.8c-1.2,0-1.9,0.8-1.9,2
				c0,1.2,0.8,2,1.9,2c0.7,0,1.2-0.3,1.5-0.8l0.5,0.4c-0.4,0.6-1.1,1-2,1C32.8,17.6,31.6,16.7,31.6,15z"/>
		</g>
		<g>
			<path class="st1" d="M38.6,17.6c-0.6,0-1.3-0.2-1.8-0.8l0.4-0.5c0.4,0.5,0.9,0.7,1.4,0.7c0.6,0,1.1-0.3,1.1-0.8
				c0-0.6-0.5-0.7-1.2-1c-0.8-0.3-1.5-0.6-1.5-1.5c0-0.8,0.7-1.4,1.6-1.4c0.6,0,1.1,0.2,1.6,0.6l-0.4,0.5c-0.4-0.3-0.9-0.5-1.2-0.5
				c-0.5,0-0.9,0.3-0.9,0.7c0,0.5,0.5,0.7,1.1,0.9c0.9,0.3,1.6,0.6,1.6,1.5C40.3,17.1,39.5,17.6,38.6,17.6L38.6,17.6z"/>
		</g>
		<g>
			<path class="st1" d="M41,16.8l0.4-0.5c0.4,0.5,0.9,0.7,1.4,0.7c0.6,0,1.1-0.3,1.1-0.8c0-0.6-0.5-0.7-1.2-1
				c-0.8-0.3-1.5-0.6-1.5-1.5c0-0.8,0.7-1.4,1.6-1.4c0.6,0,1.1,0.2,1.6,0.6L44,13.4c-0.4-0.3-0.9-0.5-1.2-0.5
				c-0.5,0-0.9,0.3-0.9,0.7c0,0.5,0.5,0.7,1.1,0.9c0.9,0.3,1.6,0.6,1.6,1.5c0,0.9-0.8,1.5-1.7,1.5C42.2,17.6,41.5,17.3,41,16.8z"/>
		</g>
	</g>
	<g>
		<g>
			<path class="st1" d="M55.6,18.7l0.2-0.3c0.1,0.2,0.3,0.3,0.5,0.3c0.3,0,0.5-0.2,0.5-0.6v-1.9h0.4v1.9c0,0.6-0.2,1-0.8,1
				C56.1,19.1,55.8,19,55.6,18.7z"/>
		</g>
		<g>
			<path class="st1" d="M59.4,18.4h-1.3l-0.3,0.7h-0.4l1.1-2.9H59l1.1,2.9h-0.4L59.4,18.4z M59.3,18.1l-0.5-1.4h0l-0.5,1.4H59.3z"/>
		</g>
		<g>
			<path class="st1" d="M62.5,16.2l-1.1,2.9h-0.3L60,16.2h0.4l0.9,2.4h0l0.9-2.4H62.5z"/>
		</g>
		<g>
			<path class="st1" d="M64.3,18.4H63l-0.3,0.7h-0.4l1.1-2.9h0.4l1.1,2.9h-0.4L64.3,18.4z M64.2,18.1l-0.5-1.4h0l-0.5,1.4H64.2z"/>
		</g>
	</g>
	<g>
		<g>
			<path class="st1" d="M17,31L17,31c-0.3,0-0.6,0-0.9,0l0.1-0.9c0.3,0,0.5,0,0.8,0L17,31z M17.9,31l-0.1-0.9c0.3,0,0.5-0.1,0.8-0.1
				l0.2,0.8C18.5,30.9,18.2,31,17.9,31z M15.2,30.9c-0.3-0.1-0.6-0.1-0.9-0.2l0.2-0.8c0.3,0.1,0.5,0.1,0.8,0.2L15.2,30.9z
				 M19.6,30.6l-0.3-0.8c0.3-0.1,0.5-0.2,0.8-0.3l0.3,0.8C20.2,30.4,19.9,30.6,19.6,30.6z M13.5,30.4c-0.3-0.1-0.6-0.2-0.8-0.4
				l0.4-0.8c0.2,0.1,0.5,0.2,0.7,0.3L13.5,30.4z M21.3,29.9l-0.4-0.8c0.2-0.1,0.5-0.3,0.7-0.4l0.5,0.7
				C21.8,29.6,21.6,29.8,21.3,29.9z M11.9,29.5c-0.2-0.2-0.5-0.3-0.7-0.5l0.5-0.7c0.2,0.2,0.4,0.3,0.7,0.5L11.9,29.5z M22.8,28.9
				l-0.5-0.7c0.2-0.2,0.4-0.4,0.6-0.5l0.6,0.6C23.2,28.5,23,28.8,22.8,28.9z M10.5,28.4c-0.2-0.2-0.4-0.4-0.6-0.7l0.7-0.5
				c0.2,0.2,0.4,0.4,0.6,0.6L10.5,28.4z M24.1,27.7l-0.7-0.5c0.2-0.2,0.3-0.4,0.5-0.7l0.7,0.5C24.4,27.2,24.2,27.4,24.1,27.7z
				 M9.3,27c-0.2-0.2-0.3-0.5-0.5-0.8l0.8-0.4c0.1,0.2,0.3,0.5,0.4,0.7L9.3,27z M25.1,26.2l-0.8-0.4c0.1-0.2,0.2-0.5,0.3-0.7
				l0.8,0.3C25.3,25.6,25.2,25.9,25.1,26.2z M8.5,25.4c-0.1-0.3-0.2-0.6-0.3-0.8L9,24.3c0.1,0.3,0.2,0.5,0.3,0.8L8.5,25.4z
				 M25.7,24.5l-0.8-0.2c0.1-0.3,0.1-0.5,0.2-0.8l0.8,0.2C25.9,23.9,25.8,24.2,25.7,24.5z M7.9,23.7c-0.1-0.3-0.1-0.6-0.1-0.9
				l0.9-0.1c0,0.3,0.1,0.5,0.1,0.8L7.9,23.7z M26.1,22.7l-0.9-0.1c0-0.3,0-0.5,0-0.8l0-0.1l0.9,0l0,0.1
				C26.1,22.1,26.1,22.4,26.1,22.7z M8.6,21.9H7.7v-0.1c0-0.3,0-0.6,0-0.8l0.9,0.1C8.6,21.3,8.6,21.6,8.6,21.9L8.6,21.9z M25.2,20.9
				c0-0.3-0.1-0.5-0.1-0.8l0.8-0.2c0.1,0.3,0.1,0.6,0.1,0.9L25.2,20.9z M8.8,20.3l-0.8-0.2C8,19.8,8,19.5,8.1,19.2l0.8,0.2
				C8.9,19.7,8.8,20,8.8,20.3z M24.9,19.3c-0.1-0.3-0.2-0.5-0.3-0.8l0.8-0.3c0.1,0.3,0.2,0.6,0.3,0.8L24.9,19.3z M9.2,18.7l-0.8-0.3
				c0.1-0.3,0.2-0.6,0.4-0.8L9.6,18C9.4,18.2,9.3,18.5,9.2,18.7z M24.3,17.8c-0.1-0.2-0.3-0.5-0.4-0.7l0.7-0.5
				c0.2,0.2,0.3,0.5,0.5,0.8L24.3,17.8z M10,17.3l-0.7-0.5c0.2-0.3,0.3-0.5,0.5-0.7l0.7,0.5C10.3,16.8,10.1,17,10,17.3z M23.3,16.5
				c-0.2-0.2-0.4-0.4-0.6-0.6l0.6-0.6c0.2,0.2,0.4,0.4,0.6,0.7L23.3,16.5z M11,16l-0.6-0.6c0.2-0.2,0.4-0.4,0.7-0.6l0.6,0.7
				C11.4,15.6,11.2,15.8,11,16z M22.2,15.3c-0.2-0.2-0.4-0.3-0.7-0.5l0.5-0.7c0.3,0.2,0.5,0.3,0.7,0.5L22.2,15.3z M12.3,15l-0.5-0.7
				c0.2-0.2,0.5-0.3,0.8-0.5l0.4,0.8C12.7,14.7,12.5,14.8,12.3,15z M20.8,14.5c-0.2-0.1-0.5-0.2-0.7-0.3l0.3-0.8
				c0.3,0.1,0.6,0.2,0.8,0.4L20.8,14.5z M13.7,14.2l-0.3-0.8c0.3-0.1,0.6-0.2,0.8-0.3l0.3,0.8C14.2,14,13.9,14.1,13.7,14.2z
				 M19.3,13.8c-0.3-0.1-0.5-0.1-0.8-0.2l0.2-0.8c0.3,0.1,0.6,0.1,0.9,0.2L19.3,13.8z M15.2,13.7l-0.2-0.8c0.3-0.1,0.6-0.1,0.9-0.1
				l0.1,0.9C15.8,13.6,15.5,13.6,15.2,13.7z M17.7,13.5c-0.2,0-0.5,0-0.7,0l-0.1,0l0-0.9l0.1,0c0.3,0,0.5,0,0.8,0L17.7,13.5z"/>
		</g>
	</g>
	<g>
		<g>
			<path class="st1" d="M38.3,24.6l-0.2,0l0-0.9l0.1,0c0.2,0,0.5,0,0.7,0l0.1,0.9C38.8,24.6,38.6,24.6,38.3,24.6z M37.3,24.5
				c-0.3,0-0.6-0.1-0.9-0.1l0.2-0.8c0.3,0.1,0.5,0.1,0.8,0.1L37.3,24.5z M40,24.4l-0.1-0.8c0.3,0,0.5-0.1,0.8-0.2l0.2,0.8
				C40.6,24.3,40.3,24.4,40,24.4z M35.5,24.2c-0.3-0.1-0.6-0.2-0.8-0.3l0.3-0.8c0.3,0.1,0.5,0.2,0.8,0.3L35.5,24.2z M41.7,24
				l-0.3-0.8c0.3-0.1,0.5-0.2,0.8-0.3l0.4,0.8C42.3,23.8,42,23.9,41.7,24z M33.9,23.5c-0.3-0.1-0.5-0.3-0.8-0.5l0.5-0.7
				c0.2,0.1,0.5,0.3,0.7,0.4L33.9,23.5z M43.3,23.2l-0.4-0.7c0.2-0.1,0.5-0.3,0.7-0.5l0.5,0.7C43.8,22.9,43.6,23,43.3,23.2z
				 M32.4,22.5c-0.2-0.2-0.5-0.4-0.7-0.6l0.6-0.6c0.2,0.2,0.4,0.4,0.6,0.5L32.4,22.5z M44.8,22.1l-0.6-0.6c0.2-0.2,0.4-0.4,0.6-0.6
				l0.6,0.6C45.2,21.7,45,21.9,44.8,22.1z M31.1,21.3c-0.2-0.2-0.4-0.5-0.6-0.7l0.7-0.5c0.2,0.2,0.3,0.4,0.5,0.6L31.1,21.3z
				 M46,20.8l-0.7-0.5c0.2-0.2,0.3-0.4,0.5-0.7l0.7,0.5C46.3,20.3,46.2,20.6,46,20.8z M30,19.8c-0.2-0.3-0.3-0.5-0.4-0.8l0.8-0.4
				c0.1,0.2,0.2,0.5,0.4,0.7L30,19.8z M46.9,19.3l-0.8-0.4c0.1-0.2,0.2-0.5,0.3-0.7l0.8,0.3C47.2,18.7,47.1,19,46.9,19.3z
				 M29.3,18.2c-0.1-0.3-0.2-0.6-0.3-0.9l0.8-0.2c0.1,0.3,0.1,0.5,0.2,0.8L29.3,18.2z M47.6,17.6l-0.8-0.2c0.1-0.3,0.1-0.5,0.2-0.8
				l0.8,0.2C47.7,17,47.7,17.3,47.6,17.6z M28.8,16.4c0-0.3-0.1-0.6-0.1-0.9l0.9-0.1c0,0.3,0,0.5,0.1,0.8L28.8,16.4z M47.9,15.9
				l-0.9-0.1c0-0.3,0-0.5,0-0.8H48C48,15.3,47.9,15.6,47.9,15.9z M47.1,14.7c0-0.3,0-0.5-0.1-0.8l0.9-0.1c0,0.3,0.1,0.6,0.1,0.9
				L47.1,14.7z M29.6,14.7l-0.9,0c0-0.3,0-0.6,0.1-0.9l0.9,0.1C29.6,14.1,29.6,14.4,29.6,14.7z M46.9,13.1c-0.1-0.3-0.1-0.5-0.2-0.8
				l0.8-0.3c0.1,0.3,0.2,0.6,0.2,0.9L46.9,13.1z M29.8,13l-0.8-0.2c0.1-0.3,0.1-0.6,0.2-0.9l0.8,0.3C29.9,12.5,29.8,12.8,29.8,13z
				 M46.4,11.5c-0.1-0.3-0.2-0.5-0.4-0.7l0.8-0.4c0.1,0.3,0.3,0.5,0.4,0.8L46.4,11.5z M30.3,11.5l-0.8-0.3c0.1-0.3,0.3-0.5,0.4-0.8
				l0.8,0.4C30.5,11,30.4,11.2,30.3,11.5z M45.6,10.1c-0.2-0.2-0.3-0.4-0.5-0.7l0.7-0.5c0.2,0.2,0.4,0.5,0.5,0.7L45.6,10.1z
				 M31.1,10.1l-0.7-0.5c0.2-0.2,0.3-0.5,0.5-0.7l0.7,0.5C31.4,9.6,31.2,9.8,31.1,10.1z M44.6,8.8c-0.2-0.2-0.4-0.4-0.6-0.6l0.6-0.7
				C44.8,7.8,45,8,45.2,8.2L44.6,8.8z M32.1,8.8l-0.6-0.6c0.2-0.2,0.4-0.4,0.7-0.6l0.6,0.7C32.5,8.4,32.3,8.6,32.1,8.8z M43.4,7.8
				c-0.2-0.2-0.5-0.3-0.7-0.4l0.4-0.7c0.3,0.1,0.5,0.3,0.8,0.5L43.4,7.8z M33.3,7.7L32.9,7c0.2-0.2,0.5-0.3,0.8-0.5L34,7.3
				C33.8,7.4,33.6,7.6,33.3,7.7z M41.9,7c-0.2-0.1-0.5-0.2-0.8-0.3l0.3-0.8c0.3,0.1,0.6,0.2,0.8,0.3L41.9,7z M34.8,6.9l-0.3-0.8
				C34.7,6,35,5.9,35.3,5.8l0.3,0.8C35.3,6.7,35,6.8,34.8,6.9z M40.4,6.4c-0.3-0.1-0.5-0.1-0.8-0.2l0.1-0.9c0.3,0,0.6,0.1,0.9,0.2
				L40.4,6.4z M36.3,6.4l-0.2-0.8c0.3-0.1,0.6-0.1,0.9-0.2l0.1,0.9C36.9,6.3,36.6,6.4,36.3,6.4z M38.8,6.2c-0.3,0-0.5,0-0.8,0l0-0.9
				c0.3,0,0.6,0,0.9,0L38.8,6.2z"/>
		</g>
	</g>
	<g>
		<g>
			<path class="st1" d="M60.2,24.7c-0.3,0-0.6,0-0.9-0.1l0.1-0.9c0.3,0,0.5,0.1,0.8,0.1L60.2,24.7z M61.1,24.6L61,23.8
				c0.3,0,0.5-0.1,0.8-0.1l0.2,0.8C61.7,24.5,61.4,24.6,61.1,24.6z M58.4,24.4c-0.3-0.1-0.6-0.2-0.9-0.3l0.3-0.8
				c0.2,0.1,0.5,0.2,0.8,0.3L58.4,24.4z M62.9,24.2l-0.3-0.8c0.2-0.1,0.5-0.2,0.7-0.3l0.4,0.7C63.4,23.9,63.2,24.1,62.9,24.2z
				 M56.7,23.7c-0.3-0.2-0.5-0.3-0.8-0.5l0.5-0.7c0.2,0.2,0.4,0.3,0.7,0.5L56.7,23.7z M64.5,23.3l-0.5-0.7c0.2-0.2,0.4-0.3,0.6-0.5
				l0.6,0.6C64.9,22.9,64.7,23.1,64.5,23.3z M55.3,22.5c-0.2-0.2-0.4-0.5-0.6-0.7l0.7-0.5c0.2,0.2,0.3,0.4,0.5,0.6L55.3,22.5z
				 M65.8,22l-0.7-0.5c0.2-0.2,0.3-0.4,0.5-0.7l0.7,0.4C66.1,21.5,65.9,21.7,65.8,22z M54.2,21.1c-0.1-0.3-0.3-0.5-0.4-0.8l0.8-0.3
				c0.1,0.2,0.2,0.5,0.3,0.7L54.2,21.1z M66.7,20.4l-0.8-0.3c0.1-0.2,0.2-0.5,0.3-0.8l0.8,0.2C66.9,19.8,66.8,20.1,66.7,20.4z
				 M53.5,19.4c-0.1-0.3-0.1-0.6-0.2-0.9l0.9-0.1c0,0.3,0.1,0.5,0.1,0.8L53.5,19.4z M67.2,18.6l-0.9-0.1c0-0.3,0.1-0.5,0.1-0.8h0.9
				C67.2,18,67.2,18.3,67.2,18.6z M54.2,17.6l-0.9,0c0-0.3,0-0.6,0.1-0.9l0.8,0.1C54.3,17,54.2,17.3,54.2,17.6z M66.3,17.3
				c0-0.3-0.1-0.5-0.1-0.8l0.8-0.2c0.1,0.3,0.1,0.6,0.1,0.9L66.3,17.3z M54.5,16l-0.8-0.2c0.1-0.3,0.2-0.6,0.3-0.9l0.8,0.4
				C54.6,15.5,54.6,15.7,54.5,16z M66,15.7c-0.1-0.3-0.2-0.5-0.3-0.7l0.8-0.4c0.1,0.3,0.3,0.6,0.4,0.8L66,15.7z M55.1,14.5l-0.7-0.5
				c0.2-0.3,0.3-0.5,0.5-0.7l0.7,0.5C55.4,14.1,55.3,14.3,55.1,14.5z M65.3,14.3c-0.2-0.2-0.3-0.4-0.5-0.6l0.6-0.6
				c0.2,0.2,0.4,0.5,0.6,0.7L65.3,14.3z M56.2,13.3l-0.6-0.6c0.2-0.2,0.5-0.4,0.7-0.6l0.5,0.7C56.6,12.9,56.4,13.1,56.2,13.3z
				 M64.2,13.1c-0.2-0.2-0.4-0.3-0.6-0.5l0.5-0.7c0.3,0.2,0.5,0.3,0.7,0.5L64.2,13.1z M57.5,12.4l-0.4-0.8c0.3-0.1,0.6-0.3,0.8-0.4
				l0.3,0.8C57.9,12.1,57.7,12.2,57.5,12.4z M62.9,12.2c-0.2-0.1-0.5-0.2-0.7-0.3l0.3-0.8c0.3,0.1,0.6,0.2,0.9,0.3L62.9,12.2z
				 M59,11.8L58.8,11c0.3-0.1,0.6-0.1,0.9-0.1l0.1,0.9C59.5,11.7,59.2,11.8,59,11.8z M61.4,11.8c-0.3,0-0.5-0.1-0.8-0.1l0-0.9
				c0.3,0,0.6,0,0.9,0.1L61.4,11.8z"/>
		</g>
	</g>
</g>
</svg>
