<?xml version="1.0" encoding="utf-8"?>
<!-- Generator: Adobe Illustrator 23.0.3, SVG Export Plug-In . SVG Version: 6.00 Build 0)  -->
<svg version="1.1" id="Layer_1" xmlns="http://www.w3.org/2000/svg" xmlns:xlink="http://www.w3.org/1999/xlink" x="0px" y="0px"
	 viewBox="0 0 80.6 76" style="enable-background:new 0 0 80.6 76;" xml:space="preserve">
<style type="text/css">
	.st0{fill:#4A555F;}
	.st1{fill:#F68F6F;}
	.st2{fill:#E0E0E0;}
	.st3{fill:#71CDE1;}
</style>
<g>
	<g>
		<g>
			<g>
				<path class="st0" d="M40.1,76H2.2v-3.1h37.9V76z M3.1,75.1h36v-1.3h-36V75.1z"/>
			</g>
		</g>
		<g>
			<g>
				<g>
					<path class="st0" d="M13.7,73.8H8.7v-5.3h4.9V73.8z M9.7,72.9h3.1v-3.4H9.7V72.9z"/>
				</g>
			</g>
			<g>
				<g>
					<path class="st0" d="M33.5,73.8h-4.9v-5.3h4.9V73.8z M29.5,72.9h3.1v-3.4h-3.1V72.9z"/>
				</g>
			</g>
		</g>
		<g>
			<g>
				<path class="st0" d="M40.6,69.4h-39v-8.7l3.9-2.9h31.3l3.9,2.9V69.4z M2.6,68.5h37.1v-7.3l-3.2-2.4H5.8l-3.2,2.4V68.5z"/>
			</g>
		</g>
		<g>
			<g>
				<polygon class="st1" points="36.1,59.9 21.4,59.9 21.4,67.4 38.6,67.4 38.6,61.8 				"/>
			</g>
		</g>
		<g>
			<g>
				<path class="st0" d="M40.6,58.8h-39v-8.7l3.9-2.9h31.3l3.9,2.9V58.8z M2.6,57.8h37.1v-7.3l-3.2-2.4H5.8l-3.2,2.4V57.8z"/>
			</g>
		</g>
		<g>
			<g>
				<polygon class="st1" points="36.1,49.2 21.4,49.2 21.4,56.7 38.6,56.7 38.6,51.1 				"/>
			</g>
		</g>
		<g>
			<g>
				<path class="st0" d="M40.6,48.1h-39v-8.7l3.9-2.9h31.3l3.9,2.9V48.1z M2.6,47.1h37.1v-7.3l-3.2-2.4H5.8l-3.2,2.4V47.1z"/>
			</g>
		</g>
		<g>
			<g>
				<polygon class="st1" points="36.1,38.5 21.4,38.5 21.4,46.1 38.6,46.1 38.6,40.4 				"/>
			</g>
		</g>
		<g>
			<g>
				<path class="st0" d="M7.7,43.8c-0.8,0-1.5-0.7-1.5-1.5c0-0.8,0.7-1.5,1.5-1.5s1.5,0.7,1.5,1.5C9.2,43.1,8.5,43.8,7.7,43.8z
					 M7.7,41.7c-0.3,0-0.6,0.3-0.6,0.6c0,0.3,0.3,0.6,0.6,0.6c0.3,0,0.6-0.3,0.6-0.6C8.3,41.9,8,41.7,7.7,41.7z"/>
			</g>
		</g>
		<g>
			<g>
				<path class="st0" d="M7.7,54.5c-0.8,0-1.5-0.7-1.5-1.5s0.7-1.5,1.5-1.5s1.5,0.7,1.5,1.5S8.5,54.5,7.7,54.5z M7.7,52.4
					c-0.3,0-0.6,0.3-0.6,0.6s0.3,0.6,0.6,0.6c0.3,0,0.6-0.3,0.6-0.6S8,52.4,7.7,52.4z"/>
			</g>
		</g>
		<g>
			<g>
				<path class="st0" d="M7.7,65.2c-0.8,0-1.5-0.7-1.5-1.5s0.7-1.5,1.5-1.5s1.5,0.7,1.5,1.5S8.5,65.2,7.7,65.2z M7.7,63
					c-0.3,0-0.6,0.3-0.6,0.6s0.3,0.6,0.6,0.6c0.3,0,0.6-0.3,0.6-0.6S8,63,7.7,63z"/>
			</g>
		</g>
		<g>
			<g>
				<path class="st0" d="M34.7,43.8c-0.8,0-1.5-0.7-1.5-1.5c0-0.8,0.7-1.5,1.5-1.5c0.8,0,1.5,0.7,1.5,1.5
					C36.2,43.1,35.5,43.8,34.7,43.8z M34.7,41.7c-0.3,0-0.6,0.3-0.6,0.6c0,0.3,0.3,0.6,0.6,0.6c0.3,0,0.6-0.3,0.6-0.6
					C35.3,41.9,35,41.7,34.7,41.7z"/>
			</g>
		</g>
		<g>
			<g>
				<path class="st0" d="M34.7,54.5c-0.8,0-1.5-0.7-1.5-1.5s0.7-1.5,1.5-1.5c0.8,0,1.5,0.7,1.5,1.5S35.5,54.5,34.7,54.5z M34.7,52.4
					c-0.3,0-0.6,0.3-0.6,0.6s0.3,0.6,0.6,0.6c0.3,0,0.6-0.3,0.6-0.6S35,52.4,34.7,52.4z"/>
			</g>
		</g>
		<g>
			<g>
				<path class="st0" d="M34.7,65.2c-0.8,0-1.5-0.7-1.5-1.5s0.7-1.5,1.5-1.5c0.8,0,1.5,0.7,1.5,1.5S35.5,65.2,34.7,65.2z M34.7,63
					c-0.3,0-0.6,0.3-0.6,0.6s0.3,0.6,0.6,0.6c0.3,0,0.6-0.3,0.6-0.6S35,63,34.7,63z"/>
			</g>
		</g>
	</g>
	<g>
		<g>
			<path class="st0" d="M73.6,32.5H47.2c-5.6,0-10.1-4.5-10.1-10.1c0-5.6,4.5-10.1,10.1-10.1c0.2,0,0.4,0,0.6,0
				c2.2-5.4,7.6-9.1,13.5-9.1C69.4,3.3,76,9.8,76,17.9c0,0.3,0,0.7,0,1c2.8,1,4.7,3.6,4.7,6.6C80.6,29.4,77.5,32.5,73.6,32.5z
				 M47.2,13.3c-5.1,0-9.2,4.1-9.2,9.2c0,5.1,4.1,9.2,9.2,9.2h26.4c3.3,0,6.1-2.7,6.1-6.1c0-2.7-1.8-5.1-4.4-5.8l-0.4-0.1l0-0.4
				c0-0.4,0.1-0.9,0.1-1.3c0-7.5-6.1-13.7-13.7-13.7c-5.6,0-10.8,3.5-12.8,8.8l-0.1,0.3l-0.4,0C47.8,13.3,47.5,13.3,47.2,13.3z"/>
		</g>
	</g>
	<g>
		<g>
			<path class="st2" d="M75,20.8l-1.2-0.4l0.1-1.3c0-0.4,0.1-0.8,0.1-1.2c0-6.9-5.6-12.6-12.6-12.6c-5.2,0-9.9,3.3-11.8,8.1
				l-0.4,1.1L48,14.4c-0.3,0-0.5,0-0.8,0c-4.4,0-8.1,3.6-8.1,8.1s3.6,8.1,8.1,8.1h26.4c2.7,0,5-2.2,5-5C78.6,23.3,77.1,21.4,75,20.8
				z M67.5,28.3h-12v-1.9h-1.8V11.5h12v1.9h1.8V28.3z"/>
		</g>
	</g>
	<g>
		<g>
			<g>
				<path class="st0" d="M64.8,25.4H54.7V12.5h10.1V25.4z M55.6,24.5h8.2v-11h-8.2V24.5z"/>
			</g>
		</g>
		<g>
			<g>
				<path class="st0" d="M66.6,27.3H56.5v-2.9h7.4v-10h2.7V27.3z M57.4,26.4h8.2v-11h-0.8v10h-7.4V26.4z"/>
			</g>
		</g>
		<g>
			<g>
				<rect x="57.2" y="14.9" class="st0" width="5.1" height="0.9"/>
			</g>
		</g>
		<g>
			<g>
				<rect x="57.2" y="16.7" class="st0" width="5.1" height="0.9"/>
			</g>
		</g>
		<g>
			<g>
				<rect x="57.2" y="18.5" class="st0" width="5.1" height="0.9"/>
			</g>
		</g>
		<g>
			<g>
				<rect x="57.2" y="20.3" class="st0" width="5.1" height="0.9"/>
			</g>
		</g>
		<g>
			<g>
				<rect x="57.2" y="22" class="st0" width="2.7" height="0.9"/>
			</g>
		</g>
	</g>
	<g>
		<g>
			<path class="st0" d="M66.6,27.3H56.5v-1.9h-1.8V12.5h10.1v1.9h1.8V27.3z M57.4,26.4h8.2v-11h-1.8v-1.9h-8.2v11h1.8V26.4z"/>
		</g>
	</g>
	<g>
		<g>
			<path class="st0" d="M43.1,63.6L43,62.6c0.3,0,0.6-0.1,0.9-0.1l0.1,0.9C43.7,63.5,43.4,63.5,43.1,63.6z M45,63.3l-0.1-0.9
				c0.3,0,0.6-0.1,0.9-0.2l0.2,0.9C45.6,63.2,45.3,63.3,45,63.3z M46.8,63l-0.2-0.9c0.3-0.1,0.6-0.1,0.9-0.2l0.2,0.9
				C47.5,62.8,47.1,62.9,46.8,63z M48.7,62.5l-0.3-0.9c0.3-0.1,0.6-0.2,0.9-0.3l0.3,0.9C49.3,62.3,49,62.4,48.7,62.5z M50.5,61.9
				L50.2,61c0.3-0.1,0.6-0.2,0.9-0.3l0.4,0.9C51.1,61.6,50.8,61.8,50.5,61.9z M52.3,61.1l-0.4-0.9c0.3-0.1,0.6-0.3,0.8-0.4l0.4,0.8
				C52.8,60.9,52.5,61,52.3,61.1z M54,60.3l-0.4-0.8c0.3-0.1,0.5-0.3,0.8-0.5l0.5,0.8C54.5,60,54.2,60.1,54,60.3z M55.6,59.3
				l-0.5-0.8c0.3-0.2,0.5-0.3,0.8-0.5l0.5,0.8C56.1,59,55.9,59.1,55.6,59.3z M57.2,58.2l-0.6-0.8c0.2-0.2,0.5-0.4,0.7-0.6l0.6,0.7
				C57.7,57.8,57.4,58,57.2,58.2z M58.7,57l-0.6-0.7c0.2-0.2,0.5-0.4,0.7-0.6l0.6,0.7C59.2,56.6,58.9,56.8,58.7,57z M60.1,55.8
				l-0.7-0.7c0.2-0.2,0.4-0.4,0.7-0.7l0.7,0.7C60.5,55.3,60.3,55.5,60.1,55.8z M61.4,54.4l-0.7-0.6c0.2-0.2,0.4-0.5,0.6-0.7l0.7,0.6
				C61.8,53.9,61.6,54.2,61.4,54.4z M62.6,52.9l-0.7-0.6c0.2-0.2,0.4-0.5,0.6-0.7l0.8,0.6C63,52.4,62.8,52.7,62.6,52.9z M63.8,51.4
				L63,50.9c0.2-0.3,0.3-0.5,0.5-0.8l0.8,0.5C64.1,50.9,63.9,51.1,63.8,51.4z M64.8,49.8L64,49.3c0.2-0.3,0.3-0.5,0.5-0.8l0.8,0.4
				C65.1,49.2,64.9,49.5,64.8,49.8z M65.7,48.1l-0.8-0.4c0.1-0.3,0.3-0.6,0.4-0.8l0.9,0.4C66,47.6,65.8,47.8,65.7,48.1z M66.5,46.4
				L65.6,46c0.1-0.3,0.2-0.6,0.3-0.9l0.9,0.3C66.7,45.8,66.6,46.1,66.5,46.4z M67.1,44.6l-0.9-0.3c0.1-0.3,0.2-0.6,0.3-0.9l0.9,0.3
				C67.3,44,67.3,44.3,67.1,44.6z M67.7,42.8l-0.9-0.2c0.1-0.3,0.2-0.6,0.2-0.9l0.9,0.2C67.9,42.2,67.8,42.5,67.7,42.8z M68.1,40.9
				l-0.9-0.2c0.1-0.3,0.1-0.6,0.2-0.9l0.9,0.1C68.2,40.3,68.2,40.6,68.1,40.9z M68.4,39l-0.9-0.1c0-0.3,0.1-0.6,0.1-0.9l0.9,0.1
				C68.5,38.4,68.5,38.7,68.4,39z M68.6,37.1l-0.9-0.1c0-0.3,0-0.6,0-0.9l0.9,0C68.6,36.5,68.6,36.8,68.6,37.1z M67.7,35.3
				c0-0.3,0-0.6,0-0.9l0.9,0c0,0.3,0,0.6,0,1L67.7,35.3z"/>
		</g>
	</g>
	<g>
		<g>
			<path class="st0" d="M13.5,33.3l-0.9-0.1c0-0.3,0.1-0.6,0.1-0.9l0.9,0.1C13.5,32.7,13.5,33,13.5,33.3z M13.7,31.5l-0.9-0.1
				c0-0.3,0.1-0.6,0.2-0.9l0.9,0.2C13.8,30.9,13.7,31.2,13.7,31.5z M14,29.7l-0.9-0.2c0.1-0.3,0.1-0.6,0.2-0.9l0.9,0.2
				C14.2,29.1,14.1,29.4,14,29.7z M14.5,27.9l-0.9-0.3c0.1-0.3,0.2-0.6,0.3-0.9l0.9,0.3C14.7,27.3,14.6,27.6,14.5,27.9z M15.1,26.2
				l-0.9-0.3c0.1-0.3,0.2-0.6,0.3-0.9l0.9,0.4C15.3,25.6,15.2,25.9,15.1,26.2z M15.8,24.5l-0.9-0.4c0.1-0.3,0.3-0.6,0.4-0.9l0.8,0.4
				C16,23.9,15.9,24.2,15.8,24.5z M16.6,22.8l-0.8-0.4c0.1-0.3,0.3-0.6,0.5-0.8L17,22C16.9,22.3,16.7,22.5,16.6,22.8z M17.5,21.2
				l-0.8-0.5c0.2-0.3,0.3-0.5,0.5-0.8l0.8,0.5C17.8,20.7,17.7,21,17.5,21.2z M18.5,19.7l-0.8-0.6c0.2-0.3,0.4-0.5,0.6-0.8l0.7,0.6
				C18.9,19.2,18.7,19.4,18.5,19.7z M19.7,18.2L19,17.6c0.2-0.2,0.4-0.5,0.6-0.7l0.7,0.6C20.1,17.8,19.9,18,19.7,18.2z M20.9,16.9
				l-0.7-0.6c0.2-0.2,0.4-0.5,0.7-0.7l0.7,0.7C21.3,16.4,21.1,16.6,20.9,16.9z M22.2,15.6l-0.6-0.7c0.2-0.2,0.5-0.4,0.7-0.6l0.6,0.7
				C22.7,15.2,22.4,15.4,22.2,15.6z M23.6,14.4L23,13.6c0.2-0.2,0.5-0.4,0.8-0.6l0.6,0.8C24.1,14,23.9,14.2,23.6,14.4z M25.1,13.3
				l-0.5-0.8c0.3-0.2,0.5-0.4,0.8-0.5l0.5,0.8C25.6,12.9,25.3,13.1,25.1,13.3z M26.6,12.3l-0.5-0.8c0.3-0.2,0.5-0.3,0.8-0.5l0.5,0.8
				C27.2,12,26.9,12.1,26.6,12.3z M28.3,11.4l-0.4-0.8c0.3-0.1,0.6-0.3,0.9-0.4l0.4,0.8C28.8,11.1,28.5,11.2,28.3,11.4z M29.9,10.6
				l-0.4-0.9c0.3-0.1,0.6-0.2,0.9-0.4l0.3,0.9C30.5,10.4,30.2,10.5,29.9,10.6z M31.7,9.9l-0.3-0.9c0.3-0.1,0.6-0.2,0.9-0.3l0.3,0.9
				C32.2,9.7,31.9,9.8,31.7,9.9z M33.4,9.4l-0.2-0.9c0.3-0.1,0.6-0.2,0.9-0.2l0.2,0.9C34,9.2,33.7,9.3,33.4,9.4z M35.2,9L35,8.1
				C35.3,8,35.7,7.9,36,7.9l0.2,0.9C35.8,8.9,35.5,8.9,35.2,9z M45.3,8.9c-0.3-0.1-0.6-0.1-0.9-0.1l0.1-0.9c0.3,0,0.6,0.1,0.9,0.2
				L45.3,8.9z M37,8.7l-0.1-0.9c0.3,0,0.6-0.1,0.9-0.1l0.1,0.9C37.6,8.6,37.3,8.6,37,8.7z M43.5,8.6c-0.3,0-0.6-0.1-0.9-0.1l0.1-0.9
				c0.3,0,0.6,0.1,0.9,0.1L43.5,8.6z M38.9,8.5l-0.1-0.9c0.3,0,0.6,0,1,0l0,0.9C39.5,8.5,39.2,8.5,38.9,8.5z M41.6,8.5
				c-0.3,0-0.6,0-0.9,0l0-0.9c0.3,0,0.6,0,1,0L41.6,8.5z"/>
		</g>
	</g>
	<g>
		<g>
			<polygon class="st0" points="42.5,10.8 42,10 44.7,8.3 42.7,6 43.4,5.4 46.1,8.5 			"/>
		</g>
	</g>
	<g>
		<g>
			<polygon class="st0" points="45.7,65.4 42.3,63.2 45.1,60 45.8,60.6 43.7,63 46.2,64.7 			"/>
		</g>
	</g>
	<g>
		<g>
			<polygon class="st3" points="71.6,63.4 71.6,54.7 68.2,54.7 68.2,63.4 66.1,63.4 69.9,67 73.8,63.4 			"/>
		</g>
	</g>
	<g>
		<g>
			<path class="st0" d="M80.6,71.6H59.2v-5.3H64l2.3,1.8h7.4l2.3-1.8h4.7V71.6z M60.2,70.7h19.5v-3.5h-3.4L74,69.1h-8.1l-2.3-1.8
				h-3.4V70.7z"/>
		</g>
	</g>
	<g>
		<g>
			<g>
				<path class="st0" d="M1.4,6.1L0,2.9l0.3-0.2C2.9,0.9,6,0,9.2,0c3.2,0,6.3,0.9,8.9,2.7l0.3,0.2L17,6.1l-0.5-0.3
					c-2.1-1.5-4.7-2.4-7.3-2.4C6.5,3.4,4,4.3,1.9,5.8L1.4,6.1z M1.2,3.3l0.6,1.5C4,3.3,6.5,2.5,9.2,2.5c2.7,0,5.2,0.8,7.4,2.2
					l0.6-1.5c-2.4-1.5-5.2-2.3-8-2.3C6.3,0.9,3.6,1.7,1.2,3.3z"/>
			</g>
		</g>
	</g>
	<g>
		<g>
			<g>
				<path class="st0" d="M3.3,10.5L1.9,7.3L2.2,7c2.1-1.4,4.5-2.2,7-2.2c2.5,0,4.9,0.8,7,2.2l0.3,0.2l-1.4,3.3l-0.5-0.4
					C13.1,9,11.2,8.3,9.2,8.3c-2,0-3.9,0.7-5.5,1.9L3.3,10.5z M3,7.6l0.6,1.5C5.3,8,7.2,7.4,9.2,7.4c2,0,3.9,0.6,5.5,1.7l0.6-1.5
					c-1.8-1.2-4-1.8-6.2-1.8C7,5.8,4.9,6.4,3,7.6z"/>
			</g>
		</g>
	</g>
	<g>
		<g>
			<g>
				<path class="st0" d="M3.3,10.5L1.9,7.3L2.2,7c2.1-1.4,4.5-2.2,7-2.2c2.5,0,4.9,0.8,7,2.2l0.3,0.2l-1.4,3.3l-0.5-0.4
					C13.1,9,11.2,8.3,9.2,8.3c-2,0-3.9,0.7-5.5,1.9L3.3,10.5z M3,7.6l0.6,1.5C5.3,8,7.2,7.4,9.2,7.4c2,0,3.9,0.6,5.5,1.7l0.6-1.5
					c-1.8-1.2-4-1.8-6.2-1.8C7,5.8,4.9,6.4,3,7.6z"/>
			</g>
		</g>
	</g>
	<g>
		<g>
			<g>
				<path class="st0" d="M5.2,15.1l-1.4-3.4l0.3-0.2c1.5-1.1,3.2-1.7,5.1-1.7c1.9,0,3.6,0.6,5.1,1.7l0.3,0.2l-1.4,3.4l-0.5-0.5
					c-0.9-0.9-2.2-1.4-3.5-1.4c-1.3,0-2.5,0.5-3.5,1.4L5.2,15.1z M4.9,12.1l0.6,1.5c1-0.8,2.3-1.2,3.6-1.2c1.3,0,2.6,0.4,3.6,1.2
					l0.6-1.5c-1.2-0.9-2.7-1.3-4.3-1.3C7.7,10.7,6.2,11.2,4.9,12.1z"/>
			</g>
		</g>
	</g>
	<g>
		<g>
			<path class="st1" d="M11.3,17.7c0,1.2-0.9,2.1-2.1,2.1s-2.1-0.9-2.1-2.1c0-1.2,0.9-2.1,2.1-2.1S11.3,16.6,11.3,17.7z"/>
		</g>
	</g>
</g>
</svg>
