<?xml version="1.0" encoding="utf-8"?>
<!-- Generator: Adobe Illustrator 23.0.3, SVG Export Plug-In . SVG Version: 6.00 Build 0)  -->
<svg version="1.1" id="Layer_1" xmlns="http://www.w3.org/2000/svg" xmlns:xlink="http://www.w3.org/1999/xlink" x="0px" y="0px"
	 viewBox="0 0 425 270.3" style="enable-background:new 0 0 425 270.3;" xml:space="preserve">
<style type="text/css">
	.st0{fill:#4B5560;}
	.st1{fill:#737B8E;}
	.st2{fill:#F59192;}
	.st3{fill:#E8B180;}
	.st4{fill:#7EC1EA;}
	.st5{fill:#B4D8AB;}
	.st6{fill:#72CCE0;}
	.st7{fill:#3D3C5E;}
	.st8{fill:#F68E70;}
	.st9{fill:#FFFFFF;}
	.st10{fill:#F3FAFD;}
	.st11{fill:#E0E0DF;}
	.st12{fill:#FFD452;}
</style>
<g>
	<path class="st0" d="M401,67.5h-37.7c-0.4,0-0.8-0.2-1-0.6l-18.9-32.7c-0.2-0.3-0.2-0.8,0-1.1l18.9-32.7c0.3-0.5,1-0.7,1.5-0.4
		s0.7,1,0.4,1.5l-18.5,32.1l18.2,31.6h36.4l18.5-32.1c0.3-0.5,1-0.7,1.5-0.4c0.5,0.3,0.7,1,0.4,1.5L401.9,67
		C401.7,67.3,401.4,67.5,401,67.5z"/>
	<path class="st0" d="M344.3,100.2h-37.7c-0.4,0-0.8-0.2-1-0.6L286.8,67c-0.2-0.3-0.2-0.8,0-1.1l18.9-32.7c0.2-0.3,0.6-0.6,1-0.6
		h37.7c0.4,0,0.8,0.2,1,0.6l18.9,32.7c0.2,0.3,0.2,0.8,0,1.1l-18.9,32.7C345.1,100,344.7,100.2,344.3,100.2z M307.3,98h36.4
		l18.2-31.6l-18.2-31.6h-36.4L289,66.4L307.3,98z"/>
	<path class="st0" d="M401,132.9h-37.7c-0.4,0-0.8-0.2-1-0.6l-18.9-32.7c-0.2-0.3-0.2-0.8,0-1.1l18.9-32.7c0.2-0.3,0.6-0.6,1-0.6
		H401c0.4,0,0.8,0.2,1,0.6l18.9,32.7c0.3,0.5,0.1,1.2-0.4,1.5c-0.5,0.3-1.2,0.1-1.5-0.4l-18.5-32.1h-36.4l-18.2,31.6l18.2,31.6H401
		c0.6,0,1.1,0.5,1.1,1.1C402.1,132.4,401.6,132.9,401,132.9z"/>
	<path class="st0" d="M344.3,165.5h-37.7c-0.4,0-0.8-0.2-1-0.6l-18.9-32.7c-0.2-0.3-0.2-0.8,0-1.1l18.9-32.7c0.2-0.3,0.6-0.6,1-0.6
		h37.7c0.4,0,0.8,0.2,1,0.6l18.9,32.7c0.3,0.5,0.1,1.2-0.4,1.5c-0.5,0.3-1.2,0.1-1.5-0.4l-18.5-32.1h-36.4L289,131.8l18.2,31.6h37.1
		c0.6,0,1.1,0.5,1.1,1.1C345.4,165,345,165.5,344.3,165.5z"/>
	<path class="st0" d="M174.8,67.5h-37.7c-0.4,0-0.8-0.2-1-0.6l-18.9-32.7c-0.2-0.3-0.2-0.8,0-1.1l18.9-32.7c0.2-0.3,0.6-0.6,1-0.6
		h37.7c0.4,0,0.8,0.2,1,0.6l18.9,32.7c0.2,0.3,0.2,0.8,0,1.1L175.7,67C175.6,67.3,175.2,67.5,174.8,67.5z M137.7,65.3h36.4
		l18.2-31.6L174.2,2.2h-36.4l-18.2,31.6L137.7,65.3z"/>
	<path class="st0" d="M118.2,100.2H80.4c-0.4,0-0.8-0.2-1-0.6L60.6,67c-0.2-0.3-0.2-0.8,0-1.1l18.9-32.7c0.2-0.3,0.6-0.6,1-0.6h37.7
		c0.4,0,0.8,0.2,1,0.6L138,65.9c0.2,0.3,0.2,0.8,0,1.1l-18.9,32.7C118.9,100,118.5,100.2,118.2,100.2z M81.1,98h36.4l18.2-31.6
		l-18.2-31.6H81.1L62.9,66.4L81.1,98z"/>
	<path class="st0" d="M287.9,67.5h-37.7c-0.4,0-0.8-0.2-1-0.6l-18.9-32.7c-0.2-0.3-0.2-0.8,0-1.1l18.9-32.7c0.2-0.3,0.6-0.6,1-0.6
		h37.7c0.4,0,0.8,0.2,1,0.6l18.9,32.7c0.2,0.3,0.2,0.8,0,1.1L288.9,67C288.7,67.3,288.3,67.5,287.9,67.5z M250.8,65.3h36.4
		l18.2-31.6L287.3,2.2h-36.4l-18.2,31.6L250.8,65.3z"/>
	<path class="st0" d="M231.3,100.2h-37.7c-0.4,0-0.8-0.2-1-0.6L173.8,67c-0.2-0.3-0.2-0.8,0-1.1l18.9-32.7c0.2-0.3,0.6-0.6,1-0.6
		h37.7c0.4,0,0.8,0.2,1,0.6l18.9,32.7c0.2,0.3,0.2,0.8,0,1.1l-18.9,32.7C232,100,231.7,100.2,231.3,100.2z M194.2,98h36.4l18.2-31.6
		l-18.2-31.6h-36.4L176,66.4L194.2,98z"/>
	<path class="st0" d="M174.8,132.9h-37.7c-0.4,0-0.8-0.2-1-0.6l-18.9-32.7c-0.2-0.3-0.2-0.8,0-1.1l18.9-32.7c0.2-0.3,0.6-0.6,1-0.6
		h37.7c0.4,0,0.8,0.2,1,0.6l18.9,32.7c0.2,0.3,0.2,0.8,0,1.1l-18.9,32.7C175.6,132.6,175.2,132.9,174.8,132.9z M137.7,130.6h36.4
		l18.2-31.6l-18.2-31.6h-36.4l-18.2,31.6L137.7,130.6z"/>
	<path class="st0" d="M118.2,165.5H80.4c-0.6,0-1.1-0.5-1.1-1.1c0-0.6,0.5-1.1,1.1-1.1h37.1l18.2-31.6l-18.2-31.6H81.1l-18.5,32.1
		c-0.3,0.5-1,0.7-1.5,0.4c-0.5-0.3-0.7-1-0.4-1.5l18.9-32.7c0.2-0.3,0.6-0.6,1-0.6h37.7c0.4,0,0.8,0.2,1,0.6l18.9,32.7
		c0.2,0.3,0.2,0.8,0,1.1L119.1,165C118.9,165.3,118.5,165.5,118.2,165.5z"/>
	<path class="st0" d="M287.9,132.9h-37.7c-0.4,0-0.8-0.2-1-0.6l-18.9-32.7c-0.2-0.3-0.2-0.8,0-1.1l18.9-32.7c0.2-0.3,0.6-0.6,1-0.6
		h37.7c0.4,0,0.8,0.2,1,0.6l18.9,32.7c0.2,0.3,0.2,0.8,0,1.1l-18.9,32.7C288.7,132.6,288.3,132.9,287.9,132.9z M250.8,130.6h36.4
		l18.2-31.6l-18.2-31.6h-36.4l-18.2,31.6L250.8,130.6z"/>
	<path class="st0" d="M61.7,67.5H24c-0.4,0-0.8-0.2-1-0.6L4.2,34.3c-0.3-0.5-0.1-1.2,0.4-1.5c0.5-0.3,1.2-0.1,1.5,0.4l18.5,32.1
		h36.4l18.2-31.6L60.8,1.7c-0.3-0.5-0.1-1.2,0.4-1.5c0.5-0.3,1.2-0.1,1.5,0.4l18.9,32.7c0.2,0.3,0.2,0.8,0,1.1L62.7,67
		C62.5,67.3,62.1,67.5,61.7,67.5z"/>
	<path class="st0" d="M61.7,132.9H24c-0.6,0-1.1-0.5-1.1-1.1c0-0.6,0.5-1.1,1.1-1.1h37.1l18.2-31.6L61.1,67.5H24.7L6.1,99.6
		c-0.3,0.5-1,0.7-1.5,0.4c-0.5-0.3-0.7-1-0.4-1.5l18.9-32.7c0.2-0.3,0.6-0.6,1-0.6h37.7c0.4,0,0.8,0.2,1,0.6l18.9,32.7
		c0.2,0.3,0.2,0.8,0,1.1l-18.9,32.7C62.5,132.6,62.1,132.9,61.7,132.9z"/>
	<g>
		<g>
			<path class="st1" d="M251.5,37.4c0,0.8-0.5,1.4-1.3,1.4c-0.7,0-1.3-0.6-1.3-1.4c0-0.8,0.6-1.3,1.3-1.3
				C250.9,36,251.5,36.6,251.5,37.4z"/>
			<path class="st1" d="M261.3,31.3l-1.8,1.3c-0.5-0.6-1.2-1-2.1-1c-1.3,0-2.2,1-2.2,2.5c0,1.5,0.9,2.5,2.2,2.5
				c0.9,0,1.7-0.4,2.1-1.1l1.8,1.2c-0.8,1.3-2.2,2-4.1,2c-2.8,0-4.7-1.9-4.7-4.7c0-2.8,1.9-4.7,4.7-4.7
				C259.1,29.3,260.5,30,261.3,31.3z"/>
			<path class="st1" d="M271.8,34c0,2.8-2,4.7-4.9,4.7c-2.9,0-4.9-1.9-4.9-4.7c0-2.8,2-4.7,4.9-4.7C269.8,29.3,271.8,31.2,271.8,34z
				 M264.6,34c0,1.5,0.9,2.5,2.3,2.5c1.3,0,2.3-1,2.3-2.5c0-1.5-0.9-2.5-2.3-2.5C265.5,31.5,264.6,32.5,264.6,34z"/>
			<path class="st1" d="M289,32.8v5.8h-2.6v-5c0-1.2-0.7-1.9-1.8-1.9c-1.3,0-2,1-2,2.3v4.5h-2.6v-5c0-1.2-0.7-1.9-1.8-1.9
				c-1.3,0-2,1-2,2.3v4.5h-2.6v-9.2h2.6V31c0.6-1.1,1.7-1.7,3.1-1.7c1.6,0,2.7,0.8,3.1,2.1c0.6-1.4,1.8-2.1,3.3-2.1
				C287.7,29.3,289,30.7,289,32.8z"/>
		</g>
	</g>
	<g>
		<g>
			<path class="st2" d="M35.9,102.7c0,0.8-0.5,1.4-1.3,1.4c-0.7,0-1.3-0.6-1.3-1.4c0-0.8,0.6-1.3,1.3-1.3
				C35.3,101.4,35.9,101.9,35.9,102.7z"/>
			<path class="st2" d="M40.6,92.1c0,0.9-0.6,1.5-1.4,1.5s-1.4-0.6-1.4-1.5s0.6-1.5,1.4-1.5S40.6,91.3,40.6,92.1z M37.9,103.9v-9.2
				h2.6v9.2H37.9z"/>
			<path class="st2" d="M52.2,98.2v5.8h-2.6v-5c0-1.2-0.7-1.9-1.8-1.9c-1.3,0-2.1,1-2.1,2.4v4.5H43v-9.2h2.6v1.6
				c0.6-1.1,1.7-1.7,3.2-1.7C50.8,94.6,52.2,96,52.2,98.2z"/>
		</g>
	</g>
	<g>
		<path class="st2" d="M310.2,70c0,0.8-0.5,1.4-1.3,1.4c-0.7,0-1.3-0.6-1.3-1.4c0-0.8,0.6-1.3,1.3-1.3
			C309.7,68.7,310.2,69.2,310.2,70z"/>
		<path class="st2" d="M320.6,67.5h-6.6c0.3,1.2,1.2,1.8,2.4,1.8c0.9,0,1.7-0.3,2.3-1l1.4,1.4c-0.9,1-2.3,1.6-3.9,1.6
			c-2.9,0-4.8-1.9-4.8-4.7c0-2.8,1.9-4.7,4.7-4.7C319.4,62,320.9,64.1,320.6,67.5z M318.2,65.9c0-1.2-0.8-2-2-2
			c-1.2,0-1.9,0.8-2.1,2H318.2z"/>
		<path class="st2" d="M331.4,71.3h-2.6v-1.3c-0.6,0.9-1.6,1.4-2.9,1.4c-2.6,0-4.3-1.9-4.3-4.7c0-2.8,1.7-4.7,4.3-4.7
			c1.3,0,2.3,0.5,3,1.4v-4.8h2.6V71.3z M328.8,66.7c0-1.5-0.9-2.5-2.3-2.5c-1.4,0-2.3,1.1-2.3,2.5c0,1.5,0.9,2.5,2.3,2.5
			C327.9,69.2,328.8,68.2,328.8,66.7z"/>
		<path class="st2" d="M342.8,71.3h-2.6v-1.6c-0.6,1.2-1.7,1.7-3.1,1.7c-2,0-3.3-1.3-3.3-3.5v-5.8h2.6v5c0,1.2,0.7,1.9,1.7,1.9
			c1.3,0,2-1,2-2.3v-4.5h2.6V71.3z"/>
	</g>
	<g>
		<path class="st1" d="M369,102.7c0,0.8-0.5,1.4-1.3,1.4c-0.7,0-1.3-0.6-1.3-1.4c0-0.8,0.6-1.3,1.3-1.3
			C368.5,101.4,369,101.9,369,102.7z"/>
		<path class="st1" d="M380.1,98.2v5.8h-2.6v-5c0-1.2-0.7-1.9-1.8-1.9c-1.3,0-2.1,1-2.1,2.4v4.5H371v-9.2h2.6v1.6
			c0.6-1.1,1.7-1.7,3.2-1.7C378.8,94.6,380.1,96,380.1,98.2z"/>
		<path class="st1" d="M390.8,100.1h-6.6c0.3,1.2,1.2,1.8,2.4,1.8c0.9,0,1.7-0.3,2.3-1l1.4,1.4c-0.9,1-2.3,1.6-3.9,1.6
			c-2.9,0-4.8-1.9-4.8-4.7c0-2.8,1.9-4.7,4.7-4.7C389.5,94.7,391,96.8,390.8,100.1z M388.4,98.6c0-1.2-0.8-2-2-2
			c-1.2,0-1.9,0.8-2.1,2H388.4z"/>
		<path class="st1" d="M398.2,103.4c-0.7,0.4-1.5,0.6-2.4,0.6c-1.6,0-2.9-0.9-2.9-2.8V97h-1.3v-1.8h1.3v-2.5h2.6v2.5h2.5V97h-2.5
			v3.8c0,0.8,0.3,1.1,0.9,1.1c0.3,0,0.8-0.1,1.2-0.3L398.2,103.4z"/>
	</g>
	<g>
		<g>
			<path class="st3" d="M198.2,70c0,0.8-0.5,1.4-1.3,1.4c-0.7,0-1.3-0.6-1.3-1.4c0-0.8,0.6-1.3,1.3-1.3
				C197.7,68.7,198.2,69.2,198.2,70z"/>
			<path class="st3" d="M208.7,70.4c0,2.6-2,4.3-4.9,4.3c-1.6,0-2.9-0.5-4-1.2l1-1.8c0.8,0.6,1.8,0.9,2.8,0.9c1.5,0,2.5-0.8,2.5-2
				v-1c-0.6,0.9-1.6,1.3-2.8,1.3c-2.4,0-4-1.8-4-4.4c0-2.6,1.6-4.3,3.9-4.3c1.2,0,2.2,0.5,2.8,1.3v-1.2h2.6V70.4z M206.1,66.4
				c0-1.4-0.9-2.4-2.1-2.4c-1.3,0-2.1,1-2.2,2.4c0,1.4,0.9,2.4,2.2,2.4C205.3,68.8,206.1,67.8,206.1,66.4z"/>
			<path class="st3" d="M220.2,66.7c0,2.8-2,4.7-4.9,4.7c-2.9,0-4.9-1.9-4.9-4.7c0-2.8,2-4.7,4.9-4.7
				C218.2,62,220.2,63.9,220.2,66.7z M213,66.7c0,1.5,0.9,2.5,2.3,2.5c1.3,0,2.3-1,2.3-2.5c0-1.5-0.9-2.5-2.3-2.5
				C213.9,64.2,213,65.2,213,66.7z"/>
			<path class="st3" d="M223.8,71.3l-3.5-9.2l2.7,0l2.2,6.7l2.1-6.7h2.6l-3.5,9.2H223.8z"/>
		</g>
	</g>
	<g>
		<path class="st4" d="M86.2,70c0,0.8-0.5,1.4-1.3,1.4c-0.7,0-1.3-0.6-1.3-1.4c0-0.8,0.6-1.3,1.3-1.3C85.6,68.7,86.2,69.2,86.2,70z"
			/>
		<path class="st4" d="M97.2,66.7c0,2.8-2,4.7-4.9,4.7c-2.9,0-4.9-1.9-4.9-4.7c0-2.8,2-4.7,4.9-4.7C95.2,62,97.2,63.9,97.2,66.7z
			 M90,66.7c0,1.5,0.9,2.5,2.3,2.5c1.3,0,2.3-1,2.3-2.5c0-1.5-0.9-2.5-2.3-2.5C90.9,64.2,90,65.2,90,66.7z"/>
		<path class="st4" d="M101.5,63.7c0.6-1.1,1.7-1.7,3-1.8v2.5c-1.9-0.2-3,0.8-3,2.4v4.4h-2.6v-9.2h2.6V63.7z"/>
		<path class="st4" d="M114.6,70.4c0,2.6-2,4.3-4.9,4.3c-1.6,0-2.9-0.5-4-1.2l1-1.8c0.8,0.6,1.8,0.9,2.8,0.9c1.5,0,2.5-0.8,2.5-2v-1
			c-0.6,0.9-1.6,1.3-2.8,1.3c-2.4,0-4-1.8-4-4.4c0-2.6,1.6-4.3,3.9-4.3c1.2,0,2.2,0.5,2.8,1.3v-1.2h2.6V70.4z M112,66.4
			c0-1.4-0.9-2.4-2.1-2.4c-1.3,0-2.1,1-2.2,2.4c0,1.4,0.9,2.4,2.2,2.4C111.1,68.8,112,67.8,112,66.4z"/>
	</g>
	<g>
		<g>
			<path class="st5" d="M313.7,135.4c0,0.8-0.5,1.4-1.3,1.4c-0.7,0-1.3-0.6-1.3-1.4c0-0.8,0.6-1.3,1.3-1.3
				C313.2,134,313.7,134.6,313.7,135.4z"/>
			<path class="st5" d="M325.6,132c0,2.8-1.7,4.6-4.3,4.6c-1.3,0-2.3-0.5-2.9-1.4v1.3h-2.6v-12.6h2.6v4.8c0.6-0.9,1.7-1.4,2.9-1.4
				C323.9,127.3,325.6,129.2,325.6,132z M322.9,132c0-1.5-0.9-2.5-2.3-2.5c-1.3,0-2.3,1-2.3,2.5c0,1.5,0.9,2.5,2.3,2.5
				C322,134.5,322.9,133.5,322.9,132z"/>
			<path class="st5" d="M330.1,124.8c0,0.9-0.6,1.5-1.4,1.5s-1.4-0.6-1.4-1.5c0-0.9,0.6-1.5,1.4-1.5S330.1,123.9,330.1,124.8z
				 M327.3,136.6v-9.2h2.6v9.2H327.3z"/>
			<path class="st5" d="M335.1,134.5h4.9v2.1l-8.1,0v-1.7l4.7-5.4l-4.6,0v-2h7.8v1.7L335.1,134.5z"/>
		</g>
	</g>
	<g>
		<path class="st5" d="M140.5,37.4c0,0.8-0.5,1.4-1.3,1.4c-0.7,0-1.3-0.6-1.3-1.4c0-0.8,0.6-1.3,1.3-1.3
			C139.9,36,140.5,36.6,140.5,37.4z"/>
		<path class="st5" d="M145.2,26.8c0,0.9-0.6,1.5-1.4,1.5s-1.4-0.6-1.4-1.5c0-0.9,0.6-1.5,1.4-1.5S145.2,26,145.2,26.8z M142.4,38.6
			v-9.2h2.6v9.2H142.4z"/>
		<path class="st5" d="M156.7,32.8v5.8h-2.6v-5c0-1.2-0.7-1.9-1.8-1.9c-1.3,0-2.1,1-2.1,2.4v4.5h-2.6v-9.2h2.6V31
			c0.6-1.1,1.7-1.7,3.2-1.7C155.4,29.3,156.7,30.7,156.7,32.8z"/>
		<path class="st5" d="M162.1,29.1v0.8h2.2v1.8h-2.2v6.9h-2.6v-6.9h-1.2v-1.8h1.2V29c0-2,1.5-3.1,3.4-3.1c0.9,0,1.8,0.2,2.4,0.6
			l-0.9,1.9c-0.3-0.3-0.8-0.4-1.1-0.4C162.6,28,162.1,28.3,162.1,29.1z"/>
		<path class="st5" d="M174.2,34c0,2.8-2,4.7-4.9,4.7c-2.9,0-4.9-1.9-4.9-4.7c0-2.8,2-4.7,4.9-4.7C172.2,29.3,174.2,31.2,174.2,34z
			 M167,34c0,1.5,0.9,2.5,2.3,2.5c1.3,0,2.3-1,2.3-2.5c0-1.5-0.9-2.5-2.3-2.5C168,31.5,167,32.5,167,34z"/>
	</g>
	<g>
		<path class="st6" d="M53.3,254.8H35.4c-0.6,0-1.1-0.5-1.1-1.1s0.5-1.1,1.1-1.1h17.9c0.6,0,1.1,0.5,1.1,1.1S53.9,254.8,53.3,254.8z
			"/>
		<path class="st6" d="M97.7,254.8H59c-0.6,0-1.1-0.5-1.1-1.1s0.5-1.1,1.1-1.1h38.7c0.6,0,1.1,0.5,1.1,1.1S98.3,254.8,97.7,254.8z"
			/>
		<path class="st6" d="M62.9,260.2H45.6c-0.6,0-1.1-0.5-1.1-1.1s0.5-1.1,1.1-1.1h17.3c0.6,0,1.1,0.5,1.1,1.1S63.5,260.2,62.9,260.2z
			"/>
		<path class="st6" d="M92.4,260.2H68.6c-0.6,0-1.1-0.5-1.1-1.1s0.5-1.1,1.1-1.1h23.8c0.6,0,1.1,0.5,1.1,1.1S93,260.2,92.4,260.2z"
			/>
		<path class="st6" d="M97.7,265.7h-8.9c-0.6,0-1.1-0.5-1.1-1.1s0.5-1.1,1.1-1.1h8.9c0.6,0,1.1,0.5,1.1,1.1S98.3,265.7,97.7,265.7z"
			/>
		<path class="st6" d="M83.4,265.7h-22c-0.6,0-1.1-0.5-1.1-1.1s0.5-1.1,1.1-1.1h22c0.6,0,1.1,0.5,1.1,1.1S84,265.7,83.4,265.7z"/>
	</g>
	<path class="st0" d="M97.7,270.3H30.4c-6.2,0-11.2-5-11.2-11.2c0-6.2,5-11.2,11.2-11.2h67.3c0.6,0,1.1,0.5,1.1,1.1v20.1
		C98.8,269.8,98.3,270.3,97.7,270.3z M30.4,250.2c-4.9,0-9,4-9,9c0,4.9,4,9,9,9h66.2v-17.9H30.4z"/>
	<path class="st0" d="M105.4,250.2H93.1c-0.6,0-1.1-0.5-1.1-1.1s0.5-1.1,1.1-1.1h12.3c0.6,0,1.1,0.5,1.1,1.1S106,250.2,105.4,250.2z
		"/>
	<path class="st7" d="M105.4,270.3H93.1c-0.6,0-1.1-0.5-1.1-1.1c0-0.6,0.5-1.1,1.1-1.1h12.3c0.6,0,1.1,0.5,1.1,1.1
		C106.5,269.8,106,270.3,105.4,270.3z"/>
	<polygon class="st8" points="89.5,265.9 83.4,263.4 77.3,265.9 77.3,253.7 89.5,253.7 	"/>
	<path class="st0" d="M89.5,267c-0.1,0-0.3,0-0.4-0.1l-5.7-2.3l-5.7,2.3c-0.3,0.1-0.7,0.1-1-0.1c-0.3-0.2-0.5-0.5-0.5-0.9v-12.2
		c0-0.6,0.5-1.1,1.1-1.1h12.3c0.6,0,1.1,0.5,1.1,1.1v12.2c0,0.4-0.2,0.7-0.5,0.9C90,266.9,89.8,267,89.5,267z M83.4,262.3
		c0.1,0,0.3,0,0.4,0.1l4.6,1.9v-9.5H78.4v9.5l4.6-1.9C83.1,262.3,83.3,262.3,83.4,262.3z"/>
	<path class="st0" d="M311,233.7H114c-3.3,0-6.1-2.7-6.1-6.1V91.1c0-3.3,2.7-6.1,6.1-6.1H311c3.3,0,6.1,2.7,6.1,6.1v136.6
		C317.1,231,314.4,233.7,311,233.7z M114,87.2c-2.1,0-3.9,1.7-3.9,3.9v136.6c0,2.1,1.7,3.9,3.9,3.9H311c2.1,0,3.9-1.7,3.9-3.9V91.1
		c0-2.1-1.7-3.9-3.9-3.9H114z"/>
	<path class="st9" d="M109,91.1v126.1h207V91.1c0-2.7-2.2-5-5-5H114C111.2,86.1,109,88.3,109,91.1z"/>
	<path class="st0" d="M316,218.3H109c-0.6,0-1.1-0.5-1.1-1.1V91.1c0-3.3,2.7-6.1,6.1-6.1H311c3.3,0,6.1,2.7,6.1,6.1v126.1
		C317.1,217.8,316.6,218.3,316,218.3z M110.1,216.1h204.8v-125c0-2.1-1.7-3.9-3.9-3.9H114c-2.1,0-3.9,1.7-3.9,3.9V216.1z"/>
	<rect x="119.5" y="96.6" class="st9" width="186.1" height="110.2"/>
	<path class="st6" d="M276.9,206.7H148.1c0.3-2.8,0.8-5.6,1.5-8.3c2.5-10.2,7.4-19.4,14.1-27c11.9-13.6,29.4-22.2,48.8-22.2
		c19.5,0,36.9,8.6,48.8,22.2c6.7,7.6,11.6,16.8,14.1,27C276.1,201.1,276.6,203.9,276.9,206.7z"/>
	<g>
		<path class="st0" d="M276.9,207.8H148.1c-0.3,0-0.6-0.1-0.8-0.4c-0.2-0.2-0.3-0.5-0.3-0.9c0.3-2.8,0.8-5.7,1.5-8.4
			c2.5-10.1,7.5-19.6,14.4-27.4c12.5-14.3,30.6-22.5,49.7-22.5c19,0,37.1,8.2,49.7,22.5c6.9,7.9,11.8,17.4,14.4,27.4
			c0.7,2.7,1.2,5.6,1.5,8.4c0,0.3-0.1,0.6-0.3,0.9C277.6,207.7,277.3,207.8,276.9,207.8z M149.3,205.6h126.4
			c-0.3-2.3-0.8-4.7-1.3-6.9c-2.4-9.8-7.2-18.9-13.9-26.5c-12.1-13.8-29.6-21.8-48-21.8c-18.4,0-35.9,7.9-48,21.8
			c-6.7,7.6-11.5,16.8-13.9,26.5C150.1,201,149.6,203.3,149.3,205.6z"/>
		<path class="st0" d="M243.4,207.8h-61.8c-0.3,0-0.6-0.1-0.8-0.3c-0.2-0.2-0.3-0.5-0.3-0.8c0.1-2.8,0.4-5.6,0.7-8.4
			c1.2-10,3.6-19.5,6.9-27.3c6.1-14.5,15-22.8,24.4-22.8c9.4,0,18.3,8.3,24.4,22.8c3.3,7.8,5.7,17.3,6.9,27.3
			c0.3,2.8,0.6,5.6,0.7,8.4c0,0.3-0.1,0.6-0.3,0.8C244,207.7,243.7,207.8,243.4,207.8z M182.8,205.6h59.5c-0.1-2.4-0.4-4.7-0.6-7.1
			c-1.2-9.8-3.5-19-6.7-26.7c-5.7-13.7-13.9-21.5-22.4-21.5c-8.5,0-16.7,7.8-22.4,21.5c-3.2,7.6-5.5,16.9-6.7,26.7
			C183.1,200.9,182.9,203.3,182.8,205.6z"/>
		<path class="st0" d="M275.4,199.5H149.6c-0.6,0-1.1-0.5-1.1-1.1s0.5-1.1,1.1-1.1h125.9c0.6,0,1.1,0.5,1.1,1.1
			S276.1,199.5,275.4,199.5z"/>
		<path class="st0" d="M261.3,172.6h-97.7c-0.6,0-1.1-0.5-1.1-1.1c0-0.6,0.5-1.1,1.1-1.1h97.7c0.6,0,1.1,0.5,1.1,1.1
			C262.4,172.1,261.9,172.6,261.3,172.6z"/>
		<path class="st0" d="M212.5,207.8c-0.6,0-1.1-0.5-1.1-1.1v-57.4c0-0.6,0.5-1.1,1.1-1.1s1.1,0.5,1.1,1.1v57.4
			C213.6,207.3,213.1,207.8,212.5,207.8z"/>
	</g>
	<path class="st0" d="M305.5,207.8H119.5c-0.6,0-1.1-0.5-1.1-1.1V96.6c0-0.6,0.5-1.1,1.1-1.1h186.1c0.6,0,1.1,0.5,1.1,1.1v110.2
		C306.6,207.3,306.1,207.8,305.5,207.8z M120.6,205.6h183.9v-108H120.6V205.6z"/>
	<path class="st0" d="M232.6,262.6h-40.2c-0.3,0-0.7-0.2-0.9-0.4c-0.2-0.3-0.3-0.6-0.2-0.9l6.6-28.9c0.1-0.5,0.6-0.9,1.1-0.9h27
		c0.5,0,1,0.4,1.1,0.9l6.6,28.9c0.1,0.3,0,0.7-0.2,0.9C233.3,262.4,232.9,262.6,232.6,262.6z M193.8,260.4h37.4l-6.1-26.7h-25.2
		L193.8,260.4z"/>
	<path class="st10" d="M187.5,260.4c-4,0-7.2,3.2-7.2,7.2v1.3h64.4v-1.4c0-3.9-3.2-7.1-7.1-7.1H187.5z"/>
	<path class="st0" d="M244.7,270h-64.4c-0.6,0-1.1-0.5-1.1-1.1v-1.3c0-4.6,3.7-8.3,8.3-8.3h50c4.6,0,8.3,3.7,8.3,8.3v1.3
		C245.8,269.5,245.3,270,244.7,270z M181.4,267.8h62.2v-0.2c0-3.4-2.7-6.1-6.1-6.1h-50c-3.4,0-6.1,2.7-6.1,6.1V267.8z"/>
	<path class="st0" d="M423.9,270H1.1c-0.6,0-1.1-0.5-1.1-1.1s0.5-1.1,1.1-1.1h422.8c0.6,0,1.1,0.5,1.1,1.1S424.5,270,423.9,270z"/>
	<g>
		<path class="st0" d="M316,270h-34.7c-0.6,0-1.1-0.5-1.1-1.1v-0.8c0-4.1,3.1-7.8,7.6-8.9c7.2-1.8,14.5-1.8,21.6,0l0,0
			c4.5,1.1,7.6,4.8,7.6,8.9v0.8C317.1,269.5,316.6,270,316,270z M282.4,267.8h32.5c-0.2-3-2.6-5.6-6-6.4l0,0
			c-6.8-1.7-13.8-1.7-20.6,0C284.9,262.2,282.5,264.9,282.4,267.8z"/>
	</g>
	<rect x="155.9" y="264.4" class="st10" width="113.2" height="4.5"/>
	<path class="st0" d="M269.1,270H155.9c-0.6,0-1.1-0.5-1.1-1.1v-4.5c0-0.6,0.5-1.1,1.1-1.1h113.2c0.6,0,1.1,0.5,1.1,1.1v4.5
		C270.2,269.5,269.7,270,269.1,270z M157,267.8h111v-2.3H157V267.8z"/>
	<g>
		<g>
			<path class="st5" d="M375.4,253.3c5.5-8.3,11.5-20.1,16.8-33.6c5.3-13.5,9-26.3,10.6-36.1c-5.5,8.3-11.5,20.1-16.8,33.6
				S377,243.5,375.4,253.3z"/>
			<path class="st7" d="M375.4,254.4c-0.1,0-0.3,0-0.4-0.1c-0.5-0.2-0.8-0.7-0.7-1.2c1.7-10.3,5.5-23.2,10.7-36.3
				c5.2-13.1,11.2-25.1,16.9-33.8c0.3-0.4,0.8-0.6,1.3-0.4c0.5,0.2,0.8,0.7,0.7,1.2c-1.7,10.3-5.5,23.2-10.7,36.3
				c-5.2,13.1-11.2,25.1-16.9,33.8C376.1,254.2,375.7,254.4,375.4,254.4z M400.6,189.2c-4.7,7.9-9.4,17.8-13.6,28.4
				c-4.2,10.6-7.4,21-9.4,30c4.7-7.9,9.4-17.8,13.6-28.4C395.4,208.7,398.6,198.2,400.6,189.2z"/>
		</g>
		<g>
			<path class="st5" d="M377.7,253.3c-5.5-8.3-11.5-20.1-16.8-33.6c-5.3-13.5-9-26.3-10.6-36.1c5.5,8.3,11.5,20.1,16.8,33.6
				S376.1,243.5,377.7,253.3z"/>
			<path class="st7" d="M377.7,254.4c-0.4,0-0.7-0.2-0.9-0.5c-5.8-8.7-11.8-20.7-16.9-33.8c-5.2-13.1-9-26-10.7-36.3
				c-0.1-0.5,0.2-1,0.7-1.2c0.5-0.2,1,0,1.3,0.4c5.8,8.7,11.8,20.7,16.9,33.8c5.2,13.1,9,26,10.7,36.3c0.1,0.5-0.2,1-0.7,1.2
				C378,254.4,377.9,254.4,377.7,254.4z M352.5,189.2c2,9,5.2,19.4,9.4,30c4.2,10.6,8.9,20.5,13.6,28.4c-2-9-5.2-19.4-9.4-30
				C361.9,207,357.2,197.2,352.5,189.2z"/>
		</g>
	</g>
	<g>
		<path class="st5" d="M376.6,259c2.1-13.6,3.3-31.9,3.3-52.2s-1.3-38.6-3.3-52.2c-2.1,13.6-3.3,31.9-3.3,52.2
			S374.5,245.4,376.6,259z"/>
		<path class="st7" d="M376.6,260.1c-0.5,0-1-0.4-1.1-0.9c-2.2-14.2-3.4-32.8-3.4-52.3c0-19.6,1.2-38.2,3.4-52.3
			c0.1-0.5,0.5-0.9,1.1-0.9c0.5,0,1,0.4,1.1,0.9c2.2,14.2,3.4,32.8,3.4,52.3c0,19.6-1.2,38.2-3.4,52.3
			C377.6,259.7,377.1,260.1,376.6,260.1z M376.6,163c-1.5,12.7-2.2,27.9-2.2,43.8c0,15.9,0.8,31.1,2.2,43.8
			c1.5-12.7,2.2-27.9,2.2-43.8C378.8,191,378,175.7,376.6,163z"/>
	</g>
	<g>
		<path class="st5" d="M375.3,262.1c4.4-13,8.9-30.9,12.5-50.8c3.6-19.9,5.5-38.2,5.9-52c-4.4,13-8.9,30.9-12.5,50.8
			C377.6,230,375.7,248.3,375.3,262.1z"/>
		<path class="st7" d="M375.3,263.2c-0.1,0-0.1,0-0.2,0c-0.5-0.1-0.9-0.6-0.9-1.1c0.4-14.3,2.5-32.8,5.9-52.1
			c3.4-19.3,7.9-37.4,12.5-50.9c0.2-0.5,0.7-0.8,1.2-0.7c0.5,0.1,0.9,0.6,0.9,1.1c-0.4,14.3-2.5,32.8-5.9,52.1
			c-3.4,19.3-7.9,37.4-12.5,50.9C376.2,262.9,375.8,263.2,375.3,263.2z M392.2,167.6c-3.7,12.3-7.1,27.1-9.9,42.7
			c-2.8,15.6-4.7,30.7-5.5,43.5c3.7-12.3,7.1-27.1,9.9-42.7C389.5,195.5,391.4,180.3,392.2,167.6z"/>
	</g>
	<g>
		<path class="st5" d="M377.8,262.1c-4.4-13-8.9-30.9-12.5-50.8c-3.6-19.9-5.5-38.2-5.9-52c4.4,13,8.9,30.9,12.5,50.8
			C375.5,230,377.5,248.3,377.8,262.1z"/>
		<path class="st7" d="M377.8,263.2c-0.5,0-0.9-0.3-1-0.7c-4.6-13.6-9.1-31.7-12.5-50.9c-3.4-19.3-5.5-37.8-5.9-52.1
			c0-0.5,0.4-1,0.9-1.1c0.5-0.1,1.1,0.2,1.2,0.7c4.6,13.6,9.1,31.7,12.5,50.9c3.4,19.3,5.5,37.8,5.9,52.1c0,0.5-0.4,1-0.9,1.1
			C377.9,263.2,377.9,263.2,377.8,263.2z M360.9,167.6c0.8,12.8,2.7,27.9,5.5,43.5c2.8,15.6,6.3,30.5,9.9,42.7
			c-0.8-12.8-2.7-27.9-5.5-43.5C368,194.7,364.6,179.8,360.9,167.6z"/>
	</g>
	<rect x="353.6" y="224.1" class="st11" width="45.9" height="12.3"/>
	<path class="st0" d="M399.5,237.5h-45.9c-0.6,0-1.1-0.5-1.1-1.1v-12.3c0-0.6,0.5-1.1,1.1-1.1h45.9c0.6,0,1.1,0.5,1.1,1.1v12.3
		C400.6,237,400.1,237.5,399.5,237.5z M354.7,235.3h43.7v-10.1h-43.7V235.3z"/>
	<polygon class="st11" points="360.8,268.9 357.5,236.4 395.6,236.4 392.3,268.9 	"/>
	<path class="st0" d="M392.3,270h-31.6c-0.6,0-1-0.4-1.1-1l-3.3-32.4c0-0.3,0.1-0.6,0.3-0.8c0.2-0.2,0.5-0.4,0.8-0.4h38.2
		c0.3,0,0.6,0.1,0.8,0.4c0.2,0.2,0.3,0.5,0.3,0.8l-3.3,32.4C393.4,269.5,392.9,270,392.3,270z M361.8,267.8h29.6l3.1-30.2h-35.7
		L361.8,267.8z"/>
	<path class="st0" d="M394.8,246.1h-16.5c-0.6,0-1.1-0.5-1.1-1.1c0-0.6,0.5-1.1,1.1-1.1h16.5c0.6,0,1.1,0.5,1.1,1.1
		C395.9,245.6,395.4,246.1,394.8,246.1z"/>
	<path class="st0" d="M385,252.1h-14.9c-0.6,0-1.1-0.5-1.1-1.1c0-0.6,0.5-1.1,1.1-1.1H385c0.6,0,1.1,0.5,1.1,1.1
		C386.1,251.6,385.6,252.1,385,252.1z"/>
	<path class="st0" d="M388.4,258.2h-10.1c-0.6,0-1.1-0.5-1.1-1.1c0-0.6,0.5-1.1,1.1-1.1h10.1c0.6,0,1.1,0.5,1.1,1.1
		C389.5,257.7,389,258.2,388.4,258.2z"/>
	<path class="st0" d="M389.7,264.3h-19.6c-0.6,0-1.1-0.5-1.1-1.1c0-0.6,0.5-1.1,1.1-1.1h19.6c0.6,0,1.1,0.5,1.1,1.1
		C390.8,263.8,390.3,264.3,389.7,264.3z"/>
	<g>
		<path class="st0" d="M277.4,168.1c-0.3,0-0.6-0.1-0.8-0.3l-7.3-7.3l-3.6,4.6c-0.3,0.4-0.8,0.5-1.2,0.4c-0.4-0.2-0.7-0.6-0.7-1
			v-16.2c0-0.6,0.5-1.1,1.1-1.1h16.2c0.5,0,0.9,0.3,1,0.7c0.2,0.4,0,0.9-0.4,1.2l-4.6,3.6l7.3,7.3c0.4,0.4,0.4,1.1,0,1.6l-6.2,6.2
			C278,168,277.7,168.1,277.4,168.1z M269.2,157.7c0.3,0,0.6,0.1,0.8,0.3l7.4,7.4l4.7-4.7l-7.4-7.4c-0.2-0.2-0.3-0.5-0.3-0.8
			c0-0.3,0.2-0.6,0.4-0.8l3.1-2.4h-12v12l2.4-3.1C268.6,157.9,268.9,157.8,269.2,157.7C269.2,157.7,269.2,157.7,269.2,157.7z"/>
	</g>
	<path class="st0" d="M77.5,250.2H48.3c-0.6,0-1.1-0.4-1.1-1l-3.3-48.4c0-0.3,0.1-0.6,0.3-0.8c0.2-0.2,0.5-0.3,0.8-0.3h35.8
		c0.3,0,0.6,0.1,0.8,0.3c0.2,0.2,0.3,0.5,0.3,0.8l-3.3,48.4C78.6,249.7,78.1,250.2,77.5,250.2z M49.3,248h27.1l3.2-46.2H46.2
		L49.3,248z"/>
	<path class="st0" d="M85.6,201.8H40.2c-0.6,0-1.1-0.5-1.1-1.1v-5.8c0-0.6,0.5-1.1,1.1-1.1h45.4c0.6,0,1.1,0.5,1.1,1.1v5.8
		C86.7,201.3,86.2,201.8,85.6,201.8z M41.3,199.6h43.2V196H41.3V199.6z"/>
	<path class="st0" d="M80,196H45.8c-0.4,0-0.7-0.2-0.9-0.5c-0.2-0.3-0.3-0.6-0.2-1l1.7-5.2c0.1-0.5,0.6-0.8,1.1-0.8h30.8
		c0.5,0,0.9,0.3,1.1,0.8l1.7,5.2c0.1,0.3,0,0.7-0.2,1C80.7,195.8,80.3,196,80,196z M47.3,193.8h31.1l-1-3H48.3L47.3,193.8z"/>
	<polygon class="st12" points="80.1,235.7 45.7,235.7 43.9,211.2 81.9,211.2 	"/>
	<path class="st0" d="M80.1,236.8H45.7c-0.6,0-1.1-0.4-1.1-1l-1.8-24.4c0-0.3,0.1-0.6,0.3-0.8c0.2-0.2,0.5-0.4,0.8-0.4h38
		c0.3,0,0.6,0.1,0.8,0.4c0.2,0.2,0.3,0.5,0.3,0.8l-1.8,24.4C81.2,236.3,80.7,236.8,80.1,236.8z M46.7,234.5h32.4l1.6-22.2H45.1
		L46.7,234.5z"/>
	<path class="st0" d="M248.3,141.5h-71.6c-6.8,0-12.4-5.6-12.4-12.4v-5.6c0-6.8,5.6-12.4,12.4-12.4h71.6c6.8,0,12.4,5.6,12.4,12.4
		v5.6C260.7,135.9,255.1,141.5,248.3,141.5z M176.7,113.3c-5.6,0-10.2,4.6-10.2,10.2v5.6c0,5.6,4.6,10.2,10.2,10.2h71.6
		c5.6,0,10.2-4.6,10.2-10.2v-5.6c0-5.6-4.6-10.2-10.2-10.2H176.7z"/>
	<g>
		<path class="st8" d="M194.2,132.4l-2.5-8.7l-2.5,8.7h-2.8l-4-12.2h3l2.6,9.2l2.5-9.2h2.7l2.6,9.2l2.5-9.2h2.8l-4,12.2H194.2z"/>
		<path class="st8" d="M215,132.4l-2.5-8.7l-2.5,8.7h-2.8l-4-12.2h3l2.6,9.2l2.5-9.2h2.7l2.6,9.2l2.5-9.2h2.8l-4,12.2H215z"/>
		<path class="st8" d="M235.8,132.4l-2.5-8.7l-2.5,8.7H228l-4-12.2h3l2.6,9.2l2.5-9.2h2.7l2.6,9.2l2.5-9.2h2.8l-4,12.2H235.8z"/>
	</g>
</g>
</svg>
