<?xml version="1.0" encoding="utf-8"?>
<!-- Generator: Adobe Illustrator 23.0.3, SVG Export Plug-In . SVG Version: 6.00 Build 0)  -->
<svg version="1.1" id="Layer_1" xmlns="http://www.w3.org/2000/svg" xmlns:xlink="http://www.w3.org/1999/xlink" x="0px" y="0px"
	 viewBox="0 0 920 193.2" style="enable-background:new 0 0 920 193.2;" xml:space="preserve">
<style type="text/css">
	.st0{fill:#4A555F;}
	.st1{fill:#C5F1F1;}
	.st2{fill:#71CCE0;}
	.st3{fill:#F58E6F;}
	.st4{fill:#DFDFDF;}
	.st5{fill:#FFFFFF;}
	.st6{fill:#FFD452;}
</style>
<g>
	<g>
		<rect y="181.2" class="st0" width="130" height="2"/>
		<rect x="40" y="166.2" class="st0" width="80" height="2"/>
		<rect x="790" y="181.2" class="st0" width="130" height="2"/>
		<rect x="800" y="166.2" class="st0" width="80" height="2"/>
		<rect x="80" y="191.2" class="st0" width="760" height="2"/>
	</g>
	<g>
		<g>
			<g>
				<path class="st1" d="M295.4,32.9l-1-0.3l0.1-1c0-0.3,0-0.7,0-1c0-5.5-4.5-10-10-10c-4.1,0-7.9,2.6-9.3,6.4l-0.3,0.9l-0.9-0.1
					c-0.2,0-0.4,0-0.6,0c-3.5,0-6.4,2.9-6.4,6.4c0,3.5,2.9,6.4,6.4,6.4h21c2.2,0,3.9-1.8,3.9-3.9C298.2,35,297.1,33.4,295.4,32.9z"
					/>
			</g>
		</g>
		<g>
			<g>
				<path class="st1" d="M657.7,26l-1.3-0.4l0.1-1.3c0-0.4,0.1-0.8,0.1-1.3c0-7.2-5.8-13-13-13c-5.3,0-10.2,3.4-12.1,8.4l-0.4,1.1
					l-1.2-0.1c-0.3,0-0.5,0-0.8,0c-4.6,0-8.3,3.7-8.3,8.3s3.7,8.3,8.3,8.3h27.3c2.8,0,5.1-2.3,5.1-5.1
					C661.4,28.6,659.9,26.6,657.7,26z"/>
			</g>
		</g>
	</g>
	<g>
		<path class="st0" d="M457.2,193.2H356.5v-8.3h100.7V193.2z M359,190.8h95.8v-3.3H359V190.8z"/>
		<path class="st0" d="M387.1,187.4H374v-14.1h13.1V187.4z M376.5,184.9h8.1v-9.1h-8.1V184.9z"/>
		<path class="st0" d="M439.7,187.4h-13.1v-14.1h13.1V187.4z M429.1,184.9h8.1v-9.1h-8.1V184.9z"/>
		<path class="st0" d="M458.6,175.8H355.1v-23.1l10.3-7.7h83.1l10.3,7.7V175.8z M357.6,173.3h98.6v-19.4l-8.6-6.5h-81.4l-8.6,6.5
			V173.3z"/>
		<polygon class="st2" points="446.6,150.4 407.7,150.4 407.7,170.4 453.2,170.4 453.2,155.4 		"/>
		<path class="st0" d="M458.6,147.4H355.1v-23.1l10.3-7.7h83.1l10.3,7.7V147.4z M357.6,145h98.6v-19.4l-8.6-6.5h-81.4l-8.6,6.5V145z
			"/>
		<polygon class="st3" points="446.6,122 407.7,122 407.7,142 453.2,142 453.2,127 		"/>
		<path class="st0" d="M458.6,119.1H355.1V95.9l10.3-7.7h83.1l10.3,7.7V119.1z M357.6,116.6h98.6V97.2l-8.6-6.5h-81.4l-8.6,6.5
			V116.6z"/>
		<polygon class="st2" points="446.6,93.6 407.7,93.6 407.7,113.7 453.2,113.7 453.2,98.6 		"/>
		<path class="st0" d="M371.2,107.7c-2.2,0-4.1-1.8-4.1-4.1c0-2.2,1.8-4.1,4.1-4.1s4.1,1.8,4.1,4.1
			C375.3,105.9,373.4,107.7,371.2,107.7z M371.2,102.1c-0.9,0-1.6,0.7-1.6,1.6s0.7,1.6,1.6,1.6s1.6-0.7,1.6-1.6
			S372.1,102.1,371.2,102.1z"/>
		<path class="st0" d="M371.2,136.1c-2.2,0-4.1-1.8-4.1-4.1s1.8-4.1,4.1-4.1s4.1,1.8,4.1,4.1S373.4,136.1,371.2,136.1z M371.2,130.4
			c-0.9,0-1.6,0.7-1.6,1.6c0,0.9,0.7,1.6,1.6,1.6s1.6-0.7,1.6-1.6C372.8,131.1,372.1,130.4,371.2,130.4z"/>
		<path class="st0" d="M371.2,164.4c-2.2,0-4.1-1.8-4.1-4.1s1.8-4.1,4.1-4.1s4.1,1.8,4.1,4.1S373.4,164.4,371.2,164.4z M371.2,158.8
			c-0.9,0-1.6,0.7-1.6,1.6s0.7,1.6,1.6,1.6s1.6-0.7,1.6-1.6S372.1,158.8,371.2,158.8z"/>
		<path class="st0" d="M442.9,107.7c-2.2,0-4.1-1.8-4.1-4.1c0-2.2,1.8-4.1,4.1-4.1c2.2,0,4.1,1.8,4.1,4.1
			C447,105.9,445.2,107.7,442.9,107.7z M442.9,102.1c-0.9,0-1.6,0.7-1.6,1.6s0.7,1.6,1.6,1.6c0.9,0,1.6-0.7,1.6-1.6
			S443.8,102.1,442.9,102.1z"/>
		<path class="st0" d="M442.9,136.1c-2.2,0-4.1-1.8-4.1-4.1s1.8-4.1,4.1-4.1c2.2,0,4.1,1.8,4.1,4.1S445.2,136.1,442.9,136.1z
			 M442.9,130.4c-0.9,0-1.6,0.7-1.6,1.6c0,0.9,0.7,1.6,1.6,1.6c0.9,0,1.6-0.7,1.6-1.6C444.5,131.1,443.8,130.4,442.9,130.4z"/>
		<path class="st0" d="M442.9,164.4c-2.2,0-4.1-1.8-4.1-4.1s1.8-4.1,4.1-4.1c2.2,0,4.1,1.8,4.1,4.1S445.2,164.4,442.9,164.4z
			 M442.9,158.8c-0.9,0-1.6,0.7-1.6,1.6s0.7,1.6,1.6,1.6c0.9,0,1.6-0.7,1.6-1.6S443.8,158.8,442.9,158.8z"/>
		<path class="st0" d="M546.4,77.7h-70.2c-14.8,0-26.8-12-26.8-26.8c0-14.8,12-26.8,26.8-26.8c0.5,0,1.1,0,1.7,0.1
			C483.8,9.6,498.1,0,513.8,0c21.4,0,38.8,17.4,38.8,38.8c0,0.9,0,1.8-0.1,2.8c7.4,2.6,12.4,9.6,12.4,17.5
			C564.9,69.4,556.6,77.7,546.4,77.7z M476.2,26.5c-13.4,0-24.3,10.9-24.3,24.3c0,13.4,10.9,24.3,24.3,24.3h70.2
			c8.9,0,16.1-7.2,16.1-16.1c0-7.1-4.8-13.5-11.6-15.4l-1-0.3l0.1-1c0.1-1.2,0.2-2.4,0.2-3.5c0-20-16.3-36.4-36.4-36.4
			c-15,0-28.6,9.4-34,23.4l-0.3,0.9l-0.9-0.1C477.7,26.6,476.9,26.5,476.2,26.5z"/>
		<path class="st4" d="M550,46.5l-3.3-1l0.3-3.4c0.1-1.1,0.2-2.2,0.2-3.2c0-18.4-15-33.4-33.4-33.4c-13.8,0-26.3,8.6-31.2,21.5
			l-1.1,3l-3.1-0.3c-0.7-0.1-1.4-0.1-2.1-0.1c-11.8,0-21.4,9.6-21.4,21.4s9.6,21.4,21.4,21.4h70.2c7.3,0,13.2-5.9,13.2-13.2
			C559.5,53.3,555.6,48.1,550,46.5z M530.2,66.5h-32v-5.1h-4.8V21.9h32v5.1h4.7V66.5z"/>
		<path class="st0" d="M522.9,58.8h-26.9V24.5h26.9V58.8z M498.5,56.3h21.9V27h-21.9V56.3z"/>
		<path class="st0" d="M527.7,63.9h-26.9v-7.6h19.6V29.6h7.2V63.9z M503.3,61.4h21.9V32.1h-2.3v26.7h-19.6V61.4z"/>
		<rect x="502.6" y="30.9" class="st0" width="13.7" height="2.5"/>
		<rect x="502.6" y="35.7" class="st0" width="13.7" height="2.5"/>
		<rect x="502.6" y="40.4" class="st0" width="13.7" height="2.5"/>
		<rect x="502.6" y="45.1" class="st0" width="13.7" height="2.5"/>
		<rect x="502.6" y="49.9" class="st0" width="7.2" height="2.5"/>
		<path class="st0" d="M527.7,63.9h-26.9v-5.1h-4.7V24.5h26.9v5.1h4.7V63.9z M503.3,61.4h21.9V32.1h-4.7V27h-21.9v29.3h4.7V61.4z"/>
		<path class="st0" d="M465.2,160.2l-0.2-2.5c0.8-0.1,1.6-0.2,2.4-0.3l0.3,2.5C466.9,160.1,466.1,160.1,465.2,160.2z M470.2,159.6
			l-0.4-2.5c0.8-0.1,1.6-0.3,2.4-0.4l0.5,2.4C471.9,159.3,471.1,159.5,470.2,159.6z M475.2,158.6l-0.6-2.4c0.8-0.2,1.6-0.4,2.4-0.6
			l0.6,2.4C476.9,158.2,476,158.4,475.2,158.6z M480.1,157.3l-0.7-2.4c0.8-0.2,1.6-0.5,2.3-0.8l0.8,2.4
			C481.7,156.8,480.9,157.1,480.1,157.3z M484.9,155.7l-0.9-2.3c0.8-0.3,1.5-0.6,2.3-0.9l1,2.3C486.5,155.1,485.7,155.4,484.9,155.7
			z M489.6,153.7l-1-2.3c0.7-0.3,1.5-0.7,2.2-1.1l1.1,2.2C491.1,153,490.4,153.4,489.6,153.7z M494.1,151.5l-1.2-2.2
			c0.7-0.4,1.4-0.8,2.1-1.2l1.3,2.1C495.6,150.6,494.9,151.1,494.1,151.5z M498.5,148.9l-1.3-2.1c0.7-0.4,1.4-0.9,2-1.4l1.4,2.1
			C499.9,148,499.2,148.4,498.5,148.9z M502.7,146l-1.5-2c0.7-0.5,1.3-1,1.9-1.5l1.5,2C504,145,503.4,145.5,502.7,146z M506.7,142.9
			L505,141c0.6-0.5,1.2-1.1,1.8-1.6l1.7,1.8C507.9,141.8,507.3,142.3,506.7,142.9z M510.4,139.5l-1.7-1.8c0.6-0.6,1.2-1.1,1.7-1.7
			l1.8,1.7C511.6,138.3,511,138.9,510.4,139.5z M513.9,135.8l-1.9-1.7c0.5-0.6,1.1-1.2,1.6-1.8l1.9,1.6
			C515,134.6,514.5,135.2,513.9,135.8z M517.2,132l-2-1.5c0.5-0.6,1-1.3,1.5-1.9l2,1.5C518.2,130.6,517.7,131.3,517.2,132z
			 M520.2,127.9l-2.1-1.4c0.5-0.7,0.9-1.4,1.3-2l2.1,1.3C521.1,126.5,520.7,127.2,520.2,127.9z M522.9,123.6l-2.1-1.3
			c0.4-0.7,0.8-1.4,1.2-2.1l2.2,1.2C523.7,122.2,523.3,122.9,522.9,123.6z M525.3,119.2l-2.2-1.1c0.4-0.7,0.7-1.5,1.1-2.2l2.3,1
			C526,117.7,525.7,118.4,525.3,119.2z M527.4,114.6l-2.3-1c0.3-0.8,0.6-1.5,0.9-2.3l2.3,0.9C528,113,527.7,113.8,527.4,114.6z
			 M529.2,109.8l-2.4-0.8c0.3-0.8,0.5-1.5,0.7-2.3l2.4,0.7C529.7,108.2,529.4,109,529.2,109.8z M530.6,105l-2.4-0.6
			c0.2-0.8,0.4-1.6,0.6-2.4l2.4,0.6C531.1,103.4,530.9,104.2,530.6,105z M531.8,100.1l-2.4-0.5c0.2-0.8,0.3-1.6,0.4-2.4l2.5,0.4
			C532.1,98.4,531.9,99.2,531.8,100.1z M532.5,95.1l-2.5-0.3c0.1-0.8,0.2-1.6,0.3-2.4l2.5,0.2C532.7,93.4,532.6,94.2,532.5,95.1z
			 M533,90l-2.5-0.1c0-0.8,0.1-1.6,0.1-2.4l2.5,0.1C533.1,88.3,533,89.2,533,90z M530.6,85c0-0.8,0-1.6-0.1-2.4l2.5-0.1
			c0,0.8,0.1,1.7,0.1,2.5L530.6,85z"/>
		<path class="st0" d="M386.6,79.9l-2.5-0.2c0.1-0.8,0.2-1.7,0.3-2.5l2.5,0.3C386.8,78.2,386.7,79.1,386.6,79.9z M387.2,75l-2.5-0.4
			c0.1-0.8,0.3-1.7,0.4-2.5l2.4,0.5C387.4,73.4,387.3,74.2,387.2,75z M388.1,70.2l-2.4-0.5c0.2-0.8,0.4-1.6,0.6-2.5l2.4,0.6
			C388.4,68.6,388.2,69.4,388.1,70.2z M389.3,65.5l-2.4-0.7c0.2-0.8,0.5-1.6,0.8-2.4l2.4,0.8C389.8,63.9,389.5,64.7,389.3,65.5z
			 M390.8,60.8l-2.3-0.9c0.3-0.8,0.6-1.6,0.9-2.4l2.3,0.9C391.4,59.3,391.1,60.1,390.8,60.8z M392.7,56.3l-2.3-1
			c0.3-0.8,0.7-1.5,1.1-2.3l2.2,1.1C393.4,54.8,393,55.6,392.7,56.3z M394.8,51.9l-2.2-1.2c0.4-0.7,0.8-1.5,1.2-2.2l2.2,1.2
			C395.6,50.5,395.2,51.2,394.8,51.9z M397.3,47.7l-2.1-1.3c0.4-0.7,0.9-1.4,1.4-2.1l2.1,1.4C398.2,46.3,397.7,47,397.3,47.7z
			 M400,43.6l-2-1.5c0.5-0.7,1-1.4,1.5-2l2,1.5C401,42.3,400.5,43,400,43.6z M403,39.8l-1.9-1.6c0.5-0.6,1.1-1.3,1.7-1.9l1.9,1.7
			C404.1,38.5,403.5,39.1,403,39.8z M406.3,36.1l-1.8-1.7c0.6-0.6,1.2-1.2,1.8-1.8l1.7,1.8C407.4,34.9,406.8,35.5,406.3,36.1z
			 M409.8,32.7l-1.7-1.8c0.6-0.6,1.3-1.1,1.9-1.7l1.6,1.9C411,31.6,410.4,32.1,409.8,32.7z M413.5,29.5l-1.6-1.9
			c0.7-0.5,1.3-1,2-1.5l1.5,2C414.8,28.5,414.1,29,413.5,29.5z M417.4,26.6l-1.4-2c0.7-0.5,1.4-1,2.1-1.4l1.3,2.1
			C418.8,25.7,418.1,26.1,417.4,26.6z M421.6,23.9l-1.3-2.1c0.7-0.4,1.5-0.9,2.2-1.3l1.2,2.2C423,23.1,422.3,23.5,421.6,23.9z
			 M425.8,21.6l-1.1-2.2c0.8-0.4,1.5-0.8,2.3-1.1l1.1,2.3C427.3,20.8,426.6,21.2,425.8,21.6z M430.3,19.5l-1-2.3
			c0.8-0.3,1.6-0.6,2.4-1l0.9,2.3C431.8,18.9,431,19.2,430.3,19.5z M434.9,17.7l-0.8-2.4c0.8-0.3,1.6-0.5,2.4-0.8l0.7,2.4
			C436.4,17.2,435.6,17.4,434.9,17.7z M439.6,16.3l-0.7-2.4c0.8-0.2,1.6-0.4,2.5-0.6l0.6,2.4C441.1,15.9,440.3,16.1,439.6,16.3z
			 M444.3,15.2l-0.5-2.4c0.8-0.2,1.7-0.3,2.5-0.5l0.4,2.5C445.9,14.8,445.1,15,444.3,15.2z M471.1,14.9c-0.8-0.1-1.6-0.3-2.4-0.4
			L469,12c0.8,0.1,1.7,0.3,2.5,0.4L471.1,14.9z M449.1,14.4l-0.3-2.5c0.8-0.1,1.7-0.2,2.5-0.3l0.2,2.5
			C450.8,14.2,450,14.3,449.1,14.4z M466.2,14.2c-0.8-0.1-1.6-0.2-2.4-0.2l0.2-2.5c0.8,0.1,1.7,0.1,2.5,0.2L466.2,14.2z M454,13.9
			l-0.2-2.5c0.8-0.1,1.7-0.1,2.5-0.1l0.1,2.5C455.6,13.8,454.8,13.9,454,13.9z M461.4,13.8c-0.8,0-1.6-0.1-2.4-0.1l0-2.5
			c0.8,0,1.7,0,2.5,0.1L461.4,13.8z"/>
		<polygon class="st0" points="463.7,19.9 462.4,17.8 469.4,13.2 464.2,7.3 466.1,5.6 473.2,13.8 		"/>
		<polygon class="st0" points="472.2,165.2 463.1,159.3 470.6,150.8 472.4,152.5 466.9,158.8 473.5,163.1 		"/>
		<polygon class="st2" points="541.1,159.9 541.1,136.7 532,136.7 532,159.9 526.3,159.9 536.6,169.3 546.8,159.9 		"/>
		<path class="st0" d="M564.9,181.6h-56.8v-14.2h12.5l6,4.9h19.7l6-4.9h12.5V181.6z M510.7,179.1h51.8v-9.2h-9.1l-6,4.9h-21.4
			l-6-4.9h-9.1V179.1z"/>
	</g>
	<g>
		<g>
			<g>
				<path class="st0" d="M609.9,157.7h-33.7v-11h33.7V157.7z M577.4,156.5h31.3v-8.6h-31.3V156.5z"/>
			</g>
		</g>
		<g>
			<g>
				<rect x="592.9" y="149.2" class="st3" width="14.4" height="5.9"/>
			</g>
		</g>
		<g>
			<g>
				<path class="st0" d="M609.9,167.5h-33.7v-11h33.7V167.5z M577.4,166.3h31.3v-8.6h-31.3V166.3z"/>
			</g>
		</g>
		<g>
			<g>
				<rect x="592.9" y="159.1" class="st3" width="14.4" height="5.9"/>
			</g>
		</g>
		<g>
			<g>
				<path class="st0" d="M609.9,177.4h-33.7v-11.1h33.7V177.4z M577.4,176.2h31.3v-8.7h-31.3V176.2z"/>
			</g>
		</g>
		<g>
			<g>
				<rect x="592.9" y="168.9" class="st3" width="14.4" height="5.9"/>
			</g>
		</g>
		<g>
			<g>
				<path class="st0" d="M581.7,154c-1,0-1.8-0.8-1.8-1.8c0-1,0.8-1.8,1.8-1.8c1,0,1.8,0.8,1.8,1.8C583.4,153.2,582.6,154,581.7,154
					z M581.7,151.6c-0.3,0-0.6,0.3-0.6,0.6c0,0.3,0.3,0.6,0.6,0.6c0.3,0,0.6-0.3,0.6-0.6C582.2,151.9,582,151.6,581.7,151.6z"/>
			</g>
		</g>
		<g>
			<g>
				<path class="st0" d="M605.1,154c-1,0-1.8-0.8-1.8-1.8c0-1,0.8-1.8,1.8-1.8c1,0,1.8,0.8,1.8,1.8C606.9,153.2,606.1,154,605.1,154
					z M605.1,151.6c-0.3,0-0.6,0.3-0.6,0.6c0,0.3,0.3,0.6,0.6,0.6c0.3,0,0.6-0.3,0.6-0.6C605.7,151.9,605.5,151.6,605.1,151.6z"/>
			</g>
		</g>
		<g>
			<g>
				<path class="st0" d="M581.7,163.8c-1,0-1.8-0.8-1.8-1.8s0.8-1.8,1.8-1.8c1,0,1.8,0.8,1.8,1.8S582.6,163.8,581.7,163.8z
					 M581.7,161.4c-0.3,0-0.6,0.3-0.6,0.6c0,0.3,0.3,0.6,0.6,0.6c0.3,0,0.6-0.3,0.6-0.6C582.2,161.7,582,161.4,581.7,161.4z"/>
			</g>
		</g>
		<g>
			<g>
				<path class="st0" d="M605.1,163.8c-1,0-1.8-0.8-1.8-1.8s0.8-1.8,1.8-1.8c1,0,1.8,0.8,1.8,1.8S606.1,163.8,605.1,163.8z
					 M605.1,161.4c-0.3,0-0.6,0.3-0.6,0.6c0,0.3,0.3,0.6,0.6,0.6c0.3,0,0.6-0.3,0.6-0.6C605.7,161.7,605.5,161.4,605.1,161.4z"/>
			</g>
		</g>
		<g>
			<g>
				<path class="st0" d="M581.7,173.6c-1,0-1.8-0.8-1.8-1.8s0.8-1.8,1.8-1.8c1,0,1.8,0.8,1.8,1.8S582.6,173.6,581.7,173.6z
					 M581.7,171.3c-0.3,0-0.6,0.3-0.6,0.6s0.3,0.6,0.6,0.6c0.3,0,0.6-0.3,0.6-0.6S582,171.3,581.7,171.3z"/>
			</g>
		</g>
		<g>
			<g>
				<path class="st0" d="M605.1,173.6c-1,0-1.8-0.8-1.8-1.8s0.8-1.8,1.8-1.8c1,0,1.8,0.8,1.8,1.8S606.1,173.6,605.1,173.6z
					 M605.1,171.3c-0.3,0-0.6,0.3-0.6,0.6s0.3,0.6,0.6,0.6c0.3,0,0.6-0.3,0.6-0.6S605.5,171.3,605.1,171.3z"/>
			</g>
		</g>
		<g>
			<g>
				<path class="st0" d="M585.5,182.6h-3.3v-6.4h3.3V182.6z M583.4,181.4h0.9v-4h-0.9V181.4z"/>
			</g>
		</g>
		<g>
			<g>
				<path class="st0" d="M602.9,182.6h-3.3v-6.4h3.3V182.6z M600.8,181.4h0.9v-4h-0.9V181.4z"/>
			</g>
		</g>
		<g>
			<g>
				<path class="st0" d="M609.9,185.6h-33.7v-4.1h33.7V185.6z M577.4,184.4h31.3v-1.7h-31.3V184.4z"/>
			</g>
		</g>
		<g>
			<g>
				<path class="st0" d="M609.9,108.7h-33.7v-11h33.7V108.7z M577.4,107.5h31.3v-8.6h-31.3V107.5z"/>
			</g>
		</g>
		<g>
			<g>
				<rect x="592.9" y="100.2" class="st2" width="14.4" height="5.9"/>
			</g>
		</g>
		<g>
			<g>
				<path class="st0" d="M609.9,118.5h-33.7v-11h33.7V118.5z M577.4,117.3h31.3v-8.6h-31.3V117.3z"/>
			</g>
		</g>
		<g>
			<g>
				<rect x="592.9" y="110" class="st2" width="14.4" height="5.9"/>
			</g>
		</g>
		<g>
			<g>
				<path class="st0" d="M609.9,128.4h-33.7v-11.1h33.7V128.4z M577.4,127.2h31.3v-8.7h-31.3V127.2z"/>
			</g>
		</g>
		<g>
			<g>
				<rect x="592.9" y="119.9" class="st2" width="14.4" height="5.9"/>
			</g>
		</g>
		<g>
			<g>
				<path class="st0" d="M581.7,105c-1,0-1.8-0.8-1.8-1.8c0-1,0.8-1.8,1.8-1.8c1,0,1.8,0.8,1.8,1.8C583.4,104.2,582.6,105,581.7,105
					z M581.7,102.6c-0.3,0-0.6,0.3-0.6,0.6c0,0.3,0.3,0.6,0.6,0.6c0.3,0,0.6-0.3,0.6-0.6C582.2,102.9,582,102.6,581.7,102.6z"/>
			</g>
		</g>
		<g>
			<g>
				<path class="st0" d="M605.1,105c-1,0-1.8-0.8-1.8-1.8c0-1,0.8-1.8,1.8-1.8c1,0,1.8,0.8,1.8,1.8C606.9,104.2,606.1,105,605.1,105
					z M605.1,102.6c-0.3,0-0.6,0.3-0.6,0.6c0,0.3,0.3,0.6,0.6,0.6c0.3,0,0.6-0.3,0.6-0.6C605.7,102.9,605.5,102.6,605.1,102.6z"/>
			</g>
		</g>
		<g>
			<g>
				<path class="st0" d="M581.7,114.8c-1,0-1.8-0.8-1.8-1.8s0.8-1.8,1.8-1.8c1,0,1.8,0.8,1.8,1.8S582.6,114.8,581.7,114.8z
					 M581.7,112.4c-0.3,0-0.6,0.3-0.6,0.6c0,0.3,0.3,0.6,0.6,0.6c0.3,0,0.6-0.3,0.6-0.6C582.2,112.6,582,112.4,581.7,112.4z"/>
			</g>
		</g>
		<g>
			<g>
				<path class="st0" d="M605.1,114.8c-1,0-1.8-0.8-1.8-1.8s0.8-1.8,1.8-1.8c1,0,1.8,0.8,1.8,1.8S606.1,114.8,605.1,114.8z
					 M605.1,112.4c-0.3,0-0.6,0.3-0.6,0.6c0,0.3,0.3,0.6,0.6,0.6c0.3,0,0.6-0.3,0.6-0.6C605.7,112.6,605.5,112.4,605.1,112.4z"/>
			</g>
		</g>
		<g>
			<g>
				<path class="st0" d="M581.7,124.6c-1,0-1.8-0.8-1.8-1.8s0.8-1.8,1.8-1.8c1,0,1.8,0.8,1.8,1.8S582.6,124.6,581.7,124.6z
					 M581.7,122.3c-0.3,0-0.6,0.3-0.6,0.6c0,0.3,0.3,0.6,0.6,0.6c0.3,0,0.6-0.3,0.6-0.6C582.2,122.5,582,122.3,581.7,122.3z"/>
			</g>
		</g>
		<g>
			<g>
				<path class="st0" d="M605.1,124.6c-1,0-1.8-0.8-1.8-1.8s0.8-1.8,1.8-1.8c1,0,1.8,0.8,1.8,1.8S606.1,124.6,605.1,124.6z
					 M605.1,122.3c-0.3,0-0.6,0.3-0.6,0.6c0,0.3,0.3,0.6,0.6,0.6c0.3,0,0.6-0.3,0.6-0.6C605.7,122.5,605.5,122.3,605.1,122.3z"/>
			</g>
		</g>
		<g>
			<g>
				<path class="st0" d="M585.5,133.6h-3.3v-6.4h3.3V133.6z M583.4,132.4h0.9v-4h-0.9V132.4z"/>
			</g>
		</g>
		<g>
			<g>
				<path class="st0" d="M602.9,133.6h-3.3v-6.4h3.3V133.6z M600.8,132.4h0.9v-4h-0.9V132.4z"/>
			</g>
		</g>
		<g>
			<g>
				<path class="st0" d="M609.9,136.5h-33.7v-4.1h33.7V136.5z M577.4,135.3h31.3v-1.7h-31.3V135.3z"/>
			</g>
		</g>
		<g>
			<g>
				<polygon class="st0" points="619.9,142.1 618.8,141.7 629.5,107.5 644.2,107.5 644.2,108.7 630.4,108.7 				"/>
			</g>
		</g>
		<g>
			<g>
				<polygon class="st0" points="644.2,176.5 629.5,176.5 618.8,142.1 619.9,141.7 630.4,175.3 644.2,175.3 				"/>
			</g>
		</g>
		<g>
			<g>
				<rect x="612.8" y="141.3" class="st0" width="31.4" height="1.2"/>
			</g>
		</g>
		<g>
			<g>
				<g>
					<path class="st0" d="M671.4,121.3h-20.9v-28h20.9V121.3z M651.7,120.1h18.5V94.4h-18.5V120.1z"/>
				</g>
			</g>
			<g>
				<g>
					<polygon class="st0" points="657.1,105.3 654.2,101.8 657.1,97.9 658.1,98.6 655.7,101.7 658.1,104.5 					"/>
				</g>
			</g>
			<g>
				<g>
					<polygon class="st0" points="664.8,105.3 663.9,104.5 666.3,101.7 663.9,98.6 664.8,97.9 667.8,101.8 					"/>
				</g>
			</g>
			<g>
				<g>
					
						<rect x="656" y="100.9" transform="matrix(0.3691 -0.9294 0.9294 0.3691 322.6265 678.199)" class="st0" width="9.7" height="1.2"/>
				</g>
			</g>
			<g>
				<g>
					<rect x="654.6" y="109.2" class="st0" width="1.7" height="1.2"/>
				</g>
			</g>
			<g>
				<g>
					<rect x="654.6" y="112.8" class="st0" width="12.7" height="1.2"/>
				</g>
			</g>
			<g>
				<g>
					<rect x="654.6" y="116.1" class="st0" width="12.7" height="1.2"/>
				</g>
			</g>
			<g>
				<g>
					<rect x="658.2" y="109.2" class="st0" width="1.7" height="1.2"/>
				</g>
			</g>
			<g>
				<g>
					<rect x="661.9" y="109.2" class="st0" width="1.7" height="1.2"/>
				</g>
			</g>
			<g>
				<g>
					<rect x="665.6" y="109.2" class="st0" width="1.7" height="1.2"/>
				</g>
			</g>
		</g>
		<g>
			<g>
				<g>
					<path class="st0" d="M671.4,155.6h-20.9v-28h20.9V155.6z M651.7,154.4h18.5v-25.6h-18.5V154.4z"/>
				</g>
			</g>
			<g>
				<g>
					<polygon class="st0" points="657.1,139.6 654.2,136.1 657.1,132.2 658.1,132.9 655.7,136 658.1,138.8 					"/>
				</g>
			</g>
			<g>
				<g>
					<polygon class="st0" points="664.8,139.6 663.9,138.8 666.3,136 663.9,132.9 664.8,132.2 667.8,136.1 					"/>
				</g>
			</g>
			<g>
				<g>
					
						<rect x="656" y="135.2" transform="matrix(0.3692 -0.9294 0.9294 0.3692 290.6963 699.85)" class="st0" width="9.7" height="1.2"/>
				</g>
			</g>
			<g>
				<g>
					<rect x="654.6" y="143.6" class="st0" width="1.7" height="1.2"/>
				</g>
			</g>
			<g>
				<g>
					<rect x="654.6" y="147.1" class="st0" width="12.7" height="1.2"/>
				</g>
			</g>
			<g>
				<g>
					<rect x="654.6" y="150.4" class="st0" width="12.7" height="1.2"/>
				</g>
			</g>
			<g>
				<g>
					<rect x="658.2" y="143.6" class="st0" width="1.7" height="1.2"/>
				</g>
			</g>
			<g>
				<g>
					<rect x="661.9" y="143.6" class="st0" width="1.7" height="1.2"/>
				</g>
			</g>
			<g>
				<g>
					<rect x="665.6" y="143.6" class="st0" width="1.7" height="1.2"/>
				</g>
			</g>
		</g>
		<g>
			<g>
				<g>
					<path class="st0" d="M671.4,189.9h-20.9v-28h20.9V189.9z M651.7,188.7h18.5v-25.6h-18.5V188.7z"/>
				</g>
			</g>
			<g>
				<g>
					<polygon class="st0" points="657.1,173.9 654.2,170.4 657.1,166.5 658.1,167.3 655.7,170.4 658.1,173.2 					"/>
				</g>
			</g>
			<g>
				<g>
					<polygon class="st0" points="664.8,173.9 663.9,173.2 666.3,170.4 663.9,167.3 664.8,166.5 667.8,170.4 					"/>
				</g>
			</g>
			<g>
				<g>
					
						<rect x="656" y="169.5" transform="matrix(0.3692 -0.9294 0.9294 0.3692 258.784 721.5115)" class="st0" width="9.7" height="1.2"/>
				</g>
			</g>
			<g>
				<g>
					<rect x="654.6" y="177.9" class="st0" width="1.7" height="1.2"/>
				</g>
			</g>
			<g>
				<g>
					<rect x="654.6" y="181.4" class="st0" width="12.7" height="1.2"/>
				</g>
			</g>
			<g>
				<g>
					<rect x="654.6" y="184.7" class="st0" width="12.7" height="1.2"/>
				</g>
			</g>
			<g>
				<g>
					<rect x="658.2" y="177.9" class="st0" width="1.7" height="1.2"/>
				</g>
			</g>
			<g>
				<g>
					<rect x="661.9" y="177.9" class="st0" width="1.7" height="1.2"/>
				</g>
			</g>
			<g>
				<g>
					<rect x="665.6" y="177.9" class="st0" width="1.7" height="1.2"/>
				</g>
			</g>
		</g>
		<g>
			<g>
				<polygon class="st0" points="674.5,124.1 653.1,124.1 653.1,120.6 654.3,120.6 654.3,122.9 673.3,122.9 673.3,96.3 670.8,96.3 
					670.8,95.1 674.5,95.1 				"/>
			</g>
		</g>
		<g>
			<g>
				<polygon class="st0" points="674.5,158.7 653.1,158.7 653.1,155.2 654.3,155.2 654.3,157.5 673.3,157.5 673.3,130.8 
					670.8,130.8 670.8,129.7 674.5,129.7 				"/>
			</g>
		</g>
		<g>
			<g>
				<polygon class="st0" points="674.5,193.2 653.1,193.2 653.1,189.7 654.3,189.7 654.3,192.1 673.3,192.1 673.3,165.4 
					670.8,165.4 670.8,164.2 674.5,164.2 				"/>
			</g>
		</g>
	</g>
	<g>
		<g>
			<g>
				<g>
					<path class="st0" d="M265.2,116.5h-20.1V93.2h20.1V116.5z M246.3,115.3H264V94.5h-17.7V115.3z"/>
				</g>
			</g>
			<g>
				<g>
					<polygon class="st0" points="262.5,120.1 241.3,120.1 241.3,96.3 245.7,96.3 245.7,97.5 242.6,97.5 242.6,118.8 261.3,118.8 
						261.3,115.9 262.5,115.9 					"/>
				</g>
			</g>
			<g>
				<g>
					<g>
						<rect x="250.2" y="98.8" class="st0" width="1.8" height="1.2"/>
					</g>
				</g>
				<g>
					<g>
						<rect x="250.2" y="102.4" class="st0" width="10.7" height="1.2"/>
					</g>
				</g>
				<g>
					<g>
						<rect x="250.2" y="106.1" class="st0" width="10.7" height="1.2"/>
					</g>
				</g>
				<g>
					<g>
						<rect x="250.2" y="109.8" class="st0" width="7" height="1.2"/>
					</g>
				</g>
				<g>
					<g>
						<rect x="253.2" y="98.8" class="st0" width="1.8" height="1.2"/>
					</g>
				</g>
				<g>
					<g>
						<rect x="256.1" y="98.8" class="st0" width="1.8" height="1.2"/>
					</g>
				</g>
				<g>
					<g>
						<rect x="259.1" y="98.8" class="st0" width="1.8" height="1.2"/>
					</g>
				</g>
			</g>
		</g>
		<g>
			<g>
				<g>
					<path class="st0" d="M265.2,153.1h-20.1v-23.3h20.1V153.1z M246.3,151.9H264v-20.9h-17.7V151.9z"/>
				</g>
			</g>
			<g>
				<g>
					<polygon class="st0" points="262.5,156.7 241.3,156.7 241.3,132.9 245.7,132.9 245.7,134.1 242.6,134.1 242.6,155.4 
						261.3,155.4 261.3,152.5 262.5,152.5 					"/>
				</g>
			</g>
			<g>
				<g>
					<g>
						<rect x="250.2" y="135.4" class="st0" width="1.8" height="1.2"/>
					</g>
				</g>
				<g>
					<g>
						<rect x="250.2" y="139" class="st0" width="10.7" height="1.2"/>
					</g>
				</g>
				<g>
					<g>
						<rect x="250.2" y="142.7" class="st0" width="10.7" height="1.2"/>
					</g>
				</g>
				<g>
					<g>
						<rect x="250.2" y="146.4" class="st0" width="7" height="1.2"/>
					</g>
				</g>
				<g>
					<g>
						<rect x="253.2" y="135.4" class="st0" width="1.8" height="1.2"/>
					</g>
				</g>
				<g>
					<g>
						<rect x="256.1" y="135.4" class="st0" width="1.8" height="1.2"/>
					</g>
				</g>
				<g>
					<g>
						<rect x="259.1" y="135.4" class="st0" width="1.8" height="1.2"/>
					</g>
				</g>
			</g>
		</g>
		<g>
			<g>
				<g>
					<path class="st0" d="M265.2,189.7h-20.1v-23.3h20.1V189.7z M246.3,188.5H264v-20.9h-17.7V188.5z"/>
				</g>
			</g>
			<g>
				<g>
					<polygon class="st0" points="262.5,193.2 241.3,193.2 241.3,169.5 245.7,169.5 245.7,170.7 242.6,170.7 242.6,192 261.3,192 
						261.3,189.1 262.5,189.1 					"/>
				</g>
			</g>
			<g>
				<g>
					<g>
						<rect x="250.2" y="171.9" class="st0" width="1.8" height="1.2"/>
					</g>
				</g>
				<g>
					<g>
						<rect x="250.2" y="175.6" class="st0" width="10.7" height="1.2"/>
					</g>
				</g>
				<g>
					<g>
						<rect x="250.2" y="179.3" class="st0" width="10.7" height="1.2"/>
					</g>
				</g>
				<g>
					<g>
						<rect x="250.2" y="183" class="st0" width="7" height="1.2"/>
					</g>
				</g>
				<g>
					<g>
						<rect x="253.2" y="171.9" class="st0" width="1.8" height="1.2"/>
					</g>
				</g>
				<g>
					<g>
						<rect x="256.1" y="171.9" class="st0" width="1.8" height="1.2"/>
					</g>
				</g>
				<g>
					<g>
						<rect x="259.1" y="171.9" class="st0" width="1.8" height="1.2"/>
					</g>
				</g>
			</g>
		</g>
		<g>
			<g>
				<polygon class="st0" points="272.1,180.6 267.7,180.6 267.7,179.4 271.4,179.4 289.4,144.7 271.3,105.5 267.7,105.5 
					267.7,104.3 272.1,104.3 290.7,144.8 				"/>
			</g>
		</g>
		<g>
			<g>
				<rect x="267.7" y="144.1" class="st0" width="37.5" height="1.2"/>
			</g>
		</g>
		<g>
			<g>
				<path class="st0" d="M343.9,173.2h-36.2v-54.3h36.2V173.2z M308.9,171.9h33.8v-51.9h-33.8V171.9z"/>
			</g>
		</g>
		<g>
			<g>
				<path class="st0" d="M324.7,140.2H312v-16.8h12.7V140.2z M313.2,139h10.3v-14.3h-10.3V139z"/>
			</g>
		</g>
		<g>
			<g>
				<path class="st0" d="M324.7,159.5H312v-16.8h12.7V159.5z M313.2,158.2h10.3v-14.3h-10.3V158.2z"/>
			</g>
		</g>
		<g>
			<g>
				<path class="st0" d="M339.4,140.2h-12.7v-16.8h12.7V140.2z M327.8,139h10.3v-14.3h-10.3V139z"/>
			</g>
		</g>
		<g>
			<g>
				<path class="st0" d="M339.4,159.5h-12.7v-16.8h12.7V159.5z M327.8,158.2h10.3v-14.3h-10.3V158.2z"/>
			</g>
		</g>
		<g>
			<g>
				<g>
					<rect x="314.6" y="126.1" class="st2" width="7.5" height="11.5"/>
				</g>
			</g>
			<g>
				<g>
					<rect x="314.6" y="145.3" class="st3" width="7.5" height="11.5"/>
				</g>
			</g>
			<g>
				<g>
					<rect x="329.3" y="126.1" class="st3" width="7.5" height="11.5"/>
				</g>
			</g>
			<g>
				<g>
					<rect x="329.3" y="145.3" class="st2" width="7.5" height="11.5"/>
				</g>
			</g>
		</g>
		<g>
			<g>
				<path class="st0" d="M319.8,169.5H312v-8.3h7.9V169.5z M313.2,168.3h5.4v-5.8h-5.4V168.3z"/>
			</g>
		</g>
		<g>
			<g>
				<path class="st0" d="M329.9,169.5h-8.3v-8.3h8.3V169.5z M322.8,168.3h5.8v-5.8h-5.8V168.3z"/>
			</g>
		</g>
		<g>
			<g>
				<path class="st0" d="M339.6,169.5h-7.9v-8.3h7.9V169.5z M332.9,168.3h5.4v-5.8h-5.4V168.3z"/>
			</g>
		</g>
		<g>
			<g>
				<path class="st0" d="M343.9,120.1h-36.2v-13h36.2V120.1z M308.9,118.8h33.8v-10.5h-33.8V118.8z"/>
			</g>
		</g>
		<g>
			<g>
				<rect x="312.6" y="111.1" class="st0" width="3.4" height="1.2"/>
			</g>
		</g>
		<g>
			<g>
				<rect x="317.1" y="111.1" class="st0" width="3.4" height="1.2"/>
			</g>
		</g>
		<g>
			<g>
				<rect x="321.7" y="111.1" class="st0" width="3.4" height="1.2"/>
			</g>
		</g>
		<g>
			<g>
				<rect x="326.2" y="111.1" class="st0" width="3.4" height="1.2"/>
			</g>
		</g>
		<g>
			<g>
				<rect x="330.8" y="111.1" class="st0" width="3.4" height="1.2"/>
			</g>
		</g>
		<g>
			<g>
				<rect x="335.3" y="111.1" class="st0" width="3.4" height="1.2"/>
			</g>
		</g>
		<g>
			<g>
				<rect x="312.9" y="114.7" class="st0" width="25.9" height="1.2"/>
			</g>
		</g>
		<g>
			<g>
				<g>
					<circle class="st5" cx="289.4" cy="144.7" r="8.4"/>
				</g>
			</g>
			<g>
				<g>
					<path class="st6" d="M289.4,151c-3.5,0-6.3-2.8-6.3-6.3c0-3.5,2.8-6.3,6.3-6.3c3.5,0,6.3,2.8,6.3,6.3
						C295.8,148.2,292.9,151,289.4,151z"/>
				</g>
			</g>
			<g>
				<g>
					<path class="st0" d="M289.4,153.7c-5,0-9-4-9-9c0-5,4-9,9-9c5,0,9,4,9,9C298.4,149.6,294.4,153.7,289.4,153.7z M289.4,136.9
						c-4.3,0-7.8,3.5-7.8,7.8c0,4.3,3.5,7.8,7.8,7.8c4.3,0,7.8-3.5,7.8-7.8C297.2,140.4,293.7,136.9,289.4,136.9z"/>
				</g>
			</g>
		</g>
		<g>
			<g>
				<g>
					<path class="st0" d="M286.5,148c-1.1-0.9-1.7-2.2-1.7-3.5c0-2.5,2.1-4.6,4.6-4.6c2.5,0,4.6,2.1,4.6,4.6c0,1.3-0.6,2.6-1.6,3.5
						l-0.8-0.9c0.7-0.6,1.2-1.6,1.2-2.5c0-1.9-1.5-3.4-3.4-3.4c-1.9,0-3.4,1.5-3.4,3.4c0,1,0.4,2,1.2,2.6L286.5,148z"/>
				</g>
			</g>
			<g>
				<g>
					<polygon class="st0" points="291.5,148.5 290.8,145.5 292,145.3 292.4,147 294.5,146.5 294.8,147.7 					"/>
				</g>
			</g>
		</g>
	</g>
	<g>
		<g>
			<g>
				<path class="st6" d="M205.6,133.6l5.1,0.1l0-1.1c0-4.6-1.9-9-5.2-12.3l0,0l0,0c-3.2,3.3-5,7.8-5,12.4l0,1L205.6,133.6
					L205.6,133.6z"/>
			</g>
		</g>
		<g>
			<g>
				<path class="st0" d="M212.9,135.8l-7.3-0.1l-7.2,0.1l0-3.1c-0.1-5.2,1.9-10.2,5.6-13.9l1.5-1.5l1.5,1.5
					c3.7,3.7,5.8,8.6,5.9,13.8L212.9,135.8z M205.6,134.8l6.3,0.1l0-2.3c-0.1-5-2-9.6-5.6-13.1l-0.9-0.8l-0.8,0.9
					c-3.5,3.6-5.4,8.2-5.3,13.2l0,2.2L205.6,134.8z"/>
			</g>
		</g>
		<g>
			<g>
				<path class="st0" d="M228.3,185.7h-45.5v-10.1h45.5V185.7z M183.7,184.7h43.6v-8.2h-43.6V184.7z"/>
			</g>
		</g>
		<g>
			<g>
				<rect x="205.5" y="177.8" class="st2" width="20.4" height="5.5"/>
			</g>
		</g>
		<g>
			<g>
				<path class="st0" d="M187.8,182.2c-0.9,0-1.6-0.7-1.6-1.6c0-0.9,0.7-1.6,1.6-1.6c0.9,0,1.6,0.7,1.6,1.6
					C189.4,181.5,188.7,182.2,187.8,182.2z M187.8,180c-0.3,0-0.6,0.3-0.6,0.6c0,0.3,0.3,0.6,0.6,0.6c0.3,0,0.6-0.3,0.6-0.6
					C188.4,180.2,188.1,180,187.8,180z"/>
			</g>
		</g>
		<g>
			<g>
				<path class="st0" d="M223.9,182.2c-0.9,0-1.6-0.7-1.6-1.6c0-0.9,0.7-1.6,1.6-1.6c0.9,0,1.6,0.7,1.6,1.6
					C225.5,181.5,224.8,182.2,223.9,182.2z M223.9,180c-0.3,0-0.6,0.3-0.6,0.6c0,0.3,0.3,0.6,0.6,0.6c0.3,0,0.6-0.3,0.6-0.6
					C224.5,180.2,224.3,180,223.9,180z"/>
			</g>
		</g>
		<g>
			<g>
				<path class="st0" d="M228.3,167.2h-45.5v-10.1h45.5V167.2z M183.7,166.3h43.6v-8.2h-43.6V166.3z"/>
			</g>
		</g>
		<g>
			<g>
				<rect x="205.5" y="159.4" class="st2" width="20.4" height="5.5"/>
			</g>
		</g>
		<g>
			<g>
				<path class="st0" d="M228.3,176.5h-45.5v-10.2h45.5V176.5z M183.7,175.5h43.6v-8.3h-43.6V175.5z"/>
			</g>
		</g>
		<g>
			<g>
				<rect x="205.5" y="168.6" class="st2" width="20.4" height="5.5"/>
			</g>
		</g>
		<g>
			<g>
				<path class="st0" d="M187.8,163.8c-0.9,0-1.6-0.7-1.6-1.6c0-0.9,0.7-1.6,1.6-1.6c0.9,0,1.6,0.7,1.6,1.6
					C189.4,163,188.7,163.8,187.8,163.8z M187.8,161.5c-0.3,0-0.6,0.3-0.6,0.6c0,0.3,0.3,0.6,0.6,0.6c0.3,0,0.6-0.3,0.6-0.6
					C188.4,161.8,188.1,161.5,187.8,161.5z"/>
			</g>
		</g>
		<g>
			<g>
				<path class="st0" d="M223.9,163.8c-0.9,0-1.6-0.7-1.6-1.6c0-0.9,0.7-1.6,1.6-1.6c0.9,0,1.6,0.7,1.6,1.6
					C225.5,163,224.8,163.8,223.9,163.8z M223.9,161.5c-0.3,0-0.6,0.3-0.6,0.6c0,0.3,0.3,0.6,0.6,0.6c0.3,0,0.6-0.3,0.6-0.6
					C224.5,161.8,224.3,161.5,223.9,161.5z"/>
			</g>
		</g>
		<g>
			<g>
				<path class="st0" d="M187.8,173c-0.9,0-1.6-0.7-1.6-1.6c0-0.9,0.7-1.6,1.6-1.6c0.9,0,1.6,0.7,1.6,1.6
					C189.4,172.3,188.7,173,187.8,173z M187.8,170.8c-0.3,0-0.6,0.3-0.6,0.6c0,0.3,0.3,0.6,0.6,0.6c0.3,0,0.6-0.3,0.6-0.6
					C188.4,171,188.1,170.8,187.8,170.8z"/>
			</g>
		</g>
		<g>
			<g>
				<path class="st0" d="M223.9,173c-0.9,0-1.6-0.7-1.6-1.6c0-0.9,0.7-1.6,1.6-1.6c0.9,0,1.6,0.7,1.6,1.6
					C225.5,172.3,224.8,173,223.9,173z M223.9,170.8c-0.3,0-0.6,0.3-0.6,0.6c0,0.3,0.3,0.6,0.6,0.6c0.3,0,0.6-0.3,0.6-0.6
					C224.5,171,224.3,170.8,223.9,170.8z"/>
			</g>
		</g>
		<g>
			<g>
				<path class="st0" d="M228.3,158.1h-45.5v-10.2h45.5V158.1z M183.7,157.1h43.6v-8.3h-43.6V157.1z"/>
			</g>
		</g>
		<g>
			<g>
				<rect x="205.5" y="150.2" class="st2" width="20.4" height="5.5"/>
			</g>
		</g>
		<g>
			<g>
				<path class="st0" d="M187.8,154.5c-0.9,0-1.6-0.7-1.6-1.6c0-0.9,0.7-1.6,1.6-1.6c0.9,0,1.6,0.7,1.6,1.6
					C189.4,153.8,188.7,154.5,187.8,154.5z M187.8,152.3c-0.3,0-0.6,0.3-0.6,0.6c0,0.3,0.3,0.6,0.6,0.6c0.3,0,0.6-0.3,0.6-0.6
					C188.4,152.6,188.1,152.3,187.8,152.3z"/>
			</g>
		</g>
		<g>
			<g>
				<path class="st0" d="M223.9,154.5c-0.9,0-1.6-0.7-1.6-1.6c0-0.9,0.7-1.6,1.6-1.6c0.9,0,1.6,0.7,1.6,1.6
					C225.5,153.8,224.8,154.5,223.9,154.5z M223.9,152.3c-0.3,0-0.6,0.3-0.6,0.6c0,0.3,0.3,0.6,0.6,0.6c0.3,0,0.6-0.3,0.6-0.6
					C224.5,152.6,224.3,152.3,223.9,152.3z"/>
			</g>
		</g>
		<g>
			<g>
				<path class="st0" d="M191.3,190.5h-2.9v-5.8h2.9V190.5z M189.4,189.5h1v-3.9h-1V189.5z"/>
			</g>
		</g>
		<g>
			<g>
				<path class="st0" d="M221.8,190.5h-2.9v-5.8h2.9V190.5z M219.8,189.5h1v-3.9h-1V189.5z"/>
			</g>
		</g>
		<g>
			<g>
				<path class="st0" d="M228.3,193.2h-45.5v-3.7h45.5V193.2z M183.7,192.3h43.6v-1.8h-43.6V192.3z"/>
			</g>
		</g>
		<g>
			<g>
				<rect x="205" y="129.9" class="st0" width="1" height="18.4"/>
			</g>
		</g>
		<g>
			<g>
				<path class="st0" d="M201.2,144.7h-3.8c-2.9,0-5.3-2.4-5.3-5.3v-0.5h9.1V144.7z M193.1,139.9c0.2,2.2,2.1,3.9,4.3,3.9h2.9v-3.9
					H193.1z"/>
			</g>
		</g>
		<g>
			<g>
				<path class="st6" d="M197.4,142.5c-1.1,0-2.1-0.6-2.7-1.5h4.3v1.5H197.4z"/>
			</g>
		</g>
		<g>
			<g>
				<path class="st0" d="M213.2,145.6h-5.1v-7.7h12.3v0.5C220.5,142.4,217.2,145.6,213.2,145.6z M209.1,144.6h4.1
					c3.3,0,6-2.6,6.2-5.8h-10.4V144.6z"/>
			</g>
		</g>
		<g>
			<g>
				<path class="st6" d="M210.3,143.4V140h7.7c-0.7,2-2.6,3.4-4.8,3.4H210.3z"/>
			</g>
		</g>
		<g>
			<g>
				<path class="st6" d="M172.3,146.5h-3.6v-0.7c0-3.3,1.3-6.4,3.6-8.8l0,0l0,0c2.3,2.3,3.6,5.5,3.6,8.8v0.7H172.3L172.3,146.5z"/>
			</g>
		</g>
		<g>
			<g>
				<path class="st0" d="M178.1,148.6h-11.6v-2.9c0-3.9,1.5-7.5,4.3-10.3l1.5-1.5l1.5,1.5c2.7,2.7,4.3,6.4,4.3,10.3V148.6z
					 M172.8,147.7h4.3v-1.9c0-3.6-1.4-7-4-9.6l-0.8-0.8l-0.8,0.8c-2.6,2.6-4,6-4,9.6v1.9h4.3v-3.4h1l0,0.5V147.7z"/>
			</g>
		</g>
		<g>
			<g>
				<path class="st0" d="M172.6,162.6v-1c2.4,0,4.4-2,4.4-4.4v-2.9h1v2.9C177.9,160.3,175.5,162.6,172.6,162.6z"/>
			</g>
		</g>
		<g>
			<g>
				<path class="st0" d="M172.3,160.8c-2.9,0-5.3-2.4-5.3-5.3v-1.4h1v1.4c0,2.4,2,4.4,4.4,4.4V160.8z"/>
			</g>
		</g>
		<g>
			<g>
				<path class="st0" d="M183.1,171.6c-6.2,0-11.3-5.1-11.3-11.3v-18.6h1v18.6c0,5.7,4.6,10.3,10.3,10.3V171.6z"/>
			</g>
		</g>
		<g>
			<g>
				<path class="st0" d="M167.5,154.6c-1.1,0-2-0.9-2-2c0-1.1,0.9-2,2-2s2,0.9,2,2C169.4,153.7,168.5,154.6,167.5,154.6z
					 M167.5,151.6c-0.6,0-1,0.5-1,1c0,0.6,0.5,1,1,1s1-0.5,1-1C168.5,152,168,151.6,167.5,151.6z"/>
			</g>
		</g>
		<g>
			<g>
				<path class="st0" d="M177.4,155.1c-1.1,0-2-0.9-2-2c0-1.1,0.9-2,2-2c1.1,0,2,0.9,2,2C179.4,154.2,178.5,155.1,177.4,155.1z
					 M177.4,152.1c-0.6,0-1,0.5-1,1s0.5,1,1,1c0.6,0,1-0.5,1-1S178,152.1,177.4,152.1z"/>
			</g>
		</g>
		<g>
			<g>
				<path class="st0" d="M206,146.3h-1c0-2.9,2.4-5.3,5.3-5.3h2.9v1h-2.9C207.9,141.9,206,143.9,206,146.3z"/>
			</g>
		</g>
		<g>
			<g>
				<path class="st0" d="M206,147.1h-1c0-2.7-2.2-4.8-4.8-4.8H197v-1h3.2C203.4,141.3,206,143.9,206,147.1z"/>
			</g>
		</g>
	</g>
	<g>
		<g>
			<path class="st0" d="M748.7,184.8h-22.8v-9.5h22.8V184.8z M726.9,183.8h20.8v-7.4h-20.8V183.8z"/>
			<rect x="736.7" y="177.6" class="st3" width="9.8" height="5.1"/>
			<path class="st0" d="M748.7,193.2h-22.8v-9.4h22.8V193.2z M726.9,192.2h20.8v-7.4h-20.8V192.2z"/>
			<rect x="736.7" y="186" class="st3" width="9.8" height="5"/>
			<path class="st0" d="M730.6,181.6c-0.8,0-1.5-0.7-1.5-1.5c0-0.8,0.7-1.5,1.5-1.5c0.8,0,1.5,0.7,1.5,1.5
				C732.1,180.9,731.4,181.6,730.6,181.6z M730.6,179.6c-0.3,0-0.5,0.2-0.5,0.5c0,0.3,0.2,0.5,0.5,0.5s0.5-0.2,0.5-0.5
				C731.1,179.8,730.8,179.6,730.6,179.6z"/>
			<path class="st0" d="M744.7,181.6c-0.8,0-1.5-0.7-1.5-1.5c0-0.8,0.7-1.5,1.5-1.5c0.8,0,1.5,0.7,1.5,1.5
				C746.2,180.9,745.5,181.6,744.7,181.6z M744.7,179.6c-0.3,0-0.5,0.2-0.5,0.5c0,0.3,0.2,0.5,0.5,0.5s0.5-0.2,0.5-0.5
				C745.2,179.8,744.9,179.6,744.7,179.6z"/>
			<path class="st0" d="M730.6,190.1c-0.8,0-1.5-0.7-1.5-1.5s0.7-1.5,1.5-1.5c0.8,0,1.5,0.7,1.5,1.5S731.4,190.1,730.6,190.1z
				 M730.6,188.1c-0.3,0-0.5,0.2-0.5,0.5s0.2,0.5,0.5,0.5s0.5-0.2,0.5-0.5S730.8,188.1,730.6,188.1z"/>
			<path class="st0" d="M744.7,190.1c-0.8,0-1.5-0.7-1.5-1.5s0.7-1.5,1.5-1.5c0.8,0,1.5,0.7,1.5,1.5S745.5,190.1,744.7,190.1z
				 M744.7,188.1c-0.3,0-0.5,0.2-0.5,0.5s0.2,0.5,0.5,0.5s0.5-0.2,0.5-0.5S744.9,188.1,744.7,188.1z"/>
		</g>
		<g>
			<g>
				<g>
					<path class="st6" d="M744.7,150.4h3v-0.6c0-2.8-1.1-5.4-3.1-7.4l0,0l0,0c-2,2-3.1,4.6-3.1,7.4v0.6H744.7L744.7,150.4z"/>
				</g>
			</g>
			<g>
				<g>
					<path class="st0" d="M739.8,149.8c0-3.3,1.3-6.3,3.6-8.6l1.3-1.3l1.3,1.3c2.3,2.3,3.6,5.4,3.6,8.6v2.4h-9.7V149.8z M744.3,149
						l0-0.4h0.8v2.8h3.6v-1.6c0-3.1-1.2-5.9-3.3-8.1l-0.7-0.7l-0.7,0.7c-2.2,2.2-3.3,5-3.3,8.1v1.6h3.6V149z"/>
				</g>
			</g>
			<g>
				<g>
					<path class="st0" d="M744.4,164v-0.8c-2,0-3.7-1.6-3.7-3.7v-2.5H740v2.5C740,162,742,164,744.4,164z"/>
				</g>
			</g>
			<g>
				<g>
					<path class="st0" d="M744.7,162.5c2.5,0,4.5-2,4.5-4.5v-1.2h-0.8v1.2c0,2-1.6,3.7-3.7,3.7V162.5z"/>
				</g>
			</g>
			<g>
				<g>
					<path class="st0" d="M735.6,171.6c5.2,0,9.5-4.3,9.5-9.5v-15.6h-0.8V162c0,4.8-3.9,8.7-8.7,8.7V171.6z"/>
				</g>
			</g>
			<g>
				<g>
					<path class="st0" d="M747.1,155.6c0-0.9,0.7-1.7,1.7-1.7c0.9,0,1.7,0.7,1.7,1.7c0,0.9-0.7,1.7-1.7,1.7
						C747.9,157.2,747.1,156.5,747.1,155.6z M747.9,155.6c0,0.5,0.4,0.9,0.9,0.9c0.5,0,0.9-0.4,0.9-0.9c0-0.5-0.4-0.9-0.9-0.9
						C748.3,154.7,747.9,155.1,747.9,155.6z"/>
				</g>
			</g>
			<g>
				<g>
					<path class="st0" d="M738.7,156c0-0.9,0.7-1.7,1.7-1.7c0.9,0,1.7,0.7,1.7,1.7s-0.7,1.7-1.7,1.7
						C739.5,157.7,738.7,157,738.7,156z M739.5,156c0,0.5,0.4,0.9,0.9,0.9c0.5,0,0.9-0.4,0.9-0.9s-0.4-0.9-0.9-0.9
						C739.9,155.2,739.5,155.6,739.5,156z"/>
				</g>
			</g>
		</g>
		<path class="st5" d="M732.2,147.5h-44.2c-1.8,0-3.3,1.5-3.3,3.3v27.1c0,1.8,1.5,3.3,3.3,3.3h44.2c1.8,0,3.3-1.5,3.3-3.3v-27.1
			C735.5,149,734,147.5,732.2,147.5z"/>
		<path class="st0" d="M732.4,181.3h-44.6c-1.8,0-3.3-1.5-3.3-3.3v-27.3c0-1.8,1.5-3.3,3.3-3.3h44.6c1.8,0,3.3,1.5,3.3,3.3V178
			C735.7,179.8,734.2,181.3,732.4,181.3z M687.7,148.4c-1.3,0-2.3,1-2.3,2.3V178c0,1.3,1,2.3,2.3,2.3h44.6c1.3,0,2.3-1,2.3-2.3
			v-27.3c0-1.3-1-2.3-2.3-2.3H687.7z"/>
		<path class="st0" d="M731.7,177.3h-43.3v-26h43.3V177.3z M689.4,176.3h41.3v-24h-41.3V176.3z"/>
		<path class="st0" d="M726.9,193.2h-33.1v-4.5h7.6l2.2-8.5h13.4l2.2,8.5h7.6V193.2z M694.9,192.2h31v-2.4h-7.3l-2.2-8.5h-11.9
			l-2.2,8.5h-7.3V192.2z"/>
		<polygon class="st2" points="716.5,186.8 715.4,182.5 705.3,182.5 704.2,186.8 		"/>
		<polygon class="st3" points="701.8,164.3 701.8,164.3 701.8,164.3 		"/>
		<rect x="713.8" y="157.5" class="st0" width="12.5" height="1"/>
		<rect x="713.8" y="160.6" class="st0" width="12.5" height="1"/>
		<rect x="713.8" y="163.7" class="st0" width="12.5" height="1"/>
		<rect x="713.8" y="166.8" class="st0" width="12.5" height="1"/>
		<rect x="713.8" y="169.9" class="st0" width="6.8" height="1"/>
		<path class="st0" d="M701.8,156.9c4,0,7.3,3.3,7.3,7.3s-3.3,7.3-7.3,7.3c-4,0-7.3-3.3-7.3-7.3S697.8,156.9,701.8,156.9
			 M701.8,155.9c-4.6,0-8.3,3.7-8.3,8.3c0,4.6,3.7,8.3,8.3,8.3s8.3-3.7,8.3-8.3C710.1,159.7,706.4,155.9,701.8,155.9L701.8,155.9z"
			/>
		<g>
			<path class="st2" d="M707.4,167.5c-0.6,1-1.4,1.8-2.3,2.3c-1,0.6-2.1,0.9-3.2,0.9s-2.2-0.3-3.2-0.9c-1-0.6-1.8-1.4-2.3-2.3
				c-0.6-1-0.9-2.1-0.9-3.2s0.3-2.2,0.9-3.2c0.6-1,1.4-1.8,2.3-2.3c1-0.6,2.1-0.9,3.2-0.9s2.2,0.3,3.2,0.9c1,0.6,1.8,1.4,2.3,2.3
				c0.6,1,0.9,2.1,0.9,3.2S708,166.5,707.4,167.5z M707.1,161.2c-0.6-0.9-1.3-1.7-2.2-2.2c-0.9-0.6-2-0.8-3.1-0.8s-2.1,0.3-3.1,0.8
				c-0.9,0.6-1.7,1.3-2.2,2.2c-0.6,0.9-0.8,2-0.8,3.1c0,1.1,0.3,2.1,0.8,3.1c0.6,0.9,1.3,1.7,2.2,2.2c0.9,0.6,2,0.8,3.1,0.8
				s2.1-0.3,3.1-0.8c0.9-0.6,1.7-1.3,2.2-2.2c0.6-0.9,0.8-2,0.8-3.1C708,163.2,707.7,162.1,707.1,161.2z M699.4,169.2
				c-0.9-0.4-1.7-1.1-2.3-2c-0.6-0.9-0.9-1.9-0.9-2.9c0-0.8,0.2-1.5,0.5-2.3L699.4,169.2z M705.4,163.1c-0.1-0.2-0.2-0.4-0.3-0.6
				l-0.1-0.1c-0.2-0.3-0.3-0.5-0.3-0.6c-0.1-0.2-0.2-0.4-0.2-0.6c0-0.3,0.1-0.5,0.3-0.7s0.4-0.3,0.7-0.3h0.1
				c-0.5-0.4-1.1-0.8-1.7-1.1c-0.6-0.3-1.3-0.4-2-0.4c-0.9,0-1.8,0.2-2.6,0.7c-0.8,0.4-1.5,1.1-2,1.8h0.4c0.2,0,0.6,0,1,0l0.5,0
				c0.1,0,0.2,0,0.2,0.1c0,0.1,0,0.2,0,0.2c0,0.1-0.1,0.1-0.2,0.1l-0.6,0.1l2,6l1.2-3.6l-0.9-2.4c-0.2,0-0.4,0-0.6-0.1
				c-0.1,0-0.1,0-0.2-0.1c0-0.1,0-0.2,0-0.2s0.1-0.1,0.2-0.1l0.5,0c0.4,0,0.7,0,0.9,0c0.2,0,0.5,0,0.9,0l0.5,0c0.1,0,0.2,0,0.2,0.1
				c0,0.1,0,0.2,0,0.2c0,0.1-0.1,0.1-0.2,0.1l-0.6,0.1l2,5.9l0.6-2c0.1-0.4,0.2-0.7,0.3-0.9c0.1-0.3,0.1-0.5,0.1-0.7
				C705.6,163.7,705.5,163.4,705.4,163.1z M700.3,169.5c0.5,0.2,1,0.2,1.6,0.2c0.6,0,1.2-0.1,1.8-0.3l-0.1-0.1l-1.7-4.6L700.3,169.5
				z M706.7,162.2c0,0.6-0.1,1.3-0.4,2l-1.7,4.9c0.8-0.5,1.5-1.1,2-2c0.5-0.8,0.8-1.8,0.8-2.8c0-0.9-0.2-1.8-0.7-2.6
				C706.7,161.8,706.7,162,706.7,162.2z"/>
		</g>
	</g>
</g>
</svg>
