<?xml version="1.0" encoding="utf-8"?>
<!-- Generator: Adobe Illustrator 23.0.3, SVG Export Plug-In . SVG Version: 6.00 Build 0)  -->
<svg version="1.1" id="layer_1" xmlns="http://www.w3.org/2000/svg" xmlns:xlink="http://www.w3.org/1999/xlink" x="0px" y="0px"
	 viewBox="0 0 540 316.8" style="enable-background:new 0 0 540 316.8;" xml:space="preserve">
<style type="text/css">
	.st0{fill:#CAD2D9;}
	.st1{fill:#6FCADE;}
	.st2{fill:#FFFFFF;}
	.st3{fill:#D2DBEB;}
	.st4{fill:#F38C6F;}
	.st5{opacity:0.4;}
	.st6{clip-path:url(#SVGID_2_);fill:#FCD2C5;}
	.st7{clip-path:url(#SVGID_2_);fill:#FFFFFF;}
	.st8{clip-path:url(#SVGID_2_);fill:#2D5DEA;}
	.st9{clip-path:url(#SVGID_2_);fill:#424DBF;}
	.st10{clip-path:url(#SVGID_2_);fill:#49555F;}
	.st11{fill-rule:evenodd;clip-rule:evenodd;fill:#49555F;}
	.st12{fill-rule:evenodd;clip-rule:evenodd;fill:#FFFFFF;}
	.st13{fill:#194767;}
	.st14{fill:#49555F;}
	.st15{fill:#FCD2C5;}
	.st16{fill:#424DBF;}
	.st17{fill-rule:evenodd;clip-rule:evenodd;fill:#CAD2D9;}
	.st18{fill:#3EC6C9;}
	.st19{fill:#E4EDF7;}
	.st20{fill-rule:evenodd;clip-rule:evenodd;fill:#194767;}
</style>
<g>
	<rect x="23" y="22.4" class="st0" width="394.2" height="293.5"/>
	<rect x="23" class="st1" width="394.2" height="31"/>
	<rect x="47.6" y="44.8" class="st2" width="342.2" height="238.8"/>
	<rect x="215.9" y="65.2" class="st0" width="31.8" height="7.6"/>
	<rect x="252" y="65.2" class="st0" width="69.6" height="7.6"/>
	<rect x="215.9" y="77.2" class="st0" width="11.4" height="7.6"/>
	<rect x="233.2" y="77.2" class="st0" width="63.2" height="7.6"/>
	<rect x="62" y="126.5" class="st0" width="58.4" height="6"/>
	<rect x="62" y="60.9" class="st0" width="58.4" height="53.6"/>
	<rect x="62" y="143.2" class="st0" width="58.4" height="6"/>
	<rect x="62" y="159.9" class="st0" width="58.4" height="6"/>
	<rect x="62" y="176.6" class="st0" width="58.4" height="6"/>
	<rect x="62" y="193.4" class="st0" width="58.4" height="6"/>
	<rect x="62" y="210.1" class="st0" width="58.4" height="6"/>
	<rect x="62" y="226.8" class="st0" width="58.4" height="6"/>
	<rect x="62" y="243.5" class="st0" width="58.4" height="6"/>
	<rect x="62" y="260.2" class="st0" width="58.4" height="6"/>
	<path class="st3" d="M203.9,250.6h-15.1c-1.4,0-2.6,1.1-2.6,2.6v6.7c0,1.4,1.1,2.6,2.6,2.6h10.4l-1.3,2.8l6-2.8
		c1.4,0,2.6-1.1,2.6-2.6v-6.7C206.4,251.7,205.3,250.6,203.9,250.6z"/>
	<path class="st2" d="M401.7,18.3c-1.8,0-3.3,1.5-3.3,3.3c0,1.8,1.5,3.3,3.3,3.3s3.3-1.5,3.3-3.3C405,19.8,403.5,18.3,401.7,18.3z"
		/>
	<path class="st2" d="M388.5,18.3c-1.8,0-3.3,1.5-3.3,3.3c0,1.8,1.5,3.3,3.3,3.3c1.8,0,3.3-1.5,3.3-3.3
		C391.8,19.8,390.3,18.3,388.5,18.3z"/>
	<rect x="71.3" y="67.4" class="st2" width="39.8" height="6.7"/>
	<rect x="71.3" y="78.5" class="st2" width="39.8" height="6.7"/>
	<rect x="71.3" y="89.7" class="st2" width="39.8" height="6.7"/>
	<rect x="71.3" y="100.8" class="st2" width="39.8" height="6.7"/>
	<path class="st0" d="M174.3,55.7c-10.6,0-19.3,8.6-19.3,19.3c0,10.6,8.6,19.3,19.3,19.3c10.6,0,19.3-8.6,19.3-19.3
		C193.6,64.3,185,55.7,174.3,55.7z"/>
	<path class="st4" d="M344.9,73.1c-2.5,0-4.5,2-4.5,4.5c0,2.5,2,4.5,4.5,4.5c2.5,0,4.5-2,4.5-4.5C349.4,75.1,347.4,73.1,344.9,73.1z
		"/>
	<path class="st4" d="M344.9,68.9c-4.8,0-8.7,3.9-8.7,8.7c0,4.8,3.9,8.7,8.7,8.7c4.8,0,8.7-3.9,8.7-8.7
		C353.5,72.8,349.7,68.9,344.9,68.9z M344.9,84.7c-3.9,0-7.1-3.2-7.1-7.1c0-3.9,3.2-7.1,7.1-7.1c3.9,0,7.1,3.2,7.1,7.1
		C352,81.5,348.8,84.7,344.9,84.7z"/>
	<rect x="154.3" y="102.3" class="st0" width="203.1" height="137.7"/>
	<g class="st5">
		<defs>
			
				<rect id="SVGID_1_" x="187.1" y="69.6" transform="matrix(-1.836970e-16 1 -1 -1.836970e-16 427.0843 -84.7213)" class="st5" width="137.7" height="203.1"/>
		</defs>
		<clipPath id="SVGID_2_">
			<use xlink:href="#SVGID_1_"  style="overflow:visible;"/>
		</clipPath>
		<path class="st6" d="M182.7,204.7c-0.2,0.5,1.9,2,2.4,2.1c1.4-0.3,1.2-1.1,2.6-1.2c-1.2-0.1-2.5-0.5-3.6-0.9
			C183.5,204.3,183,203.8,182.7,204.7z"/>
		<path class="st6" d="M184.5,206.1c-1.7,0.3-5.4,1.5-5.6,1.6c-0.7,0.3-2.7,0.8-3.2,1.1c-0.3,0.2-0.9,1.3-0.9,1.7
			c0,0.6,0.7,0.9,0.7,0.9c-0.2,0.8,2,0.8,1.9,1c-0.3,0.8,0.6,1.5,3.5,0.5c0.2-0.1,7.7-1.1,10-1.6c-0.2-1.5-2.1-5.8-2.2-5.8
			C187.4,205.5,185.9,205.8,184.5,206.1z"/>
		<path class="st6" d="M243.7,152.7c-4.1,5.4-12.2,25.7-18,34.6c-7.1,11,3.1,12,6.3,9.4c8.5-6.9,28.4-30,25.3-34.8
			C255.9,159.9,244.4,151.7,243.7,152.7z"/>
		<path class="st6" d="M228.4,188.6c-0.5,0-1,0.1-1.4,0.2c-6.9,2.3-31.1,15.4-38.7,16.7c0.9,2.3,1.5,4.3,1.7,5.9
			c12.5-2.3,42.9-11.7,43.4-16.8C233.9,190,230.7,188.6,228.4,188.6z"/>
		<path class="st7" d="M243.8,151.5c-0.6,0-1.1,0.3-1.4,0.7c-2,2.8-5,9.2-8.1,15.9c-3.1,6.8-6.3,13.8-9,18.2
			c-0.5,0.7-0.9,1.5-1.2,2.2c-2.8,1.3-6.5,3.1-10.4,5c-8.5,4.2-19.2,9.5-23.5,10.3l2.3,8.7c10.7-2.2,35.1-9.8,41.4-15.3
			c6.6-5.6,28.6-29.9,24.3-36.1C256.8,159,246.3,151.5,243.8,151.5z"/>
		<path class="st6" d="M267.2,284.3c-0.3,4.1,7.7,95.2,7.7,95.2c0.1,0.2,3.5,0.5,5.7-1.3c0,0,5-89.3,5.1-91.1
			C284.3,288.6,269.5,286.1,267.2,284.3z"/>
		<path class="st8" d="M281.9,378.1c-0.8-1-1.9-2.5-1.9-2.5l-4.8,2.7c0,0-0.4,0.5-0.1,2c0,0-0.7,1.7,0.2,3.2c0.5,0.8,3.5,1.7,5,2.6
			c1.3,0.7,3.3,0.9,5.7,0.8c2.3-0.1,5.2-1.3,5.2-2.7C291.2,381.4,283.5,380,281.9,378.1z"/>
		<path class="st6" d="M274.7,377.7c0,0,0.1,1,0.4,2.5c0,0,3,1.1,4,0.5c1.8-1,2.8-2.7,2.8-2.7c-1.2-1.5-1.7-2.8-1.7-2.8L274.7,377.7
			z"/>
		<path class="st9" d="M261.5,222.1v30c2.2,1.8,1.6,28.6,5.7,57c4.7,32.8,7.1,67.6,7.1,67.6c2.3,2.6,7,0,7-0.2
			c0,0,13-150.9,12.2-157C289.7,221.2,273,222.9,261.5,222.1z"/>
		<path class="st6" d="M242.8,287.1c0.2,1.8,5.1,91.1,5.1,91.1c2.2,1.8,5.7,1.4,5.7,1.3c0,0,8-91.1,7.7-95.2
			C259,286.1,244.2,288.6,242.8,287.1z"/>
		<path class="st8" d="M253.3,378.2l-4.8-2.7c0,0-1,1.5-1.9,2.5c-1.6,1.9-9.3,3.3-9.3,6c0,1.4,2.9,2.6,5.2,2.7
			c2.3,0.1,4.3-0.3,5.7-0.8c1.4-0.5,4.5-1.7,5-2.6c0.9-1.5,0.2-3.2,0.2-3.2C253.7,378.8,253.3,378.2,253.3,378.2z"/>
		<path class="st6" d="M246.7,378.1c0,0,1,1.7,2.8,2.7c1,0.6,4-0.5,4-0.5c0.2-1.5,0.4-2.5,0.4-2.5l-5.4-2.4
			C248.4,375.3,247.9,376.6,246.7,378.1z"/>
		<path class="st9" d="M235.1,219.5c-0.9,6.1,12.2,157,12.2,157c0.1,0.3,4.7,2.8,7,0.2c0,0,2.4-34.8,7.1-67.6
			c4-28.3,3.4-55.2,5.7-57v-30C255.6,222.9,238.9,221.2,235.1,219.5z"/>
		<path class="st9" d="M235,214.7c0,0-2.2,16.4-0.6,18.1c3.2,3.3,20.4,5.4,25.7,5.8l1.9-4.9l2.5,4.7c7.3,0,28.2-3.2,28.8-5.3
			c0.6-2.3,0.3-18.4,0.3-18.4H235z"/>
		<path class="st6" d="M269.8,130c-0.8,0.5-9.4,4.5-11.8,4c0,0.7,1.1,7.7-0.7,11.3c0.4,3.5,10,4.2,13.1-1.4
			C269.4,142.1,269.2,133.2,269.8,130z"/>
		<path class="st7" d="M280,147.2c-2.4-0.8-9.5-3.3-9.5-3.3s-5.5,4.1-8.9,4.1c-2.4,0-4.2-2.7-4.2-2.7s-8.6,2-10.2,2.7
			c-6.2,3-6.6,8.8-7.4,13.6c-0.8,4.9-10,54.5-5.2,57.2c6.5,3.7,52.6,5.4,58.5,0c7.9-7.2-4-54.8-4-57.2
			C289,155.3,287.2,149.5,280,147.2z"/>
		<path class="st6" d="M284.5,236.2c-0.6,0.4-1.3,0.6-0.7,1.3c0.4,0.5,2.7-0.6,3-1.1c0.4-1.4-0.4-1.6,0.2-2.9
			C286.4,234.5,285.4,235.4,284.5,236.2z"/>
		<path class="st6" d="M287.5,232.5c-0.6,1.2-1.1,2.6-1.6,4c-0.5,1.6-1.3,5.4-1.4,5.7c-0.1,0.8-0.7,2.7-0.6,3.3
			c0.1,0.4,0.7,1.4,1.1,1.6c0.6,0.3,1.1-0.2,1.1-0.2c0.6,0.5,1.7-1.3,1.8-1.1c0.5,0.7,1.6,0.2,2.1-2.8c0-0.2,2.8-7.2,3.5-9.6
			C292.2,232.9,287.5,232.5,287.5,232.5z"/>
		<path class="st6" d="M283.1,151.5c-2.5,0.2-15.2,6.2-14.7,7.3c2.7,6.2,16.4,23.3,21.4,32.7c6.1,11.5,12,3.2,11.3-0.9
			C299.1,179.8,288.8,151.1,283.1,151.5z"/>
		<path class="st6" d="M300,188.3c-3.8-2.7-6.6-0.6-7.7,1.4c-0.3,0.5-0.4,0.9-0.5,1.3c-1.4,7.2-1.8,34.7-4.4,42
			c2.5,0.3,4.5,0.8,6,1.4C297.4,222.3,304.1,191.2,300,188.3z"/>
		<path class="st7" d="M283.2,149.6c-2.5,0.2-14.2,5.7-15.4,7.9c-0.3,0.5-0.3,1.1-0.1,1.6c1.4,3.1,18.9,27.2,21.3,31.6
			c0.4,0.8,0.9,1.5,1.3,2.1c-0.3,3.1-0.5,7.2-0.7,11.6c-0.5,9.5-1.1,21.4-2.5,25.5l8.7,2.2c3.3-10.4,8.6-35.4,6.9-43.6
			C301.1,180,290.7,149,283.2,149.6z"/>
		<path class="st10" d="M259.7,130.3c-0.1-0.1-5.9-6.5-8-3.3c-1.4,3.9-1.9,8.6-0.7,13.4c1.7,7.1-3.3,3.9-6.2,10
			c-3.3,6.9,13,14.7,15.3,4.7c1.6-6.9-0.9-8.8-1.6-12.7C257.7,138.4,258.6,133.4,259.7,130.3z"/>
		<path class="st6" d="M261.4,117.1c-4.3-0.6-8,0.9-9.2,4.9c-0.5,1.4-0.8,14.8,6.2,17.3c2.9,1.1,9.1-3.6,9.6-7.1
			c0,0,1.2-4.9,1.2-4.9C269.7,122.7,266,117.8,261.4,117.1z"/>
		<path class="st10" d="M280.8,134.7c2.2-7.9-0.3-15.7-4.8-20.8c-4.5-5-10.7-5.1-14-3.7c-4.2,1.8-4.3,2.6-4.3,2.6s-2.1-0.5-4.5,0.8
			c-5,2.8-4.6,14.3-0.5,17.8c-0.7-3-0.7-8.4-0.7-8.4c1.5,0.7,10.7,1.8,15.1-0.4c2.2-1.1,2.9,10.5,1.5,16.3
			c-1.1,4.4-3.9,5.7-0.1,16.2c5.3,15,28.4,0.6,21.4-8.8C287.8,143.6,278.6,142.7,280.8,134.7z"/>
		<path class="st6" d="M268.5,125.6c-0.5,0-1.3,0.1-2,0.5c0.3,1.6,1.2,4.2,1.6,5.5c1.1-0.3,2.6-2,2.6-3.1
			C270.8,127.3,269.7,125.6,268.5,125.6z"/>
	</g>
	<path class="st4" d="M169.3,250.7c-1.8,0-3.3,1.2-3.9,2.8c-0.6-1.6-2.1-2.8-3.9-2.8c-2.3,0-4.1,1.8-4.1,4.1c0,4.6,8,10.3,8,10.3
		s8-5.4,8-10.3C173.4,252.5,171.6,250.7,169.3,250.7z"/>
	<path class="st3" d="M230.9,250.6h-3.7c-5,0-9,4-9,9v5.7h3.7v-5.5c0-3,2.5-5.5,5.5-5.5h3.4l-0.9,2l6.3-4l-6.3-3.7L230.9,250.6z"/>
	<path class="st3" d="M355,255.2c-1.5,0-2.7,1.2-2.7,2.7c0,1.5,1.2,2.7,2.7,2.7c1.5,0,2.7-1.2,2.7-2.7
		C357.7,256.4,356.5,255.2,355,255.2z"/>
	<path class="st3" d="M343.8,255.2c-1.5,0-2.7,1.2-2.7,2.7c0,1.5,1.2,2.7,2.7,2.7c1.5,0,2.7-1.2,2.7-2.7
		C346.5,256.4,345.3,255.2,343.8,255.2z"/>
	<path class="st3" d="M332.5,255.2c-1.5,0-2.7,1.2-2.7,2.7c0,1.5,1.2,2.7,2.7,2.7c1.5,0,2.7-1.2,2.7-2.7
		C335.2,256.4,334,255.2,332.5,255.2z"/>
	<path class="st11" d="M451.3,85.3h-84.8c-11.8,0-21.5,9.7-21.5,21.5v188.5c0,11.8,9.7,21.5,21.5,21.5h84.8
		c11.8,0,21.5-9.7,21.5-21.5V106.9C472.8,95,463.1,85.3,451.3,85.3z"/>
	<path class="st12" d="M451.3,90.1h-85c-9.2,0-16.8,7.6-16.8,16.8v188.6c0,9.4,7.7,17,17,17h84.8c9.4,0,17.1-7.7,17.1-17.1V107.1
		C468.3,97.7,460.7,90.1,451.3,90.1z"/>
	<path class="st11" d="M377.2,89.7c0,8.4,6.8,15.2,15.2,15.2h33c8.4,0,15.2-6.8,15.2-15.2v-0.6h-63.3V89.7z"/>
	<path class="st12" d="M421,96.5h-24.1c-0.9,0-1.5,0.7-1.5,1.5v0c0,0.9,0.7,1.5,1.5,1.5H421c0.9,0,1.5-0.7,1.5-1.5v0
		C422.5,97.2,421.8,96.5,421,96.5z"/>
	<path class="st12" d="M408.9,90.1c-1,0-1.8,0.8-1.8,1.8c0,1,0.8,1.8,1.8,1.8c1,0,1.8-0.8,1.8-1.8C410.7,91,409.9,90.1,408.9,90.1z"
		/>
	<rect x="349.4" y="124.5" class="st3" width="118.9" height="161.9"/>
	<rect x="349.4" y="115.1" class="st1" width="118.9" height="13.2"/>
	<rect x="359.1" y="134.9" class="st2" width="98.1" height="152.3"/>
	<rect x="384.1" y="140.2" class="st0" width="69.4" height="37.8"/>
	<rect x="387.2" y="200.7" class="st0" width="14.4" height="1.9"/>
	<rect x="408.8" y="200.7" class="st0" width="31.5" height="1.9"/>
	<rect x="444" y="200.7" class="st0" width="6.6" height="1.9"/>
	<rect x="428.8" y="203.7" class="st0" width="21.7" height="1.9"/>
	<rect x="387.2" y="203.7" class="st0" width="5.2" height="1.9"/>
	<rect x="395" y="203.7" class="st0" width="28.7" height="1.9"/>
	<rect x="387.2" y="206.6" class="st0" width="17.3" height="1.9"/>
	<rect x="407.9" y="206.6" class="st0" width="42.6" height="1.9"/>
	<rect x="387.2" y="184.5" class="st0" width="14.4" height="1.9"/>
	<rect x="408.8" y="184.5" class="st0" width="31.5" height="1.9"/>
	<rect x="444" y="184.5" class="st0" width="6.6" height="1.9"/>
	<rect x="428.8" y="187.5" class="st0" width="21.7" height="1.9"/>
	<rect x="387.2" y="187.5" class="st0" width="5.2" height="1.9"/>
	<rect x="395" y="187.5" class="st0" width="28.7" height="1.9"/>
	<rect x="387.2" y="190.4" class="st0" width="17.3" height="1.9"/>
	<rect x="407.9" y="190.4" class="st0" width="42.6" height="1.9"/>
	<rect x="364.1" y="140.4" class="st0" width="15.3" height="2.9"/>
	<rect x="364.1" y="148.6" class="st0" width="15.3" height="2.9"/>
	<rect x="364.1" y="156.7" class="st0" width="15.3" height="2.9"/>
	<rect x="364.1" y="164.9" class="st0" width="15.3" height="2.9"/>
	<rect x="364.1" y="173" class="st0" width="15.3" height="2.9"/>
	<rect x="364.1" y="181.2" class="st0" width="15.3" height="2.9"/>
	<rect x="364.1" y="189.3" class="st0" width="15.3" height="2.9"/>
	<rect x="364.1" y="197.4" class="st0" width="15.3" height="2.9"/>
	<rect x="364.1" y="205.6" class="st0" width="15.3" height="2.9"/>
	<path class="st2" d="M461.7,122.9c-0.8,0-1.4,0.6-1.4,1.4c0,0.8,0.6,1.4,1.4,1.4c0.8,0,1.4-0.6,1.4-1.4
		C463.1,123.6,462.5,122.9,461.7,122.9z"/>
	<path class="st2" d="M456.1,122.9c-0.8,0-1.4,0.6-1.4,1.4c0,0.8,0.6,1.4,1.4,1.4c0.8,0,1.4-0.6,1.4-1.4
		C457.5,123.6,456.9,122.9,456.1,122.9z"/>
	<path class="st4" d="M423.8,149.1h-9.9c-5.1,0-9.5,4.8-9.6,10c0,5.1,4.4,9.4,9.6,9.4h9.9c5.1,0,9.3-4.5,9.3-9.7
		C433.1,153.6,428.9,149.1,423.8,149.1z"/>
	<path class="st13" d="M404.3,159.1C404.3,159.1,404.3,159.1,404.3,159.1C404.3,159,404.3,159,404.3,159.1L404.3,159.1z"/>
	<polygon class="st2" points="415.9,164.6 425.1,159.3 415.9,154 	"/>
	<rect x="364.1" y="216.1" class="st0" width="89.5" height="48.7"/>
	<path class="st4" d="M415.3,227.8h-12.5c-6.5,0-12.6,6-12.7,12.5c0,6.5,6.2,12.1,12.7,12.1h12.5c6.5,0,11.8-5.8,11.8-12.3
		C427.1,233.6,421.8,227.8,415.3,227.8z"/>
	<path class="st13" d="M390.1,240.3C390.1,240.3,390.1,240.3,390.1,240.3c0-0.1,0-0.1,0-0.1V240.3z"/>
	<polygon class="st2" points="404.3,247.3 415.9,240.6 404.3,233.9 	"/>
	<path class="st3" d="M388.7,272.6h-8c-0.7,0-1.4,0.6-1.4,1.4v3.6c0,0.7,0.6,1.4,1.4,1.4h5.5l-0.7,1.5l3.2-1.5
		c0.7,0,1.4-0.6,1.4-1.4V274C390,273.2,389.4,272.6,388.7,272.6z"/>
	<path class="st14" d="M370.4,272.7c-0.9,0-1.7,0.6-2,1.5c-0.3-0.8-1.1-1.5-2-1.5c-1.2,0-2.2,1-2.2,2.2c0,2.4,4.2,5.5,4.2,5.5
		s4.2-2.8,4.2-5.5C372.5,273.6,371.6,272.7,370.4,272.7z"/>
	<path class="st3" d="M401,272.6c-2.6,0-4.7,2.1-4.7,4.7v3h1.9v-2.9c0-1.6,1.3-2.9,2.9-2.9h2.9l1.8-1.1l-1.8-0.9H401z"/>
	<path class="st14" d="M490.9,219.2c-8.3,0.4-52.1,16.1-69.9,26.8c-7.6,4.5-4.4,12.6,3.9,12.1c24.1-1.5,55.9-0.6,70.1-10.7
		C517.5,231.3,495.3,219,490.9,219.2z"/>
	<path class="st15" d="M444.9,303.5c-0.1,2.4-0.2,3.8-0.2,3.8c1.7,1.7,4.6,1.7,4.7,1.6c0,0,0.7-2.1,0.3-5.1
		C449.5,303.8,447.1,301.5,444.9,303.5z"/>
	<path class="st14" d="M417.7,258.5c14.5,26.1,26.9,47.9,26.9,47.9c0.9-1.7,3.2-2.8,5.5-2.2c0,0-8.4-24.5-16.9-49.4
		C427.7,238.4,411.8,247.8,417.7,258.5z"/>
	<path class="st3" d="M444.8,306c0,0-0.3,0.4-1.1,1.1c-1.5,1.5-8.4,4.5-8.6,6.8c-0.1,1.1,2.2,2.4,4.1,2.7c2,0.3,3.7,0.4,4.8-0.2
		c1.4-0.6,4.2-3.6,4.7-4.3c0.9-1.2,0.9-4.3,0.9-4.3C448.5,305.1,444.8,306,444.8,306z"/>
	<path class="st3" d="M444.7,308.9c-2,1.4-8.3,3.6-8.5,5.5c-0.1,1,1.8,2,3.5,2.3c1.6,0.2,3.1,0.3,4.1-0.1c1.2-0.5,3.6-3,4-3.6
		C449.9,309.8,446.6,307.5,444.7,308.9z"/>
	<path class="st15" d="M482,304.6c-0.4,3,1.4,5.8,1.4,5.8c0.1,0.1,4.3-1.4,6-3.1c0,0-1.3-2-2.2-3.9
		C484.9,301.5,482.3,304.7,482,304.6z"/>
	<path class="st14" d="M456.5,262.3c14.5,26.1,25.6,44,25.6,44c0.9-1.7,3.2-2.8,5.5-2.2c0,0-7.1-20.6-15.6-45.5
		C466.5,242.3,450.6,251.7,456.5,262.3z"/>
	<path class="st3" d="M489.1,307.1c-0.8-0.8-1.1-1.1-1.1-1.1s-3.7-0.9-4.8,1.8c0,0,0,3.2,0.9,4.3c0.5,0.7,3.3,3.7,4.7,4.3
		c1.1,0.5,2.9,0.4,4.8,0.2c2-0.3,4.3-1.6,4.1-2.7C497.5,311.6,490.6,308.6,489.1,307.1z"/>
	<path class="st3" d="M488.1,308.9c-1.9-1.3-5.2,1-3,4.1c0.4,0.6,2.8,3.1,4,3.6c0.9,0.4,2.4,0.4,4.1,0.1c1.6-0.2,3.6-1.3,3.5-2.3
		C496.5,312.5,490.1,310.2,488.1,308.9z"/>
	<path class="st3" d="M504.3,218.4c-9.6,1.2-19.2,2.6-29,2.8c-6,0.1-11.7-0.5-17.1-2c0,9-1.8,10.4-5.8,12.8
		c2.9,9.9,8.6,12.7,13.5,14.3c13,4.3,45.6-5.5,46.5-5.6c0-7.2-0.7-15.2-1.6-23.3C508.7,217.9,506.5,218.2,504.3,218.4z"/>
	<path class="st15" d="M484.3,139.3c-0.7,0.5-7.7,4.4-9.7,4.1c0,0.6,1.4,6.4,0.1,9.6c0.6,2.9,8.7,2.9,10.9-2
		C484.8,149.6,484,142,484.3,139.3z"/>
	<path class="st15" d="M477,129.7c-3.7-0.2-7.2,0.6-8,4.1c-0.3,1.2,0.3,12.5,6.3,14.1c2.5,0.7,7.4-3.6,7.6-6.6c0,0,0.3-4,0.3-4.1
		C483.3,133.3,480.9,129.9,477,129.7z"/>
	<path class="st16" d="M493.9,153.1c-2.1-0.5-8.2-2.2-8.2-2.2s-1.2,1.7-5,2.5c-3.4,0.7-5.9-0.4-5.9-0.4s-7.1,2.2-8.4,2.9
		c-5,2.9-5,5-5.4,11.9c-0.2,3.2-0.2,52.5-8,63.9c0.3,0.5,3.1,7.2,9.5,8.9l1.6-14l1.4,14.6c15.1,3.2,26.6-2.7,38.7-4.6l1.2-18.3
		l3.5,17.7c1.2-0.1,2.2-0.3,3.2-0.3c-0.2-28-7.9-70-8.2-71.3C502.4,159.1,500.1,154.6,493.9,153.1z"/>
	<path class="st14" d="M484.7,125.2c-5.7-4.5-15.4-0.1-18,5.8c-1.9,4.4-3.7,1.3-3.5,0.2c-0.6,2.9,0.7,5.5,6.3,5
		c1.2-0.1-2.6,1.1-2.6,1.1s6,12.5,15.3,9.4c2.8-0.9,5.2-3.6,5.2-3.6s-3,0.5-1.4-2C489.1,136.4,489.8,129.2,484.7,125.2z"/>
	<path class="st15" d="M402.4,156c-0.5,0.1-0.4,2.3-0.1,2.7c0.9,0.8,1.4,0.3,2.2,1.1c-0.6-0.9-1-1.9-1.2-2.9
		C403.1,156.4,403.1,155.8,402.4,156z"/>
	<path class="st15" d="M402.4,158c-1.1-1-3.8-2.8-4-2.9c-0.6-0.3-1.9-1.4-2.4-1.5c-0.3-0.1-1.3,0-1.6,0.3c-0.4,0.3-0.2,0.9-0.2,0.9
		c-0.6,0.3,0.5,1.7,0.3,1.8c-0.7,0.2-0.7,1.2,1.5,2.6c0.1,0.1,4.7,4.6,6.2,5.9c0.9-0.9,2.8-4.4,2.7-4.4
		C404.2,159.6,403.3,158.8,402.4,158z"/>
	<path class="st15" d="M435.2,176c-0.3-0.3-0.7-0.5-1-0.6c-5.8-2-24.4-12.4-30.1-15.5c-0.6,2-1.2,3.7-1.9,4.8
		c9.5,4.9,30.3,21,33.2,17.9C438.1,179.8,436.7,177.2,435.2,176z"/>
	<path class="st15" d="M463.9,160.1c-5.5,1.5-21.4,10.7-29.9,13.7c-10.4,3.6-4.1,9.6-0.6,9.5c9.2-0.2,34.4-5.2,34.8-10
		C468.3,171.2,464.9,159.8,463.9,160.1z"/>
	<path class="st16" d="M465,156.8c-5.1,2.9-9.8,5.5-15.6,8.4c-5.8,2.9-17.3,7.9-17.9,8.2c-2.6-0.7-22.6-12.1-25.9-13.9l-4.1,6.4
		c7.5,5.3,24.7,19,31.9,18.7c7.5-0.2,32.1-4.4,34.6-10.4C472.2,164.1,465.4,156.6,465,156.8z"/>
	<polygon class="st0" points="515.8,261.7 534.8,316.8 536.9,316.8 517.9,261.7 	"/>
	<polygon class="st0" points="483.8,261.7 502.8,316.8 504.9,316.8 485.9,261.7 	"/>
	<path class="st0" d="M520,180.2c-13.3,0-26.1,10.8-28.5,24l-8.3,34.5c-1.5,7.8-10,13.5-18,13.5h-17.3c-2.6,0-4.7,2.1-4.7,4.7
		c0,2.6,2.1,4.7,4.7,4.7l71.3,0.1c3.3,0,6.2-2.3,6.8-5.6l13.6-51.9C542.1,191,533.3,180.2,520,180.2z"/>
	<path class="st2" d="M520,180.2c-13.3,0-26.1,10.8-28.5,24l-8.3,34.5c-1.5,7.8-10,13.5-18,13.5h-17.3c-2.6,0-4.7,2.1-4.7,4.7
		c0,2.6,2.1,4.7,4.7,4.7l2.2,0c0.7-1.7,2.4-2.9,4.3-2.9h17.3c7.9,0,16.5-5.6,18-13.4l8.3-34.5c2.5-13.3,15.3-24,28.5-24
		c4,0,7.7,1,10.7,2.8C534,183.9,527.8,180.2,520,180.2z"/>
	<polygon class="st2" points="442.2,316.8 444.3,316.8 463.3,261.7 461.2,261.7 	"/>
	<polygon class="st2" points="474.2,316.8 476.4,316.8 495.3,261.7 493.2,261.7 	"/>
	<path class="st17" d="M263.6,85.7h-9.2c-1.3,0-2.3,1.1-2.3,2.3v20.5c0,1.3,1.1,2.3,2.3,2.3h9.2c1.3,0,2.3-1.1,2.3-2.3V88
		C266,86.7,264.9,85.7,263.6,85.7z"/>
	<path class="st15" d="M258.7,125.9c0.1-0.6,0.3-1.2-0.5-1.1c-0.5,0-1.1,2.1-0.9,2.5c0.7,1,1.3,0.7,1.7,1.7
		C258.8,128,258.7,126.9,258.7,125.9z"/>
	<path class="st15" d="M255.7,124.6c-0.4-0.4-1.2-1.5-1.6-1.7c-0.3-0.1-1.2-0.2-1.6-0.1c-0.5,0.2-0.5,0.7-0.5,0.7
		c-0.7,0.1-0.2,1.5-0.4,1.5c-0.7,0-1,0.8,0.4,2.4c0.1,0.1,2.7,4.6,3.7,5.9c1.1-0.6,4.1-3,4.1-3.1c-0.4-0.8-0.9-1.7-1.5-2.5
		C257.6,126.7,255.8,124.7,255.7,124.6z"/>
	<path class="st15" d="M291.9,122.8c-3.1,4.8-8.9,22.3-13.3,30.1c-5.4,9.6,3.3,9.9,5.8,7.5c6.8-6.3,22.3-26.7,19.4-30.6
		C302.6,128.2,292.5,122,291.9,122.8z"/>
	<path class="st18" d="M291.9,122.8c-2.2,3.4-6.1,13.1-10.3,20.8c2.3,1.8,5.7,4.1,8.3,5.5c1,0.6,4.2,2.4,5.2,2.9
		c6.4-8.2,10.6-19.5,8.7-22.1C302.6,128.2,292.5,122,291.9,122.8z"/>
	<path class="st15" d="M283.7,155.2c-3.9-4.8-21.3-20.1-24.5-25.8c-1.6,1.4-3,2.5-4.2,3.1c5.5,9.2,21.8,30.5,25.9,29.5
		c3.8-1,4-3.9,3.3-5.7C284.1,155.8,284,155.5,283.7,155.2z"/>
	<path class="st15" d="M314.3,229.8c-0.3,3.5,6.5,80.3,6.5,80.3c0.1,0.1,3,0.4,4.8-1.1c0,0,4.2-75.3,4.3-76.8
		C328.8,233.5,316.3,231.3,314.3,229.8z"/>
	<path class="st13" d="M326.7,308.9c-0.7-0.8-1.6-2.1-1.6-2.1l-4,2.2c0,0-0.3,0.4-0.1,1.7c0,0-0.6,1.4,0.2,2.7
		c0.4,0.7,2.9,1.4,4.3,2.2c1.1,0.6,2.8,0.7,4.8,0.7c2-0.1,4.4-1.1,4.4-2.3C334.6,311.7,328.1,310.5,326.7,308.9z"/>
	<path class="st15" d="M320.7,308.6c0,0,0.1,0.9,0.3,2.1c0,0,2.5,0.9,3.4,0.4c1.5-0.8,2.3-2.2,2.3-2.2c-1-1.3-1.4-2.4-1.4-2.4
		L320.7,308.6z"/>
	<path class="st19" d="M309.5,177.4c0,0,1.4,49.4,4.8,73.3c3.9,27.7,6,57,6,57c2,2.2,5.9,0,5.9-0.2c0,0,11-127.2,10.3-132.3
		C333.3,176.6,319.2,178.1,309.5,177.4z"/>
	<path class="st15" d="M295,232.2c0.1,1.5,4.3,76.8,4.3,76.8c1.8,1.5,4.8,1.2,4.8,1.1c0,0,6.8-76.8,6.5-80.3
		C308.8,231.3,296.3,233.5,295,232.2z"/>
	<path class="st13" d="M303.9,309l-4-2.2c0,0-0.9,1.3-1.6,2.1c-1.4,1.6-7.9,2.8-7.9,5.1c0,1.2,2.4,2.2,4.4,2.3
		c2,0.1,3.6-0.3,4.8-0.7c1.2-0.4,3.8-1.5,4.3-2.2c0.7-1.2,0.2-2.7,0.2-2.7C304.3,309.5,303.9,309,303.9,309z"/>
	<path class="st15" d="M298.3,308.9c0,0,0.8,1.4,2.3,2.2c0.9,0.5,3.4-0.4,3.4-0.4c0.2-1.3,0.3-2.1,0.3-2.1l-4.6-2.1
		C299.8,306.6,299.4,307.6,298.3,308.9z"/>
	<path class="st19" d="M288.5,175.2c-0.7,5.2,10.3,132.3,10.3,132.3c0.1,0.2,4,2.3,5.9,0.2c0,0,2.1-29.3,6-57
		c3.4-23.9,2.9-46.5,4.8-48v-25.3C305.8,178.1,291.8,176.6,288.5,175.2z"/>
	<path class="st14" d="M287.8,173.1c0,0-3.1,14.8-1.6,16.1c3.4,2.9,15.9,0.2,25.5-1c9.6-1.2,27.2,0.8,27.7-1.2
		c1.2-5.3-1.1-16.9-1.1-16.9L287.8,173.1z"/>
	<path class="st15" d="M312.7,104.1c-0.7,0.5-7.7,4.4-9.7,4.1c0,0.6,1.4,6.4,0.1,9.6c0.6,2.9,8.7,2.9,10.9-2
		C313.1,114.3,312.3,106.8,312.7,104.1z"/>
	<path class="st15" d="M305.4,94.4c-3.7-0.3-7.2,0.6-8,4.1c-0.3,1.2,0.2,12.5,6.2,14.2c2.5,0.7,7.4-3.6,7.6-6.6c0,0,0.3-4,0.3-4.1
		C311.7,98.1,309.3,94.7,305.4,94.4z"/>
	<path class="st1" d="M333.3,128.9c-2.2-6.2-4.8-9.5-11.1-10.9c-2.1-0.5-8.2-2.2-8.2-2.2s-4.4,3.8-7.2,4c-2,0.1-3.7-2-3.7-2
		s-7.1,2.2-8.4,2.9c-5,2.9-5.1,7.8-5.4,11.9c-2.9,40.7-4.8,46.6-3.5,48.9c3.1,5.5,54.9,1.9,54-4.9
		C336.6,153.8,334,130.8,333.3,128.9z"/>
	<path class="st14" d="M313.6,92.6c-5.4-4.9-13.7,0.3-13.7,0.3c-6.3,1.2-5,10.5-2.1,11.8c-1.4-6.8,3.3-9,3.3-9
		c8.6-0.1,11.6,10.1,11,12.8C312.1,108.4,321.7,99.9,313.6,92.6z"/>
	<path class="st15" d="M311.3,100.5c-0.4,0-1.1,0.2-1.6,0.6c0.4,1.3,1.3,3.5,1.7,4.5c0.9-0.3,2.1-1.8,2-2.8
		C313.3,101.8,312.3,100.4,311.3,100.5z"/>
	<path class="st15" d="M266.3,98.2c-0.5,0-1,2.1-0.9,2.5c0.7,1,1.3,0.6,1.8,1.7c-0.3-1-0.4-2.1-0.4-3.1
		C266.8,98.8,267,98.2,266.3,98.2z"/>
	<path class="st15" d="M262.8,96.2c-0.4-0.5-1.4-1.9-1.8-2.1c-0.3-0.2-1.3-0.3-1.6-0.2c-0.5,0.2-0.5,0.8-0.5,0.8
		c-0.7,0.1,0,1.8-0.2,1.8c-0.7,0-1,1,0.7,2.9c0.1,0.1,3.2,5.7,4.3,7.4c1.1-0.6,3.9-3.4,3.9-3.5c-0.5-1.1-1.1-2.1-1.8-3.2
		C265,98.9,262.9,96.3,262.8,96.2z"/>
	<path class="st15" d="M324.4,122.3c-5.7-0.3-23.7,3.5-32.7,3.7c-11,0.2-6.9,7.8-3.6,8.8c8.8,2.7,34.3,5.8,36.2,1.4
		C325.1,134.2,325.4,122.3,324.4,122.3z"/>
	<path class="st19" d="M324.4,122.3c-3.7-1.6-14.4,1.3-23.1,1.5c-1.4,3.8-1.8,10.7-0.4,15.9c10.3,1.4,19.6,0.6,22.5-0.8
		C330.9,135.5,329.2,124.3,324.4,122.3z"/>
	<path class="st15" d="M292.2,128.3c-3.9-4.8-21.6-19.8-24.9-25.4c-1.6,1.4-3,2.5-4.2,3.1c5.6,9.1,22.2,30.2,26.4,29.1
		c3.8-1,3.9-4,3.3-5.8C292.7,128.9,292.5,128.6,292.2,128.3z"/>
	<path class="st14" d="M334.1,98.6c-1.8-24.9-22.1-14.4-21.6-7.9c0.1,1.6,1,2.6,2.3,0.9c2.2-2.9,10.2-5.4,5.6,9.8
		c-1.2,4-6.4,9.2,4.9,16.4c10.3,6.5,1.8,9.1,2.4,12.1c1.5,7.8,21.6-9.1,10.9-20.7C336.4,106.8,334.6,106.1,334.1,98.6z"/>
	<path class="st14" d="M313.7,90.3c-0.5-0.3-1-0.4-1.5-0.4c-1.1,0.1-1.9,0.9-1.9,0.9c2.6,0.9,4.8,3.3,4.8,3.3
		C315.7,92.8,315.6,91.5,313.7,90.3z"/>
	<path class="st20" d="M259,89.3c-0.6,0-1.2,0.5-1.2,1.2c0,0.6,0.5,1.2,1.2,1.2c0.6,0,1.2-0.5,1.2-1.2
		C260.2,89.8,259.7,89.3,259,89.3z"/>
	<path class="st4" d="M12.7,204.2c-0.6,2.6,0.3,5.7-0.2,8.4c-0.6,3.4-2.7,4.3-4.2,6.5c-1.7,2.5-2.5,7.2-1.9,11.3
		c0.4,2.5,1.2,4.6,1.9,6.9c0.6,2.3,1.1,5.1,0.5,7.5c-0.8,3.6-5.2,6.4-5.2,21.6c0,13.9,9.9,19.3,12.7,22.7v-90l-1.3,1.2
		C14.2,201.1,13.1,202.2,12.7,204.2z"/>
	<path class="st4" d="M24.3,237.2c0.6-2.3,1.5-4.4,1.9-6.9c0.6-4-0.2-8.8-1.9-11.3c-1.5-2.1-3.6-3.1-4.2-6.5
		c-0.5-2.7,0.4-5.8-0.2-8.4c-0.4-1.9-1.4-3-2.4-4l-1.3-1.2v90c2.8-3.4,12.7-8.8,12.7-22.7c0-15.2-4.4-18-5.2-21.6
		C23.2,242.3,23.7,239.5,24.3,237.2z"/>
	<path class="st1" d="M29.3,254.3c-0.7,1-0.4,2.5-1.1,3.5c-0.8,1.3-2.7,1.2-4.2,1.8c-1.7,0.7-2.9,2.5-2.8,4.4c0,1.1,0.5,2.2,0.8,3.3
		c0.3,1.1,0.3,2.4-0.4,3.3c-1.1,1.3-5,1.6-6.7,8c-1.5,5.9,6.1,10.3,8,12.3l9.9-37.9l-1.2,0.2C30.8,253.3,29.8,253.6,29.3,254.3z"/>
	<path class="st1" d="M34.5,259.5c-0.1-1.2,0.9-2.4,0.8-3.6c-0.1-0.9-0.9-1.6-1.6-2.2l-0.9-0.8l-9.9,37.9c2.7-0.8,11.5-1,13-6.8
		c1.7-6.4-1.6-8.5-1.9-10.2c-0.2-1.1,0.5-2.2,1.2-3c0.8-0.8,1.7-1.5,2.3-2.5c1-1.6,0.8-3.7-0.3-5.2C36.3,261.9,34.6,261,34.5,259.5z
		"/>
	<path class="st14" d="M0,286.7c0,0,6.2,6.6,6.2,11.1c0,1.2-0.4,3-1.1,5c-2,6.5,2.8,13.1,9.6,13.1H31c6.8,0,11.6-6.6,9.6-13.1
		c-0.6-2-1.1-3.9-1.1-5c0-4.5,6.2-11.1,6.2-11.1H0z"/>
</g>
</svg>
