<?xml version="1.0" encoding="utf-8"?>
<!-- Generator: Adobe Illustrator 22.1.0, SVG Export Plug-In . SVG Version: 6.00 Build 0)  -->
<svg version="1.1" id="object" xmlns="http://www.w3.org/2000/svg" xmlns:xlink="http://www.w3.org/1999/xlink" x="0px" y="0px"
	 viewBox="0 0 920 494.5" style="enable-background:new 0 0 920 494.5;" xml:space="preserve">
<style type="text/css">
	.st0{fill:#EDF4FF;}
	.st1{fill:#4E565F;}
	.st2{fill:#DC8C70;}
	.st3{fill:#3B455A;}
	.st4{fill:#E7EDF7;}
	.st5{fill:#474EBB;}
	.st6{fill:#E1CFB5;}
	.st7{fill:#CCD2D9;}
	.st8{fill:#FFFFFF;}
	.st9{fill:#EFBFA5;}
	.st10{fill:#F2D25D;}
	.st11{fill:#90CADD;}
	.st12{fill:#C67A6D;}
	.st13{fill:#F7F7F7;}
	.st14{fill:#D1F0F0;}
</style>
<g>
	<g>
		<path class="st0" d="M434.4,437.9c-18.2,0-36.4,0.4-54.5,2.1c-6.8,0.6-13.5,2-20.4,2.6c-13.7,1.1-27.2,3.2-40.9,4.2
			c-11.1,0.8-22.2,1.2-33.2,2.2c-10.4,0.9-21.8,0.7-32.1-0.8c-7.6-1.1-15.2-1.8-22.7-3.6c-8.4-2-17.5-3.5-26.2-3.4
			c-12.4,0.1-24.5,0.1-36.4,3.7c-4.2,1.3-9.3,3.3-12.5,6c-7.3,6-8.2,21.1-1,27.3c12.2,10.5,38.3,14.7,55.4,14.9
			c18.7,0.2,37-0.9,55.7-1.6c17.4-0.6,34.8-1.5,52.3-1.5c35.7,0.1,71.4,0,107-2c33.5-1.9,67-1.2,100.6-1.2c34.4,0,68.6,0.2,102.7,4
			c14.9,1.7,30,2.2,45,3.4c13.4,1,26.3,0,39.6-1c11.2-0.8,22.3-3.2,32.5-7.2c8.1-3.2,22.4-13.1,24.9-20.7
			c6.9-21.3-97.6-20.8-113.6-20.8c-18,0.1-36,0.5-54,0c-7.5-0.2-15-1.5-22.3-2.8c-7.3-1.3-14.7-1-22.2-1.6c-31-2.3-62.1-2-93.2-2
			C454.7,438,444.5,437.9,434.4,437.9z"/>
	</g>
	<g>
		<path class="st1" d="M204.1,212.9c-0.1,0.5-0.2,1.1,0.1,1.6c0.3,0.4,0.7,0.6,1.2,0.7c10.6,3.2,22.1,0.4,32.8-2.5
			c1.8-0.5,3.6-0.9,5.4-1.5c0.9-0.3,1.8-0.5,2.5-1.1c1-0.8,1.4-2.1,1.5-3.4c0.3-3-0.9-5.9-2-8.7c-3-7.1-6.4-13.9-10.3-20.5
			c-0.5-0.8-1-1.7-1.7-2.4c-1.4-1.3-3.6-1.6-5.5-1.2c-1.9,0.4-3.6,1.3-5.3,2.3c-5.8,3.5-9.7,7-10.9,13.7
			C210.3,198,206,205.1,204.1,212.9z"/>
		<path class="st2" d="M244.8,174.9c-4.5-16.2-24.8-11.5-29.6,2.3c-2.9,8.3,2.3,19.5,10.2,23.7c-0.3,2.2,0.3,7.8,0.4,7.8
			c2.8,0,5.7,0,8.5,0c0.1-2.1,0-4.2-0.1-6.3c1-0.2,2-0.5,3-0.9c4.6-2,7.7-6.7,8.7-11.7C246.9,184.9,246.1,179.7,244.8,174.9z"/>
		<g>
			<g id="XMLID_405_">
				<g id="XMLID_407_">
					<polygon class="st3" points="225.6,471.7 225.1,477 214.2,481.7 209.5,476 215.2,471 226.1,466.4 					"/>
				</g>
				<g id="XMLID_406_">
					<polygon class="st4" points="234.7,363.9 226.3,470 215.8,471.5 207.1,381 199.9,352.3 					"/>
				</g>
			</g>
			<g id="XMLID_402_">
				<g id="XMLID_404_">
					<polygon class="st4" points="256.7,335.5 264.7,461 256.6,464 236.6,368.5 225.6,340.9 					"/>
				</g>
				<g id="XMLID_403_">
					<polygon class="st3" points="257.4,468.1 268.8,471.6 273,465.2 266.8,460.8 256.4,462.8 					"/>
				</g>
			</g>
			<g id="XMLID_401_">
				<path class="st5" d="M245.5,204.7c-2.2-0.3-4.4,0-6.6,0.3c-6.6,0.9-13.2,2.5-19.5,4.7c-2,0.7-4.1,1.5-5.9,2.6
					c-9,5.4-8.3,13.8-9.9,23.1c-1.1,6.5-2.8,13.2-3.3,19.8c-1.2,17.3-6.6,34.7-14.1,50.5c-3.2,6.7-6.9,13.1-9.2,20.1
					c-3.7,11.6-3.7,25.3-2.7,37.3c10.6,2.9,20.5,8.2,31.4,9.6c8.9,1.1,18-0.5,27-1.3c10.6-0.9,21.3-0.7,32-1.5
					c10.6-0.8,21.4-2.7,30.8-7.7c-1,0.5-14.5-35.5-15.4-38.8c-1.6-5.4-2.4-11-3.3-16.6c-4.4-27.5-10-54.9-19-81.3
					c-2.3-6.8-2.8-19.2-11.4-20.9C246.1,204.8,245.8,204.7,245.5,204.7z"/>
			</g>
			<g id="XMLID_398_">
				<g id="XMLID_400_">
					<path class="st1" d="M229.8,170.5c4.9,0.9,11,5,12.2,10.2c0.6,2.5-0.2,4.7,0.5,7.4c1.4,5.2-4.9,12.8,1.3,16.4
						c3.2,1.8,7.2,1.2,10.9,0.6c0.4-0.1,0.9-0.2,1.3-0.4c0.6-0.5,0.7-1.3,0.5-2c-0.2-0.7-0.7-1.3-1.1-1.9
						c-4.3-6.4-3.3-15.6-4.9-22.8c-1.7-7.3-5.6-14.5-12.9-17.5c-3.6,2.3-6.3,6.1-7.2,10.3L229.8,170.5z"/>
				</g>
				<g id="XMLID_399_">
					<path class="st1" d="M211.9,210.7c2.3-1.4,4.6-2.9,6-5.6c2.2-4.3,1.3-11,1.5-15.7c0.3-4.9,0.7-10.3,4.1-13.9
						c2.2-2.3,5-3,8.1-3.3c2.1-0.2,2.3,0.6,4-0.7c1.3-1,2.3-3.7,2.4-5.2c0.3-2.6-1-5.2-2.8-7c-2.9-2.8-6.1-4.1-10.1-3.8
						c-13.9,0.9-23.6,9.9-26.4,23.5c-1.3,6.6,0.7,13.6-0.8,20c-0.9,3.9-3.2,6.7-3.8,10.8c-1.7,10.8-6.4,24.7-5,35.6
						c0.1,0.4,0.1,0.8,0.5,1.1c0.7,0.5,1.5-0.3,2-0.9c2.9-3.9,5.7-7.8,8.6-11.7c1.1-1.5,2.3-3.1,2.9-4.9c1.6-4.4,0.1-9.9,2.9-13.7
						C207.5,213.3,209.7,212.1,211.9,210.7z"/>
				</g>
			</g>
			<g id="XMLID_396_">
				<g id="XMLID_397_">
					<polygon class="st5" points="197.6,215.4 168.9,268.4 200.9,292 208.4,284.7 190.2,268.1 217.8,246.7 214.5,212 					"/>
				</g>
			</g>
		</g>
	</g>
	<polygon class="st6" points="455,238.6 444.5,234.5 442.6,236.5 442.6,239.9 437.3,239.9 437.7,246.1 442.6,247.9 452.8,246.5 	"/>
	<g id="XMLID_379_">
		<g id="XMLID_393_">
			<g id="XMLID_395_">
				<path class="st3" d="M542.6,453c1-1.1,2.3-1.8,3.6-1.6c1.3,0.2,2.5,1.1,3.1,2.3c0.4,0.8,0.4,1.7,0.5,2.6
					c0.4,4.6,0.3,15.6-5.8,17.1c-2.6,0.7-4.7-1.2-5.4-3.5C537.6,466.5,539.2,456.9,542.6,453z"/>
			</g>
			<g id="XMLID_394_">
				<path class="st2" d="M540.5,383.5l0.3,28.1c-0.4,12.5,1.6,25,1.2,37.5c-0.1,2.9-0.8,5.9-0.1,8.7c0.7,2.8,3,3.3,5.3,1.9
					c3.1-1.9,2.6-6.3,3.1-9.5c1.4-8.8,3.1-17.6,4.6-26.5c0.7-4.3-0.8-10.4-0.4-14.8c0,0,4.5-23.6,4.5-23.6L540.5,383.5z"/>
			</g>
		</g>
		<g id="XMLID_392_">
			<polygon class="st4" points="572.6,338 560.4,392.4 557.8,443.7 538.3,443.3 533.1,299.7 570.7,300.4 			"/>
		</g>
		<g id="XMLID_387_">
			<g id="XMLID_389_">
				<g id="XMLID_391_">
					<path class="st3" d="M514.9,452c1.1-1.1,2.3-1.6,3.7-1.3c1.3,0.3,2.5,1.3,2.9,2.5c0.3,0.8,0.4,1.8,0.4,2.7
						c0.2,4.6-0.3,15.6-6.5,16.8c-2.6,0.5-4.6-1.5-5.2-3.8C509.3,465.2,511.3,455.6,514.9,452z"/>
				</g>
				<g id="XMLID_390_">
					<path class="st2" d="M525.1,387.4l-1.6,28.1c-0.1,7.8-1.2,15.5-2,23.3c-0.8,7.2,0.4,14.7-3.3,21.2c-1.2,2.1-3.6,3.4-5.2,0.9
						c-1.3-1.9-0.5-5.1-0.8-7.3c-1-8.9-2.3-17.8-3.3-26.7c-0.5-4.4,1.3-10.4,1.1-14.7l-3.4-23.8L525.1,387.4z"/>
				</g>
			</g>
			<g id="XMLID_388_">
				<polygon class="st4" points="500.6,334.7 499,387.5 507.3,440.9 527,441.4 526.1,383.7 536.6,335.8 540.1,304.4 508.8,300.8 
									"/>
			</g>
		</g>
		<g id="XMLID_386_">
			<polygon class="st7" points="525.3,192.8 559.1,192 578.6,228.3 571.7,262.4 570.5,303.2 522.3,303.9 506.5,301.3 510.7,257.7 
				508.3,199.5 			"/>
		</g>
		<g id="XMLID_385_">
			<polygon class="st7" points="524.1,214.8 506.5,249.9 487.6,253.7 449.6,247.9 454.3,236 489.1,236 508.7,199.5 			"/>
		</g>
		<g id="XMLID_380_">
			<g id="XMLID_384_">
				<path class="st2" d="M527.5,164.5c5.1-14.8,24.6-9.2,28.6,3.9c2.6,8.6-4,19.7-12.9,22.2c0,0.3-0.1,0.7-0.1,0.9
					c0,1.4-0.2,2.7-0.4,4.1c-0.1,0.5-7.9-1-8.7-1.2c-0.3-0.1-0.6-0.1-0.8-0.4c-0.3-0.5,0.2-1.9,0.3-2.5c0.1-0.6,0.1-1.3,0.2-1.9
					c-4.4-2.1-7.2-6.7-7.9-11.4C524.9,173.7,525.9,168.9,527.5,164.5z"/>
			</g>
			<g id="XMLID_381_">
				<g id="XMLID_383_">
					<path class="st1" d="M540.2,151.1c1,1.1,1.5,2.5,1.8,4c0.2,0.8,0.3,1.7,0.2,2.6c-0.7,3.4-4.1,3.2-6.6,4.3
						c-3.2,1.3-5.9,3.8-7.7,6.6c-2.8,4.4-1.5,10.1-0.4,15c0.4,1.7,1.2,4.3-0.1,5.8c-1.4,1.6-4.5,1.3-6.1,0.5
						c-1.5-0.7-2.7-2.1-4.3-2.4c-1.7-0.3-4.1,0.5-4.9-1.1c-0.2-0.4-0.2-1-0.5-1.4c-1-1.4-3.3,0.2-4.7-0.7c-0.8-0.6-0.8-1.9-0.5-2.8
						c0.3-1,0.8-2,0.6-3c-0.2-0.9-0.8-1.6-1.2-2.4c-0.8-1.6-0.5-3.6,0.6-4.9c2.1-2.5,6.2-2,8.5-4.3c1.2-1.2,1.6-2.9,2.1-4.6
						c0.4-1.6,1-3.4,2.2-4.5c1.6-1.4,3.8-1.1,5.4-2.8c0.9-1,1.5-2.2,2.5-3c1.3-1.1,4-1.9,5.6-2.5
						C535.2,148.5,538.2,149.1,540.2,151.1z"/>
				</g>
				<g id="XMLID_382_">
					<path class="st1" d="M552.5,174.7c0.1,4.9-2.3,10.1-0.1,14.4c2.3,4.3,7.9,5.1,12.7,5.3c0.8,0,10.9,0.9,11,0.7
						c0.8-3.4,1.5-6.8,3.3-9.8c1.8-3,4.7-5.4,8.1-5.7c-1-0.2-1.5-1.4-1.4-2.4c0.1-1,0.6-1.9,0.9-2.9c0.7-2.4,0-5.2-1.8-6.8
						c-3.6-3.3-10.1-2-13.2-5.8c-1.9-2.4-1.7-5.8-2.7-8.7c-1.9-5.6-8.1-6.8-12.7-9.3c-4.9-2.7-9.4-4.2-15-3.2
						c-7,1.2-12.1,8.2-9.4,14.9c3.4,8.5,17.2,7.8,19.8,16.5C552.4,172.8,552.5,173.7,552.5,174.7z"/>
				</g>
			</g>
		</g>
	</g>
	<g id="XMLID_378_">
		<polygon class="st8" points="549.1,192.6 538.6,207.4 533.7,207 525.5,192 		"/>
	</g>
	<g>
		<polygon class="st9" points="314.5,170.8 307.9,158.9 314.3,146.6 321,150.2 320.2,160.3 323.7,163.7 322.4,172.3 		"/>
		<g>
			<g>
				<g>
					<polygon class="st1" points="414.5,283.3 415.4,359.8 407.3,458.4 396.2,458.4 382.9,367.5 367.7,276.4 					"/>
					<polygon class="st3" points="396.2,463.1 408.2,469.1 414.2,463.1 408.2,457.1 396.2,457.1 					"/>
				</g>
				<g>
					<polygon class="st1" points="338.5,283.3 338.2,327.6 345.7,458.4 356.8,458.4 375.4,371.6 385.3,276.4 					"/>
					<polygon class="st3" points="356.8,463.1 344.8,469.1 338.8,463.1 344.8,457.1 356.8,457.1 					"/>
				</g>
			</g>
			<path class="st10" d="M326.9,309.9c-0.2,7-0.1,16.4,2.9,16.8c0.6,0.1,1.1-0.2,1.6-0.4c5.1-2.5,8.8-6,13.9-8.4
				c5.3-2.5,11.4-3.9,17.3-4.8c8.8-1.4,17.8-2.3,26.6-2.3c7.6-0.1,15.5,3.4,22.7,5.3c2.8,0.7,5,2.8,7.3,4.3c3.4,2.3,4.9,3.3,4.4-1.5
				c-0.8-7.8-1.5-15.6-2.5-23.4c-1.9-15.5-4.5-31-8.9-46c-1.7-5.7-3.6-11.4-5.6-17.1c-2.4-6.9-4.7-13.8-7.1-20.7
				c-2.9-8.6-7.9-14.6-16.6-17.6c-7.5-2.6-16.8-3.3-24.1,0.3c-8.1,4-12,17.7-15.9,25.1c-3.5,6.4-7.8,23.9-9.1,30.9
				c-1.6,8.3-3,16.6-4.1,24.9c-1.3,9.2-2.1,18.3-2.4,27.4C327.2,303.8,327,306.6,326.9,309.9z"/>
			<path class="st8" d="M367,195.7l15,0.1c0,0,16.1,56.2,16.7,65.9c0.6,9.5,4.6,48.1,4.6,48.1s-16.6,0.4-35.7,2.7
				c-18.7,4-20.3,1.6-20.3,1.6s10.1-40.5,10.4-52.2c0.3-11.9,1.9-51.3,1.9-51.3L367,195.7z"/>
			<g>
				<path class="st9" d="M370.8,195.6c0.2,0.2,0.4,0.3,0.6,0.4c0.5,0.2,1,0.1,1.5,0c2-0.2,4-0.5,5.9-0.7c-0.7-6.1,2.9-7.4,6.4-11.4
					c3.5-4,2.4-9.3,2.2-14.1c-0.1-1.3-0.1-2.7-0.7-4c-1-2.1-3.3-3.3-5.6-4c-5.8-1.8-12.4-1.4-17.5,1.9c-1.4,0.9-2.6,2-3.4,3.4
					c-1.1,2.2-0.8,4.8-0.5,7.3c0.5,3.8,1.6,7.5,3.7,10.7c2,3,5.8,4.4,6.2,8C369.9,194,370.1,195,370.8,195.6z"/>
				<g>
					<path class="st1" d="M359.9,170c0.3,1.5,1,3.1,0.7,4.6c-2.4-0.8-4-3.3-4.9-5.8c-0.4-1.1-0.7-2.4-0.6-3.6
						c0.1-1.2,0.6-2.4,1.6-3.1c1.3-1,3.7-0.6,4.1,1.1C361.2,165,359.4,167.7,359.9,170z"/>
					<path class="st1" d="M347.1,156.6c0.1-1.8,0.8-3.5,2.4-4.6c1.4-1,3-1.7,3.9-3.3c0.7-1.2,0.8-2.6,1.4-3.8c1.2-2.1,3.8-2.8,6-3.5
						c5.6-1.8,8.7-3.9,14.6-1.6c4.2,1.6,9.7,1.9,13.7,4.3c1.6,1,3,2.6,4.2,4.4c4,6.2,4.9,15,2.3,21.4c-0.6,1.5-1.3,2.8-2.1,4.1
						c-1.6,2.6-3.3,5.7-6,6.9c-0.2-1.2-1.1-1.9-1.4-3.1c-0.2-0.9-0.1-1.7-0.1-2.6c0.2-3.4,1.2-8.8-2.2-10.5
						c-4.3-2.1-12.4-0.2-16.5,1.6c-3.7,1.6-9.9,3.7-13.8,2C349.9,166.8,346.9,160.5,347.1,156.6z"/>
				</g>
			</g>
		</g>
		<polygon class="st10" points="358.8,194.5 332.4,216.7 326.2,171.3 312.2,168.6 309.7,230.3 324.7,244.4 352,231 		"/>
	</g>
	<g>
		<g>
			<g id="XMLID_375_">
				<circle id="XMLID_376_" class="st11" cx="466" cy="305" r="94.7"/>
			</g>
			<g>
				<path class="st8" d="M488.2,241.8c-2.8-2.5-6.8-3.8-11.8-3.8c-4.1,0-7.9,0.9-11.3,2.6c-3.4,1.7-6,4.1-7.9,6.9
					c-1.9,2.9-2.9,6.1-2.9,9.6c0,3.9,1.4,7.1,4.3,9.6c2.8,2.5,6.8,3.8,11.9,3.8c4.1,0,7.9-0.8,11.2-2.5c3.3-1.7,5.9-4,7.8-7
					c1.9-2.9,2.9-6.1,2.9-9.5C492.4,247.6,491,244.3,488.2,241.8z"/>
				<path class="st8" d="M485.8,354.2c0,0-15.1,6-13.7-1.7l10.3-58.5c1.3-7.3-4.3-14-11.7-14h-16.4h-1.6H442l-0.9,3.6
					c0,0,10.8,0.6,9.2,9.9c-3.7,21.2-10.6,60-10.6,60c-0.9,5.2,0.9,10.6,4.8,14.2c5.8,5.3,13.9,5,21,2.7c2.4-0.8,22.9-10,22.9-10
					L485.8,354.2z"/>
			</g>
		</g>
	</g>
	<g id="XMLID_373_">
		<g id="XMLID_374_">
			<path class="st12" d="M206.3,294.4c1.7,2.2,8.2,5.4,11.1,4.6c6.6-1.8-1.2-6.4-3.6-8.5c1-0.6,2-1.1,2.9-1.9
				c0.8-0.7-8.1-4.9-9.5-4.8c-3.2,0.3-3.7,2.4-5.5,4.8C203.3,290.5,204.8,292.5,206.3,294.4z"/>
		</g>
	</g>
	<polygon class="st9" points="421.6,131.3 418.4,118.6 407.6,114.1 405.6,121.4 411.4,128.6 412.2,135.1 	"/>
	<polygon class="st10" points="385.3,195.4 419,181.8 408.4,128.7 420.6,127.3 441,182.7 436.8,199.5 398.6,225.2 	"/>
	<path class="st0" d="M499.2,0L316.5,0.8c-9.5,0-17.2,7.8-17.1,17.3l0.4,90.7c0,9.5,7.8,17.2,17.3,17.1l126.6-0.5l30.1,40.6
		l5.3-40.8l20.8-0.1c9.5,0,17.2-7.8,17.1-17.3l-0.4-90.7C516.5,7.7,508.7,0,499.2,0z"/>
	<g>
		<g id="XMLID_372_">
			<polygon class="st12" points="560.9,277.3 564.1,282 557.6,290.5 550.4,289.9 546.8,284.3 551.4,281 550.8,279.7 551.7,277.7 			
				"/>
		</g>
		<g id="XMLID_371_">
			<polygon class="st7" points="560.2,194.5 597.6,237.5 599.4,256.3 562.5,285.4 555.9,275.8 579.8,250.4 556.7,227.8 			"/>
		</g>
	</g>
	<g>
		<path class="st3" d="M669.8,473.1l9.5-8.8c2.8-1.4,5.7-2.4,8.1-2.3c1.7,0,3.1,0.6,4,1.9c0.8,1.3,1,2.9,0.4,4.2
			c-0.2,0.5-0.5,0.9-0.8,1.3l0,0c0,0,0,0,0,0c-0.3,0.4-0.6,0.7-0.9,1c-0.2,0.2-0.4,0.4-0.6,0.7c-2,2.1-5.3,5.6-6.6,6.4
			c-1.9,1.2-6.2,4.2-11.2,0.8c0,0,0,0,0.1,0C670,477,669.4,474.9,669.8,473.1z"/>
		<path class="st9" d="M677.3,396.4l0.8,11l3.8,53.8l-3.8,6.3c0,0-0.8,5,5,4.6c1.7-0.1,7.8-7.8,7.8-7.8l-0.9-3.5l4.3-40.4l0-11.7
			l2-13L677.3,396.4z"/>
	</g>
	<g>
		<path class="st3" d="M737.7,459.4c1.8-0.6,3.4-0.5,4.8,0.6c1.3,1,2,2.6,1.9,4.2c-0.1,1.1-0.5,2.1-1,3c-2.3,5-8.8,16.3-16.2,14.2
			c-3.1-0.9-4.3-4-3.7-6.9C724.5,470.3,731.8,461.3,737.7,459.4z"/>
	</g>
	<path class="st9" d="M700.4,390l1.3,15.9l31.2,56.2c0,0-4.5,7.8-1.6,8.5c2.8,0.7,11.2-1.7,11.2-10.5c-3.3-10.7-16.2-47.1-16.2-47.1
		l-6-9.4l0.1-17.7L700.4,390z"/>
	<path class="st7" d="M735.7,336.7c0.2-4.7-1.3-16.9-2.8-21.3c-5.6-16-6.7-23.9-6.7-36.9c0-13-2.5-53.7-2.5-53.7l-11.8-12.6l-24,0.7
		l-13.3,4.4c0,0-2.8,51.9-3.6,68.6c-0.6,11.9-1.4,22.3-2.5,36.1c0,0-3.1,31.5,1.7,65.4c0,0,1.1,11.2,1.5,12.2
		c0.1,0.3,0.1,0.5,0.1,0.5s0.2,0,0.2,0l53.5,0l0-19.3c1.8-6.2,3.5-12.4,5.1-18.6C732.5,354.3,735.2,345.4,735.7,336.7z"/>
	<path class="st5" d="M724.4,215.9l4.6,5.4c0,0-2.4,48.9-2.8,57.2c-0.4,8.3,10.3,41.4,10.3,41.4l-44.3,5.8c0,0-6.5-35.4-8.4-53
		c-1.9-17.6,24.9-60.4,24.9-60.4L724.4,215.9z"/>
	<path class="st5" d="M680,215l-9,4.3c0,0,1.3,52.8-1,66.2c-1.4,8.2-6.9,34.7-6.9,34.7l14.3,4.9c0,0,8.8-33.1,10.5-50.7
		c1.7-17.6-0.2-61.3-0.2-61.3L680,215z"/>
	<g>
		<g>
			<path class="st1" d="M681.8,195.7c-1.2,4.5,1.5,9,3.9,12.8c1,1.6,2.5,3.7,1.2,5.5c-1.4,2-4.8,1.6-6.4,0.1
				c-1.1-1.1-1.6-2.5-2.1-3.9c-2.1-6.2-4.9-15-4.4-21.6c0.4-5.3,6.9-14.6,13.6-11.3c1.2,0.6,2,1.7,2.6,2.9c0.4,0.7,0.8,1.4,0.9,2.1
				c0.3,3-2.6,3.8-4.6,5.5C684.2,189.9,682.5,192.8,681.8,195.7z"/>
			<path class="st9" d="M692.9,212c-4.4-0.6-8.2-3.7-10.1-7.4c-2-3.7-2.5-8-2.4-12.2c0.3-14,18.8-14.7,26-4.7
				C712.6,196.4,705.8,213.6,692.9,212z"/>
			<path class="st1" d="M705.5,194.2c0.2,1.7,1,3.5,1.3,5.2c0.4,3.2-0.3,7.3,0.9,10.3c3.2-0.4,7.2-2.5,9.6-4.7c2.5-2.3,2-5.7,2.6-9
				c0.5-3.1,1.2-6.2,1-9.4c-1-17.2-18.1-26.6-33.2-18.8c-5.7,2.9-8.2,10.4-4,15.3c4.5,5.3,13.7,3,19.1,6.9
				C703.9,190.9,704.8,192.4,705.5,194.2z"/>
		</g>
		<path class="st9" d="M692.5,210.6c0.2,1,0.5,2.1,0.7,3.1c0.1,0.5,0.1,1.8,0.5,2.2c0.2,0.2,0.5,0.1,0.8,0.1c0.8-0.1,8-1,7.9-1.5
			c-0.2-1.2-0.4-2.4-0.8-3.6c-0.3-0.9-0.4-2.7-1-3.4c-1.2,0.8-2.5,1.4-3.9,1.8c-1.4,0.4-2.8,0.8-4.2,1.1
			C692.5,210.4,692.5,210.5,692.5,210.6z"/>
	</g>
	<polygon class="st9" points="663.7,149.4 668.1,136.4 679.8,132.6 681.3,140.4 674.6,147.5 673.2,154.2 	"/>
	<polygon class="st5" points="687.5,226.8 662.7,204 677.7,147.9 665.1,145.3 638.9,201.5 641.8,219.5 679.5,249.8 	"/>
	<g>
		<g>
			<g>
				<path class="st2" d="M628.9,176.2c-5.4-1.3-10.6-0.5-15.3,2.4c-4.7,2.9-7.7,7.1-9.1,12.5c-1.3,5.5-0.5,10.6,2.4,15.3
					c2.9,4.7,7.1,7.7,12.5,9.1c2.2,0.5,4.3,0.7,6.3,0.6c3.1-0.2,6.1-1.2,9-2.9c4.7-2.9,7.7-7.1,9.1-12.5c1.3-5.4,0.5-10.6-2.4-15.3
					C638.6,180.5,634.3,177.5,628.9,176.2z"/>
			</g>
			<g>
				<path class="st2" d="M731.9,37.2c-9.3-14-24-23.4-43.7-28.2c-19.7-4.7-37.2-3-52,5.1c-12.9,7.1-21.9,18.2-26.9,33
					c-0.8,2.5-0.6,5.3,0.7,7.6c1.3,2.3,3.5,4,6,4.6l11.7,2.8c4.7,1.1,9.4-1.4,11.1-6c2.9-8,7.4-13.7,13.8-17.2
					c7.8-4.3,17.4-5.1,28.7-2.4c11.2,2.7,19.4,7.9,24.2,15.5c4.8,7.5,5.8,17,3.2,28c-3.7,15.2-10.5,24.4-20.3,27.3
					c-10.3,3.1-25.1,2.2-44.1-2.5l-5.1-1.2c-5.1-1.2-10.2,1.9-11.4,7l-10.6,44.1c-0.6,2.5-0.2,5,1.1,7.1c1.3,2.2,3.4,3.7,5.8,4.3
					l11.9,2.9c1,0.2,1.9,0.3,2.9,0.2c4-0.3,7.5-3.1,8.5-7.2l6.9-28.6c0.1-0.4,0.4-0.6,0.8-0.5c22.3,4.7,40.5,3.9,54.1-2.4
					c14.5-6.8,24.3-20.6,29.3-41.2C743.5,68.7,741.3,51.2,731.9,37.2z"/>
			</g>
		</g>
	</g>
	<g>
		<g>
			<g>
				<path class="st1" d="M702.4,376l-78.2-2.5c-0.6,0-1.1-0.6-1.1-1.2l4.3-132.9c0-0.6,0.6-1.1,1.2-1.1l78.2,2.5
					c0.6,0,1.1,0.6,1.1,1.2l-4.3,132.9C703.5,375.6,703,376,702.4,376z"/>
			</g>
			
				<rect x="631.4" y="246.5" transform="matrix(0.9995 3.243598e-02 -3.243598e-02 0.9995 10.1246 -21.4333)" class="st0" width="68.6" height="109.6"/>
			<path class="st13" d="M671.4,369.6l-15.8-0.5c-0.6,0-1.1-0.5-1.1-1.1l0.1-3.5c0-0.6,0.5-1.1,1.1-1.1l15.8,0.5
				c0.6,0,1.1,0.5,1.1,1.1l-0.1,3.5C672.5,369.1,672,369.6,671.4,369.6z"/>
		</g>
	</g>
	<g>
		<polygon class="st9" points="719.4,300.6 713.8,313.2 701.8,315.9 701.1,308 708.4,301.5 710.4,295 		"/>
		<polygon class="st5" points="713.9,224 730.6,260.3 710.4,295 718.7,302.6 747.1,267 751.4,254.8 728.9,221.3 		"/>
	</g>
	<g>
		<polygon class="st12" points="275.2,192.4 274,187.2 275.3,186 277.8,188.2 281.1,181.6 286.5,178.4 289.3,181.4 284.7,188.5 
			281.6,192.9 279.1,202.3 274.6,201 		"/>
		<path class="st5" d="M268.5,220c1.7-8.5,3.1-17,4-25.6c3.6-0.3,7.2,0.3,10.6,1.6c0.9,15.2,0.2,30.5-2.1,45.5
			c-0.1,0.6-0.2,1.4-0.8,1.8c-0.4,0.3-1,0.4-1.6,0.4c-5.3,0-10.5-1.6-15.5-3.3c-7.7-2.6-15.2-5.7-22.5-9.2c0.8-4.6,1-9.4,0.5-14.1
			c-0.6-6.5,0.8-15.3,8.8-10.3C252,208.1,268.8,218.2,268.5,220z"/>
	</g>
	<g>
		<g>
			<g>
				<path class="st14" d="M99.6,112.7l-3.5-1l0.3-3.6c0.1-1.1,0.2-2.3,0.2-3.4c0-19.3-15.7-35-35-35c-14.4,0-27.5,9-32.7,22.5
					l-1.2,3.1L24.6,95c-0.7-0.1-1.5-0.1-2.2-0.1C10.1,94.8,0,104.9,0,117.3s10.1,22.4,22.4,22.4h73.4c7.6,0,13.8-6.2,13.8-13.8
					C109.6,119.8,105.5,114.4,99.6,112.7z"/>
			</g>
		</g>
		<g>
			<g>
				<path class="st14" d="M588.1,32.6l-1.7-0.5l0.2-1.7c0.1-0.6,0.1-1.1,0.1-1.6c0.1-9.4-7.4-17.1-16.8-17.2
					c-7-0.1-13.4,4.2-16,10.7l-0.6,1.5l-1.6-0.2c-0.4,0-0.7-0.1-1.1-0.1c-6-0.1-11,4.7-11,10.7c-0.1,6,4.7,11,10.7,11l35.7,0.5
					c3.7,0.1,6.7-2.9,6.8-6.6C592.9,36.2,591,33.5,588.1,32.6z"/>
			</g>
		</g>
		<g>
			<g>
				<path class="st14" d="M911.4,105.4l-3-0.9l0.3-3.1c0.1-1,0.1-2,0.1-2.9c0-16.7-13.6-30.3-30.3-30.3c-12.5,0-23.9,7.8-28.3,19.5
					l-1,2.7l-2.8-0.3c-0.6-0.1-1.3-0.1-1.9-0.1c-10.7,0-19.4,8.7-19.4,19.4s8.7,19.4,19.4,19.4h63.6c6.6,0,11.9-5.4,11.9-11.9
					C920,111.6,916.5,106.9,911.4,105.4z"/>
			</g>
		</g>
	</g>
</g>
</svg>
